<svg width="56" height="56" viewBox="0 0 56 56" fill="none" xmlns="http://www.w3.org/2000/svg">
<path fill-rule="evenodd" clip-rule="evenodd" d="M27.5924 13.4856V7.12598H28.5864V13.4856H42.9846C44.5782 13.4856 45.8354 14.8365 45.8354 16.4501V16.5124L42.2906 30.4375C42.1456 31.0539 41.8516 31.7432 41.3994 32.29C40.9426 32.8423 40.2911 33.2839 39.454 33.2839H16.6397C16.203 33.2839 15.8191 33.1799 15.4856 32.9998L16.5328 37.1382C16.5329 37.1384 16.5331 37.1392 16.0512 37.2611L16.5328 37.1382L16.5434 37.1799L16.5461 37.2147C16.5462 37.2155 16.5464 37.2165 16.5466 37.2176C16.5478 37.2256 16.5506 37.2423 16.5563 37.2667C16.5677 37.3153 16.5906 37.3941 16.6344 37.4934C16.7213 37.69 16.8942 37.9748 17.2386 38.2699C17.9265 38.8591 19.3575 39.5365 22.3043 39.5365H39.6443L39.6453 40.5305H22.3043C19.2178 40.5305 17.5223 39.8217 16.592 39.0247C16.1273 38.6267 15.8681 38.2184 15.7253 37.8952C15.6543 37.7346 15.6128 37.5967 15.5886 37.4938C15.5765 37.4423 15.5688 37.3995 15.5638 37.3668C15.5631 37.3619 15.5624 37.3571 15.5617 37.3526L13.8838 30.7216C13.8559 30.6303 13.8298 30.5385 13.8055 30.4465L13.8036 30.4395L13.2745 28.3138L12.7877 26.3899C11.321 20.5942 9.7028 14.2003 9.09666 11.8073C8.71775 10.298 7.99578 9.64849 7.42689 9.35686C7.13316 9.20628 6.86178 9.14152 6.66656 9.11435C6.56921 9.1008 6.49201 9.09678 6.4422 9.09592C6.41735 9.09549 6.39952 9.09586 6.38961 9.09619L6.38145 9.09654L6.36529 9.09782H2.80078V8.10382H6.33081C6.33795 8.10346 6.3464 8.10308 6.35609 8.10276C6.3819 8.10189 6.41665 8.10133 6.45932 8.10207C6.54456 8.10354 6.66209 8.11015 6.80357 8.12984C7.08601 8.16915 7.46865 8.26126 7.88034 8.47231C8.72218 8.90387 9.6168 9.79749 10.0603 11.5636C10.2451 12.2932 10.524 13.3945 10.8638 14.7372C11.3773 13.9855 12.2199 13.4856 13.187 13.4856H27.5924ZM27.5924 14.4796H13.187C12.2043 14.4796 11.3604 15.317 11.3311 16.3924L14.2386 28.0718L14.8412 30.453C15.0026 30.9735 15.2173 31.4154 15.4879 31.7338C15.7899 32.0891 16.1578 32.2899 16.6397 32.2899H39.454C39.9072 32.2899 40.3014 32.0579 40.6334 31.6565C40.9687 31.2511 41.2062 30.7088 41.3239 30.2061L41.326 30.1967L44.8406 16.3911C44.8108 15.3106 43.968 14.4796 42.9846 14.4796H28.5864V25.724L33.8352 20.4805L34.5377 21.1837L28.0821 27.6328L21.7472 21.297L22.4501 20.5942L27.5924 25.7372V14.4796ZM22.0561 44.246C20.4943 44.246 19.2281 45.5123 19.2281 47.0745C19.2281 48.6367 20.4943 49.903 22.0561 49.903C23.6179 49.903 24.8842 48.6367 24.8842 47.0745C24.8842 45.5123 23.6179 44.246 22.0561 44.246ZM18.2341 47.0745C18.2341 44.9635 19.9452 43.252 22.0561 43.252C24.167 43.252 25.8782 44.9635 25.8782 47.0745C25.8782 49.1855 24.167 50.897 22.0561 50.897C19.9452 50.897 18.2341 49.1855 18.2341 47.0745ZM33.4279 44.246C31.8661 44.246 30.5998 45.5123 30.5998 47.0745C30.5998 48.6367 31.8661 49.903 33.4279 49.903C34.9897 49.903 36.2559 48.6367 36.2559 47.0745C36.2559 45.5123 34.9897 44.246 33.4279 44.246ZM29.6058 47.0745C29.6058 44.9635 31.3169 43.252 33.4279 43.252C35.5388 43.252 37.2499 44.9635 37.2499 47.0745C37.2499 49.1855 35.5388 50.897 33.4279 50.897C31.3169 50.897 29.6058 49.1855 29.6058 47.0745Z" fill="#F3652B"/>
</svg>
