<svg width="23" height="21" viewBox="0 0 23 21" fill="none" xmlns="http://www.w3.org/2000/svg">
<path d="M16.7486 11.8542L11.5 9.13899L6.25146 11.8542M16.7486 11.8542V17.2847L11.5 20L6.25146 17.2847V11.8542M16.7486 11.8542L12.8232 13.8838M6.25146 11.8542L10.1989 13.8953M11.4985 3.71525L11.4971 9.1435L16.7471 11.8565M11.4985 3.71525L16.75 1L22 3.713L21.9985 9.14125L16.7471 11.8565M11.4985 3.71525L15.4239 5.74486M16.7471 11.8565L16.7471 7.77448M11.5015 3.71525L11.5029 9.1435L6.25291 11.8565M11.5015 3.71525L6.25 1L1 3.713L1.00145 9.14125L6.25291 11.8565M11.5015 3.71525L7.57608 5.74486M6.25291 11.8565L6.25291 7.77448" stroke="#F3652B" stroke-linecap="round" stroke-linejoin="round"/>
</svg>
