<svg width="22" height="23" viewBox="0 0 22 23" fill="none" xmlns="http://www.w3.org/2000/svg">
<path d="M8.85536 3.39746L9.11009 2.96721C8.953 2.87421 8.75772 2.87421 8.60064 2.96721L8.85536 3.39746ZM16.7107 8.0481H17.2107C17.2107 7.87142 17.1175 7.70785 16.9655 7.61785L16.7107 8.0481ZM16.7107 17.3494L16.9655 17.7796C17.1175 17.6896 17.2107 17.526 17.2107 17.3494H16.7107ZM8.85536 22L8.60064 22.4303C8.75772 22.5232 8.953 22.5232 9.11009 22.4303L8.85536 22ZM1 17.3494H0.5C0.5 17.526 0.593244 17.6896 0.745277 17.7796L1 17.3494ZM1 8.0481L0.745277 7.61785C0.593244 7.70785 0.5 7.87142 0.5 8.0481H1ZM9.35536 15.1628C9.35536 14.8866 9.13151 14.6628 8.85536 14.6628C8.57922 14.6628 8.35536 14.8866 8.35536 15.1628H9.35536ZM6.99867 12.1806C7.2363 12.3212 7.54297 12.2427 7.68365 12.005C7.82433 11.7674 7.74574 11.4607 7.50812 11.3201L6.99867 12.1806ZM10.2026 11.3201C9.96499 11.4607 9.88641 11.7674 10.0271 12.005C10.1678 12.2427 10.4744 12.3212 10.7121 12.1806L10.2026 11.3201ZM21.0385 15.3709C21.276 15.2301 21.3544 14.9233 21.2136 14.6858C21.0728 14.4483 20.7661 14.3699 20.5285 14.5107L21.0385 15.3709ZM18.6884 15.6017C18.4509 15.7425 18.3725 16.0492 18.5133 16.2868C18.6542 16.5243 18.9609 16.6027 19.1984 16.4619L18.6884 15.6017ZM18.8623 6.21073C18.6245 6.35119 18.5457 6.65779 18.6861 6.89554C18.8266 7.13329 19.1332 7.21216 19.3709 7.0717L18.8623 6.21073ZM21.2543 5.95903C21.4921 5.81857 21.5709 5.51197 21.4305 5.27422C21.29 5.03647 20.9834 4.95759 20.7457 5.09805L21.2543 5.95903ZM10.6582 1.76792C10.4202 1.90808 10.341 2.21458 10.4811 2.45251C10.6213 2.69044 10.9278 2.7697 11.1657 2.62954L10.6582 1.76792ZM13.2007 1.43081C13.4386 1.29065 13.5178 0.984149 13.3777 0.74622C13.2375 0.508291 12.931 0.429033 12.6931 0.569192L13.2007 1.43081ZM8.60064 3.82771L16.456 8.47835L16.9655 7.61785L9.11009 2.96721L8.60064 3.82771ZM16.2107 8.0481V17.3494H17.2107V8.0481H16.2107ZM16.456 16.9191L8.60064 21.5697L9.11009 22.4303L16.9655 17.7796L16.456 16.9191ZM9.11009 21.5697L1.25472 16.9191L0.745277 17.7796L8.60064 22.4303L9.11009 21.5697ZM1.5 17.3494V8.0481H0.5V17.3494H1.5ZM1.25472 8.47835L9.11009 3.82771L8.60064 2.96721L0.745277 7.61785L1.25472 8.47835ZM9.35536 22V15.1628H8.35536V22H9.35536ZM7.50812 11.3201L1.25472 7.61785L0.745277 8.47835L6.99867 12.1806L7.50812 11.3201ZM10.7121 12.1806L16.9655 8.47835L16.456 7.61785L10.2026 11.3201L10.7121 12.1806ZM20.5285 14.5107L18.6884 15.6017L19.1984 16.4619L21.0385 15.3709L20.5285 14.5107ZM19.3709 7.0717L21.2543 5.95903L20.7457 5.09805L18.8623 6.21073L19.3709 7.0717ZM11.1657 2.62954L13.2007 1.43081L12.6931 0.569192L10.6582 1.76792L11.1657 2.62954Z" fill="#F3652B"/>
</svg>
