<svg width="24" height="20" viewBox="0 0 24 20" fill="none" xmlns="http://www.w3.org/2000/svg">
<path d="M17.7721 11.4896C17.7721 13.7019 14.0149 15.4851 9.39143 15.4851C4.75674 15.4851 1.01074 13.6885 1.01074 11.4896C1.01074 9.27736 4.76799 7.49414 9.39143 7.49414C14.0149 7.49414 17.7721 9.27736 17.7721 11.4896Z" fill="white" stroke="#F3652B"/>
<path d="M9.38069 15.4847C4.746 15.4847 1 13.6881 1 11.4893V14.6401C1 16.8523 4.75725 18.6355 9.38069 18.6355C14.0154 18.6355 17.7614 16.8389 17.7614 14.6401L17.7276 11.811C17.3901 13.8758 13.7904 15.4847 9.38069 15.4847Z" fill="white" stroke="#F3652B"/>
<path d="M17.7721 8.33825C17.7721 10.5505 14.0149 12.3337 9.39143 12.3337C4.75674 12.3337 1.01074 10.5371 1.01074 8.33825C1.01074 6.12599 4.76799 4.34277 9.39143 4.34277C14.0149 4.34277 17.7721 6.12599 17.7721 8.33825Z" fill="white" stroke="#F3652B"/>
<path d="M9.38069 12.3334C4.746 12.3334 1 10.5367 1 8.33789V11.4887C1 13.7009 4.75725 15.4842 9.38069 15.4842C14.0154 15.4842 17.7614 13.6875 17.7614 11.4887L17.7276 8.65968C17.3901 10.7245 13.7904 12.3334 9.38069 12.3334Z" fill="white" stroke="#F3652B"/>
<path d="M22.7721 4.99548C22.7721 7.20774 19.0149 8.99095 14.3914 8.99095C9.75674 8.99095 6.01074 7.19433 6.01074 4.99548C6.01074 2.78321 9.76799 1 14.3914 1C19.0149 1 22.7721 2.78321 22.7721 4.99548Z" fill="white" stroke="#F3652B"/>
<path d="M14.3807 8.99157C9.746 8.99157 6 7.19495 6 4.99609V8.14689C6 10.3591 9.75725 12.1424 14.3807 12.1424C19.0154 12.1424 22.7614 10.3457 22.7614 8.14689L22.7276 5.31788C22.3901 7.38266 18.7904 8.99157 14.3807 8.99157Z" fill="white" stroke="#F3652B"/>
</svg>
