<svg width="123" height="33" viewBox="0 0 123 33" fill="none" xmlns="http://www.w3.org/2000/svg">
<g clip-path="url(#clip0_2252_104439)">
<path d="M38.522 12.9884V11.8143C38.522 7.95353 41.7815 5.09766 45.612 5.09766C46.3801 5.09766 47.1482 5.21399 47.4907 5.33035L46.6085 8.77858C46.297 8.66222 45.9545 8.61992 45.612 8.61992C43.619 8.61992 42.2799 10.1007 42.2799 11.8248V12.999H46.8782V15.8865H42.2799V30.5681H38.522V15.876H36.3008V12.9884H38.522Z" fill="white"/>
<path d="M47.6367 21.7761C47.6367 16.6989 51.2387 12.7959 55.9929 12.7959C58.4426 12.7959 60.5915 14.1287 61.8577 16.1172V12.9969H65.6051V30.566H61.8475V27.4456C60.5394 29.4342 58.4011 30.7668 55.9825 30.7668C51.2387 30.7563 47.6367 26.8109 47.6367 21.7761ZM51.3944 21.7761C51.3944 25.1715 53.73 27.8264 56.6054 27.8264C59.055 27.8264 61.8577 25.7532 61.8577 21.7761C61.8577 18.4231 59.595 15.7259 56.6054 15.7259C53.73 15.7259 51.3944 18.4548 51.3944 21.7761Z" fill="white"/>
<path d="M68.0215 23.183V12.9971H71.7375V23.4263C71.7375 25.6899 73.4191 27.6467 75.7962 27.6467C78.8273 27.6467 80.4674 25.034 80.4674 23.1937V13.0076H84.1835V30.5767H80.4674V28.1968C79.2841 29.7199 77.4052 30.7776 75.215 30.7776C70.6995 30.7565 68.0215 27.2766 68.0215 23.183Z" fill="white"/>
<path d="M86.2617 30.5572V12.9881H89.9781V15.368C91.1301 13.8449 93.0088 12.7871 95.2303 12.7871C99.7145 12.7871 102.434 16.2671 102.434 20.3604V30.5466H98.7186V20.1172C98.7186 17.7373 96.9224 15.8969 94.6175 15.8969C91.5554 15.8969 89.9781 18.6259 89.9781 20.35V30.5359H86.2617V30.5572Z" fill="white"/>
<path d="M104.117 21.7761C104.117 16.6989 107.719 12.7959 112.473 12.7959C114.923 12.7959 117.072 14.1287 118.338 16.1172V12.9969H122.096V30.566H118.338V27.4456C117.031 29.4342 114.892 30.7668 112.473 30.7668C107.719 30.7563 104.117 26.8109 104.117 21.7761ZM107.875 21.7761C107.875 25.1715 110.21 27.8264 113.086 27.8264C115.536 27.8264 118.338 25.7532 118.338 21.7761C118.338 18.4231 116.075 15.7259 113.086 15.7259C110.21 15.7259 107.875 18.4548 107.875 21.7761Z" fill="white"/>
<path d="M22.1932 6.76855C20.2314 7.43494 19.2867 8.63019 18.6432 10.4918C18.4771 10.9889 18.0619 11.539 17.5948 11.9092L19.2037 13.665L14.0965 10.0264L0 -0.000976562C0 -0.000976562 1.01728 6.72625 1.37021 9.20138C1.61934 10.9466 2.04494 11.7293 3.39438 12.5227L3.93417 12.8188L6.25938 14.067L4.87879 13.3371L11.2523 16.8805L11.2109 16.9758L4.34938 13.7391C4.71271 15.0084 5.41855 17.4517 5.71959 18.5307C6.04139 19.6941 6.4047 20.1172 7.51541 20.5299L9.56038 21.2914L10.8268 20.7836L9.21783 21.8731L1.17298 32.2706C6.51889 27.2147 11.0447 25.4165 14.3561 23.9463C18.5809 22.0847 21.1241 20.8895 22.7849 16.5949C23.9683 13.5804 24.8921 9.7197 26.0653 8.22824L28.5669 4.97041C28.5669 4.97041 23.3869 6.36662 22.1932 6.76855Z" fill="white"/>
</g>
<defs>
<clipPath id="clip0_2252_104439">
<rect width="122.019" height="32.1995" fill="white"/>
</clipPath>
</defs>
</svg>
