<svg width="126" height="32" viewBox="0 0 126 32" fill="none" xmlns="http://www.w3.org/2000/svg">
<path d="M20.3682 8.72442C20.3682 8.16414 20.5334 7.61645 20.843 7.15059C21.1526 6.68474 21.5926 6.32165 22.1075 6.10724C22.6223 5.89283 23.1888 5.83673 23.7353 5.94603C24.2819 6.05534 24.7839 6.32514 25.178 6.72132C25.572 7.11749 25.8403 7.62225 25.949 8.17177C26.0578 8.72128 26.002 9.29087 25.7887 9.8085C25.5755 10.3261 25.2143 10.7686 24.751 11.0798C24.2877 11.3911 23.7429 11.5572 23.1857 11.5572C22.4384 11.5572 21.7218 11.2588 21.1934 10.7275C20.665 10.1963 20.3682 9.47573 20.3682 8.72442Z" fill="white"/>
<path d="M0 8.72442C0 8.16414 0.165246 7.61645 0.474838 7.15059C0.784429 6.68474 1.22446 6.32165 1.73929 6.10724C2.25413 5.89283 2.82063 5.83673 3.36718 5.94603C3.91372 6.05534 4.41575 6.32514 4.80979 6.72132C5.20382 7.11749 5.47216 7.62225 5.58088 8.17177C5.68959 8.72128 5.6338 9.29087 5.42055 9.8085C5.20729 10.3261 4.84617 10.7686 4.38283 11.0798C3.9195 11.3911 3.37476 11.5572 2.81751 11.5572C2.07026 11.5572 1.35362 11.2588 0.82523 10.7275C0.296845 10.1963 0 9.47573 0 8.72442Z" fill="white"/>
<path d="M6.76074 8.72442C6.76074 8.16414 6.92598 7.61645 7.23558 7.15059C7.54517 6.68474 7.9852 6.32165 8.50004 6.10724C9.01487 5.89283 9.58138 5.83673 10.1279 5.94603C10.6745 6.05534 11.1765 6.32514 11.5705 6.72132C11.9646 7.11749 12.2329 7.62225 12.3416 8.17177C12.4503 8.72128 12.3945 9.29087 12.1813 9.8085C11.968 10.3261 11.6069 10.7686 11.1436 11.0798C10.6802 11.3911 10.1355 11.5572 9.57825 11.5572C8.831 11.5572 8.11435 11.2588 7.58597 10.7275C7.05758 10.1963 6.76074 9.47573 6.76074 8.72442Z" fill="white"/>
<path d="M20.3818 15.6131C20.3818 15.0528 20.5471 14.5051 20.8567 14.0393C21.1663 13.5734 21.6063 13.2103 22.1211 12.9959C22.636 12.7815 23.2025 12.7254 23.749 12.8347C24.2956 12.944 24.7976 13.2138 25.1916 13.61C25.5857 14.0062 25.854 14.5109 25.9627 15.0604C26.0714 15.6099 26.0156 16.1795 25.8024 16.6972C25.5891 17.2148 25.228 17.6572 24.7647 17.9685C24.3013 18.2798 23.7566 18.4459 23.1993 18.4459C22.4523 18.4452 21.7361 18.1465 21.2078 17.6154C20.6796 17.0843 20.3825 16.3642 20.3818 15.6131Z" fill="white"/>
<path d="M13.5586 8.72442C13.5586 8.16414 13.7238 7.61645 14.0334 7.15059C14.343 6.68474 14.7831 6.32165 15.2979 6.10724C15.8127 5.89283 16.3792 5.83673 16.9258 5.94603C17.4723 6.05534 17.9743 6.32514 18.3684 6.72132C18.7624 7.11749 19.0308 7.62225 19.1395 8.17177C19.2482 8.72128 19.1924 9.29087 18.9791 9.8085C18.7659 10.3261 18.4048 10.7686 17.9414 11.0798C17.4781 11.3911 16.9334 11.5572 16.3761 11.5572C15.6289 11.5572 14.9122 11.2588 14.3838 10.7275C13.8554 10.1963 13.5586 9.47573 13.5586 8.72442Z" fill="white"/>
<path d="M13.5586 15.6131C13.5586 15.0528 13.7238 14.5051 14.0334 14.0393C14.343 13.5734 14.7831 13.2103 15.2979 12.9959C15.8127 12.7815 16.3792 12.7254 16.9258 12.8347C17.4723 12.944 17.9743 13.2138 18.3684 13.61C18.7624 14.0062 19.0308 14.5109 19.1395 15.0604C19.2482 15.6099 19.1924 16.1795 18.9791 16.6972C18.7659 17.2148 18.4048 17.6572 17.9414 17.9685C17.4781 18.2798 16.9334 18.4459 16.3761 18.4459C15.6291 18.4452 14.9128 18.1465 14.3846 17.6154C13.8564 17.0843 13.5593 16.3642 13.5586 15.6131Z" fill="white"/>
<path d="M6.84375 22.4998C6.84375 21.9395 7.009 21.3918 7.31859 20.926C7.62818 20.4601 8.06821 20.097 8.58305 19.8826C9.09788 19.6682 9.66438 19.6121 10.2109 19.7214C10.7575 19.8307 11.2595 20.1005 11.6535 20.4967C12.0476 20.8929 12.3159 21.3976 12.4246 21.9472C12.5333 22.4967 12.4775 23.0663 12.2643 23.5839C12.051 24.1015 11.6899 24.5439 11.2266 24.8552C10.7632 25.1665 10.2185 25.3326 9.66126 25.3326C9.29116 25.333 8.92463 25.2599 8.58263 25.1177C8.24064 24.9755 7.9299 24.7668 7.6682 24.5037C7.4065 24.2406 7.19898 23.9282 7.05751 23.5843C6.91604 23.2404 6.8434 22.8719 6.84375 22.4998Z" fill="white"/>
<path d="M13.5586 22.4998C13.5586 21.9395 13.7238 21.3918 14.0334 20.926C14.343 20.4601 14.7831 20.097 15.2979 19.8826C15.8127 19.6682 16.3792 19.6121 16.9258 19.7214C17.4723 19.8307 17.9743 20.1005 18.3684 20.4967C18.7624 20.8929 19.0308 21.3976 19.1395 21.9472C19.2482 22.4967 19.1924 23.0663 18.9791 23.5839C18.7659 24.1015 18.4048 24.5439 17.9414 24.8552C17.4781 25.1665 16.9334 25.3326 16.3761 25.3326C15.6289 25.3326 14.9122 25.0342 14.3838 24.5029C13.8554 23.9717 13.5586 23.2511 13.5586 22.4998Z" fill="white"/>
<path fill-rule="evenodd" clip-rule="evenodd" d="M38.8921 13.4561V11.6264H36.1278C32.7064 11.6264 31.7539 11.4151 31.7539 14.9621V25.2207H33.8238V13.4508L38.8921 13.4561Z" fill="white"/>
<path fill-rule="evenodd" clip-rule="evenodd" d="M42.2275 11.5597V13.5365C47.224 13.5365 48.1152 13.7692 48.1152 16.3693H44.3798C41.5198 16.3693 39.8702 16.9043 39.8702 20.8366C39.8588 21.4878 39.9358 22.1376 40.099 22.7679C40.6551 24.7742 42.2275 25.1513 44.2734 25.1513C45.7261 25.1513 47.4182 25.0952 48.0807 23.4715V25.2022H50.2091V16.1473C50.2091 11.4687 46.9127 11.5597 42.2275 11.5597ZM47.2612 22.7679C46.6227 23.2521 45.6649 23.2681 44.7284 23.2681C43.6854 23.2681 42.9591 23.228 42.5175 22.7679C42.1583 22.3908 41.9854 21.7327 41.9854 20.5878C41.9854 18.4184 42.7835 18.2499 44.7231 18.2632C46.1837 18.2632 48.0221 18.2632 48.0221 18.2632V20.767C48.0221 21.8049 47.7241 22.4122 47.2559 22.7679H47.2612Z" fill="white"/>
<path fill-rule="evenodd" clip-rule="evenodd" d="M61.6731 6.62695V11.5596H57.6238C53.1461 11.5596 52.7178 14.3844 52.7178 18.3916C52.7178 20.1223 52.7976 21.6176 53.2499 22.7598C53.8432 24.2899 55.083 25.1887 57.6318 25.1887C61.2661 25.1887 61.6785 23.2681 61.6785 23.2681V25.1968H63.759V6.6323L61.6731 6.62695ZM60.5637 22.7679C60.0688 23.1022 59.3665 23.228 58.3714 23.228C57.3764 23.228 56.6022 23.145 56.078 22.7652C55.3012 22.2034 55.0138 20.9917 55.0138 18.4397C55.0138 14.1196 55.647 13.6247 58.3767 13.6247C60.2391 13.6247 61.6838 13.606 61.6811 13.6247C61.6811 14.3925 61.6811 17.2146 61.6811 18.4397C61.6811 20.8847 61.4683 22.1633 60.577 22.7652L60.5637 22.7679Z" fill="white"/>
<path fill-rule="evenodd" clip-rule="evenodd" d="M82.4899 11.5596H80.4971L78.2862 21.1254L75.1175 11.5596H73.4015L70.3179 21.1254L67.9394 11.5596H65.8057L69.1313 25.1913H71.0469L74.2023 14.9167L77.3763 25.1913H79.2999L82.4899 11.5596Z" fill="white"/>
<path fill-rule="evenodd" clip-rule="evenodd" d="M85.4191 11.5597V13.5365C90.4156 13.5365 91.3095 13.7692 91.3095 16.3693H87.5582C84.7008 16.3693 83.0512 16.9043 83.0512 20.8366C83.0383 21.4839 83.1126 22.13 83.2721 22.7572C83.8281 24.7635 85.4005 25.1406 87.4491 25.1406C88.9018 25.1406 90.5939 25.0845 91.2537 23.4607V25.1915H93.3821V16.1473C93.3768 11.4687 90.091 11.5597 85.4191 11.5597ZM90.4396 22.7679C89.8037 23.2521 88.8432 23.2681 87.9067 23.2681C86.8665 23.2681 86.1401 23.228 85.6985 22.7679C85.3393 22.3908 85.1664 21.7327 85.1664 20.5878C85.1664 18.4184 85.9645 18.2499 87.9067 18.2632C89.3674 18.2632 91.2084 18.2632 91.2084 18.2632V20.767C91.2084 21.8049 90.9105 22.4122 90.4422 22.7679H90.4396Z" fill="white"/>
<path fill-rule="evenodd" clip-rule="evenodd" d="M102.744 13.4561V11.6264H99.9774C96.5533 11.6264 95.6035 11.4151 95.6035 14.9621V25.2207H97.6734V13.4508L102.744 13.4561Z" fill="white"/>
<path fill-rule="evenodd" clip-rule="evenodd" d="M109.454 11.3555C103.979 11.3555 102.21 18.7224 104.849 22.7563C105.876 24.3292 107.568 25.3965 109.973 25.3296C111.595 25.2865 113.19 24.9057 114.659 24.2115C114.659 24.2115 114.659 22.0234 114.659 22.018C114.135 22.3303 113.578 22.5816 112.998 22.767C111.442 23.2833 109.292 23.6096 107.746 22.767C106.608 22.1464 105.799 20.8945 105.799 18.6181H114.861C114.861 18.6181 115.946 11.3555 109.454 11.3555ZM105.815 16.6546C105.98 15.4937 106.759 13.2012 109.566 13.2012C112.373 13.2012 112.804 15.4081 112.855 16.6546H105.815Z" fill="white"/>
</svg>
