<svg width="75" height="44" viewBox="0 0 75 44" fill="none" xmlns="http://www.w3.org/2000/svg">
<g clip-path="url(#clip0_2252_104429)">
<path d="M48.2457 44.0001L47.7674 43.3235V27.7425L47.3728 27.3526H45.1356C45.1021 27.3226 45.0653 27.2993 45.0419 27.2693C45.0185 27.2393 44.9951 27.1993 44.9951 27.166C44.9951 24.9363 44.9951 22.7066 44.9951 20.4337H47.336C47.7039 19.9137 47.7674 19.3838 47.7541 18.8106C47.7273 17.3208 47.7708 15.831 47.734 14.3413C47.7173 13.6514 47.9246 13.1014 48.4162 12.6315C48.958 12.1149 49.4797 11.5817 50.008 11.0551C50.4194 10.6418 50.8943 10.4352 51.5029 10.4385C53.8739 10.4585 56.2449 10.4485 58.6193 10.4485C58.6461 10.4785 58.6829 10.5018 58.7029 10.5385C58.723 10.5685 58.7397 10.6085 58.7397 10.6452C58.7397 12.7915 58.7397 14.9345 58.7397 17.1242H55.4022C55.1547 17.3708 54.9474 17.5774 54.7401 17.7807C54.7401 18.524 54.7401 19.2705 54.7401 20.0271L55.1447 20.4103H58.3819L58.7163 20.7403V27.3726C58.4889 27.4426 58.2347 27.5826 57.9772 27.5892C57.1044 27.6192 56.2316 27.5992 55.3654 27.5992C55.1514 27.8092 54.9474 28.0158 54.7401 28.2191C54.7401 33.0584 54.7401 37.901 54.7401 42.7403C54.7401 43.1769 54.8237 43.6301 54.4926 44.0034H48.2423L48.2457 44.0001ZM50.0916 13.928C49.58 15.1345 49.7673 16.281 49.7539 17.4075C49.7338 19.0505 49.7472 20.697 49.7472 22.3634C48.7607 22.4334 47.7674 22.1301 47.0183 22.9866V24.503L47.6103 25.3762H49.5231C50.1686 25.6395 49.9913 26.1061 49.9913 26.4961C49.998 31.382 49.9947 36.2646 49.9947 41.1338L50.6167 41.7638C51.1217 41.7638 51.6233 41.7638 52.1216 41.7638L52.7436 41.1438V26.866C52.7436 26.5761 52.7068 26.2794 52.7536 25.9995C52.7904 25.7795 52.9309 25.5762 53.0312 25.3496H55.9406L56.7165 24.793V22.9999C56.265 22.43 55.6865 22.3434 55.0578 22.3767C54.6832 22.3967 54.3087 22.3867 53.9341 22.3767C53.5328 22.37 53.1349 22.35 52.7436 22.3367C52.7436 20.0137 52.7436 17.7774 52.7436 15.5411L53.1181 15.1711C54.0545 15.1711 55.0076 15.1878 55.964 15.1611C56.2215 15.1545 56.4757 15.0212 56.7198 14.9512V12.7882L56.3988 12.4715H51.6701C51.1752 12.9281 50.5799 13.4747 50.085 13.9313L50.0916 13.928Z" fill="white"/>
<path d="M0 26.8502C0.257502 26.7669 0.51166 26.6269 0.769162 26.6136C1.39118 26.5769 2.0132 26.6036 2.74892 26.6036C2.74892 27.3001 2.79574 27.9934 2.7322 28.6766C2.68872 29.1232 2.876 29.5165 3.10006 29.7631C3.69198 30.4197 4.2538 31.1429 5.16676 31.5761C6.50778 31.4762 7.94578 31.8194 9.46738 31.2329C9.97235 30.6463 10.7883 30.1297 11.2264 29.2132V21.9909C11.0492 21.7443 10.8318 21.421 10.5944 21.1111C9.87203 20.1746 8.94569 19.7313 7.73175 19.8846C7.20003 19.9513 6.65492 19.8946 6.12654 19.8946L5.75868 19.528V15.5219L6.17671 15.1953H7.65149L7.97253 15.5119V17.055L8.97244 17.6616H10.6679C11.6411 18.8048 12.9253 19.678 13.7546 21.0211C13.7546 23.924 13.7412 26.8569 13.7647 29.7898C13.768 30.443 13.5406 30.9496 13.0791 31.3695C12.2698 32.1094 11.4471 32.836 10.6412 33.5592H3.06996C2.06336 32.4993 1.03335 31.4128 0 30.3263V26.8469V26.8502Z" fill="white"/>
<path d="M34.3954 17.1374H31.7803V10.4984H33.8403L34.4857 9.78188V3.37285C35.3886 2.47632 36.2983 1.57646 37.2045 0.666597C37.6159 0.25666 38.0673 -0.00330116 38.6793 3.16696e-05C40.9233 0.0166958 43.1639 0.00669733 45.3409 0.00669733C45.7422 0.239995 45.7556 0.546616 45.7523 0.89323C45.7389 2.8796 45.7456 4.86263 45.7456 6.839L45.3777 7.20561H42.1138L41.5085 7.87551V9.84854L42.2977 10.4551H45.3844L45.7188 10.7884V16.8175L44.9965 17.4107H42.1138L41.7493 17.774C41.7493 22.6533 41.7493 27.5359 41.7459 32.4185C41.7459 32.8084 41.9232 33.275 41.2911 33.5316H34.7533V32.4218C34.7533 28.4491 34.7599 24.4763 34.7499 20.5036C34.7466 19.4171 34.9104 18.3139 34.4021 17.1308L34.3954 17.1374ZM39.5388 31.1586V15.4177C40.3247 15.4177 41.0704 15.3944 41.8128 15.4244C42.4482 15.451 43.0067 15.3244 43.4715 14.8145V12.7814L43.1471 12.4615H39.8966L39.5354 12.1015V5.30923L39.8699 4.97594C40.7928 4.97594 41.7493 4.98928 42.7024 4.96595C42.9599 4.95928 43.2174 4.83263 43.4682 4.76264V2.65296L43.1405 2.24969H38.9067C37.9871 2.67963 37.4487 3.48284 36.8266 4.02609C36.3384 5.15592 36.5123 6.25908 36.4989 7.34892C36.4822 8.92201 36.4956 10.4951 36.4956 12.0615L36.1277 12.4248H34.5292L33.7433 13.0414V14.4512L34.3051 15.1111C35.1913 15.3144 36.014 14.8944 36.7297 15.461V30.7854L37.3383 31.5619H39.1274L39.5321 31.1586H39.5388Z" fill="white"/>
<path d="M72.5127 29.7093C72.6163 29.0161 72.7167 28.3529 72.827 27.6363L73.0845 27.3797H74.3821L75.0007 27.9629C74.964 28.9794 75.1378 30.0026 74.6162 31.0758C73.8704 31.819 73.0143 32.6656 72.1415 33.5354H64.3495C63.5335 32.5356 62.0989 32.0623 61.4969 30.5392C61.4969 25.1734 61.5003 19.6275 61.4902 14.0817C61.4902 13.5218 61.6976 13.0885 62.0855 12.7086C62.8246 11.982 63.5603 11.2455 64.3328 10.4756H71.9341C72.8738 11.5821 74.1613 12.4553 74.994 13.8084C74.994 16.248 74.9874 18.7277 74.9974 21.2073C74.9974 21.7106 74.8636 22.1372 74.4958 22.4938C73.7801 23.1903 73.0778 23.8936 72.3756 24.6001C72.0177 24.9634 71.593 25.1234 71.0847 25.1034C70.7101 25.0867 70.3356 25.1034 69.8574 25.1034L69.2387 25.8799V28.5262H67.3191L67.0215 28.2296V23.4636L67.3526 23.137H70.2787C70.9342 22.4838 71.6365 21.7839 72.2518 21.1706V14.5916L70.7202 12.7152C68.9946 12.272 67.3225 12.3053 65.637 12.6753C64.9214 13.3685 64.1288 14.0051 63.7542 15.3249C63.7542 19.4676 63.7476 23.9335 63.7643 28.4029C63.7643 28.8228 63.9281 29.2427 64.0285 29.7327C64.6873 30.2959 65.209 31.1058 66.1286 31.5424H70.3724C71.2151 31.1924 71.7402 30.3759 72.5194 29.6993L72.5127 29.7093Z" fill="white"/>
<path d="M16.2559 30.5987V21.7167C16.8143 21.1701 17.3795 20.5602 18.0082 20.0203C18.8677 19.2804 19.7739 18.5972 21.0748 18.9738L21.757 18.1272V15.4143C22.5028 15.5243 23.282 15.1477 23.9742 15.7109V20.6435C22.9743 21.1868 21.8741 20.7069 20.814 20.9368C20.0783 21.4234 19.3091 21.94 18.9245 22.8299C18.7105 23.3298 18.4864 23.8197 18.4931 24.393C18.5132 25.9227 18.4998 27.4525 18.4998 28.7823C18.8777 29.8055 19.4362 30.4754 20.1084 31.0619C20.4796 31.3886 20.8809 31.5885 21.3959 31.5785C22.5596 31.5585 23.7234 31.5719 24.8705 31.5719C25.8035 30.9686 26.5961 30.2987 27.0408 29.2356C27.1913 28.8723 27.2482 28.5557 27.2482 28.2057C27.2549 23.8164 27.2515 19.427 27.2515 15.1644C26.7165 13.9379 25.9774 13.0247 24.8136 12.4348H20.4996C19.9445 12.948 19.269 13.4813 18.7205 14.1212C18.443 14.4478 18.366 14.9644 18.2624 15.411C18.1988 15.6843 18.249 15.9876 18.249 16.2942L17.841 16.6641C17.3628 16.5508 16.7374 16.9274 16.2726 16.3009V13.318C16.8344 12.1582 18.0082 11.4583 18.8342 10.4551H26.5626L29.4955 13.3713V30.7087C28.5491 31.6519 27.606 32.5884 26.6429 33.5449H19.1553C18.1754 32.6484 16.8913 32.0151 16.2592 30.602L16.2559 30.5987Z" fill="white"/>
<path d="M5.79131 25.526L5.12247 24.8661H3.35674C2.57755 24.0862 1.8017 23.283 0.995751 22.5064C0.474058 22.0032 0.226589 21.4432 0.236621 20.7034C0.270063 18.4304 0.249998 16.154 0.249998 13.8244C1.00913 12.4813 2.36686 11.6247 3.33668 10.4482H10.6136C11.5466 11.3848 12.4864 12.3213 13.4695 13.3078V16.3174L13.1686 16.6173H11.8309L11.5767 16.3673L11.239 14.5143C10.9113 14.1943 10.5668 13.8344 10.1956 13.5078C9.87121 13.2212 9.51338 12.9679 9.17228 12.6979H4.60747C4.17941 13.1212 3.72126 13.5944 3.24304 14.051C2.87184 14.4076 2.74141 14.8342 2.74476 15.3375C2.75479 17.1172 2.7481 18.8936 2.7481 20.6734C3.20291 21.6499 3.96873 22.3298 4.89507 22.873H7.93493V27.7823L7.65402 28.0622H6.08894L5.78796 27.7656V25.526H5.79131Z" fill="white"/>
<path d="M69.4162 15.7109L69.7373 16.0276V19.8003L69.025 20.3802C68.6136 20.2869 67.995 20.6569 67.5234 20.0336V15.7109H69.4162Z" fill="white"/>
<path d="M23.6288 28.3388H21.8096V23.8461C22.5152 24.0061 23.3044 23.5662 23.9632 24.1628C23.9632 25.4726 23.9699 26.739 23.9532 28.0055C23.9532 28.0955 23.7893 28.1788 23.6288 28.3388Z" fill="white"/>
</g>
<defs>
<clipPath id="clip0_2252_104429">
<rect width="75" height="44" fill="white"/>
</clipPath>
</defs>
</svg>
