<svg width="134" height="22" viewBox="0 0 134 22" fill="none" xmlns="http://www.w3.org/2000/svg">
<g clip-path="url(#clip0_2252_104410)">
<path fill-rule="evenodd" clip-rule="evenodd" d="M103.094 12.209V0.549024C103.094 0.219024 103.309 -0.000976562 103.63 -0.000976562H107.063C107.384 -0.000976562 107.599 0.219024 107.599 0.549024V12.099C107.599 17.929 103.416 21.779 96.7659 21.779C90.2231 21.779 86.04 18.039 86.04 12.099V0.549024C86.04 0.219024 86.2546 -0.000976562 86.5763 -0.000976562H90.1159C90.4376 -0.000976562 90.6521 0.219024 90.6521 0.549024V12.099C90.6521 15.399 92.69 17.049 96.8731 17.049C100.842 17.159 103.094 15.289 103.094 12.209Z" fill="white"/>
<path fill-rule="evenodd" clip-rule="evenodd" d="M77.5686 0.219023C77.6759 0.109023 77.7832 -0.000976562 77.9977 -0.000976562H82.6098C82.717 -0.000976562 82.8243 -0.000976562 82.9315 0.109023C83.1461 0.329024 83.1461 0.659024 82.9315 0.879024L74.4582 10.669L82.8243 20.349C82.9315 20.459 82.9315 20.569 82.9315 20.679C82.9315 21.009 82.717 21.229 82.3953 21.229H77.7832C77.6759 21.229 77.4614 21.119 77.3541 21.009L71.4549 14.299L65.4485 21.229C65.3412 21.339 65.234 21.449 65.0195 21.449H60.4074C60.3001 21.449 60.1929 21.449 60.0856 21.339C59.8711 21.119 59.8711 20.789 60.0856 20.569L68.4517 10.889L59.9784 1.09902C59.8711 0.989024 59.8711 0.879024 59.8711 0.769024C59.8711 0.219023 60.0856 -0.000976562 60.4074 -0.000976562H65.0195C65.1267 -0.000976562 65.3412 0.109023 65.4485 0.219023L71.5622 7.25903L77.5686 0.219023Z" fill="white"/>
<path fill-rule="evenodd" clip-rule="evenodd" d="M58.798 20.459L48.1795 0.329024C48.0722 0.109023 47.9649 -0.000976562 47.7504 -0.000976562H43.6746C43.4601 -0.000976562 43.2456 0.109023 43.2456 0.329024L32.627 20.569C32.5198 20.789 32.627 21.229 32.8416 21.339C32.9488 21.339 33.0561 21.449 33.0561 21.449H37.0246C37.2391 21.449 37.4537 21.339 37.4537 21.119L39.9206 16.499H51.5045L53.9714 21.119C54.0787 21.339 54.2932 21.449 54.4004 21.449H58.369C58.6908 21.449 58.9053 21.229 58.9053 20.899C58.9053 20.679 58.798 20.569 58.798 20.459ZM41.9585 12.319L45.6053 5.27903L49.252 12.319H41.9585Z" fill="white"/>
<path fill-rule="evenodd" clip-rule="evenodd" d="M132.804 20.239L127.012 13.639C131.624 12.209 132.053 8.46902 132.053 7.14902C132.053 2.85902 128.514 -0.000976562 123.043 -0.000976562H112.318C111.996 -0.000976562 111.781 0.219023 111.781 0.549024V20.569C111.781 20.899 111.996 21.119 112.318 21.119H115.75C116.072 21.119 116.286 20.899 116.286 20.569V14.079H121.542L127.548 20.899C127.655 21.009 127.763 21.119 127.977 21.119H132.375C132.697 21.119 132.911 20.899 132.911 20.569C133.018 20.459 132.911 20.349 132.804 20.239ZM126.69 9.12902C126.154 9.56903 124.974 10.119 122.936 10.119H116.393V4.06902H122.936C127.334 4.06902 127.655 6.48902 127.655 7.14902C127.655 8.02902 127.334 8.68902 126.69 9.12902Z" fill="white"/>
<path fill-rule="evenodd" clip-rule="evenodd" d="M32.6263 0.219023L21.9005 20.569C21.7932 20.789 21.9005 21.119 22.115 21.229C22.2223 21.229 22.2223 21.339 22.3295 21.339H26.5126C26.7271 21.339 26.8343 21.229 26.9416 21.119L37.5602 0.659023C37.6674 0.439023 37.5602 0.109023 37.3456 -0.000976562H37.2384H33.0553C32.8408 -0.000976562 32.7335 0.109023 32.6263 0.219023Z" fill="white"/>
<path fill-rule="evenodd" clip-rule="evenodd" d="M21.6868 0.219023L10.961 20.569C10.8538 20.789 10.961 21.119 11.1755 21.229C11.2828 21.229 11.2828 21.339 11.3901 21.339H15.5731C15.7876 21.339 15.8949 21.229 16.0022 21.119L26.728 0.769023C26.8352 0.549023 26.728 0.219023 26.5134 0.109023C26.4062 -0.000976562 26.4062 -0.000976562 26.2989 -0.000976562H22.1159C22.0086 -0.000976562 21.7941 0.109023 21.6868 0.219023Z" fill="white"/>
<path fill-rule="evenodd" clip-rule="evenodd" d="M10.8534 0.219023L0.127625 20.569C0.020367 20.899 0.020367 21.119 0.342141 21.229C0.449399 21.229 0.449399 21.339 0.556657 21.339H4.73972C4.95424 21.339 5.0615 21.229 5.16876 21.119L15.8946 0.769023C16.0018 0.549023 15.8946 0.219023 15.68 0.109023C15.4655 -0.000976562 15.4655 -0.000976562 15.3583 -0.000976562H11.1752C11.068 -0.000976562 10.8534 0.109023 10.8534 0.219023Z" fill="white"/>
</g>
<defs>
<clipPath id="clip0_2252_104410">
<rect width="133" height="22" fill="white" transform="translate(0.0195312)"/>
</clipPath>
</defs>
</svg>
