<svg width="160" height="25" viewBox="0 0 160 25" fill="none" xmlns="http://www.w3.org/2000/svg">
<g clip-path="url(#clip0_2252_104419)">
<path d="M131.452 15.1114C132.135 13.7789 132.797 12.486 133.46 11.1931C134.107 9.93046 134.756 8.66779 135.404 7.40513C135.974 6.2971 136.544 5.1879 137.118 4.08219C137.427 3.4869 137.754 2.90091 138.057 2.30214C138.14 2.1382 138.239 2.09053 138.413 2.09285C139.263 2.10099 140.114 2.10216 140.963 2.09285C141.166 2.09053 141.245 2.15913 141.225 2.36027C141.213 2.47537 141.223 2.59164 141.223 2.70791C141.223 8.45154 141.223 14.1952 141.223 19.9388C141.223 20.6597 141.263 20.6527 140.541 20.6457C140.038 20.641 139.536 20.6399 139.033 20.6469C138.851 20.6503 138.798 20.5713 138.808 20.4039C138.817 20.269 138.81 20.133 138.81 19.9981C138.807 15.5113 138.807 11.0257 138.8 6.53893C138.8 6.38313 138.75 6.22733 138.724 6.07037C138.638 6.19362 138.536 6.30989 138.467 6.44243C137.482 8.37364 136.505 10.3083 135.52 12.2395C134.779 13.6917 134.033 15.1416 133.284 16.5903C132.967 17.203 132.625 17.803 132.317 18.4203C132.224 18.6064 132.118 18.6808 131.919 18.675C131.495 18.6622 131.07 18.6633 130.645 18.6575C130.461 18.3006 130.274 17.9448 130.091 17.5879C129.222 15.8985 128.353 14.2091 127.485 12.5197C126.923 11.428 126.365 10.3351 125.801 9.24565C125.281 8.24109 124.755 7.24003 124.229 6.2378C124.185 6.15409 124.134 6.0727 124.083 5.99247C124.074 5.97852 124.046 5.95992 124.037 5.96457C124.01 5.97736 123.968 6.00061 123.967 6.02038C123.959 6.19362 123.957 6.36802 123.957 6.54242C123.957 11.0094 123.957 15.4764 123.957 19.9434C123.957 20.0783 123.96 20.2143 123.957 20.3492C123.949 20.6329 123.947 20.6399 123.669 20.6422C123.089 20.6469 122.51 20.6469 121.93 20.6422C121.66 20.6399 121.658 20.6329 121.651 20.3434C121.649 20.2469 121.651 20.1504 121.651 20.0539C121.651 14.2719 121.651 8.48991 121.651 2.70791C121.651 2.30097 121.854 2.09712 122.258 2.09634C122.954 2.09634 123.649 2.10099 124.345 2.09285C124.562 2.09053 124.685 2.15448 124.791 2.36608C125.235 3.25902 125.706 4.13684 126.167 5.02164C126.769 6.1785 127.371 7.33537 127.971 8.49339C128.456 9.42935 128.932 10.3711 129.424 11.3036C130.084 12.5581 130.755 13.8057 131.452 15.1114Z" fill="white"/>
<path d="M75.0403 8.78613C75.0403 6.13638 75.0403 3.4878 75.0403 0.838048C75.0403 0.703177 75.0403 0.567143 75.0403 0.432272C75.0403 0.325305 75.067 0.252056 75.1923 0.234616C75.3988 0.206712 75.6018 0.143927 75.8083 0.131138C77.2864 0.0357978 78.768 -0.0421018 80.2484 0.020683C80.9886 0.0520753 81.7335 0.0776543 82.4667 0.222989C82.8206 0.29275 83.1872 0.295076 83.5434 0.354372C84.2534 0.474128 84.9692 0.57877 85.6677 0.752009C87.097 1.10546 88.4707 1.61472 89.7643 2.3286C91.4988 3.28549 92.8992 4.58653 93.8911 6.31195C94.4933 7.36069 94.8645 8.48732 95.0943 9.67791C95.3182 10.8394 95.375 12.0091 95.2903 13.1718C95.1523 15.0704 94.6917 16.8982 93.6904 18.5457C93.079 19.5514 92.3249 20.4315 91.4002 21.1791C90.602 21.8233 89.7516 22.3674 88.8257 22.7871C87.734 23.2824 86.6086 23.694 85.4206 23.9045C84.6189 24.0463 83.8183 24.2021 83.0178 24.3521C82.9992 24.3556 82.9795 24.3556 82.9598 24.3568C81.4817 24.4939 79.999 24.5312 78.5197 24.4556C77.7435 24.416 76.965 24.3079 76.1866 24.2382C76.0566 24.2265 75.9325 24.1672 75.8025 24.1393C75.6389 24.1056 75.415 24.1998 75.328 24.0114C75.2607 23.8649 75.2758 23.6743 75.2723 23.5033C75.2654 23.0976 75.2758 22.6906 75.2677 22.2849C75.2642 22.1105 75.328 22.0337 75.5032 22.057C75.9186 22.1105 76.3339 22.1604 76.7481 22.2163C76.8606 22.2314 76.9697 22.2697 77.0822 22.2802C78.4246 22.4035 79.7692 22.4221 81.1174 22.4046C81.8448 22.3953 82.5607 22.2988 83.2753 22.1814C83.5758 22.1325 83.8775 22.0965 84.1791 22.0581C85.1827 21.9291 86.1434 21.6291 87.0901 21.2884C87.8674 21.0082 88.6134 20.649 89.291 20.1827C90.1275 19.6072 90.9222 18.9794 91.5 18.1108C92.1416 17.1481 92.6787 16.1447 92.9189 15.0041C93.0013 14.6147 93.0361 14.2147 93.1266 13.8275C93.3203 13.0078 93.2449 12.1777 93.224 11.3545C93.1939 10.1825 92.9189 9.0582 92.4223 7.9897C91.9722 7.02118 91.4048 6.13406 90.5927 5.43412C90.1298 5.03533 89.6518 4.63653 89.1239 4.33772C88.0275 3.71685 86.8778 3.21108 85.6491 2.87739C84.8231 2.65299 83.9819 2.52277 83.1512 2.33791C82.7254 2.24257 82.2787 2.24838 81.8425 2.19838C80.5396 2.05072 79.2309 2.0763 77.9234 2.08444C77.7691 2.08444 77.6136 2.08444 77.4593 2.08909C77.1147 2.09839 77.1078 2.09956 77.1078 2.44138C77.1043 3.73661 77.1066 5.033 77.1066 6.32823C77.1066 9.76976 77.1066 13.2125 77.1066 16.654C77.1066 16.7889 77.0996 16.9249 77.1078 17.0598C77.1194 17.2411 77.03 17.2888 76.8641 17.2865C76.3235 17.2795 75.7816 17.2818 75.241 17.2853C75.0971 17.2853 75.0287 17.2295 75.0356 17.0819C75.0414 16.947 75.0356 16.811 75.0356 16.6761C75.0356 14.0461 75.0356 11.4161 75.0356 8.78613H75.0403Z" fill="white"/>
<path d="M0.0205625 11.3747V2.79296C0.0205625 2.67669 0.0182421 2.56042 0.0205625 2.44532C0.0275237 2.10233 0.0275237 2.09651 0.367461 2.09651C2.02886 2.09419 3.6891 2.09651 5.3505 2.09651C6.06518 2.09651 6.77986 2.10698 7.49454 2.09419C8.76843 2.0721 9.9936 2.30928 11.1828 2.75226C12.2328 3.14292 13.1679 3.71031 14.0299 4.43698C15.0845 5.32527 15.8108 6.42981 16.3526 7.66806C16.6415 8.32846 16.8295 9.02142 16.9548 9.74112C17.1056 10.6061 17.0766 11.47 17.0337 12.3292C16.9954 13.1036 16.8005 13.8675 16.5406 14.6034C16.1937 15.5859 15.6739 16.4812 15.0126 17.2799C14.4604 17.9473 13.8118 18.5298 13.0739 18.9914C11.9508 19.6948 10.7616 20.2354 9.43206 20.4331C8.75335 20.5342 8.07928 20.647 7.39012 20.6459C5.13006 20.6435 2.87116 20.6459 0.611102 20.6459C0.475359 20.6459 0.340776 20.6447 0.205034 20.6459C0.0924946 20.647 0.0228829 20.6028 0.0217227 20.4808C0.0217227 20.3261 0.0205625 20.1715 0.0205625 20.0169C0.0205625 17.1369 0.0205625 14.257 0.0205625 11.377V11.3747ZM2.55559 11.3747V13.6954C2.55559 15.1266 2.55327 16.5567 2.55675 17.988C2.55675 18.331 2.56487 18.3379 2.91061 18.3391C3.91534 18.3426 4.92007 18.3577 5.92479 18.3356C6.86455 18.3159 7.80547 18.417 8.74523 18.2391C9.36593 18.1217 9.97271 17.9787 10.5435 17.7113C11.5877 17.2241 12.4509 16.5218 13.1516 15.5952C14.0114 14.4569 14.4186 13.171 14.5068 11.7723C14.5392 11.2596 14.4905 10.7445 14.4221 10.226C14.2794 9.13187 13.8617 8.16336 13.2468 7.2774C12.7073 6.49957 12.0123 5.88335 11.184 5.39038C10.1201 4.75788 8.99699 4.41024 7.7695 4.40094C6.18468 4.39048 4.60101 4.39861 3.01619 4.39861C2.5115 4.39861 2.55675 4.37536 2.55675 4.87647C2.55675 7.04254 2.55675 9.20745 2.55675 11.3735L2.55559 11.3747Z" fill="white"/>
<path d="M108.234 1.98556C109.48 1.91464 110.656 2.13438 111.791 2.55992C112.837 2.95174 113.785 3.5075 114.666 4.20511C115.653 4.98527 116.358 5.97587 116.966 7.04088C117.38 7.76755 117.65 8.57096 117.8 9.39995C117.904 9.97896 117.967 10.5661 118.029 11.1521C118.048 11.3393 118.005 11.5323 117.986 11.7218C117.972 11.8532 117.932 11.9834 117.931 12.1148C117.928 13.1252 117.635 14.0727 117.264 14.9913C116.692 16.4086 115.76 17.5852 114.604 18.563C113.665 19.3571 112.592 19.9385 111.405 20.3082C110.45 20.6058 109.488 20.7791 108.484 20.7802C107.58 20.7814 106.681 20.7535 105.808 20.521C104.961 20.2954 104.127 20.0117 103.364 19.5687C102.496 19.0653 101.714 18.456 101.021 17.7224C100.194 16.8457 99.5989 15.8354 99.1522 14.7227C98.8819 14.0483 98.7206 13.3449 98.5976 12.638C98.5153 12.1683 98.5791 11.6741 98.5663 11.1905C98.5234 9.6197 98.9457 8.16984 99.6987 6.80718C100.062 6.15027 100.474 5.52824 101.033 5.01666C101.473 4.61437 101.9 4.19697 102.36 3.8191C102.956 3.32961 103.651 2.9936 104.356 2.69363C104.824 2.49365 105.321 2.34831 105.816 2.22042C106.616 2.01463 107.433 1.9251 108.234 1.98323V1.98556ZM108.253 18.4572C108.745 18.4223 109.234 18.47 109.737 18.3677C111.055 18.0991 112.156 17.4631 113.141 16.5806C113.705 16.0749 114.135 15.4598 114.52 14.8215C114.997 14.0321 115.289 13.1519 115.367 12.2369C115.433 11.4567 115.44 10.6661 115.275 9.88362C115.076 8.93372 114.698 8.06287 114.129 7.28737C113.802 6.8409 113.394 6.45256 113.019 6.04098C112.613 5.59451 112.106 5.27942 111.58 5.00387C110.817 4.60274 110.005 4.383 109.14 4.2551C108.321 4.13302 107.552 4.24231 106.765 4.37021C106.039 4.4888 105.388 4.80738 104.743 5.14106C103.873 5.59102 103.146 6.23747 102.568 7.00135C101.876 7.91521 101.371 8.93023 101.195 10.1092C101.08 10.8824 101.05 11.6544 101.147 12.4043C101.282 13.4647 101.708 14.446 102.328 15.3412C102.814 16.0446 103.386 16.6574 104.076 17.1469C104.526 17.4654 105.005 17.7689 105.516 17.9689C106.386 18.3107 107.285 18.5991 108.252 18.4572H108.253Z" fill="white"/>
<path d="M146.466 11.323V2.79708C146.466 2.70057 146.466 2.60407 146.466 2.50757C146.466 2.07738 146.43 2.09598 146.869 2.09598C150.211 2.09598 153.553 2.09598 156.895 2.09598C157.61 2.09598 158.325 2.09249 159.039 2.09714C159.314 2.09947 159.32 2.10645 159.321 2.39479C159.325 2.99357 159.321 3.59351 159.324 4.19229C159.324 4.3353 159.273 4.40622 159.123 4.40041C158.969 4.39576 158.814 4.40041 158.659 4.40041C155.664 4.40041 152.67 4.40041 149.677 4.40041C149.522 4.40041 149.368 4.40041 149.212 4.40041C149.076 4.40041 148.996 4.4597 149.002 4.60853C149.006 4.68526 149.002 4.76316 149.002 4.84106C149.002 6.44556 149.002 8.05005 149.002 9.65454C149.002 10.1254 148.965 10.108 149.491 10.1068C150.978 10.1057 152.466 10.1068 153.953 10.1068C155.286 10.1068 156.619 10.1057 157.952 10.1068C158.261 10.1068 158.265 10.1138 158.268 10.4266C158.271 11.0067 158.264 11.5869 158.271 12.1671C158.274 12.3345 158.226 12.4206 158.045 12.4078C157.91 12.3985 157.775 12.4066 157.639 12.4066C154.993 12.4066 152.346 12.4066 149.7 12.4066C149.564 12.4066 149.429 12.4019 149.294 12.4066C149.014 12.4171 149.005 12.4194 149.005 12.7077C149.001 14.4866 149.001 16.2655 149.005 18.0433C149.005 18.327 149.015 18.3339 149.297 18.3386C149.722 18.3444 150.148 18.3397 150.572 18.3397C153.393 18.3397 156.213 18.3397 159.034 18.3397C159.169 18.3397 159.305 18.3467 159.44 18.3374C159.625 18.3246 159.665 18.4188 159.664 18.5816C159.658 19.2001 159.659 19.8187 159.664 20.4372C159.664 20.5814 159.61 20.65 159.46 20.643C159.344 20.6372 159.228 20.643 159.112 20.643C155.113 20.643 151.115 20.6407 147.116 20.6453C146.43 20.6453 146.465 20.6372 146.465 19.964C146.467 17.0829 146.466 14.2029 146.466 11.3218V11.323Z" fill="white"/>
<path d="M48.3711 20.6437C48.6078 20.0973 48.8224 19.5927 49.0452 19.0927C49.435 18.2207 49.8364 17.3534 50.2216 16.4802C50.7449 15.2931 51.253 14.099 51.7774 12.9131C52.1556 12.0562 52.5524 11.2086 52.9318 10.3529C53.4725 9.13208 54.0015 7.90545 54.5399 6.68348C54.7174 6.28119 54.91 5.88588 55.0875 5.48476C55.5365 4.47207 55.9831 3.45938 56.4252 2.44436C56.5261 2.21299 56.6444 2.07695 56.938 2.08858C57.6132 2.11532 58.2896 2.10951 58.9648 2.08974C59.1888 2.08277 59.2688 2.19903 59.3419 2.35948C59.5971 2.91524 59.857 3.46984 60.103 4.03025C60.4232 4.7639 60.7225 5.50685 61.0462 6.23817C61.5637 7.40899 62.095 8.57399 62.6183 9.74248C63.1334 10.8924 63.6509 12.0423 64.159 13.1956C64.644 14.2955 65.115 15.4012 65.5965 16.5023C65.7798 16.922 65.9736 17.3383 66.1615 17.7568C66.5467 18.6102 66.9342 19.4625 67.3171 20.317C67.4285 20.5658 67.3879 20.6414 67.1349 20.6437C66.4202 20.6484 65.7056 20.6368 64.9921 20.6507C64.7565 20.6554 64.6498 20.5519 64.5663 20.3496C64.1486 19.3462 63.7216 18.3463 63.2958 17.3476C63.1613 17.0313 63.0035 16.7244 62.8793 16.4046C62.7958 16.1919 62.6659 16.1163 62.4419 16.1186C61.6693 16.1279 60.8977 16.1221 60.125 16.1221C57.9241 16.1221 55.7233 16.1221 53.5212 16.1221C53.3669 16.1221 53.2114 16.1128 53.0583 16.1314C52.9991 16.1384 52.9202 16.2 52.8959 16.2558C52.5397 17.0778 52.1881 17.9033 51.8401 18.7288C51.5964 19.309 51.3609 19.8915 51.1184 20.4728C51.0569 20.6193 50.9328 20.6472 50.7855 20.6472C49.9965 20.6437 49.2076 20.6461 48.3711 20.6461V20.6437ZM57.8696 13.8212C58.9706 13.8212 60.0705 13.8212 61.1715 13.8212C61.7702 13.8212 61.7713 13.8188 61.5509 13.2793C61.508 13.1735 61.4419 13.0759 61.3943 12.9712C61.1959 12.5364 60.9929 12.1039 60.8049 11.6644C60.3617 10.6296 59.9313 9.59017 59.4869 8.55655C58.9904 7.39969 58.4857 6.24631 57.9798 5.09294C57.9508 5.02667 57.8859 4.97667 57.8371 4.9197C57.7965 4.97202 57.7432 5.01969 57.7176 5.07782C57.17 6.35793 56.6294 7.64036 56.0794 8.91931C55.439 10.4099 54.7928 11.8969 54.1454 13.384C53.969 13.7886 53.9841 13.82 54.4517 13.8212C55.591 13.8246 56.7303 13.8212 57.8696 13.8212Z" fill="white"/>
<path d="M36.7841 20.6451C35.8942 20.6451 35.103 20.6323 34.3117 20.6521C34.0658 20.6579 33.9729 20.53 33.8952 20.3521C33.5135 19.4778 33.133 18.6035 32.7582 17.7256C32.5784 17.3047 32.4102 16.8792 32.2408 16.4548C32.1097 16.1281 32.112 16.1211 31.7314 16.1211C29.9552 16.1188 28.1789 16.1211 26.4027 16.1211C25.1473 16.1211 23.8932 16.127 22.6378 16.1165C22.4186 16.1142 22.2875 16.1653 22.197 16.3781C21.8443 17.2036 21.4765 18.0221 21.1145 18.843C20.8836 19.3673 20.6481 19.8882 20.4265 20.4161C20.3557 20.5858 20.2467 20.6474 20.0727 20.6463C19.358 20.6416 18.6445 20.6451 17.9298 20.6428C17.8207 20.6428 17.7372 20.6056 17.7894 20.4696C17.8578 20.2917 17.9251 20.1138 18.0017 19.9394C18.5957 18.5942 19.1874 17.2489 19.7872 15.906C20.1771 15.034 20.5878 14.1702 20.9741 13.2958C21.5067 12.0913 22.0229 10.8798 22.552 9.67294C22.8664 8.95557 23.1901 8.24285 23.5103 7.5278C23.986 6.46395 24.464 5.40127 24.9362 4.33626C25.2309 3.67353 25.5221 3.00848 25.8052 2.33994C25.8829 2.15624 25.992 2.08648 26.195 2.08997C26.9097 2.10159 27.6244 2.10043 28.3379 2.08997C28.5467 2.08648 28.6012 2.17019 28.6813 2.3632C29.0328 3.21079 29.4343 4.03629 29.8044 4.87574C30.3288 6.06283 30.8381 7.25574 31.3625 8.44283C31.7175 9.24624 32.0923 10.0415 32.4461 10.8461C32.9775 12.0518 33.4926 13.2633 34.024 14.4678C34.4011 15.3247 34.799 16.1723 35.1772 17.028C35.5241 17.8128 35.8525 18.6058 36.197 19.3918C36.3734 19.794 36.5695 20.187 36.7841 20.6416V20.6451ZM27.1997 13.8225C27.5083 13.8225 27.8169 13.8225 28.1256 13.8225C29.0328 13.8225 29.9401 13.8249 30.8462 13.8202C31.0632 13.8202 31.0701 13.8016 30.9854 13.6028C30.5272 12.5343 30.0712 11.4646 29.6095 10.3973C28.9667 8.90906 28.3205 7.422 27.6754 5.93494C27.5385 5.61985 27.3993 5.30593 27.2647 4.98968C27.216 4.87341 27.1568 4.90597 27.1069 4.97689C27.0524 5.05479 27.0071 5.14083 26.97 5.22803C26.6138 6.05004 26.2588 6.87205 25.9061 7.69639C25.2251 9.29158 24.5452 10.8879 23.8676 12.4855C23.711 12.8529 23.5776 13.2307 23.4117 13.5946C23.3305 13.7737 23.3583 13.8249 23.5509 13.8237C24.7668 13.8202 25.9827 13.8225 27.1986 13.8225H27.1997Z" fill="white"/>
<path d="M71.3305 12.295C71.3305 9.68477 71.3305 7.07456 71.3305 4.46435C71.3305 4.32948 71.3328 4.19345 71.3305 4.05858C71.3281 3.92603 71.3595 3.84 71.5207 3.84116C72.0428 3.84697 72.5637 3.83651 73.0858 3.84581C73.3237 3.85046 73.3782 3.91789 73.3933 4.16671C73.4014 4.30158 73.3944 4.43761 73.3944 4.57248C73.3944 9.05809 73.3944 13.5437 73.3944 18.0305C73.3944 18.1084 73.3944 18.1851 73.3944 18.263C73.4014 18.8664 73.3225 18.7583 73.956 18.8281C74.5488 18.892 75.144 18.9629 75.7311 18.906C76.6314 18.8176 77.5352 18.8525 78.4332 18.7897C79.3416 18.7269 80.2489 18.6013 81.148 18.4502C82.7062 18.1874 84.2318 17.7991 85.6739 17.1317C86.4072 16.7922 87.1056 16.3678 87.6741 15.8051C88.2681 15.2168 88.7867 14.5448 88.9561 13.6739C89.1267 12.7961 89.1476 11.9229 88.9468 11.0521C88.7717 10.2905 88.3807 9.63827 87.8586 9.0639C86.9861 8.10469 85.8897 7.50127 84.6831 7.06759C83.5728 6.66879 82.4347 6.36882 81.2768 6.17349C80.6051 6.06071 79.9345 5.86887 79.2383 5.90724C79.1641 5.91189 79.0852 5.89677 79.0121 5.87817C78.6397 5.78515 78.6385 5.78283 78.6362 5.38287C78.6339 4.9957 78.6374 4.60969 78.6362 4.22252C78.6339 3.78186 78.6385 3.82953 79.0597 3.83534C79.6142 3.84232 80.1561 3.93533 80.6979 4.0516C81.1979 4.15973 81.7119 4.2074 82.2142 4.30507C83.2387 4.50621 84.2446 4.77363 85.2354 5.10383C86.4049 5.49332 87.5129 6.01188 88.4573 6.80366C89.672 7.821 90.5746 9.06274 90.9111 10.6556C91.0538 11.33 91.1872 12.0055 91.1327 12.6984C91.0433 13.8495 90.7927 14.947 90.1453 15.94C89.361 17.141 88.3204 18.0223 87.0662 18.6967C85.7946 19.3792 84.4395 19.8268 83.0519 20.1535C82.3187 20.3256 81.5715 20.4826 80.8092 20.5558C80.0899 20.6244 79.3718 20.7139 78.6513 20.786C76.6105 20.9895 74.5686 20.8418 72.5278 20.8732C72.3236 20.8767 72.1182 20.8023 71.9129 20.7721C71.7272 20.7442 71.465 20.7918 71.3745 20.686C71.2771 20.5721 71.3316 20.3209 71.3316 20.1291C71.3304 17.5189 71.3316 14.9087 71.3316 12.2985L71.3305 12.295Z" fill="white"/>
<path d="M43.8313 12.543C43.8313 15.0369 43.8313 17.5309 43.8313 20.026C43.8313 20.1609 43.8279 20.2969 43.8313 20.4318C43.8348 20.5678 43.7942 20.6469 43.6376 20.6457C42.9229 20.641 42.2082 20.641 41.4936 20.6457C41.3393 20.6457 41.2928 20.5724 41.2963 20.4341C41.2998 20.2794 41.2963 20.1248 41.2963 19.9702C41.2963 14.9823 41.2963 9.99324 41.2952 5.00535C41.2952 4.33449 41.3868 4.4089 40.7243 4.40774C39.0629 4.40541 37.4016 4.40774 35.7402 4.40541C35.3875 4.40541 35.3828 4.3996 35.3805 4.06824C35.377 3.48806 35.384 2.90788 35.377 2.32771C35.3747 2.15214 35.442 2.08238 35.6137 2.09401C35.7286 2.10099 35.8457 2.09517 35.9618 2.09517C40.367 2.09517 44.7711 2.09517 49.1764 2.09517C49.2727 2.09517 49.3701 2.09169 49.4664 2.09517C49.746 2.10447 49.7518 2.10564 49.7541 2.38817C49.7588 2.96834 49.7588 3.54852 49.7541 4.1287C49.7518 4.39611 49.7449 4.40309 49.449 4.40425C47.9234 4.40658 46.3965 4.40425 44.8709 4.40658C44.546 4.40658 44.2212 4.42983 43.8952 4.44146C43.8743 4.78328 43.836 5.12395 43.836 5.46578C43.8302 7.82485 43.8337 10.1839 43.8337 12.5418L43.8313 12.543Z" fill="white"/>
</g>
<defs>
<clipPath id="clip0_2252_104419">
<rect width="159.642" height="24.4953" fill="white" transform="translate(0.0195312)"/>
</clipPath>
</defs>
</svg>
