<svg viewBox="0 0 542 392" fill="none" xmlns="http://www.w3.org/2000/svg">
<rect width="541.025" height="392" fill="white"/>
<path d="M43.7135 58.8605H40.1859V68.4546H37.8131V58.8605H34.333V56.9386H43.7135V58.8605ZM42.9225 64.0965C42.9225 63.2476 43.086 62.4909 43.4129 61.8266C43.7398 61.1622 44.2091 60.6481 44.8208 60.2842C45.4377 59.9204 46.1522 59.7385 46.9642 59.7385C48.119 59.7385 49.0602 60.0918 49.7878 60.7983C50.5208 61.5049 50.9294 62.4646 51.0138 63.6773L51.0296 64.2626C51.0296 65.5756 50.6631 66.6302 49.9302 67.4264C49.1973 68.2173 48.2139 68.6128 46.98 68.6128C45.7462 68.6128 44.7601 68.2173 44.0219 67.4264C43.289 66.6354 42.9225 65.5598 42.9225 64.1994V64.0965ZM45.2083 64.2626C45.2083 65.0747 45.3612 65.6969 45.6671 66.1292C45.9729 66.5563 46.4106 66.7699 46.98 66.7699C47.5337 66.7699 47.9661 66.559 48.2772 66.1372C48.5883 65.71 48.7438 65.0298 48.7438 64.0965C48.7438 63.3003 48.5883 62.6834 48.2772 62.2458C47.9661 61.8081 47.5284 61.5893 46.9642 61.5893C46.4053 61.5893 45.9729 61.8081 45.6671 62.2458C45.3612 62.6781 45.2083 63.3504 45.2083 64.2626ZM55.1741 57.7928V59.8967H56.6373V61.5735H55.1741V65.8445C55.1741 66.1609 55.2347 66.3876 55.356 66.5247C55.4773 66.6618 55.7093 66.7304 56.052 66.7304C56.3051 66.7304 56.5292 66.7119 56.7243 66.675V68.4071C56.2761 68.5442 55.8148 68.6128 55.3402 68.6128C53.7372 68.6128 52.9199 67.8034 52.8883 66.1846V61.5735H51.6386V59.8967H52.8883V57.7928H55.1741ZM62.8699 68.4546C62.7644 68.2489 62.688 67.9932 62.6405 67.6874C62.0869 68.3043 61.3671 68.6128 60.4813 68.6128C59.6429 68.6128 58.9469 68.3702 58.3932 67.8851C57.8448 67.4 57.5706 66.7884 57.5706 66.0501C57.5706 65.1432 57.9055 64.4472 58.5751 63.9621C59.2501 63.477 60.2229 63.2318 61.4937 63.2265H62.5456V62.7361C62.5456 62.3407 62.4428 62.0243 62.2372 61.787C62.0368 61.5497 61.7178 61.4311 61.2801 61.4311C60.8952 61.4311 60.592 61.5234 60.3706 61.7079C60.1544 61.8925 60.0463 62.1456 60.0463 62.4672H57.7605C57.7605 61.9716 57.9134 61.5128 58.2192 61.091C58.525 60.6692 58.9574 60.3396 59.5163 60.1023C60.0753 59.8598 60.7027 59.7385 61.3988 59.7385C62.4533 59.7385 63.2891 60.0048 63.906 60.5373C64.5282 61.0646 64.8393 61.8081 64.8393 62.7678V66.4773C64.8446 67.2893 64.958 67.9036 65.1794 68.3201V68.4546H62.8699ZM60.9796 66.8648C61.317 66.8648 61.6281 66.791 61.9129 66.6433C62.1976 66.4904 62.4085 66.2874 62.5456 66.0343V64.5632H61.6914C60.5472 64.5632 59.9382 64.9587 59.8644 65.7496L59.8564 65.8841C59.8564 66.1688 59.9566 66.4034 60.157 66.588C60.3574 66.7725 60.6316 66.8648 60.9796 66.8648ZM69.0076 68.4546H66.7139V56.3058H69.0076V68.4546ZM79.3451 64.2389H77.4547V68.4546H75.0819V56.9386H79.3609C80.7213 56.9386 81.7706 57.2418 82.5088 57.8482C83.247 58.4545 83.6161 59.3114 83.6161 60.4187C83.6161 61.2044 83.4448 61.8608 83.102 62.3881C82.7646 62.9101 82.2504 63.3267 81.5597 63.6378L84.0511 68.3439V68.4546H81.5043L79.3451 64.2389ZM77.4547 62.3169H79.3688C79.9646 62.3169 80.426 62.1667 80.7529 61.8661C81.0799 61.5603 81.2433 61.1411 81.2433 60.6085C81.2433 60.0654 81.0878 59.6383 80.7767 59.3272C80.4708 59.0161 79.9989 58.8605 79.3609 58.8605H77.4547V62.3169ZM89.2159 68.6128C87.961 68.6128 86.9381 68.2279 86.1471 67.458C85.3615 66.6882 84.9686 65.6626 84.9686 64.3813V64.1598C84.9686 63.3003 85.1347 62.5331 85.4669 61.8582C85.7991 61.178 86.2684 60.656 86.8748 60.2921C87.4864 59.923 88.1825 59.7385 88.9628 59.7385C90.1334 59.7385 91.0536 60.1076 91.7232 60.8458C92.3981 61.584 92.7356 62.6307 92.7356 63.9858V64.9191H87.2861C87.3599 65.478 87.5813 65.9262 87.9505 66.2637C88.3248 66.6012 88.7968 66.7699 89.3662 66.7699C90.2468 66.7699 90.9349 66.4509 91.4306 65.8129L92.5537 67.0705C92.211 67.5556 91.7469 67.9352 91.1616 68.2094C90.5764 68.4783 89.9278 68.6128 89.2159 68.6128ZM88.9549 61.5893C88.5015 61.5893 88.1324 61.7422 87.8476 62.048C87.5682 62.3538 87.3889 62.7915 87.3098 63.361H90.4894V63.1791C90.4788 62.6729 90.3417 62.2827 90.0781 62.0085C89.8144 61.729 89.44 61.5893 88.9549 61.5893ZM93.6847 64.0965C93.6847 62.7519 93.9827 61.6895 94.5785 60.9091C95.1796 60.1287 96.0022 59.7385 97.0462 59.7385C97.9637 59.7385 98.694 60.0891 99.2371 60.7904L99.3874 59.8967H101.396V71.7449H99.1026V67.719C98.5753 68.3149 97.8846 68.6128 97.0304 68.6128C96.0127 68.6128 95.2007 68.2173 94.5943 67.4264C93.9879 66.6354 93.6847 65.5255 93.6847 64.0965ZM95.9705 64.2626C95.9705 65.0799 96.1129 65.7021 96.3976 66.1292C96.6876 66.5563 97.0937 66.7699 97.6157 66.7699C98.317 66.7699 98.8126 66.4904 99.1026 65.9315V62.396C98.8179 61.8582 98.3275 61.5893 97.6315 61.5893C97.1042 61.5893 96.6956 61.8028 96.4055 62.2299C96.1155 62.657 95.9705 63.3346 95.9705 64.2626ZM108.325 67.5846C107.761 68.27 106.98 68.6128 105.984 68.6128C105.066 68.6128 104.365 68.3491 103.88 67.8218C103.4 67.2946 103.155 66.5221 103.144 65.5044V59.8967H105.43V65.4253C105.43 66.3164 105.836 66.762 106.648 66.762C107.423 66.762 107.956 66.4931 108.246 65.9552V59.8967H110.54V68.4546H108.388L108.325 67.5846ZM116.203 68.6128C114.948 68.6128 113.925 68.2279 113.134 67.458C112.348 66.6882 111.955 65.6626 111.955 64.3813V64.1598C111.955 63.3003 112.121 62.5331 112.454 61.8582C112.786 61.178 113.255 60.656 113.861 60.2921C114.473 59.923 115.169 59.7385 115.95 59.7385C117.12 59.7385 118.04 60.1076 118.71 60.8458C119.385 61.584 119.722 62.6307 119.722 63.9858V64.9191H114.273C114.347 65.478 114.568 65.9262 114.937 66.2637C115.312 66.6012 115.783 66.7699 116.353 66.7699C117.234 66.7699 117.922 66.4509 118.417 65.8129L119.54 67.0705C119.198 67.5556 118.734 67.9352 118.148 68.2094C117.563 68.4783 116.914 68.6128 116.203 68.6128ZM115.942 61.5893C115.488 61.5893 115.119 61.7422 114.834 62.048C114.555 62.3538 114.376 62.7915 114.296 63.361H117.476V63.1791C117.466 62.6729 117.328 62.2827 117.065 62.0085C116.801 61.729 116.427 61.5893 115.942 61.5893ZM125.662 66.0897C125.662 65.8102 125.522 65.5914 125.243 65.4332C124.969 65.2698 124.526 65.1248 123.914 64.9982C121.879 64.5711 120.861 63.7063 120.861 62.4039C120.861 61.6446 121.175 61.0119 121.802 60.5057C122.435 59.9942 123.26 59.7385 124.278 59.7385C125.364 59.7385 126.232 59.9942 126.88 60.5057C127.534 61.0172 127.861 61.6816 127.861 62.4988H125.575C125.575 62.1719 125.47 61.903 125.259 61.6921C125.048 61.4759 124.718 61.3678 124.27 61.3678C123.885 61.3678 123.587 61.4548 123.376 61.6288C123.166 61.8028 123.06 62.0243 123.06 62.2932C123.06 62.5463 123.179 62.7519 123.416 62.9101C123.659 63.0631 124.065 63.1975 124.634 63.3135C125.203 63.4242 125.683 63.5508 126.074 63.6932C127.281 64.1361 127.885 64.9033 127.885 65.9948C127.885 66.7752 127.55 67.4079 126.88 67.893C126.211 68.3729 125.346 68.6128 124.286 68.6128C123.569 68.6128 122.931 68.4862 122.372 68.2331C121.818 67.9748 121.383 67.6241 121.067 67.1812C120.751 66.733 120.592 66.2505 120.592 65.7338H122.759C122.781 66.1398 122.931 66.4509 123.21 66.6671C123.49 66.8833 123.864 66.9914 124.333 66.9914C124.771 66.9914 125.101 66.9096 125.322 66.7462C125.549 66.5774 125.662 66.3586 125.662 66.0897ZM132.1 57.7928V59.8967H133.564V61.5735H132.1V65.8445C132.1 66.1609 132.161 66.3876 132.282 66.5247C132.404 66.6618 132.636 66.7304 132.978 66.7304C133.231 66.7304 133.456 66.7119 133.651 66.675V68.4071C133.202 68.5442 132.741 68.6128 132.267 68.6128C130.664 68.6128 129.846 67.8034 129.815 66.1846V61.5735H128.565V59.8967H129.815V57.7928H132.1ZM139.472 66.0897C139.472 65.8102 139.332 65.5914 139.053 65.4332C138.779 65.2698 138.336 65.1248 137.724 64.9982C135.689 64.5711 134.671 63.7063 134.671 62.4039C134.671 61.6446 134.985 61.0119 135.612 60.5057C136.245 59.9942 137.07 59.7385 138.088 59.7385C139.174 59.7385 140.041 59.9942 140.69 60.5057C141.344 61.0172 141.671 61.6816 141.671 62.4988H139.385C139.385 62.1719 139.279 61.903 139.069 61.6921C138.858 61.4759 138.528 61.3678 138.08 61.3678C137.695 61.3678 137.397 61.4548 137.186 61.6288C136.975 61.8028 136.87 62.0243 136.87 62.2932C136.87 62.5463 136.988 62.7519 137.226 62.9101C137.468 63.0631 137.874 63.1975 138.444 63.3135C139.013 63.4242 139.493 63.5508 139.883 63.6932C141.091 64.1361 141.694 64.9033 141.694 65.9948C141.694 66.7752 141.36 67.4079 140.69 67.893C140.02 68.3729 139.156 68.6128 138.096 68.6128C137.379 68.6128 136.741 68.4862 136.182 68.2331C135.628 67.9748 135.193 67.6241 134.877 67.1812C134.56 66.733 134.402 66.2505 134.402 65.7338H136.569C136.59 66.1398 136.741 66.4509 137.02 66.6671C137.3 66.8833 137.674 66.9914 138.143 66.9914C138.581 66.9914 138.91 66.9096 139.132 66.7462C139.359 66.5774 139.472 66.3586 139.472 66.0897Z" fill="#646464"/>
<path d="M357.116 64.4546H355.902V55.2418H357.116V64.4546ZM360.268 57.6083L360.306 58.4688C360.829 57.8107 361.512 57.4817 362.356 57.4817C363.802 57.4817 364.532 58.298 364.545 59.9304V64.4546H363.374V59.9241C363.37 59.4306 363.256 59.0657 363.033 58.8295C362.813 58.5932 362.47 58.4751 362.001 58.4751C361.622 58.4751 361.288 58.5764 361.002 58.7788C360.715 58.9813 360.491 59.2471 360.331 59.5761V64.4546H359.16V57.6083H360.268ZM367.898 55.9505V57.6083H369.177V58.5131H367.898V62.7588C367.898 63.033 367.955 63.2397 368.069 63.3789C368.183 63.5139 368.377 63.5814 368.651 63.5814C368.786 63.5814 368.972 63.5561 369.208 63.5055V64.4546C368.9 64.539 368.601 64.5811 368.31 64.5811C367.787 64.5811 367.392 64.423 367.127 64.1066C366.861 63.7902 366.728 63.341 366.728 62.7588V58.5131H365.481V57.6083H366.728V55.9505H367.898ZM373.391 64.5811C372.463 64.5811 371.708 64.2774 371.125 63.67C370.543 63.0583 370.252 62.2421 370.252 61.2212V61.0061C370.252 60.327 370.381 59.7216 370.638 59.1901C370.9 58.6544 371.263 58.2368 371.727 57.9373C372.195 57.6336 372.701 57.4817 373.245 57.4817C374.135 57.4817 374.827 57.7749 375.321 58.3612C375.814 58.9476 376.061 59.787 376.061 60.8796V61.3668H371.423C371.44 62.0417 371.636 62.588 372.011 63.0056C372.391 63.419 372.872 63.6257 373.454 63.6257C373.867 63.6257 374.218 63.5413 374.504 63.3726C374.791 63.2039 375.042 62.9803 375.257 62.7019L375.972 63.2587C375.399 64.1403 374.538 64.5811 373.391 64.5811ZM373.245 58.4435C372.773 58.4435 372.376 58.6164 372.056 58.9623C371.735 59.304 371.537 59.7849 371.461 60.405H374.89V60.3164C374.857 59.7216 374.696 59.2618 374.409 58.937C374.123 58.608 373.735 58.4435 373.245 58.4435ZM380.731 58.6586C380.553 58.6291 380.362 58.6143 380.155 58.6143C379.387 58.6143 378.866 58.9412 378.592 59.5951V64.4546H377.421V57.6083H378.56L378.579 58.3992C378.963 57.7875 379.507 57.4817 380.212 57.4817C380.44 57.4817 380.612 57.5112 380.731 57.5703V58.6586ZM384.185 62.8664L385.881 57.6083H387.077L384.622 64.4546H383.73L381.249 57.6083H382.445L384.185 62.8664ZM392.329 64.4546C392.261 64.3196 392.207 64.0792 392.164 63.7333C391.62 64.2985 390.971 64.5811 390.216 64.5811C389.541 64.5811 388.986 64.3913 388.551 64.0117C388.121 63.6278 387.906 63.1427 387.906 62.5563C387.906 61.8434 388.176 61.2909 388.716 60.8985C389.26 60.502 390.024 60.3038 391.006 60.3038H392.145V59.7659C392.145 59.3568 392.023 59.0319 391.778 58.7915C391.534 58.5468 391.173 58.4245 390.696 58.4245C390.279 58.4245 389.929 58.53 389.646 58.7409C389.363 58.9518 389.222 59.207 389.222 59.5065H388.045C388.045 59.1648 388.165 58.8358 388.406 58.5194C388.651 58.1988 388.98 57.9457 389.393 57.7601C389.811 57.5745 390.268 57.4817 390.766 57.4817C391.555 57.4817 392.173 57.68 392.62 58.0765C393.067 58.4688 393.299 59.0108 393.316 59.7027V62.8537C393.316 63.4823 393.396 63.9821 393.556 64.3534V64.4546H392.329ZM390.386 63.5624C390.753 63.5624 391.101 63.4675 391.43 63.2777C391.759 63.0879 391.998 62.8411 392.145 62.5374V61.1327H391.228C389.794 61.1327 389.077 61.5524 389.077 62.3918C389.077 62.7588 389.199 63.0457 389.444 63.2524C389.688 63.4591 390.002 63.5624 390.386 63.5624ZM396.423 64.4546H395.252V54.7356H396.423V64.4546Z" fill="#646464"/>
<path d="M407.433 64.4546H401.396V63.613L404.585 60.0696C405.058 59.5339 405.382 59.0994 405.56 58.7662C405.741 58.4287 405.832 58.0807 405.832 57.7222C405.832 57.2413 405.686 56.8469 405.395 56.5389C405.104 56.231 404.716 56.077 404.231 56.077C403.649 56.077 403.195 56.2436 402.87 56.5769C402.55 56.9059 402.39 57.3657 402.39 57.9563H401.219C401.219 57.1084 401.491 56.4229 402.035 55.8998C402.584 55.3768 403.315 55.1152 404.231 55.1152C405.087 55.1152 405.764 55.3409 406.262 55.7923C406.76 56.2394 407.009 56.8363 407.009 57.5829C407.009 58.4899 406.431 59.5698 405.275 60.8226L402.807 63.4991H407.433V64.4546ZM413.178 58.4372C413.697 57.8002 414.372 57.4817 415.203 57.4817C416.65 57.4817 417.379 58.298 417.392 59.9304V64.4546H416.221V59.9241C416.217 59.4306 416.103 59.0657 415.88 58.8295C415.66 58.5932 415.317 58.4751 414.848 58.4751C414.469 58.4751 414.135 58.5764 413.849 58.7788C413.562 58.9813 413.338 59.2471 413.178 59.5761V64.4546H412.007V54.7356H413.178V58.4372ZM418.835 60.9681C418.835 60.2974 418.965 59.6942 419.227 59.1585C419.493 58.6228 419.86 58.2094 420.328 57.9183C420.8 57.6272 421.338 57.4817 421.941 57.4817C422.874 57.4817 423.627 57.8044 424.2 58.4498C424.778 59.0952 425.067 59.9536 425.067 61.0251V61.1074C425.067 61.7738 424.939 62.3728 424.681 62.9044C424.428 63.4316 424.063 63.8429 423.587 64.1382C423.114 64.4335 422.57 64.5811 421.954 64.5811C421.026 64.5811 420.273 64.2584 419.695 63.613C419.122 62.9676 418.835 62.1134 418.835 61.0504V60.9681ZM420.012 61.1074C420.012 61.8667 420.187 62.4762 420.537 62.936C420.891 63.3958 421.364 63.6257 421.954 63.6257C422.549 63.6257 423.021 63.3937 423.371 62.9297C423.722 62.4614 423.897 61.8076 423.897 60.9681C423.897 60.2173 423.717 59.6098 423.359 59.1458C423.005 58.6776 422.532 58.4435 421.941 58.4435C421.364 58.4435 420.897 58.6734 420.543 59.1332C420.189 59.593 420.012 60.251 420.012 61.1074ZM430.762 63.7775C430.306 64.3133 429.638 64.5811 428.756 64.5811C428.026 64.5811 427.47 64.3702 427.086 63.9484C426.706 63.5223 426.514 62.8938 426.51 62.0628V57.6083H427.681V62.0312C427.681 63.0689 428.102 63.5877 428.946 63.5877C429.84 63.5877 430.435 63.2545 430.73 62.588V57.6083H431.901V64.4546H430.787L430.762 63.7775ZM436.995 58.6586C436.817 58.6291 436.625 58.6143 436.419 58.6143C435.651 58.6143 435.13 58.9412 434.856 59.5951V64.4546H433.685V57.6083H434.824L434.843 58.3992C435.227 57.7875 435.771 57.4817 436.476 57.4817C436.703 57.4817 436.876 57.5112 436.995 57.5703V58.6586ZM442.063 62.6386C442.063 62.3222 441.943 62.0776 441.702 61.9046C441.466 61.7274 441.05 61.5756 440.456 61.449C439.865 61.3225 439.395 61.1706 439.045 60.9935C438.699 60.8163 438.441 60.6054 438.273 60.3607C438.108 60.116 438.026 59.825 438.026 59.4875C438.026 58.9265 438.262 58.4519 438.735 58.0638C439.211 57.6758 439.819 57.4817 440.557 57.4817C441.333 57.4817 441.962 57.6821 442.443 58.0828C442.928 58.4836 443.17 58.9961 443.17 59.6204H441.993C441.993 59.2998 441.856 59.0235 441.582 58.7915C441.312 58.5595 440.97 58.4435 440.557 58.4435C440.131 58.4435 439.798 58.5363 439.557 58.7219C439.317 58.9075 439.197 59.1501 439.197 59.4496C439.197 59.7322 439.308 59.9452 439.532 60.0886C439.755 60.2321 440.158 60.3691 440.74 60.4999C441.327 60.6307 441.801 60.7868 442.164 60.9681C442.527 61.1495 442.795 61.3689 442.968 61.6262C443.145 61.8793 443.233 62.1894 443.233 62.5563C443.233 63.168 442.989 63.6594 442.499 64.0306C442.01 64.3976 441.375 64.5811 440.595 64.5811C440.047 64.5811 439.561 64.4841 439.14 64.2901C438.718 64.096 438.387 63.8261 438.146 63.4802C437.91 63.13 437.792 62.7525 437.792 62.3475H438.962C438.983 62.7398 439.14 63.052 439.431 63.284C439.726 63.5118 440.114 63.6257 440.595 63.6257C441.038 63.6257 441.392 63.5371 441.658 63.3599C441.928 63.1785 442.063 62.9381 442.063 62.6386Z" fill="#F3652B"/>
<path d="M492.43 319.107L492.43 325.587" stroke="#DFDFDF" stroke-width="1.61983"/>
<path d="M427.636 319.107L427.636 325.587" stroke="#DFDFDF" stroke-width="1.61983"/>
<path d="M362.843 319.107L362.843 325.587" stroke="#DFDFDF" stroke-width="1.61983"/>
<path d="M298.05 319.107L298.05 325.587" stroke="#DFDFDF" stroke-width="1.61983"/>
<path d="M233.256 319.107L233.256 325.587" stroke="#DFDFDF" stroke-width="1.61983"/>
<path d="M168.463 319.107L168.463 325.587" stroke="#DFDFDF" stroke-width="1.61983"/>
<path d="M82.6113 319.107L82.6113 325.587" stroke="#DFDFDF" stroke-width="1.61983"/>
<path d="M82.6113 131.207H492.429" stroke="#F9F9F9" stroke-width="1.61983"/>
<path d="M82.6113 92.3304H492.429" stroke="#F9F9F9" stroke-width="1.61983"/>
<path d="M82.6113 170.083H492.429" stroke="#F9F9F9" stroke-width="1.61983"/>
<path d="M82.6113 208.959H492.429" stroke="#F9F9F9" stroke-width="1.61983"/>
<path d="M82.6113 247.835H492.429" stroke="#F9F9F9" stroke-width="1.61983"/>
<path d="M82.6113 286.711H492.429" stroke="#F9F9F9" stroke-width="1.61983"/>
<path d="M82.6113 319.107H492.429" stroke="#DFDFDF" stroke-width="1.61983"/>
<path d="M63.2525 314.617C63.2525 316.331 62.9598 317.604 62.3745 318.437C61.7893 319.271 60.8744 319.687 59.63 319.687C58.4014 319.687 57.4918 319.281 56.9013 318.469C56.3107 317.652 56.0049 316.434 55.9838 314.815V312.861C55.9838 311.169 56.2764 309.911 56.8617 309.089C57.447 308.266 58.3645 307.855 59.6142 307.855C60.8533 307.855 61.7655 308.253 62.3508 309.049C62.9361 309.84 63.2367 311.063 63.2525 312.719V314.617ZM61.7893 312.616C61.7893 311.377 61.6153 310.475 61.2672 309.911C60.9192 309.342 60.3682 309.057 59.6142 309.057C58.8654 309.057 58.3197 309.339 57.9769 309.903C57.6342 310.467 57.4576 311.335 57.447 312.505V314.847C57.447 316.091 57.6263 317.011 57.9849 317.607C58.3487 318.198 58.8971 318.493 59.63 318.493C60.3524 318.493 60.8876 318.213 61.2356 317.654C61.5889 317.095 61.7734 316.215 61.7893 315.013V312.616Z" fill="#646464"/>
<path d="M78.0745 341.446H72.0381V340.605L75.2271 337.061C75.6996 336.526 76.0244 336.091 76.2016 335.758C76.383 335.42 76.4736 335.072 76.4736 334.714C76.4736 334.233 76.3281 333.838 76.0371 333.531C75.746 333.223 75.3579 333.069 74.8728 333.069C74.2907 333.069 73.8372 333.235 73.5124 333.569C73.1918 333.898 73.0315 334.357 73.0315 334.948H71.8609C71.8609 334.1 72.133 333.415 72.6772 332.891C73.2255 332.368 73.9574 332.107 74.8728 332.107C75.7291 332.107 76.4062 332.333 76.9039 332.784C77.4017 333.231 77.6506 333.828 77.6506 334.575C77.6506 335.482 77.0727 336.561 75.9168 337.814L73.4491 340.491H78.0745V341.446ZM84.9019 334.638C84.9019 335.098 84.7795 335.507 84.5349 335.865C84.2944 336.224 83.9675 336.504 83.5541 336.707C84.035 336.914 84.4146 337.215 84.693 337.612C84.9757 338.008 85.117 338.458 85.117 338.96C85.117 339.757 84.847 340.392 84.3071 340.864C83.7713 341.337 83.0648 341.573 82.1874 341.573C81.3015 341.573 80.5907 341.337 80.055 340.864C79.5235 340.387 79.2577 339.753 79.2577 338.96C79.2577 338.462 79.3927 338.013 79.6627 337.612C79.9369 337.211 80.3144 336.907 80.7953 336.701C80.3861 336.498 80.0634 336.218 79.8272 335.859C79.591 335.501 79.4729 335.093 79.4729 334.638C79.4729 333.862 79.7218 333.246 80.2195 332.79C80.7173 332.335 81.3732 332.107 82.1874 332.107C82.9973 332.107 83.6511 332.335 84.1489 332.79C84.6509 333.246 84.9019 333.862 84.9019 334.638ZM83.9464 338.934C83.9464 338.42 83.7819 338 83.4529 337.675C83.128 337.35 82.702 337.188 82.1747 337.188C81.6474 337.188 81.2235 337.348 80.9029 337.669C80.5865 337.989 80.4283 338.411 80.4283 338.934C80.4283 339.457 80.5823 339.869 80.8902 340.168C81.2024 340.468 81.6348 340.617 82.1874 340.617C82.7357 340.617 83.166 340.468 83.4782 340.168C83.7903 339.864 83.9464 339.453 83.9464 338.934ZM82.1874 333.069C81.7276 333.069 81.3542 333.212 81.0674 333.499C80.7848 333.782 80.6435 334.168 80.6435 334.657C80.6435 335.125 80.7827 335.505 81.0611 335.796C81.3437 336.083 81.7191 336.226 82.1874 336.226C82.6556 336.226 83.0289 336.083 83.3073 335.796C83.59 335.505 83.7313 335.125 83.7313 334.657C83.7313 334.189 83.5857 333.807 83.2947 333.512C83.0036 333.216 82.6345 333.069 82.1874 333.069ZM86.7368 340.832C86.7368 340.63 86.7959 340.461 86.914 340.326C87.0363 340.191 87.2177 340.124 87.4582 340.124C87.6986 340.124 87.88 340.191 88.0023 340.326C88.1289 340.461 88.1921 340.63 88.1921 340.832C88.1921 341.027 88.1289 341.189 88.0023 341.32C87.88 341.45 87.6986 341.516 87.4582 341.516C87.2177 341.516 87.0363 341.45 86.914 341.32C86.7959 341.189 86.7368 341.027 86.7368 340.832ZM91.8811 332.233L94.8929 339.75L97.9048 332.233H99.4804V341.446H98.2655V337.859L98.3794 333.986L95.3548 341.446H94.4247L91.4065 334.005L91.5267 337.859V341.446H90.3118V332.233H91.8811ZM105.669 341.446C105.601 341.311 105.546 341.071 105.504 340.725C104.96 341.29 104.31 341.573 103.555 341.573C102.88 341.573 102.326 341.383 101.891 341.003C101.461 340.619 101.246 340.134 101.246 339.548C101.246 338.835 101.516 338.282 102.056 337.89C102.6 337.494 103.363 337.295 104.346 337.295H105.485V336.758C105.485 336.348 105.363 336.024 105.118 335.783C104.873 335.538 104.513 335.416 104.036 335.416C103.619 335.416 103.268 335.522 102.986 335.733C102.703 335.943 102.562 336.199 102.562 336.498H101.385C101.385 336.156 101.505 335.827 101.746 335.511C101.99 335.19 102.319 334.937 102.733 334.752C103.15 334.566 103.608 334.473 104.106 334.473C104.895 334.473 105.513 334.672 105.96 335.068C106.407 335.46 106.639 336.002 106.656 336.694V339.845C106.656 340.474 106.736 340.974 106.896 341.345V341.446H105.669ZM103.726 340.554C104.093 340.554 104.441 340.459 104.77 340.269C105.099 340.079 105.338 339.833 105.485 339.529V338.124H104.568C103.133 338.124 102.416 338.544 102.416 339.383C102.416 339.75 102.539 340.037 102.783 340.244C103.028 340.451 103.342 340.554 103.726 340.554ZM110.629 339.731L112.224 334.6H113.477L110.724 342.503C110.298 343.642 109.621 344.211 108.693 344.211L108.472 344.192L108.035 344.11V343.161L108.351 343.186C108.748 343.186 109.056 343.106 109.275 342.946C109.499 342.786 109.682 342.492 109.826 342.066L110.085 341.37L107.643 334.6H108.921L110.629 339.731Z" fill="#646464"/>
<path d="M150.967 341.446H144.931V340.605L148.12 337.061C148.592 336.526 148.917 336.091 149.094 335.758C149.276 335.42 149.366 335.072 149.366 334.714C149.366 334.233 149.221 333.838 148.93 333.531C148.639 333.223 148.25 333.069 147.765 333.069C147.183 333.069 146.73 333.235 146.405 333.569C146.084 333.898 145.924 334.357 145.924 334.948H144.753C144.753 334.1 145.026 333.415 145.57 332.891C146.118 332.368 146.85 332.107 147.765 332.107C148.622 332.107 149.299 332.333 149.796 332.784C150.294 333.231 150.543 333.828 150.543 334.575C150.543 335.482 149.965 336.561 148.809 337.814L146.342 340.491H150.967V341.446ZM156.693 337.397C156.449 337.688 156.156 337.922 155.814 338.099C155.476 338.276 155.105 338.365 154.7 338.365C154.169 338.365 153.705 338.234 153.308 337.972C152.916 337.711 152.612 337.344 152.397 336.871C152.182 336.395 152.074 335.87 152.074 335.296C152.074 334.68 152.19 334.125 152.422 333.632C152.659 333.138 152.992 332.761 153.422 332.499C153.852 332.238 154.354 332.107 154.928 332.107C155.839 332.107 156.556 332.449 157.079 333.132C157.607 333.811 157.87 334.739 157.87 335.916V336.258C157.87 338.05 157.516 339.36 156.807 340.187C156.099 341.01 155.029 341.431 153.599 341.453H153.372V340.465H153.618C154.584 340.449 155.327 340.198 155.846 339.712C156.364 339.223 156.647 338.451 156.693 337.397ZM154.89 337.397C155.282 337.397 155.643 337.276 155.972 337.036C156.305 336.796 156.548 336.498 156.7 336.144V335.676C156.7 334.908 156.533 334.284 156.2 333.803C155.867 333.322 155.445 333.081 154.934 333.081C154.42 333.081 154.006 333.28 153.694 333.676C153.382 334.068 153.226 334.587 153.226 335.233C153.226 335.861 153.376 336.38 153.675 336.789C153.979 337.194 154.384 337.397 154.89 337.397ZM159.629 340.832C159.629 340.63 159.688 340.461 159.807 340.326C159.929 340.191 160.11 340.124 160.351 340.124C160.591 340.124 160.773 340.191 160.895 340.326C161.021 340.461 161.085 340.63 161.085 340.832C161.085 341.027 161.021 341.189 160.895 341.32C160.773 341.45 160.591 341.516 160.351 341.516C160.11 341.516 159.929 341.45 159.807 341.32C159.688 341.189 159.629 341.027 159.629 340.832ZM164.774 332.233L167.786 339.75L170.797 332.233H172.373V341.446H171.158V337.859L171.272 333.986L168.247 341.446H167.317L164.299 334.005L164.419 337.859V341.446H163.204V332.233H164.774ZM178.561 341.446C178.494 341.311 178.439 341.071 178.397 340.725C177.853 341.29 177.203 341.573 176.448 341.573C175.773 341.573 175.218 341.383 174.784 341.003C174.353 340.619 174.138 340.134 174.138 339.548C174.138 338.835 174.408 338.282 174.948 337.89C175.492 337.494 176.256 337.295 177.239 337.295H178.378V336.758C178.378 336.348 178.255 336.024 178.011 335.783C177.766 335.538 177.405 335.416 176.929 335.416C176.511 335.416 176.161 335.522 175.878 335.733C175.596 335.943 175.454 336.199 175.454 336.498H174.278C174.278 336.156 174.398 335.827 174.638 335.511C174.883 335.19 175.212 334.937 175.625 334.752C176.043 334.566 176.501 334.473 176.998 334.473C177.787 334.473 178.405 334.672 178.852 335.068C179.299 335.46 179.531 336.002 179.548 336.694V339.845C179.548 340.474 179.628 340.974 179.789 341.345V341.446H178.561ZM176.619 340.554C176.986 340.554 177.334 340.459 177.663 340.269C177.992 340.079 178.23 339.833 178.378 339.529V338.124H177.46C176.026 338.124 175.309 338.544 175.309 339.383C175.309 339.75 175.431 340.037 175.676 340.244C175.921 340.451 176.235 340.554 176.619 340.554ZM183.522 339.731L185.116 334.6H186.369L183.617 342.503C183.191 343.642 182.514 344.211 181.586 344.211L181.364 344.192L180.928 344.11V343.161L181.244 343.186C181.641 343.186 181.949 343.106 182.168 342.946C182.391 342.786 182.575 342.492 182.718 342.066L182.978 341.37L180.535 334.6H181.814L183.522 339.731Z" fill="#646464"/>
<path d="M211.426 336.27H212.306C212.858 336.262 213.293 336.116 213.609 335.834C213.926 335.551 214.084 335.169 214.084 334.688C214.084 333.609 213.546 333.069 212.47 333.069C211.964 333.069 211.559 333.214 211.255 333.505C210.956 333.792 210.806 334.174 210.806 334.651H209.636C209.636 333.921 209.901 333.315 210.433 332.835C210.969 332.349 211.648 332.107 212.47 332.107C213.339 332.107 214.02 332.337 214.514 332.797C215.008 333.256 215.254 333.895 215.254 334.714C215.254 335.115 215.124 335.503 214.862 335.878C214.605 336.253 214.252 336.534 213.805 336.72C214.312 336.88 214.702 337.146 214.976 337.517C215.254 337.888 215.394 338.342 215.394 338.877C215.394 339.704 215.124 340.36 214.584 340.845C214.044 341.33 213.341 341.573 212.477 341.573C211.612 341.573 210.907 341.339 210.363 340.87C209.823 340.402 209.553 339.784 209.553 339.016H210.73C210.73 339.502 210.888 339.89 211.205 340.181C211.521 340.472 211.945 340.617 212.477 340.617C213.042 340.617 213.474 340.47 213.774 340.174C214.073 339.879 214.223 339.455 214.223 338.903C214.223 338.367 214.058 337.956 213.729 337.669C213.4 337.382 212.926 337.234 212.306 337.226H211.426V336.27ZM222.778 337.517C222.778 338.888 222.544 339.907 222.075 340.573C221.607 341.24 220.875 341.573 219.88 341.573C218.897 341.573 218.169 341.248 217.697 340.598C217.224 339.945 216.98 338.97 216.963 337.675V336.112C216.963 334.758 217.197 333.752 217.665 333.094C218.133 332.436 218.867 332.107 219.867 332.107C220.858 332.107 221.588 332.425 222.056 333.062C222.525 333.695 222.765 334.674 222.778 335.998V337.517ZM221.607 335.916C221.607 334.925 221.468 334.203 221.19 333.752C220.911 333.296 220.47 333.069 219.867 333.069C219.268 333.069 218.831 333.294 218.557 333.746C218.283 334.197 218.142 334.891 218.133 335.827V337.7C218.133 338.696 218.277 339.432 218.564 339.909C218.855 340.381 219.293 340.617 219.88 340.617C220.458 340.617 220.886 340.394 221.164 339.947C221.447 339.499 221.594 338.795 221.607 337.833V335.916ZM224.423 340.832C224.423 340.63 224.482 340.461 224.6 340.326C224.722 340.191 224.904 340.124 225.144 340.124C225.385 340.124 225.566 340.191 225.688 340.326C225.815 340.461 225.878 340.63 225.878 340.832C225.878 341.027 225.815 341.189 225.688 341.32C225.566 341.45 225.385 341.516 225.144 341.516C224.904 341.516 224.722 341.45 224.6 341.32C224.482 341.189 224.423 341.027 224.423 340.832ZM229.567 332.233L232.579 339.75L235.591 332.233H237.166V341.446H235.952V337.859L236.065 333.986L233.041 341.446H232.111L229.093 334.005L229.213 337.859V341.446H227.998V332.233H229.567ZM243.355 341.446C243.287 341.311 243.232 341.071 243.19 340.725C242.646 341.29 241.996 341.573 241.241 341.573C240.566 341.573 240.012 341.383 239.577 341.003C239.147 340.619 238.932 340.134 238.932 339.548C238.932 338.835 239.202 338.282 239.742 337.89C240.286 337.494 241.049 337.295 242.032 337.295H243.171V336.758C243.171 336.348 243.049 336.024 242.804 335.783C242.56 335.538 242.199 335.416 241.722 335.416C241.305 335.416 240.954 335.522 240.672 335.733C240.389 335.943 240.248 336.199 240.248 336.498H239.071C239.071 336.156 239.191 335.827 239.432 335.511C239.676 335.19 240.005 334.937 240.419 334.752C240.836 334.566 241.294 334.473 241.792 334.473C242.581 334.473 243.199 334.672 243.646 335.068C244.093 335.46 244.325 336.002 244.342 336.694V339.845C244.342 340.474 244.422 340.974 244.582 341.345V341.446H243.355ZM241.412 340.554C241.779 340.554 242.127 340.459 242.456 340.269C242.785 340.079 243.024 339.833 243.171 339.529V338.124H242.254C240.819 338.124 240.102 338.544 240.102 339.383C240.102 339.75 240.225 340.037 240.469 340.244C240.714 340.451 241.028 340.554 241.412 340.554ZM248.315 339.731L249.91 334.6H251.163L248.41 342.503C247.984 343.642 247.307 344.211 246.379 344.211L246.158 344.192L245.721 344.11V343.161L246.038 343.186C246.434 343.186 246.742 343.106 246.961 342.946C247.185 342.786 247.368 342.492 247.512 342.066L247.771 341.37L245.329 334.6H246.607L248.315 339.731Z" fill="#646464"/>
<path d="M272.98 336.27H273.86C274.413 336.262 274.847 336.116 275.163 335.834C275.48 335.551 275.638 335.169 275.638 334.688C275.638 333.609 275.1 333.069 274.024 333.069C273.518 333.069 273.113 333.214 272.81 333.505C272.51 333.792 272.36 334.174 272.36 334.651H271.19C271.19 333.921 271.455 333.315 271.987 332.835C272.523 332.349 273.202 332.107 274.024 332.107C274.893 332.107 275.575 332.337 276.068 332.797C276.562 333.256 276.809 333.895 276.809 334.714C276.809 335.115 276.678 335.503 276.416 335.878C276.159 336.253 275.807 336.534 275.36 336.72C275.866 336.88 276.256 337.146 276.53 337.517C276.809 337.888 276.948 338.342 276.948 338.877C276.948 339.704 276.678 340.36 276.138 340.845C275.598 341.33 274.896 341.573 274.031 341.573C273.166 341.573 272.462 341.339 271.917 340.87C271.377 340.402 271.107 339.784 271.107 339.016H272.284C272.284 339.502 272.443 339.89 272.759 340.181C273.075 340.472 273.499 340.617 274.031 340.617C274.596 340.617 275.028 340.47 275.328 340.174C275.627 339.879 275.777 339.455 275.777 338.903C275.777 338.367 275.613 337.956 275.284 337.669C274.955 337.382 274.48 337.234 273.86 337.226H272.98V336.27ZM282.402 341.446H281.225V333.644L278.865 334.511V333.448L282.219 332.189H282.402V341.446ZM285.977 340.832C285.977 340.63 286.036 340.461 286.154 340.326C286.277 340.191 286.458 340.124 286.698 340.124C286.939 340.124 287.12 340.191 287.243 340.326C287.369 340.461 287.432 340.63 287.432 340.832C287.432 341.027 287.369 341.189 287.243 341.32C287.12 341.45 286.939 341.516 286.698 341.516C286.458 341.516 286.277 341.45 286.154 341.32C286.036 341.189 285.977 341.027 285.977 340.832ZM291.121 332.233L294.133 339.75L297.145 332.233H298.721V341.446H297.506V337.859L297.62 333.986L294.595 341.446H293.665L290.647 334.005L290.767 337.859V341.446H289.552V332.233H291.121ZM304.909 341.446C304.841 341.311 304.787 341.071 304.744 340.725C304.2 341.29 303.551 341.573 302.795 341.573C302.121 341.573 301.566 341.383 301.131 341.003C300.701 340.619 300.486 340.134 300.486 339.548C300.486 338.835 300.756 338.282 301.296 337.89C301.84 337.494 302.604 337.295 303.586 337.295H304.725V336.758C304.725 336.348 304.603 336.024 304.358 335.783C304.114 335.538 303.753 335.416 303.276 335.416C302.859 335.416 302.509 335.522 302.226 335.733C301.943 335.943 301.802 336.199 301.802 336.498H300.625C300.625 336.156 300.745 335.827 300.986 335.511C301.231 335.19 301.56 334.937 301.973 334.752C302.391 334.566 302.848 334.473 303.346 334.473C304.135 334.473 304.753 334.672 305.2 335.068C305.647 335.46 305.879 336.002 305.896 336.694V339.845C305.896 340.474 305.976 340.974 306.136 341.345V341.446H304.909ZM302.966 340.554C303.333 340.554 303.681 340.459 304.01 340.269C304.339 340.079 304.578 339.833 304.725 339.529V338.124H303.808C302.374 338.124 301.657 338.544 301.657 339.383C301.657 339.75 301.779 340.037 302.024 340.244C302.268 340.451 302.582 340.554 302.966 340.554ZM309.87 339.731L311.464 334.6H312.717L309.965 342.503C309.538 343.642 308.861 344.211 307.933 344.211L307.712 344.192L307.275 344.11V343.161L307.592 343.186C307.988 343.186 308.296 343.106 308.516 342.946C308.739 342.786 308.923 342.492 309.066 342.066L309.325 341.37L306.883 334.6H308.161L309.87 339.731Z" fill="#646464"/>
<path d="M343.468 337.517C343.468 338.888 343.234 339.907 342.766 340.573C342.298 341.24 341.566 341.573 340.57 341.573C339.588 341.573 338.86 341.248 338.387 340.598C337.915 339.945 337.67 338.97 337.653 337.675V336.112C337.653 334.758 337.888 333.752 338.356 333.094C338.824 332.436 339.558 332.107 340.558 332.107C341.549 332.107 342.279 332.425 342.747 333.062C343.215 333.695 343.456 334.674 343.468 335.998V337.517ZM342.298 335.916C342.298 334.925 342.159 334.203 341.88 333.752C341.602 333.296 341.161 333.069 340.558 333.069C339.959 333.069 339.522 333.294 339.248 333.746C338.974 334.197 338.832 334.891 338.824 335.827V337.7C338.824 338.696 338.967 339.432 339.254 339.909C339.545 340.381 339.984 340.617 340.57 340.617C341.148 340.617 341.576 340.394 341.855 339.947C342.138 339.499 342.285 338.795 342.298 337.833V335.916ZM348.815 341.446H347.638V333.644L345.278 334.511V333.448L348.632 332.189H348.815V341.446ZM352.39 340.832C352.39 340.63 352.449 340.461 352.567 340.326C352.69 340.191 352.871 340.124 353.111 340.124C353.352 340.124 353.533 340.191 353.656 340.326C353.782 340.461 353.845 340.63 353.845 340.832C353.845 341.027 353.782 341.189 353.656 341.32C353.533 341.45 353.352 341.516 353.111 341.516C352.871 341.516 352.69 341.45 352.567 341.32C352.449 341.189 352.39 341.027 352.39 340.832ZM359.825 332.233H361.046V338.757C361.046 339.639 360.78 340.328 360.249 340.826C359.722 341.324 359.017 341.573 358.135 341.573C357.22 341.573 356.507 341.339 355.997 340.87C355.486 340.402 355.231 339.746 355.231 338.903H356.446C356.446 339.43 356.589 339.841 356.876 340.136C357.167 340.432 357.587 340.579 358.135 340.579C358.637 340.579 359.042 340.421 359.35 340.105C359.663 339.788 359.821 339.346 359.825 338.776V332.233ZM367.158 340.769C366.703 341.305 366.034 341.573 365.153 341.573C364.423 341.573 363.866 341.362 363.482 340.94C363.103 340.514 362.911 339.885 362.906 339.054V334.6H364.077V339.023C364.077 340.061 364.499 340.579 365.342 340.579C366.237 340.579 366.832 340.246 367.127 339.58V334.6H368.297V341.446H367.184L367.158 340.769ZM371.189 334.6L371.227 335.46C371.75 334.802 372.433 334.473 373.277 334.473C374.724 334.473 375.454 335.29 375.466 336.922V341.446H374.296V336.916C374.292 336.422 374.178 336.057 373.954 335.821C373.735 335.585 373.391 335.467 372.923 335.467C372.543 335.467 372.21 335.568 371.923 335.77C371.636 335.973 371.413 336.239 371.252 336.568V341.446H370.082V334.6H371.189Z" fill="#646464"/>
<path d="M403.402 337.517C403.402 338.888 403.168 339.907 402.7 340.573C402.231 341.24 401.5 341.573 400.504 341.573C399.521 341.573 398.793 341.248 398.321 340.598C397.849 339.945 397.604 338.97 397.587 337.675V336.112C397.587 334.758 397.821 333.752 398.289 333.094C398.758 332.436 399.492 332.107 400.491 332.107C401.483 332.107 402.212 332.425 402.681 333.062C403.149 333.695 403.389 334.674 403.402 335.998V337.517ZM402.231 335.916C402.231 334.925 402.092 334.203 401.814 333.752C401.535 333.296 401.095 333.069 400.491 333.069C399.892 333.069 399.456 333.294 399.182 333.746C398.907 334.197 398.766 334.891 398.758 335.827V337.7C398.758 338.696 398.901 339.432 399.188 339.909C399.479 340.381 399.918 340.617 400.504 340.617C401.082 340.617 401.51 340.394 401.788 339.947C402.071 339.499 402.219 338.795 402.231 337.833V335.916ZM410.938 341.446H404.902V340.605L408.091 337.061C408.563 336.526 408.888 336.091 409.065 335.758C409.246 335.42 409.337 335.072 409.337 334.714C409.337 334.233 409.192 333.838 408.901 333.531C408.61 333.223 408.221 333.069 407.736 333.069C407.154 333.069 406.701 333.235 406.376 333.569C406.055 333.898 405.895 334.357 405.895 334.948H404.724C404.724 334.1 404.997 333.415 405.541 332.891C406.089 332.368 406.821 332.107 407.736 332.107C408.593 332.107 409.27 332.333 409.767 332.784C410.265 333.231 410.514 333.828 410.514 334.575C410.514 335.482 409.936 336.561 408.78 337.814L406.313 340.491H410.938V341.446ZM412.324 340.832C412.324 340.63 412.383 340.461 412.501 340.326C412.623 340.191 412.805 340.124 413.045 340.124C413.286 340.124 413.467 340.191 413.589 340.326C413.716 340.461 413.779 340.63 413.779 340.832C413.779 341.027 413.716 341.189 413.589 341.32C413.467 341.45 413.286 341.516 413.045 341.516C412.805 341.516 412.623 341.45 412.501 341.32C412.383 341.189 412.324 341.027 412.324 340.832ZM419.759 332.233H420.98V338.757C420.98 339.639 420.714 340.328 420.182 340.826C419.655 341.324 418.951 341.573 418.069 341.573C417.154 341.573 416.441 341.339 415.93 340.87C415.42 340.402 415.165 339.746 415.165 338.903H416.38C416.38 339.43 416.523 339.841 416.81 340.136C417.101 340.432 417.521 340.579 418.069 340.579C418.571 340.579 418.976 340.421 419.284 340.105C419.596 339.788 419.754 339.346 419.759 338.776V332.233ZM427.092 340.769C426.636 341.305 425.968 341.573 425.086 341.573C424.356 341.573 423.8 341.362 423.416 340.94C423.036 340.514 422.844 339.885 422.84 339.054V334.6H424.011V339.023C424.011 340.061 424.432 340.579 425.276 340.579C426.17 340.579 426.765 340.246 427.06 339.58V334.6H428.231V341.446H427.117L427.092 340.769ZM431.123 334.6L431.161 335.46C431.684 334.802 432.367 334.473 433.211 334.473C434.658 334.473 435.387 335.29 435.4 336.922V341.446H434.229V336.916C434.225 336.422 434.111 336.057 433.888 335.821C433.668 335.585 433.325 335.467 432.856 335.467C432.477 335.467 432.144 335.568 431.857 335.77C431.57 335.973 431.346 336.239 431.186 336.568V341.446H430.015V334.6H431.123Z" fill="#646464"/>
<path d="M464.956 337.517C464.956 338.888 464.722 339.907 464.253 340.573C463.785 341.24 463.053 341.573 462.058 341.573C461.075 341.573 460.347 341.248 459.875 340.598C459.402 339.945 459.158 338.97 459.141 337.675V336.112C459.141 334.758 459.375 333.752 459.843 333.094C460.311 332.436 461.045 332.107 462.045 332.107C463.036 332.107 463.766 332.425 464.234 333.062C464.703 333.695 464.943 334.674 464.956 335.998V337.517ZM463.785 335.916C463.785 334.925 463.646 334.203 463.368 333.752C463.089 333.296 462.648 333.069 462.045 333.069C461.446 333.069 461.009 333.294 460.735 333.746C460.461 334.197 460.32 334.891 460.311 335.827V337.7C460.311 338.696 460.455 339.432 460.742 339.909C461.033 340.381 461.471 340.617 462.058 340.617C462.636 340.617 463.064 340.394 463.342 339.947C463.625 339.499 463.772 338.795 463.785 337.833V335.916ZM468.157 336.27H469.037C469.59 336.262 470.024 336.116 470.34 335.834C470.657 335.551 470.815 335.169 470.815 334.688C470.815 333.609 470.277 333.069 469.201 333.069C468.695 333.069 468.29 333.214 467.987 333.505C467.687 333.792 467.537 334.174 467.537 334.651H466.367C466.367 333.921 466.632 333.315 467.164 332.835C467.7 332.349 468.379 332.107 469.201 332.107C470.07 332.107 470.752 332.337 471.245 332.797C471.739 333.256 471.986 333.895 471.986 334.714C471.986 335.115 471.855 335.503 471.593 335.878C471.336 336.253 470.984 336.534 470.537 336.72C471.043 336.88 471.433 337.146 471.707 337.517C471.986 337.888 472.125 338.342 472.125 338.877C472.125 339.704 471.855 340.36 471.315 340.845C470.775 341.33 470.073 341.573 469.208 341.573C468.343 341.573 467.639 341.339 467.094 340.87C466.554 340.402 466.284 339.784 466.284 339.016H467.461C467.461 339.502 467.62 339.89 467.936 340.181C468.252 340.472 468.676 340.617 469.208 340.617C469.773 340.617 470.205 340.47 470.505 340.174C470.804 339.879 470.954 339.455 470.954 338.903C470.954 338.367 470.79 337.956 470.461 337.669C470.132 337.382 469.657 337.234 469.037 337.226H468.157V336.27ZM473.877 340.832C473.877 340.63 473.937 340.461 474.055 340.326C474.177 340.191 474.358 340.124 474.599 340.124C474.839 340.124 475.021 340.191 475.143 340.326C475.269 340.461 475.333 340.63 475.333 340.832C475.333 341.027 475.269 341.189 475.143 341.32C475.021 341.45 474.839 341.516 474.599 341.516C474.358 341.516 474.177 341.45 474.055 341.32C473.937 341.189 473.877 341.027 473.877 340.832ZM481.312 332.233H482.533V338.757C482.533 339.639 482.268 340.328 481.736 340.826C481.209 341.324 480.504 341.573 479.623 341.573C478.707 341.573 477.995 341.339 477.484 340.87C476.974 340.402 476.718 339.746 476.718 338.903H477.933C477.933 339.43 478.077 339.841 478.364 340.136C478.655 340.432 479.074 340.579 479.623 340.579C480.125 340.579 480.53 340.421 480.838 340.105C481.15 339.788 481.308 339.346 481.312 338.776V332.233ZM488.646 340.769C488.19 341.305 487.522 341.573 486.64 341.573C485.91 341.573 485.353 341.362 484.97 340.94C484.59 340.514 484.398 339.885 484.394 339.054V334.6H485.564V339.023C485.564 340.061 485.986 340.579 486.83 340.579C487.724 340.579 488.319 340.246 488.614 339.58V334.6H489.785V341.446H488.671L488.646 340.769ZM492.676 334.6L492.714 335.46C493.237 334.802 493.921 334.473 494.764 334.473C496.211 334.473 496.941 335.29 496.954 336.922V341.446H495.783V336.916C495.779 336.422 495.665 336.057 495.441 335.821C495.222 335.585 494.878 335.467 494.41 335.467C494.03 335.467 493.697 335.568 493.41 335.77C493.124 335.973 492.9 336.239 492.74 336.568V341.446H491.569V334.6H492.676Z" fill="#646464"/>
<path d="M36.0397 285.512H28.4941V284.46L32.4805 280.031C33.071 279.362 33.477 278.818 33.6985 278.402C33.9252 277.98 34.0386 277.545 34.0386 277.097C34.0386 276.496 33.8567 276.003 33.4928 275.618C33.129 275.233 32.6439 275.04 32.0375 275.04C31.3099 275.04 30.743 275.249 30.337 275.665C29.9363 276.077 29.7359 276.651 29.7359 277.389H28.2727C28.2727 276.33 28.6128 275.473 29.293 274.819C29.9785 274.165 30.8933 273.838 32.0375 273.838C33.1079 273.838 33.9542 274.12 34.5764 274.684C35.1986 275.243 35.5097 275.99 35.5097 276.923C35.5097 278.057 34.7873 279.406 33.3426 280.972L30.2579 284.318H36.0397V285.512ZM44.8111 280.601C44.8111 282.314 44.5185 283.588 43.9332 284.421C43.3479 285.254 42.4331 285.671 41.1886 285.671C39.9601 285.671 39.0505 285.265 38.4599 284.453C37.8694 283.635 37.5635 282.417 37.5424 280.798V278.845C37.5424 277.152 37.8351 275.895 38.4204 275.072C39.0057 274.249 39.9232 273.838 41.1728 273.838C42.412 273.838 43.3242 274.236 43.9095 275.033C44.4948 275.823 44.7953 277.047 44.8111 278.702V280.601ZM43.3479 278.6C43.3479 277.36 43.1739 276.459 42.8259 275.895C42.4779 275.325 41.9269 275.04 41.1728 275.04C40.4241 275.04 39.8783 275.323 39.5356 275.887C39.1929 276.451 39.0162 277.318 39.0057 278.489V280.83C39.0057 282.074 39.1849 282.995 39.5435 283.59C39.9073 284.181 40.4557 284.476 41.1886 284.476C41.911 284.476 42.4462 284.197 42.7942 283.638C43.1475 283.079 43.3321 282.198 43.3479 280.996V278.6ZM46.5591 276.211C46.5591 275.52 46.7779 274.951 47.2156 274.503C47.6585 274.054 48.2253 273.83 48.9161 273.83C49.6174 273.83 50.1842 274.057 50.6166 274.51C51.0542 274.959 51.2731 275.541 51.2731 276.258V276.82C51.2731 277.516 51.0516 278.086 50.6087 278.528C50.171 278.966 49.6121 279.185 48.9319 279.185C48.2464 279.185 47.6796 278.966 47.2314 278.528C46.7832 278.086 46.5591 277.498 46.5591 276.765V276.211ZM47.6506 276.82C47.6506 277.231 47.7666 277.571 47.9986 277.84C48.2306 278.104 48.5417 278.236 48.9319 278.236C49.3063 278.236 49.6068 278.107 49.8336 277.848C50.0656 277.59 50.1816 277.237 50.1816 276.788V276.211C50.1816 275.8 50.0682 275.46 49.8415 275.191C49.6147 274.922 49.3063 274.787 48.9161 274.787C48.5259 274.787 48.2174 274.922 47.9907 275.191C47.764 275.46 47.6506 275.81 47.6506 276.243V276.82ZM52.1668 282.689C52.1668 281.998 52.3856 281.431 52.8233 280.988C53.2662 280.54 53.8331 280.316 54.5238 280.316C55.2146 280.316 55.7814 280.537 56.2243 280.98C56.6672 281.423 56.8887 282.011 56.8887 282.744V283.306C56.8887 283.996 56.6672 284.566 56.2243 285.014C55.7867 285.457 55.2251 285.678 54.5396 285.678C53.8542 285.678 53.2873 285.46 52.8391 285.022C52.3909 284.579 52.1668 283.991 52.1668 283.258V282.689ZM53.2583 283.306C53.2583 283.722 53.3743 284.065 53.6063 284.334C53.8383 284.598 54.1494 284.729 54.5396 284.729C54.9193 284.729 55.2225 284.6 55.4492 284.342C55.6759 284.078 55.7893 283.722 55.7893 283.274V282.689C55.7893 282.272 55.6733 281.932 55.4413 281.668C55.2146 281.405 54.9087 281.273 54.5238 281.273C54.1494 281.273 53.8436 281.405 53.6063 281.668C53.3743 281.927 53.2583 282.277 53.2583 282.72V283.306ZM49.2641 284.642L48.4336 284.12L54.0572 275.12L54.8876 275.642L49.2641 284.642Z" fill="#646464"/>
<path d="M34.6713 242.769H36.269V243.963H34.6713V246.636H33.2002V243.963H27.9563V243.101L33.1132 235.12H34.6713V242.769ZM29.6173 242.769H33.2002V237.121L33.0262 237.438L29.6173 242.769ZM44.8111 241.725C44.8111 243.438 44.5185 244.712 43.9332 245.545C43.3479 246.378 42.4331 246.794 41.1886 246.794C39.9601 246.794 39.0505 246.388 38.4599 245.576C37.8694 244.759 37.5635 243.541 37.5424 241.922V239.969C37.5424 238.276 37.8351 237.019 38.4204 236.196C39.0057 235.373 39.9232 234.962 41.1728 234.962C42.412 234.962 43.3242 235.36 43.9095 236.156C44.4948 236.947 44.7953 238.171 44.8111 239.826V241.725ZM43.3479 239.724C43.3479 238.484 43.1739 237.583 42.8259 237.019C42.4779 236.449 41.9269 236.164 41.1728 236.164C40.4241 236.164 39.8783 236.446 39.5356 237.011C39.1929 237.575 39.0162 238.442 39.0057 239.613V241.954C39.0057 243.198 39.1849 244.118 39.5435 244.714C39.9073 245.305 40.4557 245.6 41.1886 245.6C41.911 245.6 42.4462 245.321 42.7942 244.762C43.1475 244.203 43.3321 243.322 43.3479 242.12V239.724ZM46.5591 237.335C46.5591 236.644 46.7779 236.075 47.2156 235.626C47.6585 235.178 48.2253 234.954 48.9161 234.954C49.6174 234.954 50.1842 235.181 50.6166 235.634C51.0542 236.083 51.2731 236.665 51.2731 237.382V237.944C51.2731 238.64 51.0516 239.209 50.6087 239.652C50.171 240.09 49.6121 240.309 48.9319 240.309C48.2464 240.309 47.6796 240.09 47.2314 239.652C46.7832 239.209 46.5591 238.621 46.5591 237.889V237.335ZM47.6506 237.944C47.6506 238.355 47.7666 238.695 47.9986 238.964C48.2306 239.228 48.5417 239.36 48.9319 239.36C49.3063 239.36 49.6068 239.231 49.8336 238.972C50.0656 238.714 50.1816 238.36 50.1816 237.912V237.335C50.1816 236.924 50.0682 236.584 49.8415 236.315C49.6147 236.046 49.3063 235.911 48.9161 235.911C48.5259 235.911 48.2174 236.046 47.9907 236.315C47.764 236.584 47.6506 236.934 47.6506 237.367V237.944ZM52.1668 243.813C52.1668 243.122 52.3856 242.555 52.8233 242.112C53.2662 241.664 53.8331 241.44 54.5238 241.44C55.2146 241.44 55.7814 241.661 56.2243 242.104C56.6672 242.547 56.8887 243.135 56.8887 243.868V244.43C56.8887 245.12 56.6672 245.69 56.2243 246.138C55.7867 246.581 55.2251 246.802 54.5396 246.802C53.8542 246.802 53.2873 246.584 52.8391 246.146C52.3909 245.703 52.1668 245.115 52.1668 244.382V243.813ZM53.2583 244.43C53.2583 244.846 53.3743 245.189 53.6063 245.458C53.8383 245.721 54.1494 245.853 54.5396 245.853C54.9193 245.853 55.2225 245.724 55.4492 245.466C55.6759 245.202 55.7893 244.846 55.7893 244.398V243.813C55.7893 243.396 55.6733 243.056 55.4413 242.792C55.2146 242.529 54.9087 242.397 54.5238 242.397C54.1494 242.397 53.8436 242.529 53.6063 242.792C53.3743 243.051 53.2583 243.401 53.2583 243.844V244.43ZM49.2641 245.766L48.4336 245.244L54.0572 236.243L54.8876 236.765L49.2641 245.766Z" fill="#646464"/>
<path d="M34.2363 196.236V197.478H33.9674C32.8285 197.499 31.9215 197.837 31.2466 198.491C30.5717 199.144 30.1815 200.065 30.076 201.251C30.6824 200.555 31.5102 200.207 32.5595 200.207C33.5614 200.207 34.3602 200.56 34.9561 201.267C35.5572 201.973 35.8577 202.886 35.8577 204.003C35.8577 205.19 35.5335 206.139 34.8849 206.851C34.2416 207.563 33.3768 207.919 32.2906 207.919C31.1886 207.919 30.2948 207.497 29.6094 206.653C28.9239 205.804 28.5811 204.713 28.5811 203.379V202.817C28.5811 200.697 29.032 199.079 29.9336 197.961C30.8406 196.838 32.1878 196.263 33.9753 196.236H34.2363ZM32.3144 201.425C31.8134 201.425 31.3521 201.575 30.9302 201.876C30.5084 202.176 30.2157 202.553 30.0523 203.007V203.545C30.0523 204.494 30.2658 205.258 30.6929 205.838C31.12 206.418 31.6526 206.708 32.2906 206.708C32.9497 206.708 33.4665 206.466 33.8409 205.981C34.2205 205.496 34.4103 204.86 34.4103 204.075C34.4103 203.284 34.2179 202.646 33.833 202.161C33.4533 201.67 32.9471 201.425 32.3144 201.425ZM44.8111 202.849C44.8111 204.562 44.5185 205.836 43.9332 206.669C43.3479 207.502 42.4331 207.919 41.1886 207.919C39.9601 207.919 39.0505 207.513 38.4599 206.701C37.8694 205.883 37.5635 204.665 37.5424 203.046V201.093C37.5424 199.4 37.8351 198.143 38.4204 197.32C39.0057 196.497 39.9232 196.086 41.1728 196.086C42.412 196.086 43.3242 196.484 43.9095 197.28C44.4948 198.071 44.7953 199.295 44.8111 200.95V202.849ZM43.3479 200.848C43.3479 199.608 43.1739 198.707 42.8259 198.143C42.4779 197.573 41.9269 197.288 41.1728 197.288C40.4241 197.288 39.8783 197.57 39.5356 198.135C39.1929 198.699 39.0162 199.566 39.0057 200.737V203.078C39.0057 204.322 39.1849 205.243 39.5435 205.838C39.9073 206.429 40.4557 206.724 41.1886 206.724C41.911 206.724 42.4462 206.445 42.7942 205.886C43.1475 205.327 43.3321 204.446 43.3479 203.244V200.848ZM46.5591 198.459C46.5591 197.768 46.7779 197.199 47.2156 196.751C47.6585 196.302 48.2253 196.078 48.9161 196.078C49.6174 196.078 50.1842 196.305 50.6166 196.758C51.0542 197.207 51.2731 197.789 51.2731 198.506V199.068C51.2731 199.764 51.0516 200.333 50.6087 200.776C50.171 201.214 49.6121 201.433 48.9319 201.433C48.2464 201.433 47.6796 201.214 47.2314 200.776C46.7832 200.333 46.5591 199.746 46.5591 199.013V198.459ZM47.6506 199.068C47.6506 199.479 47.7666 199.819 47.9986 200.088C48.2306 200.352 48.5417 200.484 48.9319 200.484C49.3063 200.484 49.6068 200.355 49.8336 200.096C50.0656 199.838 50.1816 199.485 50.1816 199.036V198.459C50.1816 198.048 50.0682 197.708 49.8415 197.439C49.6147 197.17 49.3063 197.035 48.9161 197.035C48.5259 197.035 48.2174 197.17 47.9907 197.439C47.764 197.708 47.6506 198.058 47.6506 198.491V199.068ZM52.1668 204.937C52.1668 204.246 52.3856 203.679 52.8233 203.236C53.2662 202.788 53.8331 202.564 54.5238 202.564C55.2146 202.564 55.7814 202.785 56.2243 203.228C56.6672 203.671 56.8887 204.259 56.8887 204.992V205.554C56.8887 206.244 56.6672 206.814 56.2243 207.262C55.7867 207.705 55.2251 207.926 54.5396 207.926C53.8542 207.926 53.2873 207.708 52.8391 207.27C52.3909 206.827 52.1668 206.239 52.1668 205.506V204.937ZM53.2583 205.554C53.2583 205.97 53.3743 206.313 53.6063 206.582C53.8383 206.846 54.1494 206.977 54.5396 206.977C54.9193 206.977 55.2225 206.848 55.4492 206.59C55.6759 206.326 55.7893 205.97 55.7893 205.522V204.937C55.7893 204.52 55.6733 204.18 55.4413 203.916C55.2146 203.653 54.9087 203.521 54.5238 203.521C54.1494 203.521 53.8436 203.653 53.6063 203.916C53.3743 204.175 53.2583 204.525 53.2583 204.968V205.554ZM49.2641 206.89L48.4336 206.368L54.0572 197.367L54.8876 197.89L49.2641 206.89Z" fill="#646464"/>
<path d="M37.0982 160.374C37.0982 160.949 36.9453 161.46 36.6395 161.908C36.3389 162.356 35.9303 162.707 35.4135 162.96C36.0146 163.219 36.4892 163.596 36.8372 164.091C37.1905 164.587 37.3671 165.148 37.3671 165.776C37.3671 166.772 37.0297 167.566 36.3547 168.157C35.6851 168.747 34.8019 169.042 33.7051 169.042C32.5978 169.042 31.7093 168.747 31.0397 168.157C30.3753 167.561 30.0431 166.767 30.0431 165.776C30.0431 165.154 30.2118 164.592 30.5493 164.091C30.892 163.59 31.3639 163.211 31.965 162.952C31.4536 162.699 31.0502 162.349 30.7549 161.9C30.4596 161.452 30.312 160.943 30.312 160.374C30.312 159.404 30.6231 158.634 31.2453 158.064C31.8675 157.495 32.6874 157.21 33.7051 157.21C34.7175 157.21 35.5348 157.495 36.157 158.064C36.7845 158.634 37.0982 159.404 37.0982 160.374ZM35.9039 165.744C35.9039 165.101 35.6983 164.576 35.287 164.17C34.881 163.764 34.3484 163.561 33.6893 163.561C33.0302 163.561 32.5002 163.762 32.0995 164.162C31.704 164.563 31.5063 165.09 31.5063 165.744C31.5063 166.398 31.6988 166.912 32.0837 167.287C32.4739 167.661 33.0144 167.848 33.7051 167.848C34.3906 167.848 34.9284 167.661 35.3186 167.287C35.7088 166.907 35.9039 166.393 35.9039 165.744ZM33.7051 158.412C33.1304 158.412 32.6637 158.592 32.3051 158.95C31.9519 159.303 31.7752 159.786 31.7752 160.398C31.7752 160.983 31.9492 161.457 32.2972 161.821C32.6505 162.18 33.1198 162.359 33.7051 162.359C34.2904 162.359 34.757 162.18 35.1051 161.821C35.4583 161.457 35.635 160.983 35.635 160.398C35.635 159.812 35.4531 159.335 35.0892 158.966C34.7254 158.597 34.264 158.412 33.7051 158.412ZM46.4312 163.973C46.4312 165.686 46.1386 166.96 45.5533 167.793C44.968 168.626 44.0532 169.042 42.8088 169.042C41.5802 169.042 40.6706 168.636 40.08 167.824C39.4895 167.007 39.1836 165.789 39.1626 164.17V162.217C39.1626 160.524 39.4552 159.267 40.0405 158.444C40.6258 157.621 41.5433 157.21 42.7929 157.21C44.0321 157.21 44.9443 157.608 45.5296 158.404C46.1149 159.195 46.4154 160.419 46.4312 162.074V163.973ZM44.968 161.972C44.968 160.732 44.794 159.831 44.446 159.267C44.098 158.697 43.547 158.412 42.7929 158.412C42.0442 158.412 41.4984 158.694 41.1557 159.259C40.813 159.823 40.6363 160.69 40.6258 161.861V164.202C40.6258 165.446 40.8051 166.366 41.1636 166.962C41.5274 167.553 42.0758 167.848 42.8088 167.848C43.5312 167.848 44.0663 167.569 44.4144 167.01C44.7676 166.451 44.9522 165.57 44.968 164.368V161.972ZM48.1792 159.583C48.1792 158.892 48.398 158.323 48.8357 157.874C49.2786 157.426 49.8454 157.202 50.5362 157.202C51.2375 157.202 51.8043 157.429 52.2367 157.882C52.6744 158.331 52.8932 158.913 52.8932 159.63V160.192C52.8932 160.888 52.6717 161.457 52.2288 161.9C51.7911 162.338 51.2322 162.557 50.552 162.557C49.8665 162.557 49.2997 162.338 48.8515 161.9C48.4033 161.457 48.1792 160.869 48.1792 160.137V159.583ZM49.2707 160.192C49.2707 160.603 49.3867 160.943 49.6187 161.212C49.8507 161.476 50.1618 161.608 50.552 161.608C50.9264 161.608 51.2269 161.478 51.4537 161.22C51.6857 160.962 51.8017 160.608 51.8017 160.16V159.583C51.8017 159.172 51.6883 158.831 51.4616 158.563C51.2349 158.294 50.9264 158.159 50.5362 158.159C50.146 158.159 49.8375 158.294 49.6108 158.563C49.3841 158.831 49.2707 159.182 49.2707 159.615V160.192ZM53.7869 166.061C53.7869 165.37 54.0058 164.803 54.4434 164.36C54.8863 163.912 55.4532 163.688 56.1439 163.688C56.8347 163.688 57.4015 163.909 57.8444 164.352C58.2874 164.795 58.5088 165.383 58.5088 166.116V166.678C58.5088 167.368 58.2874 167.938 57.8444 168.386C57.4068 168.829 56.8452 169.05 56.1597 169.05C55.4743 169.05 54.9074 168.832 54.4592 168.394C54.011 167.951 53.7869 167.363 53.7869 166.63V166.061ZM54.8784 166.678C54.8784 167.094 54.9944 167.437 55.2264 167.706C55.4584 167.969 55.7696 168.101 56.1597 168.101C56.5394 168.101 56.8426 167.972 57.0693 167.714C57.2961 167.45 57.4094 167.094 57.4094 166.646V166.061C57.4094 165.644 57.2934 165.304 57.0614 165.04C56.8347 164.777 56.5288 164.645 56.1439 164.645C55.7696 164.645 55.4637 164.777 55.2264 165.04C54.9944 165.299 54.8784 165.649 54.8784 166.092V166.678ZM50.8842 168.014L50.0537 167.492L55.6773 158.491L56.5078 159.013L50.8842 168.014Z" fill="#646464"/>
<path d="M76.1318 203.549L94.574 183.104L105.472 216.633L110.501 230.536H118.046L133.135 176.562L141.518 188.829L150.739 194.553L163.313 203.549V230.536L173.372 241.984L187.623 194.553L210.257 188.829L221.154 183.104L239.596 247.709L255.524 194.553L272.289 183.104H278.157L289.055 188.829L299.114 194.553L313.365 260.793L323.424 194.553L335.16 188.829L348.573 183.104L353.603 191.282H359.471L367.015 183.104L379.589 235.442L388.81 241.984L403.061 203.549L418.15 191.282L431.563 188.829L443.299 235.442L455.873 241.984L488.566 194.553L507.008 188.829" stroke="#F3652B" stroke-width="1.61983"/>
<path d="M503.541 59.0683C503.404 60.2439 502.969 61.1523 502.236 61.7936C501.508 62.4297 500.539 62.7478 499.328 62.7478C498.015 62.7478 496.961 62.277 496.167 61.3355C495.379 60.394 494.984 59.1345 494.984 57.5568V56.4881C494.984 55.455 495.167 54.5466 495.534 53.7629C495.905 52.9792 496.429 52.3786 497.106 51.9613C497.783 51.5389 498.567 51.3277 499.457 51.3277C500.638 51.3277 501.585 51.6585 502.297 52.3201C503.01 52.9766 503.424 53.8876 503.541 55.053H502.068C501.941 54.1675 501.664 53.5262 501.236 53.1293C500.814 52.7323 500.221 52.5338 499.457 52.5338C498.521 52.5338 497.786 52.8799 497.251 53.572C496.722 54.2642 496.457 55.2489 496.457 56.5263V57.6026C496.457 58.8088 496.709 59.7681 497.213 60.4806C497.717 61.193 498.422 61.5493 499.328 61.5493C500.142 61.5493 500.765 61.3661 501.198 60.9996C501.636 60.6281 501.926 59.9844 502.068 59.0683H503.541ZM508.824 57.6408C507.567 57.2795 506.651 56.8367 506.076 56.3125C505.506 55.7833 505.221 55.1319 505.221 54.3583C505.221 53.483 505.57 52.7603 506.267 52.1903C506.969 51.6153 507.88 51.3277 509 51.3277C509.763 51.3277 510.442 51.4753 511.038 51.7705C511.638 52.0656 512.101 52.4728 512.427 52.9919C512.758 53.511 512.923 54.0784 512.923 54.6942H511.45C511.45 54.0224 511.236 53.4957 510.809 53.114C510.381 52.7272 509.778 52.5338 509 52.5338C508.277 52.5338 507.712 52.6942 507.305 53.0148C506.903 53.3303 506.702 53.7705 506.702 54.3354C506.702 54.7883 506.893 55.1726 507.274 55.4881C507.661 55.7985 508.315 56.0835 509.236 56.3431C510.162 56.6026 510.885 56.8902 511.404 57.2057C511.928 57.5161 512.315 57.88 512.565 58.2973C512.819 58.7146 512.946 59.2057 512.946 59.7706C512.946 60.6714 512.595 61.3941 511.893 61.9386C511.19 62.478 510.252 62.7478 509.076 62.7478C508.313 62.7478 507.6 62.6027 506.939 62.3126C506.277 62.0175 505.765 61.6154 505.404 61.1065C505.048 60.5976 504.87 60.02 504.87 59.3737H506.343C506.343 60.0454 506.59 60.5772 507.084 60.9691C507.582 61.3559 508.246 61.5493 509.076 61.5493C509.849 61.5493 510.442 61.3915 510.855 61.076C511.267 60.7605 511.473 60.3304 511.473 59.7859C511.473 59.2413 511.282 58.8215 510.9 58.5263C510.519 58.2261 509.827 57.9309 508.824 57.6408ZM518.511 60.6485L521.687 51.4804H523.29L519.168 62.5951H517.87L513.755 51.4804H515.351L518.511 60.6485Z" fill="#646464"/>
<g clip-path="url(#clip0)">
<path d="M479.96 57.2467L475.325 61.8812L470.681 57.2467" stroke="#646464" stroke-width="0.625354" stroke-miterlimit="10" stroke-linecap="round" stroke-linejoin="round"/>
<path d="M475.325 49.9407V61.8811" stroke="#646464" stroke-width="0.625354" stroke-miterlimit="10" stroke-linecap="round" stroke-linejoin="round"/>
<path d="M485.434 57.2567V65.1293C485.434 65.5341 485.1 65.868 484.696 65.868H465.935C465.53 65.868 465.196 65.5341 465.196 65.1293V57.2567" stroke="#646464" stroke-width="0.625354" stroke-miterlimit="10" stroke-linecap="round" stroke-linejoin="round"/>
</g>
<defs>
<clipPath id="clip0">
<rect width="20.8451" height="16.5344" fill="white" transform="translate(464.893 49.6373)"/>
</clipPath>
</defs>
</svg>
