<svg  viewBox="0 0 585 492" fill="none" xmlns="http://www.w3.org/2000/svg">
<g clip-path="url(#clip0)">
<rect width="585" height="492" fill="white" fill-opacity="0.2"/>
<rect x="-112" y="-60" width="1440" height="2119" fill="white"/>
<rect x="1328" y="1021" width="1440" height="635" transform="rotate(-180 1328 1021)" fill="url(#paint0_linear)"/>
<g filter="url(#filter0_d)">
<path fill-rule="evenodd" clip-rule="evenodd" d="M30 169C30 166.791 31.7909 165 34 165H550C552.209 165 554 166.791 554 169V448C554 450.209 552.209 452 550 452H34C31.7909 452 30 450.209 30 448V169Z" fill="white"/>
</g>
<path d="M395.78 280.287H390.524V284.225H396.668V286H388.301V273.203H396.606V274.996H390.524V278.529H395.78V280.287ZM397.696 281.175C397.696 279.71 398.036 278.535 398.716 277.65C399.396 276.76 400.307 276.314 401.449 276.314C402.457 276.314 403.271 276.666 403.893 277.369V272.5H406.028V286H404.095L403.989 285.016C403.351 285.789 402.498 286.176 401.432 286.176C400.318 286.176 399.416 285.728 398.725 284.831C398.039 283.935 397.696 282.716 397.696 281.175ZM399.832 281.359C399.832 282.326 400.017 283.082 400.386 283.627C400.761 284.166 401.291 284.436 401.977 284.436C402.85 284.436 403.488 284.046 403.893 283.267V279.206C403.5 278.444 402.867 278.063 401.994 278.063C401.303 278.063 400.77 278.339 400.395 278.89C400.02 279.435 399.832 280.258 399.832 281.359ZM407.883 281.175C407.883 279.698 408.229 278.521 408.92 277.642C409.617 276.757 410.54 276.314 411.688 276.314C412.772 276.314 413.625 276.692 414.246 277.448L414.343 276.49H416.268V285.71C416.268 286.958 415.878 287.942 415.099 288.663C414.325 289.384 413.279 289.744 411.961 289.744C411.264 289.744 410.581 289.598 409.913 289.305C409.251 289.018 408.747 288.64 408.401 288.171L409.412 286.888C410.068 287.667 410.877 288.057 411.838 288.057C412.547 288.057 413.106 287.863 413.517 287.477C413.927 287.096 414.132 286.533 414.132 285.789V285.147C413.517 285.833 412.696 286.176 411.671 286.176C410.558 286.176 409.646 285.733 408.938 284.849C408.234 283.964 407.883 282.739 407.883 281.175ZM410.01 281.359C410.01 282.314 410.203 283.067 410.59 283.618C410.982 284.163 411.524 284.436 412.216 284.436C413.077 284.436 413.716 284.066 414.132 283.328V279.145C413.728 278.424 413.095 278.063 412.233 278.063C411.53 278.063 410.982 278.342 410.59 278.898C410.203 279.455 410.01 280.275 410.01 281.359ZM422.657 286.176C421.304 286.176 420.205 285.751 419.361 284.901C418.523 284.046 418.104 282.909 418.104 281.491V281.228C418.104 280.278 418.286 279.432 418.649 278.688C419.019 277.938 419.534 277.354 420.196 276.938C420.858 276.522 421.597 276.314 422.411 276.314C423.706 276.314 424.705 276.728 425.408 277.554C426.117 278.38 426.472 279.549 426.472 281.061V281.922H420.258C420.322 282.707 420.583 283.328 421.04 283.785C421.503 284.242 422.083 284.471 422.78 284.471C423.759 284.471 424.556 284.075 425.171 283.284L426.322 284.383C425.941 284.951 425.432 285.394 424.793 285.71C424.16 286.021 423.448 286.176 422.657 286.176ZM422.402 278.028C421.816 278.028 421.342 278.233 420.979 278.644C420.621 279.054 420.393 279.625 420.293 280.357H424.362V280.199C424.315 279.484 424.125 278.945 423.791 278.582C423.457 278.213 422.994 278.028 422.402 278.028ZM439.989 283.021H435.032L433.995 286H431.684L436.518 273.203H438.513L443.355 286H441.035L439.989 283.021ZM435.656 281.228H439.365L437.511 275.919L435.656 281.228ZM446.168 276.49L446.229 277.589C446.933 276.739 447.855 276.314 448.998 276.314C450.979 276.314 451.986 277.448 452.021 279.716V286H449.886V279.839C449.886 279.235 449.754 278.79 449.49 278.503C449.232 278.21 448.808 278.063 448.216 278.063C447.354 278.063 446.713 278.453 446.291 279.232V286H444.155V276.49H446.168ZM459.888 286C459.794 285.818 459.712 285.522 459.642 285.112C458.962 285.821 458.13 286.176 457.146 286.176C456.19 286.176 455.411 285.903 454.808 285.358C454.204 284.813 453.902 284.14 453.902 283.337C453.902 282.323 454.277 281.547 455.027 281.008C455.783 280.463 456.861 280.19 458.262 280.19H459.571V279.566C459.571 279.074 459.434 278.682 459.158 278.389C458.883 278.09 458.464 277.94 457.901 277.94C457.415 277.94 457.017 278.063 456.706 278.31C456.396 278.55 456.24 278.857 456.24 279.232H454.104C454.104 278.711 454.277 278.225 454.623 277.773C454.969 277.316 455.438 276.959 456.029 276.701C456.627 276.443 457.292 276.314 458.024 276.314C459.138 276.314 460.025 276.596 460.688 277.158C461.35 277.715 461.689 278.5 461.707 279.514V283.803C461.707 284.658 461.827 285.341 462.067 285.851V286H459.888ZM457.541 284.462C457.963 284.462 458.358 284.359 458.728 284.154C459.103 283.949 459.384 283.674 459.571 283.328V281.535H458.42C457.629 281.535 457.034 281.673 456.636 281.948C456.237 282.224 456.038 282.613 456.038 283.117C456.038 283.527 456.173 283.855 456.442 284.102C456.718 284.342 457.084 284.462 457.541 284.462ZM466.216 286H464.08V272.5H466.216V286ZM471.876 282.941L473.81 276.49H476.086L472.307 287.441C471.727 289.041 470.742 289.841 469.354 289.841C469.043 289.841 468.7 289.788 468.325 289.683V288.03L468.729 288.057C469.269 288.057 469.673 287.957 469.942 287.758C470.218 287.564 470.435 287.236 470.593 286.773L470.9 285.956L467.561 276.49H469.863L471.876 282.941ZM479.997 274.179V276.49H481.676V278.072H479.997V283.381C479.997 283.744 480.067 284.008 480.208 284.172C480.354 284.33 480.612 284.409 480.981 284.409C481.228 284.409 481.477 284.38 481.729 284.321V285.974C481.242 286.108 480.773 286.176 480.322 286.176C478.682 286.176 477.861 285.271 477.861 283.46V278.072H476.297V276.49H477.861V274.179H479.997ZM485.587 286H483.451V276.49H485.587V286ZM483.319 274.021C483.319 273.692 483.422 273.42 483.627 273.203C483.838 272.986 484.137 272.878 484.523 272.878C484.91 272.878 485.209 272.986 485.42 273.203C485.631 273.42 485.736 273.692 485.736 274.021C485.736 274.343 485.631 274.612 485.42 274.829C485.209 275.04 484.91 275.146 484.523 275.146C484.137 275.146 483.838 275.04 483.627 274.829C483.422 274.612 483.319 274.343 483.319 274.021ZM491.827 284.471C492.36 284.471 492.803 284.315 493.154 284.005C493.506 283.694 493.693 283.311 493.717 282.854H495.729C495.706 283.445 495.521 283.999 495.176 284.515C494.83 285.024 494.361 285.429 493.77 285.728C493.178 286.026 492.539 286.176 491.854 286.176C490.523 286.176 489.469 285.745 488.689 284.884C487.91 284.022 487.521 282.833 487.521 281.315V281.096C487.521 279.648 487.907 278.491 488.681 277.624C489.454 276.751 490.509 276.314 491.845 276.314C492.976 276.314 493.896 276.646 494.604 277.308C495.319 277.964 495.694 278.828 495.729 279.9H493.717C493.693 279.355 493.506 278.907 493.154 278.556C492.809 278.204 492.366 278.028 491.827 278.028C491.136 278.028 490.603 278.28 490.228 278.784C489.853 279.282 489.662 280.041 489.656 281.061V281.403C489.656 282.435 489.841 283.205 490.21 283.715C490.585 284.219 491.124 284.471 491.827 284.471ZM502.673 283.416C502.673 283.035 502.515 282.745 502.198 282.546C501.888 282.347 501.369 282.171 500.643 282.019C499.916 281.866 499.31 281.673 498.823 281.438C497.757 280.923 497.224 280.176 497.224 279.197C497.224 278.377 497.569 277.691 498.261 277.141C498.952 276.59 499.831 276.314 500.897 276.314C502.034 276.314 502.951 276.596 503.648 277.158C504.352 277.721 504.703 278.45 504.703 279.347H502.567C502.567 278.937 502.415 278.597 502.11 278.327C501.806 278.052 501.401 277.914 500.897 277.914C500.429 277.914 500.045 278.022 499.746 278.239C499.453 278.456 499.307 278.746 499.307 279.109C499.307 279.438 499.444 279.692 499.72 279.874C499.995 280.056 500.552 280.24 501.39 280.428C502.228 280.609 502.884 280.829 503.358 281.087C503.839 281.339 504.193 281.644 504.422 282.001C504.656 282.358 504.773 282.792 504.773 283.302C504.773 284.157 504.419 284.852 503.71 285.385C503.001 285.912 502.072 286.176 500.924 286.176C500.145 286.176 499.45 286.035 498.841 285.754C498.231 285.473 497.757 285.086 497.417 284.594C497.077 284.102 496.907 283.571 496.907 283.003H498.981C499.011 283.507 499.201 283.896 499.553 284.172C499.904 284.441 500.37 284.576 500.95 284.576C501.513 284.576 501.94 284.471 502.233 284.26C502.526 284.043 502.673 283.762 502.673 283.416Z" fill="#1E1E1E"/>
<path d="M388.155 317V307.047H390.965C391.831 307.047 392.596 307.238 393.262 307.621C393.927 308.004 394.44 308.549 394.8 309.255C395.164 309.961 395.349 310.772 395.354 311.688V312.324C395.354 313.263 395.171 314.086 394.807 314.792C394.447 315.498 393.929 316.041 393.255 316.419C392.585 316.797 391.803 316.991 390.91 317H388.155ZM389.468 308.127V315.927H390.849C391.86 315.927 392.646 315.612 393.207 314.983C393.772 314.354 394.055 313.459 394.055 312.297V311.716C394.055 310.586 393.788 309.708 393.255 309.084C392.726 308.455 391.974 308.136 390.999 308.127H389.468ZM401.711 317C401.638 316.854 401.579 316.594 401.533 316.221C400.945 316.831 400.243 317.137 399.428 317.137C398.699 317.137 398.099 316.932 397.63 316.521C397.165 316.107 396.933 315.583 396.933 314.949C396.933 314.179 397.224 313.582 397.808 313.158C398.396 312.73 399.22 312.516 400.282 312.516H401.513V311.935C401.513 311.493 401.381 311.142 401.116 310.882C400.852 310.618 400.462 310.485 399.947 310.485C399.496 310.485 399.118 310.599 398.812 310.827C398.507 311.055 398.354 311.331 398.354 311.654H397.083C397.083 311.285 397.213 310.93 397.473 310.588C397.737 310.242 398.092 309.968 398.539 309.768C398.99 309.567 399.485 309.467 400.022 309.467C400.875 309.467 401.542 309.681 402.025 310.109C402.508 310.533 402.759 311.119 402.777 311.866V315.271C402.777 315.95 402.864 316.49 403.037 316.891V317H401.711ZM399.612 316.036C400.009 316.036 400.385 315.934 400.74 315.729C401.096 315.523 401.353 315.257 401.513 314.929V313.411H400.521C398.972 313.411 398.197 313.865 398.197 314.771C398.197 315.168 398.329 315.478 398.594 315.701C398.858 315.924 399.198 316.036 399.612 316.036ZM406.476 307.812V309.604H407.856V310.581H406.476V315.168C406.476 315.464 406.537 315.688 406.66 315.838C406.783 315.984 406.993 316.057 407.289 316.057C407.435 316.057 407.635 316.029 407.891 315.975V317C407.558 317.091 407.234 317.137 406.92 317.137C406.355 317.137 405.929 316.966 405.642 316.624C405.354 316.282 405.211 315.797 405.211 315.168V310.581H403.864V309.604H405.211V307.812H406.476ZM413.906 317C413.833 316.854 413.774 316.594 413.729 316.221C413.141 316.831 412.439 317.137 411.623 317.137C410.894 317.137 410.295 316.932 409.825 316.521C409.36 316.107 409.128 315.583 409.128 314.949C409.128 314.179 409.42 313.582 410.003 313.158C410.591 312.73 411.416 312.516 412.478 312.516H413.708V311.935C413.708 311.493 413.576 311.142 413.312 310.882C413.047 310.618 412.658 310.485 412.143 310.485C411.691 310.485 411.313 310.599 411.008 310.827C410.702 311.055 410.55 311.331 410.55 311.654H409.278C409.278 311.285 409.408 310.93 409.668 310.588C409.932 310.242 410.288 309.968 410.734 309.768C411.186 309.567 411.68 309.467 412.218 309.467C413.07 309.467 413.738 309.681 414.221 310.109C414.704 310.533 414.954 311.119 414.973 311.866V315.271C414.973 315.95 415.059 316.49 415.232 316.891V317H413.906ZM411.808 316.036C412.204 316.036 412.58 315.934 412.936 315.729C413.291 315.523 413.549 315.257 413.708 314.929V313.411H412.717C411.167 313.411 410.393 313.865 410.393 314.771C410.393 315.168 410.525 315.478 410.789 315.701C411.053 315.924 411.393 316.036 411.808 316.036ZM423.559 312.563C422.433 312.24 421.613 311.843 421.098 311.374C420.587 310.9 420.332 310.317 420.332 309.624C420.332 308.84 420.644 308.193 421.269 307.683C421.897 307.168 422.713 306.91 423.716 306.91C424.399 306.91 425.008 307.042 425.541 307.307C426.079 307.571 426.493 307.936 426.785 308.4C427.081 308.865 427.229 309.373 427.229 309.925H425.91C425.91 309.323 425.719 308.852 425.336 308.51C424.953 308.163 424.413 307.99 423.716 307.99C423.069 307.99 422.563 308.134 422.198 308.421C421.838 308.703 421.658 309.098 421.658 309.604C421.658 310.009 421.829 310.353 422.171 310.636C422.517 310.914 423.103 311.169 423.928 311.401C424.757 311.634 425.404 311.891 425.869 312.174C426.339 312.452 426.685 312.778 426.908 313.151C427.136 313.525 427.25 313.965 427.25 314.471C427.25 315.277 426.936 315.924 426.307 316.412C425.678 316.895 424.837 317.137 423.784 317.137C423.101 317.137 422.463 317.007 421.87 316.747C421.278 316.483 420.82 316.123 420.496 315.667C420.177 315.211 420.018 314.694 420.018 314.115H421.337C421.337 314.717 421.558 315.193 422 315.544C422.447 315.89 423.041 316.063 423.784 316.063C424.477 316.063 425.008 315.922 425.377 315.64C425.746 315.357 425.931 314.972 425.931 314.484C425.931 313.997 425.76 313.621 425.418 313.356C425.076 313.088 424.456 312.823 423.559 312.563ZM430.456 307.812V309.604H431.837V310.581H430.456V315.168C430.456 315.464 430.518 315.688 430.641 315.838C430.764 315.984 430.973 316.057 431.27 316.057C431.415 316.057 431.616 316.029 431.871 315.975V317C431.538 317.091 431.215 317.137 430.9 317.137C430.335 317.137 429.909 316.966 429.622 316.624C429.335 316.282 429.191 315.797 429.191 315.168V310.581H427.845V309.604H429.191V307.812H430.456ZM436.896 310.738C436.704 310.706 436.497 310.69 436.273 310.69C435.444 310.69 434.881 311.044 434.585 311.75V317H433.32V309.604H434.551L434.571 310.458C434.986 309.797 435.574 309.467 436.335 309.467C436.581 309.467 436.768 309.499 436.896 309.562V310.738ZM440.997 317.137C439.994 317.137 439.179 316.809 438.55 316.152C437.921 315.492 437.606 314.61 437.606 313.507V313.274C437.606 312.541 437.745 311.887 438.023 311.312C438.306 310.734 438.698 310.283 439.199 309.959C439.705 309.631 440.252 309.467 440.84 309.467C441.801 309.467 442.549 309.784 443.082 310.417C443.615 311.05 443.882 311.957 443.882 313.138V313.664H438.871C438.889 314.393 439.101 314.983 439.507 315.435C439.917 315.881 440.437 316.104 441.065 316.104C441.512 316.104 441.89 316.013 442.2 315.831C442.51 315.649 442.781 315.407 443.014 315.106L443.786 315.708C443.166 316.66 442.237 317.137 440.997 317.137ZM440.84 310.506C440.329 310.506 439.901 310.693 439.555 311.066C439.208 311.436 438.994 311.955 438.912 312.625H442.617V312.529C442.581 311.887 442.408 311.39 442.098 311.039C441.788 310.684 441.368 310.506 440.84 310.506ZM449.918 317C449.845 316.854 449.786 316.594 449.74 316.221C449.152 316.831 448.451 317.137 447.635 317.137C446.906 317.137 446.306 316.932 445.837 316.521C445.372 316.107 445.14 315.583 445.14 314.949C445.14 314.179 445.431 313.582 446.015 313.158C446.603 312.73 447.427 312.516 448.489 312.516H449.72V311.935C449.72 311.493 449.588 311.142 449.323 310.882C449.059 310.618 448.669 310.485 448.154 310.485C447.703 310.485 447.325 310.599 447.02 310.827C446.714 311.055 446.562 311.331 446.562 311.654H445.29C445.29 311.285 445.42 310.93 445.68 310.588C445.944 310.242 446.299 309.968 446.746 309.768C447.197 309.567 447.692 309.467 448.229 309.467C449.082 309.467 449.749 309.681 450.232 310.109C450.715 310.533 450.966 311.119 450.984 311.866V315.271C450.984 315.95 451.071 316.49 451.244 316.891V317H449.918ZM447.819 316.036C448.216 316.036 448.592 315.934 448.947 315.729C449.303 315.523 449.56 315.257 449.72 314.929V313.411H448.729C447.179 313.411 446.404 313.865 446.404 314.771C446.404 315.168 446.536 315.478 446.801 315.701C447.065 315.924 447.405 316.036 447.819 316.036ZM454.156 309.604L454.19 310.424C454.733 309.786 455.464 309.467 456.385 309.467C457.419 309.467 458.123 309.863 458.497 310.656C458.743 310.301 459.062 310.014 459.454 309.795C459.851 309.576 460.318 309.467 460.855 309.467C462.478 309.467 463.303 310.326 463.33 312.044V317H462.065V312.119C462.065 311.59 461.945 311.196 461.703 310.937C461.462 310.672 461.056 310.54 460.486 310.54C460.017 310.54 459.627 310.681 459.317 310.964C459.007 311.242 458.827 311.618 458.777 312.092V317H457.506V312.153C457.506 311.078 456.979 310.54 455.927 310.54C455.097 310.54 454.53 310.893 454.225 311.6V317H452.96V309.604H454.156ZM466.618 317H465.354V309.604H466.618V317ZM465.251 307.642C465.251 307.437 465.312 307.263 465.436 307.122C465.563 306.981 465.75 306.91 465.996 306.91C466.242 306.91 466.429 306.981 466.557 307.122C466.684 307.263 466.748 307.437 466.748 307.642C466.748 307.847 466.684 308.018 466.557 308.154C466.429 308.291 466.242 308.359 465.996 308.359C465.75 308.359 465.563 308.291 465.436 308.154C465.312 308.018 465.251 307.847 465.251 307.642ZM469.845 309.604L469.886 310.533C470.451 309.822 471.189 309.467 472.101 309.467C473.664 309.467 474.452 310.349 474.466 312.112V317H473.201V312.105C473.197 311.572 473.074 311.178 472.832 310.923C472.595 310.668 472.224 310.54 471.718 310.54C471.308 310.54 470.948 310.649 470.638 310.868C470.328 311.087 470.086 311.374 469.913 311.729V317H468.648V309.604H469.845ZM476.072 313.24C476.072 312.087 476.339 311.171 476.872 310.492C477.405 309.809 478.112 309.467 478.991 309.467C479.894 309.467 480.598 309.786 481.104 310.424L481.165 309.604H482.32V316.822C482.32 317.779 482.035 318.534 481.466 319.085C480.901 319.636 480.14 319.912 479.183 319.912C478.649 319.912 478.128 319.798 477.617 319.57C477.107 319.342 476.717 319.03 476.448 318.634L477.104 317.875C477.647 318.545 478.31 318.88 479.094 318.88C479.709 318.88 480.188 318.707 480.529 318.36C480.876 318.014 481.049 317.526 481.049 316.897V316.262C480.543 316.845 479.853 317.137 478.978 317.137C478.112 317.137 477.41 316.788 476.872 316.091C476.339 315.394 476.072 314.443 476.072 313.24ZM477.344 313.384C477.344 314.218 477.515 314.874 477.856 315.353C478.198 315.826 478.677 316.063 479.292 316.063C480.09 316.063 480.675 315.701 481.049 314.977V311.6C480.661 310.893 480.08 310.54 479.306 310.54C478.69 310.54 478.21 310.779 477.863 311.258C477.517 311.736 477.344 312.445 477.344 313.384Z" fill="#F3652B"/>
<path d="M489.031 318.5C489.312 318.5 489.5 318.404 489.688 318.212L493.719 314.173C493.906 313.981 494 313.788 494 313.5C494 313.212 493.906 313.019 493.719 312.827L489.781 308.788C489.406 308.404 488.844 308.404 488.469 308.788C488.094 309.173 488.094 309.75 488.469 310.135L491.656 313.5L488.281 316.865C487.906 317.25 487.906 317.827 488.281 318.212C488.469 318.404 488.75 318.5 489.031 318.5Z" fill="#F3652B"/>
<path d="M391.806 340.974H389.468V345H388.148V335.047H391.443C392.564 335.047 393.426 335.302 394.027 335.812C394.633 336.323 394.937 337.066 394.937 338.041C394.937 338.661 394.768 339.201 394.431 339.661C394.098 340.121 393.633 340.465 393.036 340.693L395.374 344.918V345H393.966L391.806 340.974ZM389.468 339.9H391.484C392.136 339.9 392.653 339.732 393.036 339.395C393.424 339.057 393.617 338.606 393.617 338.041C393.617 337.426 393.433 336.954 393.063 336.626C392.699 336.298 392.17 336.132 391.478 336.127H389.468V339.9ZM399.653 345.137C398.651 345.137 397.835 344.809 397.206 344.152C396.577 343.492 396.263 342.61 396.263 341.507V341.274C396.263 340.541 396.402 339.887 396.68 339.312C396.962 338.734 397.354 338.283 397.855 337.959C398.361 337.631 398.908 337.467 399.496 337.467C400.458 337.467 401.205 337.784 401.738 338.417C402.271 339.05 402.538 339.957 402.538 341.138V341.664H397.527C397.546 342.393 397.757 342.983 398.163 343.435C398.573 343.881 399.093 344.104 399.722 344.104C400.168 344.104 400.547 344.013 400.856 343.831C401.166 343.649 401.438 343.407 401.67 343.106L402.442 343.708C401.823 344.66 400.893 345.137 399.653 345.137ZM399.496 338.506C398.986 338.506 398.557 338.693 398.211 339.066C397.865 339.436 397.65 339.955 397.568 340.625H401.273V340.529C401.237 339.887 401.064 339.39 400.754 339.039C400.444 338.684 400.025 338.506 399.496 338.506ZM408.574 345C408.501 344.854 408.442 344.594 408.396 344.221C407.809 344.831 407.107 345.137 406.291 345.137C405.562 345.137 404.963 344.932 404.493 344.521C404.028 344.107 403.796 343.583 403.796 342.949C403.796 342.179 404.088 341.582 404.671 341.158C405.259 340.73 406.084 340.516 407.146 340.516H408.376V339.935C408.376 339.493 408.244 339.142 407.979 338.882C407.715 338.618 407.326 338.485 406.811 338.485C406.359 338.485 405.981 338.599 405.676 338.827C405.37 339.055 405.218 339.331 405.218 339.654H403.946C403.946 339.285 404.076 338.93 404.336 338.588C404.6 338.242 404.956 337.968 405.402 337.768C405.854 337.567 406.348 337.467 406.886 337.467C407.738 337.467 408.406 337.681 408.889 338.109C409.372 338.533 409.622 339.119 409.641 339.866V343.271C409.641 343.95 409.727 344.49 409.9 344.891V345H408.574ZM406.476 344.036C406.872 344.036 407.248 343.934 407.604 343.729C407.959 343.523 408.216 343.257 408.376 342.929V341.411H407.385C405.835 341.411 405.061 341.865 405.061 342.771C405.061 343.168 405.193 343.478 405.457 343.701C405.721 343.924 406.061 344.036 406.476 344.036ZM412.997 345H411.732V334.5H412.997V345ZM417.659 341.288H414.323V340.256H417.659V341.288ZM425.972 336.127H422.772V345H421.467V336.127H418.274V335.047H425.972V336.127ZM428.624 345H427.359V337.604H428.624V345ZM427.257 335.642C427.257 335.437 427.318 335.263 427.441 335.122C427.569 334.981 427.756 334.91 428.002 334.91C428.248 334.91 428.435 334.981 428.562 335.122C428.69 335.263 428.754 335.437 428.754 335.642C428.754 335.847 428.69 336.018 428.562 336.154C428.435 336.291 428.248 336.359 428.002 336.359C427.756 336.359 427.569 336.291 427.441 336.154C427.318 336.018 427.257 335.847 427.257 335.642ZM431.844 337.604L431.878 338.424C432.42 337.786 433.152 337.467 434.072 337.467C435.107 337.467 435.811 337.863 436.185 338.656C436.431 338.301 436.75 338.014 437.142 337.795C437.538 337.576 438.005 337.467 438.543 337.467C440.165 337.467 440.99 338.326 441.018 340.044V345H439.753V340.119C439.753 339.59 439.632 339.196 439.391 338.937C439.149 338.672 438.743 338.54 438.174 338.54C437.704 338.54 437.315 338.681 437.005 338.964C436.695 339.242 436.515 339.618 436.465 340.092V345H435.193V340.153C435.193 339.078 434.667 338.54 433.614 338.54C432.785 338.54 432.217 338.893 431.912 339.6V345H430.647V337.604H431.844ZM446.001 345.137C444.998 345.137 444.183 344.809 443.554 344.152C442.925 343.492 442.61 342.61 442.61 341.507V341.274C442.61 340.541 442.749 339.887 443.027 339.312C443.31 338.734 443.702 338.283 444.203 337.959C444.709 337.631 445.256 337.467 445.844 337.467C446.805 337.467 447.553 337.784 448.086 338.417C448.619 339.05 448.886 339.957 448.886 341.138V341.664H443.875C443.893 342.393 444.105 342.983 444.511 343.435C444.921 343.881 445.44 344.104 446.069 344.104C446.516 344.104 446.894 344.013 447.204 343.831C447.514 343.649 447.785 343.407 448.018 343.106L448.79 343.708C448.17 344.66 447.241 345.137 446.001 345.137ZM445.844 338.506C445.333 338.506 444.905 338.693 444.559 339.066C444.212 339.436 443.998 339.955 443.916 340.625H447.621V340.529C447.585 339.887 447.411 339.39 447.102 339.039C446.792 338.684 446.372 338.506 445.844 338.506ZM455.722 335.047L458.976 343.168L462.229 335.047H463.932V345H462.619V341.124L462.742 336.94L459.475 345H458.47L455.209 336.961L455.339 341.124V345H454.026V335.047H455.722ZM469.12 345.137C468.118 345.137 467.302 344.809 466.673 344.152C466.044 343.492 465.729 342.61 465.729 341.507V341.274C465.729 340.541 465.868 339.887 466.146 339.312C466.429 338.734 466.821 338.283 467.322 337.959C467.828 337.631 468.375 337.467 468.963 337.467C469.924 337.467 470.672 337.784 471.205 338.417C471.738 339.05 472.005 339.957 472.005 341.138V341.664H466.994C467.012 342.393 467.224 342.983 467.63 343.435C468.04 343.881 468.56 344.104 469.188 344.104C469.635 344.104 470.013 344.013 470.323 343.831C470.633 343.649 470.904 343.407 471.137 343.106L471.909 343.708C471.289 344.66 470.36 345.137 469.12 345.137ZM468.963 338.506C468.452 338.506 468.024 338.693 467.678 339.066C467.331 339.436 467.117 339.955 467.035 340.625H470.74V340.529C470.704 339.887 470.531 339.39 470.221 339.039C469.911 338.684 469.492 338.506 468.963 338.506ZM475.19 335.812V337.604H476.571V338.581H475.19V343.168C475.19 343.464 475.252 343.688 475.375 343.838C475.498 343.984 475.708 344.057 476.004 344.057C476.15 344.057 476.35 344.029 476.605 343.975V345C476.273 345.091 475.949 345.137 475.635 345.137C475.07 345.137 474.644 344.966 474.356 344.624C474.069 344.282 473.926 343.797 473.926 343.168V338.581H472.579V337.604H473.926V335.812H475.19ZM481.63 338.738C481.438 338.706 481.231 338.69 481.008 338.69C480.178 338.69 479.616 339.044 479.319 339.75V345H478.055V337.604H479.285L479.306 338.458C479.72 337.797 480.308 337.467 481.069 337.467C481.315 337.467 481.502 337.499 481.63 337.562V338.738ZM484.173 345H482.908V337.604H484.173V345ZM482.806 335.642C482.806 335.437 482.867 335.263 482.99 335.122C483.118 334.981 483.305 334.91 483.551 334.91C483.797 334.91 483.984 334.981 484.111 335.122C484.239 335.263 484.303 335.437 484.303 335.642C484.303 335.847 484.239 336.018 484.111 336.154C483.984 336.291 483.797 336.359 483.551 336.359C483.305 336.359 483.118 336.291 482.99 336.154C482.867 336.018 482.806 335.847 482.806 335.642ZM489.17 344.104C489.621 344.104 490.015 343.968 490.353 343.694C490.69 343.421 490.877 343.079 490.913 342.669H492.109C492.087 343.093 491.941 343.496 491.672 343.879C491.403 344.262 491.043 344.567 490.592 344.795C490.145 345.023 489.671 345.137 489.17 345.137C488.163 345.137 487.361 344.802 486.764 344.132C486.171 343.457 485.875 342.537 485.875 341.37V341.158C485.875 340.438 486.007 339.798 486.271 339.237C486.536 338.677 486.914 338.242 487.406 337.932C487.903 337.622 488.489 337.467 489.163 337.467C489.993 337.467 490.681 337.715 491.228 338.212C491.779 338.709 492.073 339.354 492.109 340.146H490.913C490.877 339.668 490.694 339.276 490.366 338.971C490.043 338.661 489.642 338.506 489.163 338.506C488.521 338.506 488.021 338.738 487.666 339.203C487.315 339.663 487.14 340.331 487.14 341.206V341.445C487.14 342.298 487.315 342.954 487.666 343.414C488.017 343.874 488.518 344.104 489.17 344.104ZM497.838 343.038C497.838 342.696 497.708 342.432 497.448 342.245C497.193 342.054 496.744 341.89 496.102 341.753C495.464 341.616 494.955 341.452 494.577 341.261C494.203 341.069 493.925 340.841 493.743 340.577C493.565 340.313 493.477 339.998 493.477 339.634C493.477 339.028 493.732 338.515 494.242 338.096C494.757 337.676 495.413 337.467 496.211 337.467C497.049 337.467 497.729 337.683 498.248 338.116C498.772 338.549 499.034 339.103 499.034 339.777H497.763C497.763 339.431 497.615 339.132 497.318 338.882C497.027 338.631 496.658 338.506 496.211 338.506C495.751 338.506 495.391 338.606 495.131 338.807C494.871 339.007 494.741 339.269 494.741 339.593C494.741 339.898 494.862 340.128 495.104 340.283C495.345 340.438 495.78 340.586 496.409 340.728C497.043 340.869 497.555 341.037 497.947 341.233C498.339 341.429 498.629 341.666 498.815 341.944C499.007 342.218 499.103 342.553 499.103 342.949C499.103 343.61 498.838 344.141 498.31 344.542C497.781 344.938 497.095 345.137 496.252 345.137C495.66 345.137 495.135 345.032 494.68 344.822C494.224 344.613 493.866 344.321 493.606 343.947C493.351 343.569 493.224 343.161 493.224 342.724H494.488C494.511 343.147 494.68 343.485 494.994 343.735C495.313 343.981 495.732 344.104 496.252 344.104C496.73 344.104 497.113 344.009 497.4 343.817C497.692 343.621 497.838 343.362 497.838 343.038Z" fill="#F3652B"/>
<path d="M505.031 346C505.312 346 505.5 345.904 505.688 345.712L509.719 341.673C509.906 341.481 510 341.288 510 341C510 340.712 509.906 340.519 509.719 340.327L505.781 336.288C505.406 335.904 504.844 335.904 504.469 336.288C504.094 336.673 504.094 337.25 504.469 337.635L507.656 341L504.281 344.365C503.906 344.75 503.906 345.327 504.281 345.712C504.469 345.904 504.75 346 505.031 346Z" fill="#F3652B"/>
<path d="M86.7803 280.287H81.5244V284.225H87.668V286H79.3008V273.203H87.6064V274.996H81.5244V278.529H86.7803V280.287ZM88.6963 281.175C88.6963 279.71 89.0361 278.535 89.7158 277.65C90.3955 276.76 91.3066 276.314 92.4492 276.314C93.457 276.314 94.2715 276.666 94.8926 277.369V272.5H97.0283V286H95.0947L94.9893 285.016C94.3506 285.789 93.498 286.176 92.4316 286.176C91.3184 286.176 90.416 285.728 89.7246 284.831C89.0391 283.935 88.6963 282.716 88.6963 281.175ZM90.832 281.359C90.832 282.326 91.0166 283.082 91.3857 283.627C91.7607 284.166 92.291 284.436 92.9766 284.436C93.8496 284.436 94.4883 284.046 94.8926 283.267V279.206C94.5 278.444 93.8672 278.063 92.9941 278.063C92.3027 278.063 91.7695 278.339 91.3945 278.89C91.0195 279.435 90.832 280.258 90.832 281.359ZM98.8828 281.175C98.8828 279.698 99.2285 278.521 99.9199 277.642C100.617 276.757 101.54 276.314 102.688 276.314C103.772 276.314 104.625 276.692 105.246 277.448L105.343 276.49H107.268V285.71C107.268 286.958 106.878 287.942 106.099 288.663C105.325 289.384 104.279 289.744 102.961 289.744C102.264 289.744 101.581 289.598 100.913 289.305C100.251 289.018 99.7471 288.64 99.4014 288.171L100.412 286.888C101.068 287.667 101.877 288.057 102.838 288.057C103.547 288.057 104.106 287.863 104.517 287.477C104.927 287.096 105.132 286.533 105.132 285.789V285.147C104.517 285.833 103.696 286.176 102.671 286.176C101.558 286.176 100.646 285.733 99.9375 284.849C99.2344 283.964 98.8828 282.739 98.8828 281.175ZM101.01 281.359C101.01 282.314 101.203 283.067 101.59 283.618C101.982 284.163 102.524 284.436 103.216 284.436C104.077 284.436 104.716 284.066 105.132 283.328V279.145C104.728 278.424 104.095 278.063 103.233 278.063C102.53 278.063 101.982 278.342 101.59 278.898C101.203 279.455 101.01 280.275 101.01 281.359ZM113.657 286.176C112.304 286.176 111.205 285.751 110.361 284.901C109.523 284.046 109.104 282.909 109.104 281.491V281.228C109.104 280.278 109.286 279.432 109.649 278.688C110.019 277.938 110.534 277.354 111.196 276.938C111.858 276.522 112.597 276.314 113.411 276.314C114.706 276.314 115.705 276.728 116.408 277.554C117.117 278.38 117.472 279.549 117.472 281.061V281.922H111.258C111.322 282.707 111.583 283.328 112.04 283.785C112.503 284.242 113.083 284.471 113.78 284.471C114.759 284.471 115.556 284.075 116.171 283.284L117.322 284.383C116.941 284.951 116.432 285.394 115.793 285.71C115.16 286.021 114.448 286.176 113.657 286.176ZM113.402 278.028C112.816 278.028 112.342 278.233 111.979 278.644C111.621 279.054 111.393 279.625 111.293 280.357H115.362V280.199C115.315 279.484 115.125 278.945 114.791 278.582C114.457 278.213 113.994 278.028 113.402 278.028ZM133.591 281.834C133.462 283.199 132.958 284.266 132.079 285.033C131.2 285.795 130.031 286.176 128.572 286.176C127.553 286.176 126.653 285.936 125.874 285.455C125.101 284.969 124.503 284.28 124.081 283.39C123.659 282.499 123.439 281.465 123.422 280.287V279.092C123.422 277.885 123.636 276.821 124.063 275.901C124.491 274.981 125.104 274.272 125.9 273.774C126.703 273.276 127.629 273.027 128.678 273.027C130.09 273.027 131.227 273.411 132.088 274.179C132.949 274.946 133.45 276.03 133.591 277.431H131.376C131.271 276.511 131.001 275.849 130.567 275.444C130.14 275.034 129.51 274.829 128.678 274.829C127.711 274.829 126.967 275.184 126.445 275.893C125.93 276.596 125.666 277.63 125.654 278.995V280.129C125.654 281.512 125.9 282.566 126.393 283.293C126.891 284.02 127.617 284.383 128.572 284.383C129.445 284.383 130.102 284.187 130.541 283.794C130.98 283.401 131.259 282.748 131.376 281.834H133.591ZM134.979 281.157C134.979 280.226 135.164 279.388 135.533 278.644C135.902 277.894 136.421 277.319 137.089 276.921C137.757 276.517 138.524 276.314 139.392 276.314C140.675 276.314 141.715 276.728 142.512 277.554C143.314 278.38 143.748 279.476 143.812 280.841L143.821 281.342C143.821 282.279 143.64 283.117 143.276 283.855C142.919 284.594 142.403 285.165 141.729 285.569C141.062 285.974 140.288 286.176 139.409 286.176C138.067 286.176 136.992 285.73 136.184 284.84C135.381 283.943 134.979 282.751 134.979 281.263V281.157ZM137.115 281.342C137.115 282.32 137.317 283.088 137.722 283.645C138.126 284.195 138.688 284.471 139.409 284.471C140.13 284.471 140.689 284.189 141.088 283.627C141.492 283.064 141.694 282.241 141.694 281.157C141.694 280.196 141.486 279.435 141.07 278.872C140.66 278.31 140.101 278.028 139.392 278.028C138.694 278.028 138.141 278.307 137.73 278.863C137.32 279.414 137.115 280.24 137.115 281.342ZM147.636 276.49L147.697 277.483C148.365 276.704 149.279 276.314 150.439 276.314C151.711 276.314 152.581 276.801 153.05 277.773C153.741 276.801 154.714 276.314 155.968 276.314C157.017 276.314 157.796 276.604 158.306 277.185C158.821 277.765 159.085 278.62 159.097 279.751V286H156.961V279.812C156.961 279.209 156.829 278.767 156.565 278.485C156.302 278.204 155.865 278.063 155.256 278.063C154.77 278.063 154.371 278.195 154.061 278.459C153.756 278.717 153.542 279.057 153.419 279.479L153.428 286H151.292V279.742C151.263 278.623 150.691 278.063 149.578 278.063C148.723 278.063 148.116 278.412 147.759 279.109V286H145.623V276.49H147.636ZM169.617 281.342C169.617 282.812 169.283 283.987 168.615 284.866C167.947 285.739 167.051 286.176 165.926 286.176C164.883 286.176 164.048 285.833 163.421 285.147V289.656H161.285V276.49H163.254L163.342 277.457C163.969 276.695 164.821 276.314 165.899 276.314C167.06 276.314 167.968 276.748 168.624 277.615C169.286 278.477 169.617 279.675 169.617 281.21V281.342ZM167.49 281.157C167.49 280.208 167.3 279.455 166.919 278.898C166.544 278.342 166.005 278.063 165.302 278.063C164.429 278.063 163.802 278.424 163.421 279.145V283.363C163.808 284.102 164.44 284.471 165.319 284.471C165.999 284.471 166.529 284.198 166.91 283.653C167.297 283.103 167.49 282.271 167.49 281.157ZM177.193 285.068C176.566 285.807 175.676 286.176 174.521 286.176C173.49 286.176 172.708 285.874 172.175 285.271C171.647 284.667 171.384 283.794 171.384 282.651V276.49H173.52V282.625C173.52 283.832 174.021 284.436 175.022 284.436C176.06 284.436 176.76 284.063 177.123 283.319V276.49H179.259V286H177.246L177.193 285.068ZM184.11 274.179V276.49H185.789V278.072H184.11V283.381C184.11 283.744 184.181 284.008 184.321 284.172C184.468 284.33 184.726 284.409 185.095 284.409C185.341 284.409 185.59 284.38 185.842 284.321V285.974C185.355 286.108 184.887 286.176 184.436 286.176C182.795 286.176 181.975 285.271 181.975 283.46V278.072H180.41V276.49H181.975V274.179H184.11ZM189.7 286H187.564V276.49H189.7V286ZM187.433 274.021C187.433 273.692 187.535 273.42 187.74 273.203C187.951 272.986 188.25 272.878 188.637 272.878C189.023 272.878 189.322 272.986 189.533 273.203C189.744 273.42 189.85 273.692 189.85 274.021C189.85 274.343 189.744 274.612 189.533 274.829C189.322 275.04 189.023 275.146 188.637 275.146C188.25 275.146 187.951 275.04 187.74 274.829C187.535 274.612 187.433 274.343 187.433 274.021ZM194.016 276.49L194.077 277.589C194.78 276.739 195.703 276.314 196.846 276.314C198.826 276.314 199.834 277.448 199.869 279.716V286H197.733V279.839C197.733 279.235 197.602 278.79 197.338 278.503C197.08 278.21 196.655 278.063 196.063 278.063C195.202 278.063 194.561 278.453 194.139 279.232V286H192.003V276.49H194.016ZM201.68 281.175C201.68 279.698 202.025 278.521 202.717 277.642C203.414 276.757 204.337 276.314 205.485 276.314C206.569 276.314 207.422 276.692 208.043 277.448L208.14 276.49H210.064V285.71C210.064 286.958 209.675 287.942 208.896 288.663C208.122 289.384 207.076 289.744 205.758 289.744C205.061 289.744 204.378 289.598 203.71 289.305C203.048 289.018 202.544 288.64 202.198 288.171L203.209 286.888C203.865 287.667 204.674 288.057 205.635 288.057C206.344 288.057 206.903 287.863 207.313 287.477C207.724 287.096 207.929 286.533 207.929 285.789V285.147C207.313 285.833 206.493 286.176 205.468 286.176C204.354 286.176 203.443 285.733 202.734 284.849C202.031 283.964 201.68 282.739 201.68 281.175ZM203.807 281.359C203.807 282.314 204 283.067 204.387 283.618C204.779 284.163 205.321 284.436 206.013 284.436C206.874 284.436 207.513 284.066 207.929 283.328V279.145C207.524 278.424 206.892 278.063 206.03 278.063C205.327 278.063 204.779 278.342 204.387 278.898C204 279.455 203.807 280.275 203.807 281.359Z" fill="#1E1E1E"/>
<path d="M84.7812 340.399H80.4678V343.927H85.4785V345H79.1553V335.047H85.4102V336.127H80.4678V339.326H84.7812V340.399ZM86.4697 341.24C86.4697 340.105 86.7386 339.194 87.2764 338.506C87.8141 337.813 88.5182 337.467 89.3887 337.467C90.2546 337.467 90.9404 337.763 91.4463 338.355V334.5H92.7109V345H91.5488L91.4873 344.207C90.9814 344.827 90.2773 345.137 89.375 345.137C88.5182 345.137 87.8187 344.786 87.2764 344.084C86.7386 343.382 86.4697 342.466 86.4697 341.336V341.24ZM87.7344 341.384C87.7344 342.222 87.9076 342.879 88.2539 343.353C88.6003 343.826 89.0788 344.063 89.6895 344.063C90.4915 344.063 91.0771 343.703 91.4463 342.983V339.586C91.068 338.889 90.487 338.54 89.7031 338.54C89.0833 338.54 88.6003 338.779 88.2539 339.258C87.9076 339.736 87.7344 340.445 87.7344 341.384ZM94.3789 341.24C94.3789 340.087 94.6455 339.171 95.1787 338.492C95.7119 337.809 96.4183 337.467 97.2979 337.467C98.2002 337.467 98.9043 337.786 99.4102 338.424L99.4717 337.604H100.627V344.822C100.627 345.779 100.342 346.534 99.7725 347.085C99.2074 347.636 98.4463 347.912 97.4893 347.912C96.9561 347.912 96.4342 347.798 95.9238 347.57C95.4134 347.342 95.0238 347.03 94.7549 346.634L95.4111 345.875C95.9535 346.545 96.6165 346.88 97.4004 346.88C98.0156 346.88 98.4941 346.707 98.8359 346.36C99.1823 346.014 99.3555 345.526 99.3555 344.897V344.262C98.8496 344.845 98.1592 345.137 97.2842 345.137C96.4183 345.137 95.7165 344.788 95.1787 344.091C94.6455 343.394 94.3789 342.443 94.3789 341.24ZM95.6504 341.384C95.6504 342.218 95.8213 342.874 96.1631 343.353C96.5049 343.826 96.9834 344.063 97.5986 344.063C98.3962 344.063 98.9818 343.701 99.3555 342.977V339.6C98.9681 338.893 98.387 338.54 97.6123 338.54C96.9971 338.54 96.5163 338.779 96.1699 339.258C95.8236 339.736 95.6504 340.445 95.6504 341.384ZM105.61 345.137C104.608 345.137 103.792 344.809 103.163 344.152C102.534 343.492 102.22 342.61 102.22 341.507V341.274C102.22 340.541 102.359 339.887 102.637 339.312C102.919 338.734 103.311 338.283 103.812 337.959C104.318 337.631 104.865 337.467 105.453 337.467C106.415 337.467 107.162 337.784 107.695 338.417C108.229 339.05 108.495 339.957 108.495 341.138V341.664H103.484C103.503 342.393 103.715 342.983 104.12 343.435C104.53 343.881 105.05 344.104 105.679 344.104C106.125 344.104 106.504 344.013 106.813 343.831C107.123 343.649 107.395 343.407 107.627 343.106L108.399 343.708C107.78 344.66 106.85 345.137 105.61 345.137ZM105.453 338.506C104.943 338.506 104.514 338.693 104.168 339.066C103.822 339.436 103.607 339.955 103.525 340.625H107.23V340.529C107.194 339.887 107.021 339.39 106.711 339.039C106.401 338.684 105.982 338.506 105.453 338.506ZM119.132 342.402H114.962L114.025 345H112.672L116.473 335.047H117.621L121.429 345H120.082L119.132 342.402ZM115.358 341.322H118.742L117.047 336.667L115.358 341.322ZM128.818 341.384C128.818 342.509 128.561 343.416 128.046 344.104C127.531 344.793 126.834 345.137 125.954 345.137C125.056 345.137 124.35 344.852 123.835 344.282V347.844H122.57V337.604H123.726L123.787 338.424C124.302 337.786 125.018 337.467 125.934 337.467C126.822 337.467 127.524 337.802 128.039 338.472C128.559 339.142 128.818 340.074 128.818 341.268V341.384ZM127.554 341.24C127.554 340.406 127.376 339.748 127.021 339.265C126.665 338.782 126.177 338.54 125.558 338.54C124.792 338.54 124.218 338.88 123.835 339.559V343.093C124.213 343.767 124.792 344.104 125.571 344.104C126.177 344.104 126.658 343.865 127.014 343.387C127.374 342.904 127.554 342.188 127.554 341.24ZM136.68 341.384C136.68 342.509 136.422 343.416 135.907 344.104C135.392 344.793 134.695 345.137 133.815 345.137C132.918 345.137 132.211 344.852 131.696 344.282V347.844H130.432V337.604H131.587L131.648 338.424C132.163 337.786 132.879 337.467 133.795 337.467C134.684 337.467 135.385 337.802 135.9 338.472C136.42 339.142 136.68 340.074 136.68 341.268V341.384ZM135.415 341.24C135.415 340.406 135.237 339.748 134.882 339.265C134.526 338.782 134.039 338.54 133.419 338.54C132.653 338.54 132.079 338.88 131.696 339.559V343.093C132.075 343.767 132.653 344.104 133.433 344.104C134.039 344.104 134.52 343.865 134.875 343.387C135.235 342.904 135.415 342.188 135.415 341.24ZM139.667 345H138.402V334.5H139.667V345ZM143.071 345H141.807V337.604H143.071V345ZM141.704 335.642C141.704 335.437 141.766 335.263 141.889 335.122C142.016 334.981 142.203 334.91 142.449 334.91C142.695 334.91 142.882 334.981 143.01 335.122C143.137 335.263 143.201 335.437 143.201 335.642C143.201 335.847 143.137 336.018 143.01 336.154C142.882 336.291 142.695 336.359 142.449 336.359C142.203 336.359 142.016 336.291 141.889 336.154C141.766 336.018 141.704 335.847 141.704 335.642ZM148.068 344.104C148.52 344.104 148.914 343.968 149.251 343.694C149.588 343.421 149.775 343.079 149.812 342.669H151.008C150.985 343.093 150.839 343.496 150.57 343.879C150.301 344.262 149.941 344.567 149.49 344.795C149.044 345.023 148.57 345.137 148.068 345.137C147.061 345.137 146.259 344.802 145.662 344.132C145.07 343.457 144.773 342.537 144.773 341.37V341.158C144.773 340.438 144.906 339.798 145.17 339.237C145.434 338.677 145.812 338.242 146.305 337.932C146.801 337.622 147.387 337.467 148.062 337.467C148.891 337.467 149.579 337.715 150.126 338.212C150.677 338.709 150.971 339.354 151.008 340.146H149.812C149.775 339.668 149.593 339.276 149.265 338.971C148.941 338.661 148.54 338.506 148.062 338.506C147.419 338.506 146.92 338.738 146.564 339.203C146.214 339.663 146.038 340.331 146.038 341.206V341.445C146.038 342.298 146.214 342.954 146.564 343.414C146.915 343.874 147.417 344.104 148.068 344.104ZM156.996 345C156.923 344.854 156.864 344.594 156.818 344.221C156.23 344.831 155.529 345.137 154.713 345.137C153.984 345.137 153.384 344.932 152.915 344.521C152.45 344.107 152.218 343.583 152.218 342.949C152.218 342.179 152.509 341.582 153.093 341.158C153.681 340.73 154.506 340.516 155.567 340.516H156.798V339.935C156.798 339.493 156.666 339.142 156.401 338.882C156.137 338.618 155.747 338.485 155.232 338.485C154.781 338.485 154.403 338.599 154.098 338.827C153.792 339.055 153.64 339.331 153.64 339.654H152.368C152.368 339.285 152.498 338.93 152.758 338.588C153.022 338.242 153.378 337.968 153.824 337.768C154.275 337.567 154.77 337.467 155.308 337.467C156.16 337.467 156.827 337.681 157.311 338.109C157.794 338.533 158.044 339.119 158.062 339.866V343.271C158.062 343.95 158.149 344.49 158.322 344.891V345H156.996ZM154.897 344.036C155.294 344.036 155.67 343.934 156.025 343.729C156.381 343.523 156.638 343.257 156.798 342.929V341.411H155.807C154.257 341.411 153.482 341.865 153.482 342.771C153.482 343.168 153.615 343.478 153.879 343.701C154.143 343.924 154.483 344.036 154.897 344.036ZM161.761 335.812V337.604H163.142V338.581H161.761V343.168C161.761 343.464 161.822 343.688 161.945 343.838C162.068 343.984 162.278 344.057 162.574 344.057C162.72 344.057 162.921 344.029 163.176 343.975V345C162.843 345.091 162.52 345.137 162.205 345.137C161.64 345.137 161.214 344.966 160.927 344.624C160.64 344.282 160.496 343.797 160.496 343.168V338.581H159.149V337.604H160.496V335.812H161.761ZM165.999 345H164.734V337.604H165.999V345ZM164.632 335.642C164.632 335.437 164.693 335.263 164.816 335.122C164.944 334.981 165.131 334.91 165.377 334.91C165.623 334.91 165.81 334.981 165.938 335.122C166.065 335.263 166.129 335.437 166.129 335.642C166.129 335.847 166.065 336.018 165.938 336.154C165.81 336.291 165.623 336.359 165.377 336.359C165.131 336.359 164.944 336.291 164.816 336.154C164.693 336.018 164.632 335.847 164.632 335.642ZM167.694 341.233C167.694 340.509 167.836 339.857 168.118 339.278C168.405 338.7 168.802 338.253 169.308 337.938C169.818 337.624 170.399 337.467 171.051 337.467C172.058 337.467 172.871 337.815 173.491 338.513C174.116 339.21 174.428 340.137 174.428 341.295V341.384C174.428 342.104 174.289 342.751 174.011 343.325C173.737 343.895 173.343 344.339 172.828 344.658C172.318 344.977 171.73 345.137 171.064 345.137C170.062 345.137 169.248 344.788 168.624 344.091C168.004 343.394 167.694 342.471 167.694 341.322V341.233ZM168.966 341.384C168.966 342.204 169.155 342.863 169.533 343.359C169.916 343.856 170.426 344.104 171.064 344.104C171.707 344.104 172.217 343.854 172.596 343.353C172.974 342.847 173.163 342.14 173.163 341.233C173.163 340.422 172.969 339.766 172.582 339.265C172.199 338.759 171.689 338.506 171.051 338.506C170.426 338.506 169.923 338.754 169.54 339.251C169.157 339.748 168.966 340.459 168.966 341.384ZM177.21 337.604L177.251 338.533C177.816 337.822 178.554 337.467 179.466 337.467C181.029 337.467 181.817 338.349 181.831 340.112V345H180.566V340.105C180.562 339.572 180.439 339.178 180.197 338.923C179.96 338.668 179.589 338.54 179.083 338.54C178.673 338.54 178.313 338.649 178.003 338.868C177.693 339.087 177.451 339.374 177.278 339.729V345H176.014V337.604H177.21Z" fill="#F3652B"/>
<path d="M188.031 346C188.312 346 188.5 345.904 188.688 345.712L192.719 341.673C192.906 341.481 193 341.288 193 341C193 340.712 192.906 340.519 192.719 340.327L188.781 336.288C188.406 335.904 187.844 335.904 187.469 336.288C187.094 336.673 187.094 337.25 187.469 337.635L190.656 341L187.281 344.365C186.906 344.75 186.906 345.327 187.281 345.712C187.469 345.904 187.75 346 188.031 346Z" fill="#F3652B"/>
<path d="M84.7812 368.399H80.4678V371.927H85.4785V373H79.1553V363.047H85.4102V364.127H80.4678V367.326H84.7812V368.399ZM86.4697 369.24C86.4697 368.105 86.7386 367.194 87.2764 366.506C87.8141 365.813 88.5182 365.467 89.3887 365.467C90.2546 365.467 90.9404 365.763 91.4463 366.355V362.5H92.7109V373H91.5488L91.4873 372.207C90.9814 372.827 90.2773 373.137 89.375 373.137C88.5182 373.137 87.8187 372.786 87.2764 372.084C86.7386 371.382 86.4697 370.466 86.4697 369.336V369.24ZM87.7344 369.384C87.7344 370.222 87.9076 370.879 88.2539 371.353C88.6003 371.826 89.0788 372.063 89.6895 372.063C90.4915 372.063 91.0771 371.703 91.4463 370.983V367.586C91.068 366.889 90.487 366.54 89.7031 366.54C89.0833 366.54 88.6003 366.779 88.2539 367.258C87.9076 367.736 87.7344 368.445 87.7344 369.384ZM94.3789 369.24C94.3789 368.087 94.6455 367.171 95.1787 366.492C95.7119 365.809 96.4183 365.467 97.2979 365.467C98.2002 365.467 98.9043 365.786 99.4102 366.424L99.4717 365.604H100.627V372.822C100.627 373.779 100.342 374.534 99.7725 375.085C99.2074 375.636 98.4463 375.912 97.4893 375.912C96.9561 375.912 96.4342 375.798 95.9238 375.57C95.4134 375.342 95.0238 375.03 94.7549 374.634L95.4111 373.875C95.9535 374.545 96.6165 374.88 97.4004 374.88C98.0156 374.88 98.4941 374.707 98.8359 374.36C99.1823 374.014 99.3555 373.526 99.3555 372.897V372.262C98.8496 372.845 98.1592 373.137 97.2842 373.137C96.4183 373.137 95.7165 372.788 95.1787 372.091C94.6455 371.394 94.3789 370.443 94.3789 369.24ZM95.6504 369.384C95.6504 370.218 95.8213 370.874 96.1631 371.353C96.5049 371.826 96.9834 372.063 97.5986 372.063C98.3962 372.063 98.9818 371.701 99.3555 370.977V367.6C98.9681 366.893 98.387 366.54 97.6123 366.54C96.9971 366.54 96.5163 366.779 96.1699 367.258C95.8236 367.736 95.6504 368.445 95.6504 369.384ZM105.61 373.137C104.608 373.137 103.792 372.809 103.163 372.152C102.534 371.492 102.22 370.61 102.22 369.507V369.274C102.22 368.541 102.359 367.887 102.637 367.312C102.919 366.734 103.311 366.283 103.812 365.959C104.318 365.631 104.865 365.467 105.453 365.467C106.415 365.467 107.162 365.784 107.695 366.417C108.229 367.05 108.495 367.957 108.495 369.138V369.664H103.484C103.503 370.393 103.715 370.983 104.12 371.435C104.53 371.881 105.05 372.104 105.679 372.104C106.125 372.104 106.504 372.013 106.813 371.831C107.123 371.649 107.395 371.407 107.627 371.106L108.399 371.708C107.78 372.66 106.85 373.137 105.61 373.137ZM105.453 366.506C104.943 366.506 104.514 366.693 104.168 367.066C103.822 367.436 103.607 367.955 103.525 368.625H107.23V368.529C107.194 367.887 107.021 367.39 106.711 367.039C106.401 366.684 105.982 366.506 105.453 366.506ZM119.125 368.604H114.948V373H113.636V363.047H119.802V364.127H114.948V367.531H119.125V368.604ZM122.55 373H121.285V365.604H122.55V373ZM121.183 363.642C121.183 363.437 121.244 363.263 121.367 363.122C121.495 362.981 121.682 362.91 121.928 362.91C122.174 362.91 122.361 362.981 122.488 363.122C122.616 363.263 122.68 363.437 122.68 363.642C122.68 363.847 122.616 364.018 122.488 364.154C122.361 364.291 122.174 364.359 121.928 364.359C121.682 364.359 121.495 364.291 121.367 364.154C121.244 364.018 121.183 363.847 121.183 363.642ZM128.155 366.738C127.964 366.706 127.757 366.69 127.533 366.69C126.704 366.69 126.141 367.044 125.845 367.75V373H124.58V365.604H125.811L125.831 366.458C126.246 365.797 126.834 365.467 127.595 365.467C127.841 365.467 128.028 365.499 128.155 365.562V366.738ZM132.257 373.137C131.254 373.137 130.438 372.809 129.81 372.152C129.181 371.492 128.866 370.61 128.866 369.507V369.274C128.866 368.541 129.005 367.887 129.283 367.312C129.566 366.734 129.958 366.283 130.459 365.959C130.965 365.631 131.512 365.467 132.1 365.467C133.061 365.467 133.809 365.784 134.342 366.417C134.875 367.05 135.142 367.957 135.142 369.138V369.664H130.131C130.149 370.393 130.361 370.983 130.767 371.435C131.177 371.881 131.696 372.104 132.325 372.104C132.772 372.104 133.15 372.013 133.46 371.831C133.77 371.649 134.041 371.407 134.273 371.106L135.046 371.708C134.426 372.66 133.496 373.137 132.257 373.137ZM132.1 366.506C131.589 366.506 131.161 366.693 130.814 367.066C130.468 367.436 130.254 367.955 130.172 368.625H133.877V368.529C133.84 367.887 133.667 367.39 133.357 367.039C133.048 366.684 132.628 366.506 132.1 366.506ZM143.16 371.257L144.582 365.604H145.847L143.693 373H142.668L140.87 367.395L139.12 373H138.095L135.948 365.604H137.206L138.662 371.141L140.385 365.604H141.403L143.16 371.257ZM151.705 373C151.632 372.854 151.573 372.594 151.527 372.221C150.939 372.831 150.238 373.137 149.422 373.137C148.693 373.137 148.093 372.932 147.624 372.521C147.159 372.107 146.927 371.583 146.927 370.949C146.927 370.179 147.218 369.582 147.802 369.158C148.39 368.73 149.215 368.516 150.276 368.516H151.507V367.935C151.507 367.493 151.375 367.142 151.11 366.882C150.846 366.618 150.456 366.485 149.941 366.485C149.49 366.485 149.112 366.599 148.807 366.827C148.501 367.055 148.349 367.331 148.349 367.654H147.077C147.077 367.285 147.207 366.93 147.467 366.588C147.731 366.242 148.087 365.968 148.533 365.768C148.984 365.567 149.479 365.467 150.017 365.467C150.869 365.467 151.536 365.681 152.02 366.109C152.503 366.533 152.753 367.119 152.771 367.866V371.271C152.771 371.95 152.858 372.49 153.031 372.891V373H151.705ZM149.606 372.036C150.003 372.036 150.379 371.934 150.734 371.729C151.09 371.523 151.347 371.257 151.507 370.929V369.411H150.516C148.966 369.411 148.191 369.865 148.191 370.771C148.191 371.168 148.324 371.478 148.588 371.701C148.852 371.924 149.192 372.036 149.606 372.036ZM156.128 373H154.863V362.5H156.128V373ZM159.532 373H158.268V362.5H159.532V373Z" fill="#F3652B"/>
<path d="M166.031 373.5C166.312 373.5 166.5 373.404 166.688 373.212L170.719 369.173C170.906 368.981 171 368.788 171 368.5C171 368.212 170.906 368.019 170.719 367.827L166.781 363.788C166.406 363.404 165.844 363.404 165.469 363.788C165.094 364.173 165.094 364.75 165.469 365.135L168.656 368.5L165.281 371.865C164.906 372.25 164.906 372.827 165.281 373.212C165.469 373.404 165.75 373.5 166.031 373.5Z" fill="#F3652B"/>
<path d="M84.7812 396.399H80.4678V399.927H85.4785V401H79.1553V391.047H85.4102V392.127H80.4678V395.326H84.7812V396.399ZM86.4697 397.24C86.4697 396.105 86.7386 395.194 87.2764 394.506C87.8141 393.813 88.5182 393.467 89.3887 393.467C90.2546 393.467 90.9404 393.763 91.4463 394.355V390.5H92.7109V401H91.5488L91.4873 400.207C90.9814 400.827 90.2773 401.137 89.375 401.137C88.5182 401.137 87.8187 400.786 87.2764 400.084C86.7386 399.382 86.4697 398.466 86.4697 397.336V397.24ZM87.7344 397.384C87.7344 398.222 87.9076 398.879 88.2539 399.353C88.6003 399.826 89.0788 400.063 89.6895 400.063C90.4915 400.063 91.0771 399.703 91.4463 398.983V395.586C91.068 394.889 90.487 394.54 89.7031 394.54C89.0833 394.54 88.6003 394.779 88.2539 395.258C87.9076 395.736 87.7344 396.445 87.7344 397.384ZM94.3789 397.24C94.3789 396.087 94.6455 395.171 95.1787 394.492C95.7119 393.809 96.4183 393.467 97.2979 393.467C98.2002 393.467 98.9043 393.786 99.4102 394.424L99.4717 393.604H100.627V400.822C100.627 401.779 100.342 402.534 99.7725 403.085C99.2074 403.636 98.4463 403.912 97.4893 403.912C96.9561 403.912 96.4342 403.798 95.9238 403.57C95.4134 403.342 95.0238 403.03 94.7549 402.634L95.4111 401.875C95.9535 402.545 96.6165 402.88 97.4004 402.88C98.0156 402.88 98.4941 402.707 98.8359 402.36C99.1823 402.014 99.3555 401.526 99.3555 400.897V400.262C98.8496 400.845 98.1592 401.137 97.2842 401.137C96.4183 401.137 95.7165 400.788 95.1787 400.091C94.6455 399.394 94.3789 398.443 94.3789 397.24ZM95.6504 397.384C95.6504 398.218 95.8213 398.874 96.1631 399.353C96.5049 399.826 96.9834 400.063 97.5986 400.063C98.3962 400.063 98.9818 399.701 99.3555 398.977V395.6C98.9681 394.893 98.387 394.54 97.6123 394.54C96.9971 394.54 96.5163 394.779 96.1699 395.258C95.8236 395.736 95.6504 396.445 95.6504 397.384ZM105.61 401.137C104.608 401.137 103.792 400.809 103.163 400.152C102.534 399.492 102.22 398.61 102.22 397.507V397.274C102.22 396.541 102.359 395.887 102.637 395.312C102.919 394.734 103.311 394.283 103.812 393.959C104.318 393.631 104.865 393.467 105.453 393.467C106.415 393.467 107.162 393.784 107.695 394.417C108.229 395.05 108.495 395.957 108.495 397.138V397.664H103.484C103.503 398.393 103.715 398.983 104.12 399.435C104.53 399.881 105.05 400.104 105.679 400.104C106.125 400.104 106.504 400.013 106.813 399.831C107.123 399.649 107.395 399.407 107.627 399.106L108.399 399.708C107.78 400.66 106.85 401.137 105.61 401.137ZM105.453 394.506C104.943 394.506 104.514 394.693 104.168 395.066C103.822 395.436 103.607 395.955 103.525 396.625H107.23V396.529C107.194 395.887 107.021 395.39 106.711 395.039C106.401 394.684 105.982 394.506 105.453 394.506ZM119.125 396.604H114.948V401H113.636V391.047H119.802V392.127H114.948V395.531H119.125V396.604ZM125.592 400.269C125.1 400.847 124.377 401.137 123.425 401.137C122.636 401.137 122.035 400.909 121.62 400.453C121.21 399.993 121.003 399.314 120.998 398.416V393.604H122.263V398.382C122.263 399.503 122.718 400.063 123.63 400.063C124.596 400.063 125.239 399.703 125.558 398.983V393.604H126.822V401H125.619L125.592 400.269ZM129.946 393.604L129.987 394.533C130.552 393.822 131.291 393.467 132.202 393.467C133.765 393.467 134.554 394.349 134.567 396.112V401H133.303V396.105C133.298 395.572 133.175 395.178 132.934 394.923C132.697 394.668 132.325 394.54 131.819 394.54C131.409 394.54 131.049 394.649 130.739 394.868C130.429 395.087 130.188 395.374 130.015 395.729V401H128.75V393.604H129.946ZM139.441 400.104C139.893 400.104 140.287 399.968 140.624 399.694C140.961 399.421 141.148 399.079 141.185 398.669H142.381C142.358 399.093 142.212 399.496 141.943 399.879C141.674 400.262 141.314 400.567 140.863 400.795C140.417 401.023 139.943 401.137 139.441 401.137C138.434 401.137 137.632 400.802 137.035 400.132C136.443 399.457 136.146 398.537 136.146 397.37V397.158C136.146 396.438 136.279 395.798 136.543 395.237C136.807 394.677 137.186 394.242 137.678 393.932C138.174 393.622 138.76 393.467 139.435 393.467C140.264 393.467 140.952 393.715 141.499 394.212C142.05 394.709 142.344 395.354 142.381 396.146H141.185C141.148 395.668 140.966 395.276 140.638 394.971C140.314 394.661 139.913 394.506 139.435 394.506C138.792 394.506 138.293 394.738 137.938 395.203C137.587 395.663 137.411 396.331 137.411 397.206V397.445C137.411 398.298 137.587 398.954 137.938 399.414C138.288 399.874 138.79 400.104 139.441 400.104ZM145.519 391.812V393.604H146.899V394.581H145.519V399.168C145.519 399.464 145.58 399.688 145.703 399.838C145.826 399.984 146.036 400.057 146.332 400.057C146.478 400.057 146.678 400.029 146.934 399.975V401C146.601 401.091 146.277 401.137 145.963 401.137C145.398 401.137 144.972 400.966 144.685 400.624C144.397 400.282 144.254 399.797 144.254 399.168V394.581H142.907V393.604H144.254V391.812H145.519ZM149.757 401H148.492V393.604H149.757V401ZM148.39 391.642C148.39 391.437 148.451 391.263 148.574 391.122C148.702 390.981 148.889 390.91 149.135 390.91C149.381 390.91 149.568 390.981 149.695 391.122C149.823 391.263 149.887 391.437 149.887 391.642C149.887 391.847 149.823 392.018 149.695 392.154C149.568 392.291 149.381 392.359 149.135 392.359C148.889 392.359 148.702 392.291 148.574 392.154C148.451 392.018 148.39 391.847 148.39 391.642ZM151.452 397.233C151.452 396.509 151.593 395.857 151.876 395.278C152.163 394.7 152.56 394.253 153.065 393.938C153.576 393.624 154.157 393.467 154.809 393.467C155.816 393.467 156.629 393.815 157.249 394.513C157.873 395.21 158.186 396.137 158.186 397.295V397.384C158.186 398.104 158.047 398.751 157.769 399.325C157.495 399.895 157.101 400.339 156.586 400.658C156.076 400.977 155.488 401.137 154.822 401.137C153.82 401.137 153.006 400.788 152.382 400.091C151.762 399.394 151.452 398.471 151.452 397.322V397.233ZM152.724 397.384C152.724 398.204 152.913 398.863 153.291 399.359C153.674 399.856 154.184 400.104 154.822 400.104C155.465 400.104 155.975 399.854 156.354 399.353C156.732 398.847 156.921 398.14 156.921 397.233C156.921 396.422 156.727 395.766 156.34 395.265C155.957 394.759 155.447 394.506 154.809 394.506C154.184 394.506 153.681 394.754 153.298 395.251C152.915 395.748 152.724 396.459 152.724 397.384ZM160.968 393.604L161.009 394.533C161.574 393.822 162.312 393.467 163.224 393.467C164.787 393.467 165.575 394.349 165.589 396.112V401H164.324V396.105C164.32 395.572 164.197 395.178 163.955 394.923C163.718 394.668 163.347 394.54 162.841 394.54C162.431 394.54 162.071 394.649 161.761 394.868C161.451 395.087 161.209 395.374 161.036 395.729V401H159.771V393.604H160.968ZM171.803 399.038C171.803 398.696 171.673 398.432 171.413 398.245C171.158 398.054 170.709 397.89 170.066 397.753C169.428 397.616 168.92 397.452 168.542 397.261C168.168 397.069 167.89 396.841 167.708 396.577C167.53 396.313 167.441 395.998 167.441 395.634C167.441 395.028 167.697 394.515 168.207 394.096C168.722 393.676 169.378 393.467 170.176 393.467C171.014 393.467 171.693 393.683 172.213 394.116C172.737 394.549 172.999 395.103 172.999 395.777H171.728C171.728 395.431 171.579 395.132 171.283 394.882C170.992 394.631 170.622 394.506 170.176 394.506C169.715 394.506 169.355 394.606 169.096 394.807C168.836 395.007 168.706 395.269 168.706 395.593C168.706 395.898 168.827 396.128 169.068 396.283C169.31 396.438 169.745 396.586 170.374 396.728C171.007 396.869 171.52 397.037 171.912 397.233C172.304 397.429 172.593 397.666 172.78 397.944C172.972 398.218 173.067 398.553 173.067 398.949C173.067 399.61 172.803 400.141 172.274 400.542C171.746 400.938 171.06 401.137 170.217 401.137C169.624 401.137 169.1 401.032 168.645 400.822C168.189 400.613 167.831 400.321 167.571 399.947C167.316 399.569 167.188 399.161 167.188 398.724H168.453C168.476 399.147 168.645 399.485 168.959 399.735C169.278 399.981 169.697 400.104 170.217 400.104C170.695 400.104 171.078 400.009 171.365 399.817C171.657 399.621 171.803 399.362 171.803 399.038Z" fill="#F3652B"/>
<path d="M179.031 402C179.312 402 179.5 401.904 179.688 401.712L183.719 397.673C183.906 397.481 184 397.288 184 397C184 396.712 183.906 396.519 183.719 396.327L179.781 392.288C179.406 391.904 178.844 391.904 178.469 392.288C178.094 392.673 178.094 393.25 178.469 393.635L181.656 397L178.281 400.365C177.906 400.75 177.906 401.327 178.281 401.712C178.469 401.904 178.75 402 179.031 402Z" fill="#F3652B"/>
<path d="M79.1553 317V307.047H81.9648C82.8307 307.047 83.5964 307.238 84.2617 307.621C84.9271 308.004 85.4398 308.549 85.7998 309.255C86.1644 309.961 86.349 310.772 86.3535 311.688V312.324C86.3535 313.263 86.1712 314.086 85.8066 314.792C85.4466 315.498 84.9294 316.041 84.2549 316.419C83.585 316.797 82.8034 316.991 81.9102 317H79.1553ZM80.4678 308.127V315.927H81.8486C82.8604 315.927 83.6465 315.612 84.207 314.983C84.7721 314.354 85.0547 313.459 85.0547 312.297V311.716C85.0547 310.586 84.7881 309.708 84.2549 309.084C83.7262 308.455 82.9743 308.136 81.999 308.127H80.4678ZM87.8096 313.233C87.8096 312.509 87.9508 311.857 88.2334 311.278C88.5205 310.7 88.917 310.253 89.4229 309.938C89.9333 309.624 90.5143 309.467 91.166 309.467C92.1732 309.467 92.9867 309.815 93.6064 310.513C94.2308 311.21 94.543 312.137 94.543 313.295V313.384C94.543 314.104 94.404 314.751 94.126 315.325C93.8525 315.895 93.4583 316.339 92.9434 316.658C92.4329 316.977 91.8451 317.137 91.1797 317.137C90.1771 317.137 89.3636 316.788 88.7393 316.091C88.1195 315.394 87.8096 314.471 87.8096 313.322V313.233ZM89.0811 313.384C89.0811 314.204 89.2702 314.863 89.6484 315.359C90.0312 315.856 90.5417 316.104 91.1797 316.104C91.8223 316.104 92.3327 315.854 92.7109 315.353C93.0892 314.847 93.2783 314.14 93.2783 313.233C93.2783 312.422 93.0846 311.766 92.6973 311.265C92.3145 310.759 91.804 310.506 91.166 310.506C90.5417 310.506 90.0381 310.754 89.6553 311.251C89.2725 311.748 89.0811 312.459 89.0811 313.384ZM97.3184 309.604L97.3525 310.424C97.8949 309.786 98.6263 309.467 99.5469 309.467C100.581 309.467 101.285 309.863 101.659 310.656C101.905 310.301 102.224 310.014 102.616 309.795C103.013 309.576 103.48 309.467 104.018 309.467C105.64 309.467 106.465 310.326 106.492 312.044V317H105.228V312.119C105.228 311.59 105.107 311.196 104.865 310.937C104.624 310.672 104.218 310.54 103.648 310.54C103.179 310.54 102.789 310.681 102.479 310.964C102.17 311.242 101.99 311.618 101.939 312.092V317H100.668V312.153C100.668 311.078 100.142 310.54 99.0889 310.54C98.2594 310.54 97.6921 310.893 97.3867 311.6V317H96.1221V309.604H97.3184ZM112.973 317C112.9 316.854 112.84 316.594 112.795 316.221C112.207 316.831 111.505 317.137 110.689 317.137C109.96 317.137 109.361 316.932 108.892 316.521C108.427 316.107 108.194 315.583 108.194 314.949C108.194 314.179 108.486 313.582 109.069 313.158C109.657 312.73 110.482 312.516 111.544 312.516H112.774V311.935C112.774 311.493 112.642 311.142 112.378 310.882C112.114 310.618 111.724 310.485 111.209 310.485C110.758 310.485 110.38 310.599 110.074 310.827C109.769 311.055 109.616 311.331 109.616 311.654H108.345C108.345 311.285 108.475 310.93 108.734 310.588C108.999 310.242 109.354 309.968 109.801 309.768C110.252 309.567 110.746 309.467 111.284 309.467C112.136 309.467 112.804 309.681 113.287 310.109C113.77 310.533 114.021 311.119 114.039 311.866V315.271C114.039 315.95 114.126 316.49 114.299 316.891V317H112.973ZM110.874 316.036C111.271 316.036 111.646 315.934 112.002 315.729C112.357 315.523 112.615 315.257 112.774 314.929V313.411H111.783C110.234 313.411 109.459 313.865 109.459 314.771C109.459 315.168 109.591 315.478 109.855 315.701C110.12 315.924 110.459 316.036 110.874 316.036ZM117.396 317H116.131V309.604H117.396V317ZM116.028 307.642C116.028 307.437 116.09 307.263 116.213 307.122C116.34 306.981 116.527 306.91 116.773 306.91C117.02 306.91 117.206 306.981 117.334 307.122C117.462 307.263 117.525 307.437 117.525 307.642C117.525 307.847 117.462 308.018 117.334 308.154C117.206 308.291 117.02 308.359 116.773 308.359C116.527 308.359 116.34 308.291 116.213 308.154C116.09 308.018 116.028 307.847 116.028 307.642ZM120.622 309.604L120.663 310.533C121.228 309.822 121.966 309.467 122.878 309.467C124.441 309.467 125.229 310.349 125.243 312.112V317H123.979V312.105C123.974 311.572 123.851 311.178 123.609 310.923C123.372 310.668 123.001 310.54 122.495 310.54C122.085 310.54 121.725 310.649 121.415 310.868C121.105 311.087 120.864 311.374 120.69 311.729V317H119.426V309.604H120.622ZM131.457 315.038C131.457 314.696 131.327 314.432 131.067 314.245C130.812 314.054 130.363 313.89 129.721 313.753C129.083 313.616 128.575 313.452 128.196 313.261C127.823 313.069 127.545 312.841 127.362 312.577C127.185 312.313 127.096 311.998 127.096 311.634C127.096 311.028 127.351 310.515 127.861 310.096C128.376 309.676 129.033 309.467 129.83 309.467C130.669 309.467 131.348 309.683 131.867 310.116C132.391 310.549 132.653 311.103 132.653 311.777H131.382C131.382 311.431 131.234 311.132 130.938 310.882C130.646 310.631 130.277 310.506 129.83 310.506C129.37 310.506 129.01 310.606 128.75 310.807C128.49 311.007 128.36 311.269 128.36 311.593C128.36 311.898 128.481 312.128 128.723 312.283C128.964 312.438 129.399 312.586 130.028 312.728C130.662 312.869 131.174 313.037 131.566 313.233C131.958 313.429 132.248 313.666 132.435 313.944C132.626 314.218 132.722 314.553 132.722 314.949C132.722 315.61 132.457 316.141 131.929 316.542C131.4 316.938 130.714 317.137 129.871 317.137C129.279 317.137 128.755 317.032 128.299 316.822C127.843 316.613 127.485 316.321 127.226 315.947C126.97 315.569 126.843 315.161 126.843 314.724H128.107C128.13 315.147 128.299 315.485 128.613 315.735C128.932 315.981 129.352 316.104 129.871 316.104C130.35 316.104 130.732 316.009 131.02 315.817C131.311 315.621 131.457 315.362 131.457 315.038Z" fill="#F3652B"/>
<path d="M139.031 318C139.312 318 139.5 317.904 139.688 317.712L143.719 313.673C143.906 313.481 144 313.288 144 313C144 312.712 143.906 312.519 143.719 312.327L139.781 308.288C139.406 307.904 138.844 307.904 138.469 308.288C138.094 308.673 138.094 309.25 138.469 309.635L141.656 313L138.281 316.365C137.906 316.75 137.906 317.327 138.281 317.712C138.469 317.904 138.75 318 139.031 318Z" fill="#F3652B"/>
<path d="M42.1484 138.135C41.6667 138.825 40.9928 139.342 40.127 139.688C39.2676 140.026 38.265 140.195 37.1191 140.195C35.9603 140.195 34.9316 139.925 34.0332 139.385C33.1348 138.838 32.4382 138.063 31.9434 137.061C31.4551 136.058 31.2044 134.896 31.1914 133.574V132.334C31.1914 130.192 31.6895 128.532 32.6855 127.354C33.6882 126.175 35.0944 125.586 36.9043 125.586C38.3887 125.586 39.5833 125.967 40.4883 126.729C41.3932 127.484 41.9466 128.558 42.1484 129.951H40.2734C39.9219 128.07 38.8021 127.129 36.9141 127.129C35.6576 127.129 34.7038 127.572 34.0527 128.457C33.4082 129.336 33.0827 130.612 33.0762 132.285V133.447C33.0762 135.042 33.4408 136.312 34.1699 137.256C34.8991 138.193 35.8854 138.662 37.1289 138.662C37.832 138.662 38.4473 138.584 38.9746 138.428C39.502 138.271 39.9382 138.008 40.2832 137.637V134.443H36.9922V132.92H42.1484V138.135ZM49.4559 140.195C48.0236 140.195 46.8582 139.727 45.9598 138.789C45.0613 137.845 44.6121 136.585 44.6121 135.01V134.678C44.6121 133.63 44.8107 132.695 45.2078 131.875C45.6115 131.048 46.1714 130.404 46.8875 129.941C47.6102 129.473 48.3914 129.238 49.2313 129.238C50.605 129.238 51.6727 129.691 52.4344 130.596C53.1961 131.501 53.577 132.796 53.577 134.482V135.234H46.4188C46.4448 136.276 46.7475 137.119 47.327 137.764C47.9129 138.402 48.6551 138.721 49.5535 138.721C50.1916 138.721 50.7319 138.59 51.1746 138.33C51.6173 138.07 52.0047 137.725 52.3367 137.295L53.4403 138.154C52.5548 139.515 51.2267 140.195 49.4559 140.195ZM49.2313 130.723C48.5021 130.723 47.8901 130.99 47.3953 131.523C46.9005 132.051 46.5945 132.793 46.4774 133.75H51.7703V133.613C51.7182 132.695 51.4709 131.986 51.0281 131.484C50.5854 130.977 49.9865 130.723 49.2313 130.723ZM58.1989 126.875V129.434H60.1715V130.83H58.1989V137.383C58.1989 137.806 58.2868 138.125 58.4625 138.34C58.6383 138.548 58.9378 138.652 59.361 138.652C59.5693 138.652 59.8558 138.613 60.2203 138.535V140C59.7451 140.13 59.2828 140.195 58.8336 140.195C58.0263 140.195 57.4176 139.951 57.0075 139.463C56.5973 138.975 56.3922 138.281 56.3922 137.383V130.83H54.4684V129.434H56.3922V126.875H58.1989ZM64.8129 126.875V129.434H66.7856V130.83H64.8129V137.383C64.8129 137.806 64.9008 138.125 65.0766 138.34C65.2524 138.548 65.5519 138.652 65.9751 138.652C66.1834 138.652 66.4698 138.613 66.8344 138.535V140C66.3592 140.13 65.8969 140.195 65.4477 140.195C64.6404 140.195 64.0317 139.951 63.6215 139.463C63.2114 138.975 63.0063 138.281 63.0063 137.383V130.83H61.0825V129.434H63.0063V126.875H64.8129ZM70.9387 140H69.1321V129.434H70.9387V140ZM68.9856 126.631C68.9856 126.338 69.0735 126.09 69.2493 125.889C69.4316 125.687 69.6985 125.586 70.0501 125.586C70.4016 125.586 70.6686 125.687 70.8508 125.889C71.0331 126.09 71.1243 126.338 71.1243 126.631C71.1243 126.924 71.0331 127.168 70.8508 127.363C70.6686 127.559 70.4016 127.656 70.0501 127.656C69.6985 127.656 69.4316 127.559 69.2493 127.363C69.0735 127.168 68.9856 126.924 68.9856 126.631ZM75.6192 129.434L75.6778 130.762C76.4851 129.746 77.5398 129.238 78.8419 129.238C81.075 129.238 82.2013 130.498 82.2208 133.018V140H80.4142V133.008C80.4076 132.246 80.2319 131.683 79.8868 131.318C79.5483 130.954 79.0177 130.771 78.295 130.771C77.7091 130.771 77.1947 130.928 76.752 131.24C76.3093 131.553 75.9643 131.963 75.7169 132.471V140H73.9102V129.434H75.6192ZM84.5868 134.629C84.5868 132.982 84.9677 131.673 85.7294 130.703C86.4911 129.727 87.5002 129.238 88.7567 129.238C90.0458 129.238 91.0517 129.694 91.7743 130.605L91.8622 129.434H93.5126V139.746C93.5126 141.113 93.1057 142.191 92.2919 142.979C91.4846 143.766 90.3974 144.16 89.0302 144.16C88.2685 144.16 87.523 143.997 86.7939 143.672C86.0647 143.346 85.508 142.9 85.1239 142.334L86.0614 141.25C86.8362 142.207 87.7834 142.686 88.9032 142.686C89.7821 142.686 90.4657 142.438 90.954 141.943C91.4488 141.449 91.6962 140.752 91.6962 139.854V138.945C90.9735 139.779 89.9872 140.195 88.7372 140.195C87.5002 140.195 86.4976 139.697 85.7294 138.701C84.9677 137.705 84.5868 136.348 84.5868 134.629ZM86.4032 134.834C86.4032 136.025 86.6474 136.963 87.1357 137.646C87.6239 138.324 88.3075 138.662 89.1864 138.662C90.3258 138.662 91.1623 138.145 91.6962 137.109V132.285C91.1428 131.276 90.3127 130.771 89.206 130.771C88.3271 130.771 87.6402 131.113 87.1454 131.797C86.6506 132.48 86.4032 133.493 86.4032 134.834ZM105.823 133.662C104.215 133.2 103.043 132.633 102.307 131.963C101.578 131.286 101.213 130.452 101.213 129.463C101.213 128.343 101.659 127.419 102.551 126.689C103.45 125.954 104.615 125.586 106.047 125.586C107.024 125.586 107.893 125.775 108.655 126.152C109.423 126.53 110.016 127.051 110.432 127.715C110.855 128.379 111.067 129.105 111.067 129.893H109.182C109.182 129.033 108.909 128.359 108.362 127.871C107.815 127.376 107.043 127.129 106.047 127.129C105.123 127.129 104.4 127.334 103.879 127.744C103.365 128.148 103.108 128.711 103.108 129.434C103.108 130.013 103.352 130.505 103.84 130.908C104.335 131.305 105.172 131.67 106.35 132.002C107.535 132.334 108.46 132.702 109.124 133.105C109.794 133.503 110.289 133.968 110.608 134.502C110.933 135.036 111.096 135.664 111.096 136.387C111.096 137.539 110.647 138.464 109.749 139.16C108.85 139.85 107.649 140.195 106.145 140.195C105.168 140.195 104.257 140.01 103.411 139.639C102.564 139.261 101.91 138.747 101.448 138.096C100.992 137.445 100.764 136.706 100.764 135.879H102.649C102.649 136.738 102.965 137.419 103.596 137.92C104.234 138.415 105.084 138.662 106.145 138.662C107.135 138.662 107.893 138.46 108.42 138.057C108.948 137.653 109.211 137.103 109.211 136.406C109.211 135.71 108.967 135.173 108.479 134.795C107.991 134.411 107.105 134.033 105.823 133.662ZM115.747 126.875V129.434H117.72V130.83H115.747V137.383C115.747 137.806 115.835 138.125 116.011 138.34C116.187 138.548 116.486 138.652 116.91 138.652C117.118 138.652 117.404 138.613 117.769 138.535V140C117.294 140.13 116.831 140.195 116.382 140.195C115.575 140.195 114.966 139.951 114.556 139.463C114.146 138.975 113.941 138.281 113.941 137.383V130.83H112.017V129.434H113.941V126.875H115.747ZM126.434 140C126.33 139.792 126.245 139.421 126.18 138.887C125.34 139.759 124.337 140.195 123.172 140.195C122.13 140.195 121.274 139.902 120.604 139.316C119.94 138.724 119.608 137.975 119.608 137.07C119.608 135.97 120.024 135.117 120.858 134.512C121.697 133.9 122.876 133.594 124.393 133.594H126.151V132.764C126.151 132.132 125.962 131.631 125.584 131.26C125.207 130.882 124.65 130.693 123.914 130.693C123.27 130.693 122.729 130.856 122.293 131.182C121.857 131.507 121.639 131.901 121.639 132.363H119.822C119.822 131.836 120.008 131.328 120.379 130.84C120.757 130.345 121.264 129.954 121.903 129.668C122.547 129.382 123.253 129.238 124.022 129.238C125.239 129.238 126.193 129.544 126.883 130.156C127.573 130.762 127.931 131.598 127.957 132.666V137.529C127.957 138.499 128.081 139.271 128.328 139.844V140H126.434ZM123.436 138.623C124.002 138.623 124.539 138.477 125.047 138.184C125.555 137.891 125.923 137.51 126.151 137.041V134.873H124.735C122.521 134.873 121.414 135.521 121.414 136.816C121.414 137.383 121.603 137.826 121.981 138.145C122.358 138.464 122.843 138.623 123.436 138.623ZM135.968 131.055C135.694 131.009 135.398 130.986 135.079 130.986C133.894 130.986 133.09 131.491 132.667 132.5V140H130.86V129.434H132.618L132.647 130.654C133.24 129.71 134.08 129.238 135.167 129.238C135.519 129.238 135.785 129.284 135.968 129.375V131.055ZM140.648 126.875V129.434H142.621V130.83H140.648V137.383C140.648 137.806 140.736 138.125 140.912 138.34C141.088 138.548 141.387 138.652 141.81 138.652C142.019 138.652 142.305 138.613 142.67 138.535V140C142.194 140.13 141.732 140.195 141.283 140.195C140.476 140.195 139.867 139.951 139.457 139.463C139.047 138.975 138.842 138.281 138.842 137.383V130.83H136.918V129.434H138.842V126.875H140.648ZM149.196 140.195C147.764 140.195 146.598 139.727 145.7 138.789C144.801 137.845 144.352 136.585 144.352 135.01V134.678C144.352 133.63 144.551 132.695 144.948 131.875C145.352 131.048 145.911 130.404 146.628 129.941C147.35 129.473 148.131 129.238 148.971 129.238C150.345 129.238 151.413 129.691 152.174 130.596C152.936 131.501 153.317 132.796 153.317 134.482V135.234H146.159C146.185 136.276 146.488 137.119 147.067 137.764C147.653 138.402 148.395 138.721 149.294 138.721C149.932 138.721 150.472 138.59 150.915 138.33C151.357 138.07 151.745 137.725 152.077 137.295L153.18 138.154C152.295 139.515 150.967 140.195 149.196 140.195ZM148.971 130.723C148.242 130.723 147.63 130.99 147.135 131.523C146.641 132.051 146.335 132.793 146.217 133.75H151.51V133.613C151.458 132.695 151.211 131.986 150.768 131.484C150.325 130.977 149.727 130.723 148.971 130.723ZM155.048 134.629C155.048 133.008 155.432 131.706 156.201 130.723C156.969 129.733 157.975 129.238 159.218 129.238C160.455 129.238 161.435 129.661 162.158 130.508V125H163.964V140H162.304L162.216 138.867C161.494 139.753 160.488 140.195 159.199 140.195C157.975 140.195 156.975 139.694 156.201 138.691C155.432 137.689 155.048 136.38 155.048 134.766V134.629ZM156.855 134.834C156.855 136.032 157.102 136.969 157.597 137.646C158.092 138.324 158.775 138.662 159.648 138.662C160.794 138.662 161.63 138.148 162.158 137.119V132.266C161.617 131.27 160.787 130.771 159.667 130.771C158.782 130.771 158.092 131.113 157.597 131.797C157.102 132.48 156.855 133.493 156.855 134.834Z" fill="#1E1E1E"/>
<rect width="1440" height="82" fill="#F9F9F9"/>
<path d="M42.3574 44.6465H36.3457V55H32.9531V29.4062H41.4258C44.3086 29.4062 46.5234 30.0625 48.0703 31.375C49.6289 32.6875 50.4082 34.5977 50.4082 37.1055C50.4082 38.6992 49.9746 40.0879 49.1074 41.2715C48.252 42.4551 47.0566 43.3398 45.5215 43.9258L51.5332 54.7891V55H47.9121L42.3574 44.6465ZM36.3457 41.8867H41.5312C43.207 41.8867 44.5371 41.4531 45.5215 40.5859C46.5176 39.7188 47.0156 38.5586 47.0156 37.1055C47.0156 35.5234 46.541 34.3105 45.5918 33.4668C44.6543 32.623 43.2949 32.1953 41.5137 32.1836H36.3457V41.8867ZM62.5371 55.3516C59.959 55.3516 57.8613 54.5078 56.2441 52.8203C54.627 51.1211 53.8184 48.8535 53.8184 46.0176V45.4199C53.8184 43.5332 54.1758 41.8516 54.8906 40.375C55.6172 38.8867 56.625 37.7266 57.9141 36.8945C59.2148 36.0508 60.6211 35.6289 62.1328 35.6289C64.6055 35.6289 66.5273 36.4434 67.8984 38.0723C69.2695 39.7012 69.9551 42.0332 69.9551 45.0684V46.4219H57.0703C57.1172 48.2969 57.6621 49.8145 58.7051 50.9746C59.7598 52.123 61.0957 52.6973 62.7129 52.6973C63.8613 52.6973 64.834 52.4629 65.6309 51.9941C66.4277 51.5254 67.125 50.9043 67.7227 50.1309L69.709 51.6777C68.1152 54.127 65.7246 55.3516 62.5371 55.3516ZM62.1328 38.3008C60.8203 38.3008 59.7188 38.7812 58.8281 39.7422C57.9375 40.6914 57.3867 42.0273 57.1758 43.75H66.7031V43.5039C66.6094 41.8516 66.1641 40.5742 65.3672 39.6719C64.5703 38.7578 63.4922 38.3008 62.1328 38.3008ZM85.4766 55C85.2891 54.625 85.1367 53.957 85.0195 52.9961C83.5078 54.5664 81.7031 55.3516 79.6055 55.3516C77.7305 55.3516 76.1895 54.8242 74.9824 53.7695C73.7871 52.7031 73.1895 51.3555 73.1895 49.7266C73.1895 47.7461 73.9395 46.2109 75.4395 45.1211C76.9512 44.0195 79.0723 43.4688 81.8027 43.4688H84.9668V41.9746C84.9668 40.8379 84.627 39.9355 83.9473 39.2676C83.2676 38.5879 82.2656 38.248 80.9414 38.248C79.7812 38.248 78.8086 38.541 78.0234 39.127C77.2383 39.7129 76.8457 40.4219 76.8457 41.2539H73.5762C73.5762 40.3047 73.9102 39.3906 74.5781 38.5117C75.2578 37.6211 76.1719 36.918 77.3203 36.4023C78.4805 35.8867 79.752 35.6289 81.1348 35.6289C83.3262 35.6289 85.043 36.1797 86.2852 37.2812C87.5273 38.3711 88.1719 39.877 88.2188 41.7988V50.5527C88.2188 52.2988 88.4414 53.6875 88.8867 54.7188V55H85.4766ZM80.0801 52.5215C81.0996 52.5215 82.0664 52.2578 82.9805 51.7305C83.8945 51.2031 84.5566 50.5176 84.9668 49.6738V45.7715H82.418C78.4336 45.7715 76.4414 46.9375 76.4414 49.2695C76.4414 50.2891 76.7812 51.0859 77.4609 51.6602C78.1406 52.2344 79.0137 52.5215 80.0801 52.5215ZM96.8496 55H93.5977V28H96.8496V55ZM108.838 45.4551H100.26V42.8008H108.838V45.4551ZM130.213 32.1836H121.986V55H118.629V32.1836H110.42V29.4062H130.213V32.1836ZM137.033 55H133.781V35.9805H137.033V55ZM133.518 30.9355C133.518 30.4082 133.676 29.9629 133.992 29.5996C134.32 29.2363 134.801 29.0547 135.434 29.0547C136.066 29.0547 136.547 29.2363 136.875 29.5996C137.203 29.9629 137.367 30.4082 137.367 30.9355C137.367 31.4629 137.203 31.9023 136.875 32.2539C136.547 32.6055 136.066 32.7812 135.434 32.7812C134.801 32.7812 134.32 32.6055 133.992 32.2539C133.676 31.9023 133.518 31.4629 133.518 30.9355ZM145.312 35.9805L145.4 38.0898C146.795 36.4492 148.676 35.6289 151.043 35.6289C153.703 35.6289 155.514 36.6484 156.475 38.6875C157.107 37.7734 157.928 37.0352 158.936 36.4727C159.955 35.9102 161.156 35.6289 162.539 35.6289C166.711 35.6289 168.832 37.8379 168.902 42.2559V55H165.65V42.4492C165.65 41.0898 165.34 40.0762 164.719 39.4082C164.098 38.7285 163.055 38.3887 161.59 38.3887C160.383 38.3887 159.381 38.752 158.584 39.4785C157.787 40.1934 157.324 41.1602 157.195 42.3789V55H153.926V42.5371C153.926 39.7715 152.572 38.3887 149.865 38.3887C147.732 38.3887 146.273 39.2969 145.488 41.1133V55H142.236V35.9805H145.312ZM181.717 55.3516C179.139 55.3516 177.041 54.5078 175.424 52.8203C173.807 51.1211 172.998 48.8535 172.998 46.0176V45.4199C172.998 43.5332 173.355 41.8516 174.07 40.375C174.797 38.8867 175.805 37.7266 177.094 36.8945C178.395 36.0508 179.801 35.6289 181.312 35.6289C183.785 35.6289 185.707 36.4434 187.078 38.0723C188.449 39.7012 189.135 42.0332 189.135 45.0684V46.4219H176.25C176.297 48.2969 176.842 49.8145 177.885 50.9746C178.939 52.123 180.275 52.6973 181.893 52.6973C183.041 52.6973 184.014 52.4629 184.811 51.9941C185.607 51.5254 186.305 50.9043 186.902 50.1309L188.889 51.6777C187.295 54.127 184.904 55.3516 181.717 55.3516ZM181.312 38.3008C180 38.3008 178.898 38.7812 178.008 39.7422C177.117 40.6914 176.566 42.0273 176.355 43.75H185.883V43.5039C185.789 41.8516 185.344 40.5742 184.547 39.6719C183.75 38.7578 182.672 38.3008 181.312 38.3008ZM206.713 29.4062L215.08 50.2891L223.447 29.4062H227.824V55H224.449V45.0332L224.766 34.2754L216.363 55H213.779L205.395 34.3281L205.729 45.0332V55H202.354V29.4062H206.713ZM245.016 55C244.828 54.625 244.676 53.957 244.559 52.9961C243.047 54.5664 241.242 55.3516 239.145 55.3516C237.27 55.3516 235.729 54.8242 234.521 53.7695C233.326 52.7031 232.729 51.3555 232.729 49.7266C232.729 47.7461 233.479 46.2109 234.979 45.1211C236.49 44.0195 238.611 43.4688 241.342 43.4688H244.506V41.9746C244.506 40.8379 244.166 39.9355 243.486 39.2676C242.807 38.5879 241.805 38.248 240.48 38.248C239.32 38.248 238.348 38.541 237.562 39.127C236.777 39.7129 236.385 40.4219 236.385 41.2539H233.115C233.115 40.3047 233.449 39.3906 234.117 38.5117C234.797 37.6211 235.711 36.918 236.859 36.4023C238.02 35.8867 239.291 35.6289 240.674 35.6289C242.865 35.6289 244.582 36.1797 245.824 37.2812C247.066 38.3711 247.711 39.877 247.758 41.7988V50.5527C247.758 52.2988 247.98 53.6875 248.426 54.7188V55H245.016ZM239.619 52.5215C240.639 52.5215 241.605 52.2578 242.52 51.7305C243.434 51.2031 244.096 50.5176 244.506 49.6738V45.7715H241.957C237.973 45.7715 235.98 46.9375 235.98 49.2695C235.98 50.2891 236.32 51.0859 237 51.6602C237.68 52.2344 238.553 52.5215 239.619 52.5215ZM255.932 35.9805L256.037 38.3711C257.49 36.543 259.389 35.6289 261.732 35.6289C265.752 35.6289 267.779 37.8965 267.814 42.4316V55H264.562V42.4141C264.551 41.043 264.234 40.0293 263.613 39.373C263.004 38.7168 262.049 38.3887 260.748 38.3887C259.693 38.3887 258.768 38.6699 257.971 39.2324C257.174 39.7949 256.553 40.5332 256.107 41.4473V55H252.855V35.9805H255.932ZM284.461 55C284.273 54.625 284.121 53.957 284.004 52.9961C282.492 54.5664 280.688 55.3516 278.59 55.3516C276.715 55.3516 275.174 54.8242 273.967 53.7695C272.771 52.7031 272.174 51.3555 272.174 49.7266C272.174 47.7461 272.924 46.2109 274.424 45.1211C275.936 44.0195 278.057 43.4688 280.787 43.4688H283.951V41.9746C283.951 40.8379 283.611 39.9355 282.932 39.2676C282.252 38.5879 281.25 38.248 279.926 38.248C278.766 38.248 277.793 38.541 277.008 39.127C276.223 39.7129 275.83 40.4219 275.83 41.2539H272.561C272.561 40.3047 272.895 39.3906 273.562 38.5117C274.242 37.6211 275.156 36.918 276.305 36.4023C277.465 35.8867 278.736 35.6289 280.119 35.6289C282.311 35.6289 284.027 36.1797 285.27 37.2812C286.512 38.3711 287.156 39.877 287.203 41.7988V50.5527C287.203 52.2988 287.426 53.6875 287.871 54.7188V55H284.461ZM279.064 52.5215C280.084 52.5215 281.051 52.2578 281.965 51.7305C282.879 51.2031 283.541 50.5176 283.951 49.6738V45.7715H281.402C277.418 45.7715 275.426 46.9375 275.426 49.2695C275.426 50.2891 275.766 51.0859 276.445 51.6602C277.125 52.2344 277.998 52.5215 279.064 52.5215ZM291.527 45.332C291.527 42.3672 292.213 40.0117 293.584 38.2656C294.955 36.5078 296.771 35.6289 299.033 35.6289C301.354 35.6289 303.164 36.4492 304.465 38.0898L304.623 35.9805H307.594V54.543C307.594 57.0039 306.861 58.9434 305.396 60.3613C303.943 61.7793 301.986 62.4883 299.525 62.4883C298.154 62.4883 296.812 62.1953 295.5 61.6094C294.188 61.0234 293.186 60.2207 292.494 59.2012L294.182 57.25C295.576 58.9727 297.281 59.834 299.297 59.834C300.879 59.834 302.109 59.3887 302.988 58.498C303.879 57.6074 304.324 56.3535 304.324 54.7363V53.1016C303.023 54.6016 301.248 55.3516 298.998 55.3516C296.771 55.3516 294.967 54.4551 293.584 52.6621C292.213 50.8691 291.527 48.4258 291.527 45.332ZM294.797 45.7012C294.797 47.8457 295.236 49.5332 296.115 50.7637C296.994 51.9824 298.225 52.5918 299.807 52.5918C301.857 52.5918 303.363 51.6602 304.324 49.7969V41.1133C303.328 39.2969 301.834 38.3887 299.842 38.3887C298.26 38.3887 297.023 39.0039 296.133 40.2344C295.242 41.4648 294.797 43.2871 294.797 45.7012ZM320.408 55.3516C317.83 55.3516 315.732 54.5078 314.115 52.8203C312.498 51.1211 311.689 48.8535 311.689 46.0176V45.4199C311.689 43.5332 312.047 41.8516 312.762 40.375C313.488 38.8867 314.496 37.7266 315.785 36.8945C317.086 36.0508 318.492 35.6289 320.004 35.6289C322.477 35.6289 324.398 36.4434 325.77 38.0723C327.141 39.7012 327.826 42.0332 327.826 45.0684V46.4219H314.941C314.988 48.2969 315.533 49.8145 316.576 50.9746C317.631 52.123 318.967 52.6973 320.584 52.6973C321.732 52.6973 322.705 52.4629 323.502 51.9941C324.299 51.5254 324.996 50.9043 325.594 50.1309L327.58 51.6777C325.986 54.127 323.596 55.3516 320.408 55.3516ZM320.004 38.3008C318.691 38.3008 317.59 38.7812 316.699 39.7422C315.809 40.6914 315.258 42.0273 315.047 43.75H324.574V43.5039C324.48 41.8516 324.035 40.5742 323.238 39.6719C322.441 38.7578 321.363 38.3008 320.004 38.3008ZM340.799 38.8984C340.307 38.8164 339.773 38.7754 339.199 38.7754C337.066 38.7754 335.619 39.6836 334.857 41.5V55H331.605V35.9805H334.77L334.822 38.1777C335.889 36.4785 337.4 35.6289 339.357 35.6289C339.99 35.6289 340.471 35.7109 340.799 35.875V38.8984Z" fill="#646464"/>
<path fill-rule="evenodd" clip-rule="evenodd" d="M389.95 226.991C391.153 226.991 392.027 227.974 392.027 229.067C392.027 230.269 391.043 231.144 389.95 231.144C388.748 231.144 387.874 230.16 387.874 229.067C387.874 227.974 388.748 226.991 389.95 226.991ZM389.95 226.772C388.639 226.772 387.655 227.756 387.655 229.067C387.655 230.379 388.639 231.362 389.95 231.362C391.262 231.362 392.245 230.379 392.245 229.067C392.245 227.865 391.153 226.772 389.95 226.772Z" fill="#F3652B"/>
<path d="M389.951 231.908C388.421 231.908 387.219 230.706 387.219 229.176C387.219 227.646 388.421 226.444 389.951 226.444C391.481 226.444 392.683 227.646 392.683 229.176C392.683 230.597 391.481 231.908 389.951 231.908ZM389.951 227.427C389.077 227.427 388.312 228.192 388.312 229.067C388.312 229.941 389.077 230.706 389.951 230.706C390.825 230.706 391.59 229.941 391.59 229.067C391.59 228.192 390.825 227.427 389.951 227.427Z" fill="#F3652B"/>
<path fill-rule="evenodd" clip-rule="evenodd" d="M400.661 220.651C401.753 220.651 402.737 221.526 402.737 222.728C402.737 223.93 401.753 224.804 400.661 224.804C399.458 224.804 398.584 223.821 398.584 222.728C398.584 221.635 399.458 220.651 400.661 220.651ZM400.661 220.433C399.349 220.433 398.365 221.416 398.365 222.728C398.365 224.039 399.349 225.023 400.661 225.023C401.972 225.023 402.956 224.039 402.956 222.728C402.956 221.416 401.863 220.433 400.661 220.433Z" fill="#F3652B"/>
<path d="M400.661 225.46C399.131 225.46 397.929 224.258 397.929 222.728C397.929 221.198 399.131 219.996 400.661 219.996C402.191 219.996 403.393 221.198 403.393 222.728C403.393 224.258 402.191 225.46 400.661 225.46ZM400.661 221.089C399.787 221.089 399.022 221.854 399.022 222.728C399.022 223.602 399.787 224.367 400.661 224.367C401.536 224.367 402.301 223.602 402.301 222.728C402.301 221.854 401.536 221.089 400.661 221.089Z" fill="#F3652B"/>
<path fill-rule="evenodd" clip-rule="evenodd" d="M411.152 223.274C412.354 223.274 413.229 224.258 413.229 225.351C413.229 226.444 412.245 227.427 411.152 227.427C409.95 227.427 409.076 226.444 409.076 225.351C409.076 224.258 409.95 223.274 411.152 223.274ZM411.152 223.056C409.841 223.056 408.857 224.039 408.857 225.351C408.857 226.662 409.841 227.646 411.152 227.646C412.464 227.646 413.447 226.662 413.447 225.351C413.447 224.148 412.464 223.056 411.152 223.056Z" fill="#F3652B"/>
<path d="M411.153 228.193C409.623 228.193 408.421 226.99 408.421 225.46C408.421 223.93 409.623 222.728 411.153 222.728C412.683 222.728 413.885 223.93 413.885 225.46C413.885 226.99 412.683 228.193 411.153 228.193ZM411.153 223.712C410.279 223.712 409.514 224.477 409.514 225.351C409.514 226.225 410.279 226.99 411.153 226.99C412.027 226.99 412.792 226.225 412.792 225.351C412.792 224.477 412.027 223.712 411.153 223.712Z" fill="#F3652B"/>
<path fill-rule="evenodd" clip-rule="evenodd" d="M422.082 216.936C423.284 216.936 424.159 217.919 424.159 219.012C424.159 220.214 423.175 221.089 422.082 221.089C420.88 221.089 420.006 220.105 420.006 219.012C420.006 217.919 420.88 216.936 422.082 216.936ZM422.082 216.717C420.771 216.717 419.787 217.701 419.787 219.012C419.787 220.324 420.771 221.307 422.082 221.307C423.394 221.307 424.377 220.324 424.377 219.012C424.377 217.701 423.394 216.717 422.082 216.717Z" fill="#F3652B"/>
<path d="M422.082 221.745C420.552 221.745 419.35 220.542 419.35 219.012C419.35 217.482 420.552 216.28 422.082 216.28C423.612 216.28 424.814 217.482 424.814 219.012C424.814 220.542 423.612 221.745 422.082 221.745ZM422.082 217.373C421.208 217.373 420.443 218.138 420.443 219.012C420.443 219.887 421.208 220.652 422.082 220.652C422.956 220.652 423.721 219.887 423.721 219.012C423.721 218.138 422.956 217.373 422.082 217.373Z" fill="#F3652B"/>
<path fill-rule="evenodd" clip-rule="evenodd" d="M391.919 228.083L391.81 227.974L398.695 223.821L398.804 224.04L391.919 228.083Z" fill="#F3652B"/>
<path d="M391.7 228.739L391.153 227.756L398.804 223.275L399.35 224.149L391.7 228.739Z" fill="#F3652B"/>
<path fill-rule="evenodd" clip-rule="evenodd" d="M408.967 224.914L402.738 223.275L402.847 223.056L409.076 224.695L408.967 224.914Z" fill="#F3652B"/>
<path d="M409.296 225.352L402.192 223.603L402.52 222.51L409.624 224.368L409.296 225.352Z" fill="#F3652B"/>
<path d="M419.889 220.023L413.095 224.205L413.21 224.391L420.004 220.209L419.889 220.023Z" fill="#F3652B"/>
<path d="M420.035 219.421L412.495 224.06L413.068 224.991L420.608 220.352L420.035 219.421Z" fill="#F3652B"/>
<path fill-rule="evenodd" clip-rule="evenodd" d="M387.438 252.564H393.886V237.154H387.438V252.564ZM387.656 252.345H393.667V237.263H387.656V252.345Z" fill="#F3652B"/>
<path d="M394.322 253.002H387V236.718H394.322V253.002ZM388.093 251.909H393.23V237.701H388.093V251.909Z" fill="#F3652B"/>
<path fill-rule="evenodd" clip-rule="evenodd" d="M398.366 252.564H404.815V230.597H398.366V252.564ZM398.585 252.346H404.596V230.816H398.585V252.346Z" fill="#F3652B"/>
<path d="M405.142 253.002H397.82V230.16H405.142V253.002ZM399.022 251.909H404.159V231.144H399.022V251.909Z" fill="#F3652B"/>
<path fill-rule="evenodd" clip-rule="evenodd" d="M409.186 252.565H415.634V233.658H409.186V252.565ZM409.405 252.346H415.416V233.876H409.405V252.346Z" fill="#F3652B"/>
<path d="M416.07 253.001H408.748V233.22H416.07V253.001ZM409.841 251.908H414.978V234.313H409.841V251.908Z" fill="#F3652B"/>
<path fill-rule="evenodd" clip-rule="evenodd" d="M420.115 252.564H426.563V227.428H420.115V252.564ZM420.333 252.346H426.344V227.646H420.333V252.346Z" fill="#F3652B"/>
<path d="M427 253.001H419.678V226.99H427V253.001ZM420.771 251.908H425.907V228.083H420.771V251.908Z" fill="#F3652B"/>
<g clip-path="url(#clip1)">
<path d="M105.502 222.179H90.4978C88.6411 222.179 87.1326 223.688 87.1326 225.544V240.56C87.1326 242.417 88.6411 243.925 90.4978 243.925H105.502C107.359 243.925 108.867 242.417 108.867 240.56V225.544C108.867 223.688 107.359 222.179 105.502 222.179ZM107.707 240.549C107.707 241.767 106.721 242.753 105.502 242.753H90.4978C89.2794 242.753 88.293 241.767 88.293 240.549V225.544C88.293 224.326 89.2794 223.339 90.4978 223.339H105.502C106.721 223.339 107.707 224.326 107.707 225.544V240.549Z" fill="#F3652B"/>
<path d="M118 219.87V218.756H114.832C114.542 217.479 113.532 216.481 112.244 216.203V213H111.119V216.133H106.767V213H105.641V216.133H101.29V213H100.164V216.133H95.8126V213H94.687V216.133H90.3354V213H89.233V216.133H84.8697V213H83.7557V216.203C82.4793 216.47 81.4581 217.479 81.168 218.756H78V219.881H81.0867V224.233H78V225.359H81.0867V229.71H78V230.836H81.0867V235.187H78V236.313H81.0867V240.665H78V241.79H81.0867V246.142H78V247.267H81.1448C81.4001 248.59 82.4328 249.635 83.7557 249.913V253.023H84.8813V249.994H89.233V253.023H90.3586V249.994H94.7102V253.023H95.8358V249.994H100.187V253.023H101.313V249.994H105.665V253.023H106.79V249.994H111.142V253.023H112.267V249.913C113.579 249.635 114.612 248.59 114.867 247.267H118.012V246.142H114.925V241.79H118.012V240.665H114.925V236.313H118.012V235.187H114.925V230.836H118.012V229.71H114.925V225.359H118.012V224.233H114.925V219.87H118ZM113.753 246.594C113.753 247.813 112.766 248.799 111.548 248.799H84.452C83.2335 248.799 82.2472 247.813 82.2472 246.594V219.498C82.2472 218.28 83.2335 217.294 84.452 217.294H111.56C112.778 217.294 113.764 218.28 113.764 219.498V246.594H113.753Z" fill="#F3652B"/>
</g>
<g filter="url(#filter1_d)">
<path fill-rule="evenodd" clip-rule="evenodd" d="M451.355 345.891C450.99 345.871 450.63 345.937 450.305 346.085C450 345.192 449.215 344.539 448.27 344.488C447.835 344.463 447.405 344.565 447.035 344.779C446.655 344.106 445.975 343.641 445.185 343.595C444.865 343.575 444.56 343.626 444.27 343.733V341.427C444.27 340.131 443.315 339.07 442.1 339.004C441.46 338.968 440.86 339.197 440.4 339.641C439.945 340.08 439.685 340.697 439.685 341.335V350.024L439.025 349.437C437.96 348.544 436.975 348.361 436.1 348.886C435.57 349.203 435.2 349.728 435.06 350.356C434.915 351.009 435.035 351.708 435.4 352.264L440.81 360.57V362.743C440.81 363.167 441.145 363.509 441.56 363.509H450.81C451.225 363.509 451.56 363.167 451.56 362.743V359.815L453.12 356.891C453.38 356.402 453.515 355.856 453.515 355.3V348.315C453.525 347.019 452.57 345.958 451.355 345.891Z" fill="white"/>
</g>
<path fill-rule="evenodd" clip-rule="evenodd" d="M450.305 346.085C450.63 345.937 450.99 345.871 451.355 345.891C452.57 345.958 453.525 347.019 453.515 348.315V355.3C453.515 355.856 453.38 356.402 453.12 356.891L451.56 359.815V362.743C451.56 363.167 451.225 363.509 450.81 363.509H441.56C441.145 363.509 440.81 363.167 440.81 362.743V360.57L435.4 352.264C435.035 351.708 434.915 351.009 435.06 350.356C435.2 349.728 435.57 349.203 436.1 348.886C436.975 348.361 437.96 348.544 439.025 349.437L439.685 350.024V341.335C439.685 340.697 439.945 340.08 440.4 339.641C440.86 339.197 441.46 338.968 442.1 339.004C443.315 339.07 444.27 340.131 444.27 341.427V343.733C444.56 343.626 444.865 343.575 445.185 343.595C445.975 343.641 446.655 344.106 447.035 344.779C447.405 344.565 447.835 344.463 448.27 344.488C449.215 344.539 450 345.192 450.305 346.085ZM451.81 356.157C451.95 355.896 452.025 355.601 452.025 355.3H452.03V348.31C452.03 347.835 451.695 347.432 451.28 347.412C451.06 347.402 450.85 347.478 450.69 347.631C450.535 347.784 450.445 347.993 450.445 348.218V350.519C450.445 350.942 450.11 351.284 449.695 351.284C449.28 351.284 448.945 350.942 448.945 350.519V348.218V347.249V346.907C448.945 346.432 448.605 346.029 448.195 346.009C447.975 345.999 447.765 346.075 447.605 346.228C447.45 346.381 447.36 346.59 447.36 346.815V349.499C447.36 349.922 447.025 350.264 446.61 350.264C446.195 350.264 445.86 349.922 445.86 349.499V346.815V346.228V346.014C445.86 345.544 445.52 345.141 445.11 345.121C444.885 345.106 444.675 345.187 444.52 345.34C444.365 345.493 444.275 345.703 444.275 345.927V349.504C444.275 349.927 443.94 350.269 443.525 350.269C443.11 350.269 442.775 349.927 442.775 349.504V345.927V344.192V341.427C442.775 340.953 442.435 340.55 442.025 340.529C441.805 340.514 441.595 340.595 441.435 340.749C441.28 340.902 441.19 341.111 441.19 341.335V350.774V351.708V353.029C441.19 353.453 440.855 353.794 440.44 353.794C440.025 353.794 439.69 353.453 439.69 353.029V352.534C439.69 352.233 439.56 351.942 439.335 351.743L438.06 350.611C437.28 349.958 436.99 350.131 436.865 350.208C436.635 350.345 436.555 350.575 436.525 350.698C436.47 350.942 436.52 351.208 436.655 351.417L442.19 359.907C442.27 360.034 442.315 360.177 442.315 360.33V361.973H450.065V359.616C450.065 359.488 450.095 359.361 450.155 359.249L451.81 356.157Z" fill="#646464"/>
</g>
<defs>
<filter id="filter0_d" x="27.5" y="163.7" width="529" height="292" filterUnits="userSpaceOnUse" color-interpolation-filters="sRGB">
<feFlood flood-opacity="0" result="BackgroundImageFix"/>
<feColorMatrix in="SourceAlpha" type="matrix" values="0 0 0 0 0 0 0 0 0 0 0 0 0 0 0 0 0 0 127 0" result="hardAlpha"/>
<feOffset dy="1.2"/>
<feGaussianBlur stdDeviation="1.25"/>
<feColorMatrix type="matrix" values="0 0 0 0 0.784314 0 0 0 0 0.784314 0 0 0 0 0.784314 0 0 0 1 0"/>
<feBlend mode="normal" in2="BackgroundImageFix" result="effect1_dropShadow"/>
<feBlend mode="normal" in="SourceGraphic" in2="effect1_dropShadow" result="shape"/>
</filter>
<filter id="filter1_d" x="430" y="337" width="28.515" height="34.5087" filterUnits="userSpaceOnUse" color-interpolation-filters="sRGB">
<feFlood flood-opacity="0" result="BackgroundImageFix"/>
<feColorMatrix in="SourceAlpha" type="matrix" values="0 0 0 0 0 0 0 0 0 0 0 0 0 0 0 0 0 0 127 0" result="hardAlpha"/>
<feOffset dy="3"/>
<feGaussianBlur stdDeviation="2.5"/>
<feColorMatrix type="matrix" values="0 0 0 0 0 0 0 0 0 0 0 0 0 0 0 0 0 0 0.1 0"/>
<feBlend mode="normal" in2="BackgroundImageFix" result="effect1_dropShadow"/>
<feBlend mode="normal" in="SourceGraphic" in2="effect1_dropShadow" result="shape"/>
</filter>
<linearGradient id="paint0_linear" x1="1938.02" y1="1021" x2="1938.02" y2="1656" gradientUnits="userSpaceOnUse">
<stop stop-color="#F7F7F7"/>
<stop offset="1" stop-color="white"/>
</linearGradient>
<clipPath id="clip0">
<rect width="585" height="492" fill="white"/>
</clipPath>
<clipPath id="clip1">
<rect width="40" height="40" fill="white" transform="translate(78 213)"/>
</clipPath>
</defs>
</svg>
