<svg width="42" height="33" viewBox="0 0 42 33" fill="none" xmlns="http://www.w3.org/2000/svg">
<path fill-rule="evenodd" clip-rule="evenodd" d="M7.96666 11.0227L8.31409 10.8648L7.92072 9.99292L7.57234 10.1518C6.9531 10.4322 6.26878 10.5318 5.59595 10.4303L5.21598 10.3729L5.08008 11.3214L5.45813 11.3769C5.67156 11.4075 5.89073 11.4247 6.10895 11.4247C6.75403 11.4247 7.37997 11.2898 7.96666 11.0227Z" fill="#F3652B"/>
<path fill-rule="evenodd" clip-rule="evenodd" d="M8.87451 9.16488L9.67655 9.68936L9.8852 9.36587C10.3532 8.64135 10.6011 7.79911 10.6011 6.93198C10.6011 6.08017 10.3618 5.25229 9.90913 4.53734L9.70431 4.21289L8.89461 4.72685L9.09943 5.05034C9.45451 5.6112 9.64306 6.26202 9.64306 6.93198C9.64306 7.61343 9.44877 8.27478 9.08124 8.84521L8.87451 9.16488Z" fill="#F3652B"/>
<path fill-rule="evenodd" clip-rule="evenodd" d="M2.71155 7.9134L2.60531 7.54492L1.68555 7.81195L1.79178 8.17947C2.03201 9.00927 2.50195 9.74814 3.15372 10.3157L3.43989 10.5655L4.07444 9.84864L3.78445 9.59501C3.27049 9.14613 2.89914 8.56422 2.71155 7.9134Z" fill="#F3652B"/>
<path fill-rule="evenodd" clip-rule="evenodd" d="M5.62792 3.42938C6.30746 3.34133 6.9956 3.44373 7.60336 3.72799L7.95174 3.8907L8.35563 3.02453L8.00916 2.86182C7.22818 2.49526 6.3534 2.36701 5.50254 2.4809L5.12354 2.53163L5.24891 3.47915L5.62792 3.42938Z" fill="#F3652B"/>
<path fill-rule="evenodd" clip-rule="evenodd" d="M3.18882 3.51886C2.53034 4.08163 2.05084 4.81668 1.80391 5.6436L1.69385 6.01017L2.61074 6.28485L2.72081 5.91829C2.91605 5.26747 3.29219 4.68938 3.80997 4.24721L4.10093 3.99837L3.48074 3.27002L3.18882 3.51886Z" fill="#F3652B"/>
<path fill-rule="evenodd" clip-rule="evenodd" d="M20.83 5.66898L20.0318 5.14258L18.3311 7.68365L19.1254 8.21962L20.83 5.66898Z" fill="#F3652B"/>
<path fill-rule="evenodd" clip-rule="evenodd" d="M21.9376 4.01631L22.0429 4.44221L22.9713 4.21251L22.3434 1.68579L20.8867 3.86604L21.6801 4.4001L21.9376 4.01631Z" fill="#F3652B"/>
<path fill-rule="evenodd" clip-rule="evenodd" d="M23.1563 8.90425L24.0837 8.66594L23.3439 5.698L22.4155 5.9277L23.1563 8.90425Z" fill="#F3652B"/>
<path fill-rule="evenodd" clip-rule="evenodd" d="M8.04932 14.0102L8.90304 14.4419L10.2793 11.7008L9.42083 11.2739L8.04932 14.0102Z" fill="#F3652B"/>
<path fill-rule="evenodd" clip-rule="evenodd" d="M7.35975 15.3787L5.98633 18.1179L6.84197 18.5438L8.21731 15.8074L7.35975 15.3787Z" fill="#F3652B"/>
<mask id="mask0" style="mask-type:alpha" maskUnits="userSpaceOnUse" x="0" y="0" width="42" height="33">
<path fill-rule="evenodd" clip-rule="evenodd" d="M0 32.7679H42V0H0V32.7679Z" fill="white"/>
</mask>
<g mask="url(#mask0)">
<path fill-rule="evenodd" clip-rule="evenodd" d="M6.95801 19.4175H10.0217V18.4604H6.95801V19.4175Z" fill="#F3652B"/>
<path fill-rule="evenodd" clip-rule="evenodd" d="M13.3114 13.3907L11.1178 11.2468L10.4517 11.9359L12.6415 14.0722L13.3114 13.3907Z" fill="#F3652B"/>
<path fill-rule="evenodd" clip-rule="evenodd" d="M16.3266 17.9073C16.3266 15.9577 17.9106 14.3718 19.8592 14.3718C21.8098 14.3718 23.3947 15.9577 23.3947 17.9073C23.3947 19.8559 21.8098 21.4408 19.8592 21.4408C17.9106 21.4408 16.3266 19.8559 16.3266 17.9073ZM24.3529 17.9074C24.3529 15.4304 22.3363 13.4148 19.8593 13.4148C17.3833 13.4148 15.3687 15.4304 15.3687 17.9074C15.3687 20.3834 17.3833 22.398 19.8593 22.398C22.3363 22.398 24.3529 20.3834 24.3529 17.9074Z" fill="#F3652B"/>
<path fill-rule="evenodd" clip-rule="evenodd" d="M27.9466 26.562L35.6885 14.9889L39.292 29.4343H20.6354L24.0082 22.7193L27.9466 26.562ZM19.084 30.3915H40.518L36.0944 12.6624L27.7906 25.072L23.7393 21.1211L19.084 30.3915Z" fill="#F3652B"/>
<path fill-rule="evenodd" clip-rule="evenodd" d="M41.0421 31.8109H14.7097V11.9302H16.4181H16.6439H23.9121L23.914 11.9388L23.9494 11.9302H41.0421V31.8109ZM0.95709 20.8359V0.955221H27.2905V10.9731H24.6594L24.4565 10.1567L23.5282 10.3864L23.6746 10.9731H17.2831L18.2737 9.49151L17.4803 8.9565L16.1308 10.9731H13.7515V18.4614H11.5502V19.4185H13.7515V20.8359H0.95709ZM28.2485 10.973V0H0V21.793H13.7515V32.7679H42V10.973H28.2485Z" fill="#F3652B"/>
</g>
</svg>
