<svg viewBox="0 0 324 262" fill="none" xmlns="http://www.w3.org/2000/svg">
<rect width="324" height="262" fill="white"/>
<path d="M0 0H324V47H0V0Z" fill="#F9F9F9"/>
<path d="M25.3628 27.5817H21.7809V33.7505H19.7595V18.5013H24.8077C26.5253 18.5013 27.845 18.8923 28.7666 19.6743C29.6953 20.4563 30.1596 21.5944 30.1596 23.0886C30.1596 24.0382 29.9012 24.8656 29.3845 25.5708C28.8748 26.276 28.1626 26.8032 27.248 27.1523L30.8299 33.6248V33.7505H28.6724L25.3628 27.5817ZM21.7809 25.9374H24.8705C25.869 25.9374 26.6615 25.679 27.248 25.1623C27.8415 24.6456 28.1382 23.9544 28.1382 23.0886C28.1382 22.146 27.8554 21.4233 27.2899 20.9206C26.7313 20.4179 25.9214 20.1631 24.86 20.1561H21.7809V25.9374ZM37.3862 33.96C35.8501 33.96 34.6003 33.4572 33.6367 32.4518C32.6732 31.4394 32.1914 30.0883 32.1914 28.3986V28.0425C32.1914 26.9184 32.4044 25.9164 32.8303 25.0367C33.2632 24.1499 33.8636 23.4587 34.6317 22.9629C35.4067 22.4602 36.2446 22.2088 37.1453 22.2088C38.6186 22.2088 39.7636 22.6941 40.5806 23.6646C41.3975 24.6352 41.8059 26.0246 41.8059 27.833V28.6395H34.129C34.1569 29.7566 34.4816 30.6608 35.103 31.3521C35.7314 32.0363 36.5274 32.3785 37.4909 32.3785C38.1752 32.3785 38.7547 32.2388 39.2295 31.9595C39.7043 31.6803 40.1197 31.3102 40.4758 30.8494L41.6593 31.771C40.7097 33.2303 39.2854 33.96 37.3862 33.96ZM37.1453 23.8008C36.3633 23.8008 35.707 24.0871 35.1763 24.6596C34.6457 25.2252 34.3175 26.0211 34.1918 27.0475H39.8684V26.9009C39.8125 25.9164 39.5472 25.1554 39.0724 24.6177C38.5976 24.0731 37.9552 23.8008 37.1453 23.8008ZM51.0539 33.7505C50.9422 33.5271 50.8514 33.1291 50.7816 32.5565C49.8809 33.4921 48.8056 33.96 47.5558 33.96C46.4387 33.96 45.5205 33.6458 44.8013 33.0174C44.0891 32.382 43.733 31.579 43.733 30.6085C43.733 29.4285 44.1799 28.5138 45.0736 27.8645C45.9743 27.2081 47.2381 26.88 48.865 26.88H50.7502V25.9897C50.7502 25.3125 50.5477 24.7748 50.1427 24.3768C49.7378 23.9719 49.1408 23.7694 48.3518 23.7694C47.6606 23.7694 47.081 23.9439 46.6132 24.293C46.1454 24.6422 45.9115 25.0646 45.9115 25.5603H43.9635C43.9635 24.9948 44.1624 24.4501 44.5604 23.9265C44.9654 23.3958 45.51 22.9769 46.1943 22.6697C46.8855 22.3625 47.6431 22.2088 48.467 22.2088C49.7727 22.2088 50.7956 22.537 51.5357 23.1933C52.2758 23.8427 52.6598 24.7399 52.6878 25.885V31.1007C52.6878 32.1411 52.8204 32.9685 53.0858 33.5829V33.7505H51.0539ZM47.8386 32.2737C48.4461 32.2737 49.0221 32.1166 49.5667 31.8024C50.1113 31.4882 50.5058 31.0798 50.7502 30.5771V28.252H49.2316C46.8576 28.252 45.6706 28.9467 45.6706 30.3362C45.6706 30.9436 45.8731 31.4184 46.2781 31.7606C46.683 32.1027 47.2032 32.2737 47.8386 32.2737ZM57.8302 33.7505H55.8926V17.6634H57.8302V33.7505ZM64.973 28.0635H59.862V26.482H64.973V28.0635ZM77.7086 20.1561H72.8071V33.7505H70.8067V20.1561H65.9156V18.5013H77.7086V20.1561ZM81.7723 33.7505H79.8347V22.4183H81.7723V33.7505ZM79.6776 19.4125C79.6776 19.0983 79.7719 18.8329 79.9604 18.6165C80.1559 18.4 80.4422 18.2918 80.8192 18.2918C81.1962 18.2918 81.4825 18.4 81.678 18.6165C81.8735 18.8329 81.9713 19.0983 81.9713 19.4125C81.9713 19.7267 81.8735 19.9885 81.678 20.198C81.4825 20.4074 81.1962 20.5122 80.8192 20.5122C80.4422 20.5122 80.1559 20.4074 79.9604 20.198C79.7719 19.9885 79.6776 19.7267 79.6776 19.4125ZM86.7052 22.4183L86.7576 23.6751C87.5885 22.6976 88.7091 22.2088 90.1195 22.2088C91.7045 22.2088 92.7833 22.8163 93.3558 24.0312C93.7329 23.4866 94.2216 23.0467 94.8221 22.7116C95.4295 22.3764 96.1452 22.2088 96.9691 22.2088C99.4548 22.2088 100.719 23.525 100.76 26.1573V33.7505H98.8229V26.2725C98.8229 25.4626 98.6379 24.8586 98.2678 24.4606C97.8978 24.0556 97.2763 23.8532 96.4036 23.8532C95.6844 23.8532 95.0874 24.0696 94.6126 24.5025C94.1378 24.9284 93.862 25.5045 93.7852 26.2306V33.7505H91.8372V26.3249C91.8372 24.6771 91.0307 23.8532 89.4178 23.8532C88.1471 23.8532 87.2778 24.3943 86.81 25.4765V33.7505H84.8724V22.4183H86.7052ZM108.396 33.96C106.859 33.96 105.61 33.4572 104.646 32.4518C103.683 31.4394 103.201 30.0883 103.201 28.3986V28.0425C103.201 26.9184 103.414 25.9164 103.84 25.0367C104.273 24.1499 104.873 23.4587 105.641 22.9629C106.416 22.4602 107.254 22.2088 108.155 22.2088C109.628 22.2088 110.773 22.6941 111.59 23.6646C112.407 24.6352 112.815 26.0246 112.815 27.833V28.6395H105.138C105.166 29.7566 105.491 30.6608 106.112 31.3521C106.741 32.0363 107.537 32.3785 108.5 32.3785C109.185 32.3785 109.764 32.2388 110.239 31.9595C110.714 31.6803 111.129 31.3102 111.485 30.8494L112.669 31.771C111.719 33.2303 110.295 33.96 108.396 33.96ZM108.155 23.8008C107.373 23.8008 106.716 24.0871 106.186 24.6596C105.655 25.2252 105.327 26.0211 105.201 27.0475H110.878V26.9009C110.822 25.9164 110.557 25.1554 110.082 24.6177C109.607 24.0731 108.965 23.8008 108.155 23.8008ZM129.311 26.7019H122.702V32.1062H130.379V33.7505H120.691V18.5013H130.274V20.1561H122.702V25.0576H129.311V26.7019ZM136.045 31.1217L138.852 22.4183H140.832L136.768 33.7505H135.291L131.186 22.4183H133.165L136.045 31.1217ZM147.252 33.96C145.716 33.96 144.466 33.4572 143.502 32.4518C142.539 31.4394 142.057 30.0883 142.057 28.3986V28.0425C142.057 26.9184 142.27 25.9164 142.696 25.0367C143.129 24.1499 143.729 23.4587 144.497 22.9629C145.272 22.4602 146.11 22.2088 147.011 22.2088C148.484 22.2088 149.629 22.6941 150.446 23.6646C151.263 24.6352 151.671 26.0246 151.671 27.833V28.6395H143.995C144.022 29.7566 144.347 30.6608 144.969 31.3521C145.597 32.0363 146.393 32.3785 147.356 32.3785C148.041 32.3785 148.62 32.2388 149.095 31.9595C149.57 31.6803 149.985 31.3102 150.341 30.8494L151.525 31.771C150.575 33.2303 149.151 33.96 147.252 33.96ZM147.011 23.8008C146.229 23.8008 145.572 24.0871 145.042 24.6596C144.511 25.2252 144.183 26.0211 144.057 27.0475H149.734V26.9009C149.678 25.9164 149.413 25.1554 148.938 24.6177C148.463 24.0731 147.821 23.8008 147.011 23.8008ZM155.756 22.4183L155.819 23.8427C156.685 22.7535 157.816 22.2088 159.212 22.2088C161.607 22.2088 162.815 23.5599 162.836 26.262V33.7505H160.898V26.2516C160.892 25.4346 160.703 24.8307 160.333 24.4397C159.97 24.0487 159.401 23.8532 158.626 23.8532C157.997 23.8532 157.446 24.0207 156.971 24.3559C156.496 24.691 156.126 25.1309 155.861 25.6755V33.7505H153.923V22.4183H155.756ZM168.387 19.6743V22.4183H170.503V23.916H168.387V30.9436C168.387 31.3975 168.481 31.7396 168.67 31.97C168.858 32.1934 169.179 32.3052 169.633 32.3052C169.857 32.3052 170.164 32.2633 170.555 32.1795V33.7505C170.045 33.8901 169.549 33.96 169.068 33.96C168.202 33.96 167.549 33.6981 167.109 33.1745C166.669 32.6508 166.449 31.9072 166.449 30.9436V23.916H164.386V22.4183H166.449V19.6743H168.387ZM179.374 30.7446C179.374 30.221 179.175 29.816 178.777 29.5297C178.386 29.2365 177.698 28.9851 176.713 28.7756C175.736 28.5662 174.957 28.3148 174.378 28.0216C173.805 27.7283 173.379 27.3792 173.1 26.9742C172.828 26.5693 172.692 26.0875 172.692 25.5289C172.692 24.6003 173.083 23.8148 173.865 23.1724C174.654 22.53 175.659 22.2088 176.881 22.2088C178.166 22.2088 179.206 22.5405 180.002 23.2038C180.805 23.8671 181.206 24.7155 181.206 25.7488H179.258C179.258 25.2182 179.031 24.7609 178.578 24.3768C178.131 23.9928 177.565 23.8008 176.881 23.8008C176.176 23.8008 175.624 23.9544 175.226 24.2616C174.828 24.5688 174.629 24.9703 174.629 25.4661C174.629 25.9339 174.814 26.2865 175.184 26.5239C175.554 26.7613 176.221 26.9882 177.185 27.2046C178.155 27.4211 178.941 27.6794 179.541 27.9797C180.142 28.2799 180.585 28.643 180.871 29.0689C181.164 29.4878 181.311 30.001 181.311 30.6085C181.311 31.6209 180.906 32.4343 180.096 33.0488C179.286 33.6562 178.235 33.96 176.944 33.96C176.036 33.96 175.233 33.7994 174.535 33.4782C173.837 33.157 173.288 32.7101 172.89 32.1376C172.499 31.5581 172.304 30.9332 172.304 30.2629H174.242C174.276 30.9122 174.535 31.4289 175.017 31.8129C175.505 32.19 176.148 32.3785 176.944 32.3785C177.677 32.3785 178.263 32.2319 178.703 31.9386C179.15 31.6384 179.374 31.2404 179.374 30.7446Z" fill="#646464"/>
<path d="M182.19 22.9214V16.7004H184.425C185.225 16.7004 185.833 16.8471 186.249 17.1405C186.668 17.4339 186.877 17.8598 186.877 18.418C186.877 18.7399 186.803 19.0148 186.655 19.2427C186.507 19.4705 186.289 19.6386 186.001 19.7468C186.326 19.8323 186.575 19.9918 186.749 20.2254C186.923 20.4589 187.01 20.7438 187.01 21.0799C187.01 21.6894 186.816 22.148 186.429 22.4557C186.044 22.7605 185.473 22.9157 184.715 22.9214H182.19ZM183.69 20.2766V21.7678H184.673C184.943 21.7678 185.151 21.7065 185.296 21.5841C185.442 21.4587 185.514 21.2835 185.514 21.0585C185.514 20.5401 185.257 20.2795 184.741 20.2766H183.69ZM183.69 19.2939H184.472C184.799 19.2911 185.033 19.2313 185.172 19.1145C185.312 18.9977 185.382 18.8254 185.382 18.5975C185.382 18.3354 185.306 18.1474 185.155 18.0335C185.004 17.9167 184.761 17.8583 184.425 17.8583H183.69V19.2939ZM191.697 20.2852H189.338V21.7678H192.124V22.9214H187.839V16.7004H192.133V17.8583H189.338V19.17H191.697V20.2852ZM197.704 17.8583H195.837V22.9214H194.337V17.8583H192.504V16.7004H197.704V17.8583ZM201.361 21.7592H199.306L198.947 22.9214H197.345L199.627 16.7004H201.037L203.335 22.9214H201.725L201.361 21.7592ZM199.665 20.6014H201.003L200.332 18.4437L199.665 20.6014Z" fill="#F3652B"/>
<g filter="url(#filter0_d)">
<path fill-rule="evenodd" clip-rule="evenodd" d="M116 65H310V87H116V65Z" fill="white"/>
</g>
<g filter="url(#filter1_d)">
<path fill-rule="evenodd" clip-rule="evenodd" d="M116 88H310V237H116V88Z" fill="white"/>
</g>
<path d="M27.9087 102.642H23.6899V107H21.4927V96.3359H28.436V98.1157H23.6899V100.87H27.9087V102.642ZM31.8052 107H29.6812V99.0752H31.8052V107ZM29.5566 97.0244C29.5566 96.707 29.6616 96.4458 29.8716 96.2407C30.0864 96.0356 30.377 95.9331 30.7432 95.9331C31.1045 95.9331 31.3926 96.0356 31.6074 96.2407C31.8223 96.4458 31.9297 96.707 31.9297 97.0244C31.9297 97.3467 31.8198 97.6104 31.6001 97.8154C31.3853 98.0205 31.0996 98.123 30.7432 98.123C30.3867 98.123 30.0986 98.0205 29.8789 97.8154C29.6641 97.6104 29.5566 97.3467 29.5566 97.0244ZM35.7896 107H33.6655V95.75H35.7896V107ZM40.0742 97.127V99.0752H41.4292V100.628H40.0742V104.583C40.0742 104.876 40.1304 105.086 40.2427 105.213C40.355 105.34 40.5698 105.403 40.8872 105.403C41.1216 105.403 41.3291 105.386 41.5098 105.352V106.956C41.0947 107.083 40.6675 107.146 40.228 107.146C38.7437 107.146 37.9868 106.397 37.9575 104.898V100.628H36.8003V99.0752H37.9575V97.127H40.0742ZM46.2559 107.146C45.0938 107.146 44.1465 106.79 43.4141 106.077C42.6865 105.364 42.3228 104.415 42.3228 103.228V103.023C42.3228 102.227 42.4766 101.517 42.7842 100.892C43.0918 100.262 43.5264 99.7783 44.0879 99.4414C44.6543 99.0996 45.2988 98.9287 46.0215 98.9287C47.1055 98.9287 47.9575 99.2705 48.5776 99.9541C49.2026 100.638 49.5151 101.607 49.5151 102.862V103.726H44.4688C44.5371 104.244 44.7422 104.659 45.084 104.971C45.4307 105.284 45.8677 105.44 46.395 105.44C47.2104 105.44 47.8477 105.145 48.3066 104.554L49.3467 105.718C49.0293 106.167 48.5996 106.519 48.0576 106.773C47.5156 107.022 46.915 107.146 46.2559 107.146ZM46.0142 100.643C45.5942 100.643 45.2524 100.784 44.9888 101.067C44.73 101.351 44.564 101.756 44.4907 102.283H47.4351V102.115C47.4253 101.646 47.2983 101.285 47.0542 101.031C46.8101 100.772 46.4634 100.643 46.0142 100.643ZM55.1768 101.06C54.8887 101.021 54.6348 101.001 54.415 101.001C53.6143 101.001 53.0894 101.272 52.8403 101.814V107H50.7236V99.0752H52.7231L52.7817 100.02C53.2065 99.2925 53.7949 98.9287 54.5469 98.9287C54.7812 98.9287 55.001 98.9604 55.2061 99.0239L55.1768 101.06ZM67.0786 103.111C67.0786 104.38 66.8076 105.372 66.2656 106.084C65.7236 106.792 64.9668 107.146 63.9951 107.146C63.1357 107.146 62.4497 106.817 61.937 106.158L61.8418 107H59.9375V95.75H62.0542V99.7856C62.5425 99.2144 63.1846 98.9287 63.9805 98.9287C64.9473 98.9287 65.7041 99.2852 66.251 99.998C66.8027 100.706 67.0786 101.705 67.0786 102.994V103.111ZM64.9619 102.957C64.9619 102.156 64.835 101.573 64.5811 101.207C64.3271 100.835 63.9487 100.65 63.4458 100.65C62.772 100.65 62.3081 100.926 62.0542 101.478V104.605C62.313 105.162 62.7817 105.44 63.4604 105.44C64.144 105.44 64.5933 105.103 64.8081 104.429C64.9106 104.107 64.9619 103.616 64.9619 102.957ZM71.2607 104.004L72.7256 99.0752H74.9961L71.8101 108.23L71.6343 108.648C71.1606 109.683 70.3794 110.201 69.2905 110.201C68.9829 110.201 68.6704 110.154 68.353 110.062V108.458L68.6753 108.465C69.0757 108.465 69.3735 108.404 69.5688 108.282C69.769 108.16 69.9253 107.957 70.0376 107.674L70.2866 107.022L67.5107 99.0752H69.7886L71.2607 104.004ZM75.9336 105.96C75.9336 105.623 76.0459 105.35 76.2705 105.14C76.5 104.93 76.7856 104.825 77.1274 104.825C77.4741 104.825 77.7598 104.93 77.9844 105.14C78.2139 105.35 78.3286 105.623 78.3286 105.96C78.3286 106.292 78.2163 106.563 77.9917 106.773C77.7671 106.978 77.479 107.081 77.1274 107.081C76.7808 107.081 76.4951 106.978 76.2705 106.773C76.0459 106.563 75.9336 106.292 75.9336 105.96ZM75.9336 99.9614C75.9336 99.6245 76.0459 99.3511 76.2705 99.1411C76.5 98.9312 76.7856 98.8262 77.1274 98.8262C77.4741 98.8262 77.7598 98.9312 77.9844 99.1411C78.2139 99.3511 78.3286 99.6245 78.3286 99.9614C78.3286 100.293 78.2163 100.564 77.9917 100.774C77.7671 100.979 77.479 101.082 77.1274 101.082C76.7808 101.082 76.4951 100.979 76.2705 100.774C76.0459 100.564 75.9336 100.293 75.9336 99.9614Z" fill="#646464"/>
<path d="M21.4927 81V70.3359H24.7739C25.7114 70.3359 26.5488 70.5483 27.2861 70.9731C28.0283 71.3931 28.6069 71.9937 29.022 72.7749C29.437 73.5513 29.6445 74.4351 29.6445 75.4263V75.917C29.6445 76.9082 29.4395 77.7896 29.0293 78.561C28.624 79.3325 28.0503 79.9307 27.3081 80.3555C26.5659 80.7803 25.7285 80.9951 24.7959 81H21.4927ZM23.6899 72.1157V79.2349H24.752C25.6113 79.2349 26.2681 78.9541 26.7222 78.3926C27.1763 77.8311 27.4082 77.0278 27.418 75.9829V75.4189C27.418 74.335 27.1934 73.5146 26.7441 72.958C26.2949 72.3965 25.6382 72.1157 24.7739 72.1157H23.6899ZM35.7017 81C35.604 80.8096 35.5332 80.5728 35.4893 80.2896C34.9766 80.8608 34.3101 81.1465 33.4897 81.1465C32.7134 81.1465 32.0688 80.9219 31.5562 80.4727C31.0483 80.0234 30.7944 79.457 30.7944 78.7734C30.7944 77.9336 31.1045 77.2891 31.7246 76.8398C32.3496 76.3906 33.2505 76.1636 34.4272 76.1587H35.4014V75.7046C35.4014 75.3384 35.3062 75.0454 35.1157 74.8257C34.9302 74.606 34.6348 74.4961 34.2295 74.4961C33.873 74.4961 33.5923 74.5815 33.3872 74.7524C33.187 74.9233 33.0869 75.1577 33.0869 75.4556H30.9702C30.9702 74.9966 31.1118 74.5718 31.395 74.1812C31.6782 73.7905 32.0786 73.4854 32.5962 73.2656C33.1138 73.041 33.6948 72.9287 34.3394 72.9287C35.3159 72.9287 36.0898 73.1753 36.6611 73.6685C37.2373 74.1567 37.5254 74.8452 37.5254 75.7339V79.1689C37.5303 79.9209 37.6353 80.4897 37.8403 80.8755V81H35.7017ZM33.9512 79.5278C34.2637 79.5278 34.5518 79.4595 34.8154 79.3228C35.0791 79.1812 35.2744 78.9932 35.4014 78.7588V77.3965H34.6104C33.5508 77.3965 32.9868 77.7627 32.9185 78.4951L32.9111 78.6196C32.9111 78.8833 33.0039 79.1006 33.1895 79.2715C33.375 79.4424 33.6289 79.5278 33.9512 79.5278ZM41.6855 71.127V73.0752H43.0405V74.6279H41.6855V78.583C41.6855 78.876 41.7417 79.0859 41.854 79.2129C41.9663 79.3398 42.1812 79.4033 42.4985 79.4033C42.7329 79.4033 42.9404 79.3862 43.1211 79.3521V80.9561C42.7061 81.083 42.2788 81.1465 41.8394 81.1465C40.355 81.1465 39.5981 80.397 39.5688 78.8979V74.6279H38.4116V73.0752H39.5688V71.127H41.6855ZM48.812 81C48.7144 80.8096 48.6436 80.5728 48.5996 80.2896C48.0869 80.8608 47.4204 81.1465 46.6001 81.1465C45.8237 81.1465 45.1792 80.9219 44.6665 80.4727C44.1587 80.0234 43.9048 79.457 43.9048 78.7734C43.9048 77.9336 44.2148 77.2891 44.835 76.8398C45.46 76.3906 46.3608 76.1636 47.5376 76.1587H48.5117V75.7046C48.5117 75.3384 48.4165 75.0454 48.2261 74.8257C48.0405 74.606 47.7451 74.4961 47.3398 74.4961C46.9834 74.4961 46.7026 74.5815 46.4976 74.7524C46.2974 74.9233 46.1973 75.1577 46.1973 75.4556H44.0806C44.0806 74.9966 44.2222 74.5718 44.5054 74.1812C44.7886 73.7905 45.189 73.4854 45.7065 73.2656C46.2241 73.041 46.8052 72.9287 47.4497 72.9287C48.4263 72.9287 49.2002 73.1753 49.7715 73.6685C50.3477 74.1567 50.6357 74.8452 50.6357 75.7339V79.1689C50.6406 79.9209 50.7456 80.4897 50.9507 80.8755V81H48.812ZM47.0615 79.5278C47.374 79.5278 47.6621 79.4595 47.9258 79.3228C48.1895 79.1812 48.3848 78.9932 48.5117 78.7588V77.3965H47.7207C46.6611 77.3965 46.0972 77.7627 46.0288 78.4951L46.0215 78.6196C46.0215 78.8833 46.1143 79.1006 46.2998 79.2715C46.4854 79.4424 46.7393 79.5278 47.0615 79.5278ZM61.666 78.2021C61.666 77.7871 61.5195 77.4697 61.2266 77.25C60.9336 77.0254 60.4062 76.791 59.6445 76.5469C58.8828 76.2979 58.2798 76.0537 57.8354 75.8145C56.6245 75.1602 56.019 74.2788 56.019 73.1704C56.019 72.5942 56.1802 72.0815 56.5024 71.6323C56.8296 71.1782 57.2959 70.8242 57.9014 70.5703C58.5117 70.3164 59.1953 70.1895 59.9521 70.1895C60.7139 70.1895 61.3926 70.3286 61.9883 70.6069C62.584 70.8804 63.0454 71.2686 63.3726 71.7715C63.7046 72.2744 63.8706 72.8457 63.8706 73.4854H61.6733C61.6733 72.9971 61.5195 72.6187 61.2119 72.3501C60.9043 72.0767 60.4722 71.9399 59.9155 71.9399C59.3784 71.9399 58.9609 72.0547 58.6631 72.2842C58.3652 72.5088 58.2163 72.8066 58.2163 73.1777C58.2163 73.5244 58.3896 73.8149 58.7363 74.0493C59.0879 74.2837 59.603 74.5034 60.2817 74.7085C61.5317 75.0845 62.4424 75.5508 63.0137 76.1074C63.585 76.6641 63.8706 77.3574 63.8706 78.1875C63.8706 79.1104 63.5215 79.8354 62.8232 80.3628C62.125 80.8853 61.1851 81.1465 60.0034 81.1465C59.1831 81.1465 58.436 80.9976 57.7622 80.6997C57.0884 80.397 56.5732 79.9844 56.2168 79.4619C55.8652 78.9395 55.6895 78.334 55.6895 77.6455H57.894C57.894 78.8223 58.5972 79.4106 60.0034 79.4106C60.5259 79.4106 60.9336 79.3057 61.2266 79.0957C61.5195 78.8809 61.666 78.583 61.666 78.2021ZM64.896 76.9644C64.896 76.1782 65.0474 75.4775 65.3501 74.8623C65.6528 74.2471 66.0874 73.771 66.6538 73.4341C67.2251 73.0972 67.8867 72.9287 68.6387 72.9287C69.708 72.9287 70.5796 73.2559 71.2534 73.9102C71.9321 74.5645 72.3105 75.4531 72.3887 76.5762L72.4033 77.1182C72.4033 78.334 72.064 79.3105 71.3853 80.0479C70.7065 80.7803 69.7959 81.1465 68.6533 81.1465C67.5107 81.1465 66.5977 80.7803 65.9141 80.0479C65.2354 79.3154 64.896 78.3193 64.896 77.0596V76.9644ZM67.0127 77.1182C67.0127 77.8701 67.1543 78.4463 67.4375 78.8467C67.7207 79.2422 68.126 79.4399 68.6533 79.4399C69.166 79.4399 69.5664 79.2446 69.8545 78.854C70.1426 78.4585 70.2866 77.8286 70.2866 76.9644C70.2866 76.2271 70.1426 75.6558 69.8545 75.2505C69.5664 74.8452 69.1611 74.6426 68.6387 74.6426C68.1211 74.6426 67.7207 74.8452 67.4375 75.2505C67.1543 75.6509 67.0127 76.2734 67.0127 77.1182ZM78.4531 80.1943C77.9307 80.8291 77.208 81.1465 76.2852 81.1465C75.4355 81.1465 74.7861 80.9023 74.3369 80.4141C73.8926 79.9258 73.6655 79.2104 73.6558 78.2681V73.0752H75.7725V78.1948C75.7725 79.02 76.1484 79.4326 76.9004 79.4326C77.6182 79.4326 78.1113 79.1836 78.3799 78.6855V73.0752H80.5039V81H78.5117L78.4531 80.1943ZM86.5537 75.0601C86.2656 75.021 86.0117 75.0015 85.792 75.0015C84.9912 75.0015 84.4663 75.2725 84.2173 75.8145V81H82.1006V73.0752H84.1001L84.1587 74.02C84.5835 73.2925 85.1719 72.9287 85.9238 72.9287C86.1582 72.9287 86.3779 72.9604 86.583 73.0239L86.5537 75.0601ZM90.7285 79.4399C91.1191 79.4399 91.4365 79.3325 91.6807 79.1177C91.9248 78.9028 92.0518 78.6172 92.0615 78.2607H94.0464C94.0415 78.7979 93.895 79.291 93.6069 79.7402C93.3188 80.1846 92.9233 80.5312 92.4204 80.7803C91.9224 81.0244 91.3706 81.1465 90.7651 81.1465C89.6323 81.1465 88.7388 80.7876 88.0845 80.0698C87.4302 79.3472 87.103 78.3511 87.103 77.0815V76.9424C87.103 75.7217 87.4277 74.7476 88.0771 74.02C88.7266 73.2925 89.6177 72.9287 90.7505 72.9287C91.7417 72.9287 92.5352 73.2119 93.1309 73.7783C93.7314 74.3398 94.0366 75.0894 94.0464 76.0269H92.0615C92.0518 75.6167 91.9248 75.2847 91.6807 75.0308C91.4365 74.772 91.1143 74.6426 90.7139 74.6426C90.2207 74.6426 89.8472 74.8232 89.5933 75.1846C89.3442 75.541 89.2197 76.1221 89.2197 76.9277V77.1475C89.2197 77.9629 89.3442 78.5488 89.5933 78.9053C89.8423 79.2617 90.2207 79.4399 90.7285 79.4399ZM98.9023 81.1465C97.7402 81.1465 96.793 80.79 96.0605 80.0771C95.333 79.3643 94.9692 78.4146 94.9692 77.228V77.0229C94.9692 76.2271 95.123 75.5166 95.4307 74.8916C95.7383 74.2617 96.1729 73.7783 96.7344 73.4414C97.3008 73.0996 97.9453 72.9287 98.668 72.9287C99.752 72.9287 100.604 73.2705 101.224 73.9541C101.849 74.6377 102.162 75.6069 102.162 76.8618V77.7261H97.1152C97.1836 78.2437 97.3887 78.6587 97.7305 78.9712C98.0771 79.2837 98.5142 79.4399 99.0415 79.4399C99.8569 79.4399 100.494 79.1445 100.953 78.5537L101.993 79.7183C101.676 80.1675 101.246 80.519 100.704 80.7729C100.162 81.022 99.5615 81.1465 98.9023 81.1465ZM98.6606 74.6426C98.2407 74.6426 97.8989 74.7842 97.6353 75.0674C97.3765 75.3506 97.2104 75.7559 97.1372 76.2832H100.082V76.1147C100.072 75.646 99.9448 75.2847 99.7007 75.0308C99.4565 74.772 99.1099 74.6426 98.6606 74.6426ZM103.473 79.96C103.473 79.623 103.585 79.3496 103.81 79.1396C104.039 78.9297 104.325 78.8247 104.667 78.8247C105.013 78.8247 105.299 78.9297 105.523 79.1396C105.753 79.3496 105.868 79.623 105.868 79.96C105.868 80.292 105.755 80.563 105.531 80.7729C105.306 80.978 105.018 81.0806 104.667 81.0806C104.32 81.0806 104.034 80.978 103.81 80.7729C103.585 80.563 103.473 80.292 103.473 79.96ZM103.473 73.9614C103.473 73.6245 103.585 73.3511 103.81 73.1411C104.039 72.9312 104.325 72.8262 104.667 72.8262C105.013 72.8262 105.299 72.9312 105.523 73.1411C105.753 73.3511 105.868 73.6245 105.868 73.9614C105.868 74.2935 105.755 74.5645 105.531 74.7744C105.306 74.9795 105.018 75.082 104.667 75.082C104.32 75.082 104.034 74.9795 103.81 74.7744C103.585 74.5645 103.473 74.2935 103.473 73.9614Z" fill="#646464"/>
<path d="M127.812 76.0566H124.115V79.0801H128.41V80H122.99V71.4688H128.352V72.3945H124.115V75.1367H127.812V76.0566ZM129.26 76.7773C129.26 75.8047 129.49 75.0234 129.951 74.4336C130.412 73.8398 131.016 73.543 131.762 73.543C132.504 73.543 133.092 73.7969 133.525 74.3047V71H134.609V80H133.613L133.561 79.3203C133.127 79.8516 132.523 80.1172 131.75 80.1172C131.016 80.1172 130.416 79.8164 129.951 79.2148C129.49 78.6133 129.26 77.8281 129.26 76.8594V76.7773ZM130.344 76.9004C130.344 77.6191 130.492 78.1816 130.789 78.5879C131.086 78.9941 131.496 79.1973 132.02 79.1973C132.707 79.1973 133.209 78.8887 133.525 78.2715V75.3594C133.201 74.7617 132.703 74.4629 132.031 74.4629C131.5 74.4629 131.086 74.668 130.789 75.0781C130.492 75.4883 130.344 76.0957 130.344 76.9004ZM136.039 76.7773C136.039 75.7891 136.268 75.0039 136.725 74.4219C137.182 73.8359 137.787 73.543 138.541 73.543C139.314 73.543 139.918 73.8164 140.352 74.3633L140.404 73.6602H141.395V79.8477C141.395 80.668 141.15 81.3145 140.662 81.7871C140.178 82.2598 139.525 82.4961 138.705 82.4961C138.248 82.4961 137.801 82.3984 137.363 82.2031C136.926 82.0078 136.592 81.7402 136.361 81.4004L136.924 80.75C137.389 81.3242 137.957 81.6113 138.629 81.6113C139.156 81.6113 139.566 81.4629 139.859 81.166C140.156 80.8691 140.305 80.4512 140.305 79.9121V79.3672C139.871 79.8672 139.279 80.1172 138.529 80.1172C137.787 80.1172 137.186 79.8184 136.725 79.2207C136.268 78.623 136.039 77.8086 136.039 76.7773ZM137.129 76.9004C137.129 77.6152 137.275 78.1777 137.568 78.5879C137.861 78.9941 138.271 79.1973 138.799 79.1973C139.482 79.1973 139.984 78.8867 140.305 78.2656V75.3711C139.973 74.7656 139.475 74.4629 138.811 74.4629C138.283 74.4629 137.871 74.668 137.574 75.0781C137.277 75.4883 137.129 76.0957 137.129 76.9004ZM145.666 80.1172C144.807 80.1172 144.107 79.8359 143.568 79.2734C143.029 78.707 142.76 77.9512 142.76 77.0059V76.8066C142.76 76.1777 142.879 75.6172 143.117 75.125C143.359 74.6289 143.695 74.2422 144.125 73.9648C144.559 73.6836 145.027 73.543 145.531 73.543C146.355 73.543 146.996 73.8145 147.453 74.3574C147.91 74.9004 148.139 75.6777 148.139 76.6895V77.1406H143.844C143.859 77.7656 144.041 78.2715 144.389 78.6582C144.74 79.041 145.186 79.2324 145.725 79.2324C146.107 79.2324 146.432 79.1543 146.697 78.998C146.963 78.8418 147.195 78.6348 147.395 78.377L148.057 78.8926C147.525 79.709 146.729 80.1172 145.666 80.1172ZM145.531 74.4336C145.094 74.4336 144.727 74.5938 144.43 74.9141C144.133 75.2305 143.949 75.6758 143.879 76.25H147.055V76.168C147.023 75.6172 146.875 75.1914 146.609 74.8906C146.344 74.5859 145.984 74.4336 145.531 74.4336ZM157.256 77.7734H153.682L152.879 80H151.719L154.977 71.4688H155.961L159.225 80H158.07L157.256 77.7734ZM154.021 76.8477H156.922L155.469 72.8574L154.021 76.8477ZM165.559 76.9004C165.559 77.8652 165.338 78.6426 164.896 79.2324C164.455 79.8223 163.857 80.1172 163.104 80.1172C162.334 80.1172 161.729 79.873 161.287 79.3848V82.4375H160.203V73.6602H161.193L161.246 74.3633C161.688 73.8164 162.301 73.543 163.086 73.543C163.848 73.543 164.449 73.8301 164.891 74.4043C165.336 74.9785 165.559 75.7773 165.559 76.8008V76.9004ZM164.475 76.7773C164.475 76.0625 164.322 75.498 164.018 75.084C163.713 74.6699 163.295 74.4629 162.764 74.4629C162.107 74.4629 161.615 74.7539 161.287 75.3359V78.3652C161.611 78.9434 162.107 79.2324 162.775 79.2324C163.295 79.2324 163.707 79.0273 164.012 78.6172C164.32 78.2031 164.475 77.5898 164.475 76.7773ZM172.297 76.9004C172.297 77.8652 172.076 78.6426 171.635 79.2324C171.193 79.8223 170.596 80.1172 169.842 80.1172C169.072 80.1172 168.467 79.873 168.025 79.3848V82.4375H166.941V73.6602H167.932L167.984 74.3633C168.426 73.8164 169.039 73.543 169.824 73.543C170.586 73.543 171.188 73.8301 171.629 74.4043C172.074 74.9785 172.297 75.7773 172.297 76.8008V76.9004ZM171.213 76.7773C171.213 76.0625 171.061 75.498 170.756 75.084C170.451 74.6699 170.033 74.4629 169.502 74.4629C168.846 74.4629 168.354 74.7539 168.025 75.3359V78.3652C168.35 78.9434 168.846 79.2324 169.514 79.2324C170.033 79.2324 170.445 79.0273 170.75 78.6172C171.059 78.2031 171.213 77.5898 171.213 76.7773ZM174.857 80H173.773V71H174.857V80ZM177.775 80H176.691V73.6602H177.775V80ZM176.604 71.9785C176.604 71.8027 176.656 71.6543 176.762 71.5332C176.871 71.4121 177.031 71.3516 177.242 71.3516C177.453 71.3516 177.613 71.4121 177.723 71.5332C177.832 71.6543 177.887 71.8027 177.887 71.9785C177.887 72.1543 177.832 72.3008 177.723 72.418C177.613 72.5352 177.453 72.5938 177.242 72.5938C177.031 72.5938 176.871 72.5352 176.762 72.418C176.656 72.3008 176.604 72.1543 176.604 71.9785ZM182.059 79.2324C182.445 79.2324 182.783 79.1152 183.072 78.8809C183.361 78.6465 183.521 78.3535 183.553 78.002H184.578C184.559 78.3652 184.434 78.7109 184.203 79.0391C183.973 79.3672 183.664 79.6289 183.277 79.8242C182.895 80.0195 182.488 80.1172 182.059 80.1172C181.195 80.1172 180.508 79.8301 179.996 79.2559C179.488 78.6777 179.234 77.8887 179.234 76.8887V76.707C179.234 76.0898 179.348 75.541 179.574 75.0605C179.801 74.5801 180.125 74.207 180.547 73.9414C180.973 73.6758 181.475 73.543 182.053 73.543C182.764 73.543 183.354 73.7559 183.822 74.1816C184.295 74.6074 184.547 75.1602 184.578 75.8398H183.553C183.521 75.4297 183.365 75.0938 183.084 74.832C182.807 74.5664 182.463 74.4336 182.053 74.4336C181.502 74.4336 181.074 74.6328 180.77 75.0312C180.469 75.4258 180.318 75.998 180.318 76.748V76.9531C180.318 77.6836 180.469 78.2461 180.77 78.6406C181.07 79.0352 181.5 79.2324 182.059 79.2324ZM189.711 80C189.648 79.875 189.598 79.6523 189.559 79.332C189.055 79.8555 188.453 80.1172 187.754 80.1172C187.129 80.1172 186.615 79.9414 186.213 79.5898C185.814 79.2344 185.615 78.7852 185.615 78.2422C185.615 77.582 185.865 77.0703 186.365 76.707C186.869 76.3398 187.576 76.1562 188.486 76.1562H189.541V75.6582C189.541 75.2793 189.428 74.9785 189.201 74.7559C188.975 74.5293 188.641 74.416 188.199 74.416C187.812 74.416 187.488 74.5137 187.227 74.709C186.965 74.9043 186.834 75.1406 186.834 75.418H185.744C185.744 75.1016 185.855 74.7969 186.078 74.5039C186.305 74.207 186.609 73.9727 186.992 73.8008C187.379 73.6289 187.803 73.543 188.264 73.543C188.994 73.543 189.566 73.7266 189.98 74.0938C190.395 74.457 190.609 74.959 190.625 75.5996V78.5176C190.625 79.0996 190.699 79.5625 190.848 79.9062V80H189.711ZM187.912 79.1738C188.252 79.1738 188.574 79.0859 188.879 78.9102C189.184 78.7344 189.404 78.5059 189.541 78.2246V76.9238H188.691C187.363 76.9238 186.699 77.3125 186.699 78.0898C186.699 78.4297 186.812 78.6953 187.039 78.8867C187.266 79.0781 187.557 79.1738 187.912 79.1738ZM193.795 72.125V73.6602H194.979V74.498H193.795V78.4297C193.795 78.6836 193.848 78.875 193.953 79.0039C194.059 79.1289 194.238 79.1914 194.492 79.1914C194.617 79.1914 194.789 79.168 195.008 79.1211V80C194.723 80.0781 194.445 80.1172 194.176 80.1172C193.691 80.1172 193.326 79.9707 193.08 79.6777C192.834 79.3848 192.711 78.9688 192.711 78.4297V74.498H191.557V73.6602H192.711V72.125H193.795ZM197.428 80H196.344V73.6602H197.428V80ZM196.256 71.9785C196.256 71.8027 196.309 71.6543 196.414 71.5332C196.523 71.4121 196.684 71.3516 196.895 71.3516C197.105 71.3516 197.266 71.4121 197.375 71.5332C197.484 71.6543 197.539 71.8027 197.539 71.9785C197.539 72.1543 197.484 72.3008 197.375 72.418C197.266 72.5352 197.105 72.5938 196.895 72.5938C196.684 72.5938 196.523 72.5352 196.414 72.418C196.309 72.3008 196.256 72.1543 196.256 71.9785ZM198.881 76.7715C198.881 76.1504 199.002 75.5918 199.244 75.0957C199.49 74.5996 199.83 74.2168 200.264 73.9473C200.701 73.6777 201.199 73.543 201.758 73.543C202.621 73.543 203.318 73.8418 203.85 74.4395C204.385 75.0371 204.652 75.832 204.652 76.8242V76.9004C204.652 77.5176 204.533 78.0723 204.295 78.5645C204.061 79.0527 203.723 79.4336 203.281 79.707C202.844 79.9805 202.34 80.1172 201.77 80.1172C200.91 80.1172 200.213 79.8184 199.678 79.2207C199.146 78.623 198.881 77.832 198.881 76.8477V76.7715ZM199.971 76.9004C199.971 77.6035 200.133 78.168 200.457 78.5938C200.785 79.0195 201.223 79.2324 201.77 79.2324C202.32 79.2324 202.758 79.0176 203.082 78.5879C203.406 78.1543 203.568 77.5488 203.568 76.7715C203.568 76.0762 203.402 75.5137 203.07 75.084C202.742 74.6504 202.305 74.4336 201.758 74.4336C201.223 74.4336 200.791 74.6465 200.463 75.0723C200.135 75.498 199.971 76.1074 199.971 76.9004ZM207.037 73.6602L207.072 74.457C207.557 73.8477 208.189 73.543 208.971 73.543C210.311 73.543 210.986 74.2988 210.998 75.8105V80H209.914V75.8047C209.91 75.3477 209.805 75.0098 209.598 74.791C209.395 74.5723 209.076 74.4629 208.643 74.4629C208.291 74.4629 207.982 74.5566 207.717 74.7441C207.451 74.9316 207.244 75.1777 207.096 75.4824V80H206.012V73.6602H207.037ZM216.324 78.3184C216.324 78.0254 216.213 77.7988 215.99 77.6387C215.771 77.4746 215.387 77.334 214.836 77.2168C214.289 77.0996 213.854 76.959 213.529 76.7949C213.209 76.6309 212.971 76.4355 212.814 76.209C212.662 75.9824 212.586 75.7129 212.586 75.4004C212.586 74.8809 212.805 74.4414 213.242 74.082C213.684 73.7227 214.246 73.543 214.93 73.543C215.648 73.543 216.23 73.7285 216.676 74.0996C217.125 74.4707 217.35 74.9453 217.35 75.5234H216.26C216.26 75.2266 216.133 74.9707 215.879 74.7559C215.629 74.541 215.312 74.4336 214.93 74.4336C214.535 74.4336 214.227 74.5195 214.004 74.6914C213.781 74.8633 213.67 75.0879 213.67 75.3652C213.67 75.627 213.773 75.8242 213.98 75.957C214.188 76.0898 214.561 76.2168 215.1 76.3379C215.643 76.459 216.082 76.6035 216.418 76.7715C216.754 76.9395 217.002 77.1426 217.162 77.3809C217.326 77.6152 217.408 77.9023 217.408 78.2422C217.408 78.8086 217.182 79.2637 216.729 79.6074C216.275 79.9473 215.688 80.1172 214.965 80.1172C214.457 80.1172 214.008 80.0273 213.617 79.8477C213.227 79.668 212.92 79.418 212.697 79.0977C212.479 78.7734 212.369 78.4238 212.369 78.0488H213.453C213.473 78.4121 213.617 78.7012 213.887 78.916C214.16 79.127 214.52 79.2324 214.965 79.2324C215.375 79.2324 215.703 79.1504 215.949 78.9863C216.199 78.8184 216.324 78.5957 216.324 78.3184Z" fill="#AAAAAA"/>
<path d="M129.701 100.773H126.127L125.324 103H124.164L127.422 94.4688H128.406L131.67 103H130.516L129.701 100.773ZM126.467 99.8477H129.367L127.914 95.8574L126.467 99.8477ZM133.738 102.115H137.447V103H132.414V102.203L135.912 97.5566H132.467V96.6602H137.271V97.4277L133.738 102.115ZM139.85 103H138.766V96.6602H139.85V103ZM138.678 94.9785C138.678 94.8027 138.73 94.6543 138.836 94.5332C138.945 94.4121 139.105 94.3516 139.316 94.3516C139.527 94.3516 139.688 94.4121 139.797 94.5332C139.906 94.6543 139.961 94.8027 139.961 94.9785C139.961 95.1543 139.906 95.3008 139.797 95.418C139.688 95.5352 139.527 95.5938 139.316 95.5938C139.105 95.5938 138.945 95.5352 138.836 95.418C138.73 95.3008 138.678 95.1543 138.678 94.9785ZM141.303 99.7715C141.303 99.1504 141.424 98.5918 141.666 98.0957C141.912 97.5996 142.252 97.2168 142.686 96.9473C143.123 96.6777 143.621 96.543 144.18 96.543C145.043 96.543 145.74 96.8418 146.271 97.4395C146.807 98.0371 147.074 98.832 147.074 99.8242V99.9004C147.074 100.518 146.955 101.072 146.717 101.564C146.482 102.053 146.145 102.434 145.703 102.707C145.266 102.98 144.762 103.117 144.191 103.117C143.332 103.117 142.635 102.818 142.1 102.221C141.568 101.623 141.303 100.832 141.303 99.8477V99.7715ZM142.393 99.9004C142.393 100.604 142.555 101.168 142.879 101.594C143.207 102.02 143.645 102.232 144.191 102.232C144.742 102.232 145.18 102.018 145.504 101.588C145.828 101.154 145.99 100.549 145.99 99.7715C145.99 99.0762 145.824 98.5137 145.492 98.084C145.164 97.6504 144.727 97.4336 144.18 97.4336C143.645 97.4336 143.213 97.6465 142.885 98.0723C142.557 98.498 142.393 99.1074 142.393 99.9004ZM149.459 96.6602L149.494 97.457C149.979 96.8477 150.611 96.543 151.393 96.543C152.732 96.543 153.408 97.2988 153.42 98.8105V103H152.336V98.8047C152.332 98.3477 152.227 98.0098 152.02 97.791C151.816 97.5723 151.498 97.4629 151.064 97.4629C150.713 97.4629 150.404 97.5566 150.139 97.7441C149.873 97.9316 149.666 98.1777 149.518 98.4824V103H148.434V96.6602H149.459ZM158.201 103V94.4688H160.609C161.352 94.4688 162.008 94.6328 162.578 94.9609C163.148 95.2891 163.588 95.7559 163.896 96.3613C164.209 96.9668 164.367 97.6621 164.371 98.4473V98.9922C164.371 99.7969 164.215 100.502 163.902 101.107C163.594 101.713 163.15 102.178 162.572 102.502C161.998 102.826 161.328 102.992 160.562 103H158.201ZM159.326 95.3945V102.08H160.51C161.377 102.08 162.051 101.811 162.531 101.271C163.016 100.732 163.258 99.9648 163.258 98.9688V98.4707C163.258 97.502 163.029 96.75 162.572 96.2148C162.119 95.6758 161.475 95.4023 160.639 95.3945H159.326ZM169.82 103C169.758 102.875 169.707 102.652 169.668 102.332C169.164 102.855 168.562 103.117 167.863 103.117C167.238 103.117 166.725 102.941 166.322 102.59C165.924 102.234 165.725 101.785 165.725 101.242C165.725 100.582 165.975 100.07 166.475 99.707C166.979 99.3398 167.686 99.1562 168.596 99.1562H169.65V98.6582C169.65 98.2793 169.537 97.9785 169.311 97.7559C169.084 97.5293 168.75 97.416 168.309 97.416C167.922 97.416 167.598 97.5137 167.336 97.709C167.074 97.9043 166.943 98.1406 166.943 98.418H165.854C165.854 98.1016 165.965 97.7969 166.188 97.5039C166.414 97.207 166.719 96.9727 167.102 96.8008C167.488 96.6289 167.912 96.543 168.373 96.543C169.104 96.543 169.676 96.7266 170.09 97.0938C170.504 97.457 170.719 97.959 170.734 98.5996V101.518C170.734 102.1 170.809 102.562 170.957 102.906V103H169.82ZM168.021 102.174C168.361 102.174 168.684 102.086 168.988 101.91C169.293 101.734 169.514 101.506 169.65 101.225V99.9238H168.801C167.473 99.9238 166.809 100.312 166.809 101.09C166.809 101.43 166.922 101.695 167.148 101.887C167.375 102.078 167.666 102.174 168.021 102.174ZM173.904 95.125V96.6602H175.088V97.498H173.904V101.43C173.904 101.684 173.957 101.875 174.062 102.004C174.168 102.129 174.348 102.191 174.602 102.191C174.727 102.191 174.898 102.168 175.117 102.121V103C174.832 103.078 174.555 103.117 174.285 103.117C173.801 103.117 173.436 102.971 173.189 102.678C172.943 102.385 172.82 101.969 172.82 101.43V97.498H171.666V96.6602H172.82V95.125H173.904ZM180.273 103C180.211 102.875 180.16 102.652 180.121 102.332C179.617 102.855 179.016 103.117 178.316 103.117C177.691 103.117 177.178 102.941 176.775 102.59C176.377 102.234 176.178 101.785 176.178 101.242C176.178 100.582 176.428 100.07 176.928 99.707C177.432 99.3398 178.139 99.1562 179.049 99.1562H180.104V98.6582C180.104 98.2793 179.99 97.9785 179.764 97.7559C179.537 97.5293 179.203 97.416 178.762 97.416C178.375 97.416 178.051 97.5137 177.789 97.709C177.527 97.9043 177.396 98.1406 177.396 98.418H176.307C176.307 98.1016 176.418 97.7969 176.641 97.5039C176.867 97.207 177.172 96.9727 177.555 96.8008C177.941 96.6289 178.365 96.543 178.826 96.543C179.557 96.543 180.129 96.7266 180.543 97.0938C180.957 97.457 181.172 97.959 181.188 98.5996V101.518C181.188 102.1 181.262 102.562 181.41 102.906V103H180.273ZM178.475 102.174C178.814 102.174 179.137 102.086 179.441 101.91C179.746 101.734 179.967 101.506 180.104 101.225V99.9238H179.254C177.926 99.9238 177.262 100.312 177.262 101.09C177.262 101.43 177.375 101.695 177.602 101.887C177.828 102.078 178.119 102.174 178.475 102.174ZM188.547 99.1973C187.582 98.9199 186.879 98.5801 186.438 98.1777C186 97.7715 185.781 97.2715 185.781 96.6777C185.781 96.0059 186.049 95.4512 186.584 95.0137C187.123 94.5723 187.822 94.3516 188.682 94.3516C189.268 94.3516 189.789 94.4648 190.246 94.6914C190.707 94.918 191.062 95.2305 191.312 95.6289C191.566 96.0273 191.693 96.4629 191.693 96.9355H190.562C190.562 96.4199 190.398 96.0156 190.07 95.7227C189.742 95.4258 189.279 95.2773 188.682 95.2773C188.127 95.2773 187.693 95.4004 187.381 95.6465C187.072 95.8887 186.918 96.2266 186.918 96.6602C186.918 97.0078 187.064 97.3027 187.357 97.5449C187.654 97.7832 188.156 98.002 188.863 98.2012C189.574 98.4004 190.129 98.6211 190.527 98.8633C190.93 99.1016 191.227 99.3809 191.418 99.7012C191.613 100.021 191.711 100.398 191.711 100.832C191.711 101.523 191.441 102.078 190.902 102.496C190.363 102.91 189.643 103.117 188.74 103.117C188.154 103.117 187.607 103.006 187.1 102.783C186.592 102.557 186.199 102.248 185.922 101.857C185.648 101.467 185.512 101.023 185.512 100.527H186.643C186.643 101.043 186.832 101.451 187.211 101.752C187.594 102.049 188.104 102.197 188.74 102.197C189.334 102.197 189.789 102.076 190.105 101.834C190.422 101.592 190.58 101.262 190.58 100.844C190.58 100.426 190.434 100.104 190.141 99.877C189.848 99.6465 189.316 99.4199 188.547 99.1973ZM192.701 99.7715C192.701 99.1504 192.822 98.5918 193.064 98.0957C193.311 97.5996 193.65 97.2168 194.084 96.9473C194.521 96.6777 195.02 96.543 195.578 96.543C196.441 96.543 197.139 96.8418 197.67 97.4395C198.205 98.0371 198.473 98.832 198.473 99.8242V99.9004C198.473 100.518 198.354 101.072 198.115 101.564C197.881 102.053 197.543 102.434 197.102 102.707C196.664 102.98 196.16 103.117 195.59 103.117C194.73 103.117 194.033 102.818 193.498 102.221C192.967 101.623 192.701 100.832 192.701 99.8477V99.7715ZM193.791 99.9004C193.791 100.604 193.953 101.168 194.277 101.594C194.605 102.02 195.043 102.232 195.59 102.232C196.141 102.232 196.578 102.018 196.902 101.588C197.227 101.154 197.389 100.549 197.389 99.7715C197.389 99.0762 197.223 98.5137 196.891 98.084C196.562 97.6504 196.125 97.4336 195.578 97.4336C195.043 97.4336 194.611 97.6465 194.283 98.0723C193.955 98.498 193.791 99.1074 193.791 99.9004ZM203.746 102.373C203.324 102.869 202.705 103.117 201.889 103.117C201.213 103.117 200.697 102.922 200.342 102.531C199.99 102.137 199.812 101.555 199.809 100.785V96.6602H200.893V100.756C200.893 101.717 201.283 102.197 202.064 102.197C202.893 102.197 203.443 101.889 203.717 101.271V96.6602H204.801V103H203.77L203.746 102.373ZM209.518 97.6328C209.354 97.6055 209.176 97.5918 208.984 97.5918C208.273 97.5918 207.791 97.8945 207.537 98.5V103H206.453V96.6602H207.508L207.525 97.3926C207.881 96.8262 208.385 96.543 209.037 96.543C209.248 96.543 209.408 96.5703 209.518 96.625V97.6328ZM212.945 102.232C213.332 102.232 213.67 102.115 213.959 101.881C214.248 101.646 214.408 101.354 214.439 101.002H215.465C215.445 101.365 215.32 101.711 215.09 102.039C214.859 102.367 214.551 102.629 214.164 102.824C213.781 103.02 213.375 103.117 212.945 103.117C212.082 103.117 211.395 102.83 210.883 102.256C210.375 101.678 210.121 100.889 210.121 99.8887V99.707C210.121 99.0898 210.234 98.541 210.461 98.0605C210.688 97.5801 211.012 97.207 211.434 96.9414C211.859 96.6758 212.361 96.543 212.939 96.543C213.65 96.543 214.24 96.7559 214.709 97.1816C215.182 97.6074 215.434 98.1602 215.465 98.8398H214.439C214.408 98.4297 214.252 98.0938 213.971 97.832C213.693 97.5664 213.35 97.4336 212.939 97.4336C212.389 97.4336 211.961 97.6328 211.656 98.0312C211.355 98.4258 211.205 98.998 211.205 99.748V99.9531C211.205 100.684 211.355 101.246 211.656 101.641C211.957 102.035 212.387 102.232 212.945 102.232ZM219.314 103.117C218.455 103.117 217.756 102.836 217.217 102.273C216.678 101.707 216.408 100.951 216.408 100.006V99.8066C216.408 99.1777 216.527 98.6172 216.766 98.125C217.008 97.6289 217.344 97.2422 217.773 96.9648C218.207 96.6836 218.676 96.543 219.18 96.543C220.004 96.543 220.645 96.8145 221.102 97.3574C221.559 97.9004 221.787 98.6777 221.787 99.6895V100.141H217.492C217.508 100.766 217.689 101.271 218.037 101.658C218.389 102.041 218.834 102.232 219.373 102.232C219.756 102.232 220.08 102.154 220.346 101.998C220.611 101.842 220.844 101.635 221.043 101.377L221.705 101.893C221.174 102.709 220.377 103.117 219.314 103.117ZM219.18 97.4336C218.742 97.4336 218.375 97.5938 218.078 97.9141C217.781 98.2305 217.598 98.6758 217.527 99.25H220.703V99.168C220.672 98.6172 220.523 98.1914 220.258 97.8906C219.992 97.5859 219.633 97.4336 219.18 97.4336ZM226.738 101.318C226.738 101.025 226.627 100.799 226.404 100.639C226.186 100.475 225.801 100.334 225.25 100.217C224.703 100.1 224.268 99.959 223.943 99.7949C223.623 99.6309 223.385 99.4355 223.229 99.209C223.076 98.9824 223 98.7129 223 98.4004C223 97.8809 223.219 97.4414 223.656 97.082C224.098 96.7227 224.66 96.543 225.344 96.543C226.062 96.543 226.645 96.7285 227.09 97.0996C227.539 97.4707 227.764 97.9453 227.764 98.5234H226.674C226.674 98.2266 226.547 97.9707 226.293 97.7559C226.043 97.541 225.727 97.4336 225.344 97.4336C224.949 97.4336 224.641 97.5195 224.418 97.6914C224.195 97.8633 224.084 98.0879 224.084 98.3652C224.084 98.627 224.188 98.8242 224.395 98.957C224.602 99.0898 224.975 99.2168 225.514 99.3379C226.057 99.459 226.496 99.6035 226.832 99.7715C227.168 99.9395 227.416 100.143 227.576 100.381C227.74 100.615 227.822 100.902 227.822 101.242C227.822 101.809 227.596 102.264 227.143 102.607C226.689 102.947 226.102 103.117 225.379 103.117C224.871 103.117 224.422 103.027 224.031 102.848C223.641 102.668 223.334 102.418 223.111 102.098C222.893 101.773 222.783 101.424 222.783 101.049H223.867C223.887 101.412 224.031 101.701 224.301 101.916C224.574 102.127 224.934 102.232 225.379 102.232C225.789 102.232 226.117 102.15 226.363 101.986C226.613 101.818 226.738 101.596 226.738 101.318Z" fill="#AAAAAA"/>
<path d="M139.242 118.385H135.955L135.472 121.157H139.296L139.146 122H134.317L135.676 114.18H140.451L140.3 115.028H136.535L136.1 117.542H139.387L139.242 118.385ZM140.461 119.083C140.533 118.493 140.696 117.959 140.95 117.483C141.204 117.007 141.518 116.65 141.89 116.414C142.263 116.178 142.673 116.065 143.12 116.076C143.768 116.09 144.266 116.326 144.613 116.785L145.172 113.75H146.144L144.715 122H143.829L143.931 121.377C143.473 121.878 142.907 122.122 142.234 122.107C141.697 122.093 141.269 121.884 140.95 121.479C140.632 121.071 140.46 120.525 140.435 119.841C140.424 119.63 140.433 119.377 140.461 119.083ZM141.396 119.642C141.385 120.154 141.477 120.552 141.67 120.834C141.863 121.117 142.146 121.262 142.519 121.27C143.081 121.295 143.58 121.012 144.017 120.421L144.479 117.735C144.264 117.205 143.874 116.933 143.308 116.919C142.925 116.908 142.587 117.025 142.293 117.268C142.003 117.508 141.781 117.846 141.627 118.283C141.477 118.716 141.4 119.169 141.396 119.642ZM146.536 119.083C146.622 118.45 146.792 117.9 147.046 117.435C147.304 116.965 147.616 116.62 147.981 116.398C148.35 116.172 148.753 116.065 149.189 116.076C149.863 116.09 150.371 116.344 150.715 116.838L150.908 116.188H151.8L150.833 121.876C150.729 122.618 150.428 123.21 149.931 123.654C149.433 124.102 148.819 124.315 148.088 124.293C147.694 124.286 147.317 124.193 146.955 124.014C146.597 123.835 146.314 123.59 146.106 123.278L146.66 122.682C147.011 123.201 147.474 123.468 148.051 123.482C148.513 123.497 148.903 123.368 149.222 123.096C149.544 122.824 149.757 122.437 149.861 121.936L149.968 121.42C149.496 121.893 148.942 122.122 148.309 122.107C147.947 122.097 147.632 122 147.363 121.817C147.098 121.631 146.892 121.364 146.746 121.017C146.599 120.666 146.518 120.276 146.504 119.846C146.497 119.635 146.507 119.381 146.536 119.083ZM147.476 119.637C147.465 120.149 147.553 120.546 147.739 120.829C147.929 121.108 148.214 121.255 148.593 121.27C149.173 121.284 149.673 120.999 150.092 120.416L150.548 117.746C150.333 117.216 149.945 116.94 149.383 116.919C148.856 116.905 148.423 117.119 148.083 117.563C147.746 118.007 147.548 118.607 147.487 119.363L147.476 119.637ZM154.813 122.107C154.09 122.093 153.524 121.826 153.116 121.307C152.708 120.788 152.536 120.124 152.6 119.314L152.627 119.083C152.688 118.507 152.858 117.981 153.137 117.504C153.42 117.028 153.764 116.67 154.168 116.43C154.573 116.187 155.01 116.07 155.479 116.081C156.077 116.095 156.546 116.294 156.886 116.677C157.226 117.06 157.413 117.58 157.445 118.235C157.456 118.468 157.448 118.7 157.423 118.933L157.364 119.379H153.567C153.502 119.905 153.588 120.353 153.825 120.722C154.065 121.09 154.421 121.282 154.894 121.296C155.466 121.311 155.996 121.053 156.483 120.523L157.042 120.996C156.799 121.347 156.483 121.622 156.097 121.823C155.714 122.02 155.286 122.115 154.813 122.107ZM155.431 116.892C155.03 116.881 154.679 117.017 154.378 117.3C154.081 117.583 153.844 118.004 153.669 118.562L156.494 118.568L156.516 118.482C156.573 118.031 156.5 117.657 156.295 117.359C156.095 117.059 155.807 116.903 155.431 116.892ZM165.416 119.959H162.247L161.178 122H160.098L164.347 114.18H165.233L166.78 122H165.786L165.416 119.959ZM162.692 119.11H165.265L164.615 115.463L162.692 119.11ZM172.978 119.121C172.906 119.712 172.747 120.244 172.5 120.716C172.253 121.189 171.947 121.543 171.582 121.78C171.216 122.013 170.812 122.124 170.368 122.113C169.694 122.098 169.179 121.871 168.821 121.431L168.3 124.234H167.328L168.724 116.188L169.605 116.183L169.498 116.833C169.977 116.317 170.552 116.067 171.222 116.081C171.78 116.095 172.215 116.301 172.527 116.699C172.838 117.096 173.003 117.644 173.021 118.342C173.025 118.571 173.016 118.793 172.994 119.008L172.978 119.121ZM172.022 119.008L172.049 118.557C172.049 118.034 171.949 117.635 171.748 117.359C171.551 117.08 171.265 116.933 170.889 116.919C170.326 116.905 169.841 117.171 169.433 117.719L168.944 120.507C169.163 121.022 169.555 121.287 170.121 121.302C170.604 121.312 171.014 121.125 171.351 120.738C171.691 120.347 171.915 119.771 172.022 119.008ZM179.026 119.121C178.954 119.712 178.795 120.244 178.548 120.716C178.301 121.189 177.995 121.543 177.629 121.78C177.264 122.013 176.86 122.124 176.416 122.113C175.742 122.098 175.227 121.871 174.869 121.431L174.348 124.234H173.375L174.772 116.188L175.653 116.183L175.545 116.833C176.025 116.317 176.6 116.067 177.27 116.081C177.828 116.095 178.263 116.301 178.575 116.699C178.886 117.096 179.051 117.644 179.069 118.342C179.072 118.571 179.063 118.793 179.042 119.008L179.026 119.121ZM178.07 119.008L178.097 118.557C178.097 118.034 177.996 117.635 177.796 117.359C177.599 117.08 177.312 116.933 176.937 116.919C176.374 116.905 175.889 117.171 175.481 117.719L174.992 120.507C175.211 121.022 175.603 121.287 176.168 121.302C176.652 121.312 177.062 121.125 177.398 120.738C177.739 120.347 177.962 119.771 178.07 119.008ZM180.863 122H179.896L181.325 113.75H182.297L180.863 122ZM183.505 122H182.539L183.548 116.188H184.515L183.505 122ZM184.306 114.067C184.47 114.06 184.606 114.11 184.714 114.217C184.825 114.321 184.88 114.459 184.88 114.631C184.877 114.799 184.821 114.937 184.714 115.044C184.61 115.152 184.474 115.209 184.306 115.216C184.137 115.223 184 115.175 183.892 115.071C183.785 114.967 183.733 114.831 183.736 114.663C183.74 114.495 183.794 114.355 183.897 114.244C184.001 114.133 184.137 114.074 184.306 114.067ZM187.55 121.302C187.897 121.309 188.21 121.209 188.49 121.001C188.769 120.79 188.952 120.514 189.038 120.174L189.956 120.168C189.902 120.534 189.756 120.867 189.516 121.167C189.279 121.468 188.98 121.703 188.619 121.871C188.257 122.039 187.886 122.118 187.507 122.107C187.023 122.1 186.613 121.975 186.277 121.731C185.944 121.484 185.699 121.142 185.541 120.706C185.383 120.265 185.33 119.771 185.38 119.223L185.407 118.955C185.475 118.396 185.638 117.896 185.896 117.456C186.153 117.016 186.49 116.674 186.905 116.43C187.321 116.183 187.779 116.067 188.28 116.081C188.889 116.095 189.376 116.299 189.741 116.693C190.106 117.087 190.289 117.587 190.289 118.192L189.381 118.187C189.374 117.807 189.269 117.501 189.064 117.268C188.86 117.032 188.585 116.906 188.237 116.892C187.732 116.881 187.312 117.069 186.975 117.456C186.642 117.843 186.434 118.383 186.352 119.078L186.336 119.218C186.314 119.447 186.311 119.683 186.325 119.927C186.35 120.346 186.468 120.677 186.68 120.92C186.891 121.164 187.181 121.291 187.55 121.302ZM194.291 122C194.265 121.896 194.253 121.794 194.253 121.694L194.269 121.388C193.736 121.882 193.17 122.122 192.572 122.107C192.06 122.1 191.643 121.939 191.32 121.624C191.002 121.305 190.857 120.908 190.885 120.432C190.921 119.816 191.19 119.336 191.691 118.992C192.196 118.645 192.858 118.471 193.678 118.471L194.693 118.477L194.758 118.015C194.794 117.667 194.726 117.393 194.554 117.193C194.385 116.989 194.131 116.883 193.791 116.876C193.458 116.869 193.163 116.951 192.905 117.123C192.651 117.291 192.495 117.515 192.438 117.794L191.46 117.8C191.492 117.46 191.625 117.159 191.857 116.897C192.09 116.632 192.389 116.428 192.754 116.285C193.12 116.138 193.497 116.069 193.888 116.076C194.493 116.09 194.964 116.274 195.3 116.629C195.637 116.98 195.778 117.447 195.725 118.031L195.252 120.91L195.225 121.323C195.218 121.52 195.239 121.715 195.29 121.909L195.279 122H194.291ZM192.765 121.248C193.077 121.255 193.37 121.182 193.646 121.028C193.925 120.87 194.165 120.654 194.366 120.378L194.575 119.18L193.839 119.175C193.227 119.175 192.758 119.271 192.432 119.465C192.106 119.658 191.922 119.932 191.879 120.287C191.847 120.559 191.909 120.786 192.067 120.969C192.228 121.148 192.461 121.241 192.765 121.248ZM199.167 114.781L198.92 116.188H199.979L199.844 116.957H198.792L198.185 120.571C198.174 120.664 198.172 120.75 198.179 120.829C198.204 121.108 198.356 121.248 198.636 121.248C198.754 121.248 198.911 121.23 199.108 121.194L199.033 122.005C198.8 122.07 198.564 122.102 198.324 122.102C197.938 122.095 197.647 121.953 197.454 121.678C197.261 121.398 197.186 121.024 197.229 120.555L197.819 116.957H196.793L196.928 116.188H197.954L198.201 114.781H199.167ZM201.198 122H200.231L201.241 116.188H202.208L201.198 122ZM201.998 114.067C202.163 114.06 202.299 114.11 202.406 114.217C202.517 114.321 202.573 114.459 202.573 114.631C202.569 114.799 202.514 114.937 202.406 115.044C202.302 115.152 202.166 115.209 201.998 115.216C201.83 115.223 201.692 115.175 201.584 115.071C201.477 114.967 201.425 114.831 201.429 114.663C201.432 114.495 201.486 114.355 201.59 114.244C201.694 114.133 201.83 114.074 201.998 114.067ZM206.016 116.081C206.503 116.088 206.92 116.221 207.267 116.479C207.614 116.736 207.87 117.093 208.035 117.547C208.203 117.999 208.261 118.493 208.207 119.03L208.196 119.148C208.128 119.714 207.96 120.226 207.691 120.684C207.423 121.139 207.076 121.493 206.649 121.748C206.223 122.002 205.756 122.122 205.248 122.107C204.764 122.1 204.347 121.968 203.996 121.71C203.649 121.452 203.395 121.101 203.233 120.657C203.072 120.213 203.015 119.724 203.062 119.191C203.115 118.589 203.278 118.049 203.55 117.569C203.822 117.089 204.172 116.718 204.598 116.457C205.027 116.192 205.5 116.067 206.016 116.081ZM204.039 119.196C204.014 119.422 204.014 119.656 204.039 119.9C204.075 120.322 204.2 120.659 204.415 120.91C204.633 121.16 204.924 121.291 205.285 121.302C205.607 121.312 205.905 121.234 206.177 121.065C206.449 120.894 206.678 120.636 206.864 120.292C207.05 119.948 207.17 119.567 207.224 119.148C207.253 118.819 207.258 118.541 207.24 118.315C207.197 117.882 207.067 117.54 206.848 117.29C206.63 117.039 206.34 116.906 205.978 116.892C205.477 116.881 205.051 117.078 204.7 117.483C204.349 117.888 204.132 118.417 204.05 119.073L204.039 119.196ZM210.86 116.183L210.721 116.919C211.243 116.346 211.838 116.067 212.504 116.081C213.052 116.095 213.456 116.285 213.718 116.65C213.979 117.016 214.076 117.529 214.008 118.192L213.374 122H212.402L213.041 118.176C213.062 118 213.064 117.837 213.046 117.687C212.986 117.186 212.69 116.93 212.16 116.919C211.576 116.908 211.064 117.22 210.624 117.854L209.904 122H208.932L209.942 116.188L210.86 116.183ZM218.471 120.426C218.525 120.025 218.305 119.742 217.811 119.578L216.801 119.282C215.949 118.989 215.537 118.502 215.565 117.821C215.59 117.309 215.823 116.89 216.264 116.564C216.708 116.235 217.229 116.074 217.827 116.081C218.414 116.088 218.89 116.26 219.255 116.597C219.624 116.93 219.801 117.365 219.787 117.902L218.82 117.896C218.827 117.606 218.736 117.37 218.546 117.188C218.357 117.005 218.104 116.91 217.789 116.903C217.452 116.896 217.162 116.978 216.919 117.15C216.693 117.311 216.563 117.522 216.527 117.784C216.48 118.12 216.686 118.366 217.145 118.52L217.633 118.654C218.299 118.826 218.772 119.049 219.051 119.325C219.331 119.601 219.459 119.943 219.438 120.351C219.417 120.713 219.298 121.028 219.083 121.296C218.869 121.565 218.582 121.771 218.224 121.914C217.866 122.054 217.485 122.118 217.08 122.107C216.464 122.1 215.956 121.921 215.555 121.57C215.154 121.216 214.96 120.761 214.975 120.206L215.947 120.211C215.947 120.537 216.051 120.799 216.258 120.996C216.466 121.193 216.751 121.291 217.112 121.291C217.467 121.298 217.773 121.225 218.031 121.071C218.289 120.913 218.435 120.698 218.471 120.426Z" fill="#AAAAAA"/>
<path d="M136.396 143.588L136.374 144.534L136.739 143.61L139.076 138.18H139.93L140.547 143.68L140.601 144.571L140.939 143.492L142.938 138.18H143.974L140.913 146H139.994L139.317 140.258L139.296 139.721L139.07 140.344L136.578 146H135.66L135.047 138.18H136.03L136.396 143.588ZM148.164 143.959H144.995L143.926 146H142.846L147.095 138.18H147.981L149.528 146H148.534L148.164 143.959ZM145.44 143.11H148.013L147.363 139.463L145.44 143.11ZM155.404 142.546H152.224L151.623 146H150.613L151.972 138.18H156.677L156.526 139.028H152.831L152.369 141.703H155.554L155.404 142.546ZM164.186 142.385H160.898L160.415 145.157H164.239L164.089 146H159.26L160.619 138.18H165.394L165.244 139.028H161.479L161.043 141.542H164.331L164.186 142.385ZM167.204 144.641L169.299 140.188H170.325L167.397 146H166.656L165.518 140.188H166.474L167.204 144.641ZM172.752 146.107C172.029 146.093 171.463 145.826 171.055 145.307C170.647 144.788 170.475 144.124 170.54 143.314L170.566 143.083C170.627 142.507 170.797 141.981 171.077 141.504C171.36 141.028 171.703 140.67 172.108 140.43C172.513 140.187 172.949 140.07 173.418 140.081C174.016 140.095 174.486 140.294 174.826 140.677C175.166 141.06 175.352 141.58 175.384 142.235C175.395 142.468 175.388 142.7 175.363 142.933L175.304 143.379H171.506C171.442 143.905 171.528 144.353 171.764 144.722C172.004 145.09 172.36 145.282 172.833 145.296C173.406 145.311 173.936 145.053 174.423 144.523L174.981 144.996C174.738 145.347 174.423 145.622 174.036 145.823C173.653 146.02 173.225 146.115 172.752 146.107ZM173.37 140.892C172.969 140.881 172.618 141.017 172.317 141.3C172.02 141.583 171.784 142.004 171.608 142.562L174.434 142.568L174.455 142.482C174.512 142.031 174.439 141.657 174.235 141.359C174.034 141.059 173.746 140.903 173.37 140.892ZM177.871 140.183L177.731 140.919C178.254 140.346 178.849 140.067 179.515 140.081C180.062 140.095 180.467 140.285 180.729 140.65C180.99 141.016 181.087 141.529 181.019 142.192L180.385 146H179.413L180.052 142.176C180.073 142 180.075 141.837 180.057 141.687C179.996 141.186 179.701 140.93 179.171 140.919C178.587 140.908 178.075 141.22 177.635 141.854L176.915 146H175.943L176.953 140.188L177.871 140.183ZM184.451 138.781L184.204 140.188H185.262L185.127 140.957H184.075L183.468 144.571C183.457 144.664 183.455 144.75 183.462 144.829C183.487 145.108 183.64 145.248 183.919 145.248C184.037 145.248 184.195 145.23 184.392 145.194L184.316 146.005C184.084 146.07 183.847 146.102 183.607 146.102C183.221 146.095 182.931 145.953 182.737 145.678C182.544 145.398 182.469 145.024 182.512 144.555L183.103 140.957H182.077L182.211 140.188H183.237L183.484 138.781H184.451ZM189.027 144.426C189.081 144.025 188.86 143.742 188.366 143.578L187.356 143.282C186.504 142.989 186.092 142.502 186.121 141.821C186.146 141.309 186.379 140.89 186.819 140.564C187.263 140.235 187.784 140.074 188.382 140.081C188.97 140.088 189.446 140.26 189.811 140.597C190.18 140.93 190.357 141.365 190.343 141.902L189.376 141.896C189.383 141.606 189.292 141.37 189.102 141.188C188.912 141.005 188.66 140.91 188.345 140.903C188.008 140.896 187.718 140.978 187.475 141.15C187.249 141.311 187.118 141.522 187.083 141.784C187.036 142.12 187.242 142.366 187.7 142.52L188.189 142.654C188.855 142.826 189.328 143.049 189.607 143.325C189.886 143.601 190.015 143.943 189.994 144.351C189.972 144.713 189.854 145.028 189.639 145.296C189.424 145.565 189.138 145.771 188.78 145.914C188.422 146.054 188.04 146.118 187.636 146.107C187.02 146.1 186.511 145.921 186.11 145.57C185.709 145.216 185.516 144.761 185.53 144.206L186.502 144.211C186.502 144.537 186.606 144.799 186.814 144.996C187.022 145.193 187.306 145.291 187.668 145.291C188.022 145.298 188.329 145.225 188.586 145.071C188.844 144.913 188.991 144.698 189.027 144.426Z" fill="#AAAAAA"/>
<path d="M134.317 167L135.676 159.18L137.706 159.185C138.343 159.185 138.891 159.344 139.35 159.663C139.812 159.982 140.143 160.422 140.343 160.984C140.544 161.543 140.603 162.17 140.521 162.864L140.467 163.256C140.309 164.395 139.867 165.305 139.14 165.985C138.413 166.662 137.5 167 136.401 167H134.317ZM136.535 160.028L135.472 166.157L136.465 166.162C137.224 166.162 137.867 165.926 138.394 165.453C138.924 164.98 139.267 164.332 139.425 163.509C139.55 162.85 139.593 162.29 139.554 161.828C139.5 161.273 139.316 160.839 139 160.528C138.685 160.213 138.263 160.048 137.733 160.034L136.535 160.028ZM144.78 167C144.755 166.896 144.742 166.794 144.742 166.694L144.758 166.388C144.225 166.882 143.659 167.122 143.061 167.107C142.549 167.1 142.132 166.939 141.81 166.624C141.491 166.305 141.346 165.908 141.375 165.432C141.41 164.816 141.679 164.336 142.18 163.992C142.685 163.645 143.347 163.471 144.167 163.471L145.183 163.477L145.247 163.015C145.283 162.667 145.215 162.393 145.043 162.193C144.875 161.989 144.62 161.883 144.28 161.876C143.947 161.869 143.652 161.951 143.394 162.123C143.14 162.291 142.984 162.515 142.927 162.794L141.949 162.8C141.981 162.46 142.114 162.159 142.347 161.897C142.579 161.632 142.878 161.428 143.244 161.285C143.609 161.138 143.987 161.069 144.377 161.076C144.982 161.09 145.453 161.274 145.79 161.629C146.126 161.98 146.268 162.447 146.214 163.031L145.741 165.91L145.714 166.323C145.707 166.52 145.729 166.715 145.779 166.909L145.768 167H144.78ZM143.254 166.248C143.566 166.255 143.86 166.182 144.135 166.028C144.415 165.87 144.654 165.654 144.855 165.378L145.064 164.18L144.329 164.175C143.716 164.175 143.247 164.271 142.921 164.465C142.596 164.658 142.411 164.932 142.368 165.287C142.336 165.559 142.399 165.786 142.556 165.969C142.717 166.148 142.95 166.241 143.254 166.248ZM149.657 159.781L149.41 161.188H150.468L150.333 161.957H149.281L148.674 165.571C148.663 165.664 148.661 165.75 148.668 165.829C148.694 166.108 148.846 166.248 149.125 166.248C149.243 166.248 149.401 166.23 149.598 166.194L149.522 167.005C149.29 167.07 149.053 167.102 148.813 167.102C148.427 167.095 148.137 166.953 147.943 166.678C147.75 166.398 147.675 166.024 147.718 165.555L148.309 161.957H147.283L147.417 161.188H148.443L148.69 159.781H149.657ZM154.19 167C154.165 166.896 154.152 166.794 154.152 166.694L154.168 166.388C153.635 166.882 153.069 167.122 152.471 167.107C151.959 167.1 151.542 166.939 151.22 166.624C150.901 166.305 150.756 165.908 150.785 165.432C150.82 164.816 151.089 164.336 151.59 163.992C152.095 163.645 152.758 163.471 153.578 163.471L154.593 163.477L154.657 163.015C154.693 162.667 154.625 162.393 154.453 162.193C154.285 161.989 154.031 161.883 153.69 161.876C153.357 161.869 153.062 161.951 152.804 162.123C152.55 162.291 152.394 162.515 152.337 162.794L151.359 162.8C151.392 162.46 151.524 162.159 151.757 161.897C151.99 161.632 152.289 161.428 152.654 161.285C153.019 161.138 153.397 161.069 153.787 161.076C154.392 161.09 154.863 161.274 155.2 161.629C155.536 161.98 155.678 162.447 155.624 163.031L155.151 165.91L155.125 166.323C155.117 166.52 155.139 166.715 155.189 166.909L155.178 167H154.19ZM152.665 166.248C152.976 166.255 153.27 166.182 153.545 166.028C153.825 165.87 154.065 165.654 154.265 165.378L154.475 164.18L153.739 164.175C153.126 164.175 152.657 164.271 152.332 164.465C152.006 164.658 151.821 164.932 151.778 165.287C151.746 165.559 151.809 165.786 151.966 165.969C152.127 166.148 152.36 166.241 152.665 166.248ZM163.74 164.986C163.819 164.413 163.521 163.994 162.848 163.729L161.919 163.391L161.607 163.256C160.562 162.78 160.073 162.111 160.141 161.248C160.177 160.814 160.326 160.431 160.587 160.098C160.848 159.765 161.194 159.509 161.624 159.33C162.057 159.147 162.517 159.062 163.004 159.072C163.477 159.083 163.897 159.189 164.266 159.389C164.639 159.59 164.921 159.871 165.115 160.232C165.308 160.59 165.394 160.995 165.373 161.446L164.357 161.441C164.393 160.961 164.286 160.59 164.035 160.329C163.785 160.064 163.426 159.928 162.961 159.921C162.47 159.914 162.06 160.028 161.731 160.265C161.402 160.501 161.212 160.823 161.162 161.231C161.09 161.765 161.418 162.17 162.145 162.445L162.945 162.73L163.348 162.902C164.357 163.367 164.825 164.058 164.75 164.975C164.71 165.416 164.562 165.797 164.304 166.119C164.046 166.438 163.695 166.685 163.251 166.86C162.811 167.036 162.336 167.118 161.828 167.107C161.337 167.104 160.888 167 160.479 166.796C160.075 166.588 159.767 166.305 159.556 165.947C159.344 165.589 159.251 165.183 159.276 164.728L160.286 164.733C160.254 165.199 160.379 165.569 160.662 165.845C160.949 166.117 161.351 166.257 161.871 166.264C162.39 166.271 162.818 166.159 163.154 165.926C163.491 165.693 163.686 165.38 163.74 164.986ZM168.155 159.781L167.908 161.188H168.966L168.832 161.957H167.779L167.172 165.571C167.161 165.664 167.159 165.75 167.167 165.829C167.192 166.108 167.344 166.248 167.623 166.248C167.741 166.248 167.899 166.23 168.096 166.194L168.021 167.005C167.788 167.07 167.551 167.102 167.312 167.102C166.925 167.095 166.635 166.953 166.441 166.678C166.248 166.398 166.173 166.024 166.216 165.555L166.807 161.957H165.781L165.915 161.188H166.941L167.188 159.781H168.155ZM172.747 162.075L172.291 162.026C171.667 162.026 171.177 162.307 170.819 162.87L170.104 167H169.132L170.142 161.188L171.082 161.183L170.937 161.86C171.349 161.319 171.834 161.056 172.393 161.07C172.511 161.07 172.665 161.097 172.854 161.151L172.747 162.075ZM175.202 167.107C174.478 167.093 173.913 166.826 173.504 166.307C173.096 165.788 172.924 165.124 172.989 164.314L173.016 164.083C173.076 163.507 173.247 162.981 173.526 162.504C173.809 162.028 174.153 161.67 174.557 161.43C174.962 161.187 175.399 161.07 175.868 161.081C176.466 161.095 176.935 161.294 177.275 161.677C177.615 162.06 177.801 162.58 177.833 163.235C177.844 163.468 177.837 163.7 177.812 163.933L177.753 164.379H173.956C173.891 164.905 173.977 165.353 174.213 165.722C174.453 166.09 174.81 166.282 175.282 166.296C175.855 166.311 176.385 166.053 176.872 165.523L177.431 165.996C177.187 166.347 176.872 166.622 176.485 166.823C176.102 167.02 175.674 167.115 175.202 167.107ZM175.819 161.892C175.418 161.881 175.067 162.017 174.767 162.3C174.469 162.583 174.233 163.004 174.058 163.562L176.883 163.568L176.904 163.482C176.962 163.031 176.888 162.657 176.684 162.359C176.484 162.059 176.195 161.903 175.819 161.892ZM181.948 167C181.923 166.896 181.91 166.794 181.91 166.694L181.926 166.388C181.393 166.882 180.827 167.122 180.229 167.107C179.717 167.1 179.3 166.939 178.978 166.624C178.659 166.305 178.514 165.908 178.542 165.432C178.578 164.816 178.847 164.336 179.348 163.992C179.853 163.645 180.515 163.471 181.335 163.471L182.351 163.477L182.415 163.015C182.451 162.667 182.383 162.393 182.211 162.193C182.043 161.989 181.788 161.883 181.448 161.876C181.115 161.869 180.82 161.951 180.562 162.123C180.308 162.291 180.152 162.515 180.095 162.794L179.117 162.8C179.149 162.46 179.282 162.159 179.515 161.897C179.747 161.632 180.046 161.428 180.412 161.285C180.777 161.138 181.155 161.069 181.545 161.076C182.15 161.09 182.621 161.274 182.958 161.629C183.294 161.98 183.436 162.447 183.382 163.031L182.909 165.91L182.882 166.323C182.875 166.52 182.897 166.715 182.947 166.909L182.936 167H181.948ZM180.422 166.248C180.734 166.255 181.028 166.182 181.303 166.028C181.583 165.87 181.822 165.654 182.023 165.378L182.232 164.18L181.497 164.175C180.884 164.175 180.415 164.271 180.089 164.465C179.764 164.658 179.579 164.932 179.536 165.287C179.504 165.559 179.567 165.786 179.724 165.969C179.885 166.148 180.118 166.241 180.422 166.248ZM186.175 161.183L186.051 161.833C186.538 161.317 187.127 161.067 187.818 161.081C188.187 161.088 188.499 161.172 188.753 161.333C189.011 161.495 189.188 161.722 189.285 162.016C189.829 161.378 190.472 161.067 191.213 161.081C191.793 161.095 192.221 161.291 192.497 161.667C192.772 162.042 192.874 162.547 192.803 163.181L192.164 167H191.197L191.831 163.17C191.852 162.984 191.852 162.814 191.831 162.66C191.763 162.173 191.444 161.924 190.875 161.914C190.52 161.906 190.198 162.017 189.908 162.247C189.621 162.472 189.437 162.769 189.354 163.138L188.694 167H187.716L188.361 163.176C188.407 162.778 188.347 162.472 188.178 162.257C188.014 162.042 187.756 161.931 187.405 161.924C186.8 161.91 186.318 162.186 185.96 162.751L185.224 167H184.252L185.262 161.188L186.175 161.183ZM194.72 167H193.753L194.763 161.188H195.73L194.72 167ZM195.521 159.067C195.685 159.06 195.821 159.11 195.929 159.217C196.04 159.321 196.095 159.459 196.095 159.631C196.092 159.799 196.036 159.937 195.929 160.044C195.825 160.152 195.689 160.209 195.521 160.216C195.352 160.223 195.214 160.175 195.107 160.071C195 159.967 194.948 159.831 194.951 159.663C194.955 159.495 195.008 159.355 195.112 159.244C195.216 159.133 195.352 159.074 195.521 159.067ZM198.238 161.183L198.099 161.919C198.621 161.346 199.216 161.067 199.882 161.081C200.43 161.095 200.834 161.285 201.096 161.65C201.357 162.016 201.454 162.529 201.386 163.192L200.752 167H199.78L200.419 163.176C200.44 163 200.442 162.837 200.424 162.687C200.363 162.186 200.068 161.93 199.538 161.919C198.954 161.908 198.442 162.22 198.002 162.854L197.282 167H196.31L197.32 161.188L198.238 161.183ZM202.535 164.083C202.621 163.45 202.791 162.9 203.045 162.435C203.303 161.965 203.615 161.62 203.98 161.398C204.349 161.172 204.752 161.065 205.188 161.076C205.862 161.09 206.37 161.344 206.714 161.838L206.907 161.188H207.799L206.832 166.876C206.728 167.618 206.427 168.21 205.93 168.654C205.432 169.102 204.818 169.315 204.087 169.293C203.694 169.286 203.316 169.193 202.954 169.014C202.596 168.835 202.313 168.59 202.105 168.278L202.659 167.682C203.01 168.201 203.473 168.468 204.05 168.482C204.512 168.497 204.902 168.368 205.221 168.096C205.543 167.824 205.756 167.437 205.86 166.936L205.967 166.42C205.495 166.893 204.941 167.122 204.308 167.107C203.946 167.097 203.631 167 203.362 166.817C203.097 166.631 202.891 166.364 202.745 166.017C202.598 165.666 202.517 165.276 202.503 164.846C202.496 164.635 202.507 164.381 202.535 164.083ZM203.475 164.637C203.464 165.149 203.552 165.546 203.738 165.829C203.928 166.108 204.213 166.255 204.592 166.27C205.172 166.284 205.672 165.999 206.091 165.416L206.547 162.746C206.333 162.216 205.944 161.94 205.382 161.919C204.855 161.905 204.422 162.119 204.082 162.563C203.745 163.007 203.547 163.607 203.486 164.363L203.475 164.637Z" fill="#AAAAAA"/>
<path d="M139.242 188.385H135.955L135.472 191.157H139.296L139.146 192H134.317L135.676 184.18H140.451L140.3 185.028H136.535L136.1 187.542H139.387L139.242 188.385ZM140.461 189.083C140.533 188.493 140.696 187.959 140.95 187.483C141.204 187.007 141.518 186.65 141.89 186.414C142.263 186.178 142.673 186.065 143.12 186.076C143.768 186.09 144.266 186.326 144.613 186.785L145.172 183.75H146.144L144.715 192H143.829L143.931 191.377C143.473 191.878 142.907 192.122 142.234 192.107C141.697 192.093 141.269 191.884 140.95 191.479C140.632 191.071 140.46 190.525 140.435 189.841C140.424 189.63 140.433 189.377 140.461 189.083ZM141.396 189.642C141.385 190.154 141.477 190.552 141.67 190.834C141.863 191.117 142.146 191.262 142.519 191.27C143.081 191.295 143.58 191.012 144.017 190.421L144.479 187.735C144.264 187.205 143.874 186.933 143.308 186.919C142.925 186.908 142.587 187.025 142.293 187.268C142.003 187.508 141.781 187.846 141.627 188.283C141.477 188.716 141.4 189.169 141.396 189.642ZM146.536 189.083C146.622 188.45 146.792 187.9 147.046 187.435C147.304 186.965 147.616 186.62 147.981 186.398C148.35 186.172 148.753 186.065 149.189 186.076C149.863 186.09 150.371 186.344 150.715 186.838L150.908 186.188H151.8L150.833 191.876C150.729 192.618 150.428 193.21 149.931 193.654C149.433 194.102 148.819 194.315 148.088 194.293C147.694 194.286 147.317 194.193 146.955 194.014C146.597 193.835 146.314 193.59 146.106 193.278L146.66 192.682C147.011 193.201 147.474 193.468 148.051 193.482C148.513 193.497 148.903 193.368 149.222 193.096C149.544 192.824 149.757 192.437 149.861 191.936L149.968 191.42C149.496 191.893 148.942 192.122 148.309 192.107C147.947 192.097 147.632 192 147.363 191.817C147.098 191.631 146.892 191.364 146.746 191.017C146.599 190.666 146.518 190.276 146.504 189.846C146.497 189.635 146.507 189.381 146.536 189.083ZM147.476 189.637C147.465 190.149 147.553 190.546 147.739 190.829C147.929 191.108 148.214 191.255 148.593 191.27C149.173 191.284 149.673 190.999 150.092 190.416L150.548 187.746C150.333 187.216 149.945 186.94 149.383 186.919C148.856 186.905 148.423 187.119 148.083 187.563C147.746 188.007 147.548 188.607 147.487 189.363L147.476 189.637ZM154.813 192.107C154.09 192.093 153.524 191.826 153.116 191.307C152.708 190.788 152.536 190.124 152.6 189.314L152.627 189.083C152.688 188.507 152.858 187.981 153.137 187.504C153.42 187.028 153.764 186.67 154.168 186.43C154.573 186.187 155.01 186.07 155.479 186.081C156.077 186.095 156.546 186.294 156.886 186.677C157.226 187.06 157.413 187.58 157.445 188.235C157.456 188.468 157.448 188.7 157.423 188.933L157.364 189.379H153.567C153.502 189.905 153.588 190.353 153.825 190.722C154.065 191.09 154.421 191.282 154.894 191.296C155.466 191.311 155.996 191.053 156.483 190.523L157.042 190.996C156.799 191.347 156.483 191.622 156.097 191.823C155.714 192.02 155.286 192.115 154.813 192.107ZM155.431 186.892C155.03 186.881 154.679 187.017 154.378 187.3C154.081 187.583 153.844 188.004 153.669 188.562L156.494 188.568L156.516 188.482C156.573 188.031 156.5 187.657 156.295 187.359C156.095 187.059 155.807 186.903 155.431 186.892ZM162.392 188.938L161.86 192H160.85L162.209 184.18L164.819 184.185C165.625 184.185 166.246 184.4 166.683 184.83C167.12 185.256 167.308 185.823 167.247 186.532C167.183 187.281 166.884 187.87 166.35 188.299C165.82 188.729 165.12 188.944 164.25 188.944L162.392 188.938ZM162.537 188.095L164.277 188.101C164.825 188.101 165.274 187.963 165.625 187.687C165.976 187.411 166.182 187.028 166.243 186.538C166.3 186.097 166.209 185.741 165.969 185.469C165.729 185.193 165.38 185.048 164.921 185.034L163.068 185.028L162.537 188.095ZM171.179 191.425C170.724 191.894 170.146 192.122 169.444 192.107C168.889 192.093 168.477 191.894 168.208 191.511C167.944 191.128 167.845 190.605 167.913 189.943L168.536 186.188H169.508L168.88 189.959C168.862 190.117 168.858 190.271 168.869 190.421C168.887 190.679 168.964 190.881 169.1 191.028C169.236 191.175 169.426 191.253 169.669 191.264C170.364 191.286 170.901 191.005 171.281 190.421L172.011 186.188H172.983L171.974 192H171.055L171.179 191.425ZM174.482 192H173.515L174.944 183.75H175.916L174.482 192ZM179.67 190.426C179.724 190.025 179.504 189.742 179.01 189.578L178 189.282C177.148 188.989 176.736 188.502 176.765 187.821C176.79 187.309 177.022 186.89 177.463 186.564C177.907 186.235 178.428 186.074 179.026 186.081C179.613 186.088 180.089 186.26 180.455 186.597C180.823 186.93 181.001 187.365 180.986 187.902L180.02 187.896C180.027 187.606 179.935 187.37 179.746 187.188C179.556 187.005 179.303 186.91 178.988 186.903C178.652 186.896 178.362 186.978 178.118 187.15C177.893 187.311 177.762 187.522 177.726 187.784C177.68 188.12 177.885 188.366 178.344 188.52L178.833 188.654C179.499 188.826 179.971 189.049 180.25 189.325C180.53 189.601 180.659 189.943 180.637 190.351C180.616 190.713 180.498 191.028 180.283 191.296C180.068 191.565 179.781 191.771 179.423 191.914C179.065 192.054 178.684 192.118 178.279 192.107C177.663 192.1 177.155 191.921 176.754 191.57C176.353 191.216 176.16 190.761 176.174 190.206L177.146 190.211C177.146 190.537 177.25 190.799 177.458 190.996C177.665 191.193 177.95 191.291 178.312 191.291C178.666 191.298 178.972 191.225 179.23 191.071C179.488 190.913 179.635 190.698 179.67 190.426ZM184.139 192.107C183.416 192.093 182.85 191.826 182.442 191.307C182.034 190.788 181.862 190.124 181.926 189.314L181.953 189.083C182.014 188.507 182.184 187.981 182.463 187.504C182.746 187.028 183.09 186.67 183.495 186.43C183.899 186.187 184.336 186.07 184.805 186.081C185.403 186.095 185.872 186.294 186.212 186.677C186.553 187.06 186.739 187.58 186.771 188.235C186.782 188.468 186.775 188.7 186.75 188.933L186.69 189.379H182.893C182.829 189.905 182.915 190.353 183.151 190.722C183.391 191.09 183.747 191.282 184.22 191.296C184.793 191.311 185.323 191.053 185.81 190.523L186.368 190.996C186.125 191.347 185.81 191.622 185.423 191.823C185.04 192.02 184.612 192.115 184.139 192.107ZM184.757 186.892C184.356 186.881 184.005 187.017 183.704 187.3C183.407 187.583 183.171 188.004 182.995 188.562L185.82 188.568L185.842 188.482C185.899 188.031 185.826 187.657 185.622 187.359C185.421 187.059 185.133 186.903 184.757 186.892Z" fill="#AAAAAA"/>
<path fill-rule="evenodd" clip-rule="evenodd" d="M87.0405 98C84.5565 98 82.5405 100.016 82.5405 102.5C82.5405 104.984 84.5565 107 87.0405 107C89.5245 107 91.5405 104.984 91.5405 102.5C91.5405 100.016 89.5245 98 87.0405 98ZM87.4905 104.75H86.5905V102.05H87.4905V104.75ZM86.5905 101.15H87.4905V100.25H86.5905V101.15Z" fill="#C8C8C8"/>
<defs>
<filter id="filter0_d" x="109.757" y="58.7568" width="206.487" height="34.4865" filterUnits="userSpaceOnUse" color-interpolation-filters="sRGB">
<feFlood flood-opacity="0" result="BackgroundImageFix"/>
<feColorMatrix in="SourceAlpha" type="matrix" values="0 0 0 0 0 0 0 0 0 0 0 0 0 0 0 0 0 0 127 0" result="hardAlpha"/>
<feOffset/>
<feGaussianBlur stdDeviation="3.12162"/>
<feColorMatrix type="matrix" values="0 0 0 0 0.117647 0 0 0 0 0.117647 0 0 0 0 0.117647 0 0 0 0.1 0"/>
<feBlend mode="normal" in2="BackgroundImageFix" result="effect1_dropShadow"/>
<feBlend mode="normal" in="SourceGraphic" in2="effect1_dropShadow" result="shape"/>
</filter>
<filter id="filter1_d" x="109.757" y="81.7568" width="206.486" height="161.486" filterUnits="userSpaceOnUse" color-interpolation-filters="sRGB">
<feFlood flood-opacity="0" result="BackgroundImageFix"/>
<feColorMatrix in="SourceAlpha" type="matrix" values="0 0 0 0 0 0 0 0 0 0 0 0 0 0 0 0 0 0 127 0" result="hardAlpha"/>
<feOffset/>
<feGaussianBlur stdDeviation="3.12162"/>
<feColorMatrix type="matrix" values="0 0 0 0 0.117647 0 0 0 0 0.117647 0 0 0 0 0.117647 0 0 0 0.1 0"/>
<feBlend mode="normal" in2="BackgroundImageFix" result="effect1_dropShadow"/>
<feBlend mode="normal" in="SourceGraphic" in2="effect1_dropShadow" result="shape"/>
</filter>
</defs>
</svg>
