<svg  viewBox="0 0 539 366" fill="none" xmlns="http://www.w3.org/2000/svg">
<path d="M534.413 0H4C1.79086 0 0 1.79086 0 4V362C0 364.209 1.79086 366 4 366H534.413C536.622 366 538.413 364.209 538.413 362V4C538.413 1.79086 536.622 0 534.413 0Z" fill="white"/>
<path d="M39.852 53.2313H36.996V61H35.074V53.2313H32.256V51.6749H39.852V53.2313ZM39.212 57.4711C39.212 56.7837 39.344 56.171 39.609 55.633C39.873 55.095 40.253 54.6787 40.749 54.3841C41.248 54.0895 41.827 53.9422 42.484 53.9422C43.419 53.9422 44.181 54.2282 44.771 54.8004C45.364 55.3725 45.695 56.1496 45.763 57.1316L45.776 57.6056C45.776 58.6687 45.479 59.5227 44.886 60.1674C44.293 60.8079 43.496 61.1281 42.497 61.1281C41.498 61.1281 40.7 60.8079 40.102 60.1674C39.508 59.5269 39.212 58.6559 39.212 57.5543V57.4711ZM41.062 57.6056C41.062 58.2631 41.186 58.7669 41.434 59.1171C41.682 59.4629 42.036 59.6358 42.497 59.6358C42.945 59.6358 43.296 59.465 43.547 59.1235C43.799 58.7776 43.925 58.2268 43.925 57.4711C43.925 56.8264 43.799 56.3268 43.547 55.9724C43.296 55.618 42.941 55.4408 42.484 55.4408C42.032 55.4408 41.682 55.618 41.434 55.9724C41.186 56.3225 41.062 56.8669 41.062 57.6056ZM49.132 52.3666V54.0703H50.317V55.428H49.132V58.8865C49.132 59.1427 49.181 59.3263 49.28 59.4373C49.378 59.5483 49.566 59.6038 49.843 59.6038C50.048 59.6038 50.23 59.5889 50.388 59.559V60.9616C50.025 61.0726 49.651 61.1281 49.267 61.1281C47.969 61.1281 47.307 60.4727 47.281 59.1619V55.428H46.269V54.0703H47.281V52.3666H49.132ZM55.364 61C55.278 60.8335 55.217 60.6264 55.178 60.3788C54.73 60.8783 54.147 61.1281 53.43 61.1281C52.751 61.1281 52.187 60.9317 51.739 60.5389C51.295 60.1461 51.073 59.6508 51.073 59.053C51.073 58.3186 51.344 57.755 51.886 57.3622C52.433 56.9694 53.22 56.7708 54.249 56.7666H55.101V56.3695C55.101 56.0493 55.018 55.7931 54.852 55.6009C54.689 55.4088 54.431 55.3127 54.077 55.3127C53.765 55.3127 53.519 55.3875 53.34 55.5369C53.165 55.6863 53.077 55.8913 53.077 56.1517H51.227C51.227 55.7504 51.35 55.3789 51.598 55.0373C51.846 54.6958 52.196 54.4289 52.648 54.2368C53.101 54.0404 53.609 53.9422 54.173 53.9422C55.027 53.9422 55.703 54.1578 56.203 54.589C56.707 55.016 56.959 55.618 56.959 56.3951V59.3989C56.963 60.0564 57.055 60.5538 57.234 60.8911V61H55.364ZM53.833 59.7127C54.106 59.7127 54.358 59.6529 54.589 59.5334C54.819 59.4095 54.99 59.2451 55.101 59.0402V57.849H54.41C53.483 57.849 52.99 58.1692 52.93 58.8096L52.924 58.9185C52.924 59.1491 53.005 59.3391 53.167 59.4885C53.329 59.638 53.551 59.7127 53.833 59.7127ZM60.334 61H58.476V51.1626H60.334V61ZM68.705 57.5864H67.174V61H65.253V51.6749H68.717C69.819 51.6749 70.669 51.9205 71.266 52.4115C71.864 52.9025 72.163 53.5963 72.163 54.493C72.163 55.1291 72.024 55.6607 71.747 56.0877C71.474 56.5104 71.057 56.8477 70.498 57.0996L72.515 60.9103V61H70.453L68.705 57.5864ZM67.174 56.0301H68.724C69.206 56.0301 69.58 55.9084 69.845 55.665C70.109 55.4173 70.242 55.0779 70.242 54.6467C70.242 54.2069 70.116 53.861 69.864 53.6091C69.616 53.3572 69.234 53.2313 68.717 53.2313H67.174V56.0301ZM76.698 61.1281C75.681 61.1281 74.853 60.8164 74.213 60.193C73.576 59.5696 73.258 58.7392 73.258 57.7016V57.5223C73.258 56.8264 73.393 56.2051 73.662 55.6586C73.931 55.1078 74.311 54.6851 74.802 54.3905C75.297 54.0916 75.861 53.9422 76.493 53.9422C77.44 53.9422 78.186 54.241 78.728 54.8388C79.274 55.4366 79.548 56.2841 79.548 57.3814V58.1372H75.135C75.195 58.5897 75.374 58.9527 75.673 59.2259C75.976 59.4992 76.358 59.6358 76.819 59.6358C77.532 59.6358 78.089 59.3775 78.491 58.8609L79.4 59.8792C79.123 60.272 78.747 60.5794 78.273 60.8015C77.799 61.0192 77.274 61.1281 76.698 61.1281ZM76.486 55.4408C76.119 55.4408 75.82 55.5647 75.59 55.8123C75.363 56.0599 75.218 56.4143 75.154 56.8755H77.729V56.7282C77.72 56.3183 77.609 56.0023 77.396 55.7803C77.182 55.554 76.879 55.4408 76.486 55.4408ZM80.316 57.4711C80.316 56.3823 80.557 55.522 81.04 54.89C81.527 54.2581 82.193 53.9422 83.038 53.9422C83.781 53.9422 84.372 54.2261 84.812 54.794L84.934 54.0703H86.561V63.6643H84.703V60.4044C84.276 60.8869 83.717 61.1281 83.025 61.1281C82.201 61.1281 81.544 60.8079 81.053 60.1674C80.562 59.5269 80.316 58.6282 80.316 57.4711ZM82.167 57.6056C82.167 58.2674 82.282 58.7712 82.513 59.1171C82.748 59.4629 83.076 59.6358 83.499 59.6358C84.067 59.6358 84.468 59.4095 84.703 58.9569V56.0941C84.473 55.6586 84.076 55.4408 83.512 55.4408C83.085 55.4408 82.754 55.6138 82.519 55.9596C82.284 56.3054 82.167 56.8541 82.167 57.6056ZM92.171 60.2955C91.714 60.8506 91.082 61.1281 90.275 61.1281C89.532 61.1281 88.964 60.9146 88.572 60.4876C88.183 60.0607 87.984 59.4351 87.976 58.6111V54.0703H89.827V58.547C89.827 59.2686 90.156 59.6294 90.813 59.6294C91.441 59.6294 91.872 59.4117 92.107 58.9762V54.0703H93.964V61H92.222L92.171 60.2955ZM98.55 61.1281C97.534 61.1281 96.705 60.8164 96.065 60.193C95.429 59.5696 95.111 58.7392 95.111 57.7016V57.5223C95.111 56.8264 95.245 56.2051 95.514 55.6586C95.783 55.1078 96.163 54.6851 96.654 54.3905C97.149 54.0916 97.713 53.9422 98.345 53.9422C99.293 53.9422 100.038 54.241 100.58 54.8388C101.127 55.4366 101.4 56.2841 101.4 57.3814V58.1372H96.987C97.047 58.5897 97.226 58.9527 97.525 59.2259C97.828 59.4992 98.21 59.6358 98.672 59.6358C99.385 59.6358 99.942 59.3775 100.343 58.8609L101.253 59.8792C100.975 60.272 100.599 60.5794 100.125 60.8015C99.651 61.0192 99.126 61.1281 98.55 61.1281ZM98.339 55.4408C97.971 55.4408 97.672 55.5647 97.442 55.8123C97.216 56.0599 97.07 56.4143 97.006 56.8755H99.581V56.7282C99.573 56.3183 99.461 56.0023 99.248 55.7803C99.035 55.554 98.731 55.4408 98.339 55.4408ZM106.21 59.085C106.21 58.8587 106.097 58.6815 105.87 58.5535C105.648 58.4211 105.29 58.3037 104.794 58.2012C103.146 57.8554 102.322 57.1551 102.322 56.1005C102.322 55.4857 102.576 54.9733 103.084 54.5634C103.597 54.1492 104.265 53.9422 105.089 53.9422C105.969 53.9422 106.671 54.1492 107.196 54.5634C107.726 54.9776 107.99 55.5156 107.99 56.1774H106.139C106.139 55.9126 106.054 55.6949 105.883 55.5241C105.712 55.349 105.445 55.2615 105.083 55.2615C104.771 55.2615 104.53 55.332 104.359 55.4729C104.188 55.6138 104.103 55.7931 104.103 56.0108C104.103 56.2158 104.199 56.3823 104.391 56.5104C104.587 56.6342 104.916 56.7431 105.377 56.837C105.838 56.9267 106.227 57.0292 106.543 57.1444C107.521 57.5031 108.009 58.1243 108.009 59.0082C108.009 59.6401 107.738 60.1525 107.196 60.5453C106.654 60.9338 105.954 61.1281 105.095 61.1281C104.515 61.1281 103.998 61.0256 103.545 60.8207C103.097 60.6115 102.745 60.3275 102.489 59.9689C102.233 59.6059 102.104 59.2153 102.104 58.7968H103.859C103.876 59.1256 103.998 59.3775 104.224 59.5526C104.451 59.7276 104.754 59.8152 105.134 59.8152C105.488 59.8152 105.755 59.749 105.934 59.6166C106.118 59.48 106.21 59.3028 106.21 59.085ZM111.423 52.3666V54.0703H112.608V55.428H111.423V58.8865C111.423 59.1427 111.472 59.3263 111.57 59.4373C111.669 59.5483 111.856 59.6038 112.134 59.6038C112.339 59.6038 112.52 59.5889 112.678 59.559V60.9616C112.315 61.0726 111.942 61.1281 111.558 61.1281C110.26 61.1281 109.598 60.4727 109.572 59.1619V55.428H108.56V54.0703H109.572V52.3666H111.423ZM117.392 59.085C117.392 58.8587 117.279 58.6815 117.053 58.5535C116.831 58.4211 116.472 58.3037 115.977 58.2012C114.329 57.8554 113.505 57.1551 113.505 56.1005C113.505 55.4857 113.759 54.9733 114.267 54.5634C114.779 54.1492 115.447 53.9422 116.271 53.9422C117.151 53.9422 117.853 54.1492 118.378 54.5634C118.908 54.9776 119.173 55.5156 119.173 56.1774H117.322C117.322 55.9126 117.236 55.6949 117.066 55.5241C116.895 55.349 116.628 55.2615 116.265 55.2615C115.953 55.2615 115.712 55.332 115.541 55.4729C115.37 55.6138 115.285 55.7931 115.285 56.0108C115.285 56.2158 115.381 56.3823 115.573 56.5104C115.77 56.6342 116.098 56.7431 116.56 56.837C117.021 56.9267 117.409 57.0292 117.725 57.1444C118.703 57.5031 119.192 58.1243 119.192 59.0082C119.192 59.6401 118.921 60.1525 118.378 60.5453C117.836 60.9338 117.136 61.1281 116.278 61.1281C115.697 61.1281 115.18 61.0256 114.728 60.8207C114.28 60.6115 113.927 60.3275 113.671 59.9689C113.415 59.6059 113.287 59.2153 113.287 58.7968H115.042C115.059 59.1256 115.18 59.3775 115.407 59.5526C115.633 59.7276 115.936 59.8152 116.316 59.8152C116.671 59.8152 116.937 59.749 117.117 59.6166C117.3 59.48 117.392 59.3028 117.392 59.085ZM129.894 57.5992C129.894 58.6666 129.651 59.5227 129.164 60.1674C128.681 60.8079 128.028 61.1281 127.204 61.1281C126.504 61.1281 125.938 60.8847 125.507 60.398V63.6643H123.656V54.0703H125.372L125.436 54.7491C125.885 54.2112 126.47 53.9422 127.191 53.9422C128.045 53.9422 128.709 54.2581 129.183 54.89C129.657 55.522 129.894 56.393 129.894 57.5031V57.5992ZM128.043 57.4647C128.043 56.8199 127.928 56.3225 127.697 55.9724C127.471 55.6223 127.14 55.4472 126.704 55.4472C126.124 55.4472 125.724 55.6693 125.507 56.1133V58.9505C125.733 59.4074 126.137 59.6358 126.717 59.6358C127.601 59.6358 128.043 58.9121 128.043 57.4647ZM134.236 61.1281C133.22 61.1281 132.392 60.8164 131.751 60.193C131.115 59.5696 130.797 58.7392 130.797 57.7016V57.5223C130.797 56.8264 130.931 56.2051 131.2 55.6586C131.469 55.1078 131.849 54.6851 132.34 54.3905C132.836 54.0916 133.399 53.9422 134.031 53.9422C134.979 53.9422 135.724 54.241 136.266 54.8388C136.813 55.4366 137.086 56.2841 137.086 57.3814V58.1372H132.673C132.733 58.5897 132.913 58.9527 133.211 59.2259C133.515 59.4992 133.897 59.6358 134.358 59.6358C135.071 59.6358 135.628 59.3775 136.029 58.8609L136.939 59.8792C136.661 60.272 136.286 60.5794 135.812 60.8015C135.338 61.0192 134.813 61.1281 134.236 61.1281ZM134.025 55.4408C133.658 55.4408 133.359 55.5647 133.128 55.8123C132.902 56.0599 132.757 56.4143 132.693 56.8755H135.267V56.7282C135.259 56.3183 135.148 56.0023 134.934 55.7803C134.721 55.554 134.418 55.4408 134.025 55.4408ZM142.037 55.8059C141.785 55.7717 141.563 55.7547 141.371 55.7547C140.671 55.7547 140.212 55.9916 139.994 56.4656V61H138.143V54.0703H139.891L139.943 54.8964C140.314 54.2603 140.829 53.9422 141.486 53.9422C141.691 53.9422 141.883 53.9699 142.063 54.0254L142.037 55.8059ZM151.157 58.5535C151.157 58.1905 151.029 57.913 150.773 57.7209C150.517 57.5245 150.055 57.3195 149.389 57.106C148.723 56.8883 148.196 56.6748 147.807 56.4656C146.749 55.8934 146.219 55.1227 146.219 54.1535C146.219 53.6497 146.36 53.2014 146.642 52.8086C146.928 52.4115 147.336 52.1019 147.865 51.8799C148.399 51.6579 148.997 51.5469 149.658 51.5469C150.324 51.5469 150.918 51.6685 151.439 51.9119C151.96 52.151 152.363 52.4905 152.649 52.9302C152.94 53.37 153.085 53.8696 153.085 54.4289H151.163C151.163 54.0019 151.029 53.671 150.76 53.4362C150.491 53.1971 150.113 53.0775 149.626 53.0775C149.157 53.0775 148.792 53.1779 148.531 53.3786C148.271 53.575 148.141 53.8354 148.141 54.1599C148.141 54.4631 148.292 54.7171 148.595 54.9221C148.903 55.127 149.353 55.3191 149.947 55.4985C151.04 55.8272 151.836 56.235 152.336 56.7217C152.835 57.2085 153.085 57.8148 153.085 58.5406C153.085 59.3476 152.78 59.9817 152.169 60.4428C151.558 60.8997 150.736 61.1281 149.703 61.1281C148.986 61.1281 148.333 60.9979 147.743 60.7374C147.154 60.4727 146.704 60.1119 146.392 59.655C146.085 59.1982 145.931 58.6687 145.931 58.0667H147.859C147.859 59.0957 148.474 59.6102 149.703 59.6102C150.16 59.6102 150.517 59.5184 150.773 59.3348C151.029 59.1469 151.157 58.8865 151.157 58.5535ZM157.459 61.1281C156.443 61.1281 155.615 60.8164 154.974 60.193C154.338 59.5696 154.02 58.7392 154.02 57.7016V57.5223C154.02 56.8264 154.154 56.2051 154.423 55.6586C154.692 55.1078 155.072 54.6851 155.563 54.3905C156.059 54.0916 156.622 53.9422 157.254 53.9422C158.202 53.9422 158.947 54.241 159.489 54.8388C160.036 55.4366 160.309 56.2841 160.309 57.3814V58.1372H155.896C155.956 58.5897 156.136 58.9527 156.434 59.2259C156.738 59.4992 157.12 59.6358 157.581 59.6358C158.294 59.6358 158.851 59.3775 159.252 58.8609L160.162 59.8792C159.884 60.272 159.509 60.5794 159.035 60.8015C158.561 61.0192 158.036 61.1281 157.459 61.1281ZM157.248 55.4408C156.881 55.4408 156.582 55.5647 156.351 55.8123C156.125 56.0599 155.98 56.4143 155.916 56.8755H158.49V56.7282C158.482 56.3183 158.371 56.0023 158.157 55.7803C157.944 55.554 157.641 55.4408 157.248 55.4408ZM164.248 59.6358C164.59 59.6358 164.867 59.5419 165.081 59.354C165.294 59.1662 165.405 58.9164 165.414 58.6047H167.149C167.145 59.0744 167.017 59.5056 166.765 59.8984C166.513 60.287 166.167 60.5901 165.727 60.8079C165.292 61.0213 164.809 61.1281 164.28 61.1281C163.289 61.1281 162.508 60.8143 161.936 60.1866C161.364 59.5547 161.078 58.6837 161.078 57.5736V57.4519C161.078 56.3844 161.362 55.5326 161.93 54.8964C162.497 54.2603 163.277 53.9422 164.267 53.9422C165.134 53.9422 165.828 54.1898 166.349 54.6851C166.874 55.1761 167.141 55.8315 167.149 56.6513H165.414C165.405 56.2926 165.294 56.0023 165.081 55.7803C164.867 55.554 164.585 55.4408 164.235 55.4408C163.804 55.4408 163.477 55.5988 163.255 55.9148C163.038 56.2265 162.929 56.7346 162.929 57.4391V57.6312C162.929 58.3442 163.038 58.8566 163.255 59.1683C163.473 59.48 163.804 59.6358 164.248 59.6358ZM167.918 57.4711C167.918 56.7837 168.05 56.171 168.315 55.633C168.58 55.095 168.96 54.6787 169.455 54.3841C169.954 54.0895 170.533 53.9422 171.191 53.9422C172.126 53.9422 172.888 54.2282 173.477 54.8004C174.07 55.3725 174.401 56.1496 174.47 57.1316L174.483 57.6056C174.483 58.6687 174.186 59.5227 173.592 60.1674C172.999 60.8079 172.202 61.1281 171.203 61.1281C170.204 61.1281 169.406 60.8079 168.808 60.1674C168.215 59.5269 167.918 58.6559 167.918 57.5543V57.4711ZM169.769 57.6056C169.769 58.2631 169.893 58.7669 170.14 59.1171C170.388 59.4629 170.742 59.6358 171.203 59.6358C171.652 59.6358 172.002 59.465 172.254 59.1235C172.506 58.7776 172.632 58.2268 172.632 57.4711C172.632 56.8264 172.506 56.3268 172.254 55.9724C172.002 55.618 171.647 55.4408 171.191 55.4408C170.738 55.4408 170.388 55.618 170.14 55.9724C169.893 56.3225 169.769 56.8669 169.769 57.6056ZM177.326 54.0703L177.384 54.8708C177.879 54.2517 178.543 53.9422 179.376 53.9422C180.11 53.9422 180.657 54.1578 181.015 54.589C181.374 55.0203 181.557 55.665 181.566 56.5232V61H179.715V56.568C179.715 56.1752 179.63 55.8913 179.459 55.7162C179.288 55.5369 179.004 55.4472 178.607 55.4472C178.086 55.4472 177.695 55.6693 177.435 56.1133V61H175.584V54.0703H177.326ZM182.687 57.4839C182.687 56.4037 182.928 55.5433 183.41 54.9028C183.897 54.2624 184.561 53.9422 185.402 53.9422C186.077 53.9422 186.634 54.1941 187.074 54.6979V51.1626H188.931V61H187.26L187.17 60.2635C186.709 60.8399 186.115 61.1281 185.389 61.1281C184.574 61.1281 183.919 60.8079 183.423 60.1674C182.932 59.5227 182.687 58.6282 182.687 57.4839ZM184.538 57.6184C184.538 58.2674 184.651 58.7648 184.877 59.1107C185.103 59.4565 185.432 59.6294 185.863 59.6294C186.436 59.6294 186.839 59.3882 187.074 58.9057V56.171C186.843 55.6885 186.444 55.4472 185.876 55.4472C184.984 55.4472 184.538 56.171 184.538 57.6184Z" fill="#646464"/>
<path d="M412.075 60.9097H410.941V52.3079H412.075V60.9097ZM415.017 54.5174L415.052 55.3209C415.541 54.7065 416.179 54.3993 416.966 54.3993C418.317 54.3993 418.999 55.1614 419.011 56.6856V60.9097H417.918V56.6797C417.914 56.2189 417.807 55.8782 417.599 55.6576C417.394 55.4371 417.073 55.3268 416.636 55.3268C416.281 55.3268 415.97 55.4213 415.702 55.6104C415.434 55.7994 415.226 56.0475 415.076 56.3548V60.9097H413.983V54.5174H415.017ZM422.142 52.9696V54.5174H423.335V55.3622H422.142V59.3264C422.142 59.5824 422.195 59.7754 422.301 59.9053C422.408 60.0314 422.589 60.0944 422.845 60.0944C422.971 60.0944 423.144 60.0708 423.365 60.0235V60.9097C423.077 60.9884 422.797 61.0278 422.526 61.0278C422.037 61.0278 421.669 60.8801 421.421 60.5847C421.173 60.2893 421.049 59.8699 421.049 59.3264V55.3622H419.885V54.5174H421.049V52.9696H422.142ZM427.27 61.0278C426.403 61.0278 425.698 60.7442 425.155 60.1771C424.611 59.606 424.339 58.8439 424.339 57.8908V57.6899C424.339 57.0558 424.46 56.4906 424.7 55.9944C424.944 55.4942 425.283 55.1043 425.716 54.8246C426.153 54.5411 426.626 54.3993 427.134 54.3993C427.965 54.3993 428.611 54.673 429.072 55.2205C429.532 55.7679 429.763 56.5517 429.763 57.5718V58.0267H425.432C425.448 58.6568 425.631 59.1669 425.982 59.5568C426.336 59.9428 426.785 60.1357 427.329 60.1357C427.715 60.1357 428.042 60.057 428.309 59.8994C428.577 59.7419 428.812 59.5332 429.012 59.2732L429.68 59.7931C429.144 60.6162 428.341 61.0278 427.27 61.0278ZM427.134 55.2973C426.693 55.2973 426.322 55.4587 426.023 55.7817C425.724 56.1007 425.539 56.5497 425.468 57.1287H428.67V57.046C428.638 56.4906 428.489 56.0613 428.221 55.7581C427.953 55.4509 427.591 55.2973 427.134 55.2973ZM434.123 55.4981C433.957 55.4706 433.778 55.4568 433.585 55.4568C432.868 55.4568 432.382 55.762 432.126 56.3725V60.9097H431.033V54.5174H432.096L432.114 55.2559C432.472 54.6848 432.981 54.3993 433.638 54.3993C433.851 54.3993 434.012 54.4268 434.123 54.482V55.4981ZM437.348 59.4268L438.932 54.5174H440.048L437.756 60.9097H436.923L434.607 54.5174H435.724L437.348 59.4268ZM444.952 60.9097C444.889 60.7836 444.837 60.5591 444.798 60.2362C444.29 60.7639 443.683 61.0278 442.978 61.0278C442.348 61.0278 441.83 60.8506 441.425 60.4961C441.023 60.1377 440.822 59.6848 440.822 59.1373C440.822 58.4717 441.074 57.9558 441.578 57.5895C442.086 57.2193 442.799 57.0342 443.717 57.0342H444.78V56.532C444.78 56.15 444.666 55.8467 444.438 55.6222C444.209 55.3938 443.873 55.2795 443.427 55.2795C443.038 55.2795 442.711 55.378 442.447 55.5749C442.183 55.7719 442.051 56.0101 442.051 56.2898H440.952C440.952 55.9707 441.064 55.6635 441.289 55.3682C441.517 55.0688 441.825 54.8325 442.21 54.6592C442.6 54.4859 443.028 54.3993 443.492 54.3993C444.229 54.3993 444.806 54.5844 445.223 54.9546C445.641 55.3209 445.858 55.827 445.873 56.4729V59.415C445.873 60.0018 445.948 60.4686 446.098 60.8151V60.9097H444.952ZM443.138 60.0767C443.481 60.0767 443.806 59.9881 444.113 59.8108C444.42 59.6336 444.643 59.4032 444.78 59.1196V57.8081H443.924C442.585 57.8081 441.915 58.2 441.915 58.9837C441.915 59.3264 442.029 59.5942 442.258 59.7872C442.486 59.9802 442.78 60.0767 443.138 60.0767ZM448.774 60.9097H447.681V51.8353H448.774V60.9097Z" fill="#646464"/>
<path d="M459.054 60.9097H453.418V60.1239L456.395 56.8156C456.836 56.3154 457.139 55.9097 457.305 55.5986C457.474 55.2835 457.559 54.9585 457.559 54.6238C457.559 54.1748 457.423 53.8065 457.151 53.519C456.88 53.2315 456.517 53.0877 456.064 53.0877C455.521 53.0877 455.097 53.2433 454.794 53.5545C454.495 53.8617 454.345 54.291 454.345 54.8424H453.252C453.252 54.0507 453.506 53.4107 454.014 52.9223C454.526 52.4339 455.21 52.1898 456.064 52.1898C456.864 52.1898 457.496 52.4005 457.961 52.8219C458.425 53.2394 458.658 53.7967 458.658 54.4938C458.658 55.3406 458.118 56.3488 457.039 57.5186L454.735 60.0176H459.054V60.9097ZM464.418 55.2914C464.902 54.6966 465.533 54.3993 466.308 54.3993C467.659 54.3993 468.341 55.1614 468.352 56.6856V60.9097H467.26V56.6797C467.256 56.2189 467.149 55.8782 466.941 55.6576C466.736 55.4371 466.415 55.3268 465.978 55.3268C465.623 55.3268 465.312 55.4213 465.044 55.6104C464.776 55.7994 464.568 56.0475 464.418 56.3548V60.9097H463.325V51.8353H464.418V55.2914ZM469.699 57.6545C469.699 57.0282 469.822 56.465 470.066 55.9648C470.314 55.4646 470.657 55.0787 471.094 54.8069C471.535 54.5352 472.037 54.3993 472.6 54.3993C473.471 54.3993 474.174 54.7006 474.709 55.3032C475.249 55.9058 475.519 56.7073 475.519 57.7076V57.7844C475.519 58.4067 475.399 58.966 475.158 59.4623C474.922 59.9546 474.581 60.3386 474.136 60.6143C473.695 60.89 473.187 61.0278 472.612 61.0278C471.746 61.0278 471.043 60.7265 470.503 60.1239C469.967 59.5213 469.699 58.7238 469.699 57.7313V57.6545ZM470.798 57.7844C470.798 58.4934 470.962 59.0625 471.289 59.4918C471.62 59.9211 472.061 60.1357 472.612 60.1357C473.167 60.1357 473.608 59.9191 473.935 59.4859C474.262 59.0487 474.426 58.4382 474.426 57.6545C474.426 56.9534 474.258 56.3863 473.924 55.953C473.593 55.5158 473.152 55.2973 472.6 55.2973C472.061 55.2973 471.625 55.5119 471.295 55.9412C470.964 56.3705 470.798 56.9849 470.798 57.7844ZM480.836 60.2775C480.41 60.7777 479.786 61.0278 478.963 61.0278C478.282 61.0278 477.762 60.8309 477.403 60.437C477.049 60.0393 476.87 59.4524 476.866 58.6765V54.5174H477.959V58.647C477.959 59.6159 478.352 60.1003 479.14 60.1003C479.975 60.1003 480.53 59.7892 480.806 59.1669V54.5174H481.899V60.9097H480.859L480.836 60.2775ZM486.655 55.4981C486.489 55.4706 486.31 55.4568 486.117 55.4568C485.4 55.4568 484.914 55.762 484.658 56.3725V60.9097H483.565V54.5174H484.628L484.646 55.2559C485.005 54.6848 485.513 54.3993 486.17 54.3993C486.383 54.3993 486.545 54.4268 486.655 54.482V55.4981ZM491.387 59.2141C491.387 58.9187 491.275 58.6903 491.05 58.5288C490.83 58.3634 490.442 58.2216 489.886 58.1035C489.335 57.9853 488.896 57.8435 488.569 57.6781C488.246 57.5127 488.006 57.3158 487.848 57.0873C487.695 56.8589 487.618 56.5871 487.618 56.272C487.618 55.7482 487.838 55.3051 488.28 54.9428C488.725 54.5804 489.292 54.3993 489.981 54.3993C490.706 54.3993 491.292 54.5864 491.741 54.9605C492.194 55.3347 492.421 55.8132 492.421 56.3961H491.322C491.322 56.0968 491.194 55.8388 490.938 55.6222C490.686 55.4056 490.367 55.2973 489.981 55.2973C489.583 55.2973 489.272 55.3839 489.048 55.5572C488.823 55.7305 488.711 55.957 488.711 56.2366C488.711 56.5005 488.815 56.6994 489.024 56.8333C489.233 56.9672 489.609 57.0952 490.152 57.2173C490.7 57.3394 491.143 57.4851 491.482 57.6545C491.82 57.8238 492.07 58.0286 492.232 58.2689C492.397 58.5052 492.48 58.7947 492.48 59.1373C492.48 59.7084 492.252 60.1673 491.795 60.5138C491.338 60.8565 490.745 61.0278 490.016 61.0278C489.504 61.0278 489.051 60.9372 488.658 60.7561C488.264 60.5749 487.955 60.3228 487.73 59.9999C487.51 59.673 487.399 59.3205 487.399 58.9424H488.492C488.512 59.3087 488.658 59.6001 488.929 59.8167C489.205 60.0294 489.567 60.1357 490.016 60.1357C490.43 60.1357 490.761 60.053 491.009 59.8876C491.261 59.7183 491.387 59.4938 491.387 59.2141Z" fill="#F3652B"/>
<path d="M493.042 297.942V303.991" stroke="#DFDFDF" stroke-width="1.5124"/>
<path d="M432.545 297.942V303.991" stroke="#DFDFDF" stroke-width="1.5124"/>
<path d="M372.049 297.942V303.991" stroke="#DFDFDF" stroke-width="1.5124"/>
<path d="M311.554 297.942V303.991" stroke="#DFDFDF" stroke-width="1.5124"/>
<path d="M251.057 297.942V303.991" stroke="#DFDFDF" stroke-width="1.5124"/>
<path d="M190.562 297.942V303.991" stroke="#DFDFDF" stroke-width="1.5124"/>
<path d="M110.405 297.942V303.991" stroke="#DFDFDF" stroke-width="1.5124"/>
<path d="M110.405 122.505H493.041" stroke="#F9F9F9" stroke-width="1.5124"/>
<path d="M110.405 158.802H493.041" stroke="#F9F9F9" stroke-width="1.5124"/>
<path d="M110.405 195.099H493.041" stroke="#F9F9F9" stroke-width="1.5124"/>
<path d="M110.405 231.397H493.041" stroke="#F9F9F9" stroke-width="1.5124"/>
<path d="M110.405 267.694H493.041" stroke="#F9F9F9" stroke-width="1.5124"/>
<path d="M110.405 297.942H493.041" stroke="#DFDFDF" stroke-width="1.5124"/>
<path d="M92.912 270.629C92.912 272.229 92.639 273.418 92.092 274.196C91.546 274.973 90.692 275.362 89.53 275.362C88.383 275.362 87.533 274.983 86.982 274.225C86.431 273.462 86.145 272.325 86.125 270.813V268.989C86.125 267.409 86.399 266.235 86.945 265.467C87.492 264.699 88.348 264.315 89.515 264.315C90.672 264.315 91.524 264.687 92.07 265.43C92.617 266.168 92.897 267.311 92.912 268.856V270.629ZM91.546 268.76C91.546 267.604 91.383 266.762 91.058 266.235C90.733 265.703 90.219 265.437 89.515 265.437C88.816 265.437 88.306 265.701 87.986 266.227C87.666 266.754 87.501 267.564 87.492 268.657V270.843C87.492 272.005 87.659 272.864 87.994 273.42C88.333 273.972 88.845 274.247 89.53 274.247C90.204 274.247 90.704 273.986 91.029 273.465C91.359 272.943 91.531 272.121 91.546 270.998V268.76Z" fill="#646464"/>
<path d="M116.336 313.172C116.336 313.601 116.222 313.983 115.994 314.318C115.769 314.652 115.464 314.914 115.078 315.103C115.527 315.296 115.881 315.578 116.141 315.948C116.405 316.318 116.537 316.738 116.537 317.207C116.537 317.951 116.285 318.544 115.781 318.985C115.281 319.426 114.621 319.646 113.802 319.646C112.975 319.646 112.311 319.426 111.811 318.985C111.315 318.54 111.066 317.947 111.066 317.207C111.066 316.742 111.192 316.322 111.445 315.948C111.701 315.574 112.053 315.29 112.502 315.097C112.12 314.908 111.819 314.647 111.598 314.312C111.378 313.977 111.267 313.597 111.267 313.172C111.267 312.447 111.5 311.872 111.964 311.446C112.429 311.021 113.042 310.808 113.802 310.808C114.558 310.808 115.168 311.021 115.633 311.446C116.102 311.872 116.336 312.447 116.336 313.172ZM115.444 317.183C115.444 316.702 115.291 316.311 114.983 316.007C114.68 315.704 114.282 315.552 113.79 315.552C113.298 315.552 112.902 315.702 112.602 316.001C112.307 316.301 112.159 316.695 112.159 317.183C112.159 317.671 112.303 318.055 112.591 318.335C112.882 318.615 113.286 318.754 113.802 318.754C114.314 318.754 114.716 318.615 115.007 318.335C115.298 318.051 115.444 317.667 115.444 317.183ZM113.802 311.706C113.372 311.706 113.024 311.84 112.756 312.108C112.492 312.372 112.36 312.732 112.36 313.189C112.36 313.626 112.49 313.981 112.75 314.253C113.014 314.52 113.365 314.654 113.802 314.654C114.239 314.654 114.588 314.52 114.847 314.253C115.111 313.981 115.243 313.626 115.243 313.189C115.243 312.752 115.107 312.396 114.836 312.12C114.564 311.844 114.219 311.706 113.802 311.706ZM118.049 318.955C118.049 318.766 118.105 318.609 118.215 318.483C118.329 318.357 118.498 318.294 118.723 318.294C118.947 318.294 119.117 318.357 119.231 318.483C119.349 318.609 119.408 318.766 119.408 318.955C119.408 319.136 119.349 319.288 119.231 319.41C119.117 319.532 118.947 319.593 118.723 319.593C118.498 319.593 118.329 319.532 118.215 319.41C118.105 319.288 118.049 319.136 118.049 318.955ZM124.991 310.927H126.131V317.018C126.131 317.841 125.883 318.485 125.387 318.949C124.895 319.414 124.237 319.646 123.414 319.646C122.559 319.646 121.893 319.428 121.417 318.991C120.94 318.554 120.702 317.941 120.702 317.153H121.836C121.836 317.646 121.97 318.03 122.238 318.305C122.51 318.581 122.902 318.719 123.414 318.719C123.882 318.719 124.261 318.571 124.548 318.276C124.84 317.98 124.987 317.567 124.991 317.035V310.927ZM131.838 318.896C131.413 319.396 130.789 319.646 129.966 319.646C129.284 319.646 128.764 319.45 128.406 319.056C128.051 318.658 127.872 318.071 127.868 317.295V313.136H128.961V317.266C128.961 318.235 129.355 318.719 130.143 318.719C130.978 318.719 131.533 318.408 131.809 317.786V313.136H132.902V319.528H131.862L131.838 318.896ZM135.602 313.136L135.637 313.94C136.125 313.325 136.763 313.018 137.551 313.018C138.902 313.018 139.583 313.78 139.595 315.304V319.528H138.502V315.298C138.498 314.838 138.392 314.497 138.183 314.276C137.978 314.056 137.657 313.945 137.22 313.945C136.866 313.945 136.555 314.04 136.287 314.229C136.019 314.418 135.81 314.666 135.661 314.973V319.528H134.568V313.136H135.602Z" fill="#646464"/>
<path d="M175.804 315.747C175.576 316.019 175.302 316.238 174.983 316.403C174.668 316.569 174.321 316.651 173.943 316.651C173.447 316.651 173.014 316.529 172.644 316.285C172.277 316.041 171.994 315.698 171.793 315.257C171.592 314.812 171.492 314.322 171.492 313.786C171.492 313.211 171.6 312.693 171.817 312.232C172.037 311.771 172.348 311.419 172.75 311.175C173.152 310.931 173.62 310.808 174.156 310.808C175.007 310.808 175.676 311.127 176.165 311.765C176.657 312.4 176.903 313.266 176.903 314.365V314.684C176.903 316.358 176.572 317.581 175.911 318.353C175.249 319.121 174.251 319.515 172.915 319.534H172.703V318.613H172.933C173.835 318.597 174.528 318.363 175.013 317.91C175.497 317.453 175.761 316.732 175.804 315.747ZM174.121 315.747C174.487 315.747 174.824 315.635 175.131 315.411C175.442 315.186 175.668 314.908 175.81 314.578V314.14C175.81 313.424 175.655 312.841 175.344 312.392C175.032 311.943 174.639 311.718 174.162 311.718C173.681 311.718 173.296 311.903 173.004 312.274C172.713 312.64 172.567 313.124 172.567 313.727C172.567 314.314 172.707 314.798 172.986 315.18C173.27 315.558 173.648 315.747 174.121 315.747ZM178.546 318.955C178.546 318.766 178.601 318.609 178.711 318.483C178.825 318.357 178.995 318.294 179.219 318.294C179.444 318.294 179.613 318.357 179.727 318.483C179.845 318.609 179.904 318.766 179.904 318.955C179.904 319.136 179.845 319.288 179.727 319.41C179.613 319.532 179.444 319.593 179.219 319.593C178.995 319.593 178.825 319.532 178.711 319.41C178.601 319.288 178.546 319.136 178.546 318.955ZM185.487 310.927H186.627V317.018C186.627 317.841 186.379 318.485 185.883 318.949C185.391 319.414 184.733 319.646 183.91 319.646C183.055 319.646 182.39 319.428 181.913 318.991C181.436 318.554 181.198 317.941 181.198 317.153H182.332C182.332 317.646 182.466 318.03 182.734 318.305C183.006 318.581 183.398 318.719 183.91 318.719C184.379 318.719 184.757 318.571 185.044 318.276C185.336 317.98 185.483 317.567 185.487 317.035V310.927ZM192.334 318.896C191.909 319.396 191.285 319.646 190.462 319.646C189.78 319.646 189.26 319.45 188.902 319.056C188.547 318.658 188.368 318.071 188.364 317.295V313.136H189.457V317.266C189.457 318.235 189.851 318.719 190.639 318.719C191.474 318.719 192.029 318.408 192.305 317.786V313.136H193.398V319.528H192.358L192.334 318.896ZM196.098 313.136L196.133 313.94C196.621 313.325 197.26 313.018 198.047 313.018C199.398 313.018 200.08 313.78 200.091 315.304V319.528H198.998V315.298C198.994 314.838 198.888 314.497 198.679 314.276C198.475 314.056 198.154 313.945 197.716 313.945C197.362 313.945 197.051 314.04 196.783 314.229C196.515 314.418 196.306 314.666 196.157 314.973V319.528H195.064V313.136H196.098Z" fill="#646464"/>
<path d="M235.704 319.528H234.605V312.244L232.401 313.053V312.061L235.532 310.885H235.704V319.528ZM244.3 315.86C244.3 317.14 244.081 318.091 243.644 318.713C243.207 319.335 242.523 319.646 241.594 319.646C240.676 319.646 239.997 319.343 239.556 318.737C239.115 318.126 238.886 317.216 238.87 316.007V314.548C238.87 313.284 239.089 312.344 239.526 311.73C239.963 311.116 240.649 310.808 241.582 310.808C242.508 310.808 243.189 311.106 243.626 311.7C244.063 312.291 244.288 313.205 244.3 314.442V315.86ZM243.207 314.365C243.207 313.439 243.077 312.766 242.817 312.344C242.557 311.919 242.145 311.706 241.582 311.706C241.023 311.706 240.615 311.917 240.359 312.339C240.103 312.76 239.971 313.408 239.963 314.282V316.031C239.963 316.96 240.097 317.648 240.365 318.093C240.637 318.534 241.046 318.754 241.594 318.754C242.133 318.754 242.533 318.546 242.793 318.128C243.057 317.711 243.195 317.053 243.207 316.155V314.365ZM245.836 318.955C245.836 318.766 245.891 318.609 246.001 318.483C246.115 318.357 246.285 318.294 246.509 318.294C246.734 318.294 246.903 318.357 247.017 318.483C247.135 318.609 247.194 318.766 247.194 318.955C247.194 319.136 247.135 319.288 247.017 319.41C246.903 319.532 246.734 319.593 246.509 319.593C246.285 319.593 246.115 319.532 246.001 319.41C245.891 319.288 245.836 319.136 245.836 318.955ZM252.777 310.927H253.918V317.018C253.918 317.841 253.669 318.485 253.173 318.949C252.681 319.414 252.023 319.646 251.2 319.646C250.345 319.646 249.68 319.428 249.203 318.991C248.727 318.554 248.488 317.941 248.488 317.153H249.623C249.623 317.646 249.756 318.03 250.024 318.305C250.296 318.581 250.688 318.719 251.2 318.719C251.669 318.719 252.047 318.571 252.334 318.276C252.626 317.98 252.773 317.567 252.777 317.035V310.927ZM259.624 318.896C259.199 319.396 258.575 319.646 257.752 319.646C257.07 319.646 256.55 319.45 256.192 319.056C255.838 318.658 255.658 318.071 255.654 317.295V313.136H256.747V317.266C256.747 318.235 257.141 318.719 257.929 318.719C258.764 318.719 259.319 318.408 259.595 317.786V313.136H260.688V319.528H259.648L259.624 318.896ZM263.388 313.136L263.423 313.94C263.912 313.325 264.55 313.018 265.337 313.018C266.688 313.018 267.37 313.78 267.381 315.304V319.528H266.288V315.298C266.284 314.838 266.178 314.497 265.969 314.276C265.765 314.056 265.444 313.945 265.006 313.945C264.652 313.945 264.341 314.04 264.073 314.229C263.805 314.418 263.596 314.666 263.447 314.973V319.528H262.354V313.136H263.388Z" fill="#646464"/>
<path d="M296.199 319.528H295.1V312.244L292.896 313.053V312.061L296.028 310.885H296.199V319.528ZM302.993 319.528H301.894V312.244L299.69 313.053V312.061L302.822 310.885H302.993V319.528ZM306.331 318.955C306.331 318.766 306.386 318.609 306.496 318.483C306.61 318.357 306.78 318.294 307.004 318.294C307.229 318.294 307.398 318.357 307.512 318.483C307.63 318.609 307.69 318.766 307.69 318.955C307.69 319.136 307.63 319.288 307.512 319.41C307.398 319.532 307.229 319.593 307.004 319.593C306.78 319.593 306.61 319.532 306.496 319.41C306.386 319.288 306.331 319.136 306.331 318.955ZM313.272 310.927H314.413V317.018C314.413 317.841 314.164 318.485 313.668 318.949C313.176 319.414 312.518 319.646 311.695 319.646C310.84 319.646 310.175 319.428 309.698 318.991C309.222 318.554 308.983 317.941 308.983 317.153H310.118C310.118 317.646 310.252 318.03 310.519 318.305C310.791 318.581 311.183 318.719 311.695 318.719C312.164 318.719 312.542 318.571 312.829 318.276C313.121 317.98 313.268 317.567 313.272 317.035V310.927ZM320.12 318.896C319.694 319.396 319.07 319.646 318.247 319.646C317.565 319.646 317.046 319.45 316.687 319.056C316.333 318.658 316.153 318.071 316.15 317.295V313.136H317.242V317.266C317.242 318.235 317.636 318.719 318.424 318.719C319.259 318.719 319.814 318.408 320.09 317.786V313.136H321.183V319.528H320.143L320.12 318.896ZM323.883 313.136L323.918 313.94C324.407 313.325 325.045 313.018 325.832 313.018C327.183 313.018 327.865 313.78 327.876 315.304V319.528H326.784V315.298C326.78 314.838 326.673 314.497 326.465 314.276C326.26 314.056 325.939 313.945 325.502 313.945C325.147 313.945 324.836 314.04 324.568 314.229C324.3 314.418 324.092 314.666 323.942 314.973V319.528H322.849V313.136H323.883Z" fill="#646464"/>
<path d="M356.695 319.528H355.596V312.244L353.393 313.053V312.061L356.524 310.885H356.695V319.528ZM365.533 319.528H359.897V318.743L362.875 315.434C363.316 314.934 363.619 314.528 363.784 314.217C363.954 313.902 364.038 313.577 364.038 313.242C364.038 312.793 363.902 312.425 363.631 312.138C363.359 311.85 362.997 311.706 362.544 311.706C362 311.706 361.577 311.862 361.274 312.173C360.974 312.48 360.825 312.91 360.825 313.461H359.732C359.732 312.669 359.986 312.029 360.494 311.541C361.006 311.053 361.689 310.808 362.544 310.808C363.343 310.808 363.975 311.019 364.44 311.441C364.905 311.858 365.137 312.415 365.137 313.112C365.137 313.959 364.598 314.967 363.518 316.137L361.214 318.636H365.533V319.528ZM366.827 318.955C366.827 318.766 366.882 318.609 366.992 318.483C367.106 318.357 367.276 318.294 367.5 318.294C367.725 318.294 367.894 318.357 368.008 318.483C368.127 318.609 368.186 318.766 368.186 318.955C368.186 319.136 368.127 319.288 368.008 319.41C367.894 319.532 367.725 319.593 367.5 319.593C367.276 319.593 367.106 319.532 366.992 319.41C366.882 319.288 366.827 319.136 366.827 318.955ZM373.769 310.927H374.909V317.018C374.909 317.841 374.661 318.485 374.164 318.949C373.672 319.414 373.014 319.646 372.191 319.646C371.336 319.646 370.671 319.428 370.194 318.991C369.718 318.554 369.479 317.941 369.479 317.153H370.614C370.614 317.646 370.748 318.03 371.015 318.305C371.287 318.581 371.679 318.719 372.191 318.719C372.66 318.719 373.038 318.571 373.325 318.276C373.617 317.98 373.765 317.567 373.769 317.035V310.927ZM380.616 318.896C380.19 319.396 379.566 319.646 378.743 319.646C378.062 319.646 377.542 319.45 377.183 319.056C376.829 318.658 376.65 318.071 376.646 317.295V313.136H377.739V317.266C377.739 318.235 378.132 318.719 378.92 318.719C379.755 318.719 380.31 318.408 380.586 317.786V313.136H381.679V319.528H380.639L380.616 318.896ZM384.379 313.136L384.414 313.94C384.903 313.325 385.541 313.018 386.328 313.018C387.679 313.018 388.361 313.78 388.373 315.304V319.528H387.28V315.298C387.276 314.838 387.169 314.497 386.961 314.276C386.756 314.056 386.435 313.945 385.998 313.945C385.643 313.945 385.332 314.04 385.064 314.229C384.796 314.418 384.588 314.666 384.438 314.973V319.528H383.345V313.136H384.379Z" fill="#646464"/>
<path d="M417.191 319.528H416.092V312.244L413.889 313.053V312.061L417.02 310.885H417.191V319.528ZM421.982 314.696H422.803C423.319 314.688 423.725 314.552 424.02 314.288C424.316 314.024 424.464 313.668 424.464 313.219C424.464 312.211 423.961 311.706 422.957 311.706C422.484 311.706 422.106 311.842 421.823 312.114C421.543 312.382 421.403 312.738 421.403 313.183H420.31C420.31 312.502 420.559 311.937 421.055 311.488C421.555 311.035 422.189 310.808 422.957 310.808C423.768 310.808 424.404 311.023 424.865 311.452C425.326 311.882 425.557 312.478 425.557 313.242C425.557 313.617 425.434 313.979 425.19 314.329C424.95 314.68 424.621 314.942 424.204 315.115C424.676 315.265 425.041 315.513 425.297 315.86C425.557 316.206 425.686 316.63 425.686 317.13C425.686 317.902 425.434 318.514 424.93 318.967C424.426 319.42 423.77 319.646 422.963 319.646C422.156 319.646 421.498 319.428 420.99 318.991C420.486 318.554 420.234 317.977 420.234 317.26H421.332C421.332 317.713 421.48 318.075 421.776 318.347C422.071 318.619 422.467 318.754 422.963 318.754C423.491 318.754 423.894 318.617 424.174 318.341C424.454 318.065 424.594 317.669 424.594 317.153C424.594 316.653 424.44 316.269 424.133 316.001C423.826 315.734 423.382 315.596 422.803 315.588H421.982V314.696ZM427.323 318.955C427.323 318.766 427.378 318.609 427.488 318.483C427.603 318.357 427.772 318.294 427.996 318.294C428.221 318.294 428.39 318.357 428.504 318.483C428.623 318.609 428.682 318.766 428.682 318.955C428.682 319.136 428.623 319.288 428.504 319.41C428.39 319.532 428.221 319.593 427.996 319.593C427.772 319.593 427.603 319.532 427.488 319.41C427.378 319.288 427.323 319.136 427.323 318.955ZM434.265 310.927H435.405V317.018C435.405 317.841 435.157 318.485 434.66 318.949C434.168 319.414 433.51 319.646 432.687 319.646C431.833 319.646 431.167 319.428 430.69 318.991C430.214 318.554 429.976 317.941 429.976 317.153H431.11C431.11 317.646 431.244 318.03 431.512 318.305C431.783 318.581 432.175 318.719 432.687 318.719C433.156 318.719 433.534 318.571 433.822 318.276C434.113 317.98 434.261 317.567 434.265 317.035V310.927ZM441.112 318.896C440.686 319.396 440.062 319.646 439.239 319.646C438.558 319.646 438.038 319.45 437.679 319.056C437.325 318.658 437.146 318.071 437.142 317.295V313.136H438.235V317.266C438.235 318.235 438.628 318.719 439.416 318.719C440.251 318.719 440.807 318.408 441.082 317.786V313.136H442.175V319.528H441.135L441.112 318.896ZM444.875 313.136L444.91 313.94C445.399 313.325 446.037 313.018 446.825 313.018C448.176 313.018 448.857 313.78 448.869 315.304V319.528H447.776V315.298C447.772 314.838 447.665 314.497 447.457 314.276C447.252 314.056 446.931 313.945 446.494 313.945C446.139 313.945 445.828 314.04 445.56 314.229C445.292 314.418 445.084 314.666 444.934 314.973V319.528H443.841V313.136H444.875Z" fill="#646464"/>
<path d="M477.687 319.528H476.588V312.244L474.385 313.053V312.061L477.516 310.885H477.687V319.528ZM485.503 316.639H486.697V317.531H485.503V319.528H484.404V317.531H480.487V316.888L484.339 310.927H485.503V316.639ZM481.728 316.639H484.404V312.421L484.274 312.658L481.728 316.639ZM487.819 318.955C487.819 318.766 487.874 318.609 487.984 318.483C488.099 318.357 488.268 318.294 488.493 318.294C488.717 318.294 488.886 318.357 489.001 318.483C489.119 318.609 489.178 318.766 489.178 318.955C489.178 319.136 489.119 319.288 489.001 319.41C488.886 319.532 488.717 319.593 488.493 319.593C488.268 319.593 488.099 319.532 487.984 319.41C487.874 319.288 487.819 319.136 487.819 318.955ZM494.761 310.927H495.901V317.018C495.901 317.841 495.653 318.485 495.157 318.949C494.664 319.414 494.006 319.646 493.183 319.646C492.329 319.646 491.663 319.428 491.186 318.991C490.71 318.554 490.472 317.941 490.472 317.153H491.606C491.606 317.646 491.74 318.03 492.008 318.305C492.279 318.581 492.671 318.719 493.183 318.719C493.652 318.719 494.03 318.571 494.318 318.276C494.609 317.98 494.757 317.567 494.761 317.035V310.927ZM501.608 318.896C501.182 319.396 500.558 319.646 499.735 319.646C499.054 319.646 498.534 319.45 498.175 319.056C497.821 318.658 497.642 318.071 497.638 317.295V313.136H498.731V317.266C498.731 318.235 499.125 318.719 499.912 318.719C500.747 318.719 501.303 318.408 501.578 317.786V313.136H502.671V319.528H501.631L501.608 318.896ZM505.371 313.136L505.407 313.94C505.895 313.325 506.533 313.018 507.321 313.018C508.672 313.018 509.353 313.78 509.365 315.304V319.528H508.272V315.298C508.268 314.838 508.162 314.497 507.953 314.276C507.748 314.056 507.427 313.945 506.99 313.945C506.635 313.945 506.324 314.04 506.056 314.229C505.789 314.418 505.58 314.666 505.43 314.973V319.528H504.337V313.136H505.371Z" fill="#646464"/>
<path d="M48.869 233.526L49.416 228.165H54.925V229.428H50.575L50.25 232.36C50.777 232.049 51.375 231.894 52.045 231.894C53.024 231.894 53.802 232.219 54.378 232.869C54.954 233.514 55.242 234.388 55.242 235.491C55.242 236.598 54.942 237.472 54.341 238.112C53.746 238.747 52.911 239.065 51.838 239.065C50.888 239.065 50.112 238.802 49.512 238.275C48.911 237.748 48.569 237.019 48.485 236.089H49.778C49.861 236.704 50.08 237.17 50.435 237.485C50.789 237.795 51.257 237.95 51.838 237.95C52.473 237.95 52.97 237.733 53.33 237.3C53.694 236.867 53.876 236.269 53.876 235.505C53.876 234.787 53.679 234.211 53.285 233.777C52.896 233.339 52.377 233.12 51.727 233.12C51.131 233.12 50.664 233.251 50.324 233.512L49.962 233.807L48.869 233.526ZM63.476 234.331C63.476 235.931 63.203 237.12 62.657 237.898C62.11 238.676 61.256 239.065 60.094 239.065C58.947 239.065 58.098 238.686 57.546 237.928C56.995 237.165 56.709 236.027 56.69 234.516V232.692C56.69 231.112 56.963 229.937 57.509 229.169C58.056 228.401 58.913 228.017 60.079 228.017C61.236 228.017 62.088 228.389 62.634 229.132C63.181 229.871 63.462 231.013 63.476 232.559V234.331ZM62.11 232.463C62.11 231.306 61.948 230.464 61.623 229.937C61.298 229.406 60.783 229.14 60.079 229.14C59.38 229.14 58.871 229.403 58.551 229.93C58.231 230.457 58.066 231.267 58.056 232.36V234.545C58.056 235.707 58.223 236.566 58.558 237.123C58.898 237.674 59.41 237.95 60.094 237.95C60.769 237.95 61.268 237.689 61.593 237.167C61.923 236.645 62.095 235.823 62.11 234.701V232.463ZM65.396 238.201C65.396 237.965 65.465 237.768 65.603 237.61C65.746 237.453 65.958 237.374 66.238 237.374C66.519 237.374 66.731 237.453 66.873 237.61C67.021 237.768 67.095 237.965 67.095 238.201C67.095 238.427 67.021 238.617 66.873 238.77C66.731 238.922 66.519 238.998 66.238 238.998C65.958 238.998 65.746 238.922 65.603 238.77C65.465 238.617 65.396 238.427 65.396 238.201ZM75.957 234.331C75.957 235.931 75.683 237.12 75.137 237.898C74.59 238.676 73.736 239.065 72.574 239.065C71.427 239.065 70.578 238.686 70.027 237.928C69.475 237.165 69.19 236.027 69.17 234.516V232.692C69.17 231.112 69.443 229.937 69.99 229.169C70.536 228.401 71.393 228.017 72.56 228.017C73.716 228.017 74.568 228.389 75.115 229.132C75.661 229.871 75.942 231.013 75.957 232.559V234.331ZM74.59 232.463C74.59 231.306 74.428 230.464 74.103 229.937C73.778 229.406 73.264 229.14 72.56 229.14C71.86 229.14 71.351 229.403 71.031 229.93C70.711 230.457 70.546 231.267 70.536 232.36V234.545C70.536 235.707 70.704 236.566 71.038 237.123C71.378 237.674 71.89 237.95 72.574 237.95C73.249 237.95 73.748 237.689 74.073 237.167C74.403 236.645 74.576 235.823 74.59 234.701V232.463ZM83.644 228.165L87.159 236.938L90.674 228.165H92.513V238.917H91.095V234.73L91.228 230.211L87.698 238.917H86.613L83.09 230.233L83.231 234.73V238.917H81.813V228.165H83.644Z" fill="#646464"/>
<path d="M56.719 202.62H55.346V193.514L52.591 194.526V193.285L56.505 191.816H56.719V202.62ZM67.464 198.034C67.464 199.634 67.191 200.823 66.644 201.601C66.098 202.379 65.244 202.767 64.082 202.767C62.935 202.767 62.086 202.388 61.534 201.63C60.983 200.867 60.697 199.73 60.677 198.218V196.394C60.677 194.814 60.951 193.64 61.497 192.872C62.044 192.104 62.9 191.72 64.067 191.72C65.224 191.72 66.076 192.092 66.622 192.835C67.169 193.573 67.449 194.716 67.464 196.261V198.034ZM66.098 196.165C66.098 195.009 65.935 194.167 65.61 193.64C65.286 193.108 64.771 192.842 64.067 192.842C63.368 192.842 62.858 193.106 62.538 193.633C62.218 194.159 62.054 194.969 62.044 196.062V198.248C62.044 199.41 62.211 200.269 62.546 200.825C62.886 201.377 63.398 201.652 64.082 201.652C64.756 201.652 65.256 201.391 65.581 200.87C65.911 200.348 66.083 199.526 66.098 198.403V196.165ZM75.957 198.034C75.957 199.634 75.683 200.823 75.137 201.601C74.59 202.379 73.736 202.767 72.574 202.767C71.427 202.767 70.578 202.388 70.027 201.63C69.475 200.867 69.19 199.73 69.17 198.218V196.394C69.17 194.814 69.443 193.64 69.99 192.872C70.536 192.104 71.393 191.72 72.56 191.72C73.716 191.72 74.568 192.092 75.115 192.835C75.661 193.573 75.942 194.716 75.957 196.261V198.034ZM74.59 196.165C74.59 195.009 74.428 194.167 74.103 193.64C73.778 193.108 73.264 192.842 72.56 192.842C71.86 192.842 71.351 193.106 71.031 193.633C70.711 194.159 70.546 194.969 70.536 196.062V198.248C70.536 199.41 70.704 200.269 71.038 200.825C71.378 201.377 71.89 201.652 72.574 201.652C73.249 201.652 73.748 201.391 74.073 200.87C74.403 200.348 74.576 199.526 74.59 198.403V196.165ZM83.644 191.868L87.159 200.641L90.674 191.868H92.513V202.62H91.095V198.433L91.228 193.913L87.698 202.62H86.613L83.09 193.935L83.231 198.433V202.62H81.813V191.868H83.644Z" fill="#646464"/>
<path d="M56.719 166.322H55.345V157.217L52.591 158.229V156.988L56.505 155.518H56.719V166.322ZM61.349 160.932L61.895 155.57H67.404V156.833H63.055L62.73 159.765C63.257 159.455 63.855 159.299 64.524 159.299C65.504 159.299 66.282 159.624 66.858 160.274C67.434 160.919 67.722 161.793 67.722 162.896C67.722 164.004 67.422 164.877 66.821 165.517C66.225 166.153 65.391 166.47 64.318 166.47C63.367 166.47 62.592 166.207 61.991 165.68C61.391 165.153 61.049 164.425 60.965 163.494H62.257C62.341 164.109 62.56 164.575 62.914 164.89C63.269 165.2 63.737 165.355 64.318 165.355C64.953 165.355 65.45 165.138 65.809 164.705C66.174 164.272 66.356 163.674 66.356 162.911C66.356 162.192 66.159 161.616 65.765 161.183C65.376 160.744 64.857 160.525 64.207 160.525C63.611 160.525 63.143 160.656 62.804 160.917L62.442 161.212L61.349 160.932ZM75.956 161.736C75.956 163.336 75.683 164.525 75.136 165.303C74.59 166.081 73.736 166.47 72.574 166.47C71.427 166.47 70.577 166.091 70.026 165.333C69.475 164.57 69.189 163.432 69.169 161.921V160.097C69.169 158.517 69.443 157.343 69.989 156.575C70.536 155.807 71.392 155.422 72.559 155.422C73.716 155.422 74.568 155.794 75.114 156.538C75.661 157.276 75.941 158.418 75.956 159.964V161.736ZM74.59 159.868C74.59 158.711 74.427 157.869 74.102 157.343C73.777 156.811 73.263 156.545 72.559 156.545C71.86 156.545 71.35 156.808 71.03 157.335C70.71 157.862 70.545 158.672 70.536 159.765V161.951C70.536 163.112 70.703 163.972 71.038 164.528C71.377 165.079 71.889 165.355 72.574 165.355C73.248 165.355 73.748 165.094 74.073 164.572C74.403 164.05 74.575 163.228 74.59 162.106V159.868ZM83.643 155.57L87.159 164.343L90.674 155.57H92.513V166.322H91.095V162.135L91.228 157.616L87.698 166.322H86.612L83.09 157.638L83.23 162.135V166.322H81.812V155.57H83.643Z" fill="#646464"/>
<path d="M59.274 127H52.229V126.018L55.951 121.882C56.502 121.257 56.881 120.75 57.088 120.361C57.3 119.967 57.405 119.561 57.405 119.143C57.405 118.581 57.236 118.121 56.896 117.762C56.556 117.402 56.103 117.223 55.537 117.223C54.858 117.223 54.328 117.417 53.949 117.806C53.575 118.19 53.388 118.727 53.388 119.416H52.022C52.022 118.426 52.34 117.626 52.975 117.016C53.615 116.405 54.469 116.1 55.537 116.1C56.537 116.1 57.327 116.363 57.908 116.89C58.489 117.412 58.779 118.109 58.779 118.98C58.779 120.039 58.105 121.299 56.756 122.761L53.876 125.885H59.274V127ZM67.464 122.414C67.464 124.014 67.19 125.203 66.644 125.981C66.097 126.759 65.243 127.148 64.081 127.148C62.934 127.148 62.085 126.769 61.534 126.01C60.982 125.247 60.697 124.11 60.677 122.599V120.775C60.677 119.194 60.95 118.02 61.497 117.252C62.043 116.484 62.9 116.1 64.067 116.1C65.223 116.1 66.075 116.472 66.622 117.215C67.168 117.954 67.449 119.096 67.464 120.642V122.414ZM66.097 120.546C66.097 119.389 65.935 118.547 65.61 118.02C65.285 117.488 64.771 117.223 64.067 117.223C63.367 117.223 62.858 117.486 62.538 118.013C62.218 118.54 62.053 119.349 62.043 120.442V122.628C62.043 123.79 62.21 124.649 62.545 125.206C62.885 125.757 63.397 126.033 64.081 126.033C64.756 126.033 65.255 125.772 65.58 125.25C65.91 124.728 66.083 123.906 66.097 122.783V120.546ZM75.956 122.414C75.956 124.014 75.683 125.203 75.136 125.981C74.59 126.759 73.736 127.148 72.574 127.148C71.427 127.148 70.577 126.769 70.026 126.01C69.475 125.247 69.189 124.11 69.169 122.599V120.775C69.169 119.194 69.443 118.02 69.989 117.252C70.536 116.484 71.392 116.1 72.559 116.1C73.716 116.1 74.568 116.472 75.114 117.215C75.661 117.954 75.941 119.096 75.956 120.642V122.414ZM74.59 120.546C74.59 119.389 74.427 118.547 74.102 118.02C73.777 117.488 73.263 117.223 72.559 117.223C71.86 117.223 71.35 117.486 71.03 118.013C70.71 118.54 70.545 119.349 70.536 120.442V122.628C70.536 123.79 70.703 124.649 71.038 125.206C71.377 125.757 71.889 126.033 72.574 126.033C73.248 126.033 73.748 125.772 74.073 125.25C74.403 124.728 74.575 123.906 74.59 122.783V120.546ZM83.643 116.248L87.159 125.021L90.674 116.248H92.513V127H91.095V122.813L91.228 118.293L87.698 127H86.612L83.09 118.316L83.23 122.813V127H81.812V116.248H83.643Z" fill="#646464"/>
<path d="M110.405 127.491H111.823C113.321 127.491 114.692 128.334 115.369 129.671L116.611 132.122C117.66 134.194 120.657 134.078 121.542 131.931C122.499 129.612 125.82 129.721 126.624 132.097L129.933 141.878C130.04 142.197 130.107 142.528 130.132 142.863L137.782 245.517C137.805 245.82 137.862 246.12 137.952 246.41L138.783 249.074C139.936 252.775 145.152 252.836 146.391 249.163L147.309 246.445C147.415 246.132 147.481 245.807 147.507 245.477L157.112 122.61C157.394 119.008 161.928 117.595 164.205 120.4L164.451 120.702C164.71 121.022 165.017 121.299 165.361 121.525L170.225 124.718C170.744 125.058 171.154 125.54 171.408 126.105C172.674 128.926 176.79 128.557 177.534 125.556L177.637 125.142C178.352 122.261 182.156 121.613 183.783 124.096L184.02 124.458C184.356 124.97 184.555 125.56 184.598 126.17L193.748 254.284C193.781 254.747 193.894 255.2 194.082 255.624L195.747 259.37C197.122 262.464 201.48 262.557 202.986 259.523L203.1 259.293C203.331 258.827 203.469 258.321 203.506 257.802L211.448 147.481C211.519 146.503 211.946 145.584 212.649 144.9L220.882 136.895C222.176 135.636 224.201 135.525 225.626 136.633C226.266 137.132 226.721 137.831 226.916 138.618L227.879 142.498C228.728 145.92 233.535 146.072 234.599 142.71C235.761 139.037 241.143 139.675 241.413 143.519L248.582 245.414C248.608 245.785 248.686 246.151 248.813 246.5L249.432 248.204C250.791 251.942 256.181 251.621 257.086 247.747L258.584 241.338C258.634 241.125 258.666 240.908 258.681 240.69L266.176 126.608C266.396 123.257 271.19 122.908 271.894 126.192C272.07 127.017 272.598 127.724 273.339 128.127L276.695 129.954C277.515 130.401 278.152 131.119 278.498 131.986L282.456 141.916C283.723 145.094 288.136 145.318 289.718 142.285L290.036 141.674C290.684 140.433 291.968 139.655 293.367 139.655C295.345 139.655 296.984 141.188 297.116 143.161L304.572 254.525C304.592 254.829 304.648 255.131 304.737 255.423L308.344 267.263C309.174 269.986 312.95 270.192 314.071 267.575C314.193 267.291 314.271 266.991 314.302 266.683L324.25 169.355C324.278 169.078 324.336 168.804 324.421 168.538L328.621 155.471C328.821 154.847 329.171 154.283 329.64 153.827L332.852 150.704C333.316 150.252 333.664 149.695 333.865 149.08L341.456 125.881C341.594 125.458 341.825 125.072 342.132 124.75C343.679 123.126 346.396 123.72 347.123 125.841L349.997 134.225C350.105 134.54 350.174 134.867 350.2 135.199L360.15 257.998C360.182 258.389 360.271 258.773 360.414 259.138L363.749 267.629C364.169 268.697 365.2 269.399 366.347 269.399C367.703 269.399 368.862 268.425 369.097 267.09L372.166 249.577L375.184 236.373C375.231 236.166 375.262 235.956 375.276 235.745L377.925 195.564C377.947 195.234 378.009 194.908 378.111 194.593L382.325 181.597C382.768 180.233 384.554 179.915 385.44 181.043C386.345 182.194 388.172 181.835 388.574 180.428L390.949 172.114C391.379 170.608 393.207 170.029 394.426 171.013C395.612 171.972 397.391 171.452 397.874 170.006L401.74 158.446C402.338 156.66 404.618 156.145 405.925 157.501C406.315 157.905 406.558 158.43 406.615 158.989L415.351 245.417C415.388 245.786 415.477 246.148 415.614 246.493L420.159 257.914C420.335 258.357 420.611 258.753 420.965 259.071C422.838 260.752 425.826 259.609 426.1 257.108L434.711 178.398L438.978 161.164C439.42 159.379 441.022 158.126 442.861 158.126H444.004C444.492 158.126 444.972 158.255 445.393 158.501C446.994 159.435 449.041 158.557 449.467 156.754L454.394 135.911C455.339 131.915 460.973 131.767 462.126 135.708L463.158 139.235C463.24 139.514 463.291 139.801 463.31 140.091L470.646 249.649C470.824 252.313 473.514 254.058 476.02 253.135L477.987 252.41C478.219 252.324 478.465 252.28 478.712 252.28C479.808 252.28 480.719 251.436 480.802 250.343L490.307 125.239L494.554 207.23" stroke="#F3652B" stroke-width="0.901002"/>
</svg>
