<svg width="40" height="42" viewBox="0 0 40 42" fill="none" xmlns="http://www.w3.org/2000/svg">
<g clip-path="url(#clip0)">
<path d="M16.7786 15.8645V13.7134H11.7773V18.7147H13.9284V23.2319H11.7773V28.2332H16.7786V26.0821H22.3177V28.2332H27.319V23.2319H25.1679V18.7147H27.319V13.7134H22.3177V15.8645H16.7786ZM12.4764 14.4663H15.972V17.9618H12.4764V14.4663ZM16.0257 27.5341H12.5302V24.0386H16.0257V27.5341ZM26.5661 27.5341H23.0706V24.0386H26.5661V27.5341ZM24.415 23.2319H22.2639V25.383H16.7786V23.2319H14.6275V18.7147H16.7786V16.5636H22.3177V18.7147H24.4688V23.2319H24.415ZM23.0168 14.4663H26.5123V17.9618H23.0168V14.4663Z" fill="#F3652B"/>
<path d="M38.6658 6.1306C38.1818 6.07682 27.265 5.21639 20.4891 0.322663C19.8976 -0.107554 19.0909 -0.107554 18.4994 0.322663C11.7772 5.21639 0.806658 6.29193 0.322663 6.34571L0 6.39949V6.72215C0 6.82971 0.0537774 15.1652 2.31242 22.5327C3.65685 26.9962 5.53905 30.8143 7.85147 33.8796C10.8092 37.7516 19.0909 42 19.4673 42C19.8438 42 28.1793 37.7516 31.137 33.8796C33.5032 30.8143 35.3316 26.9962 36.6761 22.5327C38.9347 15.1652 38.9885 6.6146 38.9885 6.50704V6.1306H38.6658ZM36.0307 22.3175C34.6863 26.6735 32.8579 30.4379 30.5992 33.4494C27.9641 36.9449 20.6504 40.7631 19.5749 41.2471C18.4994 40.7631 11.1857 36.9449 8.55058 33.4494C6.29193 30.4379 4.40973 26.7273 3.11908 22.3175C1.07554 15.8643 0.806658 8.65813 0.752881 7.04482C2.74264 6.82971 12.6376 5.48528 18.9834 0.914213C19.306 0.699104 19.7362 0.699104 20.0589 0.914213C26.4046 5.53905 36.2458 6.66837 38.2894 6.88348C38.2356 8.4968 37.9667 15.8105 36.0307 22.3175Z" fill="#F3652B"/>
</g>
<defs>
<clipPath id="clip0">
<rect width="39.0423" height="42" fill="white"/>
</clipPath>
</defs>
</svg>
