<svg viewBox="0 0 437 102" fill="none" xmlns="http://www.w3.org/2000/svg">
<path d="M271.809 21.3319C272.416 21.2644 273.024 21.1969 273.429 21.1969V79.4996H269.65C268.983 78.6655 268.418 78.0376 267.639 77.17C267.157 76.6337 266.593 76.0057 265.871 75.1808L229.702 35.7726V79.7695C229.427 79.7695 229.029 79.7075 228.57 79.6361C227.674 79.4966 226.545 79.3211 225.653 79.4996C225.248 79.4996 224.911 79.567 224.573 79.6345C224.236 79.702 223.898 79.7695 223.493 79.7695V21.4668H227.812L266.951 63.8442V21.1969C267.355 21.1969 267.963 21.2644 268.57 21.3319C269.177 21.3993 269.785 21.4668 270.19 21.4668C270.595 21.4668 271.202 21.3993 271.809 21.3319Z" fill="white"/>
<path d="M201.36 27.1351H189.754V46.5694H199.741C202.44 46.5694 207.568 46.2994 210.267 46.0295C210.267 46.2994 210.2 46.9742 210.132 47.649C210.065 48.3238 209.998 48.9986 209.998 49.2686C209.998 49.6734 210.065 50.1458 210.132 50.6181C210.2 51.0905 210.267 51.5629 210.267 51.9677C207.568 51.6978 200.55 51.4279 197.851 51.4279H189.754V74.1012C192.451 74.1012 193.598 74.1012 194.745 74.0675C195.893 74.0338 197.04 73.9663 199.741 73.8312C202.44 73.8312 209.998 73.2914 212.697 72.7516C212.697 73.3302 212.619 74.1413 212.547 74.8942C212.485 75.5463 212.427 76.1546 212.427 76.5304C212.427 76.9353 212.494 77.4752 212.562 78.015C212.629 78.5548 212.697 79.0947 212.697 79.4996H181.116V21.4668H211.887C211.887 21.8717 211.819 22.479 211.752 23.0863C211.685 23.6937 211.617 24.301 211.617 24.7059C211.617 25.2845 211.772 26.0181 211.916 26.699C212.041 27.2888 212.157 27.839 212.157 28.2148C212.157 28.2148 204.059 27.1351 201.36 27.1351Z" fill="white"/>
<path d="M336.32 21.3319C336.927 21.2644 337.535 21.1969 337.939 21.1969V79.4996H334.161C333.493 78.6655 332.929 78.0376 332.15 77.17C331.668 76.6337 331.103 76.0057 330.382 75.1808L294.212 35.7726V79.7695C293.938 79.7695 293.54 79.7075 293.081 79.6361C292.184 79.4966 291.056 79.3211 290.164 79.4996C289.759 79.4996 289.421 79.567 289.084 79.6345C288.747 79.702 288.409 79.7695 288.004 79.7695V21.4668H292.323L331.461 63.8442V21.1969C331.866 21.1969 332.474 21.2644 333.081 21.3319C333.688 21.3993 334.296 21.4668 334.7 21.4668C335.105 21.4668 335.713 21.3993 336.32 21.3319Z" fill="white"/>
<path d="M371.949 27.1351H360.343V46.5694H370.33C373.029 46.5694 378.158 46.2994 380.857 46.0295C380.857 46.2994 380.789 46.9742 380.722 47.649C380.654 48.3238 380.587 48.9986 380.587 49.2686C380.587 50.0783 380.587 51.158 380.857 51.9677C378.158 51.6978 371.14 51.4279 368.44 51.4279H360.343V74.1012C363.04 74.1012 364.188 74.1012 365.334 74.0675C366.482 74.0338 367.629 73.9663 370.33 73.8312C373.029 73.8312 380.587 73.2914 383.286 72.7516C383.286 73.3302 383.208 74.1413 383.137 74.8942C383.074 75.5463 383.016 76.1546 383.016 76.5304C383.016 76.9353 383.084 77.4752 383.151 78.015C383.218 78.5548 383.286 79.0947 383.286 79.4996H351.705V21.4668H382.476C382.476 21.8717 382.409 22.479 382.341 23.0863C382.274 23.6937 382.206 24.301 382.206 24.7059C382.206 25.2845 382.361 26.0181 382.505 26.699C382.63 27.2888 382.746 27.839 382.746 28.2148C382.746 28.2148 374.649 27.1351 371.949 27.1351Z" fill="white"/>
<path fill-rule="evenodd" clip-rule="evenodd" d="M134.69 79.4996C133.34 79.4996 131.721 79.4995 130.371 79.7695V21.4668H149.266C162.222 21.4668 168.16 26.3254 168.16 34.9628C168.16 44.9498 158.983 50.0783 151.695 51.4279L163.301 66.0036L174.368 79.7695C173.387 79.7695 172.115 79.6967 170.892 79.6267C169.759 79.5619 168.669 79.4996 167.89 79.4996C166.873 79.3301 165.644 79.4798 164.536 79.6147C163.879 79.6947 163.264 79.7695 162.762 79.7695C162.318 79.1351 161.888 78.5157 161.467 77.9077C160.096 75.9285 158.809 74.0701 157.363 72.2117L147.916 60.0653L141.168 51.9677H139.279V79.7695C139.279 79.7695 135.5 79.4996 134.69 79.4996ZM150.615 26.3254C147.646 25.7855 142.788 25.7855 139.279 26.0555H139.548V47.3791C139.764 47.3791 140.118 47.4005 140.58 47.4285C142.435 47.5406 146.023 47.7576 149.266 47.1092C154.934 45.7596 159.253 41.9807 159.253 36.0425C159.253 30.6441 156.553 27.1351 150.615 26.3254Z" fill="white"/>
<path fill-rule="evenodd" clip-rule="evenodd" d="M397.322 79.4996C395.972 79.4996 394.353 79.4995 393.003 79.7695V21.4668H411.628C424.854 21.4668 430.792 26.3254 430.792 34.9628C430.792 44.9498 421.615 50.0783 414.327 51.4279L425.933 66.0036L437 79.7695C436.019 79.7695 434.747 79.6967 433.523 79.6267C432.391 79.5619 431.3 79.4996 430.522 79.4996C429.505 79.3301 428.276 79.4798 427.168 79.6146C426.511 79.6946 425.896 79.7695 425.393 79.7695C424.233 78.3185 423.306 76.9454 422.403 75.6085C421.627 74.4584 420.869 73.3351 419.995 72.2117L410.548 60.0653L403.8 51.9677H401.91V79.7695C401.91 79.7695 398.132 79.4996 397.322 79.4996ZM413.247 26.3254C410.548 25.7855 405.689 25.7855 402.18 26.0555V47.3791C402.395 47.3791 402.75 47.4005 403.212 47.4285C405.067 47.5406 408.655 47.7576 411.897 47.1092C417.566 45.7596 421.884 41.9807 421.884 36.0425C421.884 30.6441 419.185 27.1351 413.247 26.3254Z" fill="white"/>
<path fill-rule="evenodd" clip-rule="evenodd" d="M50.475 0.413086C22.6733 0.413086 0 23.0863 0 50.8881C0 78.6898 22.6733 101.093 50.475 101.093C78.2767 101.093 100.68 78.6898 100.68 50.8881C100.68 23.0863 78.2767 0.413086 50.475 0.413086ZM51.2847 30.1043C51.8246 26.3254 50.2051 19.3075 38.8684 22.2766C29.4212 24.4359 19.7041 35.5027 18.3545 40.0913C18.3545 43.0604 20.7838 41.7108 20.7838 41.7108C22.8456 40.1341 24.0355 38.6664 25.137 37.3077C26.487 35.6426 27.7042 34.1412 30.231 32.8035C33.74 30.914 34.0099 34.423 33.74 35.7726C33.74 37.9319 20.7838 76.8004 20.7838 76.8004C20.7838 76.8004 19.7041 79.2297 23.483 79.4996L34.2798 79.7695C37.5188 79.4996 38.8684 77.6101 38.8684 77.6101C43.4571 68.4329 47.7758 57.3662 47.7758 57.3662C47.7758 57.3662 53.714 44.1401 62.3514 34.6929C63.971 33.0734 66.9401 32.5335 67.7498 34.423C68.2897 39.0116 69.0994 41.7108 73.958 42.5206C81.7857 43.8702 91.2329 29.8343 80.9759 23.0864C80.9759 23.0864 78.0068 21.7368 75.3076 21.7368C64.7192 21.5015 57.0024 33.3681 50.3692 43.5684C49.3932 45.0693 48.4406 46.5341 47.5059 47.919C47.9749 46.0428 48.394 44.4827 48.7715 43.0776C49.9147 38.8224 50.676 35.9888 51.2847 30.1043Z" fill="white"/>
</svg>
