<svg width="34" height="45" viewBox="0 0 34 45" fill="none" xmlns="http://www.w3.org/2000/svg">
<mask id="mask0" style="mask-type:alpha" maskUnits="userSpaceOnUse" x="0" y="0" width="34" height="45">
<path fill-rule="evenodd" clip-rule="evenodd" d="M0 0H33.8441V45H0V0Z" fill="white"/>
</mask>
<g mask="url(#mask0)">
<path fill-rule="evenodd" clip-rule="evenodd" d="M32.8075 43.9718H1.03711V18.9397H4.3272V13.5591C4.35581 6.65137 10.0156 1.03175 16.945 1.03175C23.8715 1.03175 29.5075 6.67292 29.5075 13.609L29.5243 18.9397H32.8075V43.9718ZM30.556 17.9109L30.5441 13.5558C30.5165 6.08097 24.4158 0 16.9447 0C9.41549 0 3.29009 6.1035 3.29009 13.6058V17.9109H0V45H33.8441V17.9109H30.556Z" fill="#F3652B"/>
</g>
<path fill-rule="evenodd" clip-rule="evenodd" d="M7.61902 17.9118V13.5578C7.61902 8.46223 11.7901 4.31584 16.9171 4.31584C22.0441 4.31584 26.2152 8.46223 26.2152 13.5588L26.2211 17.9118H7.61902ZM16.9184 3.28809C11.2192 3.28809 6.5835 7.89486 6.5835 13.5585V18.9411H27.2623L27.2524 13.5585C27.2524 7.89486 22.6167 3.28809 16.9184 3.28809Z" fill="#F3652B"/>
<path fill-rule="evenodd" clip-rule="evenodd" d="M19.6187 37.4753H14.2273L15.5749 30.9075L15.561 30.6067L15.347 30.4598C14.6031 29.9505 14.1592 29.1129 14.1592 28.2186C14.1592 26.7141 15.3894 25.4906 16.9027 25.4906C18.4181 25.4906 19.6502 26.7141 19.6502 28.2186C19.6502 29.0983 19.2171 29.9289 18.425 30.4863L18.2129 30.6342L19.6187 37.4753ZM20.6861 28.2191C20.6861 26.1483 18.9882 24.4625 16.9017 24.4625C14.8181 24.4625 13.1213 26.1483 13.1213 28.2191C13.1213 29.3299 13.6244 30.3878 14.4788 31.0989L12.9556 38.5042H20.8843L19.3592 31.0705C20.1938 30.3593 20.6861 29.3122 20.6861 28.2191Z" fill="#F3652B"/>
</svg>
