<svg width="42" height="42" viewBox="0 0 42 42" fill="none" xmlns="http://www.w3.org/2000/svg">
<g clip-path="url(#clip0)">
<path d="M19.3998 11.34V7.89282H0.436523V34.8595H14.7027L13.1432 38.0636H24.2155L22.5562 34.8595H36.866L36.8723 28.5199H33.3666" stroke="#F3652B" stroke-width="1.4" stroke-miterlimit="10"/>
<path d="M35.4999 20.7093L34.8075 17.3369C35.1943 17.0688 35.45 16.62 35.45 16.1151C35.45 15.2922 34.7826 14.6252 33.9592 14.6252C33.1358 14.6252 32.4683 15.2922 32.4683 16.1151C32.4683 16.6075 32.7116 17.0439 33.0796 17.3119L32.3872 20.7093H35.4999Z" stroke="#F3652B" stroke-width="1.4" stroke-miterlimit="10"/>
<path d="M41.5568 11.5581H26.355V23.7137H41.5568V11.5581Z" stroke="#F3652B" stroke-width="1.4" stroke-miterlimit="10"/>
<path d="M40.0724 11.5582V9.23308C40.0724 5.92302 37.3527 3.23633 33.9966 3.23633C30.6406 3.23633 27.9209 5.92302 27.9209 9.23308V11.5582" stroke="#F3652B" stroke-width="1.4" stroke-miterlimit="10"/>
</g>
<defs>
<clipPath id="clip0">
<rect width="42" height="35.7" fill="white" transform="translate(0 2.80005)"/>
</clipPath>
</defs>
</svg>
