<svg width="45" height="45" viewBox="0 0 45 45" fill="none" xmlns="http://www.w3.org/2000/svg">
<g clip-path="url(#clip0)">
<path d="M8.11599 25.1948C8.16935 24.618 8.59618 16.6815 11.6107 11.8347C14.3184 7.47855 16.9728 6.71606 16.9728 6.71606C16.9728 6.71606 14.6585 12.2988 14.9453 17.013C15.2521 22.1316 17.6664 25.4534 17.6664 25.4534C17.6664 25.4534 20.074 24.6777 20.8676 21.4686C21.5212 18.8297 21.2878 17.2848 21.0877 14.2813C23.0685 16.35 28.8107 25.9706 23.0818 33.6485C18.5601 39.7087 7.96927 38.4887 4.68132 33.9933C0.0528481 27.6613 2.38042 21.2034 4.14111 19.2275C3.91435 22.8411 6.90885 24.923 8.11599 25.1948Z" stroke="#F3652B" stroke-width="1.4" stroke-miterlimit="10"/>
<path d="M43.7831 12.027H34.5662V18.538H43.7831V12.027Z" stroke="#F3652B" stroke-width="1.4" stroke-miterlimit="10"/>
<path d="M43.7899 21.7935H29.8845V28.3575H43.7899V21.7935Z" stroke="#F3652B" stroke-width="1.4" stroke-miterlimit="10"/>
<path d="M43.7897 31.3544H34.3994V37.7858H43.7897V31.3544Z" stroke="#F3652B" stroke-width="1.4" stroke-miterlimit="10"/>
<path d="M31.6253 37.7858C31.6253 37.7858 24.2158 37.7858 23.989 37.7858C24.4692 37.3747 25.5563 36.3934 26.4566 34.9082C27.2103 33.675 27.8172 31.3544 27.8172 31.3544H31.6253V37.7858Z" stroke="#F3652B" stroke-width="1.4" stroke-miterlimit="10"/>
<path d="M31.6253 18.538C31.6253 18.538 27.7038 18.538 27.3637 18.538C27.1903 18.1004 26.3833 16.1179 26.0565 15.2825C25.3896 13.5984 23.989 12.027 23.989 12.027H31.6253V18.538Z" stroke="#F3652B" stroke-width="1.4" stroke-miterlimit="10"/>
</g>
<defs>
<clipPath id="clip0">
<rect width="42.75" height="32.25" fill="white" transform="translate(1.5 6)"/>
</clipPath>
</defs>
</svg>
