<svg width="16" height="17" viewBox="0 0 16 17" fill="none" xmlns="http://www.w3.org/2000/svg">
<g clip-path="url(#clip0_1678_624)">
<path d="M14.8571 9.5L15.8571 9.5L15.8571 7.5L14.8571 7.5L14.8571 9.5ZM1.14283 7.5L0.14283 7.5L0.14283 9.5L1.14283 9.5L1.14283 7.5ZM14.8571 7.5L1.14283 7.5L1.14283 9.5L14.8571 9.5L14.8571 7.5Z" fill="#1E1E1E"/>
<path d="M14.6667 9.5L15.6667 9.5L15.6667 7.5L14.6667 7.5L14.6667 9.5ZM1.33336 7.5L0.333355 7.5L0.333355 9.5L1.33335 9.5L1.33336 7.5ZM14.6667 7.5L1.33336 7.5L1.33335 9.5L14.6667 9.5L14.6667 7.5Z" fill="#1E1E1E"/>
</g>
<defs>
<clipPath id="clip0_1678_624">
<rect width="16" height="16" fill="white" transform="translate(16 16.5) rotate(-180)"/>
</clipPath>
</defs>
</svg>
