<svg width="34" height="45" viewBox="0 0 34 45" fill="none" xmlns="http://www.w3.org/2000/svg">
<path d="M20.2626 37.7234L18.7877 30.6458C19.5922 30.0671 20.1285 29.1323 20.1285 28.064C20.1285 26.328 18.6983 24.9481 17 24.9481C15.257 24.9481 13.8715 26.3725 13.8715 28.064C13.8715 29.0878 14.3631 30.0226 15.1676 30.6013L13.6927 37.7234H20.2626Z" stroke="#F3652B" stroke-miterlimit="10"/>
<path d="M29.8716 18.4937V13.5972C29.8716 6.65317 24.151 1 17.0895 1C10.028 1 4.30737 6.65317 4.30737 13.5972V18.4937" stroke="#F3652B" stroke-miterlimit="10"/>
<path d="M26.9705 18.494L26.9703 13.5972C26.9703 8.25132 22.548 3.91976 17.0892 3.91976C11.6304 3.91976 7.20812 8.25132 7.20812 13.5972V18.494" stroke="#F3652B" stroke-miterlimit="10"/>
</svg>
