<svg width="42" height="37" viewBox="0 0 42 37" fill="none" xmlns="http://www.w3.org/2000/svg">
<path d="M20.5593 8.60785V5.05452H1V32.8515H15.7145L14.106 36.1542H25.5263L23.8149 32.8515H38.5744L38.5808 26.3167H34.9649M36.9466 15.6246V22.5706L33.202 18.0727L29.4574 22.5706V15.6246M41 8.78777C41 13.0888 37.5087 16.5755 33.202 16.5755C28.8953 16.5755 25.4041 13.0888 25.4041 8.78777C25.4041 4.4867 28.8953 1 33.202 1C37.5087 1 41 4.4867 41 8.78777ZM38.0725 8.78778C38.0725 11.4742 35.8919 13.6519 33.202 13.6519C30.5121 13.6519 28.3315 11.4742 28.3315 8.78778C28.3315 6.10139 30.5121 3.92364 33.202 3.92364C35.8919 3.92364 38.0725 6.10139 38.0725 8.78778Z" stroke="#F3652B" stroke-miterlimit="10"/>
</svg>
