<svg viewBox="0 0 440 233" fill="none" xmlns="http://www.w3.org/2000/svg">
<g clip-path="url(#clip0)">
<path d="M318.914 203.704C318.919 201.219 318.16 198.793 316.74 196.759C315.321 194.724 313.31 193.181 310.984 192.341C311.461 189.837 311.383 187.258 310.755 184.788C310.128 182.318 308.967 180.018 307.354 178.051C305.741 176.083 303.717 174.498 301.425 173.407C299.134 172.315 296.631 171.746 294.095 171.738C291.37 171.735 288.684 172.383 286.257 173.63C283.831 174.876 281.735 176.685 280.141 178.908C278.789 177.858 277.171 177.21 275.471 177.037C273.772 176.865 272.058 177.175 270.524 177.932C268.991 178.69 267.699 179.864 266.796 181.322C265.893 182.78 265.414 184.463 265.415 186.181C265.418 187.275 265.61 188.361 265.981 189.39C263.647 190.23 261.628 191.773 260.199 193.81C258.77 195.847 258.002 198.277 257.999 200.77C257.996 203.262 258.759 205.694 260.183 207.734C261.607 209.774 263.623 211.322 265.955 212.167C265.206 216.032 265.794 220.037 267.621 223.52C269.449 227.002 272.406 229.751 276.002 231.311C279.597 232.87 283.616 233.147 287.389 232.094C291.163 231.041 294.465 228.723 296.747 225.523C298.336 226.793 300.304 227.486 302.334 227.49C304.757 227.489 307.082 226.521 308.796 224.798C310.509 223.075 311.473 220.738 311.473 218.302C311.469 217.207 311.278 216.121 310.907 215.092C313.24 214.246 315.259 212.7 316.691 210.663C318.123 208.627 318.899 206.197 318.914 203.704Z" fill="white"/>
<path d="M281.943 198.009L295.279 204.117L308.718 192.263C308.917 191.284 309.012 190.286 309.001 189.286C309.004 186.06 307.978 182.917 306.075 180.319C304.171 177.722 301.491 175.805 298.425 174.85C295.36 173.895 292.07 173.952 289.039 175.013C286.009 176.074 283.395 178.082 281.582 180.745L279.343 192.418L281.943 198.009Z" fill="#FED10A"/>
<path d="M268.144 212.193C267.945 213.19 267.851 214.205 267.861 215.221C267.865 218.461 268.901 221.615 270.817 224.219C272.734 226.824 275.43 228.743 278.51 229.695C281.59 230.648 284.893 230.583 287.934 229.51C290.975 228.438 293.595 226.415 295.409 223.737L297.623 212.115L294.662 206.421L281.274 200.287L268.144 212.193Z" fill="#24BBB1"/>
<path d="M268.067 189.002L277.206 191.176L279.214 180.745C277.975 179.791 276.46 179.267 274.899 179.252C273.337 179.238 271.813 179.733 270.556 180.665C269.299 181.596 268.377 182.912 267.928 184.416C267.479 185.919 267.528 187.529 268.067 189.002Z" fill="#EF5098"/>
<path d="M267.268 191.202C265.291 191.854 263.563 193.106 262.323 194.787C261.083 196.467 260.391 198.492 260.343 200.584C260.295 202.676 260.893 204.731 262.055 206.467C263.217 208.203 264.885 209.534 266.83 210.277L279.652 198.63L277.309 193.583L267.268 191.202Z" fill="#17A8E0"/>
<path d="M297.725 223.737C298.966 224.68 300.477 225.194 302.032 225.202C303.587 225.211 305.103 224.714 306.354 223.785C307.605 222.857 308.524 221.546 308.973 220.049C309.423 218.552 309.379 216.95 308.847 215.48L299.733 213.332L297.725 223.737Z" fill="#93C83E"/>
<path d="M299.578 210.924L309.619 213.28C311.596 212.627 313.324 211.375 314.564 209.695C315.804 208.015 316.496 205.989 316.544 203.897C316.592 201.806 315.994 199.75 314.832 198.014C313.67 196.279 312.002 194.947 310.057 194.204L296.927 205.774L299.578 210.924Z" fill="#0779A1"/>
<path d="M343.166 214.574L344.376 214.445L344.453 216.929C341.742 217.336 339.007 217.56 336.266 217.602C333.254 217.602 331.117 216.722 329.856 214.962C328.594 213.202 327.976 210.459 327.976 206.757C327.976 199.355 330.903 195.654 336.756 195.654C339.588 195.654 341.699 196.456 343.089 198.035C344.479 199.614 345.174 202.124 345.174 205.515L344.994 207.922H331.143C331.143 210.252 331.555 211.986 332.405 213.099C333.254 214.212 334.696 214.781 336.781 214.781C338.912 214.828 341.043 214.759 343.166 214.574ZM342.033 205.437C342.033 202.849 341.621 201.011 340.798 199.95C339.974 198.889 338.635 198.345 336.781 198.345C334.928 198.345 333.512 198.915 332.585 200.028C331.658 201.141 331.169 202.953 331.143 205.437H342.033ZM349.551 217.214V186.931H352.692V217.214H349.551ZM372.542 202.487V212.866C372.542 213.927 375.142 214.134 375.142 214.134L374.988 216.929C372.773 216.929 370.945 217.111 369.838 216.049C367.462 217.103 364.892 217.641 362.295 217.628C360.364 217.628 358.897 217.085 357.893 215.972C356.888 214.859 356.374 213.306 356.374 211.235C356.374 209.165 356.888 207.663 357.918 206.706C358.948 205.748 360.57 205.127 362.784 204.92L369.375 204.298V202.487C369.375 201.063 369.066 200.028 368.448 199.407C367.83 198.785 366.981 198.475 365.925 198.475H357.661V195.679H365.719C368.088 195.679 369.813 196.223 370.894 197.336C371.975 198.449 372.542 200.157 372.542 202.487ZM359.617 211.08C359.617 213.668 360.673 214.962 362.81 214.962C364.721 214.966 366.619 214.642 368.422 214.005L369.375 213.668V206.706L363.17 207.301C361.909 207.404 361.008 207.767 360.441 208.388C359.875 209.009 359.617 209.915 359.617 211.08ZM384.822 198.501C381.784 198.501 380.24 199.562 380.24 201.71C380.24 202.694 380.6 203.393 381.295 203.807C381.99 204.221 383.586 204.635 386.084 205.075C388.581 205.515 390.332 206.11 391.362 206.913C392.391 207.715 392.906 209.164 392.906 211.339C392.906 213.513 392.211 215.092 390.821 216.101C389.431 217.111 387.423 217.628 384.745 217.628C383.02 217.628 377.227 216.981 377.227 216.981L377.408 214.238C380.729 214.548 383.149 214.807 384.771 214.807C386.393 214.807 387.629 214.548 388.478 214.031C389.328 213.513 389.765 212.633 389.765 211.416C389.765 210.2 389.405 209.372 388.684 208.932C387.963 208.492 386.367 208.077 383.895 207.689C381.424 207.301 379.673 206.731 378.643 205.955C377.614 205.178 377.099 203.781 377.099 201.736C377.099 199.691 377.82 198.164 379.261 197.181C380.703 196.197 382.505 195.705 384.642 195.705C386.341 195.705 392.263 196.145 392.263 196.145V198.915C389.148 198.734 386.599 198.501 384.822 198.501ZM408.096 198.863H401.428V208.957C401.428 211.365 401.608 212.969 401.943 213.72C402.278 214.471 403.127 214.859 404.44 214.859L408.173 214.6L408.379 217.214C406.968 217.477 405.54 217.633 404.106 217.68C401.917 217.68 400.424 217.136 399.574 216.075C398.725 215.014 398.313 212.969 398.313 209.967V198.863H395.326V196.119H398.313V189.649H401.428V196.094H408.096V198.863ZM412.473 191.331V187.682H415.614V191.357L412.473 191.331ZM412.473 217.214V196.119H415.614V217.214H412.473ZM429.259 195.679C430.186 195.679 431.756 195.861 433.97 196.197L434.974 196.326L434.846 198.889C433.206 198.674 431.556 198.545 429.903 198.501C427.534 198.501 425.912 199.07 425.062 200.209C424.213 201.348 423.775 203.47 423.775 206.55C423.775 209.63 424.161 211.779 424.959 212.995C425.758 214.212 427.405 214.807 429.928 214.807L434.871 214.419L435 217.033C432.4 217.421 430.443 217.628 429.156 217.628C425.886 217.628 423.621 216.774 422.385 215.092C421.149 213.409 420.505 210.562 420.505 206.55C420.505 202.538 421.175 199.717 422.514 198.112C423.852 196.508 426.118 195.679 429.259 195.679Z" fill="black"/>
</g>
<g clip-path="url(#clip1)">
<path d="M24.7583 170.823C24.7583 172.004 24.5123 173.101 24.0202 174.115C23.528 175.115 22.8308 175.976 21.9556 176.671C21.067 177.379 20.0144 177.921 18.7972 178.309C17.5806 178.698 16.2409 178.893 14.7915 178.893C13.0549 178.893 11.4967 178.656 10.13 178.17C8.7629 177.698 7.38216 176.893 6.00098 175.781L8.28457 172.017C9.3782 172.947 10.3621 173.627 11.2515 174.059C12.1265 174.489 13.0287 174.697 13.9587 174.697C15.0934 174.697 15.9957 174.406 16.6935 173.809C17.3908 173.211 17.7188 172.42 17.7188 171.406C17.7188 170.975 17.6505 170.573 17.5274 170.198C17.4044 169.823 17.172 169.434 16.844 169.031C16.5158 168.642 16.0511 168.198 15.4632 167.739C14.889 167.281 14.1372 166.698 13.2072 166.017C12.5099 165.517 11.8128 164.989 11.1427 164.461C10.4728 163.919 9.87133 163.35 9.3103 162.738C8.76348 162.127 8.32606 161.447 7.98425 160.683C7.65607 159.933 7.47849 159.058 7.47849 158.099C7.47849 156.988 7.71091 155.96 8.16197 155.043C8.61303 154.126 9.24196 153.348 10.035 152.696C10.8279 152.043 11.7716 151.543 12.8916 151.183C13.9989 150.822 15.2014 150.641 16.5143 150.641C17.8951 150.641 19.2216 150.822 20.5055 151.197C21.7905 151.572 22.9806 152.113 24.0876 152.835L22.0231 156.224C20.6151 155.224 19.1244 154.711 17.5662 154.711C16.6229 154.711 15.8296 154.961 15.2144 155.461C14.5993 155.961 14.2847 156.586 14.2847 157.35C14.2847 158.072 14.5582 158.725 15.105 159.295C15.6518 159.878 16.595 160.67 17.9356 161.725C19.289 162.725 20.4107 163.614 21.2855 164.363C22.1741 165.113 22.8713 165.836 23.3906 166.503C23.9102 167.169 24.252 167.836 24.457 168.53C24.662 169.238 24.7578 169.988 24.7578 170.822L24.7583 170.823ZM48.2036 164.476C48.2036 165.518 48.0942 166.643 47.8756 167.851C47.6704 169.059 47.3013 170.171 46.7819 171.198C46.2624 172.226 45.5925 173.074 44.758 173.726C43.9241 174.393 42.8575 174.726 41.5865 174.726C39.4538 174.726 37.7723 173.865 36.542 172.129C35.3116 170.407 34.6966 168.032 34.6966 165.018C34.6966 161.921 35.3117 159.477 36.5696 157.657C37.8137 155.838 39.509 154.935 41.6417 154.935C43.6656 154.935 45.2644 155.796 46.4395 157.491C47.6153 159.199 48.2037 161.532 48.2037 164.477L48.2036 164.476ZM55.6129 164.212C55.6129 162.198 55.3258 160.365 54.7654 158.727C54.1911 157.074 53.3982 155.657 52.3454 154.463C51.2928 153.269 50.0618 152.352 48.6269 151.685C47.1921 151.018 45.6063 150.685 43.8697 150.685C41.9561 150.685 40.2746 151.06 38.8252 151.783C37.3761 152.519 36.0222 153.671 34.7919 155.254L34.751 151.323H27.9292V191.721H34.7379V174.658C35.4078 175.449 36.0502 176.116 36.6791 176.657C37.2943 177.199 37.9232 177.643 38.5652 177.977C39.2076 178.31 39.8775 178.56 40.5877 178.699C41.2986 178.838 42.0646 178.907 42.8712 178.907C44.6761 178.907 46.3706 178.532 47.9288 177.81C49.487 177.074 50.8406 176.046 51.9751 174.712C53.1097 173.379 53.999 171.824 54.6417 170.06C55.2979 168.282 55.6123 166.324 55.6123 164.212L55.6129 164.212ZM58.648 178.254H65.6468V138.725H58.648V178.254ZM95.4989 178.268V151.297H88.5001V165.81C88.5001 167.102 88.4454 168.103 88.336 168.811C88.2266 169.519 88.0489 170.144 87.8028 170.727C86.8186 172.949 84.9999 174.075 82.3623 174.075C80.2977 174.075 78.8629 173.325 78.0417 171.811C77.7137 171.242 77.4949 170.589 77.3719 169.866C77.2488 169.144 77.1805 168.103 77.1805 166.727V151.299H70.1818V166.624C70.1818 167.666 70.1954 168.554 70.2092 169.263C70.2228 169.971 70.2775 170.624 70.3458 171.179C70.4142 171.735 70.4962 172.235 70.5919 172.666C70.6739 173.097 70.8107 173.514 70.9884 173.902C71.6308 175.556 72.6569 176.806 74.0917 177.652C75.5272 178.499 77.2908 178.916 79.3684 178.916C81.2414 178.916 82.8953 178.583 84.3171 177.916C85.7389 177.249 87.1201 176.166 88.4592 174.652L88.4728 178.264L95.4992 178.277L95.4989 178.268ZM125.661 178.254V162.958C125.661 161.916 125.648 161.028 125.634 160.292C125.62 159.556 125.579 158.917 125.497 158.375C125.429 157.833 125.333 157.361 125.238 156.958C125.128 156.542 125.005 156.139 124.869 155.75C124.226 154.139 123.2 152.889 121.765 152.013C120.33 151.137 118.566 150.694 116.474 150.694C114.601 150.694 112.947 151.027 111.525 151.694C110.104 152.36 108.722 153.458 107.383 154.958L107.37 151.346H100.329V178.259H107.383V163.731C107.383 162.481 107.424 161.494 107.519 160.8C107.601 160.105 107.779 159.452 108.025 158.827C108.476 157.743 109.187 156.938 110.13 156.383C111.074 155.828 112.195 155.55 113.506 155.55C115.571 155.55 117.006 156.3 117.827 157.814C118.142 158.383 118.36 159.036 118.483 159.744C118.606 160.452 118.675 161.508 118.675 162.87V178.225L125.66 178.239L125.661 178.254ZM154.62 176.476L143.958 163.017L152.966 153.212L147.662 150.893L138.284 161.935H137.545V138.733H130.491V178.262H137.545V163.943L148.099 178.798L154.619 176.477L154.62 176.476ZM181.881 166.809V162.406L160.67 151.6V156.446L177.107 164.572L160.67 172.807V177.543L181.881 166.808V166.809ZM162.73 144.608C161.431 144.608 160.378 145.691 160.378 147.026C160.378 148.387 161.431 149.456 162.73 149.456C164.043 149.456 165.082 148.387 165.082 147.026C165.082 145.678 164.043 144.608 162.73 144.608ZM162.744 144.983C163.796 144.983 164.643 145.9 164.643 147.038C164.643 148.177 163.796 149.094 162.744 149.08C161.678 149.08 160.829 148.178 160.829 147.025C160.829 145.9 161.678 144.983 162.744 144.983ZM162.293 147.275H162.579C162.921 147.275 163.085 147.4 163.153 147.748C163.209 148.109 163.277 148.345 163.332 148.428H163.783C163.741 148.345 163.673 148.178 163.619 147.762C163.564 147.359 163.413 147.151 163.168 147.109V147.081C163.455 146.998 163.687 146.776 163.687 146.428C163.687 146.178 163.605 145.984 163.441 145.873C163.277 145.748 163.017 145.664 162.621 145.664C162.306 145.664 162.087 145.692 161.87 145.734V148.428H162.293V147.275V147.275ZM162.293 146.025C162.361 146.011 162.457 145.998 162.593 145.998C163.072 145.998 163.236 146.234 163.236 146.47C163.236 146.803 162.934 146.928 162.593 146.928H162.293V146.025V146.025Z" fill="#0C1724"/>
</g>
<path d="M21.9634 34.5253C21.13 33.6685 19.9728 33.1408 18.6837 33.1408C17.3976 33.1408 16.2498 33.6685 15.4268 34.5253H15.4053C14.5744 35.3755 14.0588 36.5623 14.0588 37.8737C14.0588 39.1929 14.5744 40.3722 15.4053 41.2141L15.4268 41.2375C16.2498 42.0868 17.3976 42.6071 18.6837 42.6071C19.9728 42.6071 21.13 42.0868 21.9634 41.2375L21.9729 41.2141C22.8075 40.3722 23.3163 39.1929 23.3163 37.8737C23.3163 36.5623 22.8075 35.3755 21.9729 34.5253H21.9634ZM18.6837 99.3154C19.9728 99.3154 21.13 98.778 21.9634 97.937L21.9729 97.9128C22.8075 97.0732 23.3163 95.8863 23.3163 94.582C23.3163 93.2632 22.8075 92.0816 21.9729 91.227H21.9634C21.13 90.3622 19.9728 89.8394 18.6837 89.8394C17.3976 89.8394 16.2498 90.3622 15.4268 91.227H15.4053C14.5744 92.0816 14.0588 93.2632 14.0588 94.582C14.0588 95.8863 14.5744 97.0732 15.4053 97.9128L15.4268 97.937C16.2498 98.778 17.3976 99.3154 18.6837 99.3154ZM43.8824 84.9749C45.028 84.6665 46.0653 83.9143 46.6983 82.7763L46.7836 82.61C47.3467 81.5325 47.4501 80.2865 47.1488 79.1813C46.8453 78.0006 46.102 76.9532 44.9922 76.3019L44.9271 76.257C43.8458 75.649 42.6149 75.5166 41.484 75.8321C40.3338 76.1259 39.2998 76.9099 38.6703 78.0382C38.0326 79.1593 37.8995 80.448 38.2043 81.6345C38.5198 82.8019 39.2572 83.856 40.36 84.5148H40.3669C41.4719 85.1655 42.7218 85.2817 43.8824 84.9749H43.8824ZM23.4276 61.3777C22.2135 60.1388 20.5381 59.3623 18.6837 59.3623C16.8319 59.3623 15.1613 60.1388 13.9497 61.3777C12.7412 62.6154 11.9967 64.3225 11.9967 66.2201C11.9967 68.1178 12.7412 69.8323 13.9497 71.0846C15.1613 72.316 16.8319 73.0854 18.6837 73.0854C20.5381 73.0854 22.2135 72.316 23.4276 71.0846C24.6383 69.8323 25.3828 68.1178 25.3828 66.2201C25.3828 64.3225 24.6383 62.6154 23.4276 61.3777ZM20.76 53.3114C23.4513 53.765 25.8688 55.0842 27.7162 56.989H27.7304C28.0244 57.2886 28.3102 57.6186 28.5758 57.9487L33.1939 55.2153C32.5726 53.2956 32.5441 51.2885 33.043 49.4054C33.7013 46.8855 35.2983 44.6287 37.692 43.2151L37.7705 43.164C40.1383 41.793 42.8296 41.5079 45.259 42.1813C47.7192 42.8559 49.9388 44.4976 51.3201 46.9437V46.9509C52.6954 49.3837 52.974 52.1757 52.3182 54.6885C51.6638 57.2087 50.0607 59.4801 47.6693 60.8863L47.0385 61.2671H46.9746C44.762 62.3449 42.3304 62.5134 40.0966 61.9116C38.2625 61.414 36.5801 60.3656 35.2626 58.8792L30.6518 61.6045C31.1817 63.0399 31.4745 64.5859 31.4745 66.2201C31.4745 67.846 31.1817 69.4149 30.6518 70.8574L35.2626 73.5756C36.5801 72.0659 38.2625 71.0408 40.0966 70.5423C42.558 69.854 45.2849 70.1465 47.6693 71.5686L47.8222 71.6414V71.6485C50.1249 73.078 51.671 75.2827 52.3182 77.7735C52.974 80.2721 52.6954 83.065 51.3201 85.5027L51.237 85.6726L51.2273 85.6579C49.8463 88.0083 47.6692 89.6002 45.2659 90.2735C42.801 90.9384 40.0728 90.6543 37.692 89.253V89.2336C35.2982 87.8177 33.7012 85.5561 33.0429 83.0407C32.544 81.1663 32.5725 79.1593 33.1938 77.2396L28.5757 74.5133C28.3102 74.8433 28.0243 75.1588 27.7303 75.4584L27.7161 75.473C25.8687 77.3706 23.4512 78.6898 20.7599 79.1289V84.589C22.6782 84.9992 24.395 85.9809 25.7407 87.358L25.7479 87.3725C27.5515 89.2093 28.6682 91.7684 28.6682 94.582C28.6682 97.3863 27.5515 99.9308 25.7479 101.777L25.7407 101.806C23.9242 103.652 21.4334 104.795 18.6836 104.795C15.9484 104.795 13.4504 103.652 11.6387 101.806H11.6314V101.777C9.82578 99.9308 8.70654 97.3863 8.70654 94.582C8.70654 91.7684 9.82578 89.2093 11.6314 87.3725V87.358H11.6387C12.983 85.9809 14.7033 84.9992 16.615 84.589V79.1289C13.9234 78.6898 11.5106 77.3706 9.66574 75.473L9.6468 75.4584C7.34315 73.0925 5.90015 69.8323 5.90015 66.2201C5.90015 62.6154 7.34315 59.3548 9.6468 56.989H9.66574C11.5106 55.0842 13.9234 53.765 16.615 53.3114V47.8743C14.7034 47.4498 12.9831 46.4681 11.6387 45.0982H11.6315V45.0836C9.82585 43.2296 8.7066 40.6877 8.7066 37.8737C8.7066 35.0746 9.82585 32.5104 11.6315 30.6641L11.6387 30.6567C13.4504 28.8037 15.9485 27.6615 18.6837 27.6615C21.4335 27.6615 23.9243 28.8037 25.7408 30.6567V30.6641H25.748C27.5515 32.5104 28.6683 35.0746 28.6683 37.8737C28.6683 40.6877 27.5515 43.2296 25.748 45.0836L25.7408 45.0982C24.3951 46.4681 22.6783 47.4498 20.76 47.8743V53.3114ZM46.6983 49.6846L46.6594 49.6251C46.0226 48.5273 45.0064 47.7944 43.8824 47.4786C42.7218 47.1635 41.4719 47.2954 40.36 47.9484H40.3669C39.2571 48.5927 38.5151 49.6471 38.2043 50.8274C37.8994 51.9997 38.0326 53.2956 38.6703 54.4241L38.6915 54.4533C39.3308 55.567 40.3479 56.3143 41.484 56.6153C42.6243 56.9453 43.8966 56.8059 44.9922 56.1529L45.0517 56.1237C46.1304 55.465 46.8491 54.4241 47.1488 53.281C47.4549 52.1016 47.3325 50.8129 46.6982 49.6846" fill="#231F20"/>
<path d="M67.1877 51.2812H72.3404V67.3777L79.771 58.9667H85.9492L76.9785 68.711L85.9864 81.0629H80.0867L72.3404 70.0298V81.0629H67.1877V51.2812Z" fill="#231F20"/>
<path d="M91.9348 70.1105C91.9348 72.8514 93.8612 76.836 98.5023 76.836C101.374 76.836 103.264 75.3046 104.244 73.2978C104.757 72.3237 104.994 71.2824 105.073 70.1988C105.109 69.1505 104.915 68.0598 104.48 67.0917C103.576 65.0044 101.572 63.1944 98.4643 63.1944C94.2975 63.1944 91.9348 66.6523 91.9348 70.074V70.1105ZM110.184 81.0633H105.029V77.8844C103.657 80.4554 100.785 81.745 97.7553 81.745C90.8324 81.745 86.783 76.228 86.783 69.994C86.783 63.033 91.6985 58.285 97.7553 58.285C101.688 58.285 104.086 60.4179 105.029 62.1908V58.9671H110.184V81.0633Z" fill="#231F20"/>
<path d="M116.019 63.0328H113.348V58.967H116.019V57.7219C116.019 51.1566 120.897 50.7608 124.596 50.7172V54.7759C123.295 54.7759 121.174 54.7759 121.174 57.8821V58.967H124.596V63.0328H121.174V81.0631H116.019V63.0328Z" fill="#231F20"/>
<path d="M128.101 51.2812H133.252V67.3777L140.684 58.9667H146.862L137.891 68.711L146.897 81.0629H140.998L133.252 70.0298V81.0629H128.101V51.2812Z" fill="#231F20"/>
<path d="M152.847 70.1105C152.847 72.8514 154.773 76.836 159.415 76.836C162.282 76.836 164.172 75.3046 165.154 73.2978C165.669 72.3237 165.906 71.2824 165.984 70.1988C166.019 69.1505 165.826 68.0598 165.39 67.0917C164.488 65.0044 162.483 63.1944 159.377 63.1944C155.209 63.1944 152.847 66.6523 152.847 70.074V70.1105ZM171.095 81.0633H165.942V77.8844C164.566 80.4554 161.696 81.745 158.668 81.745C151.745 81.745 147.698 76.228 147.698 69.994C147.698 63.033 152.612 58.285 158.668 58.285C162.598 58.285 164.999 60.4179 165.942 62.1908V58.9671H171.095V81.0633Z" fill="#231F20"/>
<path d="M278.714 53.0536L281.553 61.2724H289.523L276.173 25.7075H269.1L255.751 61.2724H263.422L266.261 53.0536H278.714ZM272.438 34.1753L276.771 46.9269H268.144L272.438 34.1753Z" fill="#0079EF"/>
<path d="M290.56 35.2711V61.2722H297.533V46.2294C297.533 45.5269 297.677 44.8318 297.956 44.1872C298.254 43.4966 298.705 42.8833 299.276 42.394C299.819 41.916 300.468 41.5745 301.169 41.3978C301.885 41.2118 302.622 41.1197 303.361 41.1238C304.349 41.1053 305.336 41.2056 306.3 41.4227L307.147 35.0967C306.813 35.027 306.429 34.9722 306.001 34.9224C305.455 34.8671 304.906 34.8422 304.357 34.8477C302.998 34.8384 301.659 35.1816 300.472 35.8439C299.181 36.5796 298.1 37.6344 297.334 38.9072V35.2711H290.56Z" fill="#0079EF"/>
<path d="M323.14 51.858C323.103 53.1247 322.627 54.3393 321.795 55.295C321.368 55.7086 320.86 56.0286 320.303 56.2345C319.745 56.4403 319.151 56.5275 318.558 56.4904C317.631 56.5261 316.714 56.2925 315.918 55.818C315.219 55.3675 314.652 54.7403 314.274 53.9999C313.856 53.1693 313.57 52.2786 313.427 51.3599C313.258 50.3224 313.175 49.2729 313.178 48.2218C313.176 47.1956 313.259 46.1709 313.427 45.1585C313.573 44.245 313.867 43.3616 314.299 42.5434C314.689 41.8056 315.262 41.1798 315.962 40.7253C316.759 40.2508 317.676 40.0172 318.602 40.0529C320.067 40.0529 321.093 40.4564 321.691 41.2732C322.342 42.2281 322.736 43.3345 322.836 44.486L329.86 43.5396C329.713 42.2763 329.377 41.0422 328.863 39.8785C328.38 38.7845 327.666 37.8076 326.771 37.0144C325.804 36.176 324.677 35.5408 323.459 35.1465C321.97 34.6711 320.414 34.4439 318.851 34.4741C316.977 34.4384 315.114 34.777 313.372 35.4703C311.833 36.0936 310.454 37.0555 309.338 38.2846C308.215 39.5591 307.367 41.0513 306.847 42.6679C306.249 44.4921 305.955 46.402 305.975 48.3215C305.954 50.2237 306.206 52.1192 306.722 53.9501C307.166 55.5376 307.938 57.0141 308.989 58.2836C310.051 59.5118 311.392 60.4682 312.899 61.073C314.708 61.7755 316.638 62.114 318.577 62.0692C322.333 62.0692 325.156 61.1477 327.045 59.3047C328.935 57.4617 330.006 54.9712 330.258 51.8331L323.14 51.858Z" fill="#0079EF"/>
<path d="M356.688 59.0553C357.8 58.1205 358.686 56.9453 359.278 55.6184C359.869 54.2597 360.166 52.7914 360.149 51.3098C360.149 48.0887 359.253 45.623 357.46 43.9129C355.666 42.2027 352.844 40.9657 348.992 40.202L344.11 39.2556C342.317 38.887 341.047 38.3723 340.3 37.7114C339.553 37.0506 339.179 36.0544 339.179 34.7228C339.179 34.2259 339.28 33.7342 339.478 33.2783C339.704 32.7805 340.066 32.3572 340.524 32.0579C341.126 31.6633 341.791 31.3768 342.491 31.2111C343.511 30.9711 344.557 30.8623 345.605 30.8874C347.733 30.8874 349.319 31.3191 350.362 32.1825C351.404 33.0458 352.11 34.4571 352.479 36.4164L359.502 35.5198C359.349 34.1369 359.014 32.7802 358.506 31.4851C357.989 30.1816 357.179 29.0142 356.14 28.0731C354.924 27.0036 353.499 26.1979 351.956 25.7071C349.861 25.0553 347.673 24.7524 345.48 24.8105C343.589 24.7903 341.704 25.0163 339.871 25.4829C338.311 25.8694 336.835 26.5361 335.513 27.4504C334.323 28.2893 333.35 29.3991 332.674 30.6881C331.973 32.0768 331.622 33.6159 331.653 35.1711C331.618 36.6666 331.872 38.1549 332.4 39.5544C332.873 40.7452 333.614 41.8106 334.567 42.6676C335.593 43.5631 336.775 44.2637 338.053 44.7348C339.622 45.3103 341.239 45.7437 342.885 46.0298L347.517 46.8766C349.38 47.2402 350.655 47.828 351.353 48.6449C352.011 49.3582 352.384 50.2892 352.399 51.26C352.406 51.8891 352.296 52.5141 352.075 53.1029C351.855 53.6862 351.486 54.2015 351.004 54.5973C350.428 55.0525 349.768 55.3909 349.062 55.5935C348.106 55.8638 347.115 55.9897 346.123 55.9671C343.702 55.9671 341.867 55.469 340.619 54.4727C339.37 53.4765 338.664 51.8826 338.502 49.6909H330.98C331.179 53.875 332.566 57.0048 335.139 59.0802C337.713 61.1557 341.424 62.1934 346.272 62.1934C348.328 62.2313 350.377 61.9542 352.349 61.3715C353.937 60.9001 355.412 60.1122 356.688 59.0553Z" fill="#0079EF"/>
<path d="M368.567 25.7075H361.394V31.9837H368.567V25.7075Z" fill="#0079EF"/>
<path d="M368.467 35.271H361.494V61.2722H368.467V35.271Z" fill="#0079EF"/>
<path d="M383.207 71.4835C385.166 71.5324 387.116 71.22 388.961 70.562C390.453 70.0062 391.776 69.0705 392.796 67.8473C393.818 66.5673 394.549 65.08 394.938 63.4889C395.41 61.5745 395.636 59.6077 395.61 57.6361V35.2711H388.836V38.21C387.919 36.9233 386.671 35.908 385.225 35.2711C383.937 34.7434 382.557 34.4727 381.165 34.4742C379.526 34.4565 377.903 34.7965 376.408 35.4704C375.035 36.0892 373.818 37.0084 372.847 38.1602C371.848 39.3726 371.095 40.7685 370.63 42.2695C370.102 43.9619 369.841 45.7267 369.858 47.4997C369.858 51.4845 370.763 54.6558 372.573 57.0135C374.383 59.3712 377.114 60.5501 380.767 60.5501C382.342 60.5683 383.901 60.2276 385.324 59.5538C386.664 58.9109 387.807 57.9222 388.637 56.6897V57.4867C388.637 58.5825 388.595 59.6452 388.512 60.6746C388.449 61.6172 388.23 62.5429 387.865 63.4142C387.526 64.1992 386.963 64.8665 386.246 65.3319C385.324 65.8604 384.269 66.1112 383.207 66.0541C382.5 66.06 381.793 66.0184 381.091 65.9296C380.568 65.8635 380.062 65.7032 379.596 65.4564C379.189 65.2303 378.847 64.9047 378.6 64.51C378.317 64.0164 378.123 63.4769 378.027 62.9161H370.954C371.086 64.2172 371.431 65.4877 371.975 66.6768C372.481 67.7422 373.243 68.6661 374.192 69.3665C375.291 70.1409 376.537 70.6833 377.853 70.9605C379.612 71.3379 381.409 71.5134 383.207 71.4835ZM388.238 51.2853C387.988 52.083 387.562 52.8147 386.993 53.4271C386.46 53.9754 385.802 54.3857 385.075 54.6226C384.296 54.8766 383.48 55.0028 382.66 54.9962C381.922 55.0107 381.19 54.8645 380.515 54.5678C379.84 54.271 379.237 53.8308 378.749 53.2777C377.703 52.1321 377.18 50.1811 377.18 47.4249C377.157 46.2961 377.308 45.1703 377.629 44.0876C377.878 43.25 378.293 42.4709 378.849 41.7963C379.329 41.2216 379.946 40.7764 380.642 40.5013C381.333 40.2325 382.068 40.0972 382.809 40.1028C383.514 40.102 384.216 40.1856 384.901 40.3518C385.608 40.5141 386.26 40.8574 386.794 41.348C387.436 41.9691 387.915 42.739 388.189 43.5895C388.576 44.8127 388.753 46.0927 388.712 47.3751V48.0725C388.73 49.1617 388.572 50.2467 388.243 51.2853H388.238Z" fill="#0079EF"/>
<path d="M404.281 45.6318C404.272 44.8989 404.434 44.1741 404.754 43.5148C405.047 42.896 405.442 42.3316 405.925 41.8462C406.462 41.3641 407.076 40.9767 407.743 40.7005C408.481 40.417 409.268 40.2816 410.059 40.3021C410.567 40.2766 411.074 40.3514 411.553 40.5224C412.032 40.6933 412.472 40.957 412.849 41.2983C413.546 41.9624 413.895 43.2077 413.895 45.0341V61.2724H420.868V44.0877C420.868 40.767 420.154 38.3345 418.726 36.7904C417.298 35.2463 415.107 34.4742 412.151 34.4742C410.665 34.4704 409.199 34.8114 407.867 35.4704C406.439 36.1927 405.207 37.2527 404.281 38.5587V25.7075H397.308V61.2724H404.281V45.6318Z" fill="#0079EF"/>
<path d="M427.716 59.7181C429.091 61.0796 431.208 61.7604 434.067 61.7604C434.942 61.7564 435.815 61.6982 436.682 61.586C437.636 61.4586 438.578 61.2503 439.497 60.9634L438.5 55.8329C438.036 55.9634 437.561 56.0551 437.081 56.1069C436.609 56.1561 436.135 56.181 435.661 56.1816C434.867 56.2149 434.088 55.9582 433.47 55.4593C432.902 54.9612 432.623 54.0547 432.623 52.6948V40.7004H438.6V35.271H432.623V28.3374H425.649V35.2611H421.56V40.6905H425.644V52.8443C425.648 56.0687 426.338 58.36 427.716 59.7181Z" fill="#0079EF"/>
<path d="M271.69 14.4451H275.177V0H260.732V3.48675H271.69V14.4451Z" fill="#0079EF"/>
<path d="M271.689 14.445H260.731V3.48669H257.244V17.9318H271.689V14.445Z" fill="#0079EF"/>
<path d="M280.916 2.66988L283.118 5.87769H284.029L286.216 2.66988V7.73563H287.735V0.00500488H286.251L283.581 3.85537L280.916 0.00500488H279.402V7.73563H280.916V2.66988Z" fill="#0079EF"/>
<path d="M293.139 0.00500488H291.624V7.73563H293.139V0.00500488Z" fill="#0079EF"/>
<path d="M297.786 7.73562H303.848C303.95 7.73696 304.05 7.71804 304.144 7.67996C304.237 7.64189 304.322 7.58543 304.394 7.51393C304.465 7.44244 304.522 7.35734 304.56 7.26367C304.598 7.17 304.617 7.06965 304.616 6.96854V5.24011H303.121V6.23632H298.529V1.51925H303.076V2.51546H304.571V0.787033C304.576 0.58821 304.504 0.395128 304.369 0.249013C304.234 0.102898 304.047 0.0153296 303.848 0.00500488H297.786C297.685 0.00561548 297.585 0.0264835 297.492 0.0663768C297.399 0.10627 297.315 0.16438 297.245 0.237276C297.175 0.310172 297.12 0.396376 297.084 0.490798C297.048 0.585221 297.031 0.685948 297.034 0.787033V6.96854C297.032 7.06874 297.049 7.16846 297.086 7.26175C297.123 7.35505 297.178 7.44001 297.248 7.51158C297.318 7.58316 297.402 7.63988 297.494 7.67837C297.587 7.71686 297.686 7.73633 297.786 7.73562Z" fill="#0079EF"/>
<path d="M310.019 4.64736H311.902L314.168 7.73563H316.086L313.805 4.64736H315.299C315.4 4.64872 315.501 4.62964 315.595 4.59125C315.689 4.55287 315.775 4.49597 315.846 4.42394C315.918 4.35191 315.974 4.26621 316.012 4.17196C316.05 4.07771 316.068 3.97682 316.066 3.8753V0.787033C316.069 0.686533 316.051 0.586503 316.015 0.492705C315.979 0.398906 315.925 0.313193 315.855 0.240503C315.786 0.167812 315.703 0.109581 315.61 0.0691637C315.518 0.0287462 315.419 0.00694129 315.319 0.00500488H308.49V7.73563H309.984L310.019 4.64736ZM310.019 1.51925H314.567V3.13312H310.019V1.51925Z" fill="#0079EF"/>
<path d="M320.729 7.73564H326.796C326.897 7.737 326.997 7.71805 327.09 7.67992C327.184 7.64178 327.268 7.58525 327.339 7.51368C327.411 7.44211 327.467 7.35697 327.504 7.26332C327.542 7.16967 327.56 7.06943 327.558 6.96856V0.787052C327.561 0.685129 327.544 0.583578 327.507 0.488492C327.47 0.393407 327.415 0.306747 327.343 0.233713C327.272 0.160679 327.187 0.102776 327.093 0.0634779C326.999 0.0241802 326.898 0.0042979 326.796 0.00502408H320.729C320.628 0.00563468 320.528 0.0265027 320.435 0.066396C320.342 0.106289 320.258 0.164399 320.188 0.237295C320.118 0.310191 320.063 0.396395 320.027 0.490818C319.99 0.58524 319.973 0.685967 319.977 0.787052V6.96856C319.975 7.06858 319.993 7.168 320.03 7.26098C320.067 7.35397 320.122 7.43866 320.192 7.51009C320.262 7.58152 320.345 7.63827 320.438 7.677C320.53 7.71572 320.629 7.73566 320.729 7.73564ZM321.496 1.51927H326.044V6.22638H321.496V1.51927Z" fill="#0079EF"/>
<path d="M280.915 14.7739H285.463V13.2497H280.915V11.6557H286.977V10.1465H279.396V17.8771H280.915V14.7739Z" fill="#0079EF"/>
<path d="M289.842 17.8774H295.909C296.01 17.8787 296.11 17.8598 296.203 17.8217C296.297 17.7835 296.382 17.727 296.453 17.6554C296.524 17.5839 296.58 17.4987 296.617 17.4051C296.655 17.3114 296.673 17.2112 296.671 17.1103V10.9039C296.674 10.8024 296.656 10.7014 296.619 10.6069C296.582 10.5124 296.526 10.4263 296.455 10.3538C296.384 10.2813 296.299 10.2239 296.205 10.1849C296.111 10.1459 296.01 10.1261 295.909 10.1268H289.842C289.741 10.1275 289.642 10.1482 289.549 10.1878C289.457 10.2274 289.373 10.285 289.303 10.3574C289.233 10.4297 289.178 10.5153 289.141 10.6092C289.105 10.703 289.087 10.8032 289.09 10.9039V17.1103C289.089 17.2102 289.107 17.3093 289.144 17.402C289.181 17.4946 289.236 17.5791 289.306 17.6504C289.376 17.7217 289.46 17.7784 289.551 17.8174C289.643 17.8564 289.742 17.8767 289.842 17.8774ZM290.609 11.656H295.157V16.3831H290.609V11.656Z" fill="#0079EF"/>
<path d="M299.385 10.9039V17.1103C299.384 17.2102 299.402 17.3093 299.439 17.402C299.476 17.4946 299.532 17.5791 299.601 17.6504C299.671 17.7217 299.755 17.7784 299.847 17.8174C299.939 17.8564 300.037 17.8767 300.137 17.8774H306.204C306.305 17.8787 306.405 17.8598 306.499 17.8217C306.592 17.7835 306.677 17.727 306.748 17.6554C306.819 17.5839 306.875 17.4987 306.912 17.4051C306.95 17.3114 306.968 17.2112 306.966 17.1103V15.3869H305.472V16.3831H300.899V11.656H305.452V12.6523H306.946V10.9039C306.949 10.8024 306.931 10.7014 306.894 10.6069C306.857 10.5124 306.801 10.4263 306.73 10.3538C306.659 10.2813 306.574 10.2239 306.48 10.1849C306.386 10.1459 306.286 10.1261 306.184 10.1268H300.137C300.036 10.1275 299.937 10.1482 299.844 10.1878C299.752 10.2274 299.668 10.285 299.598 10.3574C299.528 10.4297 299.473 10.5153 299.436 10.6092C299.4 10.703 299.382 10.8032 299.385 10.9039Z" fill="#0079EF"/>
<path d="M309.682 10.1463V17.1198C309.681 17.219 309.7 17.3173 309.737 17.4092C309.775 17.501 309.83 17.5845 309.9 17.6549C309.97 17.7253 310.053 17.7811 310.145 17.8192C310.236 17.8573 310.335 17.8769 310.434 17.8769H316.501C316.602 17.8783 316.702 17.8593 316.795 17.8212C316.889 17.7831 316.973 17.7265 317.044 17.655C317.116 17.5834 317.172 17.4983 317.209 17.4046C317.247 17.311 317.265 17.2107 317.263 17.1098V10.1364H315.769V16.3826H311.221V10.1463H309.682Z" fill="#0079EF"/>
<path d="M320.729 17.8774H326.791C326.892 17.8787 326.992 17.8598 327.086 17.8217C327.18 17.7837 327.265 17.7272 327.336 17.6557C327.408 17.5842 327.464 17.4991 327.502 17.4054C327.54 17.3118 327.559 17.2114 327.558 17.1103V14.027C327.559 13.9255 327.54 13.8246 327.502 13.7304C327.464 13.6362 327.408 13.5505 327.337 13.4782C327.265 13.4059 327.18 13.3485 327.087 13.3093C326.993 13.2701 326.892 13.25 326.791 13.25H321.491V11.656H326.039V12.4729H327.558V10.9039C327.56 10.8021 327.542 10.701 327.504 10.6065C327.466 10.512 327.41 10.426 327.338 10.3535C327.267 10.2811 327.182 10.2237 327.088 10.1848C326.993 10.1459 326.893 10.1262 326.791 10.1268H320.729C320.628 10.1268 320.528 10.147 320.435 10.1864C320.342 10.2257 320.258 10.2834 320.188 10.3559C320.118 10.4284 320.063 10.5143 320.027 10.6084C319.99 10.7026 319.973 10.803 319.977 10.9039V13.9922C319.974 14.0931 319.992 14.1935 320.028 14.2876C320.064 14.3817 320.119 14.4677 320.189 14.5404C320.259 14.6132 320.343 14.6713 320.436 14.7114C320.528 14.7516 320.628 14.7729 320.729 14.7742H326.039V16.3831H321.491V15.5612H319.997V17.1203C319.995 17.3172 320.071 17.5068 320.208 17.6484C320.345 17.79 320.532 17.8722 320.729 17.8774Z" fill="#0079EF"/>
<path d="M330.303 1.59387H330.596L330.955 2.37092H331.189L330.816 1.56896C330.923 1.54944 331.019 1.48956 331.084 1.4016C331.149 1.31364 331.177 1.20423 331.164 1.09576C331.164 0.771994 331.005 0.597656 330.611 0.597656H330.113V2.37092H330.327L330.303 1.59387ZM330.303 0.791918H330.582C330.86 0.791918 330.95 0.866634 330.95 1.09576C330.95 1.32489 330.855 1.40957 330.611 1.40957H330.303V0.791918Z" fill="#0079EF"/>
<path d="M330.611 2.88907C330.797 2.88978 330.982 2.85323 331.153 2.78157C331.325 2.70992 331.481 2.60461 331.611 2.47185C331.742 2.33909 331.844 2.18156 331.913 2.00856C331.982 1.83555 332.015 1.65056 332.011 1.46449C331.99 1.10705 331.833 0.771255 331.572 0.525715C331.311 0.280176 330.967 0.143433 330.609 0.143433C330.251 0.143433 329.906 0.280176 329.645 0.525715C329.385 0.771255 329.228 1.10705 329.206 1.46449C329.202 1.65116 329.235 1.83687 329.303 2.01052C329.372 2.18417 329.475 2.3422 329.606 2.47517C329.737 2.60814 329.894 2.71332 330.067 2.78444C330.239 2.85555 330.424 2.89114 330.611 2.88907ZM330.611 0.209255C330.781 0.2045 330.95 0.234286 331.108 0.296807C331.266 0.359329 331.41 0.453284 331.53 0.572979C331.651 0.692673 331.746 0.835614 331.81 0.993139C331.874 1.15066 331.905 1.31949 331.901 1.48939C331.881 1.81316 331.738 2.11703 331.502 2.33914C331.265 2.56125 330.953 2.68489 330.629 2.68489C330.304 2.68489 329.992 2.56125 329.756 2.33914C329.519 2.11703 329.376 1.81316 329.356 1.48939C329.354 1.32282 329.385 1.15751 329.447 1.00293C329.509 0.848352 329.601 0.707553 329.718 0.588614C329.834 0.469675 329.973 0.374937 330.127 0.309836C330.28 0.244736 330.445 0.210555 330.611 0.209255Z" fill="#0079EF"/>
<path fill-rule="evenodd" clip-rule="evenodd" d="M403.579 141.061C406.931 141.061 410.283 141.061 413.636 141.061C414.051 139.172 414.466 137.282 414.881 135.392C417.752 135.392 420.715 135.411 423.585 135.411C424.987 135.411 426.227 134.976 427.33 134.23C428.66 133.331 429.654 131.953 430.027 130.253C430.658 127.377 431.293 124.501 431.927 121.626C432.289 119.985 432.76 118.131 431.584 116.648C430.501 115.284 429.065 115.178 427.488 115.178C416.133 115.191 404.778 115.178 393.423 115.178C392.276 115.178 391.316 115.549 390.314 116.066C389.374 115.401 388.526 115.178 387.374 115.178C382.179 115.178 376.983 115.178 371.788 115.178C372.213 113.262 372.639 111.347 373.064 109.431C369.707 109.431 366.349 109.431 362.992 109.431C362.577 111.3 362.161 113.169 361.746 115.038C358.793 115.038 355.841 115.038 352.888 115.038C351.664 115.038 350.489 115.422 349.463 116.081C348.468 115.462 347.701 115.193 346.523 115.193C336.776 115.193 327.029 115.193 317.283 115.193C317.729 113.252 318.175 111.311 318.622 109.369C315.269 109.364 311.917 109.359 308.564 109.353C306.632 118.001 304.699 126.648 302.766 135.295C306.116 135.296 309.465 135.297 312.814 135.298C313.821 130.873 314.829 126.447 315.836 122.021C316.97 122.021 318.103 122.021 319.236 122.021C319.641 122.021 319.561 122.252 319.493 122.557C318.54 126.804 317.588 131.051 316.635 135.298C338.838 135.298 361.042 135.298 383.246 135.298C384.377 135.298 385.261 135.064 386.278 134.545C387.281 135.215 388.167 135.438 389.392 135.428L404.82 135.298C404.406 137.219 403.992 139.14 403.579 141.061ZM360.073 122.04C359.085 122.04 358.096 122.04 357.108 122.04C356.588 122.04 356.448 122.277 356.344 122.744C355.973 124.409 355.602 126.075 355.231 127.74C355.125 128.219 355.367 128.297 355.786 128.297C356.748 128.297 357.71 128.297 358.671 128.297C359.139 126.212 359.606 124.126 360.073 122.04ZM377.082 122.161C378.137 122.161 379.193 122.161 380.249 122.161C380.858 122.161 380.825 122.48 380.715 122.974C380.352 124.606 379.99 126.237 379.627 127.869C379.501 128.439 379.146 128.429 378.656 128.429C377.582 128.429 376.508 128.429 375.433 128.429C374.96 128.429 374.956 128.149 375.04 127.766C375.401 126.135 375.763 124.504 376.124 122.872C376.257 122.268 376.495 122.161 377.082 122.161ZM397.93 122.161C398.986 122.161 400.041 122.161 401.097 122.161C401.707 122.161 401.673 122.48 401.564 122.974C401.201 124.606 400.838 126.237 400.475 127.869C400.349 128.439 399.994 128.429 399.505 128.429C398.431 128.429 397.356 128.429 396.282 128.429C395.808 128.429 395.804 128.149 395.888 127.766C396.25 126.135 396.611 124.504 396.972 122.872C397.106 122.268 397.344 122.161 397.93 122.161ZM416.522 128.476C417.51 128.476 418.499 128.476 419.487 128.476C420.007 128.476 420.148 128.239 420.251 127.772C420.622 126.107 420.993 124.441 421.365 122.775C421.47 122.297 421.228 122.218 420.81 122.218C419.848 122.218 418.886 122.218 417.924 122.218C417.456 124.304 416.989 126.39 416.522 128.476Z" fill="black"/>
<path fill-rule="evenodd" clip-rule="evenodd" d="M374.762 116.636H387.395C389.366 116.636 390.621 118.249 390.185 120.221L387.934 130.384C387.498 132.356 385.527 133.969 383.556 133.969H370.924C368.953 133.969 367.697 132.356 368.134 130.384L370.384 120.221C370.821 118.249 372.791 116.636 374.762 116.636ZM377.052 120.716H383.298C384.341 120.716 385.006 121.57 384.775 122.613L383.583 127.992C383.352 129.035 382.31 129.889 381.266 129.889H375.021C373.977 129.889 373.313 129.036 373.544 127.992L374.735 122.613C374.966 121.57 376.008 120.716 377.052 120.716Z" fill="#1F1917"/>
<path fill-rule="evenodd" clip-rule="evenodd" d="M395.586 116.636H408.218C410.19 116.636 411.445 118.249 411.008 120.221L408.758 130.384C408.321 132.356 406.351 133.969 404.38 133.969H391.747C389.776 133.969 388.52 132.356 388.957 130.384L391.208 120.221C391.645 118.249 393.614 116.636 395.586 116.636ZM397.876 120.716H404.122C405.165 120.716 405.829 121.57 405.598 122.613L404.407 127.992C404.176 129.035 403.133 129.889 402.09 129.889H395.844C394.801 129.889 394.136 129.036 394.367 127.992L395.559 122.613C395.79 121.57 396.832 120.716 397.876 120.716Z" fill="#1F1917"/>
<path fill-rule="evenodd" clip-rule="evenodd" d="M412.837 116.636H427.998C429.97 116.636 431.225 118.25 430.788 120.221L428.538 130.384C428.101 132.355 426.13 133.97 424.16 133.969L408.998 133.962L412.837 116.636ZM416.8 120.716H423.901C424.945 120.716 425.609 121.57 425.378 122.613L424.187 127.992C423.956 129.035 422.913 129.889 421.87 129.889H414.762" fill="#1F1917"/>
<path fill-rule="evenodd" clip-rule="evenodd" d="M366.301 133.833H351.139C349.168 133.833 347.913 132.219 348.349 130.248L350.6 120.085C351.036 118.113 353.007 116.498 354.978 116.5L370.139 116.507L366.301 133.833ZM362.337 129.753H355.236C354.193 129.753 353.528 128.899 353.759 127.856L354.951 122.477C355.182 121.434 356.225 120.579 357.268 120.579H364.375" fill="#1F1917"/>
<path fill-rule="evenodd" clip-rule="evenodd" d="M314.38 116.636H325.968C327.94 116.636 329.195 118.249 328.758 120.221L327.113 127.651H322.233L323.348 122.613C323.579 121.569 322.914 120.716 321.871 120.716H314.692C313.649 120.716 314.584 121.57 314.353 122.613L313.252 127.583H308.371L310.002 120.221C310.439 118.249 312.408 116.636 314.38 116.636Z" fill="#1F1917"/>
<path fill-rule="evenodd" clip-rule="evenodd" d="M306.995 133.833L310.326 118.834H315.193L311.857 133.833" fill="#1F1917"/>
<path fill-rule="evenodd" clip-rule="evenodd" d="M346.521 133.833H330.316C328.345 133.833 327.089 132.219 327.526 130.248L328.179 127.299H328.182L328.307 126.732C328.744 124.76 330.715 123.146 332.686 123.146L344.024 123.152L344.192 122.399C344.37 121.416 343.75 120.619 342.776 120.579H329.651L330.554 116.501L346.843 116.506C348.774 116.544 349.995 118.142 349.563 120.09L349.257 121.474H349.259L348.887 123.154H348.891L346.98 131.781H346.976L346.521 133.833H346.521ZM333.925 129.753H342.558L343.119 127.226H334.634C334.593 127.222 334.551 127.22 334.508 127.22C333.813 127.22 333.119 127.789 332.966 128.484C332.814 129.171 333.245 129.734 333.926 129.748C333.926 129.749 333.925 129.751 333.925 129.753" fill="#1F1917"/>
<path fill-rule="evenodd" clip-rule="evenodd" d="M374.762 116.636H387.395C389.366 116.636 390.621 118.249 390.185 120.221L387.934 130.384C387.498 132.356 385.527 133.969 383.556 133.969H370.924C368.953 133.969 367.697 132.356 368.134 130.384L370.384 120.221C370.821 118.249 372.791 116.636 374.762 116.636ZM377.052 120.716H383.298C384.341 120.716 385.006 121.57 384.775 122.613L383.583 127.992C383.352 129.035 382.31 129.889 381.266 129.889H375.021C373.977 129.889 373.313 129.036 373.544 127.992L374.735 122.613C374.966 121.57 376.008 120.716 377.052 120.716Z" fill="#66CCFF"/>
<path fill-rule="evenodd" clip-rule="evenodd" d="M395.586 116.636H408.218C410.19 116.636 411.445 118.249 411.008 120.221L408.758 130.384C408.321 132.356 406.351 133.969 404.38 133.969H391.747C389.776 133.969 388.52 132.356 388.957 130.384L391.208 120.221C391.645 118.249 393.614 116.636 395.586 116.636ZM397.876 120.716H404.122C405.165 120.716 405.829 121.57 405.598 122.613L404.407 127.992C404.176 129.035 403.133 129.889 402.09 129.889H395.844C394.801 129.889 394.136 129.036 394.367 127.992L395.559 122.613C395.79 121.57 396.832 120.716 397.876 120.716Z" fill="#66CCFF"/>
<path fill-rule="evenodd" clip-rule="evenodd" d="M412.839 116.633L409.673 130.901L408.998 133.96L407.715 139.769H412.573L413.864 133.96L424.162 133.968C426.132 133.969 428.099 132.355 428.536 130.384L430.785 120.225C431.222 118.253 429.966 116.633 427.994 116.633H412.839V116.633ZM416.797 120.716H423.903C424.947 120.716 425.609 121.574 425.378 122.617L424.187 127.992C423.956 129.035 422.913 129.892 421.871 129.892H414.764L416.797 120.716Z" fill="#66CCFF"/>
<path fill-rule="evenodd" clip-rule="evenodd" d="M366.567 110.698L365.275 116.507L354.978 116.499C353.007 116.498 351.04 118.111 350.604 120.083L348.346 130.251C347.909 132.222 349.165 133.834 351.137 133.834H366.3L370.141 116.507L371.424 110.699H366.567V110.698ZM357.269 120.583H364.375L362.334 129.751H355.236C354.192 129.751 353.53 128.901 353.761 127.859L354.953 122.475C355.184 121.432 356.226 120.583 357.269 120.583Z" fill="#66CCFF"/>
<path fill-rule="evenodd" clip-rule="evenodd" d="M312.112 110.698L310.146 119.566H310.171L310.087 119.916C310.056 120.018 310.027 120.121 310.004 120.225L308.371 127.584H308.388L306.996 133.834H311.854L313.245 127.584H313.253L314.353 122.616C314.355 122.609 314.351 122.599 314.353 122.592L314.778 120.716H321.868C322.911 120.716 323.582 121.573 323.351 122.617L322.235 127.65L320.868 133.834H325.734L327.109 127.65H327.117L328.758 120.225C329.195 118.253 327.938 116.633 325.967 116.633H315.661L316.977 110.699H312.112L312.112 110.698Z" fill="#66CCFF"/>
<path fill-rule="evenodd" clip-rule="evenodd" d="M346.521 133.833H330.316C328.345 133.833 327.089 132.219 327.526 130.248L328.179 127.299H328.182L328.307 126.732C328.744 124.76 330.715 123.146 332.686 123.146L344.024 123.152L344.192 122.399C344.37 121.416 343.75 120.619 342.776 120.579H329.651L330.554 116.501L346.843 116.506C348.774 116.544 349.995 118.142 349.563 120.09L349.257 121.474H349.259L348.887 123.154H348.891L346.98 131.781H346.976L346.521 133.833H346.521ZM333.925 129.753H342.558L343.119 127.226H334.634C334.593 127.222 334.551 127.22 334.508 127.22C333.813 127.22 333.119 127.789 332.966 128.484C332.814 129.171 333.245 129.734 333.926 129.748C333.926 129.749 333.925 129.751 333.925 129.753" fill="#66CCFF"/>
<path fill-rule="evenodd" clip-rule="evenodd" d="M266.061 123.194C265.861 123.736 265.662 124.279 265.462 124.822C264.969 125.311 264.475 125.8 263.981 126.289C263.442 126.824 263.326 126.82 263.452 127.577C263.601 128.466 264.029 129.382 264.815 130.171C265.642 131 267.378 132.174 268.628 131.621C268.512 132.04 268.358 132.481 268.161 132.911C267.323 134.749 269.365 135.109 270.794 135.496C271.982 135.817 274.896 136.673 275.317 135.111C275.506 134.409 275.535 134.031 275.468 133.361C275.837 132.536 275.955 132.404 276.261 131.95C276.681 131.327 276.651 131.09 276.559 130.317C276.541 130.168 276.52 130.006 276.495 129.835C277.909 130.048 279.268 130.046 280.654 129.874C280.234 130.119 279.812 130.334 279.255 130.62C277.934 131.299 279.179 133.303 279.748 134.18C280.943 136.022 282.014 137.289 284.032 136.197C284.71 135.83 284.763 135.438 285.186 134.806C285.42 134.678 286.624 133.653 287.34 133.075C287.612 133.4 288.132 133.46 288.92 133.517C289.316 133.546 290.872 133.536 291.284 133.539C292.521 133.547 293.263 133.418 293.36 132.07C293.405 131.431 293.378 131.295 293.063 130.736C293.044 130.03 293.026 129.325 293.007 128.62C292.985 127.825 292.834 127.338 292.522 126.596C292.239 125.922 292.08 125.347 291.749 124.693C291.794 124.437 291.83 124.172 291.855 123.896C292.275 124.301 292.696 124.706 293.116 125.112C293.918 125.884 294.58 126.515 295.802 126.457C297.075 126.397 298.532 125.394 298.905 124.167C299.03 123.758 299.154 123.348 299.278 122.939C301.197 123.302 303.441 123.219 305.112 122.327C307.57 121.014 308.72 118.376 309.002 115.585C309.231 113.328 308.791 109.531 307.715 107.472C307.399 106.866 305.97 106.099 305.344 106.734C304.872 107.213 304.548 107.942 304.038 108.377C303.643 108.714 303.155 108.881 302.726 109.058C302.395 108.162 301.918 107.466 301.335 106.771C300.871 106.218 300.433 105.943 299.822 105.559C298.612 104.802 297.674 103.846 296.574 102.938C293.244 100.192 290.385 100.276 286.237 102.023C284.258 102.856 283.303 103.987 282.089 105.612C281.356 105.65 280.852 105.792 280.076 106.477C279.504 106.982 278.971 107.502 278.455 108.04C274.578 108.659 272.169 109.398 269.622 111.657C268.585 112.577 267.831 113.596 267.243 114.741C266.698 115.344 266.155 115.963 265.434 116.24C264.927 116.435 264.936 116.435 264.758 115.958C265.361 115.504 265.351 114.651 265.407 113.878C265.788 113.896 265.93 114.323 266.189 114.65C266.342 113.967 266.43 112.906 265.712 112.533C265.828 112.221 265.961 111.906 266.082 111.561C265.022 111.745 261.387 114.196 263.326 116.065C263.454 116.584 263.555 116.941 263.723 117.292C264.167 118.215 265.165 118.374 266.034 118.034C265.796 119.127 265.747 120.316 265.891 121.985C265.925 122.385 265.983 122.789 266.061 123.194Z" fill="black"/>
<path d="M266.291 123.278C266.211 123.496 266.13 123.715 266.05 123.933L265.59 123.764C265.67 123.546 265.75 123.327 265.83 123.109L266.291 123.278ZM266.05 123.933C265.931 124.257 265.812 124.582 265.693 124.907L265.232 124.738C265.351 124.413 265.47 124.088 265.59 123.764L266.05 123.933ZM265.693 124.907L265.635 124.996L265.462 124.822L265.693 124.907ZM265.635 124.996C265.373 125.255 265.112 125.514 264.85 125.773L264.505 125.426C264.766 125.167 265.028 124.907 265.29 124.648L265.635 124.996ZM264.85 125.773C264.618 126.003 264.386 126.233 264.154 126.463L263.809 126.116C264.041 125.886 264.273 125.656 264.505 125.426L264.85 125.773ZM264.154 126.463C264.048 126.568 264.012 126.603 263.98 126.633L263.64 126.278C263.711 126.21 263.789 126.135 263.809 126.116L264.154 126.463ZM263.98 126.633C263.666 126.936 263.604 126.996 263.694 127.537L263.21 127.617C263.077 126.821 263.17 126.731 263.64 126.278L263.98 126.633ZM263.694 127.537C263.767 127.972 263.912 128.416 264.139 128.848L263.703 129.077C263.453 128.6 263.292 128.105 263.21 127.617L263.694 127.537ZM264.139 128.848C264.35 129.25 264.63 129.639 264.989 129.998L264.641 130.344C264.244 129.945 263.934 129.517 263.703 129.077L264.139 128.848ZM264.989 129.998C265.447 130.458 266.195 131.027 266.974 131.323L266.801 131.782C265.95 131.459 265.137 130.841 264.641 130.344L264.989 129.998ZM266.974 131.323C267.516 131.529 268.068 131.6 268.529 131.396L268.726 131.845C268.131 132.109 267.453 132.03 266.801 131.782L266.974 131.323ZM268.529 131.396L269.003 131.186L268.865 131.686L268.628 131.62L268.529 131.396ZM268.865 131.686C268.803 131.909 268.731 132.137 268.648 132.367L268.186 132.199C268.264 131.982 268.333 131.766 268.391 131.555L268.865 131.686ZM268.648 132.367C268.571 132.58 268.483 132.797 268.385 133.013L267.938 132.81C268.029 132.609 268.112 132.404 268.186 132.199L268.648 132.367ZM268.385 133.013C267.97 133.923 268.405 134.403 269.079 134.71L268.875 135.158C267.953 134.737 267.36 134.076 267.938 132.81L268.385 133.013ZM269.079 134.71C269.51 134.907 270.031 135.042 270.515 135.169L270.393 135.643C269.884 135.51 269.336 135.368 268.875 135.158L269.079 134.71ZM270.515 135.169C270.643 135.202 270.767 135.234 270.856 135.258L270.732 135.733C270.601 135.697 270.496 135.67 270.393 135.643L270.515 135.169ZM270.856 135.258C271.441 135.416 272.451 135.706 273.358 135.764L273.328 136.255C272.376 136.195 271.335 135.896 270.732 135.733L270.856 135.258ZM273.358 135.764C274.179 135.816 274.91 135.677 275.08 135.049L275.554 135.174C275.302 136.106 274.366 136.321 273.328 136.255L273.358 135.764ZM275.08 135.049C275.169 134.716 275.221 134.459 275.243 134.204L275.734 134.244C275.711 134.521 275.653 134.804 275.554 135.174L275.08 135.049ZM275.243 134.204C275.264 133.948 275.256 133.699 275.224 133.384L275.711 133.338C275.747 133.693 275.757 133.968 275.734 134.244L275.243 134.204ZM275.224 133.384L275.243 133.261L275.468 133.361L275.224 133.384ZM275.243 133.261C275.574 132.523 275.71 132.324 275.95 131.971L276.355 132.248C276.133 132.573 276.007 132.758 275.692 133.46L275.243 133.261ZM275.95 131.971C275.975 131.935 275.996 131.905 276.058 131.813L276.465 132.087C276.449 132.11 276.398 132.185 276.355 132.248L275.95 131.971ZM276.058 131.813C276.245 131.534 276.332 131.349 276.359 131.156L276.845 131.224C276.805 131.499 276.696 131.743 276.465 132.087L276.058 131.813ZM276.359 131.156C276.388 130.954 276.359 130.714 276.315 130.345L276.803 130.289C276.851 130.694 276.883 130.958 276.845 131.224L276.359 131.156ZM276.315 130.345C276.303 130.245 276.293 130.165 276.286 130.113L276.772 130.052C276.787 130.162 276.797 130.24 276.803 130.289L276.315 130.345ZM276.286 130.113C276.281 130.071 276.269 129.988 276.252 129.871L276.737 129.8C276.745 129.852 276.756 129.934 276.772 130.052L276.286 130.113ZM276.252 129.871L276.204 129.543L276.531 129.592L276.495 129.835L276.252 129.871ZM276.531 129.592C277.226 129.697 277.908 129.749 278.586 129.753L278.584 130.244C277.883 130.24 277.177 130.186 276.458 130.078L276.531 129.592ZM278.586 129.753C279.266 129.757 279.943 129.714 280.625 129.63L280.683 130.117C279.98 130.205 279.283 130.249 278.584 130.244L278.586 129.753ZM280.625 129.63L280.777 130.087L280.654 129.874L280.625 129.63ZM280.777 130.087C280.381 130.318 279.985 130.521 279.48 130.781L279.255 130.343C279.754 130.087 280.144 129.886 280.531 129.66L280.777 130.087ZM279.48 130.781C279.443 130.8 279.405 130.819 279.367 130.839L279.143 130.401C279.181 130.381 279.219 130.362 279.255 130.343L279.48 130.781ZM279.367 130.839C278.848 131.106 278.844 131.666 279.027 132.253L278.559 132.399C278.308 131.595 278.341 130.813 279.143 130.401L279.367 130.839ZM279.027 132.253C279.235 132.919 279.676 133.62 279.953 134.047L279.543 134.314C279.251 133.864 278.785 133.124 278.559 132.399L279.027 132.253ZM279.953 134.047C280.534 134.941 281.081 135.694 281.709 136.08L281.454 136.498C280.743 136.062 280.157 135.261 279.543 134.314L279.953 134.047ZM281.709 136.08C282.303 136.444 282.997 136.477 283.916 135.98L284.148 136.414C283.05 137.008 282.199 136.955 281.454 136.498L281.709 136.08ZM283.916 135.98C284.351 135.744 284.496 135.489 284.693 135.145L285.121 135.387C284.884 135.802 284.707 136.111 284.148 136.414L283.916 135.98ZM284.693 135.145C284.771 135.008 284.857 134.858 284.982 134.67L285.389 134.943C285.289 135.093 285.201 135.247 285.121 135.387L284.693 135.145ZM284.982 134.67L285.068 134.591L285.186 134.806L284.982 134.67ZM285.068 134.591C285.211 134.512 285.824 134.006 286.42 133.513L286.732 133.891C286.116 134.401 285.483 134.924 285.304 135.022L285.068 134.591ZM286.42 133.513C286.726 133.26 287.029 133.009 287.186 132.883L287.495 133.266C287.207 133.499 286.971 133.694 286.732 133.891L286.42 133.513ZM287.186 132.883L287.374 132.731L287.529 132.917L287.34 133.075L287.186 132.883ZM287.529 132.917C287.627 133.035 287.782 133.107 287.993 133.158L287.88 133.636C287.566 133.561 287.325 133.44 287.151 133.232L287.529 132.917ZM287.993 133.158C288.235 133.216 288.552 133.244 288.937 133.272L288.902 133.763C288.499 133.734 288.162 133.703 287.88 133.636L287.993 133.158ZM288.937 133.272C289.239 133.293 290.203 133.293 290.825 133.293V133.784C290.189 133.785 289.204 133.785 288.902 133.763L288.937 133.272ZM290.825 133.293C291.022 133.293 291.186 133.293 291.285 133.293L291.283 133.785C291.185 133.784 291.021 133.784 290.825 133.784V133.293H290.825ZM291.285 133.293C291.865 133.297 292.324 133.271 292.628 133.099L292.87 133.527C292.469 133.754 291.939 133.789 291.283 133.785L291.285 133.293H291.285ZM292.628 133.099C292.906 132.942 293.072 132.632 293.114 132.053L293.605 132.087C293.55 132.856 293.297 133.285 292.87 133.527L292.628 133.099ZM293.114 132.053C293.135 131.755 293.14 131.578 293.107 131.426L293.586 131.32C293.634 131.535 293.629 131.746 293.605 132.087L293.114 132.053ZM293.107 131.426C293.073 131.273 292.994 131.115 292.848 130.856L293.278 130.616C293.447 130.915 293.539 131.105 293.586 131.32L293.107 131.426ZM292.848 130.856L292.818 130.742L293.063 130.736L292.848 130.856ZM292.818 130.742C292.808 130.389 292.799 130.036 292.789 129.684L293.281 129.672C293.29 130.025 293.3 130.377 293.309 130.73L292.818 130.742ZM292.789 129.684C292.78 129.331 292.77 128.978 292.761 128.626L293.252 128.614C293.262 128.967 293.271 129.319 293.281 129.672L292.789 129.684ZM292.761 128.626C292.751 128.247 292.71 127.943 292.635 127.648L293.111 127.529C293.195 127.861 293.241 128.198 293.252 128.614L292.761 128.626ZM292.635 127.648C292.56 127.35 292.447 127.053 292.295 126.691L292.748 126.501C292.908 126.881 293.027 127.199 293.111 127.529L292.635 127.648ZM292.295 126.691C292.188 126.435 292.096 126.187 292.006 125.943L292.466 125.774C292.552 126.006 292.64 126.243 292.748 126.501L292.295 126.691ZM292.466 125.773V125.774L292.236 125.859L292.466 125.773ZM292.006 125.944C291.865 125.565 291.729 125.198 291.529 124.803L291.969 124.583C292.178 124.997 292.32 125.379 292.466 125.773L292.006 125.944ZM291.529 124.803L291.507 124.651L291.749 124.693L291.529 124.803ZM291.507 124.651C291.531 124.514 291.552 124.386 291.567 124.271L292.053 124.333C292.032 124.483 292.012 124.616 291.991 124.735L291.507 124.651ZM291.567 124.271C291.581 124.167 291.595 124.036 291.609 123.876L292.1 123.916C292.09 124.032 292.074 124.172 292.053 124.333L291.567 124.271ZM291.609 123.876L291.655 123.362L292.025 123.718L291.855 123.896L291.609 123.876ZM292.025 123.718C292.265 123.95 292.506 124.182 292.746 124.414L292.407 124.769C292.166 124.537 291.925 124.305 291.685 124.073L292.025 123.718ZM292.746 124.414L293.286 124.934L292.946 125.289L292.407 124.769L292.746 124.414ZM293.286 124.934C293.675 125.309 294.031 125.65 294.426 125.883L294.177 126.308C293.735 126.047 293.358 125.686 292.946 125.289L293.286 124.934ZM294.426 125.883C294.806 126.108 295.234 126.238 295.791 126.211L295.814 126.703C295.148 126.734 294.634 126.578 294.177 126.308L294.426 125.883ZM295.791 126.211C296.391 126.183 297.04 125.925 297.579 125.527L297.87 125.923C297.256 126.376 296.511 126.67 295.814 126.703L295.791 126.211ZM297.579 125.527C298.093 125.148 298.503 124.644 298.67 124.096L299.14 124.238C298.941 124.893 298.464 125.484 297.87 125.923L297.579 125.527ZM298.67 124.096C298.727 123.907 298.785 123.717 298.842 123.528L299.313 123.67C299.255 123.86 299.198 124.049 299.14 124.238L298.67 124.096ZM298.842 123.528C298.909 123.308 298.976 123.088 299.043 122.868L299.513 123.01C299.446 123.23 299.379 123.45 299.313 123.67L298.842 123.528ZM299.043 122.868L299.107 122.657L299.323 122.698L299.278 122.939L299.043 122.868ZM299.323 122.698C300.318 122.886 301.401 122.952 302.442 122.842L302.49 123.33C301.401 123.444 300.27 123.376 299.233 123.18L299.323 122.698ZM302.442 122.842C303.356 122.746 304.238 122.514 304.997 122.11L305.227 122.543C304.412 122.978 303.468 123.227 302.49 123.33L302.442 122.842ZM304.997 122.11C306.107 121.517 306.941 120.641 307.542 119.6L307.968 119.844C307.322 120.962 306.424 121.904 305.227 122.543L304.997 122.11ZM307.542 119.6V119.599L307.755 119.722L307.542 119.6V119.6ZM307.542 119.599C308.228 118.41 308.612 117.007 308.759 115.562L309.246 115.608C309.093 117.123 308.689 118.595 307.968 119.845L307.542 119.599ZM308.759 115.562C308.878 114.385 308.812 112.778 308.565 111.225L309.049 111.148C309.302 112.741 309.369 114.393 309.246 115.608L308.759 115.562ZM308.565 111.225C308.348 109.855 307.99 108.529 307.497 107.585L307.933 107.358C308.45 108.35 308.824 109.728 309.049 111.148L308.565 111.225ZM307.497 107.585C307.458 107.511 307.394 107.43 307.312 107.348L307.655 106.997C307.774 107.114 307.87 107.237 307.933 107.358L307.497 107.585ZM307.312 107.348C307.101 107.141 306.788 106.944 306.464 106.832L306.623 106.368C307.017 106.503 307.398 106.743 307.655 106.997L307.312 107.348ZM306.464 106.832C306.164 106.729 305.861 106.7 305.644 106.813L305.418 106.378C305.767 106.195 306.206 106.224 306.623 106.368L306.464 106.832ZM305.644 106.813C305.599 106.837 305.557 106.868 305.519 106.906L305.168 106.562C305.243 106.486 305.327 106.425 305.418 106.378L305.644 106.813ZM305.519 106.906C305.318 107.11 305.142 107.367 304.965 107.625L304.56 107.349C304.751 107.07 304.942 106.792 305.168 106.562L305.519 106.906ZM304.965 107.625C304.733 107.965 304.499 108.306 304.197 108.564L303.879 108.19C304.134 107.971 304.348 107.659 304.56 107.349L304.965 107.625ZM304.197 108.564C303.827 108.88 303.398 109.052 303 109.212L302.818 108.755C303.18 108.61 303.57 108.454 303.879 108.19L304.197 108.564ZM303 109.212C302.931 109.24 302.863 109.267 302.819 109.285L302.633 108.83C302.71 108.799 302.764 108.777 302.818 108.755L303 109.212ZM302.819 109.285L302.585 109.382L302.496 109.142L302.726 109.058L302.819 109.285ZM302.496 109.142C302.337 108.713 302.142 108.33 301.917 107.97L302.333 107.709C302.574 108.094 302.784 108.507 302.957 108.973L302.496 109.142ZM301.917 107.97C301.689 107.606 301.43 107.266 301.146 106.928L301.523 106.613C301.822 106.97 302.094 107.327 302.333 107.709L301.917 107.97ZM301.146 106.928C300.927 106.667 300.714 106.471 300.485 106.296L300.782 105.907C301.04 106.103 301.278 106.322 301.523 106.613L301.146 106.928ZM300.485 106.296C300.255 106.122 299.995 105.958 299.691 105.768L299.952 105.351C300.26 105.544 300.524 105.71 300.782 105.907L300.485 106.296ZM299.691 105.768C298.835 105.231 298.117 104.601 297.384 103.958L297.707 103.588C298.424 104.217 299.126 104.834 299.952 105.351L299.691 105.768ZM297.384 103.958C297.076 103.688 296.765 103.415 296.417 103.128L296.73 102.748C297.052 103.014 297.381 103.302 297.707 103.588L297.384 103.958ZM296.417 103.128C294.795 101.79 293.293 101.142 291.697 101.041L291.728 100.55C293.431 100.657 295.023 101.34 296.73 102.748L296.417 103.128ZM291.697 101.041C290.089 100.94 288.371 101.391 286.332 102.249L286.142 101.796C288.25 100.908 290.036 100.444 291.728 100.55L291.697 101.041ZM286.332 102.249C285.371 102.654 284.659 103.13 284.042 103.701L283.71 103.34C284.368 102.731 285.124 102.225 286.142 101.796L286.332 102.249ZM284.042 103.701C283.42 104.276 282.885 104.956 282.286 105.758L281.892 105.465C282.507 104.643 283.057 103.945 283.71 103.34L284.042 103.701ZM282.286 105.758L282.216 105.851L282.102 105.857L282.089 105.612L282.286 105.758ZM282.102 105.857C281.76 105.875 281.474 105.916 281.19 106.03L281.007 105.573C281.352 105.435 281.685 105.386 282.077 105.366L282.102 105.857ZM281.19 106.03C280.901 106.146 280.603 106.339 280.238 106.661L279.914 106.292C280.325 105.93 280.667 105.709 281.007 105.573L281.19 106.03ZM280.238 106.661C279.958 106.909 279.684 107.163 279.415 107.422L279.074 107.069C279.343 106.808 279.623 106.549 279.914 106.292L280.238 106.661ZM279.415 107.422L279.414 107.423L279.244 107.246L279.415 107.423V107.422ZM279.414 107.423C279.148 107.681 278.888 107.943 278.633 108.21L278.278 107.87C278.538 107.599 278.802 107.332 279.075 107.068L279.414 107.423ZM278.633 108.21L278.494 108.282L278.455 108.04L278.633 108.21ZM278.494 108.282C276.574 108.588 275.018 108.924 273.628 109.463L273.451 109.004C274.872 108.453 276.459 108.11 278.417 107.798L278.494 108.282ZM273.628 109.463C272.25 109.997 271.034 110.732 269.784 111.841L269.459 111.473C270.756 110.323 272.019 109.559 273.451 109.004L273.628 109.463ZM269.784 111.841C269.277 112.291 268.84 112.764 268.459 113.263L268.069 112.966C268.471 112.439 268.929 111.943 269.459 111.473L269.784 111.841ZM268.459 113.263C268.077 113.763 267.75 114.291 267.462 114.852L267.024 114.63C267.324 114.045 267.668 113.492 268.069 112.966L268.459 113.263ZM267.462 114.852L267.425 114.905L267.243 114.741L267.462 114.852ZM267.425 114.905C267.146 115.214 266.867 115.527 266.568 115.796L266.24 115.429C266.529 115.169 266.795 114.871 267.061 114.577L267.425 114.905ZM266.568 115.796C266.255 116.078 265.915 116.318 265.522 116.47L265.346 116.011C265.674 115.884 265.966 115.676 266.24 115.429L266.568 115.796ZM265.522 116.47H265.522L265.434 116.24L265.522 116.47ZM265.522 116.47C265.206 116.591 265.052 116.651 264.878 116.578L265.068 116.124C265.076 116.128 265.155 116.084 265.347 116.011L265.522 116.47ZM264.878 116.578L264.877 116.577L264.973 116.351L264.878 116.577V116.578ZM264.877 116.577C264.693 116.498 264.641 116.347 264.527 116.043L264.988 115.872C265.053 116.045 265.051 116.118 265.069 116.125L264.877 116.577ZM264.527 116.043L264.463 115.872L264.611 115.761L264.758 115.957L264.527 116.043ZM264.611 115.761C265.062 115.421 265.105 114.746 265.146 114.095L265.637 114.126C265.589 114.887 265.539 115.677 264.904 116.154L264.611 115.761ZM265.146 114.095C265.151 114.01 265.157 113.925 265.161 113.861L265.653 113.895C265.646 113.984 265.642 114.055 265.637 114.126L265.146 114.095ZM265.161 113.861L265.179 113.621L265.419 113.632L265.407 113.878L265.161 113.861ZM265.419 113.632C265.824 113.652 266.008 113.938 266.208 114.246L265.795 114.511C265.668 114.314 265.55 114.131 265.396 114.124L265.419 113.632ZM266.208 114.246C266.263 114.332 266.32 114.421 266.381 114.497L265.997 114.802C265.921 114.706 265.857 114.607 265.795 114.511L266.208 114.246ZM266.429 114.703L266.317 115.205L265.997 114.802L266.189 114.65L266.429 114.703ZM265.949 114.597C266.032 114.226 266.096 113.739 266.006 113.341L266.484 113.233C266.593 113.72 266.523 114.281 266.429 114.703L265.949 114.597ZM266.006 113.341C265.949 113.088 265.827 112.87 265.599 112.752L265.824 112.315C266.199 112.509 266.397 112.847 266.484 113.233L266.006 113.341ZM265.599 112.752L265.405 112.652L265.481 112.448L265.711 112.533L265.599 112.752ZM265.481 112.448C265.517 112.351 265.57 112.216 265.625 112.078L266.081 112.256C266.039 112.365 265.996 112.474 265.942 112.619L265.481 112.448ZM265.625 112.078C265.697 111.893 265.771 111.703 265.849 111.481L266.314 111.642C266.244 111.841 266.161 112.051 266.081 112.256L265.625 112.078ZM266.04 111.319L266.452 111.248L266.314 111.642L266.082 111.561L266.04 111.319ZM266.123 111.803C265.647 111.886 264.6 112.474 263.84 113.263L263.484 112.923C264.314 112.062 265.492 111.415 266.04 111.319L266.123 111.803ZM263.84 113.263C263.564 113.549 263.33 113.858 263.183 114.173L262.738 113.968C262.912 113.597 263.176 113.243 263.484 112.923L263.84 113.263ZM263.183 114.173C263.042 114.474 262.978 114.781 263.03 115.079L262.546 115.162C262.476 114.758 262.557 114.354 262.738 113.968L263.183 114.173ZM263.03 115.079C263.077 115.351 263.222 115.623 263.496 115.887L263.156 116.242C262.801 115.9 262.61 115.535 262.546 115.162L263.03 115.079ZM263.496 115.887L263.564 116.006L263.326 116.065L263.496 115.887ZM263.564 116.006C263.627 116.26 263.683 116.475 263.743 116.669L263.275 116.815C263.212 116.613 263.153 116.388 263.088 116.124L263.564 116.006ZM263.743 116.669C263.802 116.854 263.865 117.021 263.945 117.187L263.502 117.398C263.413 117.213 263.341 117.025 263.275 116.815L263.743 116.669ZM263.945 117.187C264.121 117.554 264.401 117.778 264.723 117.882L264.573 118.35C264.128 118.207 263.743 117.9 263.502 117.398L263.945 117.187ZM264.723 117.882C265.099 118.002 265.536 117.965 265.945 117.806L266.123 118.263C265.612 118.462 265.058 118.506 264.573 118.35L264.723 117.882ZM265.945 117.806L266.371 117.64L266.274 118.086L266.034 118.034L265.945 117.806ZM266.274 118.086C266.158 118.617 266.088 119.174 266.065 119.802L265.574 119.785C265.598 119.129 265.672 118.544 265.794 117.983L266.274 118.086ZM266.065 119.802C266.041 120.431 266.065 121.136 266.136 121.965L265.645 122.005C265.573 121.165 265.549 120.441 265.574 119.785L266.065 119.802ZM266.136 121.965C266.155 122.176 266.176 122.37 266.201 122.548L265.716 122.613C265.685 122.392 265.661 122.189 265.645 122.005L266.136 121.965ZM266.201 122.548C266.229 122.743 266.262 122.944 266.301 123.147L265.82 123.24C265.78 123.034 265.745 122.825 265.716 122.613L266.201 122.548ZM266.301 123.147L266.291 123.278L266.061 123.194" fill="black"/>
<path fill-rule="evenodd" clip-rule="evenodd" d="M278.59 108.431L275.356 108.957L272.405 110.251L269.899 111.828L267.514 114.74L266.166 116.167L264.863 116.648L264.519 115.805L265.121 114.935L265.257 113.708L265.66 113.725L266.101 114.127L265.982 112.877L265.493 112.549L265.508 112.073L264.35 112.728L263.302 113.966L263.083 115.072L263.532 115.957L263.95 117.462L264.8 117.865L265.695 117.821L266.543 117.328L265.977 120.199L266.543 123.393L265.92 124.868L263.88 127.067L264.243 128.381L265.209 129.904L267.032 131.187L267.999 131.319L269.073 131.355L268.403 134.109L270.869 135.12L273.941 135.524L274.992 134.837L275.073 132.977L276.245 131.036L276.326 129.499L279.156 129.702L281.783 129.459L279.156 131.036L279.6 132.936L281.258 135.524L282.875 136.212L284.168 135.686L284.694 134.635L287.402 132.573L287.928 133.017L292.172 133.179L293.021 132.492L293.102 131.279L292.819 130.753L292.617 127.477L291.202 124.647L291.444 123.393L292.293 123.838L294.678 126.062L295.851 126.143L297.144 125.617L298.438 124.647L299.085 122.544L302.884 122.787L305.189 121.897L307.048 120.158L308.382 117.651L308.705 114.699L308.422 111.262L307.695 108.189L306.967 107.218L305.957 106.895L304.178 108.836L302.561 109.402L301.146 107.057L299.731 105.763L298.963 105.277L295.891 102.73L293.425 101.395L290.959 101.193L288.089 101.678L285.583 102.608L283.845 104.024L282.47 105.682L281.056 106.086L278.59 108.431Z" fill="#FFFF00" stroke="#1F1917" stroke-width="0.157626" stroke-miterlimit="10"/>
<path fill-rule="evenodd" clip-rule="evenodd" d="M269.211 115.73C266.44 118.962 267.056 122.882 267.823 126.722C267.414 125.686 267.004 124.651 266.594 123.615C266.443 122.666 266.292 121.717 266.141 120.768C266.184 119.797 266.228 118.826 266.271 117.855C266.659 116.928 267.047 116 267.435 115.072C268.018 114.21 268.6 113.347 269.182 112.484C270.088 111.729 270.994 110.974 271.899 110.219C272.891 109.809 273.884 109.399 274.876 108.989C276.04 108.838 277.205 108.687 278.369 108.536C277.291 109.766 276.213 110.995 275.134 112.225C272.537 113.068 271.005 113.635 269.211 115.73Z" fill="#FFFFCC"/>
<path fill-rule="evenodd" clip-rule="evenodd" d="M282.251 105.882C280.325 107.762 279.273 109.179 278.048 111.38C277.171 112.954 276.188 114.47 275.266 116.023C274.8 116.808 274.756 117.467 274.616 118.373C274.164 117.834 273.711 117.294 273.258 116.755C273.473 116.108 273.689 115.461 273.905 114.814C274.638 113.498 275.371 112.182 276.105 110.866C277.657 109.334 279.21 107.802 280.763 106.271C281.259 106.141 281.755 106.012 282.251 105.882Z" fill="#FFFFCC"/>
<path fill-rule="evenodd" clip-rule="evenodd" d="M291.762 101.222C290.219 101.801 287.658 101.991 287.48 103.762C287.354 105.02 287.575 105.652 288.333 106.982C286.461 105.045 285.998 105.345 282.381 105.947C282.898 105.213 283.416 104.48 283.933 103.746C284.839 103.186 285.745 102.625 286.651 102.064C287.815 101.805 288.98 101.546 290.144 101.287C290.684 101.266 291.223 101.244 291.762 101.222Z" fill="#FFFFCC"/>
<path fill-rule="evenodd" clip-rule="evenodd" d="M296.018 125.177C296.531 125.494 296.52 125.723 296.435 125.941C296.84 125.778 297.245 125.616 297.65 125.454C297.912 125.102 298.174 124.75 298.437 124.397C298.632 123.895 298.826 123.393 299.021 122.89C298.772 122.703 298.524 122.516 298.275 122.329C297.187 122.468 296.099 122.607 295.011 122.745C294.93 122.965 294.849 123.185 294.768 123.405C294.791 123.718 294.814 124.03 294.838 124.343C294.942 124.528 295.046 124.714 295.15 124.899C295.312 124.98 295.474 125.061 295.636 125.142C295.763 125.153 295.891 125.165 296.018 125.177Z" fill="#CCCC00"/>
<path fill-rule="evenodd" clip-rule="evenodd" d="M295.715 119.594C294.079 120.066 294.091 120.196 293.608 121.82C294.246 120.796 294.718 120.28 295.715 119.594Z" fill="#CCCC00"/>
<path fill-rule="evenodd" clip-rule="evenodd" d="M306.59 107.445C306.3 107.579 306.017 107.644 305.835 107.91C305.443 108.483 305.108 108.965 304.461 109.367C304.135 109.569 303.798 109.701 303.452 109.808C303.165 109.898 302.993 109.818 302.749 109.993C302.894 110.019 303.039 110.044 303.184 110.069C303.503 110.069 303.822 110.069 304.141 110.069C304.535 109.826 304.928 109.583 305.322 109.34C305.553 109.097 305.785 108.854 306.016 108.611C306.207 108.222 306.399 107.833 306.59 107.445Z" fill="#CCCC00"/>
<path fill-rule="evenodd" clip-rule="evenodd" d="M280.533 111.076C279.89 112.838 279.328 114.348 278.353 115.943C279.602 114.597 280.359 113.452 281.075 111.93C281.353 111.339 281.405 110.645 282.179 110.903C282.214 111.493 282.339 112.084 282.374 112.674C282.792 109.674 283.971 108.42 286.713 107.256C285.938 107.349 285.163 107.441 284.387 107.534C283.658 107.696 282.929 107.858 282.2 108.02C281.841 108.541 281.482 109.062 281.124 109.583C280.927 110.081 280.73 110.579 280.533 111.076Z" fill="#CCCC00"/>
<path fill-rule="evenodd" clip-rule="evenodd" d="M285.846 111.007C286.437 113.791 287.288 116.463 287.658 119.291C287.898 121.129 287.924 122.011 287 123.597C285.99 123.532 285.363 123.646 284.386 123.966C280.496 125.241 278.265 127.117 275.644 123.338C276.481 123.732 277.318 124.127 278.154 124.521C278.751 124.404 279.347 124.287 279.944 124.169C280.997 123.556 282.05 122.942 283.103 122.329C283.925 122.167 284.746 122.005 285.568 121.843C285.834 120.731 286.1 119.62 286.366 118.509C286.17 117.038 285.973 115.568 285.776 114.098C285.753 113.403 285.73 112.709 285.707 112.014C285.753 111.678 285.799 111.343 285.846 111.007Z" fill="#CCCC00"/>
<path fill-rule="evenodd" clip-rule="evenodd" d="M292.546 128.233C292.219 130.495 293.298 131.711 292.851 132.335C292.725 132.512 292.553 132.821 292.362 132.905C291.678 133.207 290.738 132.849 290.671 133.026C289.919 133.026 289.167 133.026 288.414 133.026C288.114 132.898 287.813 132.771 287.512 132.644C287.975 132.099 288.438 131.555 288.9 131.011C289.352 130.027 289.803 129.043 290.254 128.059C290.544 127.064 290.833 126.068 291.122 125.073C291.273 125.073 291.423 125.073 291.574 125.073C291.898 126.126 292.222 127.179 292.546 128.233Z" fill="#CCCC00"/>
<path fill-rule="evenodd" clip-rule="evenodd" d="M288.753 121.658C288.937 122.685 289.255 122.929 289.738 123.923C289.416 125.544 288.9 127.473 288.279 128.904C288.016 129.508 287.805 129.84 287.343 130.307C286.563 131.095 285.774 131.781 284.89 132.464C284.253 132.955 283.808 132.709 283.023 132.597C282.689 133.203 282.596 133.54 281.981 133.847C281.036 134.321 280.189 133.301 279.447 132.701C279.983 133.539 280.519 134.376 281.054 135.214C281.425 135.561 281.795 135.908 282.165 136.255C282.478 136.302 282.79 136.348 283.103 136.394C283.519 136.14 283.936 135.885 284.353 135.63C284.573 135.214 284.792 134.797 285.012 134.38C285.475 134.033 285.938 133.686 286.401 133.338C286.968 132.852 287.535 132.366 288.102 131.88C288.461 131.37 288.82 130.861 289.179 130.351C289.502 129.749 289.827 129.147 290.151 128.545C290.567 127.295 290.984 126.045 291.4 124.795C291.435 124.32 291.47 123.845 291.505 123.371C290.984 123.139 290.463 122.908 289.942 122.676C289.56 122.317 289.135 122.016 288.753 121.658Z" fill="#CCCC00"/>
<path fill-rule="evenodd" clip-rule="evenodd" d="M276.297 128.893C278.049 128.893 279.9 128.795 281.505 128.059C281.959 127.378 282.407 126.821 282.963 126.219C282.457 127.174 282.299 127.714 282.165 128.789C281.991 129.043 281.817 129.298 281.644 129.553C280.324 129.587 279.005 129.622 277.686 129.657C277.258 129.61 276.829 129.564 276.401 129.518C276.355 129.471 276.309 129.425 276.262 129.379C276.274 129.217 276.286 129.055 276.297 128.893Z" fill="#CCCC00"/>
<path fill-rule="evenodd" clip-rule="evenodd" d="M276.055 127.677C276.01 127.266 275.964 126.855 275.919 126.444C275.62 128.247 275.692 129.455 274.862 131.069C274.243 131.788 273.48 132.441 272.606 132.791C272.68 133.233 272.702 133.51 272.659 133.835C272.505 135.002 270.171 134.486 269.21 134.44C270.751 134.837 272.292 135.233 273.833 135.63C274.18 135.491 274.527 135.353 274.875 135.214C274.99 134.542 275.106 133.871 275.222 133.199C275.546 132.597 275.87 131.995 276.194 131.393C276.252 131.023 276.31 130.652 276.367 130.282C276.263 129.414 276.159 128.546 276.055 127.677Z" fill="#CCCC00"/>
<path fill-rule="evenodd" clip-rule="evenodd" d="M273.451 117.501C273.403 118.378 273.346 118.743 273.732 119.517C274.224 120.501 274.827 121.426 275.361 122.398C275.418 121.75 275.476 121.102 275.534 120.453C274.84 119.469 274.145 118.485 273.451 117.501Z" fill="#CCCC00"/>
<path fill-rule="evenodd" clip-rule="evenodd" d="M266.323 124.123C266.173 124.443 266.023 124.763 265.873 125.083C266.286 126.476 266.654 127.359 267.442 128.577C267.304 129.07 267.202 129.286 266.886 129.688C266.193 129.581 265.577 129.551 264.875 129.553C265.65 130.155 266.426 130.757 267.201 131.359C267.583 131.289 267.965 131.22 268.347 131.15C268.729 130.768 269.111 130.386 269.493 130.004C268.949 129.159 268.405 128.314 267.861 127.469C267.348 126.354 266.836 125.238 266.323 124.123Z" fill="#CCCC00"/>
<path fill-rule="evenodd" clip-rule="evenodd" d="M306.595 106.984C307.068 109.109 307.677 111.07 307.62 113.247C307.551 115.917 307.031 119.291 304.557 120.901C301.787 122.704 298.536 121.851 295.496 121.079C296.735 121.588 297.973 122.097 299.211 122.607C300.368 122.665 301.526 122.722 302.683 122.78C303.47 122.549 304.257 122.317 305.044 122.086C305.657 121.576 306.271 121.067 306.884 120.558C307.347 119.585 307.81 118.613 308.273 117.64C308.446 116.517 308.62 115.394 308.793 114.272C308.654 113.172 308.516 112.072 308.377 110.972C308.122 109.884 307.867 108.796 307.613 107.708C307.274 107.466 306.935 107.225 306.595 106.984Z" fill="#CCCC00"/>
<path fill-rule="evenodd" clip-rule="evenodd" d="M265.258 113.318C264.001 114.137 263.507 114.496 263.644 116.014C263.77 116.468 263.895 116.923 264.02 117.377C264.198 117.497 264.376 117.617 264.553 117.738C264.772 117.811 264.992 117.884 265.211 117.957C265.608 117.863 266.005 117.769 266.402 117.675C266.605 117.043 266.809 116.411 267.013 115.779C266.449 116.055 265.885 116.332 265.321 116.609C265.19 116.609 265.06 116.609 264.929 116.609C264.783 116.385 264.637 116.16 264.49 115.935C264.668 115.674 264.846 115.413 265.023 115.152C265.117 114.655 265.211 114.159 265.305 113.663C265.425 113.699 265.545 113.736 265.665 113.773C265.812 113.888 265.958 114.002 266.104 114.117C266.083 113.856 266.062 113.595 266.041 113.334C265.942 113.167 265.843 112.999 265.744 112.832C265.645 112.749 265.545 112.665 265.446 112.581C265.383 112.827 265.321 113.073 265.258 113.318Z" fill="#CCCC00"/>
<path fill-rule="evenodd" clip-rule="evenodd" d="M293.471 101.361C294.587 102.398 295.957 103.299 296.849 104.566C297.195 105.056 297.579 105.307 296.843 106C297.62 105.778 297.909 105.802 298.53 105.877C299.662 106.014 300.722 107.623 300.789 108.775C300.776 108.883 300.475 109.128 299.601 109.369C299.583 109.403 299.107 109.304 299.119 109.337C299.21 109.585 299.331 109.623 299.517 109.74C299.557 110.017 299.583 110.443 299.771 110.746C300.322 110.736 300.859 110.796 301.398 110.903C301.58 111.204 301.552 111.504 301.537 111.806C301.745 111.771 301.954 111.736 302.162 111.702C302.104 111.227 302.046 110.752 301.989 110.278C302.174 109.965 302.359 109.652 302.544 109.34C302.278 108.738 302.012 108.136 301.745 107.534C301.236 107.048 300.727 106.562 300.218 106.075C300.169 106.073 300.12 106.07 300.071 106.068C299.498 105.716 298.926 105.365 298.353 105.013C297.419 104.249 296.485 103.484 295.551 102.72C294.857 102.267 294.164 101.814 293.471 101.361Z" fill="#CCCC00"/>
<path fill-rule="evenodd" clip-rule="evenodd" d="M295.352 109.918C295.293 110.021 295.204 110.186 295.09 110.3C295.555 110.74 295.785 111.034 295.95 111.656C295.425 111.917 294.899 112.178 294.374 112.439C293.929 112.866 293.484 113.292 293.04 113.718C292.455 113.403 292.309 113.161 292.025 112.56C291.696 112.648 291.383 112.732 291.111 112.632C291.284 112.633 291.39 112.59 291.562 112.483C291.845 112.189 292.128 111.895 292.411 111.601C292.911 111.222 293.411 110.844 293.911 110.465C294.238 110.358 294.565 110.252 294.892 110.145C295.017 110.094 295.227 109.97 295.352 109.918Z" fill="#CCCC00"/>
<path fill-rule="evenodd" clip-rule="evenodd" d="M296.802 111.487C295.13 112.388 293.529 113.293 292.674 115.003C292.674 112.833 294.853 111.877 296.802 111.487Z" fill="#CCCC00"/>
<path fill-rule="evenodd" clip-rule="evenodd" d="M292.342 107.217C291.1 108.063 290.222 109.772 290.333 111.438C289.928 109.996 290.072 108.633 291.313 107.637C291.523 107.535 291.732 107.433 291.942 107.331C292.075 107.293 292.208 107.255 292.342 107.217Z" fill="#CCCC00"/>
<path fill-rule="evenodd" clip-rule="evenodd" d="M294.715 120.072C294.971 119.932 295.437 119.74 295.694 119.601C295.43 119.645 294.957 119.742 294.693 119.787C293.988 119.906 293.905 120.075 293.795 120.77C293.744 121.097 293.673 121.502 293.621 121.829C293.759 121.46 293.926 121.03 294.087 120.677C294.257 120.304 294.353 120.269 294.715 120.072ZM281.634 102.189C282.188 101.358 282.507 101.087 283.359 100.561C282.202 100.839 281.981 101.054 281.634 102.189ZM281.451 104.02C282.421 102.071 283.155 101.353 285.185 100.395C282.889 100.958 282.214 101.358 281.451 104.02ZM260.69 114.169C260.902 113.192 261.101 112.824 261.702 112.023C260.726 112.705 260.599 112.985 260.69 114.169ZM282.421 130.509C282.392 130.272 282.362 130.035 282.333 129.798C282.28 129.368 282.282 129.02 282.316 128.588C282.349 128.169 282.382 127.751 282.414 127.333C282.293 127.758 282.049 128.183 281.928 128.608C281.879 128.778 281.839 128.916 281.816 129.043C279.999 129.414 278.195 129.438 276.378 129.113C276.262 128.44 276.121 127.739 276.003 127.236C275.967 127.799 275.99 129.356 275.987 130.227C275.985 130.903 275.956 131.134 275.608 131.708C275.283 132.246 275.144 132.368 274.688 133.277C274.726 133.85 274.727 134.229 274.575 134.773C274.321 135.677 271.767 134.977 271.093 134.792C270.263 134.565 268.548 134.227 268.979 133.12C269.359 132.147 269.6 131.12 269.785 129.757C268.265 127.566 266.851 124.564 266.58 121.903C266.369 119.838 266.495 118.566 266.942 117.303C267.65 115.301 268.641 113.568 270.23 112.173C272.374 110.291 274.378 109.535 277.516 109.057C276.761 109.902 276.015 110.796 275.201 111.754C274.377 112.724 273.888 113.704 273.365 114.764C272.642 116.23 272.658 116.787 273.615 118.074C274.441 119.182 274.887 119.681 275.247 120.766C274.949 121.38 274.841 121.898 274.741 122.736C275.752 123.841 276.503 124.599 277.484 124.832C278.447 125.061 279.25 125.017 280.111 124.576C282.024 123.598 283.794 122.335 285.951 122.283C286.95 119.828 286.849 117.777 286.369 115.402C286.042 113.78 285.911 112.244 285.809 110.591C285.404 112.294 285.329 113.791 285.629 115.487C285.991 117.532 286.272 119.79 285.265 121.587C283.314 121.736 281.642 122.923 279.884 123.834C279.177 124.201 278.441 124.236 277.659 124.022C276.933 123.822 276.443 123.342 275.661 122.439C275.648 121.533 275.853 121.115 276.269 120.294C276.937 118.976 277.675 117.749 278.484 116.453C277.493 117.65 276.554 118.65 275.774 119.853C275.475 119.003 275.049 118.571 274.343 117.614C273.653 116.68 273.58 116.27 274.096 115.189C274.615 114.102 275.055 113.146 275.938 112.193C277.463 110.545 278.861 108.711 280.529 107.088C281.435 106.206 281.803 106.237 283.004 106.055C284.09 105.89 285.15 105.682 286.258 105.425C285.187 105.525 284.151 105.561 283.109 105.587C283.098 105.588 283.087 105.588 283.076 105.588C284.102 104.277 284.698 103.547 286.364 102.823C290.466 101.04 293.073 100.848 296.296 103.557C297.131 104.26 297.86 104.942 298.707 105.548C298.4 105.574 298.136 105.629 297.786 105.766C298.212 105.685 298.703 105.766 299.145 105.847C299.27 105.927 299.397 106.006 299.528 106.083C300.125 106.435 300.465 106.63 300.869 107.193C301.296 107.789 301.653 108.384 301.967 109.04C301.761 108.966 301.588 108.904 301.435 108.858C301.321 108.806 301.198 108.772 301.068 108.759C300.809 108.735 300.562 108.798 300.356 108.925C300.347 108.929 300.339 108.933 300.331 108.937C300 109.098 299.488 109.281 299.145 109.337C299.32 109.397 299.706 109.42 299.889 109.348C299.913 109.338 299.938 109.331 299.964 109.325C299.881 109.465 299.828 109.624 299.811 109.796C299.789 110.023 299.836 110.242 299.933 110.432C299.934 110.433 299.934 110.433 299.934 110.434C299.965 110.507 300.008 110.574 300.056 110.622C299.899 110.68 299.739 110.746 299.574 110.818C300.339 110.701 301.028 110.681 301.774 110.78C301.823 111.015 301.873 111.264 301.919 111.518C301.826 111.525 301.734 111.532 301.642 111.539C301.634 111.54 301.627 111.541 301.619 111.541C301.266 111.259 300.873 111.307 300.336 111.429C298.702 111.802 299.086 112.719 298.334 114.101C299.114 113.147 299.056 112.148 300.329 111.847C300.625 111.777 300.827 111.689 301.027 111.719C300.666 111.901 300.354 112.202 300.23 112.552C299.881 113.538 300.098 114.369 299.714 115.29C300.189 114.467 300.218 113.663 300.643 112.797C300.795 112.485 301.362 111.987 301.709 111.98C301.805 111.978 301.9 111.975 301.995 111.973C302.079 112.522 302.13 113.066 302.098 113.517C302.038 114.341 301.824 115.564 301.696 116.032C302.127 115.479 302.323 114.306 302.512 113.481C302.709 112.622 302.659 111.591 302.487 110.668C302.25 109.402 303.554 109.608 304.311 109.011C304.867 108.572 305.25 107.871 305.761 107.375C306.267 106.883 307.063 107.606 307.262 108.087C308.125 110.176 308.518 113.462 308.29 115.567C308.035 117.93 306.894 120.509 304.811 121.672C302.155 123.155 299.024 122.249 296.386 121.36C295.823 121.17 295.431 120.893 294.936 120.582C295.071 121.189 295.132 121.831 294.953 122.437C294.668 123.399 294.209 124.973 295.514 125.264C296.011 125.374 296.236 125.358 296.938 124.996C296.37 125.124 296.084 125.093 295.694 125.021C295.34 124.956 295.152 124.731 295.054 124.466C295.177 124.555 295.379 124.604 295.723 124.687C296.691 124.92 297.613 124.454 297.794 123.782C297.899 123.39 297.881 123.184 298.104 122.65C298.304 122.711 298.511 122.768 298.724 122.819C298.604 123.21 298.484 123.602 298.364 123.992C298.053 125.008 296.841 125.826 295.771 125.807C294.781 125.79 294.154 125.17 293.471 124.562C293.001 124.143 292.548 123.743 292.099 123.346C290.868 122.957 289.881 122.503 288.738 121.657C289.552 122.613 290.103 123.142 291.237 123.618C291.072 125.301 290.488 126.528 289.989 128.138C289.764 128.867 287.982 131.785 287.489 132.07C287.137 132.272 284.932 134.13 284.518 134.375C284.209 134.785 283.938 135.352 283.473 135.598C282.058 136.346 281.149 134.913 280.388 133.703C280.041 133.151 279.078 131.563 279.918 131.118C280.711 130.698 281.155 130.397 281.965 129.866C282.084 130.082 282.288 130.292 282.421 130.508L282.421 130.509ZM287.34 133.075C286.624 133.653 285.419 134.678 285.185 134.807C284.762 135.438 284.71 135.829 284.032 136.197C282.014 137.289 280.943 136.022 279.748 134.18C279.179 133.303 277.934 131.299 279.255 130.62C279.811 130.334 280.233 130.119 280.654 129.874C279.268 130.046 277.908 130.048 276.494 129.835C276.519 130.006 276.541 130.168 276.559 130.317C276.65 131.09 276.681 131.327 276.261 131.95C275.955 132.404 275.837 132.536 275.467 133.361C275.535 134.031 275.506 134.409 275.316 135.111C274.896 136.673 271.981 135.817 270.794 135.496C269.365 135.109 267.323 134.749 268.161 132.911C268.357 132.481 268.511 132.04 268.627 131.62C267.378 132.174 265.642 131 264.815 130.171C264.028 129.382 263.601 128.466 263.452 127.577C263.325 126.82 263.441 126.824 263.981 126.289C264.475 125.8 264.968 125.311 265.462 124.822C265.661 124.279 265.861 123.737 266.06 123.195C265.983 122.789 265.925 122.385 265.89 121.985C265.747 120.316 265.795 119.127 266.034 118.035C265.164 118.374 264.167 118.215 263.723 117.292C263.554 116.941 263.454 116.584 263.326 116.065C261.387 114.196 265.021 111.746 266.081 111.561C265.96 111.906 265.827 112.221 265.711 112.533C266.43 112.906 266.341 113.967 266.189 114.65C265.93 114.323 265.787 113.896 265.407 113.878C265.351 114.65 265.361 115.504 264.758 115.958C264.936 116.435 264.927 116.435 265.434 116.24C266.155 115.963 266.697 115.344 267.243 114.741C267.831 113.596 268.585 112.577 269.621 111.657C272.169 109.398 274.577 108.659 278.454 108.041C278.97 107.502 279.503 106.982 280.076 106.476C280.852 105.792 281.355 105.65 282.089 105.611C283.303 103.987 284.258 102.856 286.237 102.023C290.385 100.276 293.244 100.192 296.573 102.938C297.674 103.846 298.612 104.802 299.821 105.559C300.433 105.943 300.87 106.218 301.334 106.771C301.918 107.466 302.394 108.162 302.726 109.057C303.154 108.881 303.643 108.714 304.038 108.377C304.547 107.942 304.871 107.213 305.343 106.734C305.969 106.099 307.398 106.866 307.715 107.472C308.791 109.531 309.231 113.328 309.002 115.585C308.719 118.376 307.569 121.014 305.111 122.327C303.44 123.219 301.197 123.302 299.278 122.939C299.153 123.348 299.029 123.758 298.905 124.167C298.532 125.394 297.075 126.397 295.802 126.457C294.58 126.515 293.917 125.884 293.116 125.112C292.695 124.706 292.275 124.301 291.854 123.896C291.83 124.172 291.794 124.437 291.748 124.693C292.079 125.347 292.238 125.922 292.522 126.596C292.833 127.338 292.985 127.825 293.006 128.62C293.025 129.325 293.044 130.031 293.063 130.736C293.378 131.295 293.405 131.431 293.359 132.07C293.262 133.418 292.52 133.547 291.283 133.539C290.871 133.536 289.316 133.546 288.919 133.517C288.131 133.46 287.612 133.4 287.34 133.075ZM291.511 125.721C291.262 126.61 290.927 127.449 290.622 128.411C290.333 129.321 288.851 131.965 287.979 132.606C288.149 132.732 288.461 132.782 289.016 132.83C289.408 132.864 290.957 132.871 291.345 132.877C292.201 132.892 292.526 132.828 292.613 131.853C292.655 131.376 292.618 131.287 292.379 130.868C292.358 130.122 292.337 129.376 292.316 128.63C292.296 127.922 292.16 127.515 291.882 126.856C291.715 126.461 291.625 126.093 291.511 125.721ZM265.442 113.511C265.634 113.489 265.753 113.59 265.901 113.738C265.874 113.383 265.808 113.12 265.559 112.975C265.542 113.033 265.525 113.09 265.51 113.149C265.48 113.263 265.458 113.385 265.442 113.511ZM266.649 116.075C266.511 116.433 266.382 116.802 266.262 117.183C266.242 117.246 266.222 117.31 266.204 117.373C265.473 117.683 264.512 117.88 264.144 117.112C263.966 116.739 263.865 116.373 263.734 115.901C262.531 114.654 264.33 113.008 265.31 112.417C265.168 112.722 265.067 112.953 264.999 113.191C264.701 114.221 265.134 115.14 264.199 115.887C264.638 116.773 264.618 117.127 265.64 116.717C266.034 116.559 266.359 116.337 266.649 116.075ZM266.367 124.468C266.921 126.385 267.865 128.268 268.911 129.851C268.911 129.86 268.91 129.869 268.91 129.879C268.845 130.151 268.769 130.416 268.61 130.629C267.863 131.629 265.961 130.161 265.411 129.599C264.809 128.984 264.406 128.256 264.31 127.574C264.241 127.076 264.308 127.064 264.656 126.712C265.124 126.238 265.592 125.763 266.06 125.29C266.162 125.016 266.265 124.742 266.367 124.468ZM301.765 109.086C301.871 109.192 301.957 109.317 302.017 109.456C302.049 109.427 302.084 109.399 302.12 109.372C302.076 109.273 302.031 109.176 301.986 109.08C301.91 109.082 301.836 109.084 301.765 109.086ZM292.608 112.534C292.511 112.329 292.464 112.113 292.462 111.9C292.103 112.187 291.713 112.459 291.309 112.616C291.867 112.117 292.627 110.939 293.177 110.567C293.801 110.146 294.648 110.228 295.376 109.891C295.127 110.117 294.809 110.299 294.485 110.472C294.842 110.603 295.151 110.867 295.327 111.237C295.401 111.392 295.445 111.555 295.463 111.718C295.952 111.557 296.432 111.481 296.838 111.487C295.387 111.894 293.844 112.847 292.78 114.109C292.9 113.78 293.067 113.483 293.268 113.218C292.989 113.072 292.754 112.839 292.608 112.534ZM285.881 107.284C285.08 107.596 284.349 107.831 283.568 108.027C282.855 108.964 282.421 109.45 282.257 110.705C282.064 109.47 282.024 109.241 282.574 108.319C282.415 108.4 282.266 108.511 282.054 108.692C281.286 109.349 280.286 111.93 279.885 112.853C280.139 111.742 280.934 108.966 281.752 108.157C282.29 107.625 282.413 107.637 283.171 107.565C284.075 107.479 284.977 107.386 285.881 107.284ZM302.602 109.977C303.252 110.038 303.623 110.139 304.205 109.851C305.29 109.314 306.088 108.437 306.605 107.389C306.289 108.64 305.652 109.702 304.33 110.174C303.681 110.405 303.263 110.166 302.602 109.977ZM290.13 110.099C290.374 109.014 290.809 107.969 292.493 107.161C290.261 107.72 289.843 108.657 290.13 110.099ZM261.188 115.94C261.379 113.771 261.801 112.835 263.342 111.203C261.409 112.565 260.927 113.184 261.188 115.94Z" fill="black"/>
<path fill-rule="evenodd" clip-rule="evenodd" d="M292.899 112.883C292.75 112.571 292.883 112.195 293.196 112.046C293.509 111.897 293.886 112.03 294.035 112.342C294.049 112.372 294.06 112.402 294.069 112.433C293.771 112.654 293.497 112.916 293.267 113.218C293.113 113.156 292.976 113.043 292.899 112.883Z" fill="#FFFFCC"/>
<path fill-rule="evenodd" clip-rule="evenodd" d="M299.887 110.179C299.912 109.92 300.132 109.73 300.391 109.754C300.649 109.78 300.84 110.011 300.815 110.269C300.81 110.324 300.795 110.376 300.772 110.423C300.536 110.464 300.299 110.533 300.056 110.623C299.954 110.518 299.873 110.328 299.887 110.179Z" fill="#FFFFCC"/>
<defs>
<clipPath id="clip0">
<rect width="177" height="61" fill="white" transform="translate(258 171.728)"/>
</clipPath>
<clipPath id="clip1">
<rect width="177" height="53" fill="white" transform="translate(6 138.728)"/>
</clipPath>
</defs>
</svg>
