<svg  viewBox="0 0 650 325" fill="none" xmlns="http://www.w3.org/2000/svg">
<g clip-path="url(#clip0)">
<rect width="650" height="325" fill="white"/>
<path d="M34.1836 18.2031L37.875 28.0117L41.5576 18.2031H44.4316V31H42.2168V26.7812L42.4365 21.1387L38.6572 31H37.0664L33.2959 21.1475L33.5156 26.7812V31H31.3008V18.2031H34.1836ZM52.5439 31C52.4502 30.8184 52.3682 30.5225 52.2979 30.1123C51.6182 30.8213 50.7861 31.1758 49.8018 31.1758C48.8467 31.1758 48.0674 30.9033 47.4639 30.3584C46.8604 29.8135 46.5586 29.1396 46.5586 28.3369C46.5586 27.3232 46.9336 26.5469 47.6836 26.0078C48.4395 25.4629 49.5176 25.1904 50.918 25.1904H52.2275V24.5664C52.2275 24.0742 52.0898 23.6816 51.8145 23.3887C51.5391 23.0898 51.1201 22.9404 50.5576 22.9404C50.0713 22.9404 49.6729 23.0635 49.3623 23.3096C49.0518 23.5498 48.8965 23.8574 48.8965 24.2324H46.7607C46.7607 23.7109 46.9336 23.2246 47.2793 22.7734C47.625 22.3164 48.0938 21.959 48.6855 21.7012C49.2832 21.4434 49.9482 21.3145 50.6807 21.3145C51.7939 21.3145 52.6816 21.5957 53.3438 22.1582C54.0059 22.7148 54.3457 23.5 54.3633 24.5137V28.8027C54.3633 29.6582 54.4834 30.3408 54.7236 30.8506V31H52.5439ZM50.1973 29.4619C50.6191 29.4619 51.0146 29.3594 51.3838 29.1543C51.7588 28.9492 52.04 28.6738 52.2275 28.3281V26.5352H51.0762C50.2852 26.5352 49.6904 26.6729 49.292 26.9482C48.8936 27.2236 48.6943 27.6133 48.6943 28.1172C48.6943 28.5273 48.8291 28.8555 49.0986 29.1016C49.374 29.3418 49.7402 29.4619 50.1973 29.4619ZM58.8721 31H56.7363V21.4902H58.8721V31ZM56.6045 19.0205C56.6045 18.6924 56.707 18.4199 56.9121 18.2031C57.123 17.9863 57.4219 17.8779 57.8086 17.8779C58.1953 17.8779 58.4941 17.9863 58.7051 18.2031C58.916 18.4199 59.0215 18.6924 59.0215 19.0205C59.0215 19.3428 58.916 19.6123 58.7051 19.8291C58.4941 20.04 58.1953 20.1455 57.8086 20.1455C57.4219 20.1455 57.123 20.04 56.9121 19.8291C56.707 19.6123 56.6045 19.3428 56.6045 19.0205ZM63.1875 21.4902L63.249 22.5889C63.9521 21.7393 64.875 21.3145 66.0176 21.3145C67.998 21.3145 69.0059 22.4482 69.041 24.7158V31H66.9053V24.8389C66.9053 24.2354 66.7734 23.79 66.5098 23.5029C66.252 23.21 65.8271 23.0635 65.2354 23.0635C64.374 23.0635 63.7324 23.4531 63.3105 24.2324V31H61.1748V21.4902H63.1875ZM82.6025 27.7041C82.6025 27.1416 82.4033 26.708 82.0049 26.4033C81.6123 26.0986 80.9004 25.791 79.8691 25.4805C78.8379 25.1699 78.0176 24.8242 77.4082 24.4434C76.2422 23.7109 75.6592 22.7559 75.6592 21.5781C75.6592 20.5469 76.0781 19.6973 76.916 19.0293C77.7598 18.3613 78.8525 18.0273 80.1943 18.0273C81.085 18.0273 81.8789 18.1914 82.5762 18.5195C83.2734 18.8477 83.8213 19.3164 84.2197 19.9258C84.6182 20.5293 84.8174 21.2002 84.8174 21.9385H82.6025C82.6025 21.2705 82.3916 20.749 81.9697 20.374C81.5537 19.9932 80.9561 19.8027 80.1768 19.8027C79.4502 19.8027 78.8848 19.958 78.4805 20.2686C78.082 20.5791 77.8828 21.0127 77.8828 21.5693C77.8828 22.0381 78.0996 22.4307 78.5332 22.7471C78.9668 23.0576 79.6816 23.3623 80.6777 23.6611C81.6738 23.9541 82.4736 24.291 83.0771 24.6719C83.6807 25.0469 84.123 25.4805 84.4043 25.9727C84.6855 26.459 84.8262 27.0303 84.8262 27.6865C84.8262 28.7529 84.416 29.6025 83.5957 30.2354C82.7812 30.8623 81.6738 31.1758 80.2734 31.1758C79.3477 31.1758 78.4951 31.0059 77.7158 30.666C76.9424 30.3203 76.3389 29.8457 75.9053 29.2422C75.4775 28.6387 75.2637 27.9355 75.2637 27.1328H77.4873C77.4873 27.8594 77.7275 28.4219 78.208 28.8203C78.6885 29.2188 79.377 29.418 80.2734 29.418C81.0469 29.418 81.627 29.2627 82.0137 28.9521C82.4062 28.6357 82.6025 28.2197 82.6025 27.7041ZM90.7588 31.1758C89.4053 31.1758 88.3066 30.751 87.4629 29.9014C86.625 29.0459 86.2061 27.9092 86.2061 26.4912V26.2275C86.2061 25.2783 86.3877 24.4316 86.751 23.6875C87.1201 22.9375 87.6357 22.3545 88.2979 21.9385C88.96 21.5225 89.6982 21.3145 90.5127 21.3145C91.8076 21.3145 92.8066 21.7275 93.5098 22.5537C94.2188 23.3799 94.5732 24.5488 94.5732 26.0605V26.9219H88.3594C88.4238 27.707 88.6846 28.3281 89.1416 28.7852C89.6045 29.2422 90.1846 29.4707 90.8818 29.4707C91.8604 29.4707 92.6572 29.0752 93.2725 28.2842L94.4238 29.3828C94.043 29.9512 93.5332 30.3936 92.8945 30.71C92.2617 31.0205 91.5498 31.1758 90.7588 31.1758ZM90.5039 23.0283C89.918 23.0283 89.4434 23.2334 89.0801 23.6436C88.7227 24.0537 88.4941 24.625 88.3945 25.3574H92.4639V25.1992C92.417 24.4844 92.2266 23.9453 91.8926 23.582C91.5586 23.2129 91.0957 23.0283 90.5039 23.0283ZM98.915 19.1787V21.4902H100.594V23.0723H98.915V28.3809C98.915 28.7441 98.9854 29.0078 99.126 29.1719C99.2725 29.3301 99.5303 29.4092 99.8994 29.4092C100.146 29.4092 100.395 29.3799 100.646 29.3213V30.9736C100.16 31.1084 99.6914 31.1758 99.2402 31.1758C97.5996 31.1758 96.7793 30.2705 96.7793 28.46V23.0723H95.2148V21.4902H96.7793V19.1787H98.915ZM104.909 19.1787V21.4902H106.588V23.0723H104.909V28.3809C104.909 28.7441 104.979 29.0078 105.12 29.1719C105.267 29.3301 105.524 29.4092 105.894 29.4092C106.14 29.4092 106.389 29.3799 106.641 29.3213V30.9736C106.154 31.1084 105.686 31.1758 105.234 31.1758C103.594 31.1758 102.773 30.2705 102.773 28.46V23.0723H101.209V21.4902H102.773V19.1787H104.909ZM110.499 31H108.363V21.4902H110.499V31ZM108.231 19.0205C108.231 18.6924 108.334 18.4199 108.539 18.2031C108.75 17.9863 109.049 17.8779 109.436 17.8779C109.822 17.8779 110.121 17.9863 110.332 18.2031C110.543 18.4199 110.648 18.6924 110.648 19.0205C110.648 19.3428 110.543 19.6123 110.332 19.8291C110.121 20.04 109.822 20.1455 109.436 20.1455C109.049 20.1455 108.75 20.04 108.539 19.8291C108.334 19.6123 108.231 19.3428 108.231 19.0205ZM114.814 21.4902L114.876 22.5889C115.579 21.7393 116.502 21.3145 117.645 21.3145C119.625 21.3145 120.633 22.4482 120.668 24.7158V31H118.532V24.8389C118.532 24.2354 118.4 23.79 118.137 23.5029C117.879 23.21 117.454 23.0635 116.862 23.0635C116.001 23.0635 115.359 23.4531 114.938 24.2324V31H112.802V21.4902H114.814ZM122.479 26.1748C122.479 24.6982 122.824 23.5205 123.516 22.6416C124.213 21.7568 125.136 21.3145 126.284 21.3145C127.368 21.3145 128.221 21.6924 128.842 22.4482L128.938 21.4902H130.863V30.71C130.863 31.958 130.474 32.9424 129.694 33.6631C128.921 34.3838 127.875 34.7441 126.557 34.7441C125.859 34.7441 125.177 34.5977 124.509 34.3047C123.847 34.0176 123.343 33.6396 122.997 33.1709L124.008 31.8877C124.664 32.667 125.473 33.0566 126.434 33.0566C127.143 33.0566 127.702 32.8633 128.112 32.4766C128.522 32.0957 128.728 31.5332 128.728 30.7891V30.1475C128.112 30.833 127.292 31.1758 126.267 31.1758C125.153 31.1758 124.242 30.7334 123.533 29.8486C122.83 28.9639 122.479 27.7393 122.479 26.1748ZM124.605 26.3594C124.605 27.3145 124.799 28.0674 125.186 28.6182C125.578 29.1631 126.12 29.4355 126.812 29.4355C127.673 29.4355 128.312 29.0664 128.728 28.3281V24.1445C128.323 23.4238 127.69 23.0635 126.829 23.0635C126.126 23.0635 125.578 23.3418 125.186 23.8984C124.799 24.4551 124.605 25.2754 124.605 26.3594ZM138.396 28.416C138.396 28.0352 138.237 27.7451 137.921 27.5459C137.61 27.3467 137.092 27.1709 136.365 27.0186C135.639 26.8662 135.032 26.6729 134.546 26.4385C133.479 25.9229 132.946 25.1758 132.946 24.1973C132.946 23.377 133.292 22.6914 133.983 22.1406C134.675 21.5898 135.554 21.3145 136.62 21.3145C137.757 21.3145 138.674 21.5957 139.371 22.1582C140.074 22.7207 140.426 23.4502 140.426 24.3467H138.29C138.29 23.9365 138.138 23.5967 137.833 23.3271C137.528 23.0518 137.124 22.9141 136.62 22.9141C136.151 22.9141 135.768 23.0225 135.469 23.2393C135.176 23.4561 135.029 23.7461 135.029 24.1094C135.029 24.4375 135.167 24.6924 135.442 24.874C135.718 25.0557 136.274 25.2402 137.112 25.4277C137.95 25.6094 138.606 25.8291 139.081 26.0869C139.562 26.3389 139.916 26.6436 140.145 27.001C140.379 27.3584 140.496 27.792 140.496 28.3018C140.496 29.1572 140.142 29.8516 139.433 30.3848C138.724 30.9121 137.795 31.1758 136.646 31.1758C135.867 31.1758 135.173 31.0352 134.563 30.7539C133.954 30.4727 133.479 30.0859 133.14 29.5938C132.8 29.1016 132.63 28.5713 132.63 28.0029H134.704C134.733 28.5068 134.924 28.8965 135.275 29.1719C135.627 29.4414 136.093 29.5762 136.673 29.5762C137.235 29.5762 137.663 29.4707 137.956 29.2598C138.249 29.043 138.396 28.7617 138.396 28.416Z" fill="#F3652B"/>
<path d="M49.5 99C49.5 104.247 45.2467 108.5 40 108.5C34.7533 108.5 30.5 104.247 30.5 99C30.5 93.7533 34.7533 89.5 40 89.5C45.2467 89.5 49.5 93.7533 49.5 99Z" stroke="#F3652B"/>
<path fill-rule="evenodd" clip-rule="evenodd" d="M132 106C135.866 106 139 102.866 139 99C139 95.134 135.866 92 132 92C128.134 92 125 95.134 125 99C125 102.866 128.134 106 132 106Z" fill="#F3652B"/>
<path d="M31.2378 77V66.3359H34.248C35.1758 66.3359 35.9961 66.541 36.709 66.9512C37.4219 67.3613 37.9712 67.9448 38.3569 68.7017C38.7476 69.4585 38.9453 70.3276 38.9502 71.3091V71.9902C38.9502 72.9961 38.7549 73.8774 38.3643 74.6343C37.9785 75.3911 37.4243 75.9722 36.7017 76.3774C35.9839 76.7827 35.1465 76.9902 34.1895 77H31.2378ZM32.644 67.4932V75.8501H34.1235C35.2075 75.8501 36.0498 75.5132 36.6504 74.8394C37.2559 74.1655 37.5586 73.2061 37.5586 71.9609V71.3384C37.5586 70.1274 37.2729 69.1875 36.7017 68.5186C36.1353 67.8447 35.3296 67.5029 34.2847 67.4932H32.644ZM44.1577 77.1465C43.0835 77.1465 42.2095 76.7949 41.5356 76.0918C40.8618 75.3838 40.5249 74.439 40.5249 73.2573V73.0083C40.5249 72.2222 40.6738 71.5215 40.9717 70.9062C41.2744 70.2861 41.6943 69.8027 42.2314 69.4561C42.7734 69.1045 43.3594 68.9287 43.9893 68.9287C45.0195 68.9287 45.8203 69.2681 46.3916 69.9468C46.9629 70.6255 47.2485 71.5972 47.2485 72.8618V73.4258H41.8799C41.8994 74.207 42.1265 74.8394 42.561 75.3228C43.0005 75.8013 43.5571 76.0405 44.231 76.0405C44.7095 76.0405 45.1147 75.9429 45.4468 75.7476C45.7788 75.5522 46.0693 75.2935 46.3184 74.9712L47.146 75.6157C46.4819 76.6362 45.4858 77.1465 44.1577 77.1465ZM43.9893 70.042C43.4424 70.042 42.9834 70.2422 42.6123 70.6426C42.2412 71.0381 42.0117 71.5947 41.9238 72.3125H45.8936V72.21C45.8545 71.5215 45.6689 70.9893 45.3369 70.6133C45.0049 70.2324 44.5557 70.042 43.9893 70.042ZM50.2954 77H48.9404V65.75H50.2954V77ZM53.9429 77H52.5879V69.0752H53.9429V77ZM52.478 66.9731C52.478 66.7534 52.5439 66.5679 52.6758 66.4165C52.8125 66.2651 53.0127 66.1895 53.2764 66.1895C53.54 66.1895 53.7402 66.2651 53.877 66.4165C54.0137 66.5679 54.082 66.7534 54.082 66.9731C54.082 67.1929 54.0137 67.376 53.877 67.5225C53.7402 67.6689 53.54 67.7422 53.2764 67.7422C53.0127 67.7422 52.8125 67.6689 52.6758 67.5225C52.5439 67.376 52.478 67.1929 52.478 66.9731ZM58.7329 75.1616L60.6958 69.0752H62.0801L59.2383 77H58.2056L55.3345 69.0752H56.7188L58.7329 75.1616ZM66.5698 77.1465C65.4956 77.1465 64.6216 76.7949 63.9478 76.0918C63.2739 75.3838 62.937 74.439 62.937 73.2573V73.0083C62.937 72.2222 63.0859 71.5215 63.3838 70.9062C63.6865 70.2861 64.1064 69.8027 64.6436 69.4561C65.1855 69.1045 65.7715 68.9287 66.4014 68.9287C67.4316 68.9287 68.2324 69.2681 68.8037 69.9468C69.375 70.6255 69.6606 71.5972 69.6606 72.8618V73.4258H64.292C64.3115 74.207 64.5386 74.8394 64.9731 75.3228C65.4126 75.8013 65.9692 76.0405 66.6431 76.0405C67.1216 76.0405 67.5269 75.9429 67.8589 75.7476C68.1909 75.5522 68.4814 75.2935 68.7305 74.9712L69.5581 75.6157C68.894 76.6362 67.8979 77.1465 66.5698 77.1465ZM66.4014 70.042C65.8545 70.042 65.3955 70.2422 65.0244 70.6426C64.6533 71.0381 64.4238 71.5947 64.3359 72.3125H68.3057V72.21C68.2666 71.5215 68.0811 70.9893 67.749 70.6133C67.417 70.2324 66.9678 70.042 66.4014 70.042ZM75.0659 70.291C74.8608 70.2568 74.6387 70.2397 74.3994 70.2397C73.5107 70.2397 72.9077 70.6182 72.5903 71.375V77H71.2354V69.0752H72.5537L72.5757 69.9907C73.02 69.2827 73.6499 68.9287 74.4653 68.9287C74.729 68.9287 74.9292 68.9629 75.0659 69.0312V70.291ZM79.043 75.0151L80.8887 69.0752H82.3389L79.1528 78.2231C78.6597 79.5415 77.876 80.2007 76.8018 80.2007L76.5454 80.1787L76.04 80.0835V78.9849L76.4062 79.0142C76.8652 79.0142 77.2217 78.9214 77.4756 78.7358C77.7344 78.5503 77.9468 78.2109 78.1128 77.7178L78.4131 76.9121L75.5859 69.0752H77.0654L79.043 75.0151ZM88.894 72.8252V77H87.4878V66.3359H91.4209C92.5879 66.3359 93.501 66.6338 94.1602 67.2295C94.8242 67.8252 95.1562 68.6138 95.1562 69.5952C95.1562 70.6304 94.8315 71.4287 94.1821 71.9902C93.5376 72.5469 92.6123 72.8252 91.4062 72.8252H88.894ZM88.894 71.6753H91.4209C92.1729 71.6753 92.749 71.4995 93.1494 71.1479C93.5498 70.7915 93.75 70.2788 93.75 69.6099C93.75 68.9751 93.5498 68.4673 93.1494 68.0864C92.749 67.7056 92.1997 67.5078 91.5015 67.4932H88.894V71.6753ZM100.569 70.291C100.364 70.2568 100.142 70.2397 99.9023 70.2397C99.0137 70.2397 98.4106 70.6182 98.0933 71.375V77H96.7383V69.0752H98.0566L98.0786 69.9907C98.5229 69.2827 99.1528 68.9287 99.9683 68.9287C100.232 68.9287 100.432 68.9629 100.569 69.0312V70.291ZM101.316 72.9644C101.316 72.188 101.467 71.4897 101.77 70.8696C102.078 70.2495 102.502 69.771 103.044 69.4341C103.591 69.0972 104.214 68.9287 104.912 68.9287C105.991 68.9287 106.863 69.3022 107.527 70.0493C108.196 70.7964 108.53 71.79 108.53 73.0303V73.1255C108.53 73.897 108.381 74.5903 108.083 75.2056C107.791 75.8159 107.368 76.292 106.816 76.6338C106.27 76.9756 105.64 77.1465 104.927 77.1465C103.853 77.1465 102.981 76.7729 102.312 76.0259C101.648 75.2788 101.316 74.29 101.316 73.0596V72.9644ZM102.678 73.1255C102.678 74.0044 102.881 74.71 103.286 75.2422C103.696 75.7744 104.243 76.0405 104.927 76.0405C105.615 76.0405 106.162 75.772 106.567 75.2349C106.973 74.6929 107.175 73.936 107.175 72.9644C107.175 72.0952 106.968 71.3921 106.553 70.855C106.143 70.313 105.596 70.042 104.912 70.042C104.243 70.042 103.704 70.3081 103.293 70.8403C102.883 71.3726 102.678 72.1343 102.678 73.1255ZM112.068 67.1562V69.0752H113.547V70.1226H112.068V75.0371C112.068 75.3545 112.134 75.5938 112.266 75.7549C112.397 75.9111 112.622 75.9893 112.939 75.9893C113.096 75.9893 113.311 75.96 113.584 75.9014V77C113.228 77.0977 112.881 77.1465 112.544 77.1465C111.938 77.1465 111.482 76.9634 111.174 76.5972C110.867 76.231 110.713 75.7109 110.713 75.0371V70.1226H109.27V69.0752H110.713V67.1562H112.068ZM114.631 72.9644C114.631 72.188 114.783 71.4897 115.085 70.8696C115.393 70.2495 115.818 69.771 116.36 69.4341C116.907 69.0972 117.529 68.9287 118.228 68.9287C119.307 68.9287 120.178 69.3022 120.842 70.0493C121.511 70.7964 121.846 71.79 121.846 73.0303V73.1255C121.846 73.897 121.697 74.5903 121.399 75.2056C121.106 75.8159 120.684 76.292 120.132 76.6338C119.585 76.9756 118.955 77.1465 118.242 77.1465C117.168 77.1465 116.296 76.7729 115.627 76.0259C114.963 75.2788 114.631 74.29 114.631 73.0596V72.9644ZM115.994 73.1255C115.994 74.0044 116.196 74.71 116.602 75.2422C117.012 75.7744 117.559 76.0405 118.242 76.0405C118.931 76.0405 119.478 75.772 119.883 75.2349C120.288 74.6929 120.491 73.936 120.491 72.9644C120.491 72.0952 120.283 71.3921 119.868 70.855C119.458 70.313 118.911 70.042 118.228 70.042C117.559 70.042 117.019 70.3081 116.609 70.8403C116.199 71.3726 115.994 72.1343 115.994 73.1255ZM126.724 76.0405C127.207 76.0405 127.629 75.894 127.991 75.6011C128.352 75.3081 128.552 74.9419 128.591 74.5024H129.873C129.849 74.9565 129.692 75.3887 129.404 75.7988C129.116 76.209 128.73 76.5361 128.247 76.7803C127.769 77.0244 127.261 77.1465 126.724 77.1465C125.645 77.1465 124.785 76.7876 124.146 76.0698C123.511 75.3472 123.193 74.3608 123.193 73.1108V72.8838C123.193 72.1123 123.335 71.4263 123.618 70.8257C123.901 70.2251 124.307 69.7588 124.834 69.4268C125.366 69.0947 125.994 68.9287 126.716 68.9287C127.605 68.9287 128.342 69.1948 128.928 69.7271C129.519 70.2593 129.834 70.9502 129.873 71.7998H128.591C128.552 71.2871 128.357 70.8672 128.005 70.54C127.659 70.208 127.229 70.042 126.716 70.042C126.028 70.042 125.493 70.291 125.112 70.7891C124.736 71.2822 124.548 71.9976 124.548 72.9351V73.1914C124.548 74.1045 124.736 74.8076 125.112 75.3008C125.488 75.7939 126.025 76.0405 126.724 76.0405ZM131.038 72.9644C131.038 72.188 131.189 71.4897 131.492 70.8696C131.799 70.2495 132.224 69.771 132.766 69.4341C133.313 69.0972 133.936 68.9287 134.634 68.9287C135.713 68.9287 136.584 69.3022 137.249 70.0493C137.917 70.7964 138.252 71.79 138.252 73.0303V73.1255C138.252 73.897 138.103 74.5903 137.805 75.2056C137.512 75.8159 137.09 76.292 136.538 76.6338C135.991 76.9756 135.361 77.1465 134.648 77.1465C133.574 77.1465 132.703 76.7729 132.034 76.0259C131.37 75.2788 131.038 74.29 131.038 73.0596V72.9644ZM132.4 73.1255C132.4 74.0044 132.603 74.71 133.008 75.2422C133.418 75.7744 133.965 76.0405 134.648 76.0405C135.337 76.0405 135.884 75.772 136.289 75.2349C136.694 74.6929 136.897 73.936 136.897 72.9644C136.897 72.0952 136.689 71.3921 136.274 70.855C135.864 70.313 135.317 70.042 134.634 70.042C133.965 70.042 133.425 70.3081 133.015 70.8403C132.605 71.3726 132.4 72.1343 132.4 73.1255ZM141.423 77H140.068V65.75H141.423V77ZM143.555 76.2896C143.555 76.0552 143.623 75.8599 143.76 75.7036C143.901 75.5474 144.111 75.4692 144.39 75.4692C144.668 75.4692 144.878 75.5474 145.02 75.7036C145.166 75.8599 145.239 76.0552 145.239 76.2896C145.239 76.5142 145.166 76.7021 145.02 76.8535C144.878 77.0049 144.668 77.0806 144.39 77.0806C144.111 77.0806 143.901 77.0049 143.76 76.8535C143.623 76.7021 143.555 76.5142 143.555 76.2896ZM143.562 69.8223C143.562 69.5879 143.63 69.3926 143.767 69.2363C143.909 69.0801 144.119 69.002 144.397 69.002C144.675 69.002 144.885 69.0801 145.027 69.2363C145.173 69.3926 145.247 69.5879 145.247 69.8223C145.247 70.0469 145.173 70.2349 145.027 70.3862C144.885 70.5376 144.675 70.6133 144.397 70.6133C144.119 70.6133 143.909 70.5376 143.767 70.3862C143.63 70.2349 143.562 70.0469 143.562 69.8223Z" fill="#646464"/>
<path d="M69.4336 105H68.02V100.071H62.644V105H61.2378V94.3359H62.644V98.9209H68.02V94.3359H69.4336V105ZM79.0796 95.4932H75.6519V105H74.2529V95.4932H70.8325V94.3359H79.0796V95.4932ZM88.147 95.4932H84.7192V105H83.3203V95.4932H79.8999V94.3359H88.147V95.4932ZM91.1353 100.825V105H89.729V94.3359H93.6621C94.8291 94.3359 95.7422 94.6338 96.4014 95.2295C97.0654 95.8252 97.3975 96.6138 97.3975 97.5952C97.3975 98.6304 97.0728 99.4287 96.4233 99.9902C95.7788 100.547 94.8535 100.825 93.6475 100.825H91.1353ZM91.1353 99.6753H93.6621C94.4141 99.6753 94.9902 99.4995 95.3906 99.1479C95.791 98.7915 95.9912 98.2788 95.9912 97.6099C95.9912 96.9751 95.791 96.4673 95.3906 96.0864C94.9902 95.7056 94.4409 95.5078 93.7427 95.4932H91.1353V99.6753Z" fill="#646464"/>
<path d="M141.5 99C141.5 104.247 137.247 108.5 132 108.5C126.753 108.5 122.5 104.247 122.5 99C122.5 93.7533 126.753 89.5 132 89.5C137.247 89.5 141.5 93.7533 141.5 99Z" stroke="#F3652B"/>
<path d="M161.434 105H160.02V100.071H154.644V105H153.238V94.3359H154.644V98.9209H160.02V94.3359H161.434V105ZM171.08 95.4932H167.652V105H166.253V95.4932H162.833V94.3359H171.08V95.4932ZM180.147 95.4932H176.719V105H175.32V95.4932H171.9V94.3359H180.147V95.4932ZM183.135 100.825V105H181.729V94.3359H185.662C186.829 94.3359 187.742 94.6338 188.401 95.2295C189.065 95.8252 189.397 96.6138 189.397 97.5952C189.397 98.6304 189.073 99.4287 188.423 99.9902C187.779 100.547 186.854 100.825 185.647 100.825H183.135ZM183.135 99.6753H185.662C186.414 99.6753 186.99 99.4995 187.391 99.1479C187.791 98.7915 187.991 98.2788 187.991 97.6099C187.991 96.9751 187.791 96.4673 187.391 96.0864C186.99 95.7056 186.441 95.5078 185.743 95.4932H183.135V99.6753ZM194.415 102.136C194.415 101.624 194.556 101.152 194.839 100.723C195.127 100.293 195.674 99.7925 196.48 99.2212C196.006 98.645 195.689 98.1812 195.528 97.8296C195.367 97.478 195.286 97.1289 195.286 96.7822C195.286 95.9717 195.525 95.3369 196.004 94.8779C196.482 94.4189 197.132 94.1895 197.952 94.1895C198.685 94.1895 199.29 94.4043 199.769 94.834C200.247 95.2588 200.486 95.7959 200.486 96.4453C200.486 96.875 200.376 97.2729 200.157 97.6392C199.942 98.0005 199.563 98.3813 199.021 98.7817L198.238 99.3604L200.611 102.195C200.943 101.56 201.109 100.854 201.109 100.078H202.332C202.332 101.323 202.032 102.356 201.431 103.176L202.955 105H201.329L200.618 104.158C200.257 104.48 199.832 104.727 199.344 104.897C198.86 105.063 198.367 105.146 197.864 105.146C196.824 105.146 195.989 104.871 195.359 104.319C194.729 103.767 194.415 103.04 194.415 102.136ZM197.864 104.041C198.582 104.041 199.239 103.767 199.834 103.22L197.234 100.107L196.993 100.283C196.177 100.884 195.77 101.501 195.77 102.136C195.77 102.712 195.955 103.174 196.326 103.521C196.702 103.867 197.215 104.041 197.864 104.041ZM196.641 96.7383C196.641 97.207 196.929 97.793 197.505 98.4961L198.37 97.8882C198.702 97.6538 198.929 97.4316 199.051 97.2217C199.173 97.0068 199.234 96.748 199.234 96.4453C199.234 96.1182 199.112 95.8472 198.868 95.6323C198.624 95.4126 198.316 95.3027 197.945 95.3027C197.544 95.3027 197.227 95.4395 196.993 95.7129C196.758 95.9814 196.641 96.3232 196.641 96.7383ZM216.16 105H214.747V100.071H209.371V105H207.964V94.3359H209.371V98.9209H214.747V94.3359H216.16V105ZM225.806 95.4932H222.378V105H220.979V95.4932H217.559V94.3359H225.806V95.4932ZM234.874 95.4932H231.446V105H230.047V95.4932H226.626V94.3359H234.874V95.4932ZM237.862 100.825V105H236.456V94.3359H240.389C241.556 94.3359 242.469 94.6338 243.128 95.2295C243.792 95.8252 244.124 96.6138 244.124 97.5952C244.124 98.6304 243.799 99.4287 243.15 99.9902C242.505 100.547 241.58 100.825 240.374 100.825H237.862ZM237.862 99.6753H240.389C241.141 99.6753 241.717 99.4995 242.117 99.1479C242.518 98.7915 242.718 98.2788 242.718 97.6099C242.718 96.9751 242.518 96.4673 242.117 96.0864C241.717 95.7056 241.167 95.5078 240.469 95.4932H237.862V99.6753ZM249.061 100.247C247.854 99.8999 246.976 99.4751 246.424 98.9722C245.877 98.4644 245.604 97.8394 245.604 97.0972C245.604 96.2573 245.938 95.564 246.607 95.0171C247.281 94.4653 248.155 94.1895 249.229 94.1895C249.961 94.1895 250.613 94.3311 251.185 94.6143C251.761 94.8975 252.205 95.2881 252.518 95.7861C252.835 96.2842 252.994 96.8286 252.994 97.4194H251.58C251.58 96.7749 251.375 96.2695 250.965 95.9033C250.555 95.5322 249.976 95.3467 249.229 95.3467C248.536 95.3467 247.994 95.5005 247.603 95.8081C247.217 96.1108 247.024 96.5332 247.024 97.0752C247.024 97.5098 247.208 97.8784 247.574 98.1812C247.945 98.479 248.572 98.7524 249.456 99.0015C250.345 99.2505 251.038 99.5264 251.536 99.8291C252.039 100.127 252.41 100.476 252.649 100.876C252.894 101.277 253.016 101.748 253.016 102.29C253.016 103.154 252.679 103.848 252.005 104.37C251.331 104.888 250.43 105.146 249.302 105.146C248.57 105.146 247.886 105.007 247.251 104.729C246.617 104.446 246.126 104.06 245.779 103.572C245.438 103.083 245.267 102.529 245.267 101.909H246.68C246.68 102.554 246.917 103.064 247.391 103.44C247.869 103.811 248.506 103.997 249.302 103.997C250.044 103.997 250.613 103.845 251.009 103.542C251.404 103.24 251.602 102.827 251.602 102.305C251.602 101.782 251.419 101.379 251.053 101.096C250.687 100.808 250.022 100.525 249.061 100.247Z" fill="#646464"/>
<path fill-rule="evenodd" clip-rule="evenodd" d="M172 66C168.688 66 166 68.688 166 72C166 75.312 168.688 78 172 78C175.312 78 178 75.312 178 72C178 68.688 175.312 66 172 66ZM171.4 75V71.4H172.6V75H171.4ZM171.4 69V70.2H172.6V69H171.4Z" fill="#AAAAAA"/>
<rect x="30" y="261" width="591" height="40" rx="5" stroke="#DFDFDF" stroke-miterlimit="16" stroke-dasharray="3 3"/>
<path d="M48.606 276.493H45.1782V286H43.7793V276.493H40.3589V275.336H48.606V276.493ZM51.6016 284.85H56.6553V286H50.188V275.336H51.6016V284.85ZM61.4014 281.247C60.1953 280.9 59.3164 280.475 58.7646 279.972C58.2178 279.464 57.9443 278.839 57.9443 278.097C57.9443 277.257 58.2788 276.564 58.9478 276.017C59.6216 275.465 60.4956 275.189 61.5698 275.189C62.3022 275.189 62.9541 275.331 63.5254 275.614C64.1016 275.897 64.5459 276.288 64.8584 276.786C65.1758 277.284 65.3345 277.829 65.3345 278.419H63.9209C63.9209 277.775 63.7158 277.27 63.3057 276.903C62.8955 276.532 62.3169 276.347 61.5698 276.347C60.8765 276.347 60.3345 276.5 59.9438 276.808C59.5581 277.111 59.3652 277.533 59.3652 278.075C59.3652 278.51 59.5483 278.878 59.9146 279.181C60.2856 279.479 60.9131 279.752 61.7969 280.001C62.6855 280.25 63.3789 280.526 63.877 280.829C64.3799 281.127 64.751 281.476 64.9902 281.876C65.2344 282.277 65.3564 282.748 65.3564 283.29C65.3564 284.154 65.0195 284.848 64.3457 285.37C63.6719 285.888 62.771 286.146 61.6431 286.146C60.9106 286.146 60.2271 286.007 59.5923 285.729C58.9575 285.446 58.4668 285.06 58.1201 284.572C57.7783 284.083 57.6074 283.529 57.6074 282.909H59.021C59.021 283.554 59.2578 284.064 59.7314 284.44C60.21 284.811 60.8472 284.997 61.6431 284.997C62.3853 284.997 62.9541 284.845 63.3496 284.542C63.7451 284.24 63.9429 283.827 63.9429 283.305C63.9429 282.782 63.7598 282.379 63.3936 282.096C63.0273 281.808 62.3633 281.525 61.4014 281.247ZM74.9878 286H73.6255V276.969L70.8936 277.973V276.742L74.7754 275.285H74.9878V286ZM79.126 285.29C79.126 285.055 79.1943 284.86 79.3311 284.704C79.4727 284.547 79.6826 284.469 79.9609 284.469C80.2393 284.469 80.4492 284.547 80.5908 284.704C80.7373 284.86 80.8105 285.055 80.8105 285.29C80.8105 285.514 80.7373 285.702 80.5908 285.854C80.4492 286.005 80.2393 286.081 79.9609 286.081C79.6826 286.081 79.4727 286.005 79.3311 285.854C79.1943 285.702 79.126 285.514 79.126 285.29ZM89.8999 286H82.9126V285.026L86.604 280.924C87.1509 280.304 87.5269 279.801 87.7319 279.416C87.9419 279.025 88.0469 278.622 88.0469 278.207C88.0469 277.65 87.8784 277.194 87.5415 276.837C87.2046 276.481 86.7554 276.303 86.1938 276.303C85.52 276.303 84.9951 276.496 84.6191 276.881C84.248 277.262 84.0625 277.794 84.0625 278.478H82.7075C82.7075 277.497 83.0225 276.703 83.6523 276.098C84.2871 275.492 85.1343 275.189 86.1938 275.189C87.1851 275.189 87.9688 275.451 88.5449 275.973C89.1211 276.491 89.4092 277.182 89.4092 278.046C89.4092 279.096 88.7402 280.346 87.4023 281.796L84.5459 284.894H89.8999V286Z" fill="#AAAAAA"/>
<path d="M33.0542 236.336L36.5405 245.037L40.0269 236.336H41.8506V247H40.4443V242.847L40.5762 238.365L37.0752 247H35.9985L32.5049 238.387L32.644 242.847V247H31.2378V236.336H33.0542ZM45.5933 247H44.2383V239.075H45.5933V247ZM44.1284 236.973C44.1284 236.753 44.1943 236.568 44.3262 236.417C44.4629 236.265 44.6631 236.189 44.9268 236.189C45.1904 236.189 45.3906 236.265 45.5273 236.417C45.6641 236.568 45.7324 236.753 45.7324 236.973C45.7324 237.193 45.6641 237.376 45.5273 237.522C45.3906 237.669 45.1904 237.742 44.9268 237.742C44.6631 237.742 44.4629 237.669 44.3262 237.522C44.1943 237.376 44.1284 237.193 44.1284 236.973ZM49.0503 239.075L49.0942 240.071C49.6997 239.31 50.4907 238.929 51.4673 238.929C53.1421 238.929 53.9868 239.874 54.0015 241.763V247H52.6465V241.756C52.6416 241.185 52.5098 240.762 52.251 240.489C51.9971 240.215 51.5991 240.079 51.0571 240.079C50.6177 240.079 50.2319 240.196 49.8999 240.43C49.5679 240.665 49.3091 240.972 49.1235 241.353V247H47.7686V239.075H49.0503ZM57.5171 247H56.1621V239.075H57.5171V247ZM56.0522 236.973C56.0522 236.753 56.1182 236.568 56.25 236.417C56.3867 236.265 56.5869 236.189 56.8506 236.189C57.1143 236.189 57.3145 236.265 57.4512 236.417C57.5879 236.568 57.6562 236.753 57.6562 236.973C57.6562 237.193 57.5879 237.376 57.4512 237.522C57.3145 237.669 57.1143 237.742 56.8506 237.742C56.5869 237.742 56.3867 237.669 56.25 237.522C56.1182 237.376 56.0522 237.193 56.0522 236.973ZM60.9668 239.075L61.0034 239.954C61.5845 239.271 62.3682 238.929 63.3545 238.929C64.4629 238.929 65.2173 239.354 65.6177 240.203C65.8813 239.822 66.2231 239.515 66.6431 239.28C67.0679 239.046 67.5684 238.929 68.1445 238.929C69.8828 238.929 70.7666 239.849 70.7959 241.69V247H69.4409V241.771C69.4409 241.204 69.3115 240.782 69.0527 240.503C68.7939 240.22 68.3594 240.079 67.749 240.079C67.2461 240.079 66.8286 240.23 66.4966 240.533C66.1646 240.831 65.9717 241.233 65.918 241.741V247H64.5557V241.807C64.5557 240.655 63.9917 240.079 62.8638 240.079C61.9751 240.079 61.3672 240.457 61.04 241.214V247H59.6851V239.075H60.9668ZM77.7393 246.216C77.2119 246.836 76.438 247.146 75.4175 247.146C74.5728 247.146 73.9282 246.902 73.4839 246.414C73.0444 245.921 72.8223 245.193 72.8174 244.231V239.075H74.1724V244.195C74.1724 245.396 74.6606 245.997 75.6372 245.997C76.6724 245.997 77.3608 245.611 77.7026 244.839V239.075H79.0576V247H77.7686L77.7393 246.216ZM82.3975 239.075L82.4341 239.954C83.0151 239.271 83.7988 238.929 84.7852 238.929C85.8936 238.929 86.6479 239.354 87.0483 240.203C87.312 239.822 87.6538 239.515 88.0737 239.28C88.4985 239.046 88.999 238.929 89.5752 238.929C91.3135 238.929 92.1973 239.849 92.2266 241.69V247H90.8716V241.771C90.8716 241.204 90.7422 240.782 90.4834 240.503C90.2246 240.22 89.79 240.079 89.1797 240.079C88.6768 240.079 88.2593 240.23 87.9272 240.533C87.5952 240.831 87.4023 241.233 87.3486 241.741V247H85.9863V241.807C85.9863 240.655 85.4224 240.079 84.2944 240.079C83.4058 240.079 82.7979 240.457 82.4707 241.214V247H81.1157V239.075H82.3975ZM105.286 237.493H101.858V247H100.459V237.493H97.0386V236.336H105.286V237.493ZM108.281 245.85H113.335V247H106.868V236.336H108.281V245.85ZM118.081 242.247C116.875 241.9 115.996 241.475 115.444 240.972C114.897 240.464 114.624 239.839 114.624 239.097C114.624 238.257 114.958 237.564 115.627 237.017C116.301 236.465 117.175 236.189 118.25 236.189C118.982 236.189 119.634 236.331 120.205 236.614C120.781 236.897 121.226 237.288 121.538 237.786C121.855 238.284 122.014 238.829 122.014 239.419H120.601C120.601 238.775 120.396 238.27 119.985 237.903C119.575 237.532 118.997 237.347 118.25 237.347C117.556 237.347 117.014 237.5 116.624 237.808C116.238 238.111 116.045 238.533 116.045 239.075C116.045 239.51 116.228 239.878 116.594 240.181C116.965 240.479 117.593 240.752 118.477 241.001C119.365 241.25 120.059 241.526 120.557 241.829C121.06 242.127 121.431 242.476 121.67 242.876C121.914 243.277 122.036 243.748 122.036 244.29C122.036 245.154 121.699 245.848 121.025 246.37C120.352 246.888 119.451 247.146 118.323 247.146C117.59 247.146 116.907 247.007 116.272 246.729C115.637 246.446 115.146 246.06 114.8 245.572C114.458 245.083 114.287 244.529 114.287 243.909H115.701C115.701 244.554 115.938 245.064 116.411 245.44C116.89 245.811 117.527 245.997 118.323 245.997C119.065 245.997 119.634 245.845 120.029 245.542C120.425 245.24 120.623 244.827 120.623 244.305C120.623 243.782 120.439 243.379 120.073 243.096C119.707 242.808 119.043 242.525 118.081 242.247ZM131.096 245.132L134.143 236.336H135.681L131.726 247H130.481L126.533 236.336H128.064L131.096 245.132ZM139.871 247.146C138.796 247.146 137.922 246.795 137.249 246.092C136.575 245.384 136.238 244.439 136.238 243.257V243.008C136.238 242.222 136.387 241.521 136.685 240.906C136.987 240.286 137.407 239.803 137.944 239.456C138.486 239.104 139.072 238.929 139.702 238.929C140.732 238.929 141.533 239.268 142.104 239.947C142.676 240.625 142.961 241.597 142.961 242.862V243.426H137.593C137.612 244.207 137.839 244.839 138.274 245.323C138.713 245.801 139.27 246.041 139.944 246.041C140.422 246.041 140.828 245.943 141.16 245.748C141.492 245.552 141.782 245.293 142.031 244.971L142.859 245.616C142.195 246.636 141.199 247.146 139.871 247.146ZM139.702 240.042C139.155 240.042 138.696 240.242 138.325 240.643C137.954 241.038 137.725 241.595 137.637 242.312H141.606V242.21C141.567 241.521 141.382 240.989 141.05 240.613C140.718 240.232 140.269 240.042 139.702 240.042ZM148.367 240.291C148.162 240.257 147.939 240.24 147.7 240.24C146.812 240.24 146.208 240.618 145.891 241.375V247H144.536V239.075H145.854L145.876 239.991C146.321 239.283 146.951 238.929 147.766 238.929C148.03 238.929 148.23 238.963 148.367 239.031V240.291ZM154.233 244.898C154.233 244.532 154.094 244.249 153.816 244.048C153.542 243.843 153.062 243.667 152.373 243.521C151.689 243.375 151.145 243.199 150.74 242.994C150.339 242.789 150.042 242.544 149.846 242.261C149.656 241.978 149.561 241.641 149.561 241.25C149.561 240.601 149.834 240.052 150.381 239.603C150.933 239.153 151.636 238.929 152.49 238.929C153.389 238.929 154.116 239.161 154.673 239.625C155.234 240.088 155.515 240.682 155.515 241.404H154.153C154.153 241.033 153.994 240.713 153.677 240.445C153.364 240.176 152.969 240.042 152.49 240.042C151.997 240.042 151.611 240.149 151.333 240.364C151.055 240.579 150.916 240.86 150.916 241.207C150.916 241.534 151.045 241.78 151.304 241.946C151.562 242.112 152.029 242.271 152.703 242.422C153.381 242.574 153.931 242.754 154.351 242.964C154.771 243.174 155.081 243.428 155.281 243.726C155.486 244.019 155.588 244.378 155.588 244.803C155.588 245.511 155.305 246.08 154.739 246.509C154.172 246.934 153.438 247.146 152.534 247.146C151.899 247.146 151.338 247.034 150.85 246.81C150.361 246.585 149.978 246.272 149.7 245.872C149.426 245.467 149.29 245.03 149.29 244.561H150.645C150.669 245.015 150.85 245.376 151.187 245.645C151.528 245.909 151.978 246.041 152.534 246.041C153.047 246.041 153.457 245.938 153.765 245.733C154.077 245.523 154.233 245.245 154.233 244.898ZM158.826 247H157.471V239.075H158.826V247ZM157.361 236.973C157.361 236.753 157.427 236.568 157.559 236.417C157.695 236.265 157.896 236.189 158.159 236.189C158.423 236.189 158.623 236.265 158.76 236.417C158.896 236.568 158.965 236.753 158.965 236.973C158.965 237.193 158.896 237.376 158.76 237.522C158.623 237.669 158.423 237.742 158.159 237.742C157.896 237.742 157.695 237.669 157.559 237.522C157.427 237.376 157.361 237.193 157.361 236.973ZM160.642 242.964C160.642 242.188 160.793 241.49 161.096 240.87C161.404 240.25 161.829 239.771 162.371 239.434C162.917 239.097 163.54 238.929 164.238 238.929C165.317 238.929 166.189 239.302 166.853 240.049C167.522 240.796 167.856 241.79 167.856 243.03V243.125C167.856 243.897 167.708 244.59 167.41 245.206C167.117 245.816 166.694 246.292 166.143 246.634C165.596 246.976 164.966 247.146 164.253 247.146C163.179 247.146 162.307 246.773 161.638 246.026C160.974 245.279 160.642 244.29 160.642 243.06V242.964ZM162.004 243.125C162.004 244.004 162.207 244.71 162.612 245.242C163.022 245.774 163.569 246.041 164.253 246.041C164.941 246.041 165.488 245.772 165.894 245.235C166.299 244.693 166.501 243.936 166.501 242.964C166.501 242.095 166.294 241.392 165.879 240.855C165.469 240.313 164.922 240.042 164.238 240.042C163.569 240.042 163.03 240.308 162.62 240.84C162.209 241.373 162.004 242.134 162.004 243.125ZM170.837 239.075L170.881 240.071C171.487 239.31 172.278 238.929 173.254 238.929C174.929 238.929 175.774 239.874 175.789 241.763V247H174.434V241.756C174.429 241.185 174.297 240.762 174.038 240.489C173.784 240.215 173.386 240.079 172.844 240.079C172.405 240.079 172.019 240.196 171.687 240.43C171.355 240.665 171.096 240.972 170.911 241.353V247H169.556V239.075H170.837ZM177.788 246.29C177.788 246.055 177.856 245.86 177.993 245.704C178.135 245.547 178.345 245.469 178.623 245.469C178.901 245.469 179.111 245.547 179.253 245.704C179.399 245.86 179.473 246.055 179.473 246.29C179.473 246.514 179.399 246.702 179.253 246.854C179.111 247.005 178.901 247.081 178.623 247.081C178.345 247.081 178.135 247.005 177.993 246.854C177.856 246.702 177.788 246.514 177.788 246.29ZM177.795 239.822C177.795 239.588 177.864 239.393 178 239.236C178.142 239.08 178.352 239.002 178.63 239.002C178.909 239.002 179.119 239.08 179.26 239.236C179.407 239.393 179.48 239.588 179.48 239.822C179.48 240.047 179.407 240.235 179.26 240.386C179.119 240.538 178.909 240.613 178.63 240.613C178.352 240.613 178.142 240.538 178 240.386C177.864 240.235 177.795 240.047 177.795 239.822Z" fill="#646464"/>
<path fill-rule="evenodd" clip-rule="evenodd" d="M206 236C202.688 236 200 238.688 200 242C200 245.312 202.688 248 206 248C209.312 248 212 245.312 212 242C212 238.688 209.312 236 206 236ZM205.4 245V241.4H206.6V245H205.4ZM205.4 239V240.2H206.6V239H205.4Z" fill="#AAAAAA"/>
<path d="M603.538 279H610.462C610.941 279 611.18 279.518 610.841 279.821L607.381 282.919C607.171 283.107 606.829 283.107 606.619 282.919L603.159 279.821C602.82 279.518 603.059 279 603.538 279Z" fill="#AAAAAA"/>
<rect x="30" y="165" width="333" height="40" rx="5" stroke="#DFDFDF" stroke-miterlimit="16" stroke-dasharray="3 3"/>
<rect x="375" y="165" width="247" height="40" rx="5" stroke="#DFDFDF" stroke-miterlimit="16" stroke-dasharray="3 3"/>
<path d="M47.3535 182.119C47.3535 182.651 47.2119 183.125 46.9287 183.54C46.6504 183.955 46.272 184.28 45.7935 184.514C46.3501 184.753 46.7896 185.103 47.1118 185.562C47.439 186.021 47.6025 186.541 47.6025 187.122C47.6025 188.044 47.29 188.779 46.665 189.326C46.0449 189.873 45.2271 190.146 44.2114 190.146C43.186 190.146 42.3633 189.873 41.7432 189.326C41.1279 188.774 40.8203 188.04 40.8203 187.122C40.8203 186.545 40.9766 186.025 41.2891 185.562C41.6064 185.098 42.0435 184.746 42.6001 184.507C42.1265 184.272 41.7529 183.948 41.4795 183.533C41.2061 183.118 41.0693 182.646 41.0693 182.119C41.0693 181.221 41.3574 180.508 41.9336 179.98C42.5098 179.453 43.269 179.189 44.2114 179.189C45.1489 179.189 45.9058 179.453 46.4819 179.98C47.063 180.508 47.3535 181.221 47.3535 182.119ZM46.2476 187.092C46.2476 186.497 46.0571 186.011 45.6763 185.635C45.3003 185.259 44.8071 185.071 44.1968 185.071C43.5864 185.071 43.0957 185.256 42.7246 185.627C42.3584 185.999 42.1753 186.487 42.1753 187.092C42.1753 187.698 42.3535 188.174 42.71 188.521C43.0713 188.867 43.5718 189.041 44.2114 189.041C44.8462 189.041 45.3442 188.867 45.7056 188.521C46.0669 188.169 46.2476 187.693 46.2476 187.092ZM44.2114 180.303C43.6792 180.303 43.2471 180.469 42.915 180.801C42.5879 181.128 42.4243 181.575 42.4243 182.141C42.4243 182.683 42.5854 183.123 42.9077 183.459C43.2349 183.792 43.6694 183.958 44.2114 183.958C44.7534 183.958 45.1855 183.792 45.5078 183.459C45.835 183.123 45.9985 182.683 45.9985 182.141C45.9985 181.599 45.8301 181.157 45.4932 180.815C45.1562 180.474 44.729 180.303 44.2114 180.303ZM55.9961 185.452C55.9961 187.039 55.7251 188.218 55.1831 188.989C54.6411 189.761 53.7939 190.146 52.6416 190.146C51.5039 190.146 50.6616 189.771 50.1147 189.019C49.5679 188.262 49.2847 187.134 49.2651 185.635V183.826C49.2651 182.258 49.5361 181.094 50.0781 180.332C50.6201 179.57 51.4697 179.189 52.627 179.189C53.7744 179.189 54.6191 179.558 55.1611 180.295C55.7031 181.028 55.9814 182.161 55.9961 183.694V185.452ZM54.6411 183.599C54.6411 182.451 54.48 181.616 54.1577 181.094C53.8354 180.566 53.3252 180.303 52.627 180.303C51.9336 180.303 51.4282 180.564 51.1108 181.086C50.7935 181.609 50.6299 182.412 50.6201 183.496V185.664C50.6201 186.816 50.7861 187.668 51.1182 188.22C51.4551 188.767 51.9629 189.041 52.6416 189.041C53.3105 189.041 53.8062 188.782 54.1284 188.264C54.4556 187.747 54.6265 186.931 54.6411 185.818V183.599ZM61.5405 185.671C61.5405 184.568 61.687 183.508 61.98 182.493C62.2778 181.477 62.7197 180.554 63.3057 179.724C63.8916 178.894 64.4995 178.308 65.1294 177.966L65.4077 178.86C64.6948 179.407 64.1089 180.242 63.6499 181.365C63.1958 182.488 62.9468 183.745 62.9028 185.137L62.8955 185.759C62.8955 187.644 63.2397 189.28 63.9282 190.667C64.3433 191.497 64.8364 192.146 65.4077 192.615L65.1294 193.442C64.48 193.081 63.8599 192.476 63.269 191.626C62.1167 189.966 61.5405 187.981 61.5405 185.671ZM66.9312 190V179.336H69.9414C70.8691 179.336 71.6895 179.541 72.4023 179.951C73.1152 180.361 73.6646 180.945 74.0503 181.702C74.4409 182.458 74.6387 183.328 74.6436 184.309V184.99C74.6436 185.996 74.4482 186.877 74.0576 187.634C73.6719 188.391 73.1177 188.972 72.395 189.377C71.6772 189.783 70.8398 189.99 69.8828 190H66.9312ZM68.3374 180.493V188.85H69.8169C70.9009 188.85 71.7432 188.513 72.3438 187.839C72.9492 187.166 73.252 186.206 73.252 184.961V184.338C73.252 183.127 72.9663 182.188 72.395 181.519C71.8286 180.845 71.0229 180.503 69.978 180.493H68.3374ZM79.8511 190.146C78.7769 190.146 77.9028 189.795 77.229 189.092C76.5552 188.384 76.2183 187.439 76.2183 186.257V186.008C76.2183 185.222 76.3672 184.521 76.665 183.906C76.9678 183.286 77.3877 182.803 77.9248 182.456C78.4668 182.104 79.0527 181.929 79.6826 181.929C80.7129 181.929 81.5137 182.268 82.085 182.947C82.6562 183.625 82.9419 184.597 82.9419 185.862V186.426H77.5732C77.5928 187.207 77.8198 187.839 78.2544 188.323C78.6938 188.801 79.2505 189.041 79.9243 189.041C80.4028 189.041 80.8081 188.943 81.1401 188.748C81.4722 188.552 81.7627 188.293 82.0117 187.971L82.8394 188.616C82.1753 189.636 81.1792 190.146 79.8511 190.146ZM79.6826 183.042C79.1357 183.042 78.6768 183.242 78.3057 183.643C77.9346 184.038 77.7051 184.595 77.6172 185.312H81.5869V185.21C81.5479 184.521 81.3623 183.989 81.0303 183.613C80.6982 183.232 80.249 183.042 79.6826 183.042ZM85.1831 190V183.123H83.9307V182.075H85.1831V181.262C85.1831 180.413 85.4102 179.756 85.8643 179.292C86.3184 178.828 86.9604 178.596 87.7905 178.596C88.103 178.596 88.4131 178.638 88.7207 178.721L88.6475 179.819C88.418 179.775 88.1738 179.753 87.915 179.753C87.4756 179.753 87.1362 179.883 86.897 180.142C86.6577 180.396 86.5381 180.762 86.5381 181.24V182.075H88.23V183.123H86.5381V190H85.1831ZM94.624 190C94.5459 189.844 94.4824 189.565 94.4336 189.165C93.8037 189.819 93.0518 190.146 92.1777 190.146C91.3965 190.146 90.7544 189.927 90.2515 189.487C89.7534 189.043 89.5044 188.481 89.5044 187.803C89.5044 186.978 89.8169 186.338 90.4419 185.884C91.0718 185.425 91.9556 185.195 93.0933 185.195H94.4116V184.573C94.4116 184.099 94.27 183.723 93.9868 183.445C93.7036 183.162 93.2861 183.02 92.7344 183.02C92.251 183.02 91.8457 183.142 91.5186 183.386C91.1914 183.63 91.0278 183.926 91.0278 184.272H89.6655C89.6655 183.877 89.8047 183.496 90.083 183.13C90.3662 182.759 90.7471 182.466 91.2256 182.251C91.709 182.036 92.2388 181.929 92.8149 181.929C93.728 181.929 94.4434 182.158 94.9609 182.617C95.4785 183.071 95.7471 183.699 95.7666 184.5V188.147C95.7666 188.875 95.8594 189.453 96.0449 189.883V190H94.624ZM92.3755 188.967C92.8003 188.967 93.2031 188.857 93.584 188.638C93.9648 188.418 94.2407 188.132 94.4116 187.781V186.155H93.3496C91.6895 186.155 90.8594 186.641 90.8594 187.612C90.8594 188.037 91.001 188.369 91.2842 188.608C91.5674 188.848 91.9312 188.967 92.3755 188.967ZM102.783 189.216C102.256 189.836 101.482 190.146 100.461 190.146C99.6167 190.146 98.9722 189.902 98.5278 189.414C98.0884 188.921 97.8662 188.193 97.8613 187.231V182.075H99.2163V187.195C99.2163 188.396 99.7046 188.997 100.681 188.997C101.716 188.997 102.405 188.611 102.747 187.839V182.075H104.102V190H102.812L102.783 189.216ZM107.639 190H106.284V178.75H107.639V190ZM111.653 180.156V182.075H113.132V183.123H111.653V188.037C111.653 188.354 111.719 188.594 111.851 188.755C111.982 188.911 112.207 188.989 112.524 188.989C112.681 188.989 112.896 188.96 113.169 188.901V190C112.812 190.098 112.466 190.146 112.129 190.146C111.523 190.146 111.067 189.963 110.759 189.597C110.452 189.231 110.298 188.711 110.298 188.037V183.123H108.855V182.075H110.298V180.156H111.653ZM117.849 185.745C117.849 186.833 117.705 187.878 117.417 188.879C117.134 189.875 116.697 190.796 116.106 191.641C115.52 192.485 114.905 193.086 114.26 193.442L113.975 192.615C114.727 192.039 115.33 191.145 115.784 189.934C116.243 188.718 116.477 187.371 116.487 185.891V185.657C116.487 184.631 116.379 183.679 116.165 182.8C115.95 181.917 115.649 181.125 115.264 180.427C114.883 179.729 114.453 179.185 113.975 178.794L114.26 177.966C114.905 178.323 115.518 178.918 116.099 179.753C116.685 180.588 117.122 181.509 117.41 182.515C117.703 183.521 117.849 184.597 117.849 185.745Z" fill="#AAAAAA"/>
<path d="M391.606 186.418H393.086V187.524H391.606V190H390.244V187.524H385.388V186.726L390.164 179.336H391.606V186.418ZM386.926 186.418H390.244V181.189L390.083 181.482L386.926 186.418ZM400.029 186.418H401.509V187.524H400.029V190H398.667V187.524H393.811V186.726L398.586 179.336H400.029V186.418ZM395.349 186.418H398.667V181.189L398.506 181.482L395.349 186.418ZM404.702 184.009H405.72C406.36 183.999 406.863 183.831 407.229 183.503C407.595 183.176 407.778 182.734 407.778 182.178C407.778 180.928 407.156 180.303 405.911 180.303C405.325 180.303 404.856 180.471 404.504 180.808C404.158 181.14 403.984 181.582 403.984 182.134H402.629C402.629 181.289 402.937 180.588 403.552 180.032C404.172 179.47 404.958 179.189 405.911 179.189C406.917 179.189 407.705 179.456 408.276 179.988C408.848 180.52 409.133 181.26 409.133 182.207C409.133 182.671 408.982 183.12 408.679 183.555C408.381 183.989 407.974 184.314 407.456 184.529C408.042 184.714 408.494 185.022 408.811 185.452C409.133 185.881 409.294 186.406 409.294 187.026C409.294 187.983 408.982 188.743 408.357 189.304C407.732 189.866 406.919 190.146 405.918 190.146C404.917 190.146 404.102 189.875 403.472 189.333C402.847 188.792 402.534 188.076 402.534 187.188H403.896C403.896 187.749 404.08 188.198 404.446 188.535C404.812 188.872 405.303 189.041 405.918 189.041C406.572 189.041 407.073 188.87 407.419 188.528C407.766 188.186 407.939 187.695 407.939 187.056C407.939 186.436 407.749 185.959 407.368 185.627C406.987 185.295 406.438 185.125 405.72 185.115H404.702V184.009ZM414.963 185.671C414.963 184.568 415.11 183.508 415.403 182.493C415.701 181.477 416.143 180.554 416.729 179.724C417.314 178.894 417.922 178.308 418.552 177.966L418.831 178.86C418.118 179.407 417.532 180.242 417.073 181.365C416.619 182.488 416.37 183.745 416.326 185.137L416.318 185.759C416.318 187.644 416.663 189.28 417.351 190.667C417.766 191.497 418.259 192.146 418.831 192.615L418.552 193.442C417.903 193.081 417.283 192.476 416.692 191.626C415.54 189.966 414.963 187.981 414.963 185.671ZM420.354 190V179.336H423.364C424.292 179.336 425.112 179.541 425.825 179.951C426.538 180.361 427.087 180.945 427.473 181.702C427.864 182.458 428.062 183.328 428.066 184.309V184.99C428.066 185.996 427.871 186.877 427.48 187.634C427.095 188.391 426.541 188.972 425.818 189.377C425.1 189.783 424.263 189.99 423.306 190H420.354ZM421.76 180.493V188.85H423.24C424.324 188.85 425.166 188.513 425.767 187.839C426.372 187.166 426.675 186.206 426.675 184.961V184.338C426.675 183.127 426.389 182.188 425.818 181.519C425.251 180.845 424.446 180.503 423.401 180.493H421.76ZM433.274 190.146C432.2 190.146 431.326 189.795 430.652 189.092C429.978 188.384 429.641 187.439 429.641 186.257V186.008C429.641 185.222 429.79 184.521 430.088 183.906C430.391 183.286 430.811 182.803 431.348 182.456C431.89 182.104 432.476 181.929 433.105 181.929C434.136 181.929 434.937 182.268 435.508 182.947C436.079 183.625 436.365 184.597 436.365 185.862V186.426H430.996C431.016 187.207 431.243 187.839 431.677 188.323C432.117 188.801 432.673 189.041 433.347 189.041C433.826 189.041 434.231 188.943 434.563 188.748C434.895 188.552 435.186 188.293 435.435 187.971L436.262 188.616C435.598 189.636 434.602 190.146 433.274 190.146ZM433.105 183.042C432.559 183.042 432.1 183.242 431.729 183.643C431.357 184.038 431.128 184.595 431.04 185.312H435.01V185.21C434.971 184.521 434.785 183.989 434.453 183.613C434.121 183.232 433.672 183.042 433.105 183.042ZM438.606 190V183.123H437.354V182.075H438.606V181.262C438.606 180.413 438.833 179.756 439.287 179.292C439.741 178.828 440.383 178.596 441.213 178.596C441.526 178.596 441.836 178.638 442.144 178.721L442.07 179.819C441.841 179.775 441.597 179.753 441.338 179.753C440.898 179.753 440.559 179.883 440.32 180.142C440.081 180.396 439.961 180.762 439.961 181.24V182.075H441.653V183.123H439.961V190H438.606ZM448.047 190C447.969 189.844 447.905 189.565 447.856 189.165C447.227 189.819 446.475 190.146 445.601 190.146C444.819 190.146 444.177 189.927 443.674 189.487C443.176 189.043 442.927 188.481 442.927 187.803C442.927 186.978 443.24 186.338 443.865 185.884C444.495 185.425 445.378 185.195 446.516 185.195H447.834V184.573C447.834 184.099 447.693 183.723 447.41 183.445C447.126 183.162 446.709 183.02 446.157 183.02C445.674 183.02 445.269 183.142 444.941 183.386C444.614 183.63 444.451 183.926 444.451 184.272H443.088C443.088 183.877 443.228 183.496 443.506 183.13C443.789 182.759 444.17 182.466 444.648 182.251C445.132 182.036 445.662 181.929 446.238 181.929C447.151 181.929 447.866 182.158 448.384 182.617C448.901 183.071 449.17 183.699 449.189 184.5V188.147C449.189 188.875 449.282 189.453 449.468 189.883V190H448.047ZM445.798 188.967C446.223 188.967 446.626 188.857 447.007 188.638C447.388 188.418 447.664 188.132 447.834 187.781V186.155H446.772C445.112 186.155 444.282 186.641 444.282 187.612C444.282 188.037 444.424 188.369 444.707 188.608C444.99 188.848 445.354 188.967 445.798 188.967ZM456.206 189.216C455.679 189.836 454.905 190.146 453.884 190.146C453.04 190.146 452.395 189.902 451.951 189.414C451.511 188.921 451.289 188.193 451.284 187.231V182.075H452.639V187.195C452.639 188.396 453.127 188.997 454.104 188.997C455.139 188.997 455.828 188.611 456.169 187.839V182.075H457.524V190H456.235L456.206 189.216ZM461.062 190H459.707V178.75H461.062V190ZM465.076 180.156V182.075H466.555V183.123H465.076V188.037C465.076 188.354 465.142 188.594 465.273 188.755C465.405 188.911 465.63 188.989 465.947 188.989C466.104 188.989 466.318 188.96 466.592 188.901V190C466.235 190.098 465.889 190.146 465.552 190.146C464.946 190.146 464.49 189.963 464.182 189.597C463.875 189.231 463.721 188.711 463.721 188.037V183.123H462.278V182.075H463.721V180.156H465.076ZM471.272 185.745C471.272 186.833 471.128 187.878 470.84 188.879C470.557 189.875 470.12 190.796 469.529 191.641C468.943 192.485 468.328 193.086 467.683 193.442L467.397 192.615C468.149 192.039 468.752 191.145 469.207 189.934C469.666 188.718 469.9 187.371 469.91 185.891V185.657C469.91 184.631 469.802 183.679 469.587 182.8C469.373 181.917 469.072 181.125 468.687 180.427C468.306 179.729 467.876 179.185 467.397 178.794L467.683 177.966C468.328 178.323 468.94 178.918 469.521 179.753C470.107 180.588 470.544 181.509 470.833 182.515C471.125 183.521 471.272 184.597 471.272 185.745Z" fill="#AAAAAA"/>
<path d="M32.644 146.825V151H31.2378V140.336H35.1709C36.3379 140.336 37.251 140.634 37.9102 141.229C38.5742 141.825 38.9062 142.614 38.9062 143.595C38.9062 144.63 38.5815 145.429 37.9321 145.99C37.2876 146.547 36.3623 146.825 35.1562 146.825H32.644ZM32.644 145.675H35.1709C35.9229 145.675 36.499 145.5 36.8994 145.148C37.2998 144.792 37.5 144.279 37.5 143.61C37.5 142.975 37.2998 142.467 36.8994 142.086C36.499 141.706 35.9497 141.508 35.2515 141.493H32.644V145.675ZM40.0269 146.964C40.0269 146.188 40.1782 145.49 40.481 144.87C40.7886 144.25 41.2134 143.771 41.7554 143.434C42.3022 143.097 42.9248 142.929 43.623 142.929C44.7021 142.929 45.5737 143.302 46.2378 144.049C46.9067 144.796 47.2412 145.79 47.2412 147.03V147.125C47.2412 147.897 47.0923 148.59 46.7944 149.206C46.5015 149.816 46.0791 150.292 45.5273 150.634C44.9805 150.976 44.3506 151.146 43.6377 151.146C42.5635 151.146 41.6919 150.773 41.0229 150.026C40.3589 149.279 40.0269 148.29 40.0269 147.06V146.964ZM41.3892 147.125C41.3892 148.004 41.5918 148.71 41.9971 149.242C42.4072 149.774 42.9541 150.041 43.6377 150.041C44.3262 150.041 44.873 149.772 45.2783 149.235C45.6836 148.693 45.8862 147.936 45.8862 146.964C45.8862 146.095 45.6787 145.392 45.2637 144.855C44.8535 144.313 44.3066 144.042 43.623 144.042C42.9541 144.042 42.4146 144.308 42.0044 144.84C41.5942 145.373 41.3892 146.134 41.3892 147.125ZM52.771 144.291C52.5659 144.257 52.3438 144.24 52.1045 144.24C51.2158 144.24 50.6128 144.618 50.2954 145.375V151H48.9404V143.075H50.2588L50.2808 143.991C50.7251 143.283 51.355 142.929 52.1704 142.929C52.4341 142.929 52.6343 142.963 52.771 143.031V144.291ZM56.228 141.156V143.075H57.7075V144.123H56.228V149.037C56.228 149.354 56.2939 149.594 56.4258 149.755C56.5576 149.911 56.7822 149.989 57.0996 149.989C57.2559 149.989 57.4707 149.96 57.7441 149.901V151C57.3877 151.098 57.041 151.146 56.7041 151.146C56.0986 151.146 55.6421 150.963 55.3345 150.597C55.0269 150.231 54.873 149.711 54.873 149.037V144.123H53.4302V143.075H54.873V141.156H56.228ZM71.4258 151H70.0122V146.071H64.6362V151H63.23V140.336H64.6362V144.921H70.0122V140.336H71.4258V151ZM81.0718 141.493H77.644V151H76.2451V141.493H72.8247V140.336H81.0718V141.493ZM90.1392 141.493H86.7114V151H85.3125V141.493H81.8921V140.336H90.1392V141.493ZM93.1274 146.825V151H91.7212V140.336H95.6543C96.8213 140.336 97.7344 140.634 98.3936 141.229C99.0576 141.825 99.3896 142.614 99.3896 143.595C99.3896 144.63 99.0649 145.429 98.4155 145.99C97.771 146.547 96.8457 146.825 95.6396 146.825H93.1274ZM93.1274 145.675H95.6543C96.4062 145.675 96.9824 145.5 97.3828 145.148C97.7832 144.792 97.9834 144.279 97.9834 143.61C97.9834 142.975 97.7832 142.467 97.3828 142.086C96.9824 141.706 96.4331 141.508 95.7349 141.493H93.1274V145.675ZM100.928 150.29C100.928 150.055 100.996 149.86 101.133 149.704C101.274 149.547 101.484 149.469 101.763 149.469C102.041 149.469 102.251 149.547 102.393 149.704C102.539 149.86 102.612 150.055 102.612 150.29C102.612 150.514 102.539 150.702 102.393 150.854C102.251 151.005 102.041 151.081 101.763 151.081C101.484 151.081 101.274 151.005 101.133 150.854C100.996 150.702 100.928 150.514 100.928 150.29ZM100.935 143.822C100.935 143.588 101.003 143.393 101.14 143.236C101.282 143.08 101.492 143.002 101.77 143.002C102.048 143.002 102.258 143.08 102.4 143.236C102.546 143.393 102.62 143.588 102.62 143.822C102.62 144.047 102.546 144.235 102.4 144.386C102.258 144.538 102.048 144.613 101.77 144.613C101.492 144.613 101.282 144.538 101.14 144.386C101.003 144.235 100.935 144.047 100.935 143.822Z" fill="#646464"/>
<path d="M377.644 146.825V151H376.238V140.336H380.171C381.338 140.336 382.251 140.634 382.91 141.229C383.574 141.825 383.906 142.614 383.906 143.595C383.906 144.63 383.582 145.429 382.932 145.99C382.288 146.547 381.362 146.825 380.156 146.825H377.644ZM377.644 145.675H380.171C380.923 145.675 381.499 145.5 381.899 145.148C382.3 144.792 382.5 144.279 382.5 143.61C382.5 142.975 382.3 142.467 381.899 142.086C381.499 141.706 380.95 141.508 380.251 141.493H377.644V145.675ZM385.027 146.964C385.027 146.188 385.178 145.49 385.481 144.87C385.789 144.25 386.213 143.771 386.755 143.434C387.302 143.097 387.925 142.929 388.623 142.929C389.702 142.929 390.574 143.302 391.238 144.049C391.907 144.796 392.241 145.79 392.241 147.03V147.125C392.241 147.897 392.092 148.59 391.794 149.206C391.501 149.816 391.079 150.292 390.527 150.634C389.98 150.976 389.351 151.146 388.638 151.146C387.563 151.146 386.692 150.773 386.023 150.026C385.359 149.279 385.027 148.29 385.027 147.06V146.964ZM386.389 147.125C386.389 148.004 386.592 148.71 386.997 149.242C387.407 149.774 387.954 150.041 388.638 150.041C389.326 150.041 389.873 149.772 390.278 149.235C390.684 148.693 390.886 147.936 390.886 146.964C390.886 146.095 390.679 145.392 390.264 144.855C389.854 144.313 389.307 144.042 388.623 144.042C387.954 144.042 387.415 144.308 387.004 144.84C386.594 145.373 386.389 146.134 386.389 147.125ZM397.771 144.291C397.566 144.257 397.344 144.24 397.104 144.24C396.216 144.24 395.613 144.618 395.295 145.375V151H393.94V143.075H395.259L395.281 143.991C395.725 143.283 396.355 142.929 397.17 142.929C397.434 142.929 397.634 142.963 397.771 143.031V144.291ZM401.228 141.156V143.075H402.708V144.123H401.228V149.037C401.228 149.354 401.294 149.594 401.426 149.755C401.558 149.911 401.782 149.989 402.1 149.989C402.256 149.989 402.471 149.96 402.744 149.901V151C402.388 151.098 402.041 151.146 401.704 151.146C401.099 151.146 400.642 150.963 400.334 150.597C400.027 150.231 399.873 149.711 399.873 149.037V144.123H398.43V143.075H399.873V141.156H401.228ZM416.426 151H415.012V146.071H409.636V151H408.23V140.336H409.636V144.921H415.012V140.336H416.426V151ZM426.072 141.493H422.644V151H421.245V141.493H417.825V140.336H426.072V141.493ZM435.139 141.493H431.711V151H430.312V141.493H426.892V140.336H435.139V141.493ZM438.127 146.825V151H436.721V140.336H440.654C441.821 140.336 442.734 140.634 443.394 141.229C444.058 141.825 444.39 142.614 444.39 143.595C444.39 144.63 444.065 145.429 443.416 145.99C442.771 146.547 441.846 146.825 440.64 146.825H438.127ZM438.127 145.675H440.654C441.406 145.675 441.982 145.5 442.383 145.148C442.783 144.792 442.983 144.279 442.983 143.61C442.983 142.975 442.783 142.467 442.383 142.086C441.982 141.706 441.433 141.508 440.735 141.493H438.127V145.675ZM445.928 150.29C445.928 150.055 445.996 149.86 446.133 149.704C446.274 149.547 446.484 149.469 446.763 149.469C447.041 149.469 447.251 149.547 447.393 149.704C447.539 149.86 447.612 150.055 447.612 150.29C447.612 150.514 447.539 150.702 447.393 150.854C447.251 151.005 447.041 151.081 446.763 151.081C446.484 151.081 446.274 151.005 446.133 150.854C445.996 150.702 445.928 150.514 445.928 150.29ZM445.935 143.822C445.935 143.588 446.003 143.393 446.14 143.236C446.282 143.08 446.492 143.002 446.77 143.002C447.048 143.002 447.258 143.08 447.4 143.236C447.546 143.393 447.62 143.588 447.62 143.822C447.62 144.047 447.546 144.235 447.4 144.386C447.258 144.538 447.048 144.613 446.77 144.613C446.492 144.613 446.282 144.538 446.14 144.386C446.003 144.235 445.935 144.047 445.935 143.822Z" fill="#646464"/>
<path fill-rule="evenodd" clip-rule="evenodd" d="M128 140C124.688 140 122 142.688 122 146C122 149.312 124.688 152 128 152C131.312 152 134 149.312 134 146C134 142.688 131.312 140 128 140ZM127.4 149V145.4H128.6V149H127.4ZM127.4 143V144.2H128.6V143H127.4Z" fill="#AAAAAA"/>
<path fill-rule="evenodd" clip-rule="evenodd" d="M482 140C478.688 140 476 142.688 476 146C476 149.312 478.688 152 482 152C485.312 152 488 149.312 488 146C488 142.688 485.312 140 482 140ZM481.4 149V145.4H482.6V149H481.4ZM481.4 143V144.2H482.6V143H481.4Z" fill="#AAAAAA"/>
<path d="M343.538 183H350.462C350.941 183 351.18 183.518 350.841 183.821L347.381 186.919C347.171 187.107 346.829 187.107 346.619 186.919L343.159 183.821C342.82 183.518 343.059 183 343.538 183Z" fill="#AAAAAA"/>
<path d="M603.538 183H610.462C610.941 183 611.18 183.518 610.841 183.821L607.381 186.919C607.171 187.107 606.829 187.107 606.619 186.919L603.159 183.821C602.82 183.518 603.059 183 603.538 183Z" fill="#AAAAAA"/>
<path d="M32.644 146.825V151H31.2378V140.336H35.1709C36.3379 140.336 37.251 140.634 37.9102 141.229C38.5742 141.825 38.9062 142.614 38.9062 143.595C38.9062 144.63 38.5815 145.429 37.9321 145.99C37.2876 146.547 36.3623 146.825 35.1562 146.825H32.644ZM32.644 145.675H35.1709C35.9229 145.675 36.499 145.5 36.8994 145.148C37.2998 144.792 37.5 144.279 37.5 143.61C37.5 142.975 37.2998 142.467 36.8994 142.086C36.499 141.706 35.9497 141.508 35.2515 141.493H32.644V145.675ZM40.0269 146.964C40.0269 146.188 40.1782 145.49 40.481 144.87C40.7886 144.25 41.2134 143.771 41.7554 143.434C42.3022 143.097 42.9248 142.929 43.623 142.929C44.7021 142.929 45.5737 143.302 46.2378 144.049C46.9067 144.796 47.2412 145.79 47.2412 147.03V147.125C47.2412 147.897 47.0923 148.59 46.7944 149.206C46.5015 149.816 46.0791 150.292 45.5273 150.634C44.9805 150.976 44.3506 151.146 43.6377 151.146C42.5635 151.146 41.6919 150.773 41.0229 150.026C40.3589 149.279 40.0269 148.29 40.0269 147.06V146.964ZM41.3892 147.125C41.3892 148.004 41.5918 148.71 41.9971 149.242C42.4072 149.774 42.9541 150.041 43.6377 150.041C44.3262 150.041 44.873 149.772 45.2783 149.235C45.6836 148.693 45.8862 147.936 45.8862 146.964C45.8862 146.095 45.6787 145.392 45.2637 144.855C44.8535 144.313 44.3066 144.042 43.623 144.042C42.9541 144.042 42.4146 144.308 42.0044 144.84C41.5942 145.373 41.3892 146.134 41.3892 147.125ZM52.771 144.291C52.5659 144.257 52.3438 144.24 52.1045 144.24C51.2158 144.24 50.6128 144.618 50.2954 145.375V151H48.9404V143.075H50.2588L50.2808 143.991C50.7251 143.283 51.355 142.929 52.1704 142.929C52.4341 142.929 52.6343 142.963 52.771 143.031V144.291ZM56.228 141.156V143.075H57.7075V144.123H56.228V149.037C56.228 149.354 56.2939 149.594 56.4258 149.755C56.5576 149.911 56.7822 149.989 57.0996 149.989C57.2559 149.989 57.4707 149.96 57.7441 149.901V151C57.3877 151.098 57.041 151.146 56.7041 151.146C56.0986 151.146 55.6421 150.963 55.3345 150.597C55.0269 150.231 54.873 149.711 54.873 149.037V144.123H53.4302V143.075H54.873V141.156H56.228ZM71.4258 151H70.0122V146.071H64.6362V151H63.23V140.336H64.6362V144.921H70.0122V140.336H71.4258V151ZM81.0718 141.493H77.644V151H76.2451V141.493H72.8247V140.336H81.0718V141.493ZM90.1392 141.493H86.7114V151H85.3125V141.493H81.8921V140.336H90.1392V141.493ZM93.1274 146.825V151H91.7212V140.336H95.6543C96.8213 140.336 97.7344 140.634 98.3936 141.229C99.0576 141.825 99.3896 142.614 99.3896 143.595C99.3896 144.63 99.0649 145.429 98.4155 145.99C97.771 146.547 96.8457 146.825 95.6396 146.825H93.1274ZM93.1274 145.675H95.6543C96.4062 145.675 96.9824 145.5 97.3828 145.148C97.7832 144.792 97.9834 144.279 97.9834 143.61C97.9834 142.975 97.7832 142.467 97.3828 142.086C96.9824 141.706 96.4331 141.508 95.7349 141.493H93.1274V145.675ZM100.928 150.29C100.928 150.055 100.996 149.86 101.133 149.704C101.274 149.547 101.484 149.469 101.763 149.469C102.041 149.469 102.251 149.547 102.393 149.704C102.539 149.86 102.612 150.055 102.612 150.29C102.612 150.514 102.539 150.702 102.393 150.854C102.251 151.005 102.041 151.081 101.763 151.081C101.484 151.081 101.274 151.005 101.133 150.854C100.996 150.702 100.928 150.514 100.928 150.29ZM100.935 143.822C100.935 143.588 101.003 143.393 101.14 143.236C101.282 143.08 101.492 143.002 101.77 143.002C102.048 143.002 102.258 143.08 102.4 143.236C102.546 143.393 102.62 143.588 102.62 143.822C102.62 144.047 102.546 144.235 102.4 144.386C102.258 144.538 102.048 144.613 101.77 144.613C101.492 144.613 101.282 144.538 101.14 144.386C101.003 144.235 100.935 144.047 100.935 143.822Z" fill="#646464"/>
<path d="M377.644 146.825V151H376.238V140.336H380.171C381.338 140.336 382.251 140.634 382.91 141.229C383.574 141.825 383.906 142.614 383.906 143.595C383.906 144.63 383.582 145.429 382.932 145.99C382.288 146.547 381.362 146.825 380.156 146.825H377.644ZM377.644 145.675H380.171C380.923 145.675 381.499 145.5 381.899 145.148C382.3 144.792 382.5 144.279 382.5 143.61C382.5 142.975 382.3 142.467 381.899 142.086C381.499 141.706 380.95 141.508 380.251 141.493H377.644V145.675ZM385.027 146.964C385.027 146.188 385.178 145.49 385.481 144.87C385.789 144.25 386.213 143.771 386.755 143.434C387.302 143.097 387.925 142.929 388.623 142.929C389.702 142.929 390.574 143.302 391.238 144.049C391.907 144.796 392.241 145.79 392.241 147.03V147.125C392.241 147.897 392.092 148.59 391.794 149.206C391.501 149.816 391.079 150.292 390.527 150.634C389.98 150.976 389.351 151.146 388.638 151.146C387.563 151.146 386.692 150.773 386.023 150.026C385.359 149.279 385.027 148.29 385.027 147.06V146.964ZM386.389 147.125C386.389 148.004 386.592 148.71 386.997 149.242C387.407 149.774 387.954 150.041 388.638 150.041C389.326 150.041 389.873 149.772 390.278 149.235C390.684 148.693 390.886 147.936 390.886 146.964C390.886 146.095 390.679 145.392 390.264 144.855C389.854 144.313 389.307 144.042 388.623 144.042C387.954 144.042 387.415 144.308 387.004 144.84C386.594 145.373 386.389 146.134 386.389 147.125ZM397.771 144.291C397.566 144.257 397.344 144.24 397.104 144.24C396.216 144.24 395.613 144.618 395.295 145.375V151H393.94V143.075H395.259L395.281 143.991C395.725 143.283 396.355 142.929 397.17 142.929C397.434 142.929 397.634 142.963 397.771 143.031V144.291ZM401.228 141.156V143.075H402.708V144.123H401.228V149.037C401.228 149.354 401.294 149.594 401.426 149.755C401.558 149.911 401.782 149.989 402.1 149.989C402.256 149.989 402.471 149.96 402.744 149.901V151C402.388 151.098 402.041 151.146 401.704 151.146C401.099 151.146 400.642 150.963 400.334 150.597C400.027 150.231 399.873 149.711 399.873 149.037V144.123H398.43V143.075H399.873V141.156H401.228ZM416.426 151H415.012V146.071H409.636V151H408.23V140.336H409.636V144.921H415.012V140.336H416.426V151ZM426.072 141.493H422.644V151H421.245V141.493H417.825V140.336H426.072V141.493ZM435.139 141.493H431.711V151H430.312V141.493H426.892V140.336H435.139V141.493ZM438.127 146.825V151H436.721V140.336H440.654C441.821 140.336 442.734 140.634 443.394 141.229C444.058 141.825 444.39 142.614 444.39 143.595C444.39 144.63 444.065 145.429 443.416 145.99C442.771 146.547 441.846 146.825 440.64 146.825H438.127ZM438.127 145.675H440.654C441.406 145.675 441.982 145.5 442.383 145.148C442.783 144.792 442.983 144.279 442.983 143.61C442.983 142.975 442.783 142.467 442.383 142.086C441.982 141.706 441.433 141.508 440.735 141.493H438.127V145.675ZM449.326 146.247C448.12 145.9 447.241 145.475 446.689 144.972C446.143 144.464 445.869 143.839 445.869 143.097C445.869 142.257 446.204 141.564 446.873 141.017C447.546 140.465 448.42 140.189 449.495 140.189C450.227 140.189 450.879 140.331 451.45 140.614C452.026 140.897 452.471 141.288 452.783 141.786C453.101 142.284 453.259 142.829 453.259 143.419H451.846C451.846 142.775 451.641 142.27 451.23 141.903C450.82 141.532 450.242 141.347 449.495 141.347C448.801 141.347 448.259 141.5 447.869 141.808C447.483 142.111 447.29 142.533 447.29 143.075C447.29 143.51 447.473 143.878 447.839 144.181C448.21 144.479 448.838 144.752 449.722 145.001C450.61 145.25 451.304 145.526 451.802 145.829C452.305 146.127 452.676 146.476 452.915 146.876C453.159 147.277 453.281 147.748 453.281 148.29C453.281 149.154 452.944 149.848 452.271 150.37C451.597 150.888 450.696 151.146 449.568 151.146C448.835 151.146 448.152 151.007 447.517 150.729C446.882 150.446 446.392 150.06 446.045 149.572C445.703 149.083 445.532 148.529 445.532 147.909H446.946C446.946 148.554 447.183 149.064 447.656 149.44C448.135 149.811 448.772 149.997 449.568 149.997C450.31 149.997 450.879 149.845 451.274 149.542C451.67 149.24 451.868 148.827 451.868 148.305C451.868 147.782 451.685 147.379 451.318 147.096C450.952 146.808 450.288 146.525 449.326 146.247ZM454.834 150.29C454.834 150.055 454.902 149.86 455.039 149.704C455.181 149.547 455.391 149.469 455.669 149.469C455.947 149.469 456.157 149.547 456.299 149.704C456.445 149.86 456.519 150.055 456.519 150.29C456.519 150.514 456.445 150.702 456.299 150.854C456.157 151.005 455.947 151.081 455.669 151.081C455.391 151.081 455.181 151.005 455.039 150.854C454.902 150.702 454.834 150.514 454.834 150.29ZM454.841 143.822C454.841 143.588 454.91 143.393 455.046 143.236C455.188 143.08 455.398 143.002 455.676 143.002C455.955 143.002 456.165 143.08 456.306 143.236C456.453 143.393 456.526 143.588 456.526 143.822C456.526 144.047 456.453 144.235 456.306 144.386C456.165 144.538 455.955 144.613 455.676 144.613C455.398 144.613 455.188 144.538 455.046 144.386C454.91 144.235 454.841 144.047 454.841 143.822Z" fill="#646464"/>
</g>
<defs>
<clipPath id="clip0">
<rect width="650" height="325" fill="white"/>
</clipPath>
</defs>
</svg>
