<svg width="47" height="44" viewBox="0 0 47 44" fill="none" xmlns="http://www.w3.org/2000/svg">
<path d="M34.5877 24.9783V36.9863L23.5592 42.9993L18.045 39.9928L12.5308 36.9863V24.9783L23.5592 18.9834L34.5877 24.9783Z" stroke="#F3652B" stroke-width="1.5" stroke-miterlimit="10" stroke-linecap="round"/>
<path d="M23.5598 7.19531L27.9524 9.59031L32.3451 11.9853" stroke="#F3652B" stroke-width="1.5" stroke-miterlimit="10" stroke-linecap="round"/>
<path d="M12.6357 25.4072L17.0284 27.8022L21.421 30.1972" stroke="#F3652B" stroke-width="1.5" stroke-miterlimit="10" stroke-linecap="round"/>
<path d="M34.6729 25.4072L30.2802 27.8022L25.8876 30.1972" stroke="#F3652B" stroke-width="1.5" stroke-miterlimit="10" stroke-linecap="round"/>
<path d="M23.0374 6.97363L18.6447 9.36863L14.2521 11.7636" stroke="#F3652B" stroke-width="1.5" stroke-miterlimit="10" stroke-linecap="round"/>
<path d="M34.7585 15.3506L34.6731 19.8382L34.5877 24.3258" stroke="#F3652B" stroke-width="1.5" stroke-miterlimit="10" stroke-linecap="round"/>
<path d="M12.2002 15.1289L12.1148 19.6165L12.0294 24.1041" stroke="#F3652B" stroke-width="1.5" stroke-miterlimit="10" stroke-linecap="round"/>
<path d="M23.0377 7.00369L12.0285 1.00879L1 7.00369V19.0298L12.0285 25.0247" stroke="#F3652B" stroke-width="1.5" stroke-miterlimit="10" stroke-linecap="round"/>
<path d="M45.5975 19.021V6.9949L34.5883 1L23.5598 6.9949V19.021L34.5883 25.0159L45.5975 19.021Z" stroke="#F3652B" stroke-width="1.5" stroke-miterlimit="10" stroke-linecap="round"/>
</svg>
