<svg  viewBox="0 0 203 75" fill="none" xmlns="http://www.w3.org/2000/svg">
<path d="M16.539 33.1805C25.6431 33.1805 33.0781 26.0269 33.0781 16.5902C33.0781 7.15359 25.6431 0 16.539 0C7.43498 0 0 7.15359 0 16.5902C0 26.0269 7.43498 33.1805 16.539 33.1805ZM16.539 7.15359C21.698 7.15359 25.7948 10.9587 25.7948 16.5902C25.7948 22.2218 21.698 26.0269 16.539 26.0269C11.3801 26.0269 7.28325 22.2218 7.28325 16.5902C7.28325 10.9587 11.3801 7.15359 16.539 7.15359Z" fill="white"/>
<path d="M71.3151 32.572V0.60915H64.0319L55.383 14.7641L46.7342 0.60915H39.4509V32.572H46.7342V14.0031L55.0796 27.5493H55.8382L64.0319 14.0031V32.572H71.3151Z" fill="white"/>
<path d="M86.3368 19.9391H97.7169V12.9377H86.3368V7.61053H98.9307V0.60915H79.0536V32.572H99.0825V25.5706H86.3368V19.9391Z" fill="white"/>
<path d="M112.739 0.60915H105.455V32.572H124.119V25.5706H112.739V0.60915Z" fill="white"/>
<path d="M136.864 19.9391H148.244V12.9377H136.864V7.61053H149.458V0.60915H129.581V32.572H149.61V25.5706H136.864V19.9391Z" fill="white"/>
<path d="M153.707 7.61053H161.901V32.572H169.184V7.61053H177.377V0.60915H153.707V7.61053Z" fill="white"/>
<path d="M190.123 25.5706V19.9391H201.503V12.9377H190.123V7.61053H202.717V0.60915H182.84V32.572H202.869V25.5706H190.123Z" fill="white"/>
<path d="M27.4639 60.4255L21.3946 56.9248C21.0911 58.7513 20.4841 60.4255 19.8772 61.9475L13.9596 55.4028C12.594 53.8807 11.3801 52.6631 11.3801 50.8367C11.3801 49.3146 12.594 48.097 14.4148 48.097C16.3873 48.097 17.7529 49.4668 18.5116 51.5977L24.7327 47.9448C22.7602 43.2265 18.8151 40.9434 14.263 40.9434C8.19366 40.9434 4.09684 44.9007 4.09684 50.2278C4.09684 52.3587 4.55204 53.8807 5.46245 55.2506C2.12429 57.3814 0.303479 60.7299 0.303479 64.3828C0.303479 70.471 5.15898 73.9716 11.6836 73.9716C15.0217 73.9716 17.7529 73.0584 19.8772 71.3842L22.7602 74.4283L28.3743 71.0798L24.4292 66.6659C25.9466 64.9916 26.857 62.7086 27.4639 60.4255ZM12.4422 67.7313C9.25581 67.7313 7.89019 66.2093 7.89019 63.9262C7.89019 62.7086 8.3454 61.3387 9.55927 60.4255L9.86274 60.7299L15.6286 66.9703C14.7182 67.4269 13.6561 67.7313 12.4422 67.7313Z" fill="white"/>
<path d="M47.9481 48.2487C51.1345 48.2487 53.8657 49.7707 55.383 52.206L61.6041 48.5531C58.8729 43.9869 53.714 41.0951 47.9481 41.0951C38.3888 41.0951 31.409 48.2487 31.409 57.6853C31.409 67.122 38.3888 74.2755 47.9481 74.2755C53.714 74.2755 58.8729 71.3837 61.6041 66.8176L55.383 63.1646C54.0174 65.5999 51.2862 67.1219 47.9481 67.1219C42.3339 67.1219 38.6923 63.3169 38.6923 57.6853C38.5405 52.0538 42.1822 48.2487 47.9481 48.2487Z" fill="white"/>
<path d="M81.9365 41.0951C72.8324 41.0951 65.3975 48.2487 65.3975 57.6853C65.3975 67.122 72.8324 74.2755 81.9365 74.2755C91.0406 74.2755 98.4755 67.122 98.4755 57.6853C98.4755 48.2487 91.1923 41.0951 81.9365 41.0951ZM81.9365 67.2742C76.7775 67.2742 72.6807 63.4691 72.6807 57.8375C72.6807 52.206 76.7775 48.4009 81.9365 48.4009C87.0955 48.4009 91.1923 52.206 91.1923 57.8375C91.1923 63.4691 87.0955 67.2742 81.9365 67.2742Z" fill="white"/>
</svg>
