<svg width="42" height="42" viewBox="0 0 42 42" fill="none" xmlns="http://www.w3.org/2000/svg">
<path d="M1.176 39.634L12.1733 20.433C12.4393 20.552 12.7333 20.629 13.0553 20.629C13.8183 20.629 14.4763 20.23 14.8333 19.642L25.3823 23.527C25.3753 23.576 25.3683 23.618 25.3683 23.667C25.3683 24.745 26.2923 25.627 27.4263 25.627C28.5603 25.627 29.4843 24.745 29.4843 23.667C29.4843 23.191 29.2953 22.757 29.0013 22.414L40.5233 5.89402L40.4813 11.088L41.3213 11.095L41.3773 3.76602L34.6363 7.30802L35.0283 8.05002L39.7113 5.59302L28.3153 21.91C28.0423 21.784 27.7413 21.7 27.4123 21.7C26.6353 21.7 25.9703 22.113 25.6203 22.722L15.0853 18.844C15.0923 18.788 15.1063 18.732 15.1063 18.669C15.1063 17.584 14.1823 16.709 13.0483 16.709C11.9143 16.709 10.9903 17.591 10.9903 18.669C10.9903 19.152 11.1793 19.593 11.4873 19.936L0.84 38.577V1.40002H0V40.474H41.7063V39.634H1.176ZM26.1943 23.66C26.1943 23.422 26.2783 23.198 26.4183 23.016C26.6423 22.729 26.9993 22.54 27.4123 22.54C27.5593 22.54 27.6923 22.568 27.8253 22.61C28.1123 22.708 28.3433 22.89 28.4833 23.135C28.5743 23.296 28.6303 23.471 28.6303 23.66C28.6303 24.276 28.0843 24.78 27.4123 24.78C26.8033 24.78 26.3063 24.367 26.2153 23.835C26.2083 23.779 26.1943 23.723 26.1943 23.66ZM11.8303 18.669C11.8303 18.053 12.3763 17.549 13.0483 17.549C13.6713 17.549 14.1823 17.983 14.2523 18.536C14.2593 18.578 14.2663 18.627 14.2663 18.669C14.2663 18.921 14.1683 19.152 14.0143 19.341C13.7903 19.614 13.4403 19.789 13.0483 19.789C12.8943 19.789 12.7473 19.761 12.6143 19.712C12.3273 19.614 12.0963 19.418 11.9633 19.166C11.8793 19.019 11.8303 18.851 11.8303 18.669Z" fill="#F3652B"/>
</svg>
