 <svg viewBox="0 0 592 544" fill="none" xmlns="http://www.w3.org/2000/svg">
    <g clip-path="url(#clip0_302:5)">
        <path
            d="M490.372 223.964V164.922L439.253 135.408L388.118 164.922V223.964L439.253 253.478L490.372 223.964Z"
            stroke="#666666" stroke-width="1.1301" stroke-miterlimit="10" stroke-linecap="round" />
        <path d="M439.253 242.89V197.709" stroke="#666666" stroke-width="0.9709" stroke-miterlimit="10"
            stroke-linecap="round" />
        <path d="M443.842 191.785L490.371 164.922" stroke="#666666" stroke-width="1.1301"
            stroke-miterlimit="10" stroke-linecap="round" />
        <path d="M388.118 164.922L434.647 191.785" stroke="#666666" stroke-width="1.1301"
            stroke-miterlimit="10" stroke-linecap="round" />
        <path
            d="M541.377 135.201V76.1588L490.257 46.6451L439.123 76.1588V135.201L490.257 164.715L541.377 135.201Z"
            stroke="#666666" stroke-width="1.1301" stroke-miterlimit="10" stroke-linecap="round" />
        <path d="M490.257 154.127V108.945" stroke="#666666" stroke-width="0.9709" stroke-miterlimit="10"
            stroke-linecap="round" />
        <path d="M494.846 103.022L541.375 76.1587" stroke="#666666" stroke-width="1.1301"
            stroke-miterlimit="10" stroke-linecap="round" />
        <path d="M439.122 76.1587L485.651 103.022" stroke="#666666" stroke-width="1.1301"
            stroke-miterlimit="10" stroke-linecap="round" />
        <path
            d="M642.546 313.226V254.184L591.426 224.67L540.292 254.184V313.226L591.426 342.74L642.546 313.226Z"
            stroke="#666666" stroke-width="1.1301" stroke-miterlimit="10" stroke-linecap="round" />
        <path d="M591.426 332.151V286.97" stroke="#666666" stroke-width="0.9709" stroke-miterlimit="10"
            stroke-linecap="round" />
        <path d="M540.291 254.183L586.82 281.046" stroke="#666666" stroke-width="1.1301"
            stroke-miterlimit="10" stroke-linecap="round" />
        <path
            d="M388.192 223.964V164.922L337.073 135.408L285.938 164.922V223.964L337.073 253.478L388.192 223.964Z"
            stroke="#666666" stroke-width="1.1301" stroke-miterlimit="10" stroke-linecap="round" />
        <path d="M337.073 242.89V197.709" stroke="#666666" stroke-width="0.9709" stroke-miterlimit="10"
            stroke-linecap="round" />
        <path d="M341.663 191.785L388.192 164.922" stroke="#666666" stroke-width="1.1301"
            stroke-miterlimit="10" stroke-linecap="round" />
        <path d="M285.938 164.922L332.467 191.785" stroke="#666666" stroke-width="1.1301"
            stroke-miterlimit="10" stroke-linecap="round" />
        <path
            d="M284.531 401.669V342.627L233.411 313.113L182.277 342.627V401.669L233.411 431.183L284.531 401.669Z"
            stroke="#666666" stroke-width="1.1301" stroke-miterlimit="10" stroke-linecap="round" />
        <path d="M233.412 420.594V375.413" stroke="#666666" stroke-width="0.9709" stroke-miterlimit="10"
            stroke-linecap="round" />
        <path d="M238.001 369.489L284.53 342.626" stroke="#666666" stroke-width="1.1301"
            stroke-miterlimit="10" stroke-linecap="round" />
        <path d="M182.277 342.626L228.806 369.489" stroke="#666666" stroke-width="1.1301"
            stroke-miterlimit="10" stroke-linecap="round" />
        <path
            d="M591.072 401.669V342.627L539.952 313.113L488.818 342.627V401.669L539.952 431.183L591.072 401.669Z"
            stroke="#666666" stroke-width="1.1301" stroke-miterlimit="10" stroke-linecap="round" />
        <path d="M539.952 420.594V375.413" stroke="#666666" stroke-width="0.9709" stroke-miterlimit="10"
            stroke-linecap="round" />
        <path d="M544.542 369.489L591.071 342.626" stroke="#666666" stroke-width="1.1301"
            stroke-miterlimit="10" stroke-linecap="round" />
        <path d="M488.817 342.626L535.346 369.489" stroke="#666666" stroke-width="1.1301"
            stroke-miterlimit="10" stroke-linecap="round" />
        <path
            d="M488.891 401.669V342.627L437.772 313.113L386.637 342.627V401.669L437.772 431.183L488.891 401.669Z"
            stroke="#666666" stroke-width="1.1301" stroke-miterlimit="10" stroke-linecap="round" />
        <path d="M437.773 420.594V375.413" stroke="#666666" stroke-width="0.9709" stroke-miterlimit="10"
            stroke-linecap="round" />
        <path d="M442.362 369.489L488.891 342.626" stroke="#666666" stroke-width="1.1301"
            stroke-miterlimit="10" stroke-linecap="round" />
        <path d="M386.637 342.626L433.166 369.489" stroke="#666666" stroke-width="1.1301"
            stroke-miterlimit="10" stroke-linecap="round" />
        <path
            d="M386.711 401.669V342.627L335.591 313.113L284.457 342.627V401.669L335.591 431.183L386.711 401.669Z"
            stroke="#666666" stroke-width="1.1301" stroke-miterlimit="10" stroke-linecap="round" />
        <path d="M335.592 420.594V375.413" stroke="#666666" stroke-width="0.9709" stroke-miterlimit="10"
            stroke-linecap="round" />
        <path d="M340.181 369.489L386.71 342.626" stroke="#666666" stroke-width="1.1301"
            stroke-miterlimit="10" stroke-linecap="round" />
        <path d="M284.457 342.626L330.986 369.489" stroke="#666666" stroke-width="1.1301"
            stroke-miterlimit="10" stroke-linecap="round" />
        <path
            d="M234.182 312.817V253.774L183.062 224.261L131.928 253.774V312.817L183.062 342.33L234.182 312.817Z"
            stroke="#666666" stroke-width="1.1301" stroke-miterlimit="10" stroke-linecap="round" />
        <path d="M183.062 331.742V286.561" stroke="#666666" stroke-width="0.9709" stroke-miterlimit="10"
            stroke-linecap="round" />
        <path d="M187.651 280.637L234.18 253.774" stroke="#666666" stroke-width="1.1301"
            stroke-miterlimit="10" stroke-linecap="round" />
        <path d="M131.927 253.774L178.456 280.637" stroke="#666666" stroke-width="1.1301"
            stroke-miterlimit="10" stroke-linecap="round" />
        <path
            d="M540.721 312.817V253.774L489.602 224.261L438.467 253.774V312.817L489.602 342.33L540.721 312.817Z"
            stroke="#666666" stroke-width="1.1301" stroke-miterlimit="10" stroke-linecap="round" />
        <path d="M489.602 331.742V286.561" stroke="#666666" stroke-width="0.9709" stroke-miterlimit="10"
            stroke-linecap="round" />
        <path d="M494.192 280.637L540.72 253.774" stroke="#666666" stroke-width="1.1301"
            stroke-miterlimit="10" stroke-linecap="round" />
        <path d="M438.467 253.774L484.996 280.637" stroke="#666666" stroke-width="1.1301"
            stroke-miterlimit="10" stroke-linecap="round" />
        <path
            d="M438.542 312.817V253.774L387.422 224.261L336.288 253.774V312.817L387.422 342.33L438.542 312.817Z"
            stroke="#666666" stroke-width="1.1301" stroke-miterlimit="10" stroke-linecap="round" />
        <path d="M387.422 331.742V286.561" stroke="#666666" stroke-width="0.9709" stroke-miterlimit="10"
            stroke-linecap="round" />
        <path d="M392.012 280.637L438.541 253.774" stroke="#666666" stroke-width="1.1301"
            stroke-miterlimit="10" stroke-linecap="round" />
        <path d="M336.287 253.774L382.816 280.637" stroke="#666666" stroke-width="1.1301"
            stroke-miterlimit="10" stroke-linecap="round" />
        <path
            d="M336.36 312.817V253.774L285.241 224.261L234.106 253.774V312.817L285.241 342.33L336.36 312.817Z"
            stroke="#666666" stroke-width="1.1301" stroke-miterlimit="10" stroke-linecap="round" />
        <path d="M285.241 331.742V286.561" stroke="#666666" stroke-width="0.9709" stroke-miterlimit="10"
            stroke-linecap="round" />
        <path d="M289.831 280.637L336.359 253.774" stroke="#666666" stroke-width="1.1301"
            stroke-miterlimit="10" stroke-linecap="round" />
        <path d="M234.106 253.774L280.635 280.637" stroke="#666666" stroke-width="1.1301"
            stroke-miterlimit="10" stroke-linecap="round" />
        <path
            d="M337.842 135.112V76.07L286.723 46.5563L235.588 76.07V135.112L286.723 164.626L337.842 135.112Z"
            stroke="#666666" stroke-width="1.1301" stroke-miterlimit="10" stroke-linecap="round" />
        <path d="M286.724 154.038V108.857" stroke="#666666" stroke-width="0.9709" stroke-miterlimit="10"
            stroke-linecap="round" />
        <path d="M291.314 102.933L337.842 76.07" stroke="#666666" stroke-width="1.1301"
            stroke-miterlimit="10" stroke-linecap="round" />
        <path d="M235.588 76.07L282.117 102.933" stroke="#666666" stroke-width="1.1301"
            stroke-miterlimit="10" stroke-linecap="round" />
        <path
            d="M235.663 135.112V76.07L184.544 46.5563L133.409 76.07V135.112L184.544 164.626L235.663 135.112Z"
            stroke="#666666" stroke-width="1.1301" stroke-miterlimit="10" stroke-linecap="round" />
        <path d="M184.544 154.038V108.857" stroke="#666666" stroke-width="0.9709" stroke-miterlimit="10"
            stroke-linecap="round" />
        <path d="M189.133 102.933L235.662 76.07" stroke="#666666" stroke-width="1.1301"
            stroke-miterlimit="10" stroke-linecap="round" />
        <path d="M133.409 76.07L179.938 102.933" stroke="#666666" stroke-width="1.1301"
            stroke-miterlimit="10" stroke-linecap="round" />
        <path
            d="M539.241 490.521V431.479L488.121 401.965L436.987 431.479V490.521L488.121 520.035L539.241 490.521Z"
            stroke="#666666" stroke-width="1.1301" stroke-miterlimit="10" stroke-linecap="round" />
        <path d="M488.122 509.446V464.265" stroke="#666666" stroke-width="0.9709" stroke-miterlimit="10"
            stroke-linecap="round" />
        <path d="M492.711 458.342L539.24 431.479" stroke="#666666" stroke-width="1.1301"
            stroke-miterlimit="10" stroke-linecap="round" />
        <path d="M436.986 431.479L483.515 458.342" stroke="#666666" stroke-width="1.1301"
            stroke-miterlimit="10" stroke-linecap="round" />
        <path
            d="M694.255 401.556V342.514L643.136 313L592.001 342.514V401.556L643.136 431.07L694.255 401.556Z"
            stroke="#666666" stroke-width="1.1301" stroke-miterlimit="10" stroke-linecap="round" />
        <path d="M592 342.513L638.529 369.376" stroke="#666666" stroke-width="1.1301"
            stroke-miterlimit="10" stroke-linecap="round" />
        <path
            d="M103.255 435.556V376.514L52.1352 347L1.00085 376.514V435.556L52.1352 465.07L103.255 435.556Z"
            stroke="#666666" stroke-width="1.1301" stroke-miterlimit="10" stroke-linecap="round" />
        <path d="M52.1351 454.482V409.3" stroke="#666666" stroke-width="0.9709" stroke-miterlimit="10"
            stroke-linecap="round" />
        <path d="M56.7244 403.377L103.253 376.514" stroke="#666666" stroke-width="1.1301"
            stroke-miterlimit="10" stroke-linecap="round" />
        <path d="M1 376.514L47.5289 403.377" stroke="#666666" stroke-width="1.1301"
            stroke-miterlimit="10" stroke-linecap="round" />
        <ellipse cx="487.556" cy="342" rx="3.55556" ry="4" fill="#B2B2B2" />
        <circle cx="438" cy="254" r="4" fill="#B2B2B2" />
        <circle cx="234.5" cy="313.5" r="4.5" fill="#B2B2B2" />
        <path
            d="M490.372 223.964V164.922L439.253 135.408L388.118 164.922V223.964L439.253 253.478L490.372 223.964Z"
            stroke="#666666" stroke-width="1.1301" stroke-miterlimit="10" stroke-linecap="round" />
        <path d="M439.253 242.89V197.709" stroke="#666666" stroke-width="0.9709" stroke-miterlimit="10"
            stroke-linecap="round" />
        <path d="M443.842 191.785L490.371 164.922" stroke="#666666" stroke-width="1.1301"
            stroke-miterlimit="10" stroke-linecap="round" />
        <path d="M388.118 164.922L434.647 191.785" stroke="#666666" stroke-width="1.1301"
            stroke-miterlimit="10" stroke-linecap="round" />
        <path
            d="M541.377 135.201V76.1588L490.257 46.6451L439.123 76.1588V135.201L490.257 164.715L541.377 135.201Z"
            stroke="#666666" stroke-width="1.1301" stroke-miterlimit="10" stroke-linecap="round" />
        <path d="M490.257 154.127V108.945" stroke="#666666" stroke-width="0.9709" stroke-miterlimit="10"
            stroke-linecap="round" />
        <path d="M494.846 103.022L541.375 76.1587" stroke="#666666" stroke-width="1.1301"
            stroke-miterlimit="10" stroke-linecap="round" />
        <path d="M439.122 76.1587L485.651 103.022" stroke="#666666" stroke-width="1.1301"
            stroke-miterlimit="10" stroke-linecap="round" />
        <path
            d="M642.546 313.226V254.184L591.426 224.67L540.292 254.184V313.226L591.426 342.74L642.546 313.226Z"
            stroke="#666666" stroke-width="1.1301" stroke-miterlimit="10" stroke-linecap="round" />
        <path d="M591.426 332.151V286.97" stroke="#666666" stroke-width="0.9709" stroke-miterlimit="10"
            stroke-linecap="round" />
        <path d="M540.291 254.183L586.82 281.046" stroke="#666666" stroke-width="1.1301"
            stroke-miterlimit="10" stroke-linecap="round" />
        <path
            d="M388.192 223.964V164.922L337.073 135.408L285.938 164.922V223.964L337.073 253.478L388.192 223.964Z"
            stroke="#666666" stroke-width="1.1301" stroke-miterlimit="10" stroke-linecap="round" />
        <path d="M337.073 242.89V197.709" stroke="#666666" stroke-width="0.9709" stroke-miterlimit="10"
            stroke-linecap="round" />
        <path d="M341.663 191.785L388.192 164.922" stroke="#666666" stroke-width="1.1301"
            stroke-miterlimit="10" stroke-linecap="round" />
        <path d="M285.938 164.922L332.467 191.785" stroke="#666666" stroke-width="1.1301"
            stroke-miterlimit="10" stroke-linecap="round" />
        <path
            d="M284.531 401.669V342.627L233.411 313.113L182.277 342.627V401.669L233.411 431.183L284.531 401.669Z"
            stroke="#666666" stroke-width="1.1301" stroke-miterlimit="10" stroke-linecap="round" />
        <path d="M233.412 420.594V375.413" stroke="#666666" stroke-width="0.9709" stroke-miterlimit="10"
            stroke-linecap="round" />
        <path d="M238.001 369.489L284.53 342.626" stroke="#666666" stroke-width="1.1301"
            stroke-miterlimit="10" stroke-linecap="round" />
        <path d="M182.277 342.626L228.806 369.489" stroke="#666666" stroke-width="1.1301"
            stroke-miterlimit="10" stroke-linecap="round" />
        <path
            d="M591.072 401.669V342.627L539.952 313.113L488.818 342.627V401.669L539.952 431.183L591.072 401.669Z"
            stroke="#666666" stroke-width="1.1301" stroke-miterlimit="10" stroke-linecap="round" />
        <path d="M539.952 420.594V375.413" stroke="#666666" stroke-width="0.9709" stroke-miterlimit="10"
            stroke-linecap="round" />
        <path d="M544.542 369.489L591.071 342.626" stroke="#666666" stroke-width="1.1301"
            stroke-miterlimit="10" stroke-linecap="round" />
        <path d="M488.817 342.626L535.346 369.489" stroke="#666666" stroke-width="1.1301"
            stroke-miterlimit="10" stroke-linecap="round" />
        <path
            d="M488.891 401.669V342.627L437.772 313.113L386.637 342.627V401.669L437.772 431.183L488.891 401.669Z"
            stroke="#666666" stroke-width="1.1301" stroke-miterlimit="10" stroke-linecap="round" />
        <path d="M437.773 420.594V375.413" stroke="#666666" stroke-width="0.9709" stroke-miterlimit="10"
            stroke-linecap="round" />
        <path d="M442.362 369.489L488.891 342.626" stroke="#666666" stroke-width="1.1301"
            stroke-miterlimit="10" stroke-linecap="round" />
        <path d="M386.637 342.626L433.166 369.489" stroke="#666666" stroke-width="1.1301"
            stroke-miterlimit="10" stroke-linecap="round" />
        <path
            d="M386.711 401.669V342.627L335.591 313.113L284.457 342.627V401.669L335.591 431.183L386.711 401.669Z"
            stroke="#666666" stroke-width="1.1301" stroke-miterlimit="10" stroke-linecap="round" />
        <path d="M335.592 420.594V375.413" stroke="#666666" stroke-width="0.9709" stroke-miterlimit="10"
            stroke-linecap="round" />
        <path d="M340.181 369.489L386.71 342.626" stroke="#666666" stroke-width="1.1301"
            stroke-miterlimit="10" stroke-linecap="round" />
        <path d="M284.457 342.626L330.986 369.489" stroke="#666666" stroke-width="1.1301"
            stroke-miterlimit="10" stroke-linecap="round" />
        <path
            d="M234.182 312.817V253.774L183.062 224.261L131.928 253.774V312.817L183.062 342.33L234.182 312.817Z"
            stroke="#666666" stroke-width="1.1301" stroke-miterlimit="10" stroke-linecap="round" />
        <path d="M183.062 331.742V286.561" stroke="#666666" stroke-width="0.9709" stroke-miterlimit="10"
            stroke-linecap="round" />
        <path d="M187.651 280.637L234.18 253.774" stroke="#666666" stroke-width="1.1301"
            stroke-miterlimit="10" stroke-linecap="round" />
        <path d="M131.927 253.774L178.456 280.637" stroke="#666666" stroke-width="1.1301"
            stroke-miterlimit="10" stroke-linecap="round" />
        <path
            d="M540.721 312.817V253.774L489.602 224.261L438.467 253.774V312.817L489.602 342.33L540.721 312.817Z"
            stroke="#666666" stroke-width="1.1301" stroke-miterlimit="10" stroke-linecap="round" />
        <path d="M489.602 331.742V286.561" stroke="#666666" stroke-width="0.9709" stroke-miterlimit="10"
            stroke-linecap="round" />
        <path d="M494.192 280.637L540.72 253.774" stroke="#666666" stroke-width="1.1301"
            stroke-miterlimit="10" stroke-linecap="round" />
        <path d="M438.467 253.774L484.996 280.637" stroke="#666666" stroke-width="1.1301"
            stroke-miterlimit="10" stroke-linecap="round" />
        <path
            d="M438.542 312.817V253.774L387.422 224.261L336.288 253.774V312.817L387.422 342.33L438.542 312.817Z"
            stroke="#666666" stroke-width="1.1301" stroke-miterlimit="10" stroke-linecap="round" />
        <path d="M387.422 331.742V286.561" stroke="#666666" stroke-width="0.9709" stroke-miterlimit="10"
            stroke-linecap="round" />
        <path d="M392.012 280.637L438.541 253.774" stroke="#666666" stroke-width="1.1301"
            stroke-miterlimit="10" stroke-linecap="round" />
        <path d="M336.287 253.774L382.816 280.637" stroke="#666666" stroke-width="1.1301"
            stroke-miterlimit="10" stroke-linecap="round" />
        <path
            d="M336.36 312.817V253.774L285.241 224.261L234.106 253.774V312.817L285.241 342.33L336.36 312.817Z"
            stroke="#666666" stroke-width="1.1301" stroke-miterlimit="10" stroke-linecap="round" />
        <path d="M285.241 331.742V286.561" stroke="#666666" stroke-width="0.9709" stroke-miterlimit="10"
            stroke-linecap="round" />
        <path d="M289.831 280.637L336.359 253.774" stroke="#666666" stroke-width="1.1301"
            stroke-miterlimit="10" stroke-linecap="round" />
        <path d="M234.106 253.774L280.635 280.637" stroke="#666666" stroke-width="1.1301"
            stroke-miterlimit="10" stroke-linecap="round" />
        <path
            d="M337.842 135.112V76.07L286.723 46.5563L235.588 76.07V135.112L286.723 164.626L337.842 135.112Z"
            stroke="#666666" stroke-width="1.1301" stroke-miterlimit="10" stroke-linecap="round" />
        <path d="M286.724 154.038V108.857" stroke="#666666" stroke-width="0.9709" stroke-miterlimit="10"
            stroke-linecap="round" />
        <path d="M291.314 102.933L337.842 76.07" stroke="#666666" stroke-width="1.1301"
            stroke-miterlimit="10" stroke-linecap="round" />
        <path d="M235.588 76.07L282.117 102.933" stroke="#666666" stroke-width="1.1301"
            stroke-miterlimit="10" stroke-linecap="round" />
        <path
            d="M235.663 135.112V76.07L184.544 46.5563L133.409 76.07V135.112L184.544 164.626L235.663 135.112Z"
            stroke="#666666" stroke-width="1.1301" stroke-miterlimit="10" stroke-linecap="round" />
        <path d="M184.544 154.038V108.857" stroke="#666666" stroke-width="0.9709" stroke-miterlimit="10"
            stroke-linecap="round" />
        <path d="M189.133 102.933L235.662 76.07" stroke="#666666" stroke-width="1.1301"
            stroke-miterlimit="10" stroke-linecap="round" />
        <path d="M133.409 76.07L179.938 102.933" stroke="#666666" stroke-width="1.1301"
            stroke-miterlimit="10" stroke-linecap="round" />
        <path
            d="M539.241 490.521V431.479L488.121 401.965L436.987 431.479V490.521L488.121 520.035L539.241 490.521Z"
            stroke="#666666" stroke-width="1.1301" stroke-miterlimit="10" stroke-linecap="round" />
        <path d="M488.122 509.446V464.265" stroke="#666666" stroke-width="0.9709" stroke-miterlimit="10"
            stroke-linecap="round" />
        <path d="M492.711 458.342L539.24 431.479" stroke="#666666" stroke-width="1.1301"
            stroke-miterlimit="10" stroke-linecap="round" />
        <path d="M436.986 431.479L483.515 458.342" stroke="#666666" stroke-width="1.1301"
            stroke-miterlimit="10" stroke-linecap="round" />
        <path
            d="M694.255 401.556V342.514L643.136 313L592.001 342.514V401.556L643.136 431.07L694.255 401.556Z"
            stroke="#666666" stroke-width="1.1301" stroke-miterlimit="10" stroke-linecap="round" />
        <path d="M592 342.513L638.529 369.376" stroke="#666666" stroke-width="1.1301"
            stroke-miterlimit="10" stroke-linecap="round" />
        <path
            d="M103.255 435.556V376.514L52.1352 347L1.00085 376.514V435.556L52.1352 465.07L103.255 435.556Z"
            stroke="#666666" stroke-width="1.1301" stroke-miterlimit="10" stroke-linecap="round" />
        <path d="M52.1351 454.482V409.3" stroke="#666666" stroke-width="0.9709" stroke-miterlimit="10"
            stroke-linecap="round" />
        <path d="M56.7244 403.377L103.253 376.514" stroke="#666666" stroke-width="1.1301"
            stroke-miterlimit="10" stroke-linecap="round" />
        <path d="M1 376.514L47.5289 403.377" stroke="#666666" stroke-width="1.1301"
            stroke-miterlimit="10" stroke-linecap="round" />
        <ellipse cx="487.556" cy="342" rx="3.55556" ry="4" fill="#B2B2B2" />
        <circle cx="438" cy="254" r="4" fill="#B2B2B2" />
        <circle cx="234.5" cy="313.5" r="4.5" fill="#B2B2B2" />
    </g>
    <defs>
        <clipPath id="clip0_302:5">
            <rect width="592" height="544" fill="white" />
        </clipPath>
    </defs>
</svg>
