<svg width="161" height="220" viewBox="0 0 161 220" fill="none" xmlns="http://www.w3.org/2000/svg">
<path d="M167.399 115.242V89.8685L145.43 77.1848L123.454 89.8685V115.242L145.43 127.926L167.399 115.242Z" stroke="#666666" stroke-width="1.1301" stroke-miterlimit="10" stroke-linecap="round"/>
<path d="M145.43 123.376V103.959" stroke="#666666" stroke-width="0.9709" stroke-miterlimit="10" stroke-linecap="round"/>
<path d="M147.402 101.413L167.398 89.8687" stroke="#666666" stroke-width="1.1301" stroke-miterlimit="10" stroke-linecap="round"/>
<path d="M123.454 89.8687L143.45 101.413" stroke="#666666" stroke-width="1.1301" stroke-miterlimit="10" stroke-linecap="round"/>
<path d="M122.849 191.612V166.238L100.88 153.554L78.9049 166.238V191.612L100.88 204.295L122.849 191.612Z" stroke="#666666" stroke-width="1.1301" stroke-miterlimit="10" stroke-linecap="round"/>
<path d="M100.881 199.745V180.328" stroke="#666666" stroke-width="0.9709" stroke-miterlimit="10" stroke-linecap="round"/>
<path d="M102.853 177.782L122.849 166.238" stroke="#666666" stroke-width="1.1301" stroke-miterlimit="10" stroke-linecap="round"/>
<path d="M78.905 166.238L98.9011 177.782" stroke="#666666" stroke-width="1.1301" stroke-miterlimit="10" stroke-linecap="round"/>
<path d="M166.762 191.612V166.238L144.793 153.554L122.818 166.238V191.612L144.793 204.295L166.762 191.612Z" stroke="#666666" stroke-width="1.1301" stroke-miterlimit="10" stroke-linecap="round"/>
<path d="M144.793 199.745V180.328" stroke="#666666" stroke-width="0.9709" stroke-miterlimit="10" stroke-linecap="round"/>
<path d="M146.765 177.782L166.761 166.238" stroke="#666666" stroke-width="1.1301" stroke-miterlimit="10" stroke-linecap="round"/>
<path d="M122.818 166.238L142.814 177.782" stroke="#666666" stroke-width="1.1301" stroke-miterlimit="10" stroke-linecap="round"/>
<path d="M101.212 153.427V128.053L79.2427 115.37L57.2673 128.053V153.427L79.2427 166.111L101.212 153.427Z" stroke="#666666" stroke-width="1.1301" stroke-miterlimit="10" stroke-linecap="round"/>
<path d="M79.2423 161.561V142.144" stroke="#666666" stroke-width="0.9709" stroke-miterlimit="10" stroke-linecap="round"/>
<path d="M81.2146 139.598L101.211 128.053" stroke="#666666" stroke-width="1.1301" stroke-miterlimit="10" stroke-linecap="round"/>
<path d="M57.2667 128.053L77.2628 139.598" stroke="#666666" stroke-width="1.1301" stroke-miterlimit="10" stroke-linecap="round"/>
<path d="M189.037 153.427V128.053L167.068 115.37L145.092 128.053V153.427L167.068 166.111L189.037 153.427Z" stroke="#666666" stroke-width="1.1301" stroke-miterlimit="10" stroke-linecap="round"/>
<path d="M145.092 128.053L165.088 139.598" stroke="#666666" stroke-width="1.1301" stroke-miterlimit="10" stroke-linecap="round"/>
<path d="M145.123 153.427V128.053L123.154 115.37L101.179 128.053V153.427L123.154 166.111L145.123 153.427Z" stroke="#666666" stroke-width="1.1301" stroke-miterlimit="10" stroke-linecap="round"/>
<path d="M123.155 161.561V142.144" stroke="#666666" stroke-width="0.9709" stroke-miterlimit="10" stroke-linecap="round"/>
<path d="M125.127 139.598L145.123 128.053" stroke="#666666" stroke-width="1.1301" stroke-miterlimit="10" stroke-linecap="round"/>
<path d="M101.179 128.053L121.175 139.598" stroke="#666666" stroke-width="1.1301" stroke-miterlimit="10" stroke-linecap="round"/>
<path d="M145.76 77.0575V51.6837L123.791 39L101.816 51.6837V77.0575L123.791 89.7412L145.76 77.0575Z" stroke="#666666" stroke-width="1.1301" stroke-miterlimit="10" stroke-linecap="round"/>
<path d="M123.792 85.1909V65.7739" stroke="#666666" stroke-width="0.9709" stroke-miterlimit="10" stroke-linecap="round"/>
<path d="M125.764 63.2281L145.76 51.6836" stroke="#666666" stroke-width="1.1301" stroke-miterlimit="10" stroke-linecap="round"/>
<path d="M101.816 51.6836L121.812 63.2281" stroke="#666666" stroke-width="1.1301" stroke-miterlimit="10" stroke-linecap="round"/>
<path d="M167.945 39.0575V13.6837L145.976 1L124 13.6837V39.0575L145.976 51.7412L167.945 39.0575Z" stroke="#666666" stroke-width="1.1301" stroke-miterlimit="10" stroke-linecap="round"/>
<path d="M145.976 47.1909V27.7739" stroke="#666666" stroke-width="0.9709" stroke-miterlimit="10" stroke-linecap="round"/>
<path d="M147.948 25.2281L167.944 13.6836" stroke="#666666" stroke-width="1.1301" stroke-miterlimit="10" stroke-linecap="round"/>
<path d="M124 13.6836L143.996 25.2281" stroke="#666666" stroke-width="1.1301" stroke-miterlimit="10" stroke-linecap="round"/>
<path d="M44.9452 206.175V180.801L22.9762 168.118L1.00085 180.801V206.175L22.9762 218.859L44.9452 206.175Z" stroke="#666666" stroke-width="1.1301" stroke-miterlimit="10" stroke-linecap="round"/>
<path d="M22.9756 214.309V194.892" stroke="#666666" stroke-width="0.9709" stroke-miterlimit="10" stroke-linecap="round"/>
<path d="M24.9479 192.346L44.944 180.801" stroke="#666666" stroke-width="1.1301" stroke-miterlimit="10" stroke-linecap="round"/>
<path d="M1 180.801L20.9961 192.346" stroke="#666666" stroke-width="1.1301" stroke-miterlimit="10" stroke-linecap="round"/>
<path d="M189.945 77.0575V51.6837L167.976 39L146.001 51.6837V77.0575L167.976 89.7412L189.945 77.0575Z" stroke="#666666" stroke-width="1.1301" stroke-miterlimit="10" stroke-linecap="round"/>
<path d="M146 51.6836L165.996 63.2281" stroke="#666666" stroke-width="1.1301" stroke-miterlimit="10" stroke-linecap="round"/>
</svg>
