<svg  viewBox="0 0 293 62" fill="none" xmlns="http://www.w3.org/2000/svg">
<path d="M27.4488 6.17629H22.2867C21.2232 6.17629 20.8672 6.64947 20.8672 7.7175V35.8784C20.8672 38.8436 18.3773 40.3262 14.4049 40.3262C10.4325 40.3262 8.0598 38.8436 8.0598 35.8784V7.7175C8.0598 6.64947 7.64746 6.17629 6.64027 6.17629H1.47812C0.412341 6.17629 0 6.64947 0 7.7175V37.3001C0 42.2798 3.67276 46.9688 14.4049 46.9688C25.137 46.9688 28.812 42.2798 28.812 37.3001V7.7175C28.812 6.64947 28.5169 6.17629 27.4488 6.17629Z" fill="white"/>
<path d="M61.8378 6.17643H57.1534C56.0853 6.17643 55.7293 6.64961 55.7293 7.65906V31.3743C55.7293 31.3743 54.7199 28.9408 53.7127 27.2238L41.7976 6.76678C41.5588 6.35444 41.2073 6.17643 40.5538 6.17643H35.8671C34.8013 6.17643 34.4453 6.64961 34.4453 7.65906V45.0131C34.4453 46.018 34.8013 46.4912 35.8671 46.4912H40.5538C41.6196 46.4912 41.9756 46.018 41.9756 45.0131V21.3587C42.0319 21.5322 42.744 23.488 44.3483 26.1558L55.7879 45.7837C56.0853 46.3132 56.3805 46.4912 57.1534 46.4912H61.8378C62.9058 46.4912 63.2619 46.018 63.2619 45.0131V7.65906C63.2619 6.64961 62.9058 6.17643 61.8378 6.17643Z" fill="white"/>
<path d="M75.7111 6.17643H70.5557C69.4899 6.17643 69.1294 6.64961 69.1294 7.71764V44.9523C69.1294 46.018 69.4899 46.4912 70.5557 46.4912H75.7111C76.7814 46.4912 77.1374 46.018 77.1374 44.9523V7.71764C77.1374 6.64961 76.7814 6.17643 75.7111 6.17643Z" fill="white"/>
<path d="M110.399 6.17643H105.715C104.645 6.17643 104.291 6.64961 104.291 7.65906V31.3743C104.291 31.3743 103.281 28.9408 102.279 27.2238L90.3546 6.76678C90.1203 6.35444 89.7643 6.17643 89.1131 6.17643H84.4286C83.3583 6.17643 83.0068 6.64961 83.0068 7.65906V45.0131C83.0068 46.018 83.3583 46.4912 84.4286 46.4912H89.1131C90.1811 46.4912 90.5371 46.018 90.5371 45.0131V21.3587C90.5935 21.5322 91.3077 23.488 92.9053 26.1558L104.352 45.7837C104.645 46.3132 104.942 46.4912 105.715 46.4912H110.399C111.467 46.4912 111.819 46.018 111.819 45.0131V7.65906C111.819 6.64961 111.467 6.17643 110.399 6.17643Z" fill="white"/>
<path d="M142.949 6.17643H118.047C116.979 6.17643 116.566 6.53244 116.566 7.59597V11.3341C116.566 12.4021 116.979 12.8144 118.047 12.8144H126.467V44.9523C126.467 46.018 126.882 46.4912 127.945 46.4912H133.107C134.175 46.4912 134.529 46.018 134.529 44.9523V12.8144H142.949C143.959 12.8144 144.432 12.4021 144.432 11.3341V7.59597C144.432 6.53244 143.959 6.17643 142.949 6.17643Z" fill="white"/>
<path d="M171.588 39.8509H157.3V28.8236H169.988C171.054 28.8236 171.527 28.4068 171.527 27.4019V23.844C171.527 22.776 171.054 22.4222 169.988 22.4222H157.3V12.8144H170.993C172.001 12.8144 172.478 12.4021 172.478 11.3341V7.59597C172.478 6.53245 172.001 6.17643 170.993 6.17643H150.719C149.651 6.17643 149.292 6.64961 149.292 7.71539V44.9523C149.292 46.018 149.651 46.4912 150.719 46.4912H171.588C172.656 46.4912 173.071 46.0789 173.071 45.0131V41.2727C173.071 40.2092 172.656 39.8509 171.588 39.8509Z" fill="white"/>
<path d="M198.741 20.0502C198.741 23.0155 196.312 24.4959 192.338 24.4959H186.47V12.8151H192.338C196.312 12.8151 198.741 14.3023 198.741 17.2653V20.0502ZM192.338 6.17711H179.886C178.823 6.17711 178.467 6.65029 178.467 7.71832V44.9529C178.467 46.021 178.823 46.4941 179.886 46.4941H185.046C186.114 46.4941 186.47 46.021 186.47 44.9529V31.1384H192.338H192.694L198.507 44.9529C198.919 45.9038 199.158 46.4941 199.987 46.4941H205.204C206.272 46.4941 206.984 45.9038 206.569 44.9529L200.163 30.014C204.908 28.2926 206.688 24.969 206.688 21.472V15.839C206.688 10.8593 203.07 6.17711 192.338 6.17711Z" fill="white"/>
<path d="M284.235 25.2411H284.185C284 25.2411 283.854 25.3917 283.854 25.5697C283.854 25.7135 283.945 25.839 284.075 25.887L284.105 25.8961C298.665 32.348 278.739 48.4469 255.778 55.1955C255.636 55.2229 255.527 55.2229 255.344 55.0426C255.335 55.0357 255.307 55.0266 255.294 55.0175C254.262 53.6139 252.372 53.146 250.761 53.9631C249.718 54.4971 249.072 55.4077 248.853 56.4256C248.835 56.4598 248.805 56.4986 248.798 56.526C248.666 56.9277 248.308 57.0213 248.276 57.0281C239.537 58.7215 230.851 58.8083 223.883 56.2704C217.331 53.8033 215.382 48.9695 222.82 40.9908L222.849 40.968C222.904 40.9064 222.943 40.8219 222.943 40.7307C222.943 40.5389 222.79 40.386 222.598 40.386C222.514 40.386 222.432 40.4248 222.377 40.475L222.325 40.5253C211.933 50.3937 212.874 56.5671 220.063 59.2647C227.434 62.0331 237.951 61.3644 248.709 58.7695L248.716 58.7718C248.949 58.701 249.081 58.7832 249.193 58.8927C250.156 60.7664 252.208 61.483 254.043 60.5496C255.394 59.8627 256.138 58.45 256.033 57.0007C256.033 56.9985 256.045 56.9893 256.045 56.9893C256.058 56.7337 256.389 56.6105 256.396 56.6082C282.724 48.1822 306.354 30.2734 284.235 25.2411Z" fill="white"/>
<path fill-rule="evenodd" clip-rule="evenodd" d="M258.46 0.506329C258.734 2.51013 259.873 11.5044 259.873 24.6501C259.873 26.5079 259.848 28.2926 259.802 30.0111C259.795 30.4927 259.414 30.8715 258.93 30.8852C256.559 30.9719 254.033 31.0244 251.385 31.0244C249.313 31.0244 247.341 30.9902 245.47 30.9377C245 30.924 244.612 30.5269 244.612 30.0545C244.568 28.3223 244.541 26.5238 244.541 24.6501C244.541 11.4862 245.68 2.48503 245.954 0.499481C245.954 0.478939 245.958 0.458397 245.958 0.437859C245.958 0.200504 245.764 0.00423813 245.52 0.00423813C245.502 0.00423813 245.477 0.00423431 245.461 0.0065155C245.107 0.0521622 244.44 0.136604 244.052 0.186813C243.548 0.246155 243.395 0.803017 243.395 0.803017C243.395 0.803017 243.046 2.24083 242.624 4.89735C242.564 5.26023 242.252 5.54779 241.871 5.59116C239.246 5.8947 237.087 6.31919 235.305 6.81443C235.266 6.82585 235.216 6.83498 235.17 6.83498C234.949 6.83498 234.766 6.66837 234.741 6.45156C234.739 6.43558 234.739 6.41733 234.739 6.39907C234.739 6.32604 234.803 6.15943 234.814 6.1252C234.828 6.09781 234.837 6.06814 234.846 6.04076C235.309 4.7878 236.062 3.67407 237.014 2.77487C237.092 2.69728 237.13 2.59457 237.087 2.52839C237.041 2.45764 236.923 2.45079 236.815 2.49872C234.611 3.53942 232.92 5.4953 232.235 7.87339C230.197 8.55122 228.492 9.97305 227.456 11.8239C227.41 11.913 227.417 12.0134 227.474 12.059C227.536 12.1115 227.645 12.091 227.73 12.0202C228.613 11.2443 229.658 10.6418 230.799 10.2834C230.838 10.272 230.877 10.2675 230.918 10.2675C231.153 10.2675 231.343 10.4546 231.354 10.6851V10.7011C231.354 10.7193 231.343 10.7878 231.338 10.8152C231.331 10.8426 231.322 10.87 231.322 10.8859C230.902 12.5543 230.539 14.6014 230.272 17.1187C230.233 17.4862 229.941 17.7852 229.578 17.8605C227.041 18.3101 225.68 18.6684 225.68 18.6684C225.68 18.6684 225.078 18.8236 225.012 19.3279C224.961 19.7136 224.868 20.3732 224.82 20.7292C224.818 20.7452 224.815 20.768 224.815 20.7863C224.815 21.0259 225.012 21.2245 225.249 21.2245C225.272 21.2245 225.299 21.2199 225.322 21.2176C225.979 21.1127 227.397 20.9004 229.467 20.6539C229.485 20.6539 229.512 20.6494 229.528 20.6494C229.77 20.6494 229.966 20.8434 229.966 21.0853C229.966 21.0898 229.964 21.1012 229.964 21.1081C229.891 22.5208 229.839 24.0431 229.818 25.6954V25.7022C229.832 26.7977 229.859 27.8293 229.9 28.8107C229.905 28.8335 229.9 28.8654 229.9 28.8882C229.9 29.3675 229.51 29.7578 229.033 29.7578C228.994 29.7578 228.942 29.7555 228.907 29.7487C227.136 29.5341 225.909 29.3493 225.315 29.2534C225.295 29.2511 225.272 29.2488 225.254 29.2488C225.012 29.2488 224.815 29.4428 224.815 29.6825C224.815 29.7053 224.818 29.7304 224.82 29.7509C224.872 30.1047 224.961 30.762 225.012 31.1454C225.078 31.652 225.68 31.8027 225.68 31.8027C225.68 31.8027 227.016 32.1518 229.489 32.5946C229.866 32.6654 230.16 32.9803 230.204 33.366C230.423 35.6756 230.724 37.5996 231.08 39.2017C231.119 39.3546 231.158 39.5075 231.192 39.6536C231.194 39.6673 231.201 39.6969 231.208 39.7243C231.215 39.7494 231.224 39.8179 231.224 39.8361V39.8544C231.215 40.0849 231.023 40.2698 230.788 40.2698C230.749 40.2698 230.71 40.2652 230.672 40.2538C229.528 39.8955 228.485 39.293 227.602 38.5193C227.515 38.4485 227.41 38.428 227.346 38.4782C227.289 38.5261 227.28 38.6243 227.328 38.7156C228.364 40.5642 230.062 41.9883 232.105 42.6638C232.787 45.0419 234.485 47.0001 236.685 48.0385C236.795 48.0864 236.911 48.0819 236.955 48.0111C237 47.9449 236.966 47.84 236.882 47.7624C235.928 46.8632 235.181 45.7494 234.718 44.4988C234.707 44.4714 234.698 44.4417 234.686 44.4143C234.675 44.3778 234.609 44.2135 234.611 44.1382V44.088C234.638 43.8711 234.821 43.7045 235.044 43.7045C235.088 43.7045 235.138 43.7114 235.177 43.7228C235.209 43.7319 235.248 43.7433 235.279 43.7525C237.041 44.218 239.23 44.6266 241.971 44.9392C242.327 44.9757 242.619 45.2268 242.722 45.5577C242.736 45.6079 242.765 45.8088 242.772 45.8567C243.169 48.3991 243.484 49.8255 243.484 49.8255C243.484 49.8255 243.617 50.3481 244.039 50.4303C244.349 50.4942 245.139 50.6038 245.579 50.6585C245.597 50.6608 245.611 50.6631 245.629 50.6631C245.871 50.6631 246.061 50.4668 246.061 50.2249V50.1815L245.611 46.3017C245.604 46.2652 245.604 46.2287 245.604 46.1922C245.604 45.7129 246.011 45.3021 246.488 45.3204C248.243 45.4253 250.164 45.4938 252.278 45.5189H252.287C254.338 45.4961 256.219 45.4299 257.931 45.3318C258.412 45.3318 258.803 45.7198 258.803 46.2013C258.803 46.2355 258.796 46.2721 258.796 46.304C258.599 48.2234 258.431 49.5608 258.351 50.1701C258.351 50.1884 258.351 50.2066 258.351 50.2249C258.351 50.4668 258.542 50.6608 258.784 50.6608C258.796 50.6608 258.809 50.6608 258.83 50.6585C259.268 50.6038 260.051 50.4942 260.361 50.4303C260.788 50.3481 260.92 49.8255 260.92 49.8255C260.92 49.8255 261.245 48.3466 261.653 45.7198C261.717 45.3272 261.991 45.0191 262.42 44.9598C264.755 44.7019 266.697 44.3687 268.313 43.9944C268.559 43.935 268.799 43.8734 269.025 43.8141C269.059 43.805 269.098 43.7958 269.127 43.7844C269.166 43.773 269.219 43.7662 269.262 43.7662C269.486 43.7662 269.671 43.9328 269.696 44.1496V44.1998C269.698 44.2751 269.632 44.4394 269.618 44.4759C269.609 44.5033 269.598 44.533 269.586 44.5604C269.125 45.811 268.379 46.9271 267.423 47.824C267.34 47.9016 267.306 48.0066 267.35 48.0727C267.395 48.1412 267.514 48.1481 267.621 48.1024C269.821 47.0617 271.517 45.1036 272.199 42.7255C274.24 42.0499 275.94 40.6235 276.978 38.7772C277.024 38.6859 277.017 38.5878 276.958 38.5398C276.896 38.4896 276.791 38.5079 276.707 38.5809C275.821 39.3569 274.776 39.9594 273.633 40.3154C273.594 40.3268 273.557 40.3314 273.518 40.3314C273.283 40.3314 273.092 40.1465 273.082 39.9137C273.082 39.9092 273.078 39.9023 273.078 39.8955C273.078 39.8795 273.092 39.8133 273.098 39.7859C273.105 39.7586 273.112 39.7289 273.114 39.7152C273.149 39.5691 273.187 39.4162 273.222 39.2633C273.27 39.0511 273.313 38.8274 273.363 38.6037C273.671 37.0883 273.934 35.3082 274.13 33.2108C274.171 32.8205 274.477 32.4942 274.867 32.4326C277.232 32.0218 278.53 31.7068 278.53 31.7068C278.53 31.7068 279.094 31.5767 279.185 31.1545C279.254 30.8464 279.368 30.0841 279.429 29.6391C279.432 29.6208 279.434 29.6003 279.434 29.5775C279.434 29.3378 279.235 29.1439 278.998 29.1439C278.98 29.1439 278.957 29.1439 278.936 29.1461C278.366 29.2329 277.145 29.4109 275.388 29.6208C275.36 29.6231 275.319 29.6277 275.287 29.6277C274.81 29.6277 274.418 29.2374 274.418 28.7582V28.7034C274.456 27.754 274.484 26.7566 274.497 25.7022V25.6954C274.477 24.0431 274.427 22.5162 274.351 21.1035V21.0716C274.351 20.8319 274.545 20.6357 274.783 20.6357C274.803 20.6357 274.828 20.638 274.844 20.6425C276.985 20.889 278.441 21.1104 279.114 21.2176C279.135 21.2199 279.16 21.2222 279.185 21.2222C279.429 21.2222 279.619 21.0282 279.619 20.7886V20.7407C279.566 20.3915 279.475 19.7182 279.429 19.3279C279.359 18.8236 278.756 18.6684 278.756 18.6684C278.756 18.6684 277.357 18.2987 274.739 17.8399C274.363 17.7623 274.075 17.4474 274.032 17.0617C273.779 14.6265 273.436 12.6341 273.028 11.0001C273.016 10.9499 273.005 10.9019 272.991 10.8517C272.991 10.838 272.984 10.8084 272.978 10.781C272.971 10.7559 272.959 10.6874 272.959 10.6714V10.6532C272.971 10.4204 273.162 10.2355 273.397 10.2355C273.436 10.2355 273.473 10.2401 273.512 10.2492C274.655 10.6098 275.7 11.21 276.586 11.986C276.666 12.059 276.775 12.0796 276.839 12.0294C276.896 11.9791 276.903 11.8833 276.857 11.7897C275.821 9.9411 274.119 8.51927 272.081 7.84372C271.396 5.46335 269.7 3.50747 267.5 2.46677C267.391 2.41884 267.274 2.42341 267.226 2.49416C267.185 2.56034 267.219 2.66533 267.302 2.74292C268.258 3.63984 269.002 4.75814 269.465 6.00652C269.479 6.03619 269.486 6.06358 269.497 6.09097C269.499 6.10009 269.522 6.16628 269.543 6.23018C269.554 6.27126 269.566 6.31691 269.566 6.36027C269.566 6.59991 269.372 6.79389 269.127 6.79389C269.091 6.79389 269.045 6.78705 269.006 6.77563C267.242 6.2918 265.108 5.87643 262.525 5.58431L262.511 5.58203C262.151 5.53182 261.865 5.26023 261.788 4.90648C261.788 4.89279 261.781 4.86084 261.781 4.86084C261.361 2.22485 261.012 0.800735 261.012 0.800735C261.012 0.800735 260.859 0.241589 260.354 0.182247C259.962 0.132038 258.93 0.00194931 258.93 0.00194931C258.917 -0.000331879 258.898 -0.000331879 258.887 -0.000331879C258.645 -0.000331879 258.449 0.193661 258.449 0.435577C258.449 0.456116 258.451 0.48122 258.453 0.501762L258.46 0.506329ZM262.219 41.6985C262.219 42.1777 262.609 42.568 263.091 42.568C263.116 42.568 263.15 42.568 263.175 42.5657C266.01 42.2964 268.301 41.9107 270.127 41.4771C270.433 41.3949 270.675 41.1439 270.75 40.8403C271.156 39.0168 271.494 36.7734 271.704 33.9959C271.704 33.9959 271.709 33.9525 271.709 33.9343C271.709 33.4527 271.316 33.0647 270.839 33.0647C270.796 33.0647 270.757 33.067 270.711 33.0739C268.701 33.35 266.336 33.6239 263.675 33.8453C263.23 33.8841 262.908 34.2241 262.869 34.7285C262.689 37.2937 262.463 39.6102 262.226 41.5958C262.224 41.63 262.219 41.6642 262.219 41.6985ZM259.629 35.048C259.642 34.571 259.236 34.1762 258.752 34.1762H258.745C256.443 34.2926 253.989 34.3611 251.397 34.3611C249.381 34.3611 247.469 34.3177 245.666 34.2469C245.191 34.2469 244.801 34.6372 244.801 35.1165L245.235 42.0043C245.257 42.4881 245.636 42.8624 246.111 42.8738C246.111 42.8738 250.032 42.9719 252.289 42.9423H252.296C254.491 42.9697 258.321 42.8738 258.321 42.8738C258.332 42.8738 258.351 42.8738 258.364 42.8715C258.8 42.851 259.154 42.5064 259.186 42.0727L259.629 35.048ZM242.085 9.01908C242.092 8.97572 242.092 8.91866 242.092 8.8753C242.092 8.39603 241.704 8.00576 241.225 8.00576C241.188 8.00576 241.156 8.01033 241.127 8.01261C238.354 8.32756 236.138 8.74293 234.364 9.1834C234.038 9.25415 233.778 9.50976 233.698 9.82927C233.299 11.5592 232.956 13.6885 232.728 16.3063C232.721 16.3291 232.721 16.3633 232.721 16.3884C232.721 16.8723 233.114 17.2602 233.593 17.2602C233.634 17.2602 233.675 17.258 233.714 17.2511C235.597 17.0023 240.209 16.5664 240.561 16.5391C240.574 16.5391 240.627 16.5345 240.654 16.5299C240.903 16.5048 241.451 16.3451 241.501 15.7174C241.652 13.1864 241.864 10.943 242.085 9.01908ZM241.321 42.5429C241.804 42.5429 242.229 42.1458 242.204 41.6597C242.204 41.6391 242.199 41.6186 242.199 41.6003C241.964 39.6422 241.743 37.3736 241.567 34.8517C241.547 34.3702 241.177 34.0301 240.682 33.9662L233.529 33.2313C233.052 33.2313 232.664 33.6056 232.646 34.0758V34.183C232.86 36.8601 233.568 40.7536 233.568 40.7536C233.639 41.08 233.894 41.3401 234.223 41.4177C234.223 41.4177 237.986 42.1777 241.22 42.5383C241.252 42.5429 241.284 42.5429 241.321 42.5429ZM233.294 30.2165C235.871 30.4356 240.433 30.73 240.433 30.73C240.894 30.7528 241.323 30.3375 241.305 29.8536C241.248 28.1922 241.206 26.4622 241.206 24.6501C241.206 23.2511 241.229 21.916 241.266 20.6288C241.266 20.1336 240.907 19.7205 240.394 19.7502C237.685 19.8939 235.279 20.0765 233.225 20.2682C232.78 20.3116 232.438 20.6836 232.438 21.1355C232.438 21.1355 232.39 24.0636 232.408 25.6977V25.7068C232.395 26.9917 232.397 28.1922 232.422 29.3333C232.422 29.8148 232.799 30.1754 233.294 30.2165ZM271.928 25.7068V25.6977C271.946 24.0613 271.935 22.5459 271.896 21.1309C271.889 20.6699 271.533 20.2911 271.083 20.2568C269.066 20.072 266.71 19.8939 264.07 19.7524C264.059 19.7502 264.047 19.7502 264.033 19.7502C263.55 19.7502 263.162 20.1404 263.162 20.622V20.6448C263.196 21.9251 263.219 23.258 263.219 24.6501C263.219 26.428 263.18 28.1283 263.123 29.7601C263.107 30.2439 263.511 30.6387 263.995 30.6387C264.013 30.6387 264.04 30.6387 264.061 30.6387C266.701 30.4767 269.077 30.2781 271.122 30.0841C271.572 30.0225 271.907 29.6756 271.914 29.2123C271.941 28.1077 271.941 26.9438 271.928 25.7068ZM263.887 16.5231C264.109 16.5276 268.689 16.959 270.622 17.2123C270.661 17.2169 270.702 17.2214 270.743 17.2214C271.227 17.2214 271.615 16.8312 271.615 16.3519C271.615 16.32 271.615 16.2857 271.613 16.2561C271.305 13.2937 270.656 9.81101 270.656 9.81101C270.586 9.48693 270.337 9.22904 270.022 9.14688C270.017 9.1446 269.997 9.14003 269.997 9.14003C268.226 8.70869 266.037 8.30474 263.294 7.99664C263.294 7.99664 263.241 7.99207 263.212 7.99207C262.735 7.99207 262.303 8.40287 262.345 8.8616C262.347 8.89584 262.749 12.8373 262.938 15.6376V15.7038C262.97 16.1465 263.308 16.4752 263.887 16.5231Z" fill="white"/>
</svg>
