<svg width="42" height="42" viewBox="0 0 42 42" fill="none" xmlns="http://www.w3.org/2000/svg">
<g clip-path="url(#clip0)">
<path d="M10.3513 3.29575C10.3513 3.29575 7.59289 2.70205 5.82588 4.5696C4.40294 6.07402 4.41461 8.06838 4.47292 9.59586C4.5429 11.3654 5.13191 16.1323 4.33296 18.1612C3.22494 20.9972 0 20.9972 0 20.9972" stroke="#F3652B" stroke-width="1.4" stroke-miterlimit="10"/>
<path d="M10.3513 38.7044C10.3513 38.7044 7.59289 39.2981 5.82588 37.4305C4.40294 35.9261 4.41461 33.9317 4.47292 32.4043C4.5429 30.6347 5.13191 25.8678 4.33296 23.8389C3.22494 21.003 0 20.9972 0 20.9972" stroke="#F3652B" stroke-width="1.4" stroke-miterlimit="10"/>
<path d="M31.6487 3.29575C31.6487 3.29575 34.4071 2.70205 36.1741 4.5696C37.597 6.07402 37.5854 8.06838 37.527 9.59586C37.4571 11.3654 36.8681 16.1323 37.667 18.1612C38.7809 21.0029 42 21.0029 42 21.0029" stroke="#F3652B" stroke-width="1.4" stroke-miterlimit="10"/>
<path d="M31.6487 38.7044C31.6487 38.7044 34.4071 39.2981 36.1741 37.4305C37.597 35.9261 37.5854 33.9317 37.527 32.4043C37.4571 30.6347 36.8681 25.8678 37.667 23.8389C38.7809 20.9972 42 20.9972 42 20.9972" stroke="#F3652B" stroke-width="1.4" stroke-miterlimit="10"/>
<path d="M27.1178 12.2185C27.1178 12.2185 24.4818 11.0887 22.2716 11.6766C20.6621 12.1032 20.2422 14.7489 20.2422 16.6971C20.2422 18.5359 20.2422 33.2573 20.2422 33.2573" stroke="#F3652B" stroke-width="1.4" stroke-miterlimit="10"/>
<path d="M17.0637 18.1094H25.753" stroke="#F3652B" stroke-width="1.4" stroke-miterlimit="10"/>
</g>
<defs>
<clipPath id="clip0">
<rect width="42" height="36.4" fill="white" transform="translate(0 2.80005)"/>
</clipPath>
</defs>
</svg>
