<svg width="31" height="43" viewBox="0 0 31 43" fill="none" xmlns="http://www.w3.org/2000/svg">
<mask id="mask0" style="mask-type:alpha" maskUnits="userSpaceOnUse" x="0" y="0" width="31" height="43">
<path fill-rule="evenodd" clip-rule="evenodd" d="M0 0H30.95V42.565H0V0Z" fill="white"/>
</mask>
<g mask="url(#mask0)">
<path fill-rule="evenodd" clip-rule="evenodd" d="M13.164 3.358C13.164 2.075 14.2 1.03 15.475 1.03C16.749 1.03 17.785 2.075 17.785 3.358C17.785 4.64 16.749 5.684 15.475 5.684C14.2 5.684 13.164 4.64 13.164 3.358ZM30.914 26.721L30.915 26.457L30.95 14.785H29.922L29.89 25.425L15.99 11.44V6.661C17.586 6.41 18.814 5.031 18.814 3.358C18.814 1.506 17.316 0 15.475 0C13.635 0 12.137 1.506 12.137 3.358C12.137 5.031 13.366 6.411 14.961 6.661V11.44L1.06 25.427L1.028 14.785H0L0.035 26.459L0.036 26.722L0.037 27.186L0.505 27.187L0.761 27.188L12.359 27.22L12.368 26.19L1.784 26.158L14.961 12.901V40.598L7.464 33.095L6.73 33.821L15.474 42.565L24.216 33.823L23.487 33.093L15.99 40.594V12.9L29.163 26.158L18.588 26.19V27.22L30.186 27.188L30.448 27.187L30.913 27.186L30.914 26.721Z" fill="#F3652B"/>
</g>
</svg>
