<svg  viewBox="0 0 401 375" fill="none" xmlns="http://www.w3.org/2000/svg">
<path d="M379.049 190.807C377.207 292.196 293.29 373.825 190.039 373.825C85.6399 373.825 1 290.361 1 187.412C1 84.4638 85.6399 1 190.049 1C293.3 1 377.217 82.6285 379.059 184.018" stroke="#646464" stroke-linecap="round" stroke-linejoin="round" stroke-dasharray="2 2"/>
<path d="M375.365 190.893C375.414 188.915 377.082 187.355 379.078 187.412C381.084 187.46 382.665 189.105 382.608 191.074C382.559 193.051 380.891 194.611 378.895 194.554C376.899 194.506 375.317 192.861 375.365 190.893Z" fill="#646464"/>
<path d="M375.365 183.922C375.414 185.9 377.082 187.46 379.078 187.403C381.084 187.355 382.665 185.71 382.608 183.742C382.559 181.764 380.891 180.204 378.895 180.261C376.899 180.309 375.317 181.954 375.365 183.922Z" fill="#646464"/>
<path d="M334.362 234.027C264.255 281.859 189.094 322.56 112.024 358.486C110.78 359.066 100.857 362.413 97.9741 359.066C95.0907 355.719 94.0106 351.259 93.027 346.98C86.8456 320.192 80.751 293.518 76.3922 266.416C72.4963 242.196 67.3661 217.234 64.8684 192.966C59.6707 142.338 54.5211 90.7969 64.6659 40.9012C66.0642 34.045 68.34 25.1442 75.2061 23.404C82.5254 21.5496 91.2527 24.7258 99.5459 27.3028C110.24 30.6216 119.508 33.56 129.18 37.2211C188.766 59.7678 244.264 88.6193 301.131 116.891C331.556 132.02 362.337 147.245 389.512 167.737C394.363 171.398 403.38 177.599 398.519 183.589C395.048 187.869 382.974 197.264 377.709 201.543C362.974 213.506 349.772 223.51 334.362 234.027Z" fill="#F2F2F2"/>
<path d="M60.2585 55.4697C61.4543 45.4278 62.7658 33.446 70.1815 26.1618C77.8962 18.5828 88.1761 23.0332 96.9708 26.352" stroke="#F3652B" stroke-linecap="round" stroke-linejoin="round"/>
<path d="M63.1516 55.6695C62.9587 57.2385 61.5122 58.3511 59.9211 58.1609C58.3299 57.9707 57.2016 56.5443 57.3945 54.9753C57.5874 53.4062 59.0339 52.2936 60.625 52.4838C62.2162 52.674 63.3541 54.1004 63.1516 55.6695Z" fill="#F3652B"/>
<path d="M95.8137 28.9671C97.3084 29.5281 98.9864 28.7769 99.5553 27.3029C100.124 25.829 99.3625 24.1744 97.8678 23.6133C96.373 23.0523 94.6951 23.8035 94.1261 25.2774C93.5572 26.7514 94.319 28.406 95.8137 28.9671Z" fill="#F3652B"/>
<path d="M58.7063 141.767C56.9319 118.526 56.4979 95.1618 58.4748 71.9209" stroke="#F3652B" stroke-linecap="round" stroke-linejoin="round"/>
<path d="M61.628 141.444C61.7341 143.023 60.5191 144.382 58.9183 144.477C57.3175 144.573 55.9385 143.384 55.842 141.805C55.7359 140.227 56.951 138.867 58.5518 138.772C60.1526 138.667 61.5316 139.865 61.628 141.444Z" fill="#F3652B"/>
<path d="M61.4159 72.2538C61.522 70.6753 60.3069 69.3154 58.7061 69.2108C57.1053 69.1062 55.7263 70.3044 55.6202 71.883C55.5141 73.4615 56.7292 74.8214 58.33 74.926C59.9404 75.0211 61.3195 73.8324 61.4159 72.2538Z" fill="#F3652B"/>
<path d="M77.2408 278.759C68.6582 239.876 65.3505 213.687 62.6118 176.334" stroke="#F3652B" stroke-linecap="round" stroke-linejoin="round"/>
<path d="M80.0951 278.046C80.4134 279.596 79.4008 281.108 77.8289 281.422C76.257 281.736 74.7237 280.737 74.4055 279.187C74.0873 277.637 75.0999 276.125 76.6717 275.812C78.2436 275.498 79.7769 276.496 80.0951 278.046Z" fill="#F3652B"/>
<path d="M65.5431 176.248C65.4081 174.67 64.0098 173.5 62.4187 173.633C60.8275 173.766 59.6317 175.145 59.7667 176.714C59.9018 178.293 61.3 179.462 62.8912 179.329C64.4823 179.196 65.6685 177.817 65.5431 176.248Z" fill="#F3652B"/>
<path d="M230.821 298.216C221.139 305.462 209.538 310.064 198.776 317.139C176.596 329.502 153.452 337.109 131.272 350.422C123.557 354.226 116.807 357.079 109.092 359.932C104.271 361.833 96.4885 361.282 94.6274 355.177C94.2223 353.846 91.4643 342.957 88.3784 330.025" stroke="#F3652B" stroke-linecap="round" stroke-linejoin="round"/>
<path d="M228.912 296C230.184 295.039 232.007 295.277 232.981 296.532C233.955 297.788 233.714 299.585 232.441 300.545C231.168 301.506 229.345 301.268 228.372 300.013C227.407 298.758 227.639 296.96 228.912 296Z" fill="#F3652B"/>
<path d="M91.262 329.473C90.8859 327.942 89.314 327.001 87.7518 327.371C86.1992 327.742 85.2445 329.292 85.6206 330.833C85.9967 332.364 87.5686 333.305 89.1308 332.934C90.6834 332.554 91.6381 331.014 91.262 329.473Z" fill="#F3652B"/>
<path d="M289.723 263.297C278.7 270.011 272.317 274.024 258.903 281.603" stroke="#F3652B" stroke-linecap="round" stroke-linejoin="round"/>
<path d="M288.074 260.939C289.434 260.112 291.227 260.53 292.066 261.871C292.905 263.212 292.481 264.98 291.121 265.808C289.762 266.635 287.968 266.217 287.129 264.876C286.29 263.535 286.714 261.766 288.074 260.939Z" fill="#F3652B"/>
<path d="M257.543 279.035C256.164 279.834 255.701 281.584 256.511 282.953C257.321 284.313 259.095 284.769 260.484 283.971C261.863 283.172 262.326 281.422 261.516 280.053C260.696 278.693 258.922 278.236 257.543 279.035Z" fill="#F3652B"/>
<path d="M381.691 199.689C363.388 212.897 345.905 227.152 327.659 240.427C323.021 243.803 317.977 246.751 312.886 249.48" stroke="#F3652B" stroke-linecap="round" stroke-linejoin="round"/>
<path d="M379.849 197.54C381.122 196.589 382.945 196.827 383.909 198.091C384.874 199.347 384.633 201.144 383.35 202.095C382.077 203.046 380.254 202.808 379.29 201.543C378.326 200.279 378.576 198.5 379.849 197.54Z" fill="#F3652B"/>
<path d="M311.565 246.874C310.166 247.645 309.665 249.395 310.456 250.764C311.246 252.133 313.011 252.637 314.4 251.857C315.798 251.087 316.3 249.337 315.509 247.968C314.718 246.599 312.963 246.104 311.565 246.874Z" fill="#F3652B"/>
<path d="M345.085 139.77C364.189 147.967 380.814 159.883 397.439 173.548C402.386 177.618 398.866 183.77 395.173 188.088" stroke="#F3652B" stroke-linecap="round" stroke-linejoin="round"/>
<path d="M344.015 142.49C342.549 141.844 341.893 140.16 342.549 138.715C343.205 137.269 344.912 136.623 346.377 137.27C347.843 137.916 348.499 139.599 347.843 141.045C347.187 142.49 345.481 143.127 344.015 142.49Z" fill="#F3652B"/>
<path d="M393.09 186.072C392.019 187.251 392.125 189.058 393.321 190.113C394.517 191.169 396.349 191.064 397.42 189.885C398.49 188.706 398.384 186.899 397.188 185.843C395.992 184.788 394.15 184.892 393.09 186.072Z" fill="#F3652B"/>
<path d="M283.58 107.885C291.738 112.031 299.443 116.025 311.729 121.997" stroke="#F3652B" stroke-linecap="round" stroke-linejoin="round"/>
<path d="M282.403 110.491C280.976 109.778 280.407 108.056 281.13 106.649C281.854 105.242 283.599 104.681 285.026 105.394C286.453 106.107 287.022 107.828 286.299 109.236C285.576 110.643 283.83 111.204 282.403 110.491Z" fill="#F3652B"/>
<path d="M310.311 124.451C311.738 125.164 313.484 124.603 314.207 123.196C314.93 121.788 314.361 120.067 312.934 119.354C311.507 118.641 309.762 119.202 309.038 120.609C308.305 122.016 308.884 123.738 310.311 124.451Z" fill="#F3652B"/>
<path d="M147.936 44.591C175.092 55.8501 201.785 68.1457 228.256 80.8788C235.228 84.2356 242.191 87.6209 249.134 91.0253" stroke="#F3652B" stroke-linecap="round" stroke-linejoin="round"/>
<path d="M146.885 47.3012C145.419 46.6641 144.754 44.9809 145.4 43.5355C146.046 42.0901 147.753 41.4339 149.219 42.0711C150.684 42.7082 151.35 44.3913 150.704 45.8368C150.067 47.2822 148.351 47.9383 146.885 47.3012Z" fill="#F3652B"/>
<path d="M247.726 93.5358C249.163 94.2299 250.899 93.6499 251.612 92.233C252.326 90.8161 251.728 89.1044 250.291 88.4007C248.854 87.7065 247.118 88.2866 246.405 89.7035C245.701 91.1204 246.289 92.8321 247.726 93.5358Z" fill="#F3652B"/>
<path d="M218.506 242.557C218.747 240.285 220.454 238.468 222.142 236.909C229.596 230.005 238.42 224.547 247.967 220.942C251.901 219.459 255.942 218.289 259.982 217.12C292.461 207.715 324.979 198.291 358.094 191.368C355.866 197.283 354.323 203.445 353.533 209.702C335.23 214.276 317.833 221.751 300.533 229.206C287.283 234.912 274.023 240.617 260.773 246.323C250.233 250.859 243.164 260.701 235.141 268.727C225.874 278.008 216.597 287.289 207.33 296.571" fill="#F2F2F2"/>
<path d="M218.506 242.557C218.747 240.285 220.454 238.468 222.142 236.909C229.596 230.005 238.42 224.547 247.967 220.942C251.901 219.459 255.942 218.289 259.982 217.12C292.461 207.715 324.979 198.291 358.094 191.368C355.866 197.283 354.323 203.445 353.533 209.702C335.23 214.276 317.833 221.751 300.533 229.206C287.283 234.912 274.023 240.617 260.773 246.323C250.233 250.859 243.164 260.701 235.141 268.727C225.874 278.008 216.597 287.289 207.33 296.571" stroke="#646464" stroke-miterlimit="10" stroke-linecap="round" stroke-linejoin="round"/>
<path d="M349.868 198.215C349.656 198.215 349.435 198.215 349.222 198.215C353.186 192.852 358.615 185.235 363.649 176.962C368.133 169.592 372.424 161.271 373.215 160.33C374.903 158.333 377.921 157.135 380.226 158.399C383.177 160.025 383.022 164.209 382.434 167.5C380.39 178.816 377.815 190.037 374.729 201.115C373.466 205.67 371.759 210.644 367.593 212.964C363.35 215.313 358.017 214.077 353.514 212.27C352.144 211.718 350.756 211.1 349.714 210.064C346.773 207.116 348.808 202.19 349.868 198.215Z" fill="#F2F2F2" stroke="#646464" stroke-miterlimit="10" stroke-linecap="round" stroke-linejoin="round"/>
<path d="M347.939 197.264C347.727 197.264 347.506 197.264 347.293 197.264C351.257 191.901 356.686 184.284 361.72 176.011C366.204 168.641 370.495 160.32 371.286 159.379C372.974 157.382 375.992 156.184 378.297 157.448C381.248 159.074 381.093 163.259 380.505 166.549C378.461 177.865 375.886 189.086 372.8 200.164C371.537 204.719 369.83 209.693 365.664 212.013C361.421 214.362 356.088 213.126 351.585 211.319C350.215 210.767 348.827 210.149 347.785 209.113C344.844 206.165 346.879 201.239 347.939 197.264Z" fill="#F2F2F2" stroke="#646464" stroke-miterlimit="10" stroke-linecap="round" stroke-linejoin="round"/>
<path d="M349.01 191.121C348.152 192.738 349.734 194.573 351.344 195.476C353.572 196.731 356.831 197.178 358.336 195.124C357.053 196.884 357.892 199.851 357.988 201.829C358.094 204.092 357.728 206.517 356.59 208.533C356.195 209.227 355.722 209.864 355.25 210.511C355.144 210.653 355.038 210.805 354.893 210.919C354.71 211.072 354.478 211.167 354.247 211.233C353.427 211.471 352.521 211.423 351.739 211.091" stroke="#646464" stroke-miterlimit="10" stroke-linecap="round" stroke-linejoin="round"/>
<path d="M324.236 215.95C324.024 215.95 323.802 215.95 323.59 215.95C327.554 210.587 332.983 202.97 338.017 194.696C342.501 187.327 346.792 179.006 347.583 178.065C349.271 176.068 352.289 174.869 354.594 176.134C357.545 177.76 357.39 181.944 356.802 185.235C354.758 196.551 352.183 207.772 349.097 218.85C347.834 223.405 346.127 228.379 341.961 230.699C337.718 233.048 332.385 231.812 327.882 230.005C326.512 229.453 325.124 228.835 324.082 227.799C321.141 224.86 323.176 219.934 324.236 215.95Z" fill="#F2F2F2" stroke="#646464" stroke-miterlimit="10" stroke-linecap="round" stroke-linejoin="round"/>
<path d="M223.279 141.849L218.944 141.65L215.572 213.396L219.906 213.594L223.279 141.849Z" fill="#F2F2F2" stroke="#F3652B" stroke-miterlimit="10" stroke-linecap="round" stroke-linejoin="round"/>
<path d="M223.369 215.466L220.056 212.703L173.018 267.541L176.331 270.304L223.369 215.466Z" fill="#F2F2F2" stroke="#F3652B" stroke-miterlimit="10" stroke-linecap="round" stroke-linejoin="round"/>
<path d="M322.307 215.95C322.095 215.95 321.873 215.95 321.661 215.95C325.625 210.587 331.054 202.97 336.088 194.696C340.572 187.327 344.863 179.006 345.654 178.065C347.342 176.068 350.36 174.869 352.665 176.134C355.616 177.76 355.461 181.944 354.873 185.235C352.829 196.551 350.254 207.772 347.168 218.85C345.905 223.405 344.198 228.379 340.032 230.699C335.789 233.048 330.456 231.812 325.953 230.005C324.583 229.453 323.195 228.835 322.153 227.799C319.212 224.86 321.247 219.934 322.307 215.95Z" fill="#F2F2F2" stroke="#646464" stroke-miterlimit="10" stroke-linecap="round" stroke-linejoin="round"/>
<path d="M159.402 278.617C163.173 280.519 167.908 279.397 171.37 277C174.832 274.604 177.329 271.114 179.904 267.814C187.281 258.352 195.825 249.822 203.145 240.313C206.067 236.519 208.786 232.572 211.747 228.807C215.72 223.738 220.117 218.993 224.871 214.638C226.067 213.544 230.455 210.501 232.036 210.092C234.679 209.398 240.262 208.761 240.686 208.732C267.109 207.211 292.712 210.53 318.315 211.376C320.051 211.376 323.089 210.948 324.815 211.804C329.155 216.083 329.155 228.902 324.815 232.325C320.475 234.037 316.58 233.609 312.24 234.465C290.562 235.321 268.884 237.032 247.205 239.6C246.337 240.456 244.602 241.312 243.734 243.023C235.064 257.563 228.121 271.238 217.716 285.777C210.782 295.182 205.575 303.731 197.773 312.29C190.84 319.127 183.029 323.406 174.359 327.685C158.747 333.667 140.54 324.262 130.848 311.576" fill="#F2F2F2"/>
<path d="M159.402 278.617C163.173 280.519 167.908 279.397 171.37 277C174.832 274.604 177.329 271.114 179.904 267.814C187.281 258.352 195.825 249.822 203.145 240.313C206.067 236.519 208.786 232.572 211.747 228.807C215.72 223.738 220.117 218.993 224.871 214.638C226.067 213.544 230.455 210.501 232.036 210.092C234.679 209.398 240.262 208.761 240.686 208.732C267.109 207.211 292.712 210.53 318.315 211.376C320.051 211.376 323.089 210.948 324.815 211.804C329.155 216.083 329.155 228.902 324.815 232.325C320.475 234.037 316.58 233.609 312.24 234.465C290.562 235.321 268.884 237.032 247.205 239.6C246.337 240.456 244.602 241.312 243.734 243.023C235.064 257.563 228.121 271.238 217.716 285.777C210.782 295.182 205.575 303.731 197.773 312.29C190.84 319.127 183.029 323.406 174.359 327.685C158.747 333.667 140.54 324.262 130.848 311.576" stroke="#646464" stroke-miterlimit="10" stroke-linecap="round" stroke-linejoin="round"/>
<path d="M173.482 256.878C176.799 255.661 180.367 255.271 183.752 254.254C187.137 253.236 190.521 251.372 192.064 248.234C193.183 245.962 193.222 243.251 194.485 241.055C196.462 237.622 200.599 236.566 204.138 235.425C207.05 234.493 213.801 232.686 213.135 228.512C211.91 228.217 210.666 228.769 209.471 229.168C207.311 229.891 205.025 230.147 202.759 230.404C206.308 229.339 210.223 227.599 213.386 225.688C214.292 225.136 215.315 224.176 214.871 223.215C211.129 222.844 207.455 224.185 203.935 225.497C199.904 227 195.874 228.512 191.843 230.014C190.28 230.594 188.689 231.203 187.407 232.249C185.256 234.008 184.273 236.756 182.865 239.134C180.01 243.955 175.044 247.521 169.509 248.719" fill="#F2F2F2"/>
<path d="M173.482 256.878C176.799 255.661 180.367 255.271 183.752 254.254C187.137 253.236 190.521 251.372 192.064 248.234C193.183 245.962 193.222 243.251 194.485 241.055C196.462 237.622 200.599 236.566 204.138 235.425C207.05 234.493 213.801 232.686 213.135 228.512C211.91 228.217 210.666 228.769 209.471 229.168C207.311 229.891 205.025 230.147 202.759 230.404C206.308 229.339 210.223 227.599 213.386 225.688C214.292 225.136 215.315 224.176 214.871 223.215C211.129 222.844 207.455 224.185 203.935 225.497C199.904 227 195.874 228.512 191.843 230.014C190.28 230.594 188.689 231.203 187.407 232.249C185.256 234.008 184.273 236.756 182.865 239.134C180.01 243.955 175.044 247.521 169.509 248.719" stroke="#646464" stroke-miterlimit="10" stroke-linecap="round" stroke-linejoin="round"/>
<path d="M96.1416 180.546C97.1638 182.068 97.7423 183.371 98.6488 184.959C99.8735 187.098 101.609 188.896 103.335 190.664C106.209 193.612 109.083 196.57 111.957 199.518C117.415 205.128 123.182 211.119 125.737 218.641C128.428 226.553 130.231 234.541 133.78 242.234C136.403 247.92 139.556 253.341 142.7 258.761C146.191 264.771 149.489 269.526 154.783 274.166C156.21 275.421 159.527 276.686 159.142 278.74C158.254 283.447 155.998 287.898 152.719 291.426C147.647 296.865 143.163 302.647 137.55 307.649C136.277 308.78 134.985 309.922 133.442 310.644C132.188 311.224 130.539 311.548 129.064 311.329L127.936 311.215C113.644 297.711 101.822 281.317 89.6226 266.017C83.5473 258.39 79.2753 249.737 75.119 240.978C70.9531 232.192 70.3263 222.093 68.8991 212.593C68.1083 207.344 66.816 201.733 67.1632 196.399C67.5007 191.197 70.3359 186.176 72.3128 181.431" fill="#F2F2F2"/>
<path d="M96.1416 180.546C97.1638 182.068 97.7423 183.371 98.6488 184.959C99.8735 187.098 101.609 188.896 103.335 190.664C106.209 193.612 109.083 196.57 111.957 199.518C117.415 205.128 123.182 211.119 125.737 218.641C128.428 226.553 130.231 234.541 133.78 242.234C136.403 247.92 139.556 253.341 142.7 258.761C146.191 264.771 149.489 269.526 154.783 274.166C156.21 275.421 159.527 276.686 159.142 278.74C158.254 283.447 155.998 287.898 152.719 291.426C147.647 296.865 143.163 302.647 137.55 307.649C136.277 308.78 134.985 309.922 133.442 310.644C132.188 311.224 130.539 311.548 129.064 311.329L127.936 311.215C113.644 297.711 101.822 281.317 89.6226 266.017C83.5473 258.39 79.2753 249.737 75.119 240.978C70.9531 232.192 70.3263 222.093 68.8991 212.593C68.1083 207.344 66.816 201.733 67.1632 196.399C67.5007 191.197 70.3359 186.176 72.3128 181.431" stroke="#646464" stroke-miterlimit="10" stroke-linecap="round" stroke-linejoin="round"/>
<path d="M89.2758 196.912C94.6665 203.759 99.6328 211.366 103.114 219.354C108.321 231.308 114.686 242.814 120.732 254.377C122.401 257.573 124.976 261.177 129.074 260.996C133.433 260.796 138.457 258.381 142.546 256.983C152.064 253.721 161.341 249.784 170.28 245.201C170.782 244.944 171.312 244.678 171.871 244.725C172.633 244.782 173.221 245.391 173.704 245.981C175.488 248.187 178.245 252.19 178.13 255.167C178.024 257.924 175.41 258.695 173.318 259.845C170.878 261.186 168.361 262.394 165.95 263.792C162.45 265.817 159.171 268.214 155.825 270.477C151.273 273.558 146.567 276.411 141.736 279.026C137.396 281.375 132.613 284.389 127.772 285.54C124.503 286.319 120.983 287.052 117.839 285.863C116.306 285.283 114.985 284.284 113.712 283.267C109.295 279.72 105.245 275.726 101.639 271.371C98.0513 267.034 95.515 262.137 92.2363 257.639C85.0423 247.768 78.996 236.747 73.1521 226.001" fill="#F2F2F2"/>
<path d="M89.2758 196.912C94.6665 203.759 99.6328 211.366 103.114 219.354C108.321 231.308 114.686 242.814 120.732 254.377C122.401 257.573 124.976 261.177 129.074 260.996C133.433 260.796 138.457 258.381 142.546 256.983C152.064 253.721 161.341 249.784 170.28 245.201C170.782 244.944 171.312 244.678 171.871 244.725C172.633 244.782 173.221 245.391 173.704 245.981C175.488 248.187 178.245 252.19 178.13 255.167C178.024 257.924 175.41 258.695 173.318 259.845C170.878 261.186 168.361 262.394 165.95 263.792C162.45 265.817 159.171 268.214 155.825 270.477C151.273 273.558 146.567 276.411 141.736 279.026C137.396 281.375 132.613 284.389 127.772 285.54C124.503 286.319 120.983 287.052 117.839 285.863C116.306 285.283 114.985 284.284 113.712 283.267C109.295 279.72 105.245 275.726 101.639 271.371C98.0513 267.034 95.515 262.137 92.2363 257.639C85.0423 247.768 78.996 236.747 73.1521 226.001" stroke="#646464" stroke-miterlimit="10" stroke-linecap="round" stroke-linejoin="round"/>
<path d="M121.369 133.466C121.407 135.719 121.475 136.889 120.414 138.857C119.595 140.379 118.659 141.929 119.016 143.726C119.633 146.826 120.665 149.736 121.552 152.751C122.073 154.529 121.928 154.557 120.221 155.442C119.595 155.765 117.116 156.231 116.808 156.583C116.914 156.459 116.595 156.497 116.538 156.64C115.795 158.713 115.072 160.796 114.368 162.888C113.78 164.637 113.452 167.3 112.343 168.793C110.424 171.36 107.068 170.229 104.358 170.457C101.986 170.666 99.9992 172.464 98.9577 174.575C97.9162 176.686 97.8102 181.231 97.6173 183.571C97.5691 184.141 96.7494 188.706 83.6634 186.252C82.6315 186.062 71.8888 182.658 72.4674 181.859C73.181 180.87 75.534 176.324 76.0547 175.259C76.6044 174.109 76.9419 172.872 77.2601 171.646C77.9738 168.898 78.6584 166.14 79.2949 163.373C81.4357 154.12 80.8282 144.173 81.4936 134.711C81.6768 132.077 81.86 129.405 82.6797 126.885C84.3962 121.607 88.8611 117.461 94.0203 115.274C99.1795 113.077 104.975 112.678 110.568 113.211C114.136 113.553 118.225 115.379 120.135 118.498C121.301 120.419 120.896 121.893 120.819 123.937C120.703 127.056 121.321 130.328 121.369 133.466Z" fill="#F2F2F2" stroke="#646464" stroke-miterlimit="10" stroke-linecap="round" stroke-linejoin="round"/>
<path d="M95.3895 130.128C96.1899 127.342 97.8582 124.67 100.443 123.281C102.111 122.387 104.03 122.083 105.92 121.902C108.909 121.617 111.928 121.598 114.927 121.845C117.878 122.093 120.192 123.49 121.041 126.286C127.724 120.524 134.407 113.03 138.38 105.194C138.92 104.12 139.45 103.007 139.556 101.819C139.662 100.62 139.276 99.3271 138.302 98.6044C137.627 98.1099 136.769 97.9578 135.94 97.8532C134.175 97.6439 130.588 98.0624 127.27 101.143C125.043 103.207 121.918 105.755 119.315 106.611C121.051 105.755 123.278 103.274 123.471 100.991C123.645 98.9182 121.918 98.0624 120.221 98.2145C116.624 98.5473 113.77 101.086 110.761 103.055C102.574 108.418 92.0529 108.256 82.4578 110.387C78.9958 111.157 75.3313 112.441 73.3833 115.379C71.8886 117.642 69.8828 124.565 73.3544 130.546C74.6949 132.867 75.9485 136.081 76.5946 138.667C77.3564 141.72 77.2407 143.679 76.826 146.788C76.4499 149.651 75.0999 152.58 75.9582 155.337C76.3053 156.44 77.0382 157.439 77.6361 158.409C77.964 158.951 78.3593 159.474 78.5715 160.073C78.8029 160.72 78.3883 160.995 77.7904 161.271C77.3757 161.461 76.9225 161.642 76.7007 162.032C76.556 162.279 76.5271 162.584 76.5271 162.869C76.5271 163.049 76.5367 163.221 76.6043 163.392C76.7489 163.772 77.1539 164.01 77.5686 164.029C78.5908 164.057 79.6708 162.907 80.0951 162.089C82.3903 157.677 84.695 153.226 85.8908 148.415C86.3633 146.503 86.7105 144.44 88.0702 143.004C89.7964 141.187 92.7665 140.721 94.0491 138.468C95.3606 136.157 94.647 132.724 95.3895 130.128Z" fill="#F2F2F2" stroke="#646464" stroke-miterlimit="10" stroke-linecap="round" stroke-linejoin="round"/>
<path d="M83.2388 126.609C83.287 123.861 83.3256 121.104 83.3738 118.355C83.3931 117.423 83.4027 116.482 83.5666 115.56C84.0585 112.802 84.6371 111.413 86.3439 109.179C86.9322 108.409 88.7355 106.659 89.5841 106.174C90.2784 105.774 91.0789 105.594 91.8696 105.451C93.6247 105.137 95.5244 104.985 97.1349 105.746C97.6363 105.984 98.1571 106.421 98.0703 106.963C98.0221 107.277 97.781 107.524 97.5495 107.743C95.3412 109.854 92.8822 111.946 91.9082 114.827C91.4935 116.035 91.3778 117.328 91.2717 118.593C91.0499 121.208 90.8763 123.823 90.7413 126.438C90.6738 127.836 90.616 129.234 90.5677 130.632C90.5195 131.954 90.5678 132.467 89.2081 132.905C84.5503 134.417 83.1809 130.565 83.2388 126.609Z" fill="#F2F2F2" stroke="#F3652B" stroke-miterlimit="10" stroke-linecap="round" stroke-linejoin="round"/>
<path d="M102.96 135.548C103.23 135.168 103.654 134.921 104.069 134.702C105.843 133.77 107.714 133.019 109.643 132.467C109.797 132.42 110.029 132.41 110.067 132.572" fill="#F2F2F2"/>
<path d="M102.96 135.548C103.23 135.168 103.654 134.921 104.069 134.702C105.843 133.77 107.714 133.019 109.643 132.467C109.797 132.42 110.029 132.41 110.067 132.572" stroke="#646464" stroke-miterlimit="10" stroke-linecap="round" stroke-linejoin="round"/>
<path d="M107.8 145.162C108.736 144.905 109.585 144.401 110.366 143.821C109.179 144.706 105.438 144.249 104.078 144.382C105.042 145.333 106.518 145.505 107.8 145.162Z" fill="#F2F2F2" stroke="#646464" stroke-miterlimit="10" stroke-linecap="round" stroke-linejoin="round"/>
<path d="M103.953 158.047C105.65 159.826 108.293 160.282 110.742 160.643L103.953 158.047Z" fill="#F2F2F2"/>
<path d="M103.953 158.047C105.65 159.826 108.293 160.282 110.742 160.643" stroke="#646464" stroke-miterlimit="10" stroke-linecap="round" stroke-linejoin="round"/>
<path d="M136.769 248.196C143.577 245.334 150.549 242.852 157.628 240.751C165.053 238.554 170.55 235.568 173.935 244.269" stroke="#646464" stroke-miterlimit="10" stroke-linecap="round" stroke-linejoin="round"/>
<path d="M86.3537 149.375C91.621 149.375 95.891 145.164 95.891 139.97C95.891 134.776 91.621 130.565 86.3537 130.565C81.0864 130.565 76.8164 134.776 76.8164 139.97C76.8164 145.164 81.0864 149.375 86.3537 149.375Z" fill="#F2F2F2" stroke="#F3652B" stroke-miterlimit="10" stroke-linecap="round" stroke-linejoin="round"/>
<path d="M86.3539 145.105C89.2299 145.105 91.5614 142.806 91.5614 139.97C91.5614 137.134 89.2299 134.835 86.3539 134.835C83.4779 134.835 81.1465 137.134 81.1465 139.97C81.1465 142.806 83.4779 145.105 86.3539 145.105Z" fill="#F2F2F2" stroke="#F3652B" stroke-miterlimit="10" stroke-linecap="round" stroke-linejoin="round"/>
<path d="M172.131 238.754C174.05 235.178 178.207 231.774 181.881 229.986C185.555 228.198 189.567 227.181 193.54 226.182C197.696 225.136 200.126 225.383 204.282 224.337" stroke="#646464" stroke-miterlimit="10" stroke-linecap="round" stroke-linejoin="round"/>
<path d="M145.718 299.433C150.492 302.618 155.661 305.224 161.07 307.183C164.937 308.581 169.267 309.636 173.105 308.153C175.294 307.316 177.088 305.728 178.747 304.092C193.173 289.923 200.714 270.486 211.997 253.769C216.636 246.893 221.93 240.456 227.205 234.046C230.213 230.385 233.376 226.61 237.706 224.623C241.024 223.101 244.756 222.759 248.401 222.492C273.522 220.657 299.54 220.629 324.612 221.58" stroke="#646464" stroke-width="0.5" stroke-miterlimit="10" stroke-linecap="round" stroke-linejoin="round"/>
<path d="M155.323 287.717C162.074 291.626 166.5 299.176 166.567 306.907" stroke="#646464" stroke-width="0.5" stroke-miterlimit="10" stroke-linecap="round" stroke-linejoin="round"/>
<path d="M321.006 233.209C321.874 231.945 322.289 231.745 322.944 230.357C325.808 224.337 325.317 215.541 319.318 211.557" stroke="#646464" stroke-width="0.5" stroke-miterlimit="10" stroke-linecap="round" stroke-linejoin="round"/>
<path d="M70.8857 185.568C76.5078 189.324 83.4125 190.589 90.0953 191.768C92.2554 192.148 94.5023 192.529 96.6142 191.939C98.7261 191.349 100.645 189.486 100.51 187.327" stroke="#646464" stroke-width="0.5" stroke-miterlimit="10" stroke-linecap="round" stroke-linejoin="round"/>
<path d="M325.249 210.682C324.391 212.298 325.972 214.134 327.583 215.037C329.81 216.292 333.07 216.739 334.574 214.685C333.291 216.444 334.13 219.411 334.227 221.389C334.333 223.653 333.967 226.077 332.829 228.093C332.433 228.788 331.961 229.425 331.488 230.071C331.382 230.214 331.276 230.366 331.131 230.48C330.948 230.632 330.717 230.728 330.485 230.794C329.666 231.032 328.759 230.984 327.978 230.651" stroke="#646464" stroke-miterlimit="10" stroke-linecap="round" stroke-linejoin="round"/>
</svg>
