<svg  viewBox="0 0 642 269" fill="none" xmlns="http://www.w3.org/2000/svg">
<g clip-path="url(#clip0)">
<path d="M11.4749 210.937H0.91803" stroke="#646464" stroke-miterlimit="10" stroke-linecap="round" stroke-linejoin="round"/>
<path d="M43.9421 210.937H17.7492" stroke="#646464" stroke-miterlimit="10" stroke-linecap="round" stroke-linejoin="round"/>
<path d="M439.226 210.937H397.397" stroke="#646464" stroke-miterlimit="10" stroke-linecap="round" stroke-linejoin="round"/>
<path d="M474.183 210.937H450.679" stroke="#646464" stroke-miterlimit="10" stroke-linecap="round" stroke-linejoin="round"/>
<path d="M491.811 210.937H477.868" stroke="#646464" stroke-miterlimit="10" stroke-linecap="round" stroke-linejoin="round"/>
<path d="M383.354 210.937H56.5902" stroke="#646464" stroke-miterlimit="10" stroke-linecap="round" stroke-linejoin="round"/>
<path d="M369.411 222.49V50.5931C369.411 44.8167 364.73 40.1359 358.954 40.1359H105.192C99.4152 40.1359 94.7344 44.8167 94.7344 50.5931V222.49" fill="#F2F2F2"/>
<path d="M369.411 222.49V50.5931C369.411 44.8167 364.73 40.1359 358.954 40.1359H105.192C99.4152 40.1359 94.7344 44.8167 94.7344 50.5931V222.49" stroke="#F3652B" stroke-miterlimit="10" stroke-linecap="round" stroke-linejoin="round"/>
<path d="M265.138 210.937H360.348V51.0911H104.395V210.937H256.772" fill="#F2F2F2"/>
<path d="M265.138 210.937H360.348V51.0911H104.395V210.937H256.772" stroke="#F3652B" stroke-miterlimit="10" stroke-linecap="round" stroke-linejoin="round"/>
<path d="M264.739 231.951H415.622C416.22 231.951 416.718 231.454 416.718 230.856V223.586C416.718 222.988 416.22 222.49 415.622 222.49H49.1209C48.5234 222.49 48.0254 222.988 48.0254 223.586V230.856C48.0254 231.454 48.5234 231.951 49.1209 231.951H260.457" fill="#F2F2F2"/>
<path d="M264.739 231.951H415.622C416.22 231.951 416.718 231.454 416.718 230.856V223.586C416.718 222.988 416.22 222.49 415.622 222.49H49.1209C48.5234 222.49 48.0254 222.988 48.0254 223.586V230.856C48.0254 231.454 48.5234 231.951 49.1209 231.951H260.457" stroke="#F3652B" stroke-miterlimit="10" stroke-linecap="round" stroke-linejoin="round"/>
<path d="M257.867 222.49V223.486C257.867 225.478 256.274 227.071 254.282 227.071H209.665C207.673 227.071 206.079 225.478 206.079 223.486V222.49" fill="#F2F2F2"/>
<path d="M257.867 222.49V223.486C257.867 225.478 256.274 227.071 254.282 227.071H209.665C207.673 227.071 206.079 225.478 206.079 223.486V222.49" stroke="#F3652B" stroke-miterlimit="10" stroke-linecap="round" stroke-linejoin="round"/>
<path d="M232.372 47.8045C231.217 47.8045 230.28 46.8681 230.28 45.713C230.28 44.558 231.217 43.6216 232.372 43.6216C233.527 43.6216 234.463 44.558 234.463 45.713C234.463 46.8681 233.527 47.8045 232.372 47.8045Z" fill="#F2F2F2" stroke="#F3652B" stroke-miterlimit="10" stroke-linecap="round" stroke-linejoin="round"/>
<path d="M195.821 176.379H269.022C273.603 176.379 277.387 172.594 277.387 168.013V93.916C277.387 89.3347 273.603 85.5502 269.022 85.5502H195.821C191.24 85.5502 187.455 89.3347 187.455 93.916V168.013C187.555 172.694 191.24 176.379 195.821 176.379Z" fill="#F2F2F2" stroke="#F3652B" stroke-miterlimit="10" stroke-linecap="round" stroke-linejoin="round"/>
<path d="M213.051 159.05H251.792C256.373 159.05 260.158 155.265 260.158 150.684V111.345C260.158 106.763 256.373 102.979 251.792 102.979H213.051C208.469 102.979 204.685 106.763 204.685 111.345V150.684C204.784 155.265 208.469 159.05 213.051 159.05Z" fill="#F2F2F2" stroke="#F3652B" stroke-miterlimit="10" stroke-linecap="round" stroke-linejoin="round"/>
<path d="M270.416 85.6498V75.2921" stroke="#F3652B" stroke-miterlimit="10" stroke-linecap="round" stroke-linejoin="round"/>
<path d="M255.477 85.6498V75.2921" stroke="#F3652B" stroke-miterlimit="10" stroke-linecap="round" stroke-linejoin="round"/>
<path d="M240.538 85.6498V75.2921" stroke="#F3652B" stroke-miterlimit="10" stroke-linecap="round" stroke-linejoin="round"/>
<path d="M225.5 85.6498V75.2921" stroke="#F3652B" stroke-miterlimit="10" stroke-linecap="round" stroke-linejoin="round"/>
<path d="M210.561 85.6498V75.2921" stroke="#F3652B" stroke-miterlimit="10" stroke-linecap="round" stroke-linejoin="round"/>
<path d="M195.622 85.6498V75.2921" stroke="#F3652B" stroke-miterlimit="10" stroke-linecap="round" stroke-linejoin="round"/>
<path d="M270.416 184.745V176.379" stroke="#F3652B" stroke-miterlimit="10" stroke-linecap="round" stroke-linejoin="round"/>
<path d="M255.477 186.736V176.379" stroke="#F3652B" stroke-miterlimit="10" stroke-linecap="round" stroke-linejoin="round"/>
<path d="M240.538 186.736V176.379" stroke="#F3652B" stroke-miterlimit="10" stroke-linecap="round" stroke-linejoin="round"/>
<path d="M225.5 186.736V176.379" stroke="#F3652B" stroke-miterlimit="10" stroke-linecap="round" stroke-linejoin="round"/>
<path d="M210.561 186.736V176.379" stroke="#F3652B" stroke-miterlimit="10" stroke-linecap="round" stroke-linejoin="round"/>
<path d="M195.622 186.736V176.379" stroke="#F3652B" stroke-miterlimit="10" stroke-linecap="round" stroke-linejoin="round"/>
<path d="M287.845 93.3184H277.487" stroke="#F3652B" stroke-miterlimit="10" stroke-linecap="round" stroke-linejoin="round"/>
<path d="M287.845 108.257H277.487" stroke="#F3652B" stroke-miterlimit="10" stroke-linecap="round" stroke-linejoin="round"/>
<path d="M287.845 123.296H277.487" stroke="#F3652B" stroke-miterlimit="10" stroke-linecap="round" stroke-linejoin="round"/>
<path d="M287.845 138.235H277.487" stroke="#F3652B" stroke-miterlimit="10" stroke-linecap="round" stroke-linejoin="round"/>
<path d="M287.845 153.174H277.487" stroke="#F3652B" stroke-miterlimit="10" stroke-linecap="round" stroke-linejoin="round"/>
<path d="M287.845 168.112H277.487" stroke="#F3652B" stroke-miterlimit="10" stroke-linecap="round" stroke-linejoin="round"/>
<path d="M187.356 93.3184H176.998" stroke="#F3652B" stroke-miterlimit="10" stroke-linecap="round" stroke-linejoin="round"/>
<path d="M187.356 108.257H176.998" stroke="#F3652B" stroke-miterlimit="10" stroke-linecap="round" stroke-linejoin="round"/>
<path d="M187.356 123.296H176.998" stroke="#F3652B" stroke-miterlimit="10" stroke-linecap="round" stroke-linejoin="round"/>
<path d="M187.356 138.235H176.998" stroke="#F3652B" stroke-miterlimit="10" stroke-linecap="round" stroke-linejoin="round"/>
<path d="M187.356 153.174H176.998" stroke="#F3652B" stroke-miterlimit="10" stroke-linecap="round" stroke-linejoin="round"/>
<path d="M187.356 168.112H176.998" stroke="#F3652B" stroke-miterlimit="10" stroke-linecap="round" stroke-linejoin="round"/>
<path d="M215.142 145.903L216.138 141.322L246.115 116.424H250.199L244.92 145.903H238.845L242.53 126.682L219.723 145.903H215.142Z" fill="#F2F2F2" stroke="#F3652B" stroke-miterlimit="10" stroke-linecap="round" stroke-linejoin="round"/>
<path d="M601.163 178.371C579.217 178.371 561.426 160.58 561.426 138.633C561.426 116.687 579.217 98.8956 601.163 98.8956C623.11 98.8956 640.901 116.687 640.901 138.633C640.901 160.58 623.11 178.371 601.163 178.371Z" fill="#F2F2F2" stroke="#F3652B" stroke-miterlimit="10" stroke-linecap="round" stroke-linejoin="round" stroke-dasharray="2 2"/>
<path d="M558.139 268.801C540.538 268.801 526.27 254.532 526.27 236.931C526.27 219.33 540.538 205.061 558.139 205.061C575.74 205.061 590.009 219.33 590.009 236.931C590.009 254.532 575.74 268.801 558.139 268.801Z" fill="#F2F2F2" stroke="#646464" stroke-miterlimit="10" stroke-linecap="round" stroke-linejoin="round" stroke-dasharray="2 2"/>
<path d="M499.28 75.7901C481.679 75.7901 467.41 61.5216 467.41 43.9205C467.41 26.3193 481.679 12.0508 499.28 12.0508C516.881 12.0508 531.15 26.3193 531.15 43.9205C531.15 61.5216 516.881 75.7901 499.28 75.7901Z" fill="#F2F2F2" stroke="#646464" stroke-miterlimit="10" stroke-linecap="round" stroke-linejoin="round" stroke-dasharray="2 2"/>
<path d="M517.406 240.716C515.591 240.716 514.119 239.244 514.119 237.429C514.119 235.614 515.591 234.142 517.406 234.142C519.221 234.142 520.692 235.614 520.692 237.429C520.692 239.244 519.221 240.716 517.406 240.716Z" fill="#F2F2F2" stroke="#646464" stroke-miterlimit="10" stroke-linecap="round" stroke-linejoin="round"/>
<path d="M429.665 153.174H404.269" stroke="#646464" stroke-miterlimit="10" stroke-linecap="round" stroke-linejoin="round"/>
<path d="M446.596 217.809V168.312C446.596 168.312 447.392 153.174 431.258 153.174" fill="#F2F2F2"/>
<path d="M446.596 217.809V168.312C446.596 168.312 447.392 153.174 431.258 153.174" stroke="#646464" stroke-miterlimit="10" stroke-linecap="round" stroke-linejoin="round"/>
<path d="M474.183 238.027H471.792H464.622C464.622 238.027 446.595 239.321 446.595 220.598" fill="#F2F2F2"/>
<path d="M474.183 238.027H471.792H464.622C464.622 238.027 446.595 239.321 446.595 220.598" stroke="#646464" stroke-miterlimit="10" stroke-linecap="round" stroke-linejoin="round"/>
<path d="M495.296 238.027H485.935" stroke="#646464" stroke-miterlimit="10" stroke-linecap="round" stroke-linejoin="round"/>
<path d="M514.02 238.027H501.969" stroke="#646464" stroke-miterlimit="10" stroke-linecap="round" stroke-linejoin="round"/>
<path d="M397.297 153.174H379.669" stroke="#646464" stroke-miterlimit="10" stroke-linecap="round" stroke-linejoin="round"/>
<path d="M389.529 123.495H379.669" stroke="#646464" stroke-miterlimit="10" stroke-linecap="round" stroke-linejoin="round"/>
<path d="M419.606 63.7394V108.357C419.606 108.357 420.403 123.495 404.269 123.495" fill="#F2F2F2"/>
<path d="M419.606 63.7394V108.357C419.606 108.357 420.403 123.495 404.269 123.495" stroke="#646464" stroke-miterlimit="10" stroke-linecap="round" stroke-linejoin="round"/>
<path d="M453.966 43.6217H437.632C437.632 43.6217 419.606 42.3269 419.606 61.0504" fill="#F2F2F2"/>
<path d="M453.966 43.6217H437.632C437.632 43.6217 419.606 42.3269 419.606 61.0504" stroke="#646464" stroke-miterlimit="10" stroke-linecap="round" stroke-linejoin="round"/>
<path d="M457.352 46.9082C455.536 46.9082 454.065 45.4368 454.065 43.6216C454.065 41.8065 455.536 40.3351 457.352 40.3351C459.167 40.3351 460.638 41.8065 460.638 43.6216C460.638 45.4368 459.167 46.9082 457.352 46.9082Z" fill="#F2F2F2" stroke="#646464" stroke-miterlimit="10" stroke-linecap="round" stroke-linejoin="round"/>
<path d="M531.05 138.633H546.288" stroke="#646464" stroke-miterlimit="10" stroke-linecap="round" stroke-linejoin="round"/>
<path d="M494.101 138.633H521.589" stroke="#646464" stroke-miterlimit="10" stroke-linecap="round" stroke-linejoin="round"/>
<path d="M450.679 138.633H480.855" stroke="#646464" stroke-miterlimit="10" stroke-linecap="round" stroke-linejoin="round"/>
<path d="M396.301 138.633H431.258" stroke="#646464" stroke-miterlimit="10" stroke-linecap="round" stroke-linejoin="round"/>
<path d="M549.574 141.92C547.759 141.92 546.288 140.448 546.288 138.633C546.288 136.818 547.759 135.347 549.574 135.347C551.389 135.347 552.861 136.818 552.861 138.633C552.861 140.448 551.389 141.92 549.574 141.92Z" fill="#F2F2F2" stroke="#646464" stroke-miterlimit="10" stroke-linecap="round" stroke-linejoin="round"/>
<path d="M306.269 9.26217C303.794 9.26217 301.788 7.25566 301.788 4.7805C301.788 2.30534 303.794 0.298828 306.269 0.298828C308.744 0.298828 310.751 2.30534 310.751 4.7805C310.751 7.25566 308.744 9.26217 306.269 9.26217Z" fill="#F2F2F2" stroke="#F3652B" stroke-miterlimit="10" stroke-linecap="round" stroke-linejoin="round"/>
<path d="M306.269 17.0304V9.26221" stroke="#F3652B" stroke-miterlimit="10" stroke-linecap="round" stroke-linejoin="round"/>
<path d="M306.269 30.9734V21.1138" stroke="#F3652B" stroke-miterlimit="10" stroke-linecap="round" stroke-linejoin="round"/>
<path d="M295.513 52.6846H298.103C298.103 52.6846 306.269 53.0829 306.269 44.518V33.6624" fill="#F2F2F2"/>
<path d="M295.513 52.6846H298.103C298.103 52.6846 306.269 53.0829 306.269 44.518V33.6624" stroke="#F3652B" stroke-miterlimit="10" stroke-linecap="round" stroke-linejoin="round"/>
<path d="M284.458 52.6846H292.824" stroke="#F3652B" stroke-miterlimit="10" stroke-linecap="round" stroke-linejoin="round"/>
<path d="M270.416 67.3248C270.416 67.3248 270.416 71.906 270.416 61.648C270.416 52.0871 279.28 52.7842 279.28 52.7842" fill="#F2F2F2"/>
<path d="M270.416 67.3248C270.416 67.3248 270.416 71.906 270.416 61.648C270.416 52.0871 279.28 52.7842 279.28 52.7842" stroke="#F3652B" stroke-miterlimit="10" stroke-linecap="round" stroke-linejoin="round"/>
<path d="M121.326 100.489C118.851 100.489 116.844 98.4826 116.844 96.0074C116.844 93.5323 118.851 91.5258 121.326 91.5258C123.801 91.5258 125.807 93.5323 125.807 96.0074C125.807 98.4826 123.801 100.489 121.326 100.489Z" fill="#F2F2F2" stroke="#F3652B" stroke-miterlimit="10" stroke-linecap="round" stroke-linejoin="round"/>
<path d="M129.592 96.0074C124.513 96.0074 126.007 96.0074 126.007 96.0074H129.592Z" fill="#F2F2F2"/>
<path d="M129.592 96.0074C124.513 96.0074 126.007 96.0074 126.007 96.0074" stroke="#F3652B" stroke-miterlimit="10" stroke-linecap="round" stroke-linejoin="round"/>
<path d="M139.949 96.0074C137.46 96.0074 134.97 96.0074 132.58 96.0074H139.949Z" fill="#F2F2F2"/>
<path d="M139.949 96.0074C137.46 96.0074 134.97 96.0074 132.58 96.0074" stroke="#F3652B" stroke-miterlimit="10" stroke-linecap="round" stroke-linejoin="round"/>
<path d="M159.868 104.174C159.868 104.174 160.266 96.0074 151.701 96.0074C148.813 96.0074 149.411 96.0074 143.834 96.0074" fill="#F2F2F2"/>
<path d="M159.868 104.174C159.868 104.174 160.266 96.0074 151.701 96.0074C148.813 96.0074 149.411 96.0074 143.834 96.0074" stroke="#F3652B" stroke-miterlimit="10" stroke-linecap="round" stroke-linejoin="round"/>
<path d="M159.868 107.062V117.519C159.868 117.519 159.27 123.893 166.142 123.893C173.014 123.893 171.321 123.893 171.321 123.893" fill="#F2F2F2"/>
<path d="M159.868 107.062V117.519C159.868 117.519 159.27 123.893 166.142 123.893C173.014 123.893 171.321 123.893 171.321 123.893" stroke="#F3652B" stroke-miterlimit="10" stroke-linecap="round" stroke-linejoin="round"/>
<path d="M333.657 123.893C338.736 123.893 337.243 123.893 337.243 123.893H333.657Z" fill="#F2F2F2"/>
<path d="M333.657 123.893C338.736 123.893 337.243 123.893 337.243 123.893" stroke="#F3652B" stroke-miterlimit="10" stroke-linecap="round" stroke-linejoin="round"/>
<path d="M323.3 123.893C325.789 123.893 328.279 123.893 330.669 123.893H323.3Z" fill="#F2F2F2"/>
<path d="M323.3 123.893C325.789 123.893 328.279 123.893 330.669 123.893" stroke="#F3652B" stroke-miterlimit="10" stroke-linecap="round" stroke-linejoin="round"/>
<path d="M303.381 115.627C303.381 115.627 302.983 123.794 311.548 123.794C314.436 123.794 313.838 123.794 319.416 123.794" fill="#F2F2F2"/>
<path d="M303.381 115.627C303.381 115.627 302.983 123.794 311.548 123.794C314.436 123.794 313.838 123.794 319.416 123.794" stroke="#F3652B" stroke-miterlimit="10" stroke-linecap="round" stroke-linejoin="round"/>
<path d="M303.381 114.731C303.381 114.731 303.978 108.357 297.107 108.357C290.235 108.357 291.928 108.357 291.928 108.357" fill="#F2F2F2"/>
<path d="M303.381 114.731C303.381 114.731 303.978 108.357 297.107 108.357C290.235 108.357 291.928 108.357 291.928 108.357" stroke="#F3652B" stroke-miterlimit="10" stroke-linecap="round" stroke-linejoin="round"/>
<path d="M262.648 242.309C262.648 246.392 262.648 249.281 262.648 249.281V242.309Z" fill="#F2F2F2"/>
<path d="M262.648 242.309C262.648 246.392 262.648 249.281 262.648 249.281" stroke="#F3652B" stroke-miterlimit="10" stroke-linecap="round" stroke-linejoin="round"/>
<path d="M262.648 225.279C262.648 229.063 262.648 235.836 262.648 239.321V225.279Z" fill="#F2F2F2"/>
<path d="M262.648 225.279C262.648 229.063 262.648 235.836 262.648 239.321" stroke="#F3652B" stroke-miterlimit="10" stroke-linecap="round" stroke-linejoin="round"/>
<path d="M225.599 190.521V198.488C225.599 198.488 224.802 206.456 232.67 206.456C240.538 206.456 256.075 206.456 256.075 206.456C256.075 206.456 262.648 205.46 262.648 213.328C262.648 214.921 262.648 217.311 262.648 220.2" fill="#F2F2F2"/>
<path d="M225.599 190.521V198.488C225.599 198.488 224.802 206.456 232.67 206.456C240.538 206.456 256.075 206.456 256.075 206.456C256.075 206.456 262.648 205.46 262.648 213.328C262.648 214.921 262.648 217.311 262.648 220.2" stroke="#F3652B" stroke-miterlimit="10" stroke-linecap="round" stroke-linejoin="round"/>
<path d="M262.648 255.854C260.833 255.854 259.361 254.382 259.361 252.567C259.361 250.752 260.833 249.281 262.648 249.281C264.463 249.281 265.934 250.752 265.934 252.567C265.934 254.382 264.463 255.854 262.648 255.854Z" fill="#F2F2F2" stroke="#F3652B" stroke-miterlimit="10" stroke-linecap="round" stroke-linejoin="round"/>
<path d="M334.853 153.174C339.932 153.174 349.393 153.174 349.393 153.174H334.853Z" fill="#F2F2F2"/>
<path d="M334.853 153.174C339.932 153.174 349.393 153.174 349.393 153.174" stroke="#F3652B" stroke-miterlimit="10" stroke-linecap="round" stroke-linejoin="round"/>
<path d="M324.495 153.174C326.985 153.174 329.475 153.174 331.865 153.174H324.495Z" fill="#F2F2F2"/>
<path d="M324.495 153.174C326.985 153.174 329.475 153.174 331.865 153.174" stroke="#F3652B" stroke-miterlimit="10" stroke-linecap="round" stroke-linejoin="round"/>
<path d="M304.576 158.452C304.576 158.452 304.576 153.174 308.958 153.174C311.847 153.174 315.133 153.174 320.71 153.174" fill="#F2F2F2"/>
<path d="M304.576 158.452C304.576 158.452 304.576 153.174 308.958 153.174C311.847 153.174 315.133 153.174 320.71 153.174" stroke="#F3652B" stroke-miterlimit="10" stroke-linecap="round" stroke-linejoin="round"/>
<path d="M304.576 190.521V191.019C304.576 191.019 305.174 197.393 298.302 197.393C291.43 197.393 293.123 197.393 293.123 197.393" fill="#F2F2F2"/>
<path d="M304.576 190.521V191.019C304.576 191.019 305.174 197.393 298.302 197.393C291.43 197.393 293.123 197.393 293.123 197.393" stroke="#F3652B" stroke-miterlimit="10" stroke-linecap="round" stroke-linejoin="round"/>
<path d="M246.912 197.194C246.912 197.194 240.538 197.791 240.538 190.919C240.538 183.948 240.538 189.824 240.538 189.824" fill="#F2F2F2"/>
<path d="M246.912 197.194C246.912 197.194 240.538 197.791 240.538 190.919C240.538 183.948 240.538 189.824 240.538 189.824" stroke="#F3652B" stroke-miterlimit="10" stroke-linecap="round" stroke-linejoin="round"/>
<path d="M291.331 197.393H267.827" stroke="#F3652B" stroke-miterlimit="10" stroke-linecap="round" stroke-linejoin="round"/>
<path d="M257.867 197.393H249.9" stroke="#F3652B" stroke-miterlimit="10" stroke-linecap="round" stroke-linejoin="round"/>
<path d="M304.576 160.145V168.112" stroke="#F3652B" stroke-miterlimit="10" stroke-linecap="round" stroke-linejoin="round"/>
<path d="M304.576 173.789V186.736" stroke="#F3652B" stroke-miterlimit="10" stroke-linecap="round" stroke-linejoin="round"/>
<path d="M306.269 138.633H295.513" stroke="#F3652B" stroke-miterlimit="10" stroke-linecap="round" stroke-linejoin="round"/>
<path d="M345.409 138.633H340.031" stroke="#F3652B" stroke-miterlimit="10" stroke-linecap="round" stroke-linejoin="round"/>
<path d="M335.55 138.633H312.544" stroke="#F3652B" stroke-miterlimit="10" stroke-linecap="round" stroke-linejoin="round"/>
<g clip-path="url(#clip1)">
<path d="M497.646 21.3828H484.527V30.9178H497.646V21.3828Z" stroke="#F3652B" stroke-width="1.4" stroke-miterlimit="10"/>
<path d="M497.646 54.7252H484.527V64.2602H497.646V54.7252Z" stroke="#F3652B" stroke-width="1.4" stroke-miterlimit="10"/>
<path d="M517.749 54.7252H504.63V64.2602H517.749V54.7252Z" stroke="#F3652B" stroke-width="1.4" stroke-miterlimit="10"/>
<path d="M491.09 50.2354L484.559 42.8349L491.09 35.4277L497.62 42.8349L491.09 50.2354Z" stroke="#F3652B" stroke-width="1.4" stroke-miterlimit="10"/>
<path d="M491.09 30.9178V35.4277" stroke="#F3652B" stroke-width="1.4" stroke-miterlimit="10"/>
<path d="M497.62 42.8348H511.193V54.7251" stroke="#F3652B" stroke-width="1.4" stroke-miterlimit="10"/>
<path d="M491.09 50.2354V54.7252" stroke="#F3652B" stroke-width="1.4" stroke-miterlimit="10"/>
</g>
<path d="M578.775 118.569C579.118 118.895 579.556 119.082 580.01 119.082C580.472 119.082 580.926 118.895 581.253 118.561C581.579 118.236 581.771 117.772 581.771 117.301C581.771 116.837 581.579 116.365 581.253 116.04C580.6 115.381 579.42 115.381 578.767 116.04C578.44 116.373 578.257 116.837 578.257 117.309C578.257 117.781 578.448 118.236 578.775 118.569ZM579.524 116.813C579.643 116.683 579.827 116.609 580.01 116.609C580.193 116.609 580.376 116.683 580.504 116.813C580.623 116.935 580.703 117.122 580.703 117.301C580.703 117.48 580.631 117.667 580.504 117.797C580.257 118.049 579.787 118.057 579.524 117.797C579.396 117.667 579.317 117.488 579.317 117.309C579.317 117.122 579.396 116.943 579.524 116.813Z" fill="#F3652B"/>
<path d="M590.065 119.082C591.029 119.082 591.818 118.285 591.818 117.309C591.818 116.325 591.029 115.528 590.065 115.528C589.093 115.528 588.312 116.325 588.312 117.309C588.312 118.285 589.101 119.082 590.065 119.082ZM590.065 116.609C590.447 116.609 590.758 116.918 590.758 117.309C590.758 117.691 590.447 118 590.065 118C589.682 118 589.372 117.691 589.372 117.309C589.372 116.918 589.682 116.609 590.065 116.609Z" fill="#F3652B"/>
<path d="M585.037 119.082C586.001 119.082 586.79 118.285 586.79 117.309C586.798 116.325 586.009 115.528 585.037 115.528C584.065 115.528 583.284 116.325 583.284 117.309C583.284 118.285 584.073 119.082 585.037 119.082ZM585.037 116.609C585.42 116.609 585.73 116.918 585.73 117.309C585.73 117.691 585.42 118 585.037 118C584.655 118 584.344 117.691 584.344 117.309C584.344 116.918 584.655 116.609 585.037 116.609Z" fill="#F3652B"/>
<path d="M595.084 119.082C596.056 119.082 596.837 118.285 596.837 117.309C596.837 116.325 596.048 115.528 595.084 115.528C594.112 115.528 593.332 116.325 593.332 117.309C593.332 118.285 594.112 119.082 595.084 119.082ZM595.084 116.609C595.467 116.609 595.778 116.918 595.778 117.309C595.778 117.691 595.467 118 595.084 118C594.702 118 594.391 117.691 594.391 117.309C594.391 116.918 594.702 116.609 595.084 116.609Z" fill="#F3652B"/>
<path d="M598.869 116.048C598.542 116.382 598.359 116.837 598.359 117.309C598.359 117.781 598.542 118.236 598.869 118.57C599.195 118.895 599.65 119.09 600.112 119.09C600.574 119.09 601.028 118.903 601.347 118.57C601.673 118.244 601.865 117.781 601.865 117.309C601.865 116.837 601.673 116.382 601.347 116.048C600.709 115.389 599.514 115.389 598.869 116.048ZM600.606 117.797C600.359 118.049 599.873 118.049 599.626 117.797C599.498 117.667 599.427 117.488 599.427 117.301C599.427 117.114 599.498 116.935 599.626 116.813C599.745 116.691 599.936 116.609 600.12 116.609C600.303 116.609 600.486 116.683 600.614 116.813C600.741 116.943 600.813 117.122 600.813 117.301C600.805 117.488 600.733 117.667 600.606 117.797Z" fill="#F3652B"/>
<path d="M600.112 130.77C599.14 130.77 598.359 131.567 598.359 132.551C598.359 133.527 599.148 134.324 600.112 134.324C601.076 134.324 601.865 133.527 601.865 132.551C601.865 131.55 601.092 130.77 600.112 130.77ZM600.112 133.242C599.729 133.242 599.419 132.933 599.419 132.551C599.419 132.168 599.729 131.851 600.112 131.851C600.51 131.851 600.805 132.152 600.805 132.551C600.805 132.933 600.494 133.242 600.112 133.242Z" fill="#F3652B"/>
<path d="M600.112 125.686C599.14 125.686 598.359 126.483 598.359 127.467C598.359 128.443 599.148 129.24 600.112 129.24C601.076 129.24 601.865 128.443 601.865 127.467C601.865 126.467 601.092 125.686 600.112 125.686ZM600.112 128.159C599.729 128.159 599.419 127.85 599.419 127.467C599.419 127.085 599.729 126.768 600.112 126.768C600.51 126.768 600.805 127.069 600.805 127.467C600.805 127.85 600.494 128.159 600.112 128.159Z" fill="#F3652B"/>
<path d="M600.112 120.611C599.14 120.611 598.359 121.408 598.359 122.392C598.359 123.376 599.148 124.173 600.112 124.173C601.076 124.173 601.865 123.376 601.865 122.392C601.865 121.408 601.076 120.611 600.112 120.611ZM600.112 123.084C599.729 123.084 599.419 122.774 599.419 122.384C599.419 122.002 599.729 121.685 600.112 121.685C600.494 121.685 600.805 121.994 600.805 122.384C600.805 122.774 600.494 123.084 600.112 123.084Z" fill="#F3652B"/>
<path d="M598.869 136.357C598.542 136.691 598.359 137.146 598.359 137.618C598.359 138.082 598.55 138.553 598.869 138.879C599.195 139.212 599.65 139.399 600.112 139.399C600.574 139.399 601.028 139.212 601.347 138.879C601.673 138.553 601.865 138.09 601.865 137.618C601.865 137.146 601.673 136.691 601.347 136.357C600.701 135.698 599.53 135.698 598.869 136.357ZM600.606 138.106C600.351 138.366 599.873 138.366 599.618 138.106C599.49 137.976 599.419 137.789 599.419 137.61C599.419 137.423 599.49 137.244 599.618 137.122C599.745 136.992 599.928 136.918 600.112 136.918C600.295 136.918 600.478 136.992 600.606 137.122C600.733 137.252 600.805 137.431 600.805 137.61C600.805 137.789 600.733 137.984 600.606 138.106Z" fill="#F3652B"/>
<path d="M595.084 139.399C596.056 139.399 596.837 138.602 596.837 137.618C596.837 136.634 596.048 135.837 595.084 135.837C594.112 135.837 593.332 136.634 593.332 137.618C593.332 138.602 594.112 139.399 595.084 139.399ZM595.084 136.918C595.467 136.918 595.778 137.227 595.778 137.618C595.778 138 595.467 138.317 595.084 138.317C594.702 138.317 594.391 138.008 594.391 137.618C594.391 137.236 594.702 136.918 595.084 136.918Z" fill="#F3652B"/>
<path d="M590.065 139.399C591.029 139.399 591.818 138.602 591.818 137.618C591.818 136.634 591.029 135.837 590.065 135.837C589.093 135.837 588.312 136.634 588.312 137.618C588.312 138.618 589.085 139.399 590.065 139.399ZM590.065 136.918C590.447 136.918 590.758 137.227 590.758 137.618C590.758 138 590.447 138.317 590.065 138.317C589.674 138.317 589.372 138.008 589.372 137.618C589.372 137.236 589.682 136.918 590.065 136.918Z" fill="#F3652B"/>
<path d="M585.037 139.399C586.001 139.399 586.79 138.602 586.79 137.618C586.79 136.634 586.001 135.837 585.037 135.837C584.065 135.837 583.284 136.634 583.284 137.618C583.284 138.602 584.073 139.399 585.037 139.399ZM585.037 136.918C585.42 136.918 585.73 137.227 585.73 137.618C585.73 138 585.42 138.317 585.037 138.317C584.655 138.317 584.344 138.008 584.344 137.618C584.344 137.236 584.655 136.918 585.037 136.918Z" fill="#F3652B"/>
<path d="M578.783 138.887C579.126 139.22 579.564 139.399 580.018 139.399C580.48 139.399 580.934 139.212 581.261 138.879C581.587 138.553 581.779 138.09 581.779 137.618C581.779 137.146 581.595 136.691 581.261 136.357C580.607 135.698 579.436 135.698 578.783 136.357C578.448 136.691 578.257 137.146 578.257 137.618C578.257 138.082 578.448 138.553 578.783 138.887ZM579.524 137.122C579.779 136.862 580.249 136.862 580.504 137.122C580.631 137.252 580.703 137.431 580.703 137.618C580.703 137.805 580.631 137.984 580.504 138.106C580.249 138.366 579.787 138.366 579.516 138.106C579.388 137.984 579.317 137.789 579.317 137.61C579.317 137.431 579.396 137.252 579.524 137.122Z" fill="#F3652B"/>
<path d="M580.01 134.324C580.974 134.324 581.763 133.527 581.763 132.551C581.763 131.567 580.974 130.77 580.01 130.77C579.038 130.77 578.257 131.567 578.257 132.551C578.257 133.527 579.046 134.324 580.01 134.324ZM580.01 131.851C580.392 131.851 580.703 132.16 580.703 132.551C580.703 132.933 580.392 133.242 580.01 133.242C579.627 133.242 579.317 132.933 579.317 132.551C579.317 132.16 579.635 131.851 580.01 131.851Z" fill="#F3652B"/>
<path d="M580.01 129.24C580.974 129.24 581.763 128.443 581.763 127.467C581.763 126.483 580.974 125.686 580.01 125.686C579.038 125.686 578.257 126.483 578.257 127.467C578.257 128.443 579.046 129.24 580.01 129.24ZM580.01 126.768C580.392 126.768 580.703 127.077 580.703 127.467C580.703 127.85 580.392 128.159 580.01 128.159C579.627 128.159 579.317 127.85 579.317 127.467C579.317 127.085 579.635 126.768 580.01 126.768Z" fill="#F3652B"/>
<path d="M580.01 124.165C580.974 124.165 581.763 123.368 581.763 122.384C581.763 121.4 580.974 120.603 580.01 120.603C579.046 120.611 578.257 121.408 578.257 122.384C578.257 123.368 579.046 124.165 580.01 124.165ZM580.01 121.693C580.392 121.693 580.703 122.002 580.703 122.392C580.703 122.774 580.392 123.092 580.01 123.092C579.627 123.092 579.317 122.783 579.317 122.392C579.317 122.002 579.635 121.693 580.01 121.693Z" fill="#F3652B"/>
<path d="M604.095 163.612H625.257V142.221H604.095V163.612ZM624.197 162.53H605.163V143.303H624.197V162.53Z" fill="#F3652B"/>
<path d="M607.45 120.595L611.147 116.609L610.366 115.869L605.984 120.595L605.8 120.79L605.466 121.148L605.8 121.514L605.952 121.676L610.366 126.394L611.139 125.654L607.426 121.676H624.197V138.391H625.257V120.595H607.45Z" fill="#F3652B"/>
<path d="M597.714 158.098L597.562 157.935L593.148 153.218L592.375 153.958L596.088 157.935H579.325V142.244H578.257L578.257 159.017H596.072L592.375 162.994L593.148 163.734L597.53 159.017L597.714 158.822L598.048 158.456L597.714 158.098Z" fill="#F3652B"/>
<g clip-path="url(#clip2)">
<path d="M566.809 224.209H550.267C548.308 224.209 546.712 225.95 546.712 228.087V246.133C546.712 248.27 548.308 250.011 550.267 250.011H566.809C568.767 250.011 570.364 248.27 570.364 246.133V228.087C570.364 225.95 568.767 224.209 566.809 224.209ZM569.42 246.133C569.42 247.716 568.26 248.982 566.809 248.982H550.267C548.816 248.982 547.655 247.716 547.655 246.133V228.087C547.655 226.504 548.816 225.238 550.267 225.238H566.809C568.26 225.238 569.42 226.504 569.42 228.087V246.133Z" fill="#F3652B"/>
<path d="M580.448 221.043V220.014H576.966C576.676 218.431 575.515 217.165 574.064 216.928V213.128H573.121V216.928H568.042V213.128H567.099V216.928H562.02V213.128H561.077V216.928H555.999V213.128H555.055V216.928H549.977V213.128H549.034V216.928H543.955V213.128H542.939V216.928C541.488 217.244 540.328 218.431 540.037 220.014H536.627V221.043H540.037V226.583H536.627V227.612H540.037V233.153H536.627V234.181H540.037V239.722H536.627V240.83H540.037V246.37H536.627V247.399H540.037V252.939H536.627V253.968H540.11C540.328 255.63 541.488 256.897 543.012 257.213V260.933H543.883V257.292H548.961V260.933H549.904V257.292H554.983V260.933H555.926V257.292H561.005V260.933H562.02V257.292H567.099V260.933H568.042V257.292H573.121V260.933H574.064V257.213C575.515 256.897 576.748 255.63 576.966 253.968H580.448V252.939H577.038V247.399H580.448V246.37H577.038V240.83H580.448V239.801H577.038V234.261H580.448V233.232H577.038V227.691H580.448V226.663H577.038V221.122H580.448V221.043ZM576.095 253.414C576.095 254.997 574.934 256.263 573.483 256.263H543.592C542.141 256.263 540.981 254.997 540.981 253.414V220.806C540.981 219.223 542.141 217.956 543.592 217.956H573.483C574.934 217.956 576.095 219.223 576.095 220.806V253.414Z" fill="#F3652B"/>
</g>
</g>
<defs>
<clipPath id="clip0">
<rect width="640.581" height="269" fill="white" transform="matrix(-1 0 0 1 641.2 0)"/>
</clipPath>
<clipPath id="clip1">
<rect width="34.2599" height="43.8208" fill="white" transform="translate(483.943 20.9144)"/>
</clipPath>
<clipPath id="clip2">
<rect width="43.8208" height="47.8045" fill="white" transform="translate(536.627 213.128)"/>
</clipPath>
</defs>
</svg>
