<svg  viewBox="0 0 576 507" fill="none" xmlns="http://www.w3.org/2000/svg">
<g clip-path="url(#clip0)">
<rect width="576" height="507" fill="white"/>
<rect width="1440" height="82" fill="#F4F4F4"/>
<path d="M36.5918 55H33.2168V29.4062H36.5918V55ZM45.3457 35.9805L45.4512 38.3711C46.9043 36.543 48.8027 35.6289 51.1465 35.6289C55.166 35.6289 57.1934 37.8965 57.2285 42.4316V55H53.9766V42.4141C53.9648 41.043 53.6484 40.0293 53.0273 39.373C52.418 38.7168 51.4629 38.3887 50.1621 38.3887C49.1074 38.3887 48.1816 38.6699 47.3848 39.2324C46.5879 39.7949 45.9668 40.5332 45.5215 41.4473V55H42.2695V35.9805H45.3457ZM66.5449 31.375V35.9805H70.0957V38.4941H66.5449V50.2891C66.5449 51.0508 66.7031 51.625 67.0195 52.0117C67.3359 52.3867 67.875 52.5742 68.6367 52.5742C69.0117 52.5742 69.5273 52.5039 70.1836 52.3633V55C69.3281 55.2344 68.4961 55.3516 67.6875 55.3516C66.2344 55.3516 65.1387 54.9121 64.4004 54.0332C63.6621 53.1543 63.293 51.9062 63.293 50.2891V38.4941H59.8301V35.9805H63.293V31.375H66.5449ZM81.8027 55.3516C79.2246 55.3516 77.127 54.5078 75.5098 52.8203C73.8926 51.1211 73.084 48.8535 73.084 46.0176V45.4199C73.084 43.5332 73.4414 41.8516 74.1562 40.375C74.8828 38.8867 75.8906 37.7266 77.1797 36.8945C78.4805 36.0508 79.8867 35.6289 81.3984 35.6289C83.8711 35.6289 85.793 36.4434 87.1641 38.0723C88.5352 39.7012 89.2207 42.0332 89.2207 45.0684V46.4219H76.3359C76.3828 48.2969 76.9277 49.8145 77.9707 50.9746C79.0254 52.123 80.3613 52.6973 81.9785 52.6973C83.127 52.6973 84.0996 52.4629 84.8965 51.9941C85.6934 51.5254 86.3906 50.9043 86.9883 50.1309L88.9746 51.6777C87.3809 54.127 84.9902 55.3516 81.8027 55.3516ZM81.3984 38.3008C80.0859 38.3008 78.9844 38.7812 78.0938 39.7422C77.2031 40.6914 76.6523 42.0273 76.4414 43.75H85.9688V43.5039C85.875 41.8516 85.4297 40.5742 84.6328 39.6719C83.8359 38.7578 82.7578 38.3008 81.3984 38.3008ZM96.5332 55H93.2812V28H96.5332V55ZM105.287 55H102.035V28H105.287V55ZM114.041 55H110.789V35.9805H114.041V55ZM110.525 30.9355C110.525 30.4082 110.684 29.9629 111 29.5996C111.328 29.2363 111.809 29.0547 112.441 29.0547C113.074 29.0547 113.555 29.2363 113.883 29.5996C114.211 29.9629 114.375 30.4082 114.375 30.9355C114.375 31.4629 114.211 31.9023 113.883 32.2539C113.555 32.6055 113.074 32.7812 112.441 32.7812C111.809 32.7812 111.328 32.6055 111 32.2539C110.684 31.9023 110.525 31.4629 110.525 30.9355ZM118.488 45.332C118.488 42.3672 119.174 40.0117 120.545 38.2656C121.916 36.5078 123.732 35.6289 125.994 35.6289C128.314 35.6289 130.125 36.4492 131.426 38.0898L131.584 35.9805H134.555V54.543C134.555 57.0039 133.822 58.9434 132.357 60.3613C130.904 61.7793 128.947 62.4883 126.486 62.4883C125.115 62.4883 123.773 62.1953 122.461 61.6094C121.148 61.0234 120.146 60.2207 119.455 59.2012L121.143 57.25C122.537 58.9727 124.242 59.834 126.258 59.834C127.84 59.834 129.07 59.3887 129.949 58.498C130.84 57.6074 131.285 56.3535 131.285 54.7363V53.1016C129.984 54.6016 128.209 55.3516 125.959 55.3516C123.732 55.3516 121.928 54.4551 120.545 52.6621C119.174 50.8691 118.488 48.4258 118.488 45.332ZM121.758 45.7012C121.758 47.8457 122.197 49.5332 123.076 50.7637C123.955 51.9824 125.186 52.5918 126.768 52.5918C128.818 52.5918 130.324 51.6602 131.285 49.7969V41.1133C130.289 39.2969 128.795 38.3887 126.803 38.3887C125.221 38.3887 123.984 39.0039 123.094 40.2344C122.203 41.4648 121.758 43.2871 121.758 45.7012ZM147.369 55.3516C144.791 55.3516 142.693 54.5078 141.076 52.8203C139.459 51.1211 138.65 48.8535 138.65 46.0176V45.4199C138.65 43.5332 139.008 41.8516 139.723 40.375C140.449 38.8867 141.457 37.7266 142.746 36.8945C144.047 36.0508 145.453 35.6289 146.965 35.6289C149.438 35.6289 151.359 36.4434 152.73 38.0723C154.102 39.7012 154.787 42.0332 154.787 45.0684V46.4219H141.902C141.949 48.2969 142.494 49.8145 143.537 50.9746C144.592 52.123 145.928 52.6973 147.545 52.6973C148.693 52.6973 149.666 52.4629 150.463 51.9941C151.26 51.5254 151.957 50.9043 152.555 50.1309L154.541 51.6777C152.947 54.127 150.557 55.3516 147.369 55.3516ZM146.965 38.3008C145.652 38.3008 144.551 38.7812 143.66 39.7422C142.77 40.6914 142.219 42.0273 142.008 43.75H151.535V43.5039C151.441 41.8516 150.996 40.5742 150.199 39.6719C149.402 38.7578 148.324 38.3008 146.965 38.3008ZM161.643 35.9805L161.748 38.3711C163.201 36.543 165.1 35.6289 167.443 35.6289C171.463 35.6289 173.49 37.8965 173.525 42.4316V55H170.273V42.4141C170.262 41.043 169.945 40.0293 169.324 39.373C168.715 38.7168 167.76 38.3887 166.459 38.3887C165.404 38.3887 164.479 38.6699 163.682 39.2324C162.885 39.7949 162.264 40.5332 161.818 41.4473V55H158.566V35.9805H161.643ZM182.842 31.375V35.9805H186.393V38.4941H182.842V50.2891C182.842 51.0508 183 51.625 183.316 52.0117C183.633 52.3867 184.172 52.5742 184.934 52.5742C185.309 52.5742 185.824 52.5039 186.48 52.3633V55C185.625 55.2344 184.793 55.3516 183.984 55.3516C182.531 55.3516 181.436 54.9121 180.697 54.0332C179.959 53.1543 179.59 51.9062 179.59 50.2891V38.4941H176.127V35.9805H179.59V31.375H182.842ZM199.646 55V29.4062H206.871C209.098 29.4062 211.066 29.8984 212.777 30.8828C214.488 31.8672 215.807 33.2676 216.732 35.084C217.67 36.9004 218.145 38.9863 218.156 41.3418V42.9766C218.156 45.3906 217.688 47.5059 216.75 49.3223C215.824 51.1387 214.494 52.5332 212.76 53.5059C211.037 54.4785 209.027 54.9766 206.73 55H199.646ZM203.021 32.1836V52.2402H206.572C209.174 52.2402 211.195 51.4316 212.637 49.8145C214.09 48.1973 214.816 45.8945 214.816 42.9062V41.4121C214.816 38.5059 214.131 36.25 212.76 34.6445C211.4 33.0273 209.467 32.207 206.959 32.1836H203.021ZM242.941 55H239.549L226.664 35.2773V55H223.271V29.4062H226.664L239.584 49.2168V29.4062H242.941V55ZM256.477 43.5918C253.582 42.7598 251.473 41.7402 250.148 40.5332C248.836 39.3145 248.18 37.8145 248.18 36.0332C248.18 34.0176 248.982 32.3535 250.588 31.041C252.205 29.7168 254.303 29.0547 256.881 29.0547C258.639 29.0547 260.203 29.3945 261.574 30.0742C262.957 30.7539 264.023 31.6914 264.773 32.8867C265.535 34.082 265.916 35.3887 265.916 36.8066H262.523C262.523 35.2598 262.031 34.0469 261.047 33.168C260.062 32.2773 258.674 31.832 256.881 31.832C255.217 31.832 253.916 32.2012 252.979 32.9395C252.053 33.666 251.59 34.6797 251.59 35.9805C251.59 37.0234 252.029 37.9082 252.908 38.6348C253.799 39.3496 255.305 40.0059 257.426 40.6035C259.559 41.2012 261.223 41.8633 262.418 42.5898C263.625 43.3047 264.516 44.1426 265.09 45.1035C265.676 46.0645 265.969 47.1953 265.969 48.4961C265.969 50.5703 265.16 52.2344 263.543 53.4883C261.926 54.7305 259.764 55.3516 257.057 55.3516C255.299 55.3516 253.658 55.0176 252.135 54.3496C250.611 53.6699 249.434 52.7441 248.602 51.5723C247.781 50.4004 247.371 49.0703 247.371 47.582H250.764C250.764 49.1289 251.332 50.3535 252.469 51.2559C253.617 52.1465 255.146 52.5918 257.057 52.5918C258.838 52.5918 260.203 52.2285 261.152 51.502C262.102 50.7754 262.576 49.7852 262.576 48.5312C262.576 47.2773 262.137 46.3105 261.258 45.6309C260.379 44.9395 258.785 44.2598 256.477 43.5918Z" fill="#646464"/>
<path fill-rule="evenodd" clip-rule="evenodd" d="M421 26C421 23.7909 422.791 22 425 22H538C540.209 22 542 23.7909 542 26V58C542 60.2091 540.209 62 538 62H425C422.791 62 421 60.2091 421 58V26Z" fill="#F3652B"/>
<path d="M457.991 43.9683H454.136L453.329 46.2856H451.531L455.291 36.3325H456.843L460.609 46.2856H458.805L457.991 43.9683ZM454.621 42.5737H457.506L456.063 38.4448L454.621 42.5737ZM461.272 42.5327C461.272 41.3934 461.537 40.4797 462.065 39.7915C462.594 39.0988 463.303 38.7524 464.191 38.7524C464.975 38.7524 465.609 39.0259 466.092 39.5728V35.7856H467.753V46.2856H466.249L466.167 45.52C465.67 46.1216 465.007 46.4224 464.178 46.4224C463.312 46.4224 462.61 46.0737 462.072 45.3765C461.539 44.6792 461.272 43.7313 461.272 42.5327ZM462.934 42.6763C462.934 43.4282 463.077 44.0161 463.364 44.4399C463.656 44.8592 464.068 45.0688 464.602 45.0688C465.281 45.0688 465.777 44.7658 466.092 44.1597V41.0015C465.786 40.409 465.294 40.1128 464.615 40.1128C464.077 40.1128 463.663 40.327 463.371 40.7554C463.079 41.1792 462.934 41.8195 462.934 42.6763ZM469.175 42.5327C469.175 41.3934 469.439 40.4797 469.968 39.7915C470.496 39.0988 471.205 38.7524 472.094 38.7524C472.878 38.7524 473.511 39.0259 473.994 39.5728V35.7856H475.655V46.2856H474.151L474.069 45.52C473.573 46.1216 472.91 46.4224 472.08 46.4224C471.214 46.4224 470.512 46.0737 469.975 45.3765C469.441 44.6792 469.175 43.7313 469.175 42.5327ZM470.836 42.6763C470.836 43.4282 470.979 44.0161 471.267 44.4399C471.558 44.8592 471.971 45.0688 472.504 45.0688C473.183 45.0688 473.68 44.7658 473.994 44.1597V41.0015C473.689 40.409 473.197 40.1128 472.518 40.1128C471.98 40.1128 471.565 40.327 471.273 40.7554C470.982 41.1792 470.836 41.8195 470.836 42.6763ZM482.662 44.9048H487.98V46.2856H480.57V45.1646L485.718 37.7271H480.604V36.3325H487.816V37.4263L482.662 44.9048ZM488.849 42.519C488.849 41.7944 488.992 41.1427 489.279 40.564C489.566 39.9806 489.97 39.534 490.489 39.2241C491.009 38.9097 491.606 38.7524 492.28 38.7524C493.278 38.7524 494.087 39.0737 494.707 39.7163C495.331 40.3589 495.669 41.2111 495.719 42.2729L495.726 42.6626C495.726 43.3918 495.584 44.0435 495.302 44.6177C495.024 45.1919 494.623 45.6362 494.099 45.9507C493.579 46.2651 492.978 46.4224 492.294 46.4224C491.25 46.4224 490.414 46.076 489.785 45.3833C489.161 44.686 488.849 43.7586 488.849 42.6011V42.519ZM490.51 42.6626C490.51 43.4237 490.667 44.0207 490.981 44.4536C491.296 44.882 491.733 45.0962 492.294 45.0962C492.854 45.0962 493.29 44.8774 493.6 44.4399C493.914 44.0024 494.071 43.3621 494.071 42.519C494.071 41.7716 493.91 41.1792 493.586 40.7417C493.267 40.3042 492.832 40.0854 492.28 40.0854C491.738 40.0854 491.307 40.3019 490.988 40.7349C490.669 41.1632 490.51 41.8058 490.51 42.6626ZM498.672 38.8892L498.72 39.7437C499.267 39.0828 499.984 38.7524 500.873 38.7524C502.413 38.7524 503.197 39.6343 503.225 41.3979V46.2856H501.563V41.4937C501.563 41.0243 501.461 40.6779 501.256 40.4546C501.055 40.2267 500.725 40.1128 500.265 40.1128C499.595 40.1128 499.096 40.4159 498.768 41.022V46.2856H497.106V38.8892H498.672ZM508.181 46.4224C507.128 46.4224 506.273 46.092 505.617 45.4312C504.965 44.7658 504.64 43.8817 504.64 42.7788V42.5737C504.64 41.8354 504.781 41.1769 505.063 40.5981C505.351 40.0148 505.752 39.5614 506.267 39.2378C506.782 38.9142 507.356 38.7524 507.989 38.7524C508.996 38.7524 509.773 39.0737 510.32 39.7163C510.872 40.3589 511.147 41.2681 511.147 42.4438V43.1138H506.314C506.365 43.7244 506.567 44.2075 506.923 44.563C507.283 44.9185 507.734 45.0962 508.276 45.0962C509.037 45.0962 509.657 44.7886 510.136 44.1733L511.031 45.0278C510.735 45.4699 510.339 45.814 509.842 46.0601C509.35 46.3016 508.796 46.4224 508.181 46.4224ZM507.982 40.0854C507.527 40.0854 507.158 40.245 506.875 40.564C506.597 40.883 506.419 41.3273 506.342 41.897H509.507V41.7739C509.47 41.2179 509.322 40.7987 509.062 40.5161C508.803 40.229 508.443 40.0854 507.982 40.0854Z" fill="white"/>
<rect x="30" y="214" width="510" height="1" fill="#F3652B"/>
<rect x="30" y="464" width="510" height="1" fill="#F3652B"/>
<path d="M44.2664 192.85H50.3674V194H42.6038V192.945L48.4485 184.493H42.699V183.336H50.1331V184.369L44.2664 192.85ZM51.4587 189.964C51.4587 189.188 51.6101 188.49 51.9128 187.87C52.2205 187.25 52.6453 186.771 53.1873 186.434C53.7341 186.097 54.3567 185.929 55.0549 185.929C56.134 185.929 57.0056 186.302 57.6697 187.049C58.3386 187.796 58.6731 188.79 58.6731 190.03V190.125C58.6731 190.897 58.5242 191.59 58.2263 192.206C57.9333 192.816 57.511 193.292 56.9592 193.634C56.4124 193.976 55.7825 194.146 55.0696 194.146C53.9954 194.146 53.1238 193.773 52.4548 193.026C51.7908 192.279 51.4587 191.29 51.4587 190.06V189.964ZM52.821 190.125C52.821 191.004 53.0237 191.71 53.429 192.242C53.8391 192.774 54.386 193.041 55.0696 193.041C55.7581 193.041 56.3049 192.772 56.7102 192.235C57.1155 191.693 57.3181 190.936 57.3181 189.964C57.3181 189.095 57.1106 188.392 56.6956 187.855C56.2854 187.313 55.7385 187.042 55.0549 187.042C54.386 187.042 53.8464 187.308 53.4363 187.84C53.0261 188.373 52.821 189.134 52.821 190.125ZM61.6541 186.075L61.698 187.071C62.3035 186.31 63.0945 185.929 64.071 185.929C65.7458 185.929 66.5906 186.874 66.6052 188.763V194H65.2502V188.756C65.2454 188.185 65.1135 187.762 64.8547 187.489C64.6008 187.215 64.2029 187.079 63.6609 187.079C63.2214 187.079 62.8357 187.196 62.5037 187.43C62.1716 187.665 61.9128 187.972 61.7273 188.353V194H60.3723V186.075H61.6541ZM71.9373 194.146C70.863 194.146 69.989 193.795 69.3152 193.092C68.6414 192.384 68.3044 191.439 68.3044 190.257V190.008C68.3044 189.222 68.4534 188.521 68.7512 187.906C69.054 187.286 69.4739 186.803 70.011 186.456C70.553 186.104 71.1389 185.929 71.7688 185.929C72.7991 185.929 73.5999 186.268 74.1711 186.947C74.7424 187.625 75.0281 188.597 75.0281 189.862V190.426H69.6594C69.679 191.207 69.906 191.839 70.3406 192.323C70.78 192.801 71.3367 193.041 72.0105 193.041C72.489 193.041 72.8943 192.943 73.2263 192.748C73.5583 192.552 73.8489 192.293 74.0979 191.971L74.9255 192.616C74.2615 193.636 73.2654 194.146 71.9373 194.146ZM71.7688 187.042C71.2219 187.042 70.7629 187.242 70.3918 187.643C70.0208 188.038 69.7913 188.595 69.7034 189.312H73.6731V189.21C73.634 188.521 73.4485 187.989 73.1165 187.613C72.7844 187.232 72.3352 187.042 71.7688 187.042ZM81.6052 186.075L81.6492 187.071C82.2546 186.31 83.0457 185.929 84.0222 185.929C85.697 185.929 86.5417 186.874 86.5564 188.763V194H85.2014V188.756C85.1965 188.185 85.0647 187.762 84.8059 187.489C84.552 187.215 84.1541 187.079 83.6121 187.079C83.1726 187.079 82.7869 187.196 82.4548 187.43C82.1228 187.665 81.864 187.972 81.6785 188.353V194H80.3235V186.075H81.6052ZM93.4924 194C93.4143 193.844 93.3508 193.565 93.302 193.165C92.6721 193.819 91.9202 194.146 91.0461 194.146C90.2649 194.146 89.6228 193.927 89.1199 193.487C88.6218 193.043 88.3728 192.481 88.3728 191.803C88.3728 190.978 88.6853 190.338 89.3103 189.884C89.9402 189.425 90.824 189.195 91.9617 189.195H93.28V188.573C93.28 188.099 93.1384 187.723 92.8552 187.445C92.572 187.162 92.1545 187.02 91.6028 187.02C91.1194 187.02 90.7141 187.142 90.387 187.386C90.0598 187.63 89.8962 187.926 89.8962 188.272H88.5339C88.5339 187.877 88.6731 187.496 88.9514 187.13C89.2346 186.759 89.6155 186.466 90.094 186.251C90.5774 186.036 91.1072 185.929 91.6833 185.929C92.5964 185.929 93.3118 186.158 93.8293 186.617C94.3469 187.071 94.6155 187.699 94.635 188.5V192.147C94.635 192.875 94.7278 193.453 94.9133 193.883V194H93.4924ZM91.2439 192.967C91.6687 192.967 92.0715 192.857 92.4524 192.638C92.8333 192.418 93.1091 192.132 93.28 191.781V190.155H92.218C90.5579 190.155 89.7278 190.641 89.7278 191.612C89.7278 192.037 89.8694 192.369 90.1526 192.608C90.4358 192.848 90.7996 192.967 91.2439 192.967ZM98.0334 186.075L98.0701 186.954C98.6511 186.271 99.4348 185.929 100.421 185.929C101.53 185.929 102.284 186.354 102.684 187.203C102.948 186.822 103.29 186.515 103.71 186.28C104.135 186.046 104.635 185.929 105.211 185.929C106.949 185.929 107.833 186.849 107.863 188.69V194H106.508V188.771C106.508 188.204 106.378 187.782 106.119 187.503C105.861 187.22 105.426 187.079 104.816 187.079C104.313 187.079 103.895 187.23 103.563 187.533C103.231 187.831 103.038 188.233 102.985 188.741V194H101.622V188.807C101.622 187.655 101.058 187.079 99.9304 187.079C99.0417 187.079 98.4338 187.457 98.1067 188.214V194H96.7517V186.075H98.0334ZM113.202 194.146C112.128 194.146 111.254 193.795 110.58 193.092C109.906 192.384 109.569 191.439 109.569 190.257V190.008C109.569 189.222 109.718 188.521 110.016 187.906C110.319 187.286 110.739 186.803 111.276 186.456C111.818 186.104 112.404 185.929 113.033 185.929C114.064 185.929 114.865 186.268 115.436 186.947C116.007 187.625 116.293 188.597 116.293 189.862V190.426H110.924C110.944 191.207 111.171 191.839 111.605 192.323C112.045 192.801 112.601 193.041 113.275 193.041C113.754 193.041 114.159 192.943 114.491 192.748C114.823 192.552 115.114 192.293 115.363 191.971L116.19 192.616C115.526 193.636 114.53 194.146 113.202 194.146ZM113.033 187.042C112.487 187.042 112.028 187.242 111.656 187.643C111.285 188.038 111.056 188.595 110.968 189.312H114.938V189.21C114.899 188.521 114.713 187.989 114.381 187.613C114.049 187.232 113.6 187.042 113.033 187.042Z" fill="#F3652B"/>
<path d="M44.2664 293.85H50.3674V295H42.6038V293.945L48.4485 285.493H42.699V284.336H50.1331V285.369L44.2664 293.85ZM51.4587 290.964C51.4587 290.188 51.6101 289.49 51.9128 288.87C52.2205 288.25 52.6453 287.771 53.1873 287.434C53.7341 287.097 54.3567 286.929 55.0549 286.929C56.134 286.929 57.0056 287.302 57.6697 288.049C58.3386 288.796 58.6731 289.79 58.6731 291.03V291.125C58.6731 291.897 58.5242 292.59 58.2263 293.206C57.9333 293.816 57.511 294.292 56.9592 294.634C56.4124 294.976 55.7825 295.146 55.0696 295.146C53.9954 295.146 53.1238 294.773 52.4548 294.026C51.7908 293.279 51.4587 292.29 51.4587 291.06V290.964ZM52.821 291.125C52.821 292.004 53.0237 292.71 53.429 293.242C53.8391 293.774 54.386 294.041 55.0696 294.041C55.7581 294.041 56.3049 293.772 56.7102 293.235C57.1155 292.693 57.3181 291.936 57.3181 290.964C57.3181 290.095 57.1106 289.392 56.6956 288.855C56.2854 288.313 55.7385 288.042 55.0549 288.042C54.386 288.042 53.8464 288.308 53.4363 288.84C53.0261 289.373 52.821 290.134 52.821 291.125ZM61.6541 287.075L61.698 288.071C62.3035 287.31 63.0945 286.929 64.071 286.929C65.7458 286.929 66.5906 287.874 66.6052 289.763V295H65.2502V289.756C65.2454 289.185 65.1135 288.762 64.8547 288.489C64.6008 288.215 64.2029 288.079 63.6609 288.079C63.2214 288.079 62.8357 288.196 62.5037 288.43C62.1716 288.665 61.9128 288.972 61.7273 289.353V295H60.3723V287.075H61.6541ZM71.9373 295.146C70.863 295.146 69.989 294.795 69.3152 294.092C68.6414 293.384 68.3044 292.439 68.3044 291.257V291.008C68.3044 290.222 68.4534 289.521 68.7512 288.906C69.054 288.286 69.4739 287.803 70.011 287.456C70.553 287.104 71.1389 286.929 71.7688 286.929C72.7991 286.929 73.5999 287.268 74.1711 287.947C74.7424 288.625 75.0281 289.597 75.0281 290.862V291.426H69.6594C69.679 292.207 69.906 292.839 70.3406 293.323C70.78 293.801 71.3367 294.041 72.0105 294.041C72.489 294.041 72.8943 293.943 73.2263 293.748C73.5583 293.552 73.8489 293.293 74.0979 292.971L74.9255 293.616C74.2615 294.636 73.2654 295.146 71.9373 295.146ZM71.7688 288.042C71.2219 288.042 70.7629 288.242 70.3918 288.643C70.0208 289.038 69.7913 289.595 69.7034 290.312H73.6731V290.21C73.634 289.521 73.4485 288.989 73.1165 288.613C72.7844 288.232 72.3352 288.042 71.7688 288.042ZM87.1716 295H80.1843V294.026L83.8757 289.924C84.4226 289.304 84.7986 288.801 85.0037 288.416C85.2136 288.025 85.3186 287.622 85.3186 287.207C85.3186 286.65 85.1501 286.194 84.8132 285.837C84.4763 285.481 84.0271 285.303 83.4656 285.303C82.7917 285.303 82.2668 285.496 81.8909 285.881C81.5198 286.262 81.3342 286.794 81.3342 287.478H79.9792C79.9792 286.497 80.2942 285.703 80.9241 285.098C81.5588 284.492 82.406 284.189 83.4656 284.189C84.4568 284.189 85.2405 284.451 85.8167 284.973C86.3928 285.491 86.6809 286.182 86.6809 287.046C86.6809 288.096 86.012 289.346 84.6741 290.796L81.8176 293.894H87.1716V295Z" fill="#646464"/>
<path d="M44.2664 343.85H50.3674V345H42.6038V343.945L48.4485 335.493H42.699V334.336H50.1331V335.369L44.2664 343.85ZM51.4587 340.964C51.4587 340.188 51.6101 339.49 51.9128 338.87C52.2205 338.25 52.6453 337.771 53.1873 337.434C53.7341 337.097 54.3567 336.929 55.0549 336.929C56.134 336.929 57.0056 337.302 57.6697 338.049C58.3386 338.796 58.6731 339.79 58.6731 341.03V341.125C58.6731 341.897 58.5242 342.59 58.2263 343.206C57.9333 343.816 57.511 344.292 56.9592 344.634C56.4124 344.976 55.7825 345.146 55.0696 345.146C53.9954 345.146 53.1238 344.773 52.4548 344.026C51.7908 343.279 51.4587 342.29 51.4587 341.06V340.964ZM52.821 341.125C52.821 342.004 53.0237 342.71 53.429 343.242C53.8391 343.774 54.386 344.041 55.0696 344.041C55.7581 344.041 56.3049 343.772 56.7102 343.235C57.1155 342.693 57.3181 341.936 57.3181 340.964C57.3181 340.095 57.1106 339.392 56.6956 338.855C56.2854 338.313 55.7385 338.042 55.0549 338.042C54.386 338.042 53.8464 338.308 53.4363 338.84C53.0261 339.373 52.821 340.134 52.821 341.125ZM61.6541 337.075L61.698 338.071C62.3035 337.31 63.0945 336.929 64.071 336.929C65.7458 336.929 66.5906 337.874 66.6052 339.763V345H65.2502V339.756C65.2454 339.185 65.1135 338.762 64.8547 338.489C64.6008 338.215 64.2029 338.079 63.6609 338.079C63.2214 338.079 62.8357 338.196 62.5037 338.43C62.1716 338.665 61.9128 338.972 61.7273 339.353V345H60.3723V337.075H61.6541ZM71.9373 345.146C70.863 345.146 69.989 344.795 69.3152 344.092C68.6414 343.384 68.3044 342.439 68.3044 341.257V341.008C68.3044 340.222 68.4534 339.521 68.7512 338.906C69.054 338.286 69.4739 337.803 70.011 337.456C70.553 337.104 71.1389 336.929 71.7688 336.929C72.7991 336.929 73.5999 337.268 74.1711 337.947C74.7424 338.625 75.0281 339.597 75.0281 340.862V341.426H69.6594C69.679 342.207 69.906 342.839 70.3406 343.323C70.78 343.801 71.3367 344.041 72.0105 344.041C72.489 344.041 72.8943 343.943 73.2263 343.748C73.5583 343.552 73.8489 343.293 74.0979 342.971L74.9255 343.616C74.2615 344.636 73.2654 345.146 71.9373 345.146ZM71.7688 338.042C71.2219 338.042 70.7629 338.242 70.3918 338.643C70.0208 339.038 69.7913 339.595 69.7034 340.312H73.6731V340.21C73.634 339.521 73.4485 338.989 73.1165 338.613C72.7844 338.232 72.3352 338.042 71.7688 338.042ZM82.1545 339.009H83.1726C83.8123 338.999 84.3152 338.831 84.6814 338.503C85.0476 338.176 85.2307 337.734 85.2307 337.178C85.2307 335.928 84.6082 335.303 83.363 335.303C82.7771 335.303 82.3083 335.471 81.9568 335.808C81.6101 336.14 81.4368 336.582 81.4368 337.134H80.0818C80.0818 336.289 80.3894 335.588 81.0046 335.032C81.6248 334.47 82.4109 334.189 83.363 334.189C84.3689 334.189 85.1575 334.456 85.7288 334.988C86.3 335.52 86.5857 336.26 86.5857 337.207C86.5857 337.671 86.4343 338.12 86.1316 338.555C85.8337 338.989 85.426 339.314 84.9084 339.529C85.4944 339.714 85.946 340.022 86.2634 340.452C86.5857 340.881 86.7468 341.406 86.7468 342.026C86.7468 342.983 86.4343 343.743 85.8093 344.304C85.1843 344.866 84.3713 345.146 83.3704 345.146C82.3694 345.146 81.554 344.875 80.9241 344.333C80.2991 343.792 79.9866 343.076 79.9866 342.188H81.3489C81.3489 342.749 81.532 343.198 81.8982 343.535C82.2644 343.872 82.7551 344.041 83.3704 344.041C84.0247 344.041 84.5251 343.87 84.8718 343.528C85.2185 343.186 85.3918 342.695 85.3918 342.056C85.3918 341.436 85.2014 340.959 84.8206 340.627C84.4397 340.295 83.8904 340.125 83.1726 340.115H82.1545V339.009Z" fill="#646464"/>
<path d="M44.2664 393.85H50.3674V395H42.6038V393.945L48.4485 385.493H42.699V384.336H50.1331V385.369L44.2664 393.85ZM51.4587 390.964C51.4587 390.188 51.6101 389.49 51.9128 388.87C52.2205 388.25 52.6453 387.771 53.1873 387.434C53.7341 387.097 54.3567 386.929 55.0549 386.929C56.134 386.929 57.0056 387.302 57.6697 388.049C58.3386 388.796 58.6731 389.79 58.6731 391.03V391.125C58.6731 391.897 58.5242 392.59 58.2263 393.206C57.9333 393.816 57.511 394.292 56.9592 394.634C56.4124 394.976 55.7825 395.146 55.0696 395.146C53.9954 395.146 53.1238 394.773 52.4548 394.026C51.7908 393.279 51.4587 392.29 51.4587 391.06V390.964ZM52.821 391.125C52.821 392.004 53.0237 392.71 53.429 393.242C53.8391 393.774 54.386 394.041 55.0696 394.041C55.7581 394.041 56.3049 393.772 56.7102 393.235C57.1155 392.693 57.3181 391.936 57.3181 390.964C57.3181 390.095 57.1106 389.392 56.6956 388.855C56.2854 388.313 55.7385 388.042 55.0549 388.042C54.386 388.042 53.8464 388.308 53.4363 388.84C53.0261 389.373 52.821 390.134 52.821 391.125ZM61.6541 387.075L61.698 388.071C62.3035 387.31 63.0945 386.929 64.071 386.929C65.7458 386.929 66.5906 387.874 66.6052 389.763V395H65.2502V389.756C65.2454 389.185 65.1135 388.762 64.8547 388.489C64.6008 388.215 64.2029 388.079 63.6609 388.079C63.2214 388.079 62.8357 388.196 62.5037 388.43C62.1716 388.665 61.9128 388.972 61.7273 389.353V395H60.3723V387.075H61.6541ZM71.9373 395.146C70.863 395.146 69.989 394.795 69.3152 394.092C68.6414 393.384 68.3044 392.439 68.3044 391.257V391.008C68.3044 390.222 68.4534 389.521 68.7512 388.906C69.054 388.286 69.4739 387.803 70.011 387.456C70.553 387.104 71.1389 386.929 71.7688 386.929C72.7991 386.929 73.5999 387.268 74.1711 387.947C74.7424 388.625 75.0281 389.597 75.0281 390.862V391.426H69.6594C69.679 392.207 69.906 392.839 70.3406 393.323C70.78 393.801 71.3367 394.041 72.0105 394.041C72.489 394.041 72.8943 393.943 73.2263 393.748C73.5583 393.552 73.8489 393.293 74.0979 392.971L74.9255 393.616C74.2615 394.636 73.2654 395.146 71.9373 395.146ZM71.7688 388.042C71.2219 388.042 70.7629 388.242 70.3918 388.643C70.0208 389.038 69.7913 389.595 69.7034 390.312H73.6731V390.21C73.634 389.521 73.4485 388.989 73.1165 388.613C72.7844 388.232 72.3352 388.042 71.7688 388.042ZM85.9045 391.418H87.384V392.524H85.9045V395H84.5422V392.524H79.6863V391.726L84.4617 384.336H85.9045V391.418ZM81.2244 391.418H84.5422V386.189L84.3811 386.482L81.2244 391.418Z" fill="#646464"/>
<path d="M44.2664 443.85H50.3674V445H42.6038V443.945L48.4485 435.493H42.699V434.336H50.1331V435.369L44.2664 443.85ZM51.4587 440.964C51.4587 440.188 51.6101 439.49 51.9128 438.87C52.2205 438.25 52.6453 437.771 53.1873 437.434C53.7341 437.097 54.3567 436.929 55.0549 436.929C56.134 436.929 57.0056 437.302 57.6697 438.049C58.3386 438.796 58.6731 439.79 58.6731 441.03V441.125C58.6731 441.897 58.5242 442.59 58.2263 443.206C57.9333 443.816 57.511 444.292 56.9592 444.634C56.4124 444.976 55.7825 445.146 55.0696 445.146C53.9954 445.146 53.1238 444.773 52.4548 444.026C51.7908 443.279 51.4587 442.29 51.4587 441.06V440.964ZM52.821 441.125C52.821 442.004 53.0237 442.71 53.429 443.242C53.8391 443.774 54.386 444.041 55.0696 444.041C55.7581 444.041 56.3049 443.772 56.7102 443.235C57.1155 442.693 57.3181 441.936 57.3181 440.964C57.3181 440.095 57.1106 439.392 56.6956 438.855C56.2854 438.313 55.7385 438.042 55.0549 438.042C54.386 438.042 53.8464 438.308 53.4363 438.84C53.0261 439.373 52.821 440.134 52.821 441.125ZM61.6541 437.075L61.698 438.071C62.3035 437.31 63.0945 436.929 64.071 436.929C65.7458 436.929 66.5906 437.874 66.6052 439.763V445H65.2502V439.756C65.2454 439.185 65.1135 438.762 64.8547 438.489C64.6008 438.215 64.2029 438.079 63.6609 438.079C63.2214 438.079 62.8357 438.196 62.5037 438.43C62.1716 438.665 61.9128 438.972 61.7273 439.353V445H60.3723V437.075H61.6541ZM71.9373 445.146C70.863 445.146 69.989 444.795 69.3152 444.092C68.6414 443.384 68.3044 442.439 68.3044 441.257V441.008C68.3044 440.222 68.4534 439.521 68.7512 438.906C69.054 438.286 69.4739 437.803 70.011 437.456C70.553 437.104 71.1389 436.929 71.7688 436.929C72.7991 436.929 73.5999 437.268 74.1711 437.947C74.7424 438.625 75.0281 439.597 75.0281 440.862V441.426H69.6594C69.679 442.207 69.906 442.839 70.3406 443.323C70.78 443.801 71.3367 444.041 72.0105 444.041C72.489 444.041 72.8943 443.943 73.2263 443.748C73.5583 443.552 73.8489 443.293 74.0979 442.971L74.9255 443.616C74.2615 444.636 73.2654 445.146 71.9373 445.146ZM71.7688 438.042C71.2219 438.042 70.7629 438.242 70.3918 438.643C70.0208 439.038 69.7913 439.595 69.7034 440.312H73.6731V440.21C73.634 439.521 73.4485 438.989 73.1165 438.613C72.7844 438.232 72.3352 438.042 71.7688 438.042ZM80.8069 439.653L81.3489 434.336H86.8127V435.588H82.4988L82.1765 438.496C82.699 438.188 83.2922 438.035 83.9563 438.035C84.928 438.035 85.6995 438.357 86.2708 439.001C86.842 439.641 87.1277 440.508 87.1277 441.602C87.1277 442.7 86.8298 443.567 86.2341 444.202C85.6433 444.832 84.8157 445.146 83.7512 445.146C82.8088 445.146 82.0398 444.885 81.4441 444.363C80.8484 443.84 80.509 443.118 80.426 442.195H81.7078C81.7908 442.805 82.0081 443.267 82.3596 443.579C82.7112 443.887 83.175 444.041 83.7512 444.041C84.3811 444.041 84.8743 443.826 85.2307 443.396C85.592 442.966 85.7727 442.373 85.7727 441.616C85.7727 440.903 85.5774 440.332 85.1868 439.902C84.801 439.468 84.2859 439.25 83.6414 439.25C83.0505 439.25 82.5867 439.38 82.2498 439.639L81.8909 439.932L80.8069 439.653Z" fill="#646464"/>
<path d="M464.126 191.217H459.659L458.655 194H457.205L461.277 183.336H462.508L466.587 194H465.145L464.126 191.217ZM460.083 190.06H463.709L461.893 185.072L460.083 190.06ZM470.989 193.041C471.473 193.041 471.895 192.894 472.256 192.601C472.618 192.308 472.818 191.942 472.857 191.502H474.139C474.114 191.957 473.958 192.389 473.67 192.799C473.382 193.209 472.996 193.536 472.513 193.78C472.034 194.024 471.526 194.146 470.989 194.146C469.91 194.146 469.051 193.788 468.411 193.07C467.776 192.347 467.459 191.361 467.459 190.111V189.884C467.459 189.112 467.601 188.426 467.884 187.826C468.167 187.225 468.572 186.759 469.1 186.427C469.632 186.095 470.259 185.929 470.982 185.929C471.871 185.929 472.608 186.195 473.194 186.727C473.785 187.259 474.1 187.95 474.139 188.8H472.857C472.818 188.287 472.623 187.867 472.271 187.54C471.924 187.208 471.495 187.042 470.982 187.042C470.293 187.042 469.759 187.291 469.378 187.789C469.002 188.282 468.814 188.998 468.814 189.935V190.191C468.814 191.104 469.002 191.808 469.378 192.301C469.754 192.794 470.291 193.041 470.989 193.041ZM477.5 184.156V186.075H478.98V187.123H477.5V192.037C477.5 192.354 477.566 192.594 477.698 192.755C477.83 192.911 478.055 192.989 478.372 192.989C478.528 192.989 478.743 192.96 479.017 192.901V194C478.66 194.098 478.313 194.146 477.977 194.146C477.371 194.146 476.915 193.963 476.607 193.597C476.299 193.231 476.146 192.711 476.146 192.037V187.123H474.703V186.075H476.146V184.156H477.5ZM482.042 194H480.687V186.075H482.042V194ZM480.577 183.973C480.577 183.753 480.643 183.568 480.774 183.417C480.911 183.265 481.111 183.189 481.375 183.189C481.639 183.189 481.839 183.265 481.976 183.417C482.112 183.568 482.181 183.753 482.181 183.973C482.181 184.193 482.112 184.376 481.976 184.522C481.839 184.669 481.639 184.742 481.375 184.742C481.111 184.742 480.911 184.669 480.774 184.522C480.643 184.376 480.577 184.193 480.577 183.973ZM486.832 192.162L488.794 186.075H490.179L487.337 194H486.304L483.433 186.075H484.817L486.832 192.162ZM494.668 194.146C493.594 194.146 492.72 193.795 492.046 193.092C491.373 192.384 491.036 191.439 491.036 190.257V190.008C491.036 189.222 491.185 188.521 491.482 187.906C491.785 187.286 492.205 186.803 492.742 186.456C493.284 186.104 493.87 185.929 494.5 185.929C495.53 185.929 496.331 186.268 496.902 186.947C497.474 187.625 497.759 188.597 497.759 189.862V190.426H492.391C492.41 191.207 492.637 191.839 493.072 192.323C493.511 192.801 494.068 193.041 494.742 193.041C495.22 193.041 495.625 192.943 495.958 192.748C496.29 192.552 496.58 192.293 496.829 191.971L497.657 192.616C496.993 193.636 495.997 194.146 494.668 194.146ZM494.5 187.042C493.953 187.042 493.494 187.242 493.123 187.643C492.752 188.038 492.522 188.595 492.435 189.312H496.404V189.21C496.365 188.521 496.18 187.989 495.848 187.613C495.516 187.232 495.066 187.042 494.5 187.042Z" fill="#F3652B"/>
<path d="M462.487 289.69L465.271 284.336H466.867L463.19 291.023V295H461.784V291.023L458.107 284.336H459.719L462.487 289.69ZM470.837 295.146C469.763 295.146 468.889 294.795 468.215 294.092C467.541 293.384 467.204 292.439 467.204 291.257V291.008C467.204 290.222 467.353 289.521 467.651 288.906C467.954 288.286 468.374 287.803 468.911 287.456C469.453 287.104 470.039 286.929 470.668 286.929C471.699 286.929 472.5 287.268 473.071 287.947C473.642 288.625 473.928 289.597 473.928 290.862V291.426H468.559C468.579 292.207 468.806 292.839 469.24 293.323C469.68 293.801 470.236 294.041 470.91 294.041C471.389 294.041 471.794 293.943 472.126 293.748C472.458 293.552 472.749 293.293 472.998 292.971L473.825 293.616C473.161 294.636 472.165 295.146 470.837 295.146ZM470.668 288.042C470.122 288.042 469.663 288.242 469.292 288.643C468.92 289.038 468.691 289.595 468.603 290.312H472.573V290.21C472.534 289.521 472.348 288.989 472.016 288.613C471.684 288.232 471.235 288.042 470.668 288.042ZM480.117 292.898C480.117 292.532 479.978 292.249 479.699 292.048C479.426 291.843 478.945 291.667 478.256 291.521C477.573 291.375 477.028 291.199 476.623 290.994C476.223 290.789 475.925 290.544 475.729 290.261C475.539 289.978 475.444 289.641 475.444 289.25C475.444 288.601 475.717 288.052 476.264 287.603C476.816 287.153 477.519 286.929 478.374 286.929C479.272 286.929 480 287.161 480.556 287.625C481.118 288.088 481.398 288.682 481.398 289.404H480.036C480.036 289.033 479.877 288.713 479.56 288.445C479.248 288.176 478.852 288.042 478.374 288.042C477.88 288.042 477.495 288.149 477.216 288.364C476.938 288.579 476.799 288.86 476.799 289.207C476.799 289.534 476.928 289.78 477.187 289.946C477.446 290.112 477.912 290.271 478.586 290.422C479.265 290.574 479.814 290.754 480.234 290.964C480.654 291.174 480.964 291.428 481.164 291.726C481.369 292.019 481.472 292.378 481.472 292.803C481.472 293.511 481.188 294.08 480.622 294.509C480.056 294.934 479.321 295.146 478.417 295.146C477.783 295.146 477.221 295.034 476.733 294.81C476.245 294.585 475.861 294.272 475.583 293.872C475.31 293.467 475.173 293.03 475.173 292.561H476.528C476.552 293.015 476.733 293.376 477.07 293.645C477.412 293.909 477.861 294.041 478.417 294.041C478.93 294.041 479.34 293.938 479.648 293.733C479.96 293.523 480.117 293.245 480.117 292.898Z" fill="#646464"/>
<path d="M462.487 339.69L465.271 334.336H466.867L463.19 341.023V345H461.784V341.023L458.107 334.336H459.719L462.487 339.69ZM470.837 345.146C469.763 345.146 468.889 344.795 468.215 344.092C467.541 343.384 467.204 342.439 467.204 341.257V341.008C467.204 340.222 467.353 339.521 467.651 338.906C467.954 338.286 468.374 337.803 468.911 337.456C469.453 337.104 470.039 336.929 470.668 336.929C471.699 336.929 472.5 337.268 473.071 337.947C473.642 338.625 473.928 339.597 473.928 340.862V341.426H468.559C468.579 342.207 468.806 342.839 469.24 343.323C469.68 343.801 470.236 344.041 470.91 344.041C471.389 344.041 471.794 343.943 472.126 343.748C472.458 343.552 472.749 343.293 472.998 342.971L473.825 343.616C473.161 344.636 472.165 345.146 470.837 345.146ZM470.668 338.042C470.122 338.042 469.663 338.242 469.292 338.643C468.92 339.038 468.691 339.595 468.603 340.312H472.573V340.21C472.534 339.521 472.348 338.989 472.016 338.613C471.684 338.232 471.235 338.042 470.668 338.042ZM480.117 342.898C480.117 342.532 479.978 342.249 479.699 342.048C479.426 341.843 478.945 341.667 478.256 341.521C477.573 341.375 477.028 341.199 476.623 340.994C476.223 340.789 475.925 340.544 475.729 340.261C475.539 339.978 475.444 339.641 475.444 339.25C475.444 338.601 475.717 338.052 476.264 337.603C476.816 337.153 477.519 336.929 478.374 336.929C479.272 336.929 480 337.161 480.556 337.625C481.118 338.088 481.398 338.682 481.398 339.404H480.036C480.036 339.033 479.877 338.713 479.56 338.445C479.248 338.176 478.852 338.042 478.374 338.042C477.88 338.042 477.495 338.149 477.216 338.364C476.938 338.579 476.799 338.86 476.799 339.207C476.799 339.534 476.928 339.78 477.187 339.946C477.446 340.112 477.912 340.271 478.586 340.422C479.265 340.574 479.814 340.754 480.234 340.964C480.654 341.174 480.964 341.428 481.164 341.726C481.369 342.019 481.472 342.378 481.472 342.803C481.472 343.511 481.188 344.08 480.622 344.509C480.056 344.934 479.321 345.146 478.417 345.146C477.783 345.146 477.221 345.034 476.733 344.81C476.245 344.585 475.861 344.272 475.583 343.872C475.31 343.467 475.173 343.03 475.173 342.561H476.528C476.552 343.015 476.733 343.376 477.07 343.645C477.412 343.909 477.861 344.041 478.417 344.041C478.93 344.041 479.34 343.938 479.648 343.733C479.96 343.523 480.117 343.245 480.117 342.898Z" fill="#646464"/>
<path d="M462.487 389.69L465.271 384.336H466.867L463.19 391.023V395H461.784V391.023L458.107 384.336H459.719L462.487 389.69ZM470.837 395.146C469.763 395.146 468.889 394.795 468.215 394.092C467.541 393.384 467.204 392.439 467.204 391.257V391.008C467.204 390.222 467.353 389.521 467.651 388.906C467.954 388.286 468.374 387.803 468.911 387.456C469.453 387.104 470.039 386.929 470.668 386.929C471.699 386.929 472.5 387.268 473.071 387.947C473.642 388.625 473.928 389.597 473.928 390.862V391.426H468.559C468.579 392.207 468.806 392.839 469.24 393.323C469.68 393.801 470.236 394.041 470.91 394.041C471.389 394.041 471.794 393.943 472.126 393.748C472.458 393.552 472.749 393.293 472.998 392.971L473.825 393.616C473.161 394.636 472.165 395.146 470.837 395.146ZM470.668 388.042C470.122 388.042 469.663 388.242 469.292 388.643C468.92 389.038 468.691 389.595 468.603 390.312H472.573V390.21C472.534 389.521 472.348 388.989 472.016 388.613C471.684 388.232 471.235 388.042 470.668 388.042ZM480.117 392.898C480.117 392.532 479.978 392.249 479.699 392.048C479.426 391.843 478.945 391.667 478.256 391.521C477.573 391.375 477.028 391.199 476.623 390.994C476.223 390.789 475.925 390.544 475.729 390.261C475.539 389.978 475.444 389.641 475.444 389.25C475.444 388.601 475.717 388.052 476.264 387.603C476.816 387.153 477.519 386.929 478.374 386.929C479.272 386.929 480 387.161 480.556 387.625C481.118 388.088 481.398 388.682 481.398 389.404H480.036C480.036 389.033 479.877 388.713 479.56 388.445C479.248 388.176 478.852 388.042 478.374 388.042C477.88 388.042 477.495 388.149 477.216 388.364C476.938 388.579 476.799 388.86 476.799 389.207C476.799 389.534 476.928 389.78 477.187 389.946C477.446 390.112 477.912 390.271 478.586 390.422C479.265 390.574 479.814 390.754 480.234 390.964C480.654 391.174 480.964 391.428 481.164 391.726C481.369 392.019 481.472 392.378 481.472 392.803C481.472 393.511 481.188 394.08 480.622 394.509C480.056 394.934 479.321 395.146 478.417 395.146C477.783 395.146 477.221 395.034 476.733 394.81C476.245 394.585 475.861 394.272 475.583 393.872C475.31 393.467 475.173 393.03 475.173 392.561H476.528C476.552 393.015 476.733 393.376 477.07 393.645C477.412 393.909 477.861 394.041 478.417 394.041C478.93 394.041 479.34 393.938 479.648 393.733C479.96 393.523 480.117 393.245 480.117 392.898Z" fill="#646464"/>
<path d="M462.487 439.69L465.271 434.336H466.867L463.19 441.023V445H461.784V441.023L458.107 434.336H459.719L462.487 439.69ZM470.837 445.146C469.763 445.146 468.889 444.795 468.215 444.092C467.541 443.384 467.204 442.439 467.204 441.257V441.008C467.204 440.222 467.353 439.521 467.651 438.906C467.954 438.286 468.374 437.803 468.911 437.456C469.453 437.104 470.039 436.929 470.668 436.929C471.699 436.929 472.5 437.268 473.071 437.947C473.642 438.625 473.928 439.597 473.928 440.862V441.426H468.559C468.579 442.207 468.806 442.839 469.24 443.323C469.68 443.801 470.236 444.041 470.91 444.041C471.389 444.041 471.794 443.943 472.126 443.748C472.458 443.552 472.749 443.293 472.998 442.971L473.825 443.616C473.161 444.636 472.165 445.146 470.837 445.146ZM470.668 438.042C470.122 438.042 469.663 438.242 469.292 438.643C468.92 439.038 468.691 439.595 468.603 440.312H472.573V440.21C472.534 439.521 472.348 438.989 472.016 438.613C471.684 438.232 471.235 438.042 470.668 438.042ZM480.117 442.898C480.117 442.532 479.978 442.249 479.699 442.048C479.426 441.843 478.945 441.667 478.256 441.521C477.573 441.375 477.028 441.199 476.623 440.994C476.223 440.789 475.925 440.544 475.729 440.261C475.539 439.978 475.444 439.641 475.444 439.25C475.444 438.601 475.717 438.052 476.264 437.603C476.816 437.153 477.519 436.929 478.374 436.929C479.272 436.929 480 437.161 480.556 437.625C481.118 438.088 481.398 438.682 481.398 439.404H480.036C480.036 439.033 479.877 438.713 479.56 438.445C479.248 438.176 478.852 438.042 478.374 438.042C477.88 438.042 477.495 438.149 477.216 438.364C476.938 438.579 476.799 438.86 476.799 439.207C476.799 439.534 476.928 439.78 477.187 439.946C477.446 440.112 477.912 440.271 478.586 440.422C479.265 440.574 479.814 440.754 480.234 440.964C480.654 441.174 480.964 441.428 481.164 441.726C481.369 442.019 481.472 442.378 481.472 442.803C481.472 443.511 481.188 444.08 480.622 444.509C480.056 444.934 479.321 445.146 478.417 445.146C477.783 445.146 477.221 445.034 476.733 444.81C476.245 444.585 475.861 444.272 475.583 443.872C475.31 443.467 475.173 443.03 475.173 442.561H476.528C476.552 443.015 476.733 443.376 477.07 443.645C477.412 443.909 477.861 444.041 478.417 444.041C478.93 444.041 479.34 443.938 479.648 443.733C479.96 443.523 480.117 443.245 480.117 442.898Z" fill="#646464"/>
<path d="M260.235 194V183.336H263.246C264.173 183.336 264.994 183.541 265.707 183.951C266.419 184.361 266.969 184.945 267.354 185.702C267.745 186.458 267.943 187.328 267.948 188.309V188.99C267.948 189.996 267.752 190.877 267.362 191.634C266.976 192.391 266.422 192.972 265.699 193.377C264.981 193.783 264.144 193.99 263.187 194H260.235ZM261.642 184.493V192.85H263.121C264.205 192.85 265.047 192.513 265.648 191.839C266.253 191.166 266.556 190.206 266.556 188.961V188.338C266.556 187.127 266.271 186.188 265.699 185.519C265.133 184.845 264.327 184.503 263.282 184.493H261.642ZM269.508 189.964C269.508 189.188 269.659 188.49 269.962 187.87C270.27 187.25 270.694 186.771 271.236 186.434C271.783 186.097 272.406 185.929 273.104 185.929C274.183 185.929 275.055 186.302 275.719 187.049C276.388 187.796 276.722 188.79 276.722 190.03V190.125C276.722 190.897 276.573 191.59 276.275 192.206C275.982 192.816 275.56 193.292 275.008 193.634C274.461 193.976 273.832 194.146 273.119 194.146C272.044 194.146 271.173 193.773 270.504 193.026C269.84 192.279 269.508 191.29 269.508 190.06V189.964ZM270.87 190.125C270.87 191.004 271.073 191.71 271.478 192.242C271.888 192.774 272.435 193.041 273.119 193.041C273.807 193.041 274.354 192.772 274.759 192.235C275.165 191.693 275.367 190.936 275.367 189.964C275.367 189.095 275.16 188.392 274.745 187.855C274.334 187.313 273.788 187.042 273.104 187.042C272.435 187.042 271.896 187.308 271.485 187.84C271.075 188.373 270.87 189.134 270.87 190.125ZM279.696 186.075L279.732 186.954C280.313 186.271 281.097 185.929 282.083 185.929C283.192 185.929 283.946 186.354 284.347 187.203C284.61 186.822 284.952 186.515 285.372 186.28C285.797 186.046 286.297 185.929 286.874 185.929C288.612 185.929 289.496 186.849 289.525 188.69V194H288.17V188.771C288.17 188.204 288.041 187.782 287.782 187.503C287.523 187.22 287.088 187.079 286.478 187.079C285.975 187.079 285.558 187.23 285.226 187.533C284.894 187.831 284.701 188.233 284.647 188.741V194H283.285V188.807C283.285 187.655 282.721 187.079 281.593 187.079C280.704 187.079 280.096 187.457 279.769 188.214V194H278.414V186.075H279.696ZM296.468 194C296.39 193.844 296.327 193.565 296.278 193.165C295.648 193.819 294.896 194.146 294.022 194.146C293.241 194.146 292.599 193.927 292.096 193.487C291.598 193.043 291.349 192.481 291.349 191.803C291.349 190.978 291.661 190.338 292.286 189.884C292.916 189.425 293.8 189.195 294.938 189.195H296.256V188.573C296.256 188.099 296.114 187.723 295.831 187.445C295.548 187.162 295.13 187.02 294.579 187.02C294.095 187.02 293.69 187.142 293.363 187.386C293.036 187.63 292.872 187.926 292.872 188.272H291.51C291.51 187.877 291.649 187.496 291.927 187.13C292.21 186.759 292.591 186.466 293.07 186.251C293.553 186.036 294.083 185.929 294.659 185.929C295.572 185.929 296.288 186.158 296.805 186.617C297.323 187.071 297.591 187.699 297.611 188.5V192.147C297.611 192.875 297.704 193.453 297.889 193.883V194H296.468ZM294.22 192.967C294.645 192.967 295.047 192.857 295.428 192.638C295.809 192.418 296.085 192.132 296.256 191.781V190.155H295.194C293.534 190.155 292.704 190.641 292.704 191.612C292.704 192.037 292.845 192.369 293.128 192.608C293.412 192.848 293.775 192.967 294.22 192.967ZM301.207 194H299.852V186.075H301.207V194ZM299.742 183.973C299.742 183.753 299.808 183.568 299.94 183.417C300.077 183.265 300.277 183.189 300.541 183.189C300.804 183.189 301.004 183.265 301.141 183.417C301.278 183.568 301.346 183.753 301.346 183.973C301.346 184.193 301.278 184.376 301.141 184.522C301.004 184.669 300.804 184.742 300.541 184.742C300.277 184.742 300.077 184.669 299.94 184.522C299.808 184.376 299.742 184.193 299.742 183.973ZM304.664 186.075L304.708 187.071C305.313 186.31 306.104 185.929 307.081 185.929C308.756 185.929 309.601 186.874 309.615 188.763V194H308.26V188.756C308.255 188.185 308.124 187.762 307.865 187.489C307.611 187.215 307.213 187.079 306.671 187.079C306.231 187.079 305.846 187.196 305.514 187.43C305.182 187.665 304.923 187.972 304.737 188.353V194H303.382V186.075H304.664Z" fill="#F3652B"/>
<path d="M260.3 293.894H264.936V295H258.645V294.004L263.017 288.196H258.71V287.075H264.716V288.035L260.3 293.894ZM265.991 290.964C265.991 290.188 266.142 289.49 266.445 288.87C266.752 288.25 267.177 287.771 267.719 287.434C268.266 287.097 268.889 286.929 269.587 286.929C270.666 286.929 271.538 287.302 272.202 288.049C272.871 288.796 273.205 289.79 273.205 291.03V291.125C273.205 291.897 273.056 292.59 272.758 293.206C272.465 293.816 272.043 294.292 271.491 294.634C270.944 294.976 270.314 295.146 269.602 295.146C268.527 295.146 267.656 294.773 266.987 294.026C266.323 293.279 265.991 292.29 265.991 291.06V290.964ZM267.353 291.125C267.353 292.004 267.556 292.71 267.961 293.242C268.371 293.774 268.918 294.041 269.602 294.041C270.29 294.041 270.837 293.772 271.242 293.235C271.647 292.693 271.85 291.936 271.85 290.964C271.85 290.095 271.643 289.392 271.228 288.855C270.817 288.313 270.271 288.042 269.587 288.042C268.918 288.042 268.378 288.308 267.968 288.84C267.558 289.373 267.353 290.134 267.353 291.125ZM276.186 287.075L276.23 288.071C276.835 287.31 277.626 286.929 278.603 286.929C280.278 286.929 281.123 287.874 281.137 289.763V295H279.782V289.756C279.777 289.185 279.646 288.762 279.387 288.489C279.133 288.215 278.735 288.079 278.193 288.079C277.753 288.079 277.368 288.196 277.036 288.43C276.704 288.665 276.445 288.972 276.259 289.353V295H274.904V287.075H276.186ZM286.469 295.146C285.395 295.146 284.521 294.795 283.847 294.092C283.173 293.384 282.836 292.439 282.836 291.257V291.008C282.836 290.222 282.985 289.521 283.283 288.906C283.586 288.286 284.006 287.803 284.543 287.456C285.085 287.104 285.671 286.929 286.301 286.929C287.331 286.929 288.132 287.268 288.703 287.947C289.274 288.625 289.56 289.597 289.56 290.862V291.426H284.191C284.211 292.207 284.438 292.839 284.873 293.323C285.312 293.801 285.869 294.041 286.542 294.041C287.021 294.041 287.426 293.943 287.758 293.748C288.09 293.552 288.381 293.293 288.63 292.971L289.458 293.616C288.793 294.636 287.797 295.146 286.469 295.146ZM286.301 288.042C285.754 288.042 285.295 288.242 284.924 288.643C284.553 289.038 284.323 289.595 284.235 290.312H288.205V290.21C288.166 289.521 287.98 288.989 287.648 288.613C287.316 288.232 286.867 288.042 286.301 288.042ZM297.983 295H290.996V294.026L294.687 289.924C295.234 289.304 295.61 288.801 295.815 288.416C296.025 288.025 296.13 287.622 296.13 287.207C296.13 286.65 295.961 286.194 295.625 285.837C295.288 285.481 294.838 285.303 294.277 285.303C293.603 285.303 293.078 285.496 292.702 285.881C292.331 286.262 292.146 286.794 292.146 287.478H290.791C290.791 286.497 291.105 285.703 291.735 285.098C292.37 284.492 293.217 284.189 294.277 284.189C295.268 284.189 296.052 284.451 296.628 284.973C297.204 285.491 297.492 286.182 297.492 287.046C297.492 288.096 296.823 289.346 295.485 290.796L292.629 293.894H297.983V295ZM299.587 294.29C299.587 294.055 299.655 293.86 299.792 293.704C299.934 293.547 300.144 293.469 300.422 293.469C300.7 293.469 300.91 293.547 301.052 293.704C301.198 293.86 301.271 294.055 301.271 294.29C301.271 294.514 301.198 294.702 301.052 294.854C300.91 295.005 300.7 295.081 300.422 295.081C300.144 295.081 299.934 295.005 299.792 294.854C299.655 294.702 299.587 294.514 299.587 294.29ZM306.691 294.041C307.175 294.041 307.597 293.894 307.958 293.601C308.32 293.308 308.52 292.942 308.559 292.502H309.841C309.816 292.957 309.66 293.389 309.372 293.799C309.084 294.209 308.698 294.536 308.215 294.78C307.736 295.024 307.229 295.146 306.691 295.146C305.612 295.146 304.753 294.788 304.113 294.07C303.479 293.347 303.161 292.361 303.161 291.111V290.884C303.161 290.112 303.303 289.426 303.586 288.826C303.869 288.225 304.274 287.759 304.802 287.427C305.334 287.095 305.961 286.929 306.684 286.929C307.573 286.929 308.31 287.195 308.896 287.727C309.487 288.259 309.802 288.95 309.841 289.8H308.559C308.52 289.287 308.325 288.867 307.973 288.54C307.626 288.208 307.197 288.042 306.684 288.042C305.996 288.042 305.461 288.291 305.08 288.789C304.704 289.282 304.516 289.998 304.516 290.935V291.191C304.516 292.104 304.704 292.808 305.08 293.301C305.456 293.794 305.993 294.041 306.691 294.041ZM311.005 290.964C311.005 290.188 311.157 289.49 311.459 288.87C311.767 288.25 312.192 287.771 312.734 287.434C313.281 287.097 313.903 286.929 314.602 286.929C315.681 286.929 316.552 287.302 317.216 288.049C317.885 288.796 318.22 289.79 318.22 291.03V291.125C318.22 291.897 318.071 292.59 317.773 293.206C317.48 293.816 317.058 294.292 316.506 294.634C315.959 294.976 315.329 295.146 314.616 295.146C313.542 295.146 312.67 294.773 312.001 294.026C311.337 293.279 311.005 292.29 311.005 291.06V290.964ZM312.368 291.125C312.368 292.004 312.57 292.71 312.976 293.242C313.386 293.774 313.933 294.041 314.616 294.041C315.305 294.041 315.852 293.772 316.257 293.235C316.662 292.693 316.865 291.936 316.865 290.964C316.865 290.095 316.657 289.392 316.242 288.855C315.832 288.313 315.285 288.042 314.602 288.042C313.933 288.042 313.393 288.308 312.983 288.84C312.573 289.373 312.368 290.134 312.368 291.125ZM321.193 287.075L321.23 287.954C321.811 287.271 322.595 286.929 323.581 286.929C324.689 286.929 325.444 287.354 325.844 288.203C326.108 287.822 326.45 287.515 326.87 287.28C327.294 287.046 327.795 286.929 328.371 286.929C330.109 286.929 330.993 287.849 331.022 289.69V295H329.667V289.771C329.667 289.204 329.538 288.782 329.279 288.503C329.021 288.22 328.586 288.079 327.976 288.079C327.473 288.079 327.055 288.23 326.723 288.533C326.391 288.831 326.198 289.233 326.145 289.741V295H324.782V289.807C324.782 288.655 324.218 288.079 323.09 288.079C322.202 288.079 321.594 288.457 321.267 289.214V295H319.912V287.075H321.193Z" fill="#646464"/>
<path d="M260.3 343.894H264.936V345H258.645V344.004L263.017 338.196H258.71V337.075H264.716V338.035L260.3 343.894ZM265.991 340.964C265.991 340.188 266.142 339.49 266.445 338.87C266.752 338.25 267.177 337.771 267.719 337.434C268.266 337.097 268.889 336.929 269.587 336.929C270.666 336.929 271.538 337.302 272.202 338.049C272.871 338.796 273.205 339.79 273.205 341.03V341.125C273.205 341.897 273.056 342.59 272.758 343.206C272.465 343.816 272.043 344.292 271.491 344.634C270.944 344.976 270.314 345.146 269.602 345.146C268.527 345.146 267.656 344.773 266.987 344.026C266.323 343.279 265.991 342.29 265.991 341.06V340.964ZM267.353 341.125C267.353 342.004 267.556 342.71 267.961 343.242C268.371 343.774 268.918 344.041 269.602 344.041C270.29 344.041 270.837 343.772 271.242 343.235C271.647 342.693 271.85 341.936 271.85 340.964C271.85 340.095 271.643 339.392 271.228 338.855C270.817 338.313 270.271 338.042 269.587 338.042C268.918 338.042 268.378 338.308 267.968 338.84C267.558 339.373 267.353 340.134 267.353 341.125ZM276.186 337.075L276.23 338.071C276.835 337.31 277.626 336.929 278.603 336.929C280.278 336.929 281.123 337.874 281.137 339.763V345H279.782V339.756C279.777 339.185 279.646 338.762 279.387 338.489C279.133 338.215 278.735 338.079 278.193 338.079C277.753 338.079 277.368 338.196 277.036 338.43C276.704 338.665 276.445 338.972 276.259 339.353V345H274.904V337.075H276.186ZM286.469 345.146C285.395 345.146 284.521 344.795 283.847 344.092C283.173 343.384 282.836 342.439 282.836 341.257V341.008C282.836 340.222 282.985 339.521 283.283 338.906C283.586 338.286 284.006 337.803 284.543 337.456C285.085 337.104 285.671 336.929 286.301 336.929C287.331 336.929 288.132 337.268 288.703 337.947C289.274 338.625 289.56 339.597 289.56 340.862V341.426H284.191C284.211 342.207 284.438 342.839 284.873 343.323C285.312 343.801 285.869 344.041 286.542 344.041C287.021 344.041 287.426 343.943 287.758 343.748C288.09 343.552 288.381 343.293 288.63 342.971L289.458 343.616C288.793 344.636 287.797 345.146 286.469 345.146ZM286.301 338.042C285.754 338.042 285.295 338.242 284.924 338.643C284.553 339.038 284.323 339.595 284.235 340.312H288.205V340.21C288.166 339.521 287.98 338.989 287.648 338.613C287.316 338.232 286.867 338.042 286.301 338.042ZM292.966 339.009H293.984C294.624 338.999 295.126 338.831 295.493 338.503C295.859 338.176 296.042 337.734 296.042 337.178C296.042 335.928 295.419 335.303 294.174 335.303C293.588 335.303 293.12 335.471 292.768 335.808C292.421 336.14 292.248 336.582 292.248 337.134H290.893C290.893 336.289 291.201 335.588 291.816 335.032C292.436 334.47 293.222 334.189 294.174 334.189C295.18 334.189 295.969 334.456 296.54 334.988C297.111 335.52 297.397 336.26 297.397 337.207C297.397 337.671 297.246 338.12 296.943 338.555C296.645 338.989 296.237 339.314 295.72 339.529C296.306 339.714 296.757 340.022 297.075 340.452C297.397 340.881 297.558 341.406 297.558 342.026C297.558 342.983 297.246 343.743 296.621 344.304C295.996 344.866 295.183 345.146 294.182 345.146C293.181 345.146 292.365 344.875 291.735 344.333C291.11 343.792 290.798 343.076 290.798 342.188H292.16C292.16 342.749 292.343 343.198 292.709 343.535C293.076 343.872 293.566 344.041 294.182 344.041C294.836 344.041 295.336 343.87 295.683 343.528C296.03 343.186 296.203 342.695 296.203 342.056C296.203 341.436 296.013 340.959 295.632 340.627C295.251 340.295 294.702 340.125 293.984 340.115H292.966V339.009ZM299.587 344.29C299.587 344.055 299.655 343.86 299.792 343.704C299.934 343.547 300.144 343.469 300.422 343.469C300.7 343.469 300.91 343.547 301.052 343.704C301.198 343.86 301.271 344.055 301.271 344.29C301.271 344.514 301.198 344.702 301.052 344.854C300.91 345.005 300.7 345.081 300.422 345.081C300.144 345.081 299.934 345.005 299.792 344.854C299.655 344.702 299.587 344.514 299.587 344.29ZM306.691 344.041C307.175 344.041 307.597 343.894 307.958 343.601C308.32 343.308 308.52 342.942 308.559 342.502H309.841C309.816 342.957 309.66 343.389 309.372 343.799C309.084 344.209 308.698 344.536 308.215 344.78C307.736 345.024 307.229 345.146 306.691 345.146C305.612 345.146 304.753 344.788 304.113 344.07C303.479 343.347 303.161 342.361 303.161 341.111V340.884C303.161 340.112 303.303 339.426 303.586 338.826C303.869 338.225 304.274 337.759 304.802 337.427C305.334 337.095 305.961 336.929 306.684 336.929C307.573 336.929 308.31 337.195 308.896 337.727C309.487 338.259 309.802 338.95 309.841 339.8H308.559C308.52 339.287 308.325 338.867 307.973 338.54C307.626 338.208 307.197 338.042 306.684 338.042C305.996 338.042 305.461 338.291 305.08 338.789C304.704 339.282 304.516 339.998 304.516 340.935V341.191C304.516 342.104 304.704 342.808 305.08 343.301C305.456 343.794 305.993 344.041 306.691 344.041ZM311.005 340.964C311.005 340.188 311.157 339.49 311.459 338.87C311.767 338.25 312.192 337.771 312.734 337.434C313.281 337.097 313.903 336.929 314.602 336.929C315.681 336.929 316.552 337.302 317.216 338.049C317.885 338.796 318.22 339.79 318.22 341.03V341.125C318.22 341.897 318.071 342.59 317.773 343.206C317.48 343.816 317.058 344.292 316.506 344.634C315.959 344.976 315.329 345.146 314.616 345.146C313.542 345.146 312.67 344.773 312.001 344.026C311.337 343.279 311.005 342.29 311.005 341.06V340.964ZM312.368 341.125C312.368 342.004 312.57 342.71 312.976 343.242C313.386 343.774 313.933 344.041 314.616 344.041C315.305 344.041 315.852 343.772 316.257 343.235C316.662 342.693 316.865 341.936 316.865 340.964C316.865 340.095 316.657 339.392 316.242 338.855C315.832 338.313 315.285 338.042 314.602 338.042C313.933 338.042 313.393 338.308 312.983 338.84C312.573 339.373 312.368 340.134 312.368 341.125ZM321.193 337.075L321.23 337.954C321.811 337.271 322.595 336.929 323.581 336.929C324.689 336.929 325.444 337.354 325.844 338.203C326.108 337.822 326.45 337.515 326.87 337.28C327.294 337.046 327.795 336.929 328.371 336.929C330.109 336.929 330.993 337.849 331.022 339.69V345H329.667V339.771C329.667 339.204 329.538 338.782 329.279 338.503C329.021 338.22 328.586 338.079 327.976 338.079C327.473 338.079 327.055 338.23 326.723 338.533C326.391 338.831 326.198 339.233 326.145 339.741V345H324.782V339.807C324.782 338.655 324.218 338.079 323.09 338.079C322.202 338.079 321.594 338.457 321.267 339.214V345H319.912V337.075H321.193Z" fill="#646464"/>
<path d="M260.3 393.894H264.936V395H258.645V394.004L263.017 388.196H258.71V387.075H264.716V388.035L260.3 393.894ZM265.991 390.964C265.991 390.188 266.142 389.49 266.445 388.87C266.752 388.25 267.177 387.771 267.719 387.434C268.266 387.097 268.889 386.929 269.587 386.929C270.666 386.929 271.538 387.302 272.202 388.049C272.871 388.796 273.205 389.79 273.205 391.03V391.125C273.205 391.897 273.056 392.59 272.758 393.206C272.465 393.816 272.043 394.292 271.491 394.634C270.944 394.976 270.314 395.146 269.602 395.146C268.527 395.146 267.656 394.773 266.987 394.026C266.323 393.279 265.991 392.29 265.991 391.06V390.964ZM267.353 391.125C267.353 392.004 267.556 392.71 267.961 393.242C268.371 393.774 268.918 394.041 269.602 394.041C270.29 394.041 270.837 393.772 271.242 393.235C271.647 392.693 271.85 391.936 271.85 390.964C271.85 390.095 271.643 389.392 271.228 388.855C270.817 388.313 270.271 388.042 269.587 388.042C268.918 388.042 268.378 388.308 267.968 388.84C267.558 389.373 267.353 390.134 267.353 391.125ZM276.186 387.075L276.23 388.071C276.835 387.31 277.626 386.929 278.603 386.929C280.278 386.929 281.123 387.874 281.137 389.763V395H279.782V389.756C279.777 389.185 279.646 388.762 279.387 388.489C279.133 388.215 278.735 388.079 278.193 388.079C277.753 388.079 277.368 388.196 277.036 388.43C276.704 388.665 276.445 388.972 276.259 389.353V395H274.904V387.075H276.186ZM286.469 395.146C285.395 395.146 284.521 394.795 283.847 394.092C283.173 393.384 282.836 392.439 282.836 391.257V391.008C282.836 390.222 282.985 389.521 283.283 388.906C283.586 388.286 284.006 387.803 284.543 387.456C285.085 387.104 285.671 386.929 286.301 386.929C287.331 386.929 288.132 387.268 288.703 387.947C289.274 388.625 289.56 389.597 289.56 390.862V391.426H284.191C284.211 392.207 284.438 392.839 284.873 393.323C285.312 393.801 285.869 394.041 286.542 394.041C287.021 394.041 287.426 393.943 287.758 393.748C288.09 393.552 288.381 393.293 288.63 392.971L289.458 393.616C288.793 394.636 287.797 395.146 286.469 395.146ZM286.301 388.042C285.754 388.042 285.295 388.242 284.924 388.643C284.553 389.038 284.323 389.595 284.235 390.312H288.205V390.21C288.166 389.521 287.98 388.989 287.648 388.613C287.316 388.232 286.867 388.042 286.301 388.042ZM296.716 391.418H298.195V392.524H296.716V395H295.354V392.524H290.498V391.726L295.273 384.336H296.716V391.418ZM292.036 391.418H295.354V386.189L295.192 386.482L292.036 391.418ZM299.587 394.29C299.587 394.055 299.655 393.86 299.792 393.704C299.934 393.547 300.144 393.469 300.422 393.469C300.7 393.469 300.91 393.547 301.052 393.704C301.198 393.86 301.271 394.055 301.271 394.29C301.271 394.514 301.198 394.702 301.052 394.854C300.91 395.005 300.7 395.081 300.422 395.081C300.144 395.081 299.934 395.005 299.792 394.854C299.655 394.702 299.587 394.514 299.587 394.29ZM306.691 394.041C307.175 394.041 307.597 393.894 307.958 393.601C308.32 393.308 308.52 392.942 308.559 392.502H309.841C309.816 392.957 309.66 393.389 309.372 393.799C309.084 394.209 308.698 394.536 308.215 394.78C307.736 395.024 307.229 395.146 306.691 395.146C305.612 395.146 304.753 394.788 304.113 394.07C303.479 393.347 303.161 392.361 303.161 391.111V390.884C303.161 390.112 303.303 389.426 303.586 388.826C303.869 388.225 304.274 387.759 304.802 387.427C305.334 387.095 305.961 386.929 306.684 386.929C307.573 386.929 308.31 387.195 308.896 387.727C309.487 388.259 309.802 388.95 309.841 389.8H308.559C308.52 389.287 308.325 388.867 307.973 388.54C307.626 388.208 307.197 388.042 306.684 388.042C305.996 388.042 305.461 388.291 305.08 388.789C304.704 389.282 304.516 389.998 304.516 390.935V391.191C304.516 392.104 304.704 392.808 305.08 393.301C305.456 393.794 305.993 394.041 306.691 394.041ZM311.005 390.964C311.005 390.188 311.157 389.49 311.459 388.87C311.767 388.25 312.192 387.771 312.734 387.434C313.281 387.097 313.903 386.929 314.602 386.929C315.681 386.929 316.552 387.302 317.216 388.049C317.885 388.796 318.22 389.79 318.22 391.03V391.125C318.22 391.897 318.071 392.59 317.773 393.206C317.48 393.816 317.058 394.292 316.506 394.634C315.959 394.976 315.329 395.146 314.616 395.146C313.542 395.146 312.67 394.773 312.001 394.026C311.337 393.279 311.005 392.29 311.005 391.06V390.964ZM312.368 391.125C312.368 392.004 312.57 392.71 312.976 393.242C313.386 393.774 313.933 394.041 314.616 394.041C315.305 394.041 315.852 393.772 316.257 393.235C316.662 392.693 316.865 391.936 316.865 390.964C316.865 390.095 316.657 389.392 316.242 388.855C315.832 388.313 315.285 388.042 314.602 388.042C313.933 388.042 313.393 388.308 312.983 388.84C312.573 389.373 312.368 390.134 312.368 391.125ZM321.193 387.075L321.23 387.954C321.811 387.271 322.595 386.929 323.581 386.929C324.689 386.929 325.444 387.354 325.844 388.203C326.108 387.822 326.45 387.515 326.87 387.28C327.294 387.046 327.795 386.929 328.371 386.929C330.109 386.929 330.993 387.849 331.022 389.69V395H329.667V389.771C329.667 389.204 329.538 388.782 329.279 388.503C329.021 388.22 328.586 388.079 327.976 388.079C327.473 388.079 327.055 388.23 326.723 388.533C326.391 388.831 326.198 389.233 326.145 389.741V395H324.782V389.807C324.782 388.655 324.218 388.079 323.09 388.079C322.202 388.079 321.594 388.457 321.267 389.214V395H319.912V387.075H321.193Z" fill="#646464"/>
<path d="M260.3 443.894H264.936V445H258.645V444.004L263.017 438.196H258.71V437.075H264.716V438.035L260.3 443.894ZM265.991 440.964C265.991 440.188 266.142 439.49 266.445 438.87C266.752 438.25 267.177 437.771 267.719 437.434C268.266 437.097 268.889 436.929 269.587 436.929C270.666 436.929 271.538 437.302 272.202 438.049C272.871 438.796 273.205 439.79 273.205 441.03V441.125C273.205 441.897 273.056 442.59 272.758 443.206C272.465 443.816 272.043 444.292 271.491 444.634C270.944 444.976 270.314 445.146 269.602 445.146C268.527 445.146 267.656 444.773 266.987 444.026C266.323 443.279 265.991 442.29 265.991 441.06V440.964ZM267.353 441.125C267.353 442.004 267.556 442.71 267.961 443.242C268.371 443.774 268.918 444.041 269.602 444.041C270.29 444.041 270.837 443.772 271.242 443.235C271.647 442.693 271.85 441.936 271.85 440.964C271.85 440.095 271.643 439.392 271.228 438.855C270.817 438.313 270.271 438.042 269.587 438.042C268.918 438.042 268.378 438.308 267.968 438.84C267.558 439.373 267.353 440.134 267.353 441.125ZM276.186 437.075L276.23 438.071C276.835 437.31 277.626 436.929 278.603 436.929C280.278 436.929 281.123 437.874 281.137 439.763V445H279.782V439.756C279.777 439.185 279.646 438.762 279.387 438.489C279.133 438.215 278.735 438.079 278.193 438.079C277.753 438.079 277.368 438.196 277.036 438.43C276.704 438.665 276.445 438.972 276.259 439.353V445H274.904V437.075H276.186ZM286.469 445.146C285.395 445.146 284.521 444.795 283.847 444.092C283.173 443.384 282.836 442.439 282.836 441.257V441.008C282.836 440.222 282.985 439.521 283.283 438.906C283.586 438.286 284.006 437.803 284.543 437.456C285.085 437.104 285.671 436.929 286.301 436.929C287.331 436.929 288.132 437.268 288.703 437.947C289.274 438.625 289.56 439.597 289.56 440.862V441.426H284.191C284.211 442.207 284.438 442.839 284.873 443.323C285.312 443.801 285.869 444.041 286.542 444.041C287.021 444.041 287.426 443.943 287.758 443.748C288.09 443.552 288.381 443.293 288.63 442.971L289.458 443.616C288.793 444.636 287.797 445.146 286.469 445.146ZM286.301 438.042C285.754 438.042 285.295 438.242 284.924 438.643C284.553 439.038 284.323 439.595 284.235 440.312H288.205V440.21C288.166 439.521 287.98 438.989 287.648 438.613C287.316 438.232 286.867 438.042 286.301 438.042ZM291.618 439.653L292.16 434.336H297.624V435.588H293.31L292.988 438.496C293.51 438.188 294.104 438.035 294.768 438.035C295.739 438.035 296.511 438.357 297.082 439.001C297.653 439.641 297.939 440.508 297.939 441.602C297.939 442.7 297.641 443.567 297.045 444.202C296.455 444.832 295.627 445.146 294.562 445.146C293.62 445.146 292.851 444.885 292.255 444.363C291.66 443.84 291.32 443.118 291.237 442.195H292.519C292.602 442.805 292.819 443.267 293.171 443.579C293.522 443.887 293.986 444.041 294.562 444.041C295.192 444.041 295.686 443.826 296.042 443.396C296.403 442.966 296.584 442.373 296.584 441.616C296.584 440.903 296.389 440.332 295.998 439.902C295.612 439.468 295.097 439.25 294.453 439.25C293.862 439.25 293.398 439.38 293.061 439.639L292.702 439.932L291.618 439.653ZM299.587 444.29C299.587 444.055 299.655 443.86 299.792 443.704C299.934 443.547 300.144 443.469 300.422 443.469C300.7 443.469 300.91 443.547 301.052 443.704C301.198 443.86 301.271 444.055 301.271 444.29C301.271 444.514 301.198 444.702 301.052 444.854C300.91 445.005 300.7 445.081 300.422 445.081C300.144 445.081 299.934 445.005 299.792 444.854C299.655 444.702 299.587 444.514 299.587 444.29ZM306.691 444.041C307.175 444.041 307.597 443.894 307.958 443.601C308.32 443.308 308.52 442.942 308.559 442.502H309.841C309.816 442.957 309.66 443.389 309.372 443.799C309.084 444.209 308.698 444.536 308.215 444.78C307.736 445.024 307.229 445.146 306.691 445.146C305.612 445.146 304.753 444.788 304.113 444.07C303.479 443.347 303.161 442.361 303.161 441.111V440.884C303.161 440.112 303.303 439.426 303.586 438.826C303.869 438.225 304.274 437.759 304.802 437.427C305.334 437.095 305.961 436.929 306.684 436.929C307.573 436.929 308.31 437.195 308.896 437.727C309.487 438.259 309.802 438.95 309.841 439.8H308.559C308.52 439.287 308.325 438.867 307.973 438.54C307.626 438.208 307.197 438.042 306.684 438.042C305.996 438.042 305.461 438.291 305.08 438.789C304.704 439.282 304.516 439.998 304.516 440.935V441.191C304.516 442.104 304.704 442.808 305.08 443.301C305.456 443.794 305.993 444.041 306.691 444.041ZM311.005 440.964C311.005 440.188 311.157 439.49 311.459 438.87C311.767 438.25 312.192 437.771 312.734 437.434C313.281 437.097 313.903 436.929 314.602 436.929C315.681 436.929 316.552 437.302 317.216 438.049C317.885 438.796 318.22 439.79 318.22 441.03V441.125C318.22 441.897 318.071 442.59 317.773 443.206C317.48 443.816 317.058 444.292 316.506 444.634C315.959 444.976 315.329 445.146 314.616 445.146C313.542 445.146 312.67 444.773 312.001 444.026C311.337 443.279 311.005 442.29 311.005 441.06V440.964ZM312.368 441.125C312.368 442.004 312.57 442.71 312.976 443.242C313.386 443.774 313.933 444.041 314.616 444.041C315.305 444.041 315.852 443.772 316.257 443.235C316.662 442.693 316.865 441.936 316.865 440.964C316.865 440.095 316.657 439.392 316.242 438.855C315.832 438.313 315.285 438.042 314.602 438.042C313.933 438.042 313.393 438.308 312.983 438.84C312.573 439.373 312.368 440.134 312.368 441.125ZM321.193 437.075L321.23 437.954C321.811 437.271 322.595 436.929 323.581 436.929C324.689 436.929 325.444 437.354 325.844 438.203C326.108 437.822 326.45 437.515 326.87 437.28C327.294 437.046 327.795 436.929 328.371 436.929C330.109 436.929 330.993 437.849 331.022 439.69V445H329.667V439.771C329.667 439.204 329.538 438.782 329.279 438.503C329.021 438.22 328.586 438.079 327.976 438.079C327.473 438.079 327.055 438.23 326.723 438.533C326.391 438.831 326.198 439.233 326.145 439.741V445H324.782V439.807C324.782 438.655 324.218 438.079 323.09 438.079C322.202 438.079 321.594 438.457 321.267 439.214V445H319.912V437.075H321.193Z" fill="#646464"/>
<path d="M44.2664 243.85H50.3674V245H42.6038V243.945L48.4485 235.493H42.699V234.336H50.1331V235.369L44.2664 243.85ZM51.4587 240.964C51.4587 240.188 51.6101 239.49 51.9128 238.87C52.2205 238.25 52.6453 237.771 53.1873 237.434C53.7341 237.097 54.3567 236.929 55.0549 236.929C56.134 236.929 57.0056 237.302 57.6697 238.049C58.3386 238.796 58.6731 239.79 58.6731 241.03V241.125C58.6731 241.897 58.5242 242.59 58.2263 243.206C57.9333 243.816 57.511 244.292 56.9592 244.634C56.4124 244.976 55.7825 245.146 55.0696 245.146C53.9954 245.146 53.1238 244.773 52.4548 244.026C51.7908 243.279 51.4587 242.29 51.4587 241.06V240.964ZM52.821 241.125C52.821 242.004 53.0237 242.71 53.429 243.242C53.8391 243.774 54.386 244.041 55.0696 244.041C55.7581 244.041 56.3049 243.772 56.7102 243.235C57.1155 242.693 57.3181 241.936 57.3181 240.964C57.3181 240.095 57.1106 239.392 56.6956 238.855C56.2854 238.313 55.7385 238.042 55.0549 238.042C54.386 238.042 53.8464 238.308 53.4363 238.84C53.0261 239.373 52.821 240.134 52.821 241.125ZM61.6541 237.075L61.698 238.071C62.3035 237.31 63.0945 236.929 64.071 236.929C65.7458 236.929 66.5906 237.874 66.6052 239.763V245H65.2502V239.756C65.2454 239.185 65.1135 238.762 64.8547 238.489C64.6008 238.215 64.2029 238.079 63.6609 238.079C63.2214 238.079 62.8357 238.196 62.5037 238.43C62.1716 238.665 61.9128 238.972 61.7273 239.353V245H60.3723V237.075H61.6541ZM71.9373 245.146C70.863 245.146 69.989 244.795 69.3152 244.092C68.6414 243.384 68.3044 242.439 68.3044 241.257V241.008C68.3044 240.222 68.4534 239.521 68.7512 238.906C69.054 238.286 69.4739 237.803 70.011 237.456C70.553 237.104 71.1389 236.929 71.7688 236.929C72.7991 236.929 73.5999 237.268 74.1711 237.947C74.7424 238.625 75.0281 239.597 75.0281 240.862V241.426H69.6594C69.679 242.207 69.906 242.839 70.3406 243.323C70.78 243.801 71.3367 244.041 72.0105 244.041C72.489 244.041 72.8943 243.943 73.2263 243.748C73.5583 243.552 73.8489 243.293 74.0979 242.971L74.9255 243.616C74.2615 244.636 73.2654 245.146 71.9373 245.146ZM71.7688 238.042C71.2219 238.042 70.7629 238.242 70.3918 238.643C70.0208 239.038 69.7913 239.595 69.7034 240.312H73.6731V240.21C73.634 239.521 73.4485 238.989 73.1165 238.613C72.7844 238.232 72.3352 238.042 71.7688 238.042ZM84.6375 245H83.2751V235.969L80.5432 236.973V235.742L84.425 234.285H84.6375V245Z" fill="#646464"/>
<path d="M467.431 245H466.018L460.649 236.782V245H459.235V234.336H460.649L466.032 242.59V234.336H467.431V245ZM469.357 240.964C469.357 240.188 469.509 239.49 469.812 238.87C470.119 238.25 470.544 237.771 471.086 237.434C471.633 237.097 472.255 236.929 472.954 236.929C474.033 236.929 474.904 237.302 475.568 238.049C476.237 238.796 476.572 239.79 476.572 241.03V241.125C476.572 241.897 476.423 242.59 476.125 243.206C475.832 243.816 475.41 244.292 474.858 244.634C474.311 244.976 473.681 245.146 472.968 245.146C471.894 245.146 471.022 244.773 470.354 244.026C469.689 243.279 469.357 242.29 469.357 241.06V240.964ZM470.72 241.125C470.72 242.004 470.922 242.71 471.328 243.242C471.738 243.774 472.285 244.041 472.968 244.041C473.657 244.041 474.204 243.772 474.609 243.235C475.014 242.693 475.217 241.936 475.217 240.964C475.217 240.095 475.009 239.392 474.594 238.855C474.184 238.313 473.637 238.042 472.954 238.042C472.285 238.042 471.745 238.308 471.335 238.84C470.925 239.373 470.72 240.134 470.72 241.125Z" fill="#646464"/>
<path d="M260.3 243.894H264.936V245H258.645V244.004L263.017 238.196H258.71V237.075H264.716V238.035L260.3 243.894ZM265.991 240.964C265.991 240.188 266.142 239.49 266.445 238.87C266.752 238.25 267.177 237.771 267.719 237.434C268.266 237.097 268.889 236.929 269.587 236.929C270.666 236.929 271.538 237.302 272.202 238.049C272.871 238.796 273.205 239.79 273.205 241.03V241.125C273.205 241.897 273.056 242.59 272.758 243.206C272.465 243.816 272.043 244.292 271.491 244.634C270.944 244.976 270.314 245.146 269.602 245.146C268.527 245.146 267.656 244.773 266.987 244.026C266.323 243.279 265.991 242.29 265.991 241.06V240.964ZM267.353 241.125C267.353 242.004 267.556 242.71 267.961 243.242C268.371 243.774 268.918 244.041 269.602 244.041C270.29 244.041 270.837 243.772 271.242 243.235C271.647 242.693 271.85 241.936 271.85 240.964C271.85 240.095 271.643 239.392 271.228 238.855C270.817 238.313 270.271 238.042 269.587 238.042C268.918 238.042 268.378 238.308 267.968 238.84C267.558 239.373 267.353 240.134 267.353 241.125ZM276.186 237.075L276.23 238.071C276.835 237.31 277.626 236.929 278.603 236.929C280.278 236.929 281.123 237.874 281.137 239.763V245H279.782V239.756C279.777 239.185 279.646 238.762 279.387 238.489C279.133 238.215 278.735 238.079 278.193 238.079C277.753 238.079 277.368 238.196 277.036 238.43C276.704 238.665 276.445 238.972 276.259 239.353V245H274.904V237.075H276.186ZM286.469 245.146C285.395 245.146 284.521 244.795 283.847 244.092C283.173 243.384 282.836 242.439 282.836 241.257V241.008C282.836 240.222 282.985 239.521 283.283 238.906C283.586 238.286 284.006 237.803 284.543 237.456C285.085 237.104 285.671 236.929 286.301 236.929C287.331 236.929 288.132 237.268 288.703 237.947C289.274 238.625 289.56 239.597 289.56 240.862V241.426H284.191C284.211 242.207 284.438 242.839 284.873 243.323C285.312 243.801 285.869 244.041 286.542 244.041C287.021 244.041 287.426 243.943 287.758 243.748C288.09 243.552 288.381 243.293 288.63 242.971L289.458 243.616C288.793 244.636 287.797 245.146 286.469 245.146ZM286.301 238.042C285.754 238.042 285.295 238.242 284.924 238.643C284.553 239.038 284.323 239.595 284.235 240.312H288.205V240.21C288.166 239.521 287.98 238.989 287.648 238.613C287.316 238.232 286.867 238.042 286.301 238.042ZM295.449 245H294.086V235.969L291.354 236.973V235.742L295.236 234.285H295.449V245ZM299.587 244.29C299.587 244.055 299.655 243.86 299.792 243.704C299.934 243.547 300.144 243.469 300.422 243.469C300.7 243.469 300.91 243.547 301.052 243.704C301.198 243.86 301.271 244.055 301.271 244.29C301.271 244.514 301.198 244.702 301.052 244.854C300.91 245.005 300.7 245.081 300.422 245.081C300.144 245.081 299.934 245.005 299.792 244.854C299.655 244.702 299.587 244.514 299.587 244.29ZM306.691 244.041C307.175 244.041 307.597 243.894 307.958 243.601C308.32 243.308 308.52 242.942 308.559 242.502H309.841C309.816 242.957 309.66 243.389 309.372 243.799C309.084 244.209 308.698 244.536 308.215 244.78C307.736 245.024 307.229 245.146 306.691 245.146C305.612 245.146 304.753 244.788 304.113 244.07C303.479 243.347 303.161 242.361 303.161 241.111V240.884C303.161 240.112 303.303 239.426 303.586 238.826C303.869 238.225 304.274 237.759 304.802 237.427C305.334 237.095 305.961 236.929 306.684 236.929C307.573 236.929 308.31 237.195 308.896 237.727C309.487 238.259 309.802 238.95 309.841 239.8H308.559C308.52 239.287 308.325 238.867 307.973 238.54C307.626 238.208 307.197 238.042 306.684 238.042C305.996 238.042 305.461 238.291 305.08 238.789C304.704 239.282 304.516 239.998 304.516 240.935V241.191C304.516 242.104 304.704 242.808 305.08 243.301C305.456 243.794 305.993 244.041 306.691 244.041ZM311.005 240.964C311.005 240.188 311.157 239.49 311.459 238.87C311.767 238.25 312.192 237.771 312.734 237.434C313.281 237.097 313.903 236.929 314.602 236.929C315.681 236.929 316.552 237.302 317.216 238.049C317.885 238.796 318.22 239.79 318.22 241.03V241.125C318.22 241.897 318.071 242.59 317.773 243.206C317.48 243.816 317.058 244.292 316.506 244.634C315.959 244.976 315.329 245.146 314.616 245.146C313.542 245.146 312.67 244.773 312.001 244.026C311.337 243.279 311.005 242.29 311.005 241.06V240.964ZM312.368 241.125C312.368 242.004 312.57 242.71 312.976 243.242C313.386 243.774 313.933 244.041 314.616 244.041C315.305 244.041 315.852 243.772 316.257 243.235C316.662 242.693 316.865 241.936 316.865 240.964C316.865 240.095 316.657 239.392 316.242 238.855C315.832 238.313 315.285 238.042 314.602 238.042C313.933 238.042 313.393 238.308 312.983 238.84C312.573 239.373 312.368 240.134 312.368 241.125ZM321.193 237.075L321.23 237.954C321.811 237.271 322.595 236.929 323.581 236.929C324.689 236.929 325.444 237.354 325.844 238.203C326.108 237.822 326.45 237.515 326.87 237.28C327.294 237.046 327.795 236.929 328.371 236.929C330.109 236.929 330.993 237.849 331.022 239.69V245H329.667V239.771C329.667 239.204 329.538 238.782 329.279 238.503C329.021 238.22 328.586 238.079 327.976 238.079C327.473 238.079 327.055 238.23 326.723 238.533C326.391 238.831 326.198 239.233 326.145 239.741V245H324.782V239.807C324.782 238.655 324.218 238.079 323.09 238.079C322.202 238.079 321.594 238.457 321.267 239.214V245H319.912V237.075H321.193Z" fill="#646464"/>
<line x1="30" y1="264.5" x2="540" y2="264.5" stroke="#EBEBEB"/>
<line x1="30" y1="314.5" x2="540" y2="314.5" stroke="#EBEBEB"/>
<line x1="30" y1="364.5" x2="540" y2="364.5" stroke="#EBEBEB"/>
<line x1="30" y1="414.5" x2="540" y2="414.5" stroke="#EBEBEB"/>
<path d="M37.9893 141.704C37.9893 141.142 37.79 140.708 37.3916 140.403C36.999 140.099 36.2871 139.791 35.2559 139.48C34.2246 139.17 33.4043 138.824 32.7949 138.443C31.6289 137.711 31.0459 136.756 31.0459 135.578C31.0459 134.547 31.4648 133.697 32.3027 133.029C33.1465 132.361 34.2393 132.027 35.5811 132.027C36.4717 132.027 37.2656 132.191 37.9629 132.52C38.6602 132.848 39.208 133.316 39.6064 133.926C40.0049 134.529 40.2041 135.2 40.2041 135.938H37.9893C37.9893 135.271 37.7783 134.749 37.3564 134.374C36.9404 133.993 36.3428 133.803 35.5635 133.803C34.8369 133.803 34.2715 133.958 33.8672 134.269C33.4688 134.579 33.2695 135.013 33.2695 135.569C33.2695 136.038 33.4863 136.431 33.9199 136.747C34.3535 137.058 35.0684 137.362 36.0645 137.661C37.0605 137.954 37.8604 138.291 38.4639 138.672C39.0674 139.047 39.5098 139.48 39.791 139.973C40.0723 140.459 40.2129 141.03 40.2129 141.687C40.2129 142.753 39.8027 143.603 38.9824 144.235C38.168 144.862 37.0605 145.176 35.6602 145.176C34.7344 145.176 33.8818 145.006 33.1025 144.666C32.3291 144.32 31.7256 143.846 31.292 143.242C30.8643 142.639 30.6504 141.936 30.6504 141.133H32.874C32.874 141.859 33.1143 142.422 33.5947 142.82C34.0752 143.219 34.7637 143.418 35.6602 143.418C36.4336 143.418 37.0137 143.263 37.4004 142.952C37.793 142.636 37.9893 142.22 37.9893 141.704ZM46.1455 145.176C44.792 145.176 43.6934 144.751 42.8496 143.901C42.0117 143.046 41.5928 141.909 41.5928 140.491V140.228C41.5928 139.278 41.7744 138.432 42.1377 137.688C42.5068 136.938 43.0225 136.354 43.6846 135.938C44.3467 135.522 45.085 135.314 45.8994 135.314C47.1943 135.314 48.1934 135.728 48.8965 136.554C49.6055 137.38 49.96 138.549 49.96 140.061V140.922H43.7461C43.8105 141.707 44.0713 142.328 44.5283 142.785C44.9912 143.242 45.5713 143.471 46.2686 143.471C47.2471 143.471 48.0439 143.075 48.6592 142.284L49.8105 143.383C49.4297 143.951 48.9199 144.394 48.2812 144.71C47.6484 145.021 46.9365 145.176 46.1455 145.176ZM45.8906 137.028C45.3047 137.028 44.8301 137.233 44.4668 137.644C44.1094 138.054 43.8809 138.625 43.7812 139.357H47.8506V139.199C47.8037 138.484 47.6133 137.945 47.2793 137.582C46.9453 137.213 46.4824 137.028 45.8906 137.028ZM57.3076 145C57.2139 144.818 57.1318 144.522 57.0615 144.112C56.3818 144.821 55.5498 145.176 54.5654 145.176C53.6104 145.176 52.8311 144.903 52.2275 144.358C51.624 143.813 51.3223 143.14 51.3223 142.337C51.3223 141.323 51.6973 140.547 52.4473 140.008C53.2031 139.463 54.2812 139.19 55.6816 139.19H56.9912V138.566C56.9912 138.074 56.8535 137.682 56.5781 137.389C56.3027 137.09 55.8838 136.94 55.3213 136.94C54.835 136.94 54.4365 137.063 54.126 137.31C53.8154 137.55 53.6602 137.857 53.6602 138.232H51.5244C51.5244 137.711 51.6973 137.225 52.043 136.773C52.3887 136.316 52.8574 135.959 53.4492 135.701C54.0469 135.443 54.7119 135.314 55.4443 135.314C56.5576 135.314 57.4453 135.596 58.1074 136.158C58.7695 136.715 59.1094 137.5 59.127 138.514V142.803C59.127 143.658 59.2471 144.341 59.4873 144.851V145H57.3076ZM54.9609 143.462C55.3828 143.462 55.7783 143.359 56.1475 143.154C56.5225 142.949 56.8037 142.674 56.9912 142.328V140.535H55.8398C55.0488 140.535 54.4541 140.673 54.0557 140.948C53.6572 141.224 53.458 141.613 53.458 142.117C53.458 142.527 53.5928 142.855 53.8623 143.102C54.1377 143.342 54.5039 143.462 54.9609 143.462ZM66.3428 137.441C66.0615 137.395 65.7715 137.371 65.4727 137.371C64.4941 137.371 63.835 137.746 63.4951 138.496V145H61.3594V135.49H63.3984L63.4512 136.554C63.9668 135.728 64.6816 135.314 65.5957 135.314C65.9004 135.314 66.1523 135.355 66.3516 135.438L66.3428 137.441ZM71.4229 143.471C71.9561 143.471 72.3984 143.315 72.75 143.005C73.1016 142.694 73.2891 142.311 73.3125 141.854H75.3252C75.3018 142.445 75.1172 142.999 74.7715 143.515C74.4258 144.024 73.957 144.429 73.3652 144.728C72.7734 145.026 72.1348 145.176 71.4492 145.176C70.1191 145.176 69.0645 144.745 68.2852 143.884C67.5059 143.022 67.1162 141.833 67.1162 140.315V140.096C67.1162 138.648 67.5029 137.491 68.2764 136.624C69.0498 135.751 70.1045 135.314 71.4404 135.314C72.5713 135.314 73.4912 135.646 74.2002 136.308C74.915 136.964 75.29 137.828 75.3252 138.9H73.3125C73.2891 138.355 73.1016 137.907 72.75 137.556C72.4043 137.204 71.9619 137.028 71.4229 137.028C70.7314 137.028 70.1982 137.28 69.8232 137.784C69.4482 138.282 69.2578 139.041 69.252 140.061V140.403C69.252 141.435 69.4365 142.205 69.8057 142.715C70.1807 143.219 70.7197 143.471 71.4229 143.471ZM79.043 136.527C79.7402 135.719 80.6221 135.314 81.6885 135.314C83.7158 135.314 84.7441 136.472 84.7734 138.786V145H82.6377V138.865C82.6377 138.209 82.4941 137.746 82.207 137.477C81.9258 137.201 81.5098 137.063 80.959 137.063C80.1035 137.063 79.4648 137.444 79.043 138.206V145H76.9072V131.5H79.043V136.527ZM88.2275 142.75C88.626 142.75 88.9336 142.864 89.1504 143.093C89.3672 143.315 89.4756 143.597 89.4756 143.937C89.4756 144.271 89.3672 144.549 89.1504 144.771C88.9336 144.988 88.626 145.097 88.2275 145.097C87.8467 145.097 87.5449 144.988 87.3223 144.771C87.0996 144.555 86.9883 144.276 86.9883 143.937C86.9883 143.597 87.0967 143.315 87.3135 143.093C87.5303 142.864 87.835 142.75 88.2275 142.75ZM88.2275 135.288C88.626 135.288 88.9336 135.402 89.1504 135.631C89.3672 135.854 89.4756 136.135 89.4756 136.475C89.4756 136.809 89.3672 137.087 89.1504 137.31C88.9336 137.526 88.626 137.635 88.2275 137.635C87.8467 137.635 87.5449 137.526 87.3223 137.31C87.0996 137.093 86.9883 136.814 86.9883 136.475C86.9883 136.135 87.0967 135.854 87.3135 135.631C87.5303 135.402 87.835 135.288 88.2275 135.288Z" fill="#646464"/>
<g filter="url(#filter0_d)">
<path fill-rule="evenodd" clip-rule="evenodd" d="M104 127C104 124.239 106.239 122 109 122H375C377.761 122 380 124.239 380 127V147C380 149.761 377.761 152 375 152H109C106.239 152 104 149.761 104 147V127Z" fill="white"/>
</g>
<path d="M126.385 133.395H123.643V141H122.523V133.395H119.787V132.469H126.385V133.395ZM129.133 139.412L130.609 134.66H131.77L129.221 141.979C128.826 143.033 128.199 143.561 127.34 143.561L127.135 143.543L126.73 143.467V142.588L127.023 142.611C127.391 142.611 127.676 142.537 127.879 142.389C128.086 142.24 128.256 141.969 128.389 141.574L128.629 140.93L126.367 134.66H127.551L129.133 139.412ZM138.098 137.9C138.098 138.865 137.877 139.643 137.436 140.232C136.994 140.822 136.396 141.117 135.643 141.117C134.873 141.117 134.268 140.873 133.826 140.385V143.438H132.742V134.66H133.732L133.785 135.363C134.227 134.816 134.84 134.543 135.625 134.543C136.387 134.543 136.988 134.83 137.43 135.404C137.875 135.979 138.098 136.777 138.098 137.801V137.9ZM137.014 137.777C137.014 137.062 136.861 136.498 136.557 136.084C136.252 135.67 135.834 135.463 135.303 135.463C134.646 135.463 134.154 135.754 133.826 136.336V139.365C134.15 139.943 134.646 140.232 135.314 140.232C135.834 140.232 136.246 140.027 136.551 139.617C136.859 139.203 137.014 138.59 137.014 137.777ZM142.111 141.117C141.252 141.117 140.553 140.836 140.014 140.273C139.475 139.707 139.205 138.951 139.205 138.006V137.807C139.205 137.178 139.324 136.617 139.562 136.125C139.805 135.629 140.141 135.242 140.57 134.965C141.004 134.684 141.473 134.543 141.977 134.543C142.801 134.543 143.441 134.814 143.898 135.357C144.355 135.9 144.584 136.678 144.584 137.689V138.141H140.289C140.305 138.766 140.486 139.271 140.834 139.658C141.186 140.041 141.631 140.232 142.17 140.232C142.553 140.232 142.877 140.154 143.143 139.998C143.408 139.842 143.641 139.635 143.84 139.377L144.502 139.893C143.971 140.709 143.174 141.117 142.111 141.117ZM141.977 135.434C141.539 135.434 141.172 135.594 140.875 135.914C140.578 136.23 140.395 136.676 140.324 137.25H143.5V137.168C143.469 136.617 143.32 136.191 143.055 135.891C142.789 135.586 142.43 135.434 141.977 135.434ZM150.291 133.125V134.66H151.475V135.498H150.291V139.43C150.291 139.684 150.344 139.875 150.449 140.004C150.555 140.129 150.734 140.191 150.988 140.191C151.113 140.191 151.285 140.168 151.504 140.121V141C151.219 141.078 150.941 141.117 150.672 141.117C150.188 141.117 149.822 140.971 149.576 140.678C149.33 140.385 149.207 139.969 149.207 139.43V135.498H148.053V134.66H149.207V133.125H150.291ZM152.342 137.771C152.342 137.15 152.463 136.592 152.705 136.096C152.951 135.6 153.291 135.217 153.725 134.947C154.162 134.678 154.66 134.543 155.219 134.543C156.082 134.543 156.779 134.842 157.311 135.439C157.846 136.037 158.113 136.832 158.113 137.824V137.9C158.113 138.518 157.994 139.072 157.756 139.564C157.521 140.053 157.184 140.434 156.742 140.707C156.305 140.98 155.801 141.117 155.23 141.117C154.371 141.117 153.674 140.818 153.139 140.221C152.607 139.623 152.342 138.832 152.342 137.848V137.771ZM153.432 137.9C153.432 138.604 153.594 139.168 153.918 139.594C154.246 140.02 154.684 140.232 155.23 140.232C155.781 140.232 156.219 140.018 156.543 139.588C156.867 139.154 157.029 138.549 157.029 137.771C157.029 137.076 156.863 136.514 156.531 136.084C156.203 135.65 155.766 135.434 155.219 135.434C154.684 135.434 154.252 135.646 153.924 136.072C153.596 136.498 153.432 137.107 153.432 137.9ZM162.812 141V135.498H161.811V134.66H162.812V134.121C162.812 133.414 163.014 132.863 163.416 132.469C163.822 132.074 164.395 131.877 165.133 131.877C165.57 131.877 166.123 131.996 166.791 132.234L166.609 133.148C166.121 132.953 165.656 132.855 165.215 132.855C164.75 132.855 164.414 132.961 164.207 133.172C164.004 133.379 163.902 133.691 163.902 134.109V134.66H165.197V135.498H163.902V141H162.812ZM167.33 141H166.24V134.66H167.33V141ZM170.271 141H169.188V132H170.271V141ZM173.482 133.125V134.66H174.666V135.498H173.482V139.43C173.482 139.684 173.535 139.875 173.641 140.004C173.746 140.129 173.926 140.191 174.18 140.191C174.305 140.191 174.477 140.168 174.695 140.121V141C174.41 141.078 174.133 141.117 173.863 141.117C173.379 141.117 173.014 140.971 172.768 140.678C172.521 140.385 172.398 139.969 172.398 139.43V135.498H171.244V134.66H172.398V133.125H173.482ZM178.568 141.117C177.709 141.117 177.01 140.836 176.471 140.273C175.932 139.707 175.662 138.951 175.662 138.006V137.807C175.662 137.178 175.781 136.617 176.02 136.125C176.262 135.629 176.598 135.242 177.027 134.965C177.461 134.684 177.93 134.543 178.434 134.543C179.258 134.543 179.898 134.814 180.355 135.357C180.812 135.9 181.041 136.678 181.041 137.689V138.141H176.746C176.762 138.766 176.943 139.271 177.291 139.658C177.643 140.041 178.088 140.232 178.627 140.232C179.01 140.232 179.334 140.154 179.6 139.998C179.865 139.842 180.098 139.635 180.297 139.377L180.959 139.893C180.428 140.709 179.631 141.117 178.568 141.117ZM178.434 135.434C177.996 135.434 177.629 135.594 177.332 135.914C177.035 136.23 176.852 136.676 176.781 137.25H179.957V137.168C179.926 136.617 179.777 136.191 179.512 135.891C179.246 135.586 178.887 135.434 178.434 135.434ZM185.365 135.633C185.201 135.605 185.023 135.592 184.832 135.592C184.121 135.592 183.639 135.895 183.385 136.5V141H182.301V134.66H183.355L183.373 135.393C183.729 134.826 184.232 134.543 184.885 134.543C185.096 134.543 185.256 134.57 185.365 134.625V135.633ZM192.408 135.633C192.244 135.605 192.066 135.592 191.875 135.592C191.164 135.592 190.682 135.895 190.428 136.5V141H189.344V134.66H190.398L190.416 135.393C190.771 134.826 191.275 134.543 191.928 134.543C192.139 134.543 192.299 134.57 192.408 134.625V135.633ZM195.924 141.117C195.064 141.117 194.365 140.836 193.826 140.273C193.287 139.707 193.018 138.951 193.018 138.006V137.807C193.018 137.178 193.137 136.617 193.375 136.125C193.617 135.629 193.953 135.242 194.383 134.965C194.816 134.684 195.285 134.543 195.789 134.543C196.613 134.543 197.254 134.814 197.711 135.357C198.168 135.9 198.396 136.678 198.396 137.689V138.141H194.102C194.117 138.766 194.299 139.271 194.646 139.658C194.998 140.041 195.443 140.232 195.982 140.232C196.365 140.232 196.689 140.154 196.955 139.998C197.221 139.842 197.453 139.635 197.652 139.377L198.314 139.893C197.783 140.709 196.986 141.117 195.924 141.117ZM195.789 135.434C195.352 135.434 194.984 135.594 194.688 135.914C194.391 136.23 194.207 136.676 194.137 137.25H197.312V137.168C197.281 136.617 197.133 136.191 196.867 135.891C196.602 135.586 196.242 135.434 195.789 135.434ZM203.348 139.318C203.348 139.025 203.236 138.799 203.014 138.639C202.795 138.475 202.41 138.334 201.859 138.217C201.312 138.1 200.877 137.959 200.553 137.795C200.232 137.631 199.994 137.436 199.838 137.209C199.686 136.982 199.609 136.713 199.609 136.4C199.609 135.881 199.828 135.441 200.266 135.082C200.707 134.723 201.27 134.543 201.953 134.543C202.672 134.543 203.254 134.729 203.699 135.1C204.148 135.471 204.373 135.945 204.373 136.523H203.283C203.283 136.227 203.156 135.971 202.902 135.756C202.652 135.541 202.336 135.434 201.953 135.434C201.559 135.434 201.25 135.52 201.027 135.691C200.805 135.863 200.693 136.088 200.693 136.365C200.693 136.627 200.797 136.824 201.004 136.957C201.211 137.09 201.584 137.217 202.123 137.338C202.666 137.459 203.105 137.604 203.441 137.771C203.777 137.939 204.025 138.143 204.186 138.381C204.35 138.615 204.432 138.902 204.432 139.242C204.432 139.809 204.205 140.264 203.752 140.607C203.299 140.947 202.711 141.117 201.988 141.117C201.48 141.117 201.031 141.027 200.641 140.848C200.25 140.668 199.943 140.418 199.721 140.098C199.502 139.773 199.393 139.424 199.393 139.049H200.477C200.496 139.412 200.641 139.701 200.91 139.916C201.184 140.127 201.543 140.232 201.988 140.232C202.398 140.232 202.727 140.15 202.973 139.986C203.223 139.818 203.348 139.596 203.348 139.318ZM209.758 140.373C209.336 140.869 208.717 141.117 207.9 141.117C207.225 141.117 206.709 140.922 206.354 140.531C206.002 140.137 205.824 139.555 205.82 138.785V134.66H206.904V138.756C206.904 139.717 207.295 140.197 208.076 140.197C208.904 140.197 209.455 139.889 209.729 139.271V134.66H210.812V141H209.781L209.758 140.373ZM213.643 141H212.559V132H213.643V141ZM216.854 133.125V134.66H218.037V135.498H216.854V139.43C216.854 139.684 216.906 139.875 217.012 140.004C217.117 140.129 217.297 140.191 217.551 140.191C217.676 140.191 217.848 140.168 218.066 140.121V141C217.781 141.078 217.504 141.117 217.234 141.117C216.75 141.117 216.385 140.971 216.139 140.678C215.893 140.385 215.77 139.969 215.77 139.43V135.498H214.615V134.66H215.77V133.125H216.854ZM223 139.318C223 139.025 222.889 138.799 222.666 138.639C222.447 138.475 222.062 138.334 221.512 138.217C220.965 138.1 220.529 137.959 220.205 137.795C219.885 137.631 219.646 137.436 219.49 137.209C219.338 136.982 219.262 136.713 219.262 136.4C219.262 135.881 219.48 135.441 219.918 135.082C220.359 134.723 220.922 134.543 221.605 134.543C222.324 134.543 222.906 134.729 223.352 135.1C223.801 135.471 224.025 135.945 224.025 136.523H222.936C222.936 136.227 222.809 135.971 222.555 135.756C222.305 135.541 221.988 135.434 221.605 135.434C221.211 135.434 220.902 135.52 220.68 135.691C220.457 135.863 220.346 136.088 220.346 136.365C220.346 136.627 220.449 136.824 220.656 136.957C220.863 137.09 221.236 137.217 221.775 137.338C222.318 137.459 222.758 137.604 223.094 137.771C223.43 137.939 223.678 138.143 223.838 138.381C224.002 138.615 224.084 138.902 224.084 139.242C224.084 139.809 223.857 140.264 223.404 140.607C222.951 140.947 222.363 141.117 221.641 141.117C221.133 141.117 220.684 141.027 220.293 140.848C219.902 140.668 219.596 140.418 219.373 140.098C219.154 139.773 219.045 139.424 219.045 139.049H220.129C220.148 139.412 220.293 139.701 220.562 139.916C220.836 140.127 221.195 140.232 221.641 140.232C222.051 140.232 222.379 140.15 222.625 139.986C222.875 139.818 223 139.596 223 139.318ZM225.543 140.432C225.543 140.244 225.598 140.088 225.707 139.963C225.82 139.838 225.988 139.775 226.211 139.775C226.434 139.775 226.602 139.838 226.715 139.963C226.832 140.088 226.891 140.244 226.891 140.432C226.891 140.611 226.832 140.762 226.715 140.883C226.602 141.004 226.434 141.064 226.211 141.064C225.988 141.064 225.82 141.004 225.707 140.883C225.598 140.762 225.543 140.611 225.543 140.432ZM228.104 140.432C228.104 140.244 228.158 140.088 228.268 139.963C228.381 139.838 228.549 139.775 228.771 139.775C228.994 139.775 229.162 139.838 229.275 139.963C229.393 140.088 229.451 140.244 229.451 140.432C229.451 140.611 229.393 140.762 229.275 140.883C229.162 141.004 228.994 141.064 228.771 141.064C228.549 141.064 228.381 141.004 228.268 140.883C228.158 140.762 228.104 140.611 228.104 140.432ZM230.535 140.432C230.535 140.244 230.59 140.088 230.699 139.963C230.812 139.838 230.98 139.775 231.203 139.775C231.426 139.775 231.594 139.838 231.707 139.963C231.824 140.088 231.883 140.244 231.883 140.432C231.883 140.611 231.824 140.762 231.707 140.883C231.594 141.004 231.426 141.064 231.203 141.064C230.98 141.064 230.812 141.004 230.699 140.883C230.59 140.762 230.535 140.611 230.535 140.432Z" fill="#AAAAAA"/>
<path d="M366.869 137.396H370.951V139.78H366.869V144.432H364.334V139.78H360.23V137.396H364.334V133.045H366.869V137.396Z" fill="#F3652B"/>
<path d="M123.673 186H132.327C132.926 186 133.225 186.637 132.801 187.011L128.476 190.827C128.214 191.058 127.786 191.058 127.524 190.827L123.199 187.011C122.775 186.637 123.074 186 123.673 186Z" fill="#F3652B"/>
<path d="M317.708 186H326.362C326.961 186 327.26 186.637 326.836 187.011L322.511 190.827C322.248 191.058 321.821 191.058 321.559 190.827L317.233 187.011C316.809 186.637 317.109 186 317.708 186Z" fill="#F3652B"/>
<path d="M505.727 186H514.381C514.98 186 515.279 186.637 514.856 187.011L510.53 190.827C510.268 191.058 509.841 191.058 509.578 190.827L505.253 187.011C504.829 186.637 505.128 186 505.727 186Z" fill="#F3652B"/>
</g>
<defs>
<filter id="filter0_d" x="97" y="115" width="290" height="44" filterUnits="userSpaceOnUse" color-interpolation-filters="sRGB">
<feFlood flood-opacity="0" result="BackgroundImageFix"/>
<feColorMatrix in="SourceAlpha" type="matrix" values="0 0 0 0 0 0 0 0 0 0 0 0 0 0 0 0 0 0 127 0" result="hardAlpha"/>
<feOffset/>
<feGaussianBlur stdDeviation="3.5"/>
<feColorMatrix type="matrix" values="0 0 0 0 0.117647 0 0 0 0 0.117647 0 0 0 0 0.117647 0 0 0 0.1 0"/>
<feBlend mode="normal" in2="BackgroundImageFix" result="effect1_dropShadow"/>
<feBlend mode="normal" in="SourceGraphic" in2="effect1_dropShadow" result="shape"/>
</filter>
<clipPath id="clip0">
<rect width="576" height="507" fill="white"/>
</clipPath>
</defs>
</svg>
