<svg  viewBox="0 0 641 115" fill="none" xmlns="http://www.w3.org/2000/svg">
<path fill-rule="evenodd" clip-rule="evenodd" d="M72.1804 24.5498C76.0989 24.5478 79.9299 25.708 83.189 27.8835C86.448 30.0591 88.9886 33.1522 90.4895 36.7719C91.9904 40.3915 92.3843 44.375 91.6211 48.2184C90.8579 52.0618 88.9717 55.5925 86.2017 58.364C83.4316 61.1355 79.9019 63.0231 76.0588 63.7883C72.2158 64.5535 68.2322 64.1618 64.6118 62.6627C60.9914 61.1636 57.8969 58.6247 55.7197 55.3667C53.5425 52.1087 52.3804 48.2782 52.3804 44.3597C52.3804 39.1075 54.4663 34.0703 58.1792 30.3555C61.8921 26.6407 66.9282 24.5525 72.1804 24.5498" fill="white"/>
<path d="M82.8303 76.1399C93.535 74.9124 103.457 69.9267 110.83 62.0699C110.853 62.0049 110.88 61.9414 110.91 61.8799C110.86 61.9499 110.8 62.0199 110.75 62.0999H97.0703C93.9951 68.2172 88.9906 73.1515 82.8303 76.1399V76.1399Z" fill="white"/>
<path d="M68.9405 3.09974C58.5805 4.73974 50.2405 9.81979 44.9405 17.6498C40.9983 23.6507 38.9115 30.6799 38.9405 37.8597C40.2277 33.2132 42.4611 28.8827 45.5005 25.1398C55.7005 12.6898 74.2604 8.73976 87.8104 17.9998C90.672 19.9807 93.2005 22.4044 95.3006 25.1798H110.011C109.811 24.7798 109.561 24.3397 109.261 23.8497C108.641 22.8497 107.13 20.2597 105.95 19.3597C100.001 11.1995 91.4122 5.34868 81.6404 2.79981C77.4127 2.33301 73.1415 2.43383 68.9405 3.09974V3.09974Z" fill="white"/>
<path d="M40.5803 54.63C35.9003 43.63 36.1203 30.57 41.8503 20.02C44.9184 14.2885 49.6776 9.64101 55.4805 6.70998C59.6572 4.61104 64.168 3.25738 68.8103 2.70998C71.7303 2.35998 78.3804 2.06998 81.4604 2.70998L80.9905 2.6L79.7705 2.31008L77.7705 1.92007H77.5005C71.341 0.911673 65.0367 1.2384 59.0144 2.8782C52.9921 4.51799 47.3925 7.43258 42.5945 11.4246C37.7965 15.4166 33.912 20.3927 31.2043 26.0164C28.4967 31.64 27.029 37.7798 26.9004 44.02C26.9004 44.47 26.9004 44.93 26.9004 45.38C26.9004 45.66 26.9004 45.94 26.9004 46.22C26.9004 46.22 26.9004 46.2201 26.9004 46.3001V46.4C26.9004 46.75 26.9004 47.09 26.9604 47.4C27.0204 47.71 26.9605 48.1601 27.0305 48.5401C27.4478 54.1844 29.0057 59.6852 31.6104 64.71C31.7904 65.06 31.9804 65.41 32.1704 65.71L32.4104 66.15C36.3828 73.2753 42.2687 79.1477 49.4031 83.1037C56.5375 87.0597 64.6359 88.9416 72.7837 88.537C80.9314 88.1324 88.8037 85.4573 95.511 80.8139C102.218 76.1705 107.494 69.7438 110.74 62.26C93.1805 86.77 52.4903 82.54 40.5803 54.63Z" fill="white"/>
<path d="M74.8604 96.42C84.5206 97.2318 94.2307 95.6197 103.11 91.73C106.435 90.328 109.639 88.6557 112.69 86.73C120.509 81.2245 126.846 73.8735 131.14 65.33C138.7 47.74 136.33 25.68 136.14 4C136.14 3.43 136.4 0.16 133 0H121.56C118.87 0 117.56 1.26 117.56 4V42.58C117.56 51.97 117.95 63.71 110.86 73.85C102.11 86.34 88.9704 93.85 74.8604 96.42Z" fill="white"/>
<path d="M104.18 94.3201C96.3254 97.7172 87.8496 99.4429 79.2917 99.3878C70.7338 99.3327 62.281 97.4979 54.4704 94C14.1104 76.49 20.3704 40.57 20.1504 4C20.1504 1.43 18.9504 0.1 16.7104 0H3.94039C1.35039 0 0.000451566 1.47 0.000451566 4V44.4301C-0.0431346 56.5412 3.06926 68.4547 9.03121 78.9968C14.9932 89.539 23.599 98.346 34.0005 104.55C44.562 110.959 56.6968 114.307 69.0505 114.22H69.3403C83.6285 114.241 97.5776 109.867 109.296 101.692C121.015 93.5171 129.936 81.9365 134.85 68.52C136.787 63.1439 138.004 57.5352 138.47 51.84C138.47 51.4 138.55 50.96 138.58 50.53L138.67 49.42C138.72 48.73 138.76 48.04 138.79 47.34C138.87 45.72 138.91 44.06 138.94 42.34C137.29 64.2 130.23 83.2601 104.18 94.3201Z" fill="white"/>
<path d="M216.07 91.0096C204.91 93.9496 178.14 96.3997 169.83 86.9397C165.97 82.5297 164.95 76.3997 164.95 70.5497V25.1396H180.12V68.8796C180.12 81.1596 189.24 83.0597 200.9 81.5397V25.6396H216.07V91.0096Z" fill="white"/>
<path d="M223.48 45.5303C226.473 44.7113 229.511 44.0735 232.58 43.6203C236.448 43.025 240.357 42.7308 244.271 42.7403C247.792 42.6346 251.302 43.1875 254.62 44.3703C257.163 45.3037 259.418 46.886 261.16 48.9602C262.817 51.0292 263.992 53.4409 264.6 56.0203C265.303 58.9982 265.639 62.0508 265.6 65.1103V92.6803H251.771V66.7803C251.771 62.327 251.18 59.1703 250 57.3103C248.82 55.4503 246.624 54.5236 243.41 54.5303C242.41 54.5303 241.41 54.5303 240.26 54.6703C239.11 54.8103 238.15 54.8703 237.26 54.9903V92.6803H223.48V45.5303Z" fill="white"/>
<path d="M286.39 92.6799H272.56V43.8599H286.39V92.6799ZM287.69 29.7499C287.75 30.8697 287.56 31.9887 287.135 33.0262C286.709 34.0638 286.059 34.994 285.23 35.7499C283.628 37.1603 281.566 37.9384 279.43 37.9384C277.295 37.9384 275.233 37.1603 273.63 35.7499C272.045 34.1554 271.155 31.9983 271.155 29.7499C271.155 27.5014 272.045 25.3444 273.63 23.7499C275.236 22.3454 277.297 21.5713 279.43 21.5713C281.564 21.5713 283.625 22.3454 285.23 23.7499C286.058 24.5066 286.707 25.437 287.133 26.4744C287.558 27.5117 287.748 28.6302 287.69 29.7499" fill="white"/>
<path d="M325.311 93.9799C314.851 93.9799 306.884 91.0699 301.411 85.2499C295.937 79.4299 293.197 71.1699 293.191 60.4699C293.111 55.6033 293.963 50.7663 295.701 46.2199C297.235 42.2564 299.574 38.654 302.571 35.64C305.518 32.7318 309.064 30.5001 312.961 29.0999C317.156 27.5817 321.589 26.8265 326.051 26.8699C328.537 26.8503 331.02 27.051 333.471 27.4699C335.448 27.8155 337.401 28.2831 339.321 28.8699C340.755 29.2983 342.153 29.84 343.501 30.4899C344.611 31.0499 345.421 31.49 345.911 31.79L341.731 43.4799C339.527 42.345 337.211 41.4435 334.821 40.79C331.886 40.0093 328.857 39.6359 325.821 39.68C323.594 39.6794 321.383 40.0546 319.281 40.79C317.146 41.5371 315.21 42.7615 313.621 44.3699C311.87 46.184 310.524 48.3481 309.671 50.7199C308.61 53.7615 308.109 56.9699 308.191 60.19C308.179 62.9907 308.515 65.782 309.191 68.4999C309.764 70.9114 310.841 73.1743 312.351 75.14C313.87 77.0469 315.829 78.5568 318.061 79.54C320.755 80.6977 323.669 81.2539 326.601 81.17C328.494 81.1807 330.385 81.0571 332.261 80.8C333.759 80.5856 335.244 80.2919 336.711 79.92C337.885 79.6215 339.035 79.2336 340.151 78.7599L342.841 77.55L346.841 89.15C344.131 90.6533 341.227 91.7771 338.211 92.4899C333.993 93.5411 329.657 94.0419 325.311 93.9799" fill="white"/>
<path d="M345.791 68.6395C345.712 64.7555 346.391 60.8934 347.791 57.2695C348.978 54.2402 350.759 51.4793 353.031 49.1495C355.154 47.0106 357.697 45.3353 360.501 44.2295C363.261 43.1241 366.207 42.5573 369.18 42.5596C376.107 42.5596 381.584 44.6796 385.61 48.9196C389.637 53.1596 391.637 59.3928 391.61 67.6195C391.61 68.4195 391.581 69.2995 391.521 70.2595C391.461 71.2595 391.4 72.0696 391.33 72.8196H359.96C360.085 74.1737 360.508 75.4832 361.2 76.6539C361.891 77.8247 362.834 78.8272 363.96 79.5895C366.307 81.2628 369.464 82.0995 373.43 82.0995C375.937 82.0993 378.438 81.865 380.9 81.3995C382.958 81.0516 384.971 80.4747 386.9 79.6796L388.761 90.9096C387.795 91.3683 386.791 91.7431 385.761 92.0295C384.404 92.4403 383.025 92.7742 381.63 93.0295C380.11 93.3095 378.481 93.5395 376.751 93.7295C375.023 93.9128 373.288 94.0063 371.551 94.0095C367.638 94.0779 363.748 93.3991 360.09 92.0095C357.041 90.8431 354.286 89.02 352.021 86.6696C349.865 84.3888 348.246 81.6557 347.281 78.6696C346.24 75.4393 345.723 72.0632 345.751 68.6696L345.791 68.6395ZM378.281 63.3495C378.219 62.1822 378.014 61.0269 377.67 59.9096C377.35 58.8159 376.816 57.7964 376.1 56.9096C375.356 56.0216 374.437 55.2965 373.4 54.7795C372.153 54.1851 370.782 53.8972 369.4 53.9396C368.025 53.9051 366.659 54.1748 365.4 54.7295C364.331 55.2179 363.38 55.9308 362.61 56.8196C361.859 57.7065 361.276 58.7232 360.89 59.8196C360.494 60.9511 360.2 62.1157 360.011 63.2996L378.281 63.3495Z" fill="white"/>
<path d="M412.621 82.7495C414.449 82.8614 416.282 82.6064 418.011 81.9995C418.535 81.7402 418.968 81.3257 419.249 80.8123C419.529 80.2988 419.645 79.7112 419.581 79.1295C419.535 78.5081 419.327 77.9096 418.975 77.395C418.624 76.8804 418.143 76.4679 417.581 76.1995C415.594 75.0753 413.513 74.1284 411.361 73.3695C409.201 72.5695 407.231 71.7295 405.471 70.8695C403.816 70.0776 402.297 69.0279 400.971 67.7595C399.721 66.5353 398.74 65.064 398.091 63.4396C397.377 61.5219 397.037 59.4851 397.091 57.4396C397.006 55.3528 397.425 53.2764 398.313 51.386C399.201 49.4956 400.531 47.8469 402.191 46.5795C405.604 43.9128 410.271 42.5795 416.191 42.5795C419.056 42.5679 421.916 42.8325 424.731 43.3695C426.939 43.7511 429.111 44.3232 431.221 45.0795L428.811 55.8495C427.091 55.262 425.342 54.7647 423.571 54.3595C421.481 53.9069 419.348 53.6889 417.211 53.7095C412.884 53.7095 410.717 54.9161 410.711 57.3295C410.704 57.8398 410.799 58.3465 410.991 58.8196C411.245 59.3259 411.628 59.7568 412.101 60.0696C412.823 60.5663 413.585 61.0011 414.381 61.3695C415.577 61.9475 416.802 62.4648 418.051 62.9196C420.63 63.846 423.139 64.9554 425.561 66.2395C427.305 67.1542 428.889 68.3464 430.251 69.7695C431.362 70.9763 432.186 72.419 432.661 73.9895C433.156 75.7355 433.392 77.5448 433.361 79.3595C433.361 84.1728 431.551 87.8196 427.931 90.2996C424.311 92.7796 419.191 94.0128 412.571 93.9995C408.935 94.0775 405.303 93.7013 401.761 92.8795C399.719 92.4058 397.714 91.7876 395.761 91.0295L398.081 79.7996C400.431 80.7218 402.852 81.4508 405.321 81.9795C407.73 82.4959 410.187 82.7607 412.651 82.7695" fill="white"/>
<path d="M480.34 91.0104C477.347 91.8233 474.309 92.4578 471.24 92.9104C467.369 93.511 463.457 93.8052 459.54 93.7904C456.016 93.8928 452.504 93.326 449.19 92.1204C446.64 91.1514 444.386 89.5351 442.65 87.4304C440.98 85.3247 439.795 82.8765 439.18 80.2604C438.481 77.248 438.145 74.1627 438.18 71.0704V43.8604H452.01V69.3804C452.01 73.8404 452.59 77.0504 453.77 79.0304C454.95 81.0104 457.14 82.0304 460.36 82.0304C461.36 82.0304 462.36 82.0304 463.52 81.9004C464.68 81.7704 465.62 81.6904 466.52 81.5704V43.8604H480.36L480.34 91.0104Z" fill="white"/>
<path d="M514.56 66.7795C514.56 62.3262 513.99 59.1695 512.85 57.3095C511.7 55.4595 509.74 54.5295 506.95 54.5295C506.09 54.5295 505.19 54.5295 504.26 54.6695C503.33 54.8095 502.44 54.8695 501.57 54.9895V92.6795H487.74V45.5295C488.92 45.2195 490.29 44.8895 491.87 44.5295C493.45 44.1695 495.12 43.8794 496.87 43.5994C498.62 43.3194 500.45 43.1094 502.3 42.9494C504.15 42.7894 505.99 42.7194 507.78 42.7194C510.703 42.6192 513.619 43.0775 516.37 44.0695C518.341 44.8358 520.175 45.9165 521.8 47.2695C525.906 44.4453 530.739 42.8654 535.72 42.7194C538.998 42.6064 542.264 43.161 545.32 44.3494C547.693 45.3182 549.764 46.9028 551.32 48.9395C552.86 51.0316 553.906 53.4453 554.38 55.9995C554.966 58.9934 555.248 62.0389 555.22 65.0894V92.6595H541.39V66.7595C541.39 62.3061 540.817 59.1495 539.67 57.2895C538.53 55.4395 536.56 54.5095 533.78 54.5095C531.522 54.6939 529.333 55.377 527.37 56.5095C527.818 57.9732 528.1 59.4827 528.21 61.0095C528.33 62.5895 528.39 64.2795 528.39 66.0695V92.7094H514.56V66.7795Z" fill="white"/>
<path d="M581.44 83.0202C582.807 83.0202 584.107 82.9902 585.34 82.9302C586.345 82.8971 587.347 82.8036 588.34 82.6502V72.1602C587.79 72.0402 586.95 71.9202 585.84 71.7902C584.821 71.6759 583.796 71.6158 582.77 71.6101C581.547 71.6069 580.324 71.6837 579.11 71.8401C578.069 71.9667 577.055 72.264 576.11 72.7201C575.295 73.1179 574.604 73.7297 574.11 74.4901C573.589 75.3209 573.331 76.29 573.37 77.2702C573.37 79.4402 574.09 80.9402 575.55 81.7702C577.409 82.6991 579.476 83.1299 581.55 83.0202H581.44ZM580.33 42.5602C583.786 42.4689 587.235 42.9383 590.54 43.9501C593.014 44.7301 595.259 46.1033 597.08 47.9501C598.746 49.7333 599.945 51.9011 600.57 54.2602C601.271 56.9565 601.607 59.7345 601.57 62.5202V91.2602C599.57 91.6902 596.83 92.2002 593.3 92.7902C589.064 93.4251 584.784 93.7194 580.5 93.6702C577.615 93.6976 574.736 93.4159 571.91 92.8301C569.541 92.358 567.286 91.4309 565.27 90.1001C563.43 88.84 561.957 87.1148 561 85.1001C559.946 82.7372 559.44 80.1663 559.52 77.5801C559.44 75.0568 560.034 72.5578 561.24 70.3401C562.342 68.398 563.922 66.7698 565.83 65.6101C567.863 64.3866 570.093 63.5239 572.42 63.0602C574.952 62.5262 577.533 62.2613 580.12 62.2702C581.717 62.2568 583.313 62.3335 584.9 62.5001C586.045 62.6037 587.18 62.8044 588.29 63.1001V61.8002C588.338 60.7616 588.174 59.7241 587.808 58.751C587.441 57.7779 586.881 56.8897 586.16 56.1402C584.74 54.7202 582.264 54.0102 578.73 54.0102C576.388 54.0067 574.048 54.1772 571.73 54.5202C569.706 54.7948 567.716 55.2773 565.79 55.9601L564.03 44.8202C564.83 44.5702 565.84 44.3102 567.03 44.0302C568.22 43.7502 569.56 43.5002 570.98 43.2902C572.4 43.0802 573.9 42.8801 575.48 42.7301C577.069 42.573 578.664 42.4962 580.26 42.5001" fill="white"/>
<path d="M638.581 56.1098C637.341 55.7998 635.891 55.4698 634.211 55.1098C632.439 54.7598 630.636 54.589 628.831 54.5998C627.79 54.6127 626.751 54.6929 625.721 54.8398C624.796 54.9389 623.881 55.106 622.981 55.3398V92.6598H609.181V46.4299C612.062 45.4557 614.993 44.6345 617.961 43.9698C621.662 43.1633 625.443 42.7743 629.231 42.8099C629.971 42.8099 630.871 42.8097 631.921 42.9497C632.971 43.0897 634.031 43.1699 635.081 43.3199C636.131 43.4699 637.181 43.6698 638.241 43.8798C639.16 44.0602 640.06 44.3247 640.931 44.6698L638.581 56.1098Z" fill="white"/>
</svg>
