<svg width="43" height="45" viewBox="0 0 43 45" fill="none" xmlns="http://www.w3.org/2000/svg">
<path fill-rule="evenodd" clip-rule="evenodd" d="M24.9689 19.1412H28.4378V15.7008H24.9689V19.1412ZM26.1491 24.7541H23.8595V27.0262H18.2522V24.7541H15.9659V20.2483H18.2522V17.974H23.8595V20.2483H26.1491V24.7541ZM24.97 29.2971H28.4389V25.8567H24.97V29.2971ZM13.6749 29.2971H17.1437V25.8567H13.6749V29.2971ZM13.6749 19.1412H17.1437V15.7008H13.6749V19.1412ZM18.2522 16.8714V14.5983H12.5693V20.2483H14.8578V24.7541H12.5693V30.4042H18.2522V28.131H23.8596V30.4042H29.5436V24.7541H27.2573V20.2483H29.5436V14.5983H23.8596V16.8714H18.2522Z" fill="#F3652B"/>
<mask id="mask0" style="mask-type:alpha" maskUnits="userSpaceOnUse" x="0" y="0" width="43" height="45">
<path fill-rule="evenodd" clip-rule="evenodd" d="M0 0H42.1149V45H0V0Z" fill="white"/>
</mask>
<g mask="url(#mask0)">
<path fill-rule="evenodd" clip-rule="evenodd" d="M38.5826 23.8582C37.1668 28.4943 35.2122 32.4571 32.7726 35.6358C29.9958 39.2568 22.3715 43.2382 21.0553 43.8492C19.7403 43.236 12.1105 39.2481 9.34022 35.6358C6.90171 32.4582 4.94719 28.4954 3.53029 23.8582C1.48707 17.1669 1.16405 9.73855 1.11369 7.80374C3.53686 7.52452 13.8865 6.08025 20.5659 1.26565C20.8582 1.05323 21.2557 1.05323 21.5481 1.26565C28.2329 6.08463 38.564 7.36465 40.9981 7.60555C40.951 9.56993 40.6411 17.1143 38.5826 23.8582ZM42.0075 6.57957L41.6013 6.54891C41.1086 6.51278 29.4351 5.58862 22.1984 0.368884C21.5162 -0.122759 20.5975 -0.123854 19.9132 0.369979C12.6885 5.58424 0.996426 6.71316 0.397475 6.76791L0 6.90697V7.30882C0 7.39642 0.0667932 16.304 2.47135 24.1802C3.92657 28.9422 5.94023 33.0232 8.45976 36.3092C11.5366 40.3168 20.4114 45 21.0552 45C21.6991 45 30.576 40.3168 33.6529 36.3092C36.1713 33.021 38.1861 28.9411 39.6424 24.1802C42.047 16.3007 42.1149 7.19057 42.1149 6.99347L42.0075 6.57957Z" fill="#F3652B"/>
</g>
</svg>
