<svg  viewBox="0 0 426 346" fill="none" xmlns="http://www.w3.org/2000/svg">
<path d="M211.983 47.319C211.981 46.9002 211.979 47.201 211.983 47.319ZM211.983 47.319C211.987 47.4294 211.996 47.3794 212.017 46.428C212.27 34.7766 214.191 31.4175 227.902 29.2827C227.902 29.2827 229.854 31.4278 234.402 31.4278C238.95 31.4278 240.901 29.2827 240.901 29.2827C254.763 31.441 256.575 34.8507 256.794 46.8168C256.808 47.5822 256.816 47.7144 256.82 47.6461M211.983 47.319C211.984 47.5259 211.985 47.9087 211.985 48.5762C211.985 48.5762 215.285 54.3158 234.402 54.3158C253.518 54.3158 256.819 48.5762 256.819 48.5762C256.819 48.1473 256.819 47.849 256.82 47.6461M256.82 47.6461C256.826 47.5314 256.822 46.8506 256.82 47.6461ZM234.402 26.8751C240.957 26.8751 246.271 21.3067 246.271 14.4376C246.271 7.56843 244.526 2 234.402 2C224.278 2 222.532 7.56843 222.532 14.4376C222.532 21.3067 227.847 26.8751 234.402 26.8751Z" stroke="#646464" stroke-width="2.03828"/>
<path d="M357.208 284.065C354.68 284.065 352.622 286.158 352.622 288.729C352.622 291.301 354.68 293.393 357.208 293.393C359.737 293.393 361.794 291.301 361.794 288.729C361.794 286.158 359.737 284.065 357.208 284.065ZM357.208 291.32C355.804 291.32 354.66 290.158 354.66 288.729C354.66 287.3 355.804 286.138 357.208 286.138C358.613 286.138 359.756 287.3 359.756 288.729C359.756 290.158 358.613 291.32 357.208 291.32Z" fill="#646464"/>
<path d="M397.464 288.211C398.027 288.211 398.483 287.747 398.483 287.175C398.483 286.602 398.027 286.138 397.464 286.138C396.901 286.138 396.445 286.602 396.445 287.175C396.445 287.747 396.901 288.211 397.464 288.211Z" fill="#646464"/>
<path d="M393.388 288.211C393.951 288.211 394.407 287.747 394.407 287.175C394.407 286.602 393.951 286.138 393.388 286.138C392.825 286.138 392.369 286.602 392.369 287.175C392.369 287.747 392.825 288.211 393.388 288.211Z" fill="#646464"/>
<path d="M399.503 291.32C400.065 291.32 400.522 290.856 400.522 290.284C400.522 289.711 400.065 289.247 399.503 289.247C398.94 289.247 398.483 289.711 398.483 290.284C398.483 290.856 398.94 291.32 399.503 291.32Z" fill="#646464"/>
<path d="M395.426 291.32C395.989 291.32 396.445 290.856 396.445 290.284C396.445 289.711 395.989 289.247 395.426 289.247C394.863 289.247 394.407 289.711 394.407 290.284C394.407 290.856 394.863 291.32 395.426 291.32Z" fill="#646464"/>
<path d="M389.311 288.211C389.874 288.211 390.33 287.747 390.33 287.175C390.33 286.602 389.874 286.138 389.311 286.138C388.748 286.138 388.292 286.602 388.292 287.175C388.292 287.747 388.748 288.211 389.311 288.211Z" fill="#646464"/>
<path d="M391.349 291.32C391.912 291.32 392.369 290.856 392.369 290.284C392.369 289.711 391.912 289.247 391.349 289.247C390.787 289.247 390.33 289.711 390.33 290.284C390.33 290.856 390.787 291.32 391.349 291.32Z" fill="#646464"/>
<path d="M385.235 288.211C385.797 288.211 386.254 287.747 386.254 287.175C386.254 286.602 385.797 286.138 385.235 286.138C384.672 286.138 384.215 286.602 384.215 287.175C384.215 287.747 384.672 288.211 385.235 288.211Z" fill="#646464"/>
<path d="M387.273 291.32C387.836 291.32 388.292 290.856 388.292 290.284C388.292 289.711 387.836 289.247 387.273 289.247C386.71 289.247 386.254 289.711 386.254 290.284C386.254 290.856 386.71 291.32 387.273 291.32Z" fill="#646464"/>
<path d="M381.158 288.211C381.721 288.211 382.177 287.747 382.177 287.175C382.177 286.602 381.721 286.138 381.158 286.138C380.595 286.138 380.139 286.602 380.139 287.175C380.139 287.747 380.595 288.211 381.158 288.211Z" fill="#646464"/>
<path d="M383.196 291.32C383.759 291.32 384.215 290.856 384.215 290.284C384.215 289.711 383.759 289.247 383.196 289.247C382.633 289.247 382.177 289.711 382.177 290.284C382.177 290.856 382.633 291.32 383.196 291.32Z" fill="#646464"/>
<path d="M407.656 294.836V282.623C407.656 279.989 405.549 277.847 402.959 277.847H351.204C348.614 277.847 346.507 279.989 346.507 282.623V294.835C346.507 296.357 347.224 297.699 348.318 298.574C347.224 299.45 346.507 300.793 346.507 302.315V314.527C346.507 316.049 347.224 317.391 348.318 318.266C347.224 319.142 346.507 320.485 346.507 322.006V334.218C346.507 336.853 348.614 338.995 351.204 338.995H402.958C405.548 338.995 407.655 336.853 407.655 334.219V322.006C407.655 320.484 406.938 319.142 405.844 318.267C406.939 317.392 407.656 316.049 407.656 314.528V302.315C407.656 300.792 406.939 299.45 405.845 298.575C406.939 297.7 407.656 296.357 407.656 294.836ZM405.617 322.006V334.218C405.617 335.709 404.425 336.921 402.959 336.921H351.204C349.738 336.922 348.546 335.71 348.546 334.219V322.006C348.546 320.516 349.738 319.303 351.204 319.303H402.958C404.425 319.303 405.617 320.516 405.617 322.006ZM405.617 302.315V314.527C405.617 316.017 404.425 317.23 402.959 317.23H351.204C349.738 317.231 348.546 316.018 348.546 314.528V302.315C348.546 300.824 349.738 299.612 351.204 299.612H402.958C404.425 299.612 405.617 300.824 405.617 302.315ZM351.204 297.539C349.738 297.539 348.546 296.326 348.546 294.836V282.623C348.546 281.132 349.738 279.92 351.204 279.92H402.958C404.425 279.92 405.617 281.132 405.617 282.623V294.835C405.617 296.325 404.425 297.538 402.959 297.538L351.204 297.539Z" fill="#646464"/>
<path d="M357.208 313.085C359.737 313.085 361.794 310.992 361.794 308.421C361.794 305.85 359.737 303.757 357.208 303.757C354.68 303.757 352.622 305.85 352.622 308.421C352.622 310.992 354.68 313.085 357.208 313.085ZM357.208 305.83C358.613 305.83 359.756 306.992 359.756 308.421C359.756 309.85 358.613 311.012 357.208 311.012C355.804 311.012 354.66 309.85 354.66 308.421C354.66 306.992 355.804 305.83 357.208 305.83Z" fill="#646464"/>
<path d="M397.464 307.903C398.027 307.903 398.483 307.439 398.483 306.866C398.483 306.294 398.027 305.83 397.464 305.83C396.901 305.83 396.445 306.294 396.445 306.866C396.445 307.439 396.901 307.903 397.464 307.903Z" fill="#646464"/>
<path d="M393.388 307.903C393.951 307.903 394.407 307.439 394.407 306.866C394.407 306.294 393.951 305.83 393.388 305.83C392.825 305.83 392.369 306.294 392.369 306.866C392.369 307.439 392.825 307.903 393.388 307.903Z" fill="#646464"/>
<path d="M399.503 311.012C400.065 311.012 400.522 310.548 400.522 309.976C400.522 309.403 400.065 308.939 399.503 308.939C398.94 308.939 398.483 309.403 398.483 309.976C398.483 310.548 398.94 311.012 399.503 311.012Z" fill="#646464"/>
<path d="M395.426 311.012C395.989 311.012 396.445 310.548 396.445 309.976C396.445 309.403 395.989 308.939 395.426 308.939C394.863 308.939 394.407 309.403 394.407 309.976C394.407 310.548 394.863 311.012 395.426 311.012Z" fill="#646464"/>
<path d="M389.311 307.903C389.874 307.903 390.33 307.439 390.33 306.866C390.33 306.294 389.874 305.83 389.311 305.83C388.748 305.83 388.292 306.294 388.292 306.866C388.292 307.439 388.748 307.903 389.311 307.903Z" fill="#646464"/>
<path d="M391.349 311.012C391.912 311.012 392.369 310.548 392.369 309.976C392.369 309.403 391.912 308.939 391.349 308.939C390.787 308.939 390.33 309.403 390.33 309.976C390.33 310.548 390.787 311.012 391.349 311.012Z" fill="#646464"/>
<path d="M385.235 307.903C385.797 307.903 386.254 307.439 386.254 306.866C386.254 306.294 385.797 305.83 385.235 305.83C384.672 305.83 384.215 306.294 384.215 306.866C384.215 307.439 384.672 307.903 385.235 307.903Z" fill="#646464"/>
<path d="M387.273 311.012C387.836 311.012 388.292 310.548 388.292 309.976C388.292 309.403 387.836 308.939 387.273 308.939C386.71 308.939 386.254 309.403 386.254 309.976C386.254 310.548 386.71 311.012 387.273 311.012Z" fill="#646464"/>
<path d="M381.158 307.903C381.721 307.903 382.177 307.439 382.177 306.866C382.177 306.294 381.721 305.83 381.158 305.83C380.595 305.83 380.139 306.294 380.139 306.866C380.139 307.439 380.595 307.903 381.158 307.903Z" fill="#646464"/>
<path d="M383.196 311.012C383.759 311.012 384.215 310.548 384.215 309.976C384.215 309.403 383.759 308.939 383.196 308.939C382.633 308.939 382.177 309.403 382.177 309.976C382.177 310.548 382.633 311.012 383.196 311.012Z" fill="#646464"/>
<path d="M357.208 332.777C359.737 332.777 361.794 330.684 361.794 328.113C361.794 325.542 359.737 323.449 357.208 323.449C354.68 323.449 352.622 325.542 352.622 328.113C352.622 330.684 354.68 332.777 357.208 332.777ZM357.208 325.522C358.613 325.522 359.756 326.684 359.756 328.113C359.756 329.542 358.613 330.704 357.208 330.704C355.804 330.704 354.66 329.542 354.66 328.113C354.66 326.684 355.804 325.522 357.208 325.522Z" fill="#646464"/>
<path d="M397.464 327.595C398.027 327.595 398.483 327.131 398.483 326.558C398.483 325.986 398.027 325.522 397.464 325.522C396.901 325.522 396.445 325.986 396.445 326.558C396.445 327.131 396.901 327.595 397.464 327.595Z" fill="#646464"/>
<path d="M393.388 327.595C393.951 327.595 394.407 327.131 394.407 326.558C394.407 325.986 393.951 325.522 393.388 325.522C392.825 325.522 392.369 325.986 392.369 326.558C392.369 327.131 392.825 327.595 393.388 327.595Z" fill="#646464"/>
<path d="M399.503 330.704C400.065 330.704 400.522 330.24 400.522 329.668C400.522 329.095 400.065 328.631 399.503 328.631C398.94 328.631 398.483 329.095 398.483 329.668C398.483 330.24 398.94 330.704 399.503 330.704Z" fill="#646464"/>
<path d="M395.426 330.704C395.989 330.704 396.445 330.24 396.445 329.668C396.445 329.095 395.989 328.631 395.426 328.631C394.863 328.631 394.407 329.095 394.407 329.668C394.407 330.24 394.863 330.704 395.426 330.704Z" fill="#646464"/>
<path d="M389.311 327.595C389.874 327.595 390.33 327.131 390.33 326.558C390.33 325.986 389.874 325.522 389.311 325.522C388.748 325.522 388.292 325.986 388.292 326.558C388.292 327.131 388.748 327.595 389.311 327.595Z" fill="#646464"/>
<path d="M391.349 330.704C391.912 330.704 392.369 330.24 392.369 329.668C392.369 329.095 391.912 328.631 391.349 328.631C390.787 328.631 390.33 329.095 390.33 329.668C390.33 330.24 390.787 330.704 391.349 330.704Z" fill="#646464"/>
<path d="M385.235 327.595C385.797 327.595 386.254 327.131 386.254 326.558C386.254 325.986 385.797 325.522 385.235 325.522C384.672 325.522 384.215 325.986 384.215 326.558C384.215 327.131 384.672 327.595 385.235 327.595Z" fill="#646464"/>
<path d="M387.273 330.704C387.836 330.704 388.292 330.24 388.292 329.668C388.292 329.095 387.836 328.631 387.273 328.631C386.71 328.631 386.254 329.095 386.254 329.668C386.254 330.24 386.71 330.704 387.273 330.704Z" fill="#646464"/>
<path d="M381.158 327.595C381.721 327.595 382.177 327.131 382.177 326.558C382.177 325.986 381.721 325.522 381.158 325.522C380.595 325.522 380.139 325.986 380.139 326.558C380.139 327.131 380.595 327.595 381.158 327.595Z" fill="#646464"/>
<path d="M383.196 330.704C383.759 330.704 384.215 330.24 384.215 329.668C384.215 329.095 383.759 328.631 383.196 328.631C382.633 328.631 382.177 329.095 382.177 329.668C382.177 330.24 382.633 330.704 383.196 330.704Z" fill="#646464"/>
<path d="M183.954 284.065C181.426 284.065 179.368 286.158 179.368 288.729C179.368 291.301 181.426 293.393 183.954 293.393C186.483 293.393 188.541 291.301 188.541 288.729C188.541 286.158 186.483 284.065 183.954 284.065ZM183.954 291.32C182.55 291.32 181.407 290.158 181.407 288.729C181.407 287.3 182.55 286.138 183.954 286.138C185.359 286.138 186.502 287.3 186.502 288.729C186.502 290.158 185.359 291.32 183.954 291.32Z" fill="#646464"/>
<path d="M224.21 288.211C224.773 288.211 225.229 287.747 225.229 287.175C225.229 286.602 224.773 286.138 224.21 286.138C223.648 286.138 223.191 286.602 223.191 287.175C223.191 287.747 223.648 288.211 224.21 288.211Z" fill="#646464"/>
<path d="M220.134 288.211C220.697 288.211 221.153 287.747 221.153 287.175C221.153 286.602 220.697 286.138 220.134 286.138C219.571 286.138 219.115 286.602 219.115 287.175C219.115 287.747 219.571 288.211 220.134 288.211Z" fill="#646464"/>
<path d="M226.249 291.32C226.811 291.32 227.268 290.856 227.268 290.284C227.268 289.711 226.811 289.247 226.249 289.247C225.686 289.247 225.229 289.711 225.229 290.284C225.229 290.856 225.686 291.32 226.249 291.32Z" fill="#646464"/>
<path d="M222.172 291.32C222.735 291.32 223.191 290.856 223.191 290.284C223.191 289.711 222.735 289.247 222.172 289.247C221.609 289.247 221.153 289.711 221.153 290.284C221.153 290.856 221.609 291.32 222.172 291.32Z" fill="#646464"/>
<path d="M216.057 288.211C216.62 288.211 217.076 287.747 217.076 287.175C217.076 286.602 216.62 286.138 216.057 286.138C215.494 286.138 215.038 286.602 215.038 287.175C215.038 287.747 215.494 288.211 216.057 288.211Z" fill="#646464"/>
<path d="M218.096 291.32C218.658 291.32 219.115 290.856 219.115 290.284C219.115 289.711 218.658 289.247 218.096 289.247C217.533 289.247 217.076 289.711 217.076 290.284C217.076 290.856 217.533 291.32 218.096 291.32Z" fill="#646464"/>
<path d="M211.981 288.211C212.544 288.211 213 287.747 213 287.175C213 286.602 212.544 286.138 211.981 286.138C211.418 286.138 210.962 286.602 210.962 287.175C210.962 287.747 211.418 288.211 211.981 288.211Z" fill="#646464"/>
<path d="M214.019 291.32C214.582 291.32 215.038 290.856 215.038 290.284C215.038 289.711 214.582 289.247 214.019 289.247C213.456 289.247 213 289.711 213 290.284C213 290.856 213.456 291.32 214.019 291.32Z" fill="#646464"/>
<path d="M207.904 288.211C208.467 288.211 208.923 287.747 208.923 287.175C208.923 286.602 208.467 286.138 207.904 286.138C207.341 286.138 206.885 286.602 206.885 287.175C206.885 287.747 207.341 288.211 207.904 288.211Z" fill="#646464"/>
<path d="M209.942 291.32C210.505 291.32 210.962 290.856 210.962 290.284C210.962 289.711 210.505 289.247 209.942 289.247C209.38 289.247 208.923 289.711 208.923 290.284C208.923 290.856 209.38 291.32 209.942 291.32Z" fill="#646464"/>
<path d="M234.402 294.836V282.623C234.402 279.989 232.295 277.847 229.706 277.847H177.95C175.36 277.847 173.253 279.989 173.253 282.623V294.835C173.253 296.357 173.97 297.699 175.064 298.574C173.97 299.45 173.253 300.793 173.253 302.315V314.527C173.253 316.049 173.97 317.391 175.064 318.266C173.97 319.142 173.253 320.485 173.253 322.006V334.218C173.253 336.853 175.36 338.995 177.95 338.995H229.705C232.294 338.995 234.401 336.853 234.401 334.219V322.006C234.401 320.484 233.684 319.142 232.59 318.267C233.685 317.392 234.402 316.049 234.402 314.528V302.315C234.402 300.792 233.685 299.45 232.591 298.575C233.685 297.7 234.402 296.357 234.402 294.836ZM232.363 322.006V334.218C232.363 335.709 231.171 336.921 229.706 336.921H177.95C176.484 336.922 175.292 335.71 175.292 334.219V322.006C175.292 320.516 176.484 319.303 177.95 319.303H229.705C231.171 319.303 232.363 320.516 232.363 322.006ZM232.363 302.315V314.527C232.363 316.017 231.171 317.23 229.706 317.23H177.95C176.484 317.231 175.292 316.018 175.292 314.528V302.315C175.292 300.824 176.484 299.612 177.95 299.612H229.705C231.171 299.612 232.363 300.824 232.363 302.315ZM177.95 297.539C176.484 297.539 175.292 296.326 175.292 294.836V282.623C175.292 281.132 176.484 279.92 177.95 279.92H229.705C231.171 279.92 232.363 281.132 232.363 282.623V294.835C232.363 296.325 231.171 297.538 229.706 297.538L177.95 297.539Z" fill="#646464"/>
<path d="M183.954 313.085C186.483 313.085 188.541 310.992 188.541 308.421C188.541 305.85 186.483 303.757 183.954 303.757C181.426 303.757 179.368 305.85 179.368 308.421C179.368 310.992 181.426 313.085 183.954 313.085ZM183.954 305.83C185.359 305.83 186.502 306.992 186.502 308.421C186.502 309.85 185.359 311.012 183.954 311.012C182.55 311.012 181.407 309.85 181.407 308.421C181.407 306.992 182.55 305.83 183.954 305.83Z" fill="#646464"/>
<path d="M224.21 307.903C224.773 307.903 225.229 307.439 225.229 306.866C225.229 306.294 224.773 305.83 224.21 305.83C223.648 305.83 223.191 306.294 223.191 306.866C223.191 307.439 223.648 307.903 224.21 307.903Z" fill="#646464"/>
<path d="M220.134 307.903C220.697 307.903 221.153 307.439 221.153 306.866C221.153 306.294 220.697 305.83 220.134 305.83C219.571 305.83 219.115 306.294 219.115 306.866C219.115 307.439 219.571 307.903 220.134 307.903Z" fill="#646464"/>
<path d="M226.249 311.012C226.811 311.012 227.268 310.548 227.268 309.976C227.268 309.403 226.811 308.939 226.249 308.939C225.686 308.939 225.229 309.403 225.229 309.976C225.229 310.548 225.686 311.012 226.249 311.012Z" fill="#646464"/>
<path d="M222.172 311.012C222.735 311.012 223.191 310.548 223.191 309.976C223.191 309.403 222.735 308.939 222.172 308.939C221.609 308.939 221.153 309.403 221.153 309.976C221.153 310.548 221.609 311.012 222.172 311.012Z" fill="#646464"/>
<path d="M216.057 307.903C216.62 307.903 217.076 307.439 217.076 306.866C217.076 306.294 216.62 305.83 216.057 305.83C215.494 305.83 215.038 306.294 215.038 306.866C215.038 307.439 215.494 307.903 216.057 307.903Z" fill="#646464"/>
<path d="M218.096 311.012C218.658 311.012 219.115 310.548 219.115 309.976C219.115 309.403 218.658 308.939 218.096 308.939C217.533 308.939 217.076 309.403 217.076 309.976C217.076 310.548 217.533 311.012 218.096 311.012Z" fill="#646464"/>
<path d="M211.981 307.903C212.544 307.903 213 307.439 213 306.866C213 306.294 212.544 305.83 211.981 305.83C211.418 305.83 210.962 306.294 210.962 306.866C210.962 307.439 211.418 307.903 211.981 307.903Z" fill="#646464"/>
<path d="M214.019 311.012C214.582 311.012 215.038 310.548 215.038 309.976C215.038 309.403 214.582 308.939 214.019 308.939C213.456 308.939 213 309.403 213 309.976C213 310.548 213.456 311.012 214.019 311.012Z" fill="#646464"/>
<path d="M207.904 307.903C208.467 307.903 208.923 307.439 208.923 306.866C208.923 306.294 208.467 305.83 207.904 305.83C207.341 305.83 206.885 306.294 206.885 306.866C206.885 307.439 207.341 307.903 207.904 307.903Z" fill="#646464"/>
<path d="M209.942 311.012C210.505 311.012 210.962 310.548 210.962 309.976C210.962 309.403 210.505 308.939 209.942 308.939C209.38 308.939 208.923 309.403 208.923 309.976C208.923 310.548 209.38 311.012 209.942 311.012Z" fill="#646464"/>
<path d="M183.954 332.777C186.483 332.777 188.541 330.684 188.541 328.113C188.541 325.542 186.483 323.449 183.954 323.449C181.426 323.449 179.368 325.542 179.368 328.113C179.368 330.684 181.426 332.777 183.954 332.777ZM183.954 325.522C185.359 325.522 186.502 326.684 186.502 328.113C186.502 329.542 185.359 330.704 183.954 330.704C182.55 330.704 181.407 329.542 181.407 328.113C181.407 326.684 182.55 325.522 183.954 325.522Z" fill="#646464"/>
<path d="M224.21 327.595C224.773 327.595 225.229 327.131 225.229 326.558C225.229 325.986 224.773 325.522 224.21 325.522C223.648 325.522 223.191 325.986 223.191 326.558C223.191 327.131 223.648 327.595 224.21 327.595Z" fill="#646464"/>
<path d="M220.134 327.595C220.697 327.595 221.153 327.131 221.153 326.558C221.153 325.986 220.697 325.522 220.134 325.522C219.571 325.522 219.115 325.986 219.115 326.558C219.115 327.131 219.571 327.595 220.134 327.595Z" fill="#646464"/>
<path d="M226.249 330.704C226.811 330.704 227.268 330.24 227.268 329.668C227.268 329.095 226.811 328.631 226.249 328.631C225.686 328.631 225.229 329.095 225.229 329.668C225.229 330.24 225.686 330.704 226.249 330.704Z" fill="#646464"/>
<path d="M222.172 330.704C222.735 330.704 223.191 330.24 223.191 329.668C223.191 329.095 222.735 328.631 222.172 328.631C221.609 328.631 221.153 329.095 221.153 329.668C221.153 330.24 221.609 330.704 222.172 330.704Z" fill="#646464"/>
<path d="M216.057 327.595C216.62 327.595 217.076 327.131 217.076 326.558C217.076 325.986 216.62 325.522 216.057 325.522C215.494 325.522 215.038 325.986 215.038 326.558C215.038 327.131 215.494 327.595 216.057 327.595Z" fill="#646464"/>
<path d="M218.096 330.704C218.658 330.704 219.115 330.24 219.115 329.668C219.115 329.095 218.658 328.631 218.096 328.631C217.533 328.631 217.076 329.095 217.076 329.668C217.076 330.24 217.533 330.704 218.096 330.704Z" fill="#646464"/>
<path d="M211.981 327.595C212.544 327.595 213 327.131 213 326.558C213 325.986 212.544 325.522 211.981 325.522C211.418 325.522 210.962 325.986 210.962 326.558C210.962 327.131 211.418 327.595 211.981 327.595Z" fill="#646464"/>
<path d="M214.019 330.704C214.582 330.704 215.038 330.24 215.038 329.668C215.038 329.095 214.582 328.631 214.019 328.631C213.456 328.631 213 329.095 213 329.668C213 330.24 213.456 330.704 214.019 330.704Z" fill="#646464"/>
<path d="M207.904 327.595C208.467 327.595 208.923 327.131 208.923 326.558C208.923 325.986 208.467 325.522 207.904 325.522C207.341 325.522 206.885 325.986 206.885 326.558C206.885 327.131 207.341 327.595 207.904 327.595Z" fill="#646464"/>
<path d="M209.942 330.704C210.505 330.704 210.962 330.24 210.962 329.668C210.962 329.095 210.505 328.631 209.942 328.631C209.38 328.631 208.923 329.095 208.923 329.668C208.923 330.24 209.38 330.704 209.942 330.704Z" fill="#646464"/>
<path d="M10.701 284.065C8.17247 284.065 6.11483 286.158 6.11483 288.729C6.11483 291.301 8.17247 293.393 10.701 293.393C13.2294 293.393 15.2871 291.301 15.2871 288.729C15.2871 286.158 13.2294 284.065 10.701 284.065ZM10.701 291.32C9.29658 291.32 8.15311 290.158 8.15311 288.729C8.15311 287.3 9.29658 286.138 10.701 286.138C12.1053 286.138 13.2488 287.3 13.2488 288.729C13.2488 290.158 12.1053 291.32 10.701 291.32Z" fill="#646464"/>
<path d="M50.9569 288.211C51.5198 288.211 51.9761 287.747 51.9761 287.175C51.9761 286.602 51.5198 286.138 50.9569 286.138C50.3941 286.138 49.9378 286.602 49.9378 287.175C49.9378 287.747 50.3941 288.211 50.9569 288.211Z" fill="#646464"/>
<path d="M46.8804 288.211C47.4432 288.211 47.8995 287.747 47.8995 287.175C47.8995 286.602 47.4432 286.138 46.8804 286.138C46.3175 286.138 45.8612 286.602 45.8612 287.175C45.8612 287.747 46.3175 288.211 46.8804 288.211Z" fill="#646464"/>
<path d="M52.9952 291.32C53.5581 291.32 54.0144 290.856 54.0144 290.284C54.0144 289.711 53.5581 289.247 52.9952 289.247C52.4324 289.247 51.9761 289.711 51.9761 290.284C51.9761 290.856 52.4324 291.32 52.9952 291.32Z" fill="#646464"/>
<path d="M48.9187 291.32C49.4815 291.32 49.9378 290.856 49.9378 290.284C49.9378 289.711 49.4815 289.247 48.9187 289.247C48.3558 289.247 47.8995 289.711 47.8995 290.284C47.8995 290.856 48.3558 291.32 48.9187 291.32Z" fill="#646464"/>
<path d="M42.8038 288.211C43.3667 288.211 43.823 287.747 43.823 287.175C43.823 286.602 43.3667 286.138 42.8038 286.138C42.241 286.138 41.7847 286.602 41.7847 287.175C41.7847 287.747 42.241 288.211 42.8038 288.211Z" fill="#646464"/>
<path d="M44.8421 291.32C45.405 291.32 45.8612 290.856 45.8612 290.284C45.8612 289.711 45.405 289.247 44.8421 289.247C44.2793 289.247 43.823 289.711 43.823 290.284C43.823 290.856 44.2793 291.32 44.8421 291.32Z" fill="#646464"/>
<path d="M38.7273 288.211C39.2901 288.211 39.7464 287.747 39.7464 287.175C39.7464 286.602 39.2901 286.138 38.7273 286.138C38.1644 286.138 37.7081 286.602 37.7081 287.175C37.7081 287.747 38.1644 288.211 38.7273 288.211Z" fill="#646464"/>
<path d="M40.7656 291.32C41.3284 291.32 41.7847 290.856 41.7847 290.284C41.7847 289.711 41.3284 289.247 40.7656 289.247C40.2027 289.247 39.7464 289.711 39.7464 290.284C39.7464 290.856 40.2027 291.32 40.7656 291.32Z" fill="#646464"/>
<path d="M34.6507 288.211C35.2136 288.211 35.6699 287.747 35.6699 287.175C35.6699 286.602 35.2136 286.138 34.6507 286.138C34.0879 286.138 33.6316 286.602 33.6316 287.175C33.6316 287.747 34.0879 288.211 34.6507 288.211Z" fill="#646464"/>
<path d="M36.689 291.32C37.2519 291.32 37.7081 290.856 37.7081 290.284C37.7081 289.711 37.2519 289.247 36.689 289.247C36.1261 289.247 35.6699 289.711 35.6699 290.284C35.6699 290.856 36.1261 291.32 36.689 291.32Z" fill="#646464"/>
<path d="M61.1483 294.836V282.623C61.1483 279.989 59.0418 277.847 56.4521 277.847H4.69619C2.10656 277.847 0 279.989 0 282.623V294.835C0 296.357 0.716455 297.699 1.81101 298.574C0.716455 299.45 0 300.793 0 302.315V314.527C0 316.049 0.716455 317.391 1.81101 318.266C0.716455 319.142 0 320.485 0 322.006V334.218C0 336.853 2.10656 338.995 4.69619 338.995H56.4511C59.0407 338.995 61.1473 336.853 61.1473 334.219V322.006C61.1473 320.484 60.4309 319.142 59.3363 318.267C60.4319 317.392 61.1483 316.049 61.1483 314.528V302.315C61.1483 300.792 60.4319 299.45 59.3373 298.575C60.4319 297.7 61.1483 296.357 61.1483 294.836ZM59.1101 322.006V334.218C59.1101 335.709 57.9177 336.921 56.4521 336.921H4.69619C3.23067 336.922 2.03828 335.71 2.03828 334.219V322.006C2.03828 320.516 3.23067 319.303 4.69619 319.303H56.4511C57.9177 319.303 59.1101 320.516 59.1101 322.006ZM59.1101 302.315V314.527C59.1101 316.017 57.9177 317.23 56.4521 317.23H4.69619C3.23067 317.231 2.03828 316.018 2.03828 314.528V302.315C2.03828 300.824 3.23067 299.612 4.69619 299.612H56.4511C57.9177 299.612 59.1101 300.824 59.1101 302.315ZM4.69619 297.539C3.23067 297.539 2.03828 296.326 2.03828 294.836V282.623C2.03828 281.132 3.23067 279.92 4.69619 279.92H56.4511C57.9177 279.92 59.1101 281.132 59.1101 282.623V294.835C59.1101 296.325 57.9177 297.538 56.4521 297.538L4.69619 297.539Z" fill="#646464"/>
<path d="M10.701 313.085C13.2294 313.085 15.2871 310.992 15.2871 308.421C15.2871 305.85 13.2294 303.757 10.701 303.757C8.17247 303.757 6.11483 305.85 6.11483 308.421C6.11483 310.992 8.17247 313.085 10.701 313.085ZM10.701 305.83C12.1053 305.83 13.2488 306.992 13.2488 308.421C13.2488 309.85 12.1053 311.012 10.701 311.012C9.29658 311.012 8.15311 309.85 8.15311 308.421C8.15311 306.992 9.29658 305.83 10.701 305.83Z" fill="#646464"/>
<path d="M50.9569 307.903C51.5198 307.903 51.9761 307.439 51.9761 306.866C51.9761 306.294 51.5198 305.83 50.9569 305.83C50.3941 305.83 49.9378 306.294 49.9378 306.866C49.9378 307.439 50.3941 307.903 50.9569 307.903Z" fill="#646464"/>
<path d="M46.8804 307.903C47.4432 307.903 47.8995 307.439 47.8995 306.866C47.8995 306.294 47.4432 305.83 46.8804 305.83C46.3175 305.83 45.8612 306.294 45.8612 306.866C45.8612 307.439 46.3175 307.903 46.8804 307.903Z" fill="#646464"/>
<path d="M52.9952 311.012C53.5581 311.012 54.0144 310.548 54.0144 309.976C54.0144 309.403 53.5581 308.939 52.9952 308.939C52.4324 308.939 51.9761 309.403 51.9761 309.976C51.9761 310.548 52.4324 311.012 52.9952 311.012Z" fill="#646464"/>
<path d="M48.9187 311.012C49.4815 311.012 49.9378 310.548 49.9378 309.976C49.9378 309.403 49.4815 308.939 48.9187 308.939C48.3558 308.939 47.8995 309.403 47.8995 309.976C47.8995 310.548 48.3558 311.012 48.9187 311.012Z" fill="#646464"/>
<path d="M42.8038 307.903C43.3667 307.903 43.823 307.439 43.823 306.866C43.823 306.294 43.3667 305.83 42.8038 305.83C42.241 305.83 41.7847 306.294 41.7847 306.866C41.7847 307.439 42.241 307.903 42.8038 307.903Z" fill="#646464"/>
<path d="M44.8421 311.012C45.405 311.012 45.8612 310.548 45.8612 309.976C45.8612 309.403 45.405 308.939 44.8421 308.939C44.2793 308.939 43.823 309.403 43.823 309.976C43.823 310.548 44.2793 311.012 44.8421 311.012Z" fill="#646464"/>
<path d="M38.7273 307.903C39.2901 307.903 39.7464 307.439 39.7464 306.866C39.7464 306.294 39.2901 305.83 38.7273 305.83C38.1644 305.83 37.7081 306.294 37.7081 306.866C37.7081 307.439 38.1644 307.903 38.7273 307.903Z" fill="#646464"/>
<path d="M40.7656 311.012C41.3284 311.012 41.7847 310.548 41.7847 309.976C41.7847 309.403 41.3284 308.939 40.7656 308.939C40.2027 308.939 39.7464 309.403 39.7464 309.976C39.7464 310.548 40.2027 311.012 40.7656 311.012Z" fill="#646464"/>
<path d="M34.6507 307.903C35.2136 307.903 35.6699 307.439 35.6699 306.866C35.6699 306.294 35.2136 305.83 34.6507 305.83C34.0879 305.83 33.6316 306.294 33.6316 306.866C33.6316 307.439 34.0879 307.903 34.6507 307.903Z" fill="#646464"/>
<path d="M36.689 311.012C37.2519 311.012 37.7081 310.548 37.7081 309.976C37.7081 309.403 37.2519 308.939 36.689 308.939C36.1261 308.939 35.6699 309.403 35.6699 309.976C35.6699 310.548 36.1261 311.012 36.689 311.012Z" fill="#646464"/>
<path d="M10.701 332.777C13.2294 332.777 15.2871 330.684 15.2871 328.113C15.2871 325.542 13.2294 323.449 10.701 323.449C8.17247 323.449 6.11483 325.542 6.11483 328.113C6.11483 330.684 8.17247 332.777 10.701 332.777ZM10.701 325.522C12.1053 325.522 13.2488 326.684 13.2488 328.113C13.2488 329.542 12.1053 330.704 10.701 330.704C9.29658 330.704 8.15311 329.542 8.15311 328.113C8.15311 326.684 9.29658 325.522 10.701 325.522Z" fill="#646464"/>
<path d="M50.9569 327.595C51.5198 327.595 51.9761 327.131 51.9761 326.558C51.9761 325.986 51.5198 325.522 50.9569 325.522C50.3941 325.522 49.9378 325.986 49.9378 326.558C49.9378 327.131 50.3941 327.595 50.9569 327.595Z" fill="#646464"/>
<path d="M46.8804 327.595C47.4432 327.595 47.8995 327.131 47.8995 326.558C47.8995 325.986 47.4432 325.522 46.8804 325.522C46.3175 325.522 45.8612 325.986 45.8612 326.558C45.8612 327.131 46.3175 327.595 46.8804 327.595Z" fill="#646464"/>
<path d="M52.9952 330.704C53.5581 330.704 54.0144 330.24 54.0144 329.668C54.0144 329.095 53.5581 328.631 52.9952 328.631C52.4324 328.631 51.9761 329.095 51.9761 329.668C51.9761 330.24 52.4324 330.704 52.9952 330.704Z" fill="#646464"/>
<path d="M48.9187 330.704C49.4815 330.704 49.9378 330.24 49.9378 329.668C49.9378 329.095 49.4815 328.631 48.9187 328.631C48.3558 328.631 47.8995 329.095 47.8995 329.668C47.8995 330.24 48.3558 330.704 48.9187 330.704Z" fill="#646464"/>
<path d="M42.8038 327.595C43.3667 327.595 43.823 327.131 43.823 326.558C43.823 325.986 43.3667 325.522 42.8038 325.522C42.241 325.522 41.7847 325.986 41.7847 326.558C41.7847 327.131 42.241 327.595 42.8038 327.595Z" fill="#646464"/>
<path d="M44.8421 330.704C45.405 330.704 45.8612 330.24 45.8612 329.668C45.8612 329.095 45.405 328.631 44.8421 328.631C44.2793 328.631 43.823 329.095 43.823 329.668C43.823 330.24 44.2793 330.704 44.8421 330.704Z" fill="#646464"/>
<path d="M38.7273 327.595C39.2901 327.595 39.7464 327.131 39.7464 326.558C39.7464 325.986 39.2901 325.522 38.7273 325.522C38.1644 325.522 37.7081 325.986 37.7081 326.558C37.7081 327.131 38.1644 327.595 38.7273 327.595Z" fill="#646464"/>
<path d="M40.7656 330.704C41.3284 330.704 41.7847 330.24 41.7847 329.668C41.7847 329.095 41.3284 328.631 40.7656 328.631C40.2027 328.631 39.7464 329.095 39.7464 329.668C39.7464 330.24 40.2027 330.704 40.7656 330.704Z" fill="#646464"/>
<path d="M34.6507 327.595C35.2136 327.595 35.6699 327.131 35.6699 326.558C35.6699 325.986 35.2136 325.522 34.6507 325.522C34.0879 325.522 33.6316 325.986 33.6316 326.558C33.6316 327.131 34.0879 327.595 34.6507 327.595Z" fill="#646464"/>
<path d="M36.689 330.704C37.2519 330.704 37.7081 330.24 37.7081 329.668C37.7081 329.095 37.2519 328.631 36.689 328.631C36.1261 328.631 35.6699 329.095 35.6699 329.668C35.6699 330.24 36.1261 330.704 36.689 330.704Z" fill="#646464"/>
<path d="M313.939 146.8L314.005 135.343H313.09L313.025 145.968L298.655 132.015V127.215C300.288 127.023 301.529 125.679 301.529 124.015C301.529 122.222 300.027 120.75 298.198 120.75C296.369 120.686 294.932 122.158 294.932 123.951C294.932 125.615 296.173 126.959 297.806 127.151V131.951L283.436 145.904V135.279H282.522L282.587 146.736V147.312H283.175L294.997 147.376V146.48L284.09 146.544L297.806 133.167V160.88L290.033 153.392L289.38 154.032L297.741 162.16L297.871 162.288L298.198 162.544L298.525 162.288L298.655 162.16L307.016 154.096L306.363 153.456L298.655 160.88V133.167L312.372 146.544H301.464V147.44L313.286 147.376H313.939V146.8ZM298.263 126.319C296.892 126.319 295.847 125.231 295.847 123.951C295.847 122.671 296.957 121.582 298.263 121.582C299.635 121.582 300.68 122.671 300.68 123.951C300.68 125.231 299.57 126.319 298.263 126.319Z" fill="#646464" stroke="#646464" stroke-width="0.679426"/>
<circle cx="297.721" cy="141.375" r="32.0255" stroke="#646464" stroke-width="2.03828"/>
<path d="M337.675 143.321H369.608C373.36 143.321 376.402 146.362 376.402 150.115V220.775" stroke="#AAAAAA" stroke-width="2.03828" stroke-linecap="round" stroke-dasharray="0.07 6.79"/>
<path d="M31.9331 254.746L31.9331 232.325C31.9331 228.573 34.975 225.531 38.7274 225.531L376.402 225.531L376.402 254.746" stroke="#AAAAAA" stroke-width="2.03828" stroke-linecap="round" stroke-dasharray="0.07 6.79"/>
<path d="M151.153 135.083C148.988 132.43 146.04 130.491 142.768 129.548C142.392 119.481 134.049 111.407 123.848 111.407C119.53 111.407 115.306 112.893 111.954 115.591C109.075 117.908 106.933 121.034 105.812 124.515C104.304 123.914 102.684 123.601 101.052 123.601C94.0116 123.601 88.2784 129.279 88.2288 136.277C83.3733 138.47 80.1724 143.354 80.1724 148.714C80.1724 156.241 86.3221 162.364 93.8812 162.364H138.101C147.369 162.364 154.909 154.856 154.909 145.628C154.909 141.796 153.575 138.051 151.153 135.083ZM138.101 159.755H93.8812C87.7667 159.755 82.7922 154.802 82.7922 148.714C82.7922 144.12 85.6981 139.959 90.0229 138.361C90.5664 138.16 90.9126 137.627 90.8741 137.051C90.8565 136.787 90.8483 136.57 90.8483 136.369C90.8483 130.767 95.4254 126.21 101.052 126.21C102.79 126.21 104.509 126.655 106.022 127.499C106.383 127.7 106.817 127.72 107.195 127.552C107.572 127.385 107.848 127.051 107.939 126.649C108.744 123.118 110.755 119.911 113.601 117.62C116.488 115.295 120.128 114.015 123.848 114.015C132.844 114.015 140.162 121.302 140.162 130.258C140.162 130.336 140.16 130.413 140.159 130.489L140.158 130.541C140.148 131.16 140.577 131.702 141.185 131.836C144.286 132.52 147.104 134.257 149.12 136.728C151.164 139.232 152.289 142.393 152.289 145.628C152.289 153.418 145.924 159.755 138.101 159.755Z" fill="#646464"/>
<path d="M188.88 35.9713H29.8949C26.1425 35.9713 23.1006 39.0132 23.1006 42.7656V140.603C23.1006 144.355 26.1425 147.397 29.8948 147.397H56.3925" stroke="#AAAAAA" stroke-width="2.03828" stroke-linecap="round" stroke-dasharray="0.07 6.79"/>
<path d="M167.818 147.397H248.67" stroke="#AAAAAA" stroke-width="2.03828" stroke-linecap="round" stroke-dasharray="0.07 6.79"/>
<path d="M205.526 231.646L205.526 253.727" stroke="#AAAAAA" stroke-width="2.03828" stroke-linecap="round" stroke-dasharray="0.07 6.79"/>
<circle cx="207.225" cy="277.847" r="13.5885" fill="#646464"/>
<circle cx="377.081" cy="277.847" r="13.5885" fill="#646464"/>
<circle cx="30.5744" cy="277.847" r="13.5885" fill="#646464"/>
<path d="M31.6227 284.579H30.1417V274.762L27.1719 275.853V274.515L31.3918 272.931H31.6227V284.579Z" fill="white"/>
<path d="M211.028 284.579H203.432V283.52L207.445 279.061C208.04 278.387 208.448 277.84 208.671 277.421C208.899 276.996 209.014 276.559 209.014 276.107C209.014 275.502 208.83 275.006 208.464 274.618C208.098 274.231 207.61 274.037 206.999 274.037C206.267 274.037 205.696 274.247 205.287 274.666C204.884 275.08 204.682 275.659 204.682 276.402H203.209C203.209 275.335 203.552 274.473 204.236 273.814C204.926 273.156 205.847 272.827 206.999 272.827C208.077 272.827 208.929 273.111 209.555 273.679C210.181 274.242 210.494 274.993 210.494 275.932C210.494 277.073 209.767 278.432 208.313 280.009L205.208 283.377H211.028V284.579Z" fill="white"/>
<path d="M375.43 278.066H376.537C377.232 278.055 377.779 277.872 378.177 277.517C378.575 277.161 378.774 276.681 378.774 276.076C378.774 274.717 378.098 274.037 376.744 274.037C376.107 274.037 375.598 274.22 375.215 274.587C374.839 274.948 374.65 275.428 374.65 276.028H373.177C373.177 275.109 373.512 274.348 374.18 273.743C374.854 273.132 375.709 272.827 376.744 272.827C377.838 272.827 378.695 273.116 379.316 273.695C379.937 274.273 380.247 275.078 380.247 276.107C380.247 276.612 380.083 277.1 379.754 277.572C379.43 278.045 378.987 278.398 378.424 278.631C379.061 278.833 379.552 279.167 379.897 279.635C380.247 280.102 380.423 280.672 380.423 281.346C380.423 282.387 380.083 283.212 379.403 283.823C378.724 284.433 377.84 284.738 376.752 284.738C375.664 284.738 374.777 284.444 374.093 283.854C373.413 283.265 373.074 282.488 373.074 281.522H374.555C374.555 282.132 374.754 282.62 375.152 282.987C375.55 283.353 376.083 283.536 376.752 283.536C377.463 283.536 378.007 283.35 378.384 282.979C378.761 282.607 378.95 282.074 378.95 281.378C378.95 280.704 378.743 280.187 378.329 279.826C377.915 279.465 377.317 279.279 376.537 279.268H375.43V278.066Z" fill="white"/>
<path d="M188.88 35.9713H29.8949C26.1425 35.9713 23.1006 39.0132 23.1006 42.7656V140.603C23.1006 144.355 26.1425 147.397 29.8948 147.397H63.1867" stroke="#F3652B" stroke-width="2.7177" stroke-linecap="round"/>
<path d="M168.498 148.077H258.182" stroke="#F3652B" stroke-width="2.7177" stroke-linecap="round"/>
<path d="M60.5114 154.871C60.8936 154.871 61.1484 154.74 61.4031 154.479L66.881 148.991C67.1358 148.73 67.2632 148.469 67.2632 148.077C67.2632 147.685 67.1358 147.423 66.881 147.162L61.5305 141.674C61.021 141.152 60.2566 141.152 59.747 141.674C59.2375 142.197 59.2375 142.981 59.747 143.504L64.0784 148.077L59.4922 152.65C58.9827 153.172 58.9827 153.956 59.4922 154.479C59.747 154.74 60.1292 154.871 60.5114 154.871Z" fill="#F3652B"/>
<path d="M254.827 154.871C255.209 154.871 255.464 154.74 255.719 154.479L261.197 148.991C261.452 148.73 261.579 148.469 261.579 148.077C261.579 147.685 261.452 147.423 261.197 147.162L255.846 141.674C255.337 141.152 254.573 141.152 254.063 141.674C253.553 142.197 253.553 142.981 254.063 143.504L258.394 148.077L253.808 152.65C253.299 153.172 253.299 153.956 253.808 154.479C254.063 154.74 254.445 154.871 254.827 154.871Z" fill="#F3652B"/>
<path d="M337.675 143.321H369.608C373.36 143.321 376.402 146.362 376.402 150.115V225.531" stroke="#F3652B" stroke-width="2.7177" stroke-linecap="round"/>
<circle cx="407.316" cy="327.105" r="18.6842" fill="#C83030"/>
<circle cx="407.316" cy="327.105" r="15.6268" stroke="white" stroke-width="0.679426"/>
<path d="M409.171 330.061H406.195L405.727 319.971H409.64L409.171 330.061ZM405.618 333.205C405.618 332.705 405.81 332.296 406.195 331.978C406.588 331.653 407.075 331.491 407.656 331.491C408.237 331.491 408.721 331.653 409.106 331.978C409.498 332.296 409.694 332.705 409.694 333.205C409.694 333.705 409.498 334.118 409.106 334.442C408.721 334.76 408.237 334.919 407.656 334.919C407.075 334.919 406.588 334.76 406.195 334.442C405.81 334.118 405.618 333.705 405.618 333.205Z" fill="white"/>
<circle cx="327.684" cy="168.684" r="18.6842" fill="#C83030"/>
<circle cx="327.684" cy="168.684" r="15.6268" stroke="white" stroke-width="0.679426"/>
<path d="M329.539 171.64H326.564L326.095 161.55H330.008L329.539 171.64ZM325.986 174.784C325.986 174.284 326.178 173.875 326.564 173.557C326.956 173.232 327.443 173.07 328.024 173.07C328.605 173.07 329.089 173.232 329.474 173.557C329.866 173.875 330.062 174.284 330.062 174.784C330.062 175.284 329.866 175.697 329.474 176.021C329.089 176.339 328.605 176.498 328.024 176.498C327.443 176.498 326.956 176.339 326.564 176.021C326.178 175.697 325.986 175.284 325.986 174.784Z" fill="white"/>
<path d="M376.402 225.531L213.34 225.532C209.587 225.532 206.545 228.574 206.545 232.326L206.545 254.067" stroke="#F3652B" stroke-width="2.7177" stroke-linecap="round"/>
<path d="M199.751 252.071C199.751 252.453 199.882 252.708 200.143 252.963L205.631 258.441C205.892 258.696 206.154 258.823 206.546 258.823C206.938 258.823 207.199 258.696 207.46 258.441L212.948 253.09C213.471 252.581 213.471 251.816 212.948 251.307C212.425 250.797 211.641 250.797 211.119 251.307L206.546 255.638L201.973 251.052C201.45 250.542 200.666 250.542 200.143 251.052C199.882 251.307 199.751 251.689 199.751 252.071Z" fill="#F3652B"/>
</svg>
