<svg  viewBox="0 0 406 408" fill="none" xmlns="http://www.w3.org/2000/svg">
<path d="M201.649 47.1349C201.647 46.7178 201.645 47.0174 201.649 47.1349ZM201.649 47.1349C201.652 47.2449 201.662 47.1952 201.683 46.2476C201.934 34.6435 203.848 31.298 217.503 29.1719C217.503 29.1719 219.447 31.3083 223.976 31.3083C228.506 31.3083 230.449 29.1719 230.449 29.1719C244.255 31.3214 246.059 34.7173 246.278 46.6348C246.292 47.3971 246.299 47.5288 246.303 47.4607M201.649 47.1349C201.65 47.341 201.65 47.7223 201.65 48.387C201.65 48.387 204.937 54.1033 223.976 54.1033C243.015 54.1033 246.302 48.387 246.302 48.387C246.302 47.9599 246.303 47.6628 246.303 47.4607M246.303 47.4607C246.309 47.3465 246.305 46.6685 246.303 47.4607ZM223.976 26.7741C230.505 26.7741 235.797 21.2283 235.797 14.3871C235.797 7.54582 234.06 2 223.976 2C213.893 2 212.155 7.54582 212.155 14.3871C212.155 21.2283 217.448 26.7741 223.976 26.7741Z" stroke="#646464" stroke-width="2.03"/>
<path d="M106.239 99.2385C106.237 98.8213 106.235 99.1209 106.239 99.2385ZM106.239 99.2385C106.243 99.3485 106.252 99.2987 106.273 98.3511C106.525 86.747 108.438 83.4015 122.093 81.2754C122.093 81.2754 124.037 83.4118 128.567 83.4118C133.096 83.4118 135.04 81.2754 135.04 81.2754C148.845 83.425 150.649 86.8208 150.868 98.7383C150.882 99.5006 150.89 99.6323 150.893 99.5643M106.239 99.2385C106.24 99.4446 106.241 99.8258 106.241 100.491C106.241 100.491 109.528 106.207 128.567 106.207C147.605 106.207 150.892 100.491 150.892 100.491C150.892 100.063 150.893 99.7663 150.893 99.5643M150.893 99.5643C150.9 99.4501 150.896 98.772 150.893 99.5643ZM128.567 78.8776C135.095 78.8776 140.388 73.3318 140.388 66.4906C140.388 59.6493 138.65 54.1035 128.567 54.1035C118.483 54.1035 116.745 59.6493 116.745 66.4906C116.745 73.3318 122.038 78.8776 128.567 78.8776Z" stroke="#646464" stroke-width="2.03"/>
<path d="M355.758 353.293C353.239 353.293 351.19 355.377 351.19 357.938C351.19 360.499 353.239 362.583 355.758 362.583C358.276 362.583 360.325 360.499 360.325 357.938C360.325 355.377 358.276 353.293 355.758 353.293ZM355.758 360.519C354.359 360.519 353.22 359.362 353.22 357.938C353.22 356.515 354.359 355.358 355.758 355.358C357.156 355.358 358.295 356.515 358.295 357.938C358.295 359.362 357.156 360.519 355.758 360.519Z" fill="#646464"/>
<path d="M395.85 357.422C396.411 357.422 396.865 356.96 396.865 356.39C396.865 355.82 396.411 355.358 395.85 355.358C395.29 355.358 394.835 355.82 394.835 356.39C394.835 356.96 395.29 357.422 395.85 357.422Z" fill="#646464"/>
<path d="M391.79 357.422C392.351 357.422 392.805 356.96 392.805 356.39C392.805 355.82 392.351 355.358 391.79 355.358C391.23 355.358 390.775 355.82 390.775 356.39C390.775 356.96 391.23 357.422 391.79 357.422Z" fill="#646464"/>
<path d="M397.88 360.519C398.441 360.519 398.895 360.057 398.895 359.487C398.895 358.916 398.441 358.454 397.88 358.454C397.32 358.454 396.865 358.916 396.865 359.487C396.865 360.057 397.32 360.519 397.88 360.519Z" fill="#646464"/>
<path d="M393.82 360.519C394.381 360.519 394.835 360.057 394.835 359.487C394.835 358.916 394.381 358.454 393.82 358.454C393.26 358.454 392.805 358.916 392.805 359.487C392.805 360.057 393.26 360.519 393.82 360.519Z" fill="#646464"/>
<path d="M387.73 357.422C388.291 357.422 388.745 356.96 388.745 356.39C388.745 355.82 388.291 355.358 387.73 355.358C387.17 355.358 386.715 355.82 386.715 356.39C386.715 356.96 387.17 357.422 387.73 357.422Z" fill="#646464"/>
<path d="M389.76 360.519C390.321 360.519 390.775 360.057 390.775 359.487C390.775 358.916 390.321 358.454 389.76 358.454C389.2 358.454 388.745 358.916 388.745 359.487C388.745 360.057 389.2 360.519 389.76 360.519Z" fill="#646464"/>
<path d="M383.67 357.422C384.231 357.422 384.685 356.96 384.685 356.39C384.685 355.82 384.231 355.358 383.67 355.358C383.11 355.358 382.655 355.82 382.655 356.39C382.655 356.96 383.11 357.422 383.67 357.422Z" fill="#646464"/>
<path d="M385.7 360.519C386.261 360.519 386.715 360.057 386.715 359.487C386.715 358.916 386.261 358.454 385.7 358.454C385.14 358.454 384.685 358.916 384.685 359.487C384.685 360.057 385.14 360.519 385.7 360.519Z" fill="#646464"/>
<path d="M379.61 357.422C380.171 357.422 380.625 356.96 380.625 356.39C380.625 355.82 380.171 355.358 379.61 355.358C379.05 355.358 378.595 355.82 378.595 356.39C378.595 356.96 379.05 357.422 379.61 357.422Z" fill="#646464"/>
<path d="M381.64 360.519C382.201 360.519 382.655 360.057 382.655 359.487C382.655 358.916 382.201 358.454 381.64 358.454C381.08 358.454 380.625 358.916 380.625 359.487C380.625 360.057 381.08 360.519 381.64 360.519Z" fill="#646464"/>
<path d="M406 364.02V351.856C406 349.234 403.902 347.1 401.323 347.1H349.777C347.198 347.1 345.1 349.234 345.1 351.856V364.019C345.1 365.535 345.814 366.872 346.904 367.743C345.814 368.615 345.1 369.953 345.1 371.468V383.631C345.1 385.147 345.814 386.484 346.904 387.355C345.814 388.227 345.1 389.565 345.1 391.08V403.243C345.1 405.867 347.198 408 349.777 408H401.322C403.901 408 405.999 405.867 405.999 403.244V391.08C405.999 389.564 405.286 388.227 404.195 387.356C405.287 386.485 406 385.147 406 383.632V371.468C406 369.952 405.287 368.615 404.196 367.744C405.287 366.873 406 365.535 406 364.02ZM403.97 391.08V403.243C403.97 404.727 402.783 405.935 401.323 405.935H349.777C348.318 405.936 347.13 404.728 347.13 403.244V391.08C347.13 389.596 348.318 388.388 349.777 388.388H401.322C402.783 388.388 403.97 389.596 403.97 391.08ZM403.97 371.468V383.631C403.97 385.115 402.783 386.323 401.323 386.323H349.777C348.318 386.324 347.13 385.116 347.13 383.632V371.468C347.13 369.984 348.318 368.776 349.777 368.776H401.322C402.783 368.776 403.97 369.984 403.97 371.468ZM349.777 366.712C348.318 366.712 347.13 365.504 347.13 364.02V351.856C347.13 350.372 348.318 349.165 349.777 349.165H401.322C402.783 349.165 403.97 350.372 403.97 351.856V364.019C403.97 365.503 402.783 366.711 401.323 366.711L349.777 366.712Z" fill="#646464"/>
<path d="M355.758 382.195C358.276 382.195 360.325 380.111 360.325 377.55C360.325 374.989 358.276 372.905 355.758 372.905C353.239 372.905 351.19 374.989 351.19 377.55C351.19 380.111 353.239 382.195 355.758 382.195ZM355.758 374.97C357.156 374.97 358.295 376.127 358.295 377.55C358.295 378.974 357.156 380.131 355.758 380.131C354.359 380.131 353.22 378.974 353.22 377.55C353.22 376.127 354.359 374.97 355.758 374.97Z" fill="#646464"/>
<path d="M395.85 377.034C396.411 377.034 396.865 376.572 396.865 376.002C396.865 375.432 396.411 374.97 395.85 374.97C395.29 374.97 394.835 375.432 394.835 376.002C394.835 376.572 395.29 377.034 395.85 377.034Z" fill="#646464"/>
<path d="M391.79 377.034C392.351 377.034 392.805 376.572 392.805 376.002C392.805 375.432 392.351 374.97 391.79 374.97C391.23 374.97 390.775 375.432 390.775 376.002C390.775 376.572 391.23 377.034 391.79 377.034Z" fill="#646464"/>
<path d="M397.88 380.131C398.441 380.131 398.895 379.668 398.895 379.098C398.895 378.528 398.441 378.066 397.88 378.066C397.32 378.066 396.865 378.528 396.865 379.098C396.865 379.668 397.32 380.131 397.88 380.131Z" fill="#646464"/>
<path d="M393.82 380.131C394.381 380.131 394.835 379.668 394.835 379.098C394.835 378.528 394.381 378.066 393.82 378.066C393.26 378.066 392.805 378.528 392.805 379.098C392.805 379.668 393.26 380.131 393.82 380.131Z" fill="#646464"/>
<path d="M387.73 377.034C388.291 377.034 388.745 376.572 388.745 376.002C388.745 375.432 388.291 374.97 387.73 374.97C387.17 374.97 386.715 375.432 386.715 376.002C386.715 376.572 387.17 377.034 387.73 377.034Z" fill="#646464"/>
<path d="M389.76 380.131C390.321 380.131 390.775 379.668 390.775 379.098C390.775 378.528 390.321 378.066 389.76 378.066C389.2 378.066 388.745 378.528 388.745 379.098C388.745 379.668 389.2 380.131 389.76 380.131Z" fill="#646464"/>
<path d="M383.67 377.034C384.231 377.034 384.685 376.572 384.685 376.002C384.685 375.432 384.231 374.97 383.67 374.97C383.11 374.97 382.655 375.432 382.655 376.002C382.655 376.572 383.11 377.034 383.67 377.034Z" fill="#646464"/>
<path d="M385.7 380.131C386.261 380.131 386.715 379.668 386.715 379.098C386.715 378.528 386.261 378.066 385.7 378.066C385.14 378.066 384.685 378.528 384.685 379.098C384.685 379.668 385.14 380.131 385.7 380.131Z" fill="#646464"/>
<path d="M379.61 377.034C380.171 377.034 380.625 376.572 380.625 376.002C380.625 375.432 380.171 374.97 379.61 374.97C379.05 374.97 378.595 375.432 378.595 376.002C378.595 376.572 379.05 377.034 379.61 377.034Z" fill="#646464"/>
<path d="M381.64 380.131C382.201 380.131 382.655 379.668 382.655 379.098C382.655 378.528 382.201 378.066 381.64 378.066C381.08 378.066 380.625 378.528 380.625 379.098C380.625 379.668 381.08 380.131 381.64 380.131Z" fill="#646464"/>
<path d="M355.758 401.807C358.276 401.807 360.325 399.723 360.325 397.162C360.325 394.601 358.276 392.517 355.758 392.517C353.239 392.517 351.19 394.601 351.19 397.162C351.19 399.723 353.239 401.807 355.758 401.807ZM355.758 394.581C357.156 394.581 358.295 395.739 358.295 397.162C358.295 398.585 357.156 399.742 355.758 399.742C354.359 399.742 353.22 398.585 353.22 397.162C353.22 395.739 354.359 394.581 355.758 394.581Z" fill="#646464"/>
<path d="M395.85 396.646C396.411 396.646 396.865 396.184 396.865 395.614C396.865 395.044 396.411 394.581 395.85 394.581C395.29 394.581 394.835 395.044 394.835 395.614C394.835 396.184 395.29 396.646 395.85 396.646Z" fill="#646464"/>
<path d="M391.79 396.646C392.351 396.646 392.805 396.184 392.805 395.614C392.805 395.044 392.351 394.581 391.79 394.581C391.23 394.581 390.775 395.044 390.775 395.614C390.775 396.184 391.23 396.646 391.79 396.646Z" fill="#646464"/>
<path d="M397.88 399.742C398.441 399.742 398.895 399.28 398.895 398.71C398.895 398.14 398.441 397.678 397.88 397.678C397.32 397.678 396.865 398.14 396.865 398.71C396.865 399.28 397.32 399.742 397.88 399.742Z" fill="#646464"/>
<path d="M393.82 399.742C394.381 399.742 394.835 399.28 394.835 398.71C394.835 398.14 394.381 397.678 393.82 397.678C393.26 397.678 392.805 398.14 392.805 398.71C392.805 399.28 393.26 399.742 393.82 399.742Z" fill="#646464"/>
<path d="M387.73 396.646C388.291 396.646 388.745 396.184 388.745 395.614C388.745 395.044 388.291 394.581 387.73 394.581C387.17 394.581 386.715 395.044 386.715 395.614C386.715 396.184 387.17 396.646 387.73 396.646Z" fill="#646464"/>
<path d="M389.76 399.742C390.321 399.742 390.775 399.28 390.775 398.71C390.775 398.14 390.321 397.678 389.76 397.678C389.2 397.678 388.745 398.14 388.745 398.71C388.745 399.28 389.2 399.742 389.76 399.742Z" fill="#646464"/>
<path d="M383.67 396.646C384.231 396.646 384.685 396.184 384.685 395.614C384.685 395.044 384.231 394.581 383.67 394.581C383.11 394.581 382.655 395.044 382.655 395.614C382.655 396.184 383.11 396.646 383.67 396.646Z" fill="#646464"/>
<path d="M385.7 399.742C386.261 399.742 386.715 399.28 386.715 398.71C386.715 398.14 386.261 397.678 385.7 397.678C385.14 397.678 384.685 398.14 384.685 398.71C384.685 399.28 385.14 399.742 385.7 399.742Z" fill="#646464"/>
<path d="M379.61 396.646C380.171 396.646 380.625 396.184 380.625 395.614C380.625 395.044 380.171 394.581 379.61 394.581C379.05 394.581 378.595 395.044 378.595 395.614C378.595 396.184 379.05 396.646 379.61 396.646Z" fill="#646464"/>
<path d="M381.64 399.742C382.201 399.742 382.655 399.28 382.655 398.71C382.655 398.14 382.201 397.678 381.64 397.678C381.08 397.678 380.625 398.14 380.625 398.71C380.625 399.28 381.08 399.742 381.64 399.742Z" fill="#646464"/>
<path d="M183.207 353.293C180.689 353.293 178.64 355.377 178.64 357.938C178.64 360.499 180.689 362.583 183.207 362.583C185.726 362.583 187.775 360.499 187.775 357.938C187.775 355.377 185.726 353.293 183.207 353.293ZM183.207 360.519C181.809 360.519 180.67 359.362 180.67 357.938C180.67 356.515 181.809 355.358 183.207 355.358C184.606 355.358 185.745 356.515 185.745 357.938C185.745 359.362 184.606 360.519 183.207 360.519Z" fill="#646464"/>
<path d="M223.3 357.422C223.86 357.422 224.315 356.96 224.315 356.39C224.315 355.82 223.86 355.358 223.3 355.358C222.739 355.358 222.285 355.82 222.285 356.39C222.285 356.96 222.739 357.422 223.3 357.422Z" fill="#646464"/>
<path d="M219.24 357.422C219.8 357.422 220.255 356.96 220.255 356.39C220.255 355.82 219.8 355.358 219.24 355.358C218.679 355.358 218.225 355.82 218.225 356.39C218.225 356.96 218.679 357.422 219.24 357.422Z" fill="#646464"/>
<path d="M225.33 360.519C225.89 360.519 226.345 360.057 226.345 359.487C226.345 358.916 225.89 358.454 225.33 358.454C224.769 358.454 224.315 358.916 224.315 359.487C224.315 360.057 224.769 360.519 225.33 360.519Z" fill="#646464"/>
<path d="M221.27 360.519C221.83 360.519 222.285 360.057 222.285 359.487C222.285 358.916 221.83 358.454 221.27 358.454C220.709 358.454 220.255 358.916 220.255 359.487C220.255 360.057 220.709 360.519 221.27 360.519Z" fill="#646464"/>
<path d="M215.18 357.422C215.74 357.422 216.195 356.96 216.195 356.39C216.195 355.82 215.74 355.358 215.18 355.358C214.619 355.358 214.165 355.82 214.165 356.39C214.165 356.96 214.619 357.422 215.18 357.422Z" fill="#646464"/>
<path d="M217.21 360.519C217.77 360.519 218.225 360.057 218.225 359.487C218.225 358.916 217.77 358.454 217.21 358.454C216.649 358.454 216.195 358.916 216.195 359.487C216.195 360.057 216.649 360.519 217.21 360.519Z" fill="#646464"/>
<path d="M211.12 357.422C211.68 357.422 212.135 356.96 212.135 356.39C212.135 355.82 211.68 355.358 211.12 355.358C210.559 355.358 210.105 355.82 210.105 356.39C210.105 356.96 210.559 357.422 211.12 357.422Z" fill="#646464"/>
<path d="M213.15 360.519C213.71 360.519 214.165 360.057 214.165 359.487C214.165 358.916 213.71 358.454 213.15 358.454C212.589 358.454 212.135 358.916 212.135 359.487C212.135 360.057 212.589 360.519 213.15 360.519Z" fill="#646464"/>
<path d="M207.06 357.422C207.62 357.422 208.075 356.96 208.075 356.39C208.075 355.82 207.62 355.358 207.06 355.358C206.499 355.358 206.045 355.82 206.045 356.39C206.045 356.96 206.499 357.422 207.06 357.422Z" fill="#646464"/>
<path d="M209.09 360.519C209.65 360.519 210.105 360.057 210.105 359.487C210.105 358.916 209.65 358.454 209.09 358.454C208.529 358.454 208.075 358.916 208.075 359.487C208.075 360.057 208.529 360.519 209.09 360.519Z" fill="#646464"/>
<path d="M233.45 364.02V351.856C233.45 349.234 231.352 347.1 228.773 347.1H177.227C174.648 347.1 172.55 349.234 172.55 351.856V364.019C172.55 365.535 173.263 366.872 174.353 367.743C173.263 368.615 172.55 369.953 172.55 371.468V383.631C172.55 385.147 173.263 386.484 174.353 387.355C173.263 388.227 172.55 389.565 172.55 391.08V403.243C172.55 405.867 174.648 408 177.227 408H228.772C231.351 408 233.449 405.867 233.449 403.244V391.08C233.449 389.564 232.735 388.227 231.645 387.356C232.736 386.485 233.45 385.147 233.45 383.632V371.468C233.45 369.952 232.736 368.615 231.646 367.744C232.736 366.873 233.45 365.535 233.45 364.02ZM231.42 391.08V403.243C231.42 404.727 230.232 405.935 228.773 405.935H177.227C175.767 405.936 174.58 404.728 174.58 403.244V391.08C174.58 389.596 175.767 388.388 177.227 388.388H228.772C230.232 388.388 231.42 389.596 231.42 391.08ZM231.42 371.468V383.631C231.42 385.115 230.232 386.323 228.773 386.323H177.227C175.767 386.324 174.58 385.116 174.58 383.632V371.468C174.58 369.984 175.767 368.776 177.227 368.776H228.772C230.232 368.776 231.42 369.984 231.42 371.468ZM177.227 366.712C175.767 366.712 174.58 365.504 174.58 364.02V351.856C174.58 350.372 175.767 349.165 177.227 349.165H228.772C230.232 349.165 231.42 350.372 231.42 351.856V364.019C231.42 365.503 230.232 366.711 228.773 366.711L177.227 366.712Z" fill="#646464"/>
<path d="M183.207 382.195C185.726 382.195 187.775 380.111 187.775 377.55C187.775 374.989 185.726 372.905 183.207 372.905C180.689 372.905 178.64 374.989 178.64 377.55C178.64 380.111 180.689 382.195 183.207 382.195ZM183.207 374.97C184.606 374.97 185.745 376.127 185.745 377.55C185.745 378.974 184.606 380.131 183.207 380.131C181.809 380.131 180.67 378.974 180.67 377.55C180.67 376.127 181.809 374.97 183.207 374.97Z" fill="#646464"/>
<path d="M223.3 377.034C223.86 377.034 224.315 376.572 224.315 376.002C224.315 375.432 223.86 374.97 223.3 374.97C222.739 374.97 222.285 375.432 222.285 376.002C222.285 376.572 222.739 377.034 223.3 377.034Z" fill="#646464"/>
<path d="M219.24 377.034C219.8 377.034 220.255 376.572 220.255 376.002C220.255 375.432 219.8 374.97 219.24 374.97C218.679 374.97 218.225 375.432 218.225 376.002C218.225 376.572 218.679 377.034 219.24 377.034Z" fill="#646464"/>
<path d="M225.33 380.131C225.89 380.131 226.345 379.668 226.345 379.098C226.345 378.528 225.89 378.066 225.33 378.066C224.769 378.066 224.315 378.528 224.315 379.098C224.315 379.668 224.769 380.131 225.33 380.131Z" fill="#646464"/>
<path d="M221.27 380.131C221.83 380.131 222.285 379.668 222.285 379.098C222.285 378.528 221.83 378.066 221.27 378.066C220.709 378.066 220.255 378.528 220.255 379.098C220.255 379.668 220.709 380.131 221.27 380.131Z" fill="#646464"/>
<path d="M215.18 377.034C215.74 377.034 216.195 376.572 216.195 376.002C216.195 375.432 215.74 374.97 215.18 374.97C214.619 374.97 214.165 375.432 214.165 376.002C214.165 376.572 214.619 377.034 215.18 377.034Z" fill="#646464"/>
<path d="M217.21 380.131C217.77 380.131 218.225 379.668 218.225 379.098C218.225 378.528 217.77 378.066 217.21 378.066C216.649 378.066 216.195 378.528 216.195 379.098C216.195 379.668 216.649 380.131 217.21 380.131Z" fill="#646464"/>
<path d="M211.12 377.034C211.68 377.034 212.135 376.572 212.135 376.002C212.135 375.432 211.68 374.97 211.12 374.97C210.559 374.97 210.105 375.432 210.105 376.002C210.105 376.572 210.559 377.034 211.12 377.034Z" fill="#646464"/>
<path d="M213.15 380.131C213.71 380.131 214.165 379.668 214.165 379.098C214.165 378.528 213.71 378.066 213.15 378.066C212.589 378.066 212.135 378.528 212.135 379.098C212.135 379.668 212.589 380.131 213.15 380.131Z" fill="#646464"/>
<path d="M207.06 377.034C207.62 377.034 208.075 376.572 208.075 376.002C208.075 375.432 207.62 374.97 207.06 374.97C206.499 374.97 206.045 375.432 206.045 376.002C206.045 376.572 206.499 377.034 207.06 377.034Z" fill="#646464"/>
<path d="M209.09 380.131C209.65 380.131 210.105 379.668 210.105 379.098C210.105 378.528 209.65 378.066 209.09 378.066C208.529 378.066 208.075 378.528 208.075 379.098C208.075 379.668 208.529 380.131 209.09 380.131Z" fill="#646464"/>
<path d="M183.207 401.807C185.726 401.807 187.775 399.723 187.775 397.162C187.775 394.601 185.726 392.517 183.207 392.517C180.689 392.517 178.64 394.601 178.64 397.162C178.64 399.723 180.689 401.807 183.207 401.807ZM183.207 394.581C184.606 394.581 185.745 395.739 185.745 397.162C185.745 398.585 184.606 399.742 183.207 399.742C181.809 399.742 180.67 398.585 180.67 397.162C180.67 395.739 181.809 394.581 183.207 394.581Z" fill="#646464"/>
<path d="M223.3 396.646C223.86 396.646 224.315 396.184 224.315 395.614C224.315 395.044 223.86 394.581 223.3 394.581C222.739 394.581 222.285 395.044 222.285 395.614C222.285 396.184 222.739 396.646 223.3 396.646Z" fill="#646464"/>
<path d="M219.24 396.646C219.8 396.646 220.255 396.184 220.255 395.614C220.255 395.044 219.8 394.581 219.24 394.581C218.679 394.581 218.225 395.044 218.225 395.614C218.225 396.184 218.679 396.646 219.24 396.646Z" fill="#646464"/>
<path d="M225.33 399.742C225.89 399.742 226.345 399.28 226.345 398.71C226.345 398.14 225.89 397.678 225.33 397.678C224.769 397.678 224.315 398.14 224.315 398.71C224.315 399.28 224.769 399.742 225.33 399.742Z" fill="#646464"/>
<path d="M221.27 399.742C221.83 399.742 222.285 399.28 222.285 398.71C222.285 398.14 221.83 397.678 221.27 397.678C220.709 397.678 220.255 398.14 220.255 398.71C220.255 399.28 220.709 399.742 221.27 399.742Z" fill="#646464"/>
<path d="M215.18 396.646C215.74 396.646 216.195 396.184 216.195 395.614C216.195 395.044 215.74 394.581 215.18 394.581C214.619 394.581 214.165 395.044 214.165 395.614C214.165 396.184 214.619 396.646 215.18 396.646Z" fill="#646464"/>
<path d="M217.21 399.742C217.77 399.742 218.225 399.28 218.225 398.71C218.225 398.14 217.77 397.678 217.21 397.678C216.649 397.678 216.195 398.14 216.195 398.71C216.195 399.28 216.649 399.742 217.21 399.742Z" fill="#646464"/>
<path d="M211.12 396.646C211.68 396.646 212.135 396.184 212.135 395.614C212.135 395.044 211.68 394.581 211.12 394.581C210.559 394.581 210.105 395.044 210.105 395.614C210.105 396.184 210.559 396.646 211.12 396.646Z" fill="#646464"/>
<path d="M213.15 399.742C213.71 399.742 214.165 399.28 214.165 398.71C214.165 398.14 213.71 397.678 213.15 397.678C212.589 397.678 212.135 398.14 212.135 398.71C212.135 399.28 212.589 399.742 213.15 399.742Z" fill="#646464"/>
<path d="M207.06 396.646C207.62 396.646 208.075 396.184 208.075 395.614C208.075 395.044 207.62 394.581 207.06 394.581C206.499 394.581 206.045 395.044 206.045 395.614C206.045 396.184 206.499 396.646 207.06 396.646Z" fill="#646464"/>
<path d="M209.09 399.742C209.65 399.742 210.105 399.28 210.105 398.71C210.105 398.14 209.65 397.678 209.09 397.678C208.529 397.678 208.075 398.14 208.075 398.71C208.075 399.28 208.529 399.742 209.09 399.742Z" fill="#646464"/>
<path d="M10.6575 353.293C8.13929 353.293 6.09 355.377 6.09 357.938C6.09 360.499 8.13929 362.583 10.6575 362.583C13.1757 362.583 15.225 360.499 15.225 357.938C15.225 355.377 13.1757 353.293 10.6575 353.293ZM10.6575 360.519C9.25883 360.519 8.12 359.362 8.12 357.938C8.12 356.515 9.25883 355.358 10.6575 355.358C12.0562 355.358 13.195 356.515 13.195 357.938C13.195 359.362 12.0562 360.519 10.6575 360.519Z" fill="#646464"/>
<path d="M50.75 357.422C51.3106 357.422 51.765 356.96 51.765 356.39C51.765 355.82 51.3106 355.358 50.75 355.358C50.1894 355.358 49.735 355.82 49.735 356.39C49.735 356.96 50.1894 357.422 50.75 357.422Z" fill="#646464"/>
<path d="M46.69 357.422C47.2506 357.422 47.705 356.96 47.705 356.39C47.705 355.82 47.2506 355.358 46.69 355.358C46.1294 355.358 45.675 355.82 45.675 356.39C45.675 356.96 46.1294 357.422 46.69 357.422Z" fill="#646464"/>
<path d="M52.78 360.519C53.3406 360.519 53.795 360.057 53.795 359.487C53.795 358.916 53.3406 358.454 52.78 358.454C52.2194 358.454 51.765 358.916 51.765 359.487C51.765 360.057 52.2194 360.519 52.78 360.519Z" fill="#646464"/>
<path d="M48.72 360.519C49.2806 360.519 49.735 360.057 49.735 359.487C49.735 358.916 49.2806 358.454 48.72 358.454C48.1594 358.454 47.705 358.916 47.705 359.487C47.705 360.057 48.1594 360.519 48.72 360.519Z" fill="#646464"/>
<path d="M42.63 357.422C43.1906 357.422 43.645 356.96 43.645 356.39C43.645 355.82 43.1906 355.358 42.63 355.358C42.0694 355.358 41.615 355.82 41.615 356.39C41.615 356.96 42.0694 357.422 42.63 357.422Z" fill="#646464"/>
<path d="M44.66 360.519C45.2206 360.519 45.675 360.057 45.675 359.487C45.675 358.916 45.2206 358.454 44.66 358.454C44.0994 358.454 43.645 358.916 43.645 359.487C43.645 360.057 44.0994 360.519 44.66 360.519Z" fill="#646464"/>
<path d="M38.57 357.422C39.1306 357.422 39.585 356.96 39.585 356.39C39.585 355.82 39.1306 355.358 38.57 355.358C38.0094 355.358 37.555 355.82 37.555 356.39C37.555 356.96 38.0094 357.422 38.57 357.422Z" fill="#646464"/>
<path d="M40.6 360.519C41.1606 360.519 41.615 360.057 41.615 359.487C41.615 358.916 41.1606 358.454 40.6 358.454C40.0394 358.454 39.585 358.916 39.585 359.487C39.585 360.057 40.0394 360.519 40.6 360.519Z" fill="#646464"/>
<path d="M34.51 357.422C35.0706 357.422 35.525 356.96 35.525 356.39C35.525 355.82 35.0706 355.358 34.51 355.358C33.9494 355.358 33.495 355.82 33.495 356.39C33.495 356.96 33.9494 357.422 34.51 357.422Z" fill="#646464"/>
<path d="M36.54 360.519C37.1006 360.519 37.555 360.057 37.555 359.487C37.555 358.916 37.1006 358.454 36.54 358.454C35.9794 358.454 35.525 358.916 35.525 359.487C35.525 360.057 35.9794 360.519 36.54 360.519Z" fill="#646464"/>
<path d="M60.9 364.02V351.856C60.9 349.234 58.802 347.1 56.2229 347.1H4.67712C2.098 347.1 0 349.234 0 351.856V364.019C0 365.535 0.713545 366.872 1.80365 367.743C0.713545 368.615 0 369.953 0 371.468V383.631C0 385.147 0.713545 386.484 1.80365 387.355C0.713545 388.227 0 389.565 0 391.08V403.243C0 405.867 2.098 408 4.67712 408H56.2219C58.801 408 60.899 405.867 60.899 403.244V391.08C60.899 389.564 60.1854 388.227 59.0953 387.356C60.1865 386.485 60.9 385.147 60.9 383.632V371.468C60.9 369.952 60.1865 368.615 59.0963 367.744C60.1865 366.873 60.9 365.535 60.9 364.02ZM58.87 391.08V403.243C58.87 404.727 57.6824 405.935 56.2229 405.935H4.67712C3.21755 405.936 2.03 404.728 2.03 403.244V391.08C2.03 389.596 3.21755 388.388 4.67712 388.388H56.2219C57.6824 388.388 58.87 389.596 58.87 391.08ZM58.87 371.468V383.631C58.87 385.115 57.6824 386.323 56.2229 386.323H4.67712C3.21755 386.324 2.03 385.116 2.03 383.632V371.468C2.03 369.984 3.21755 368.776 4.67712 368.776H56.2219C57.6824 368.776 58.87 369.984 58.87 371.468ZM4.67712 366.712C3.21755 366.712 2.03 365.504 2.03 364.02V351.856C2.03 350.372 3.21755 349.165 4.67712 349.165H56.2219C57.6824 349.165 58.87 350.372 58.87 351.856V364.019C58.87 365.503 57.6824 366.711 56.2229 366.711L4.67712 366.712Z" fill="#646464"/>
<path d="M10.6575 382.195C13.1757 382.195 15.225 380.111 15.225 377.55C15.225 374.989 13.1757 372.905 10.6575 372.905C8.13929 372.905 6.09 374.989 6.09 377.55C6.09 380.111 8.13929 382.195 10.6575 382.195ZM10.6575 374.97C12.0562 374.97 13.195 376.127 13.195 377.55C13.195 378.974 12.0562 380.131 10.6575 380.131C9.25883 380.131 8.12 378.974 8.12 377.55C8.12 376.127 9.25883 374.97 10.6575 374.97Z" fill="#646464"/>
<path d="M50.75 377.034C51.3106 377.034 51.765 376.572 51.765 376.002C51.765 375.432 51.3106 374.97 50.75 374.97C50.1894 374.97 49.735 375.432 49.735 376.002C49.735 376.572 50.1894 377.034 50.75 377.034Z" fill="#646464"/>
<path d="M46.69 377.034C47.2506 377.034 47.705 376.572 47.705 376.002C47.705 375.432 47.2506 374.97 46.69 374.97C46.1294 374.97 45.675 375.432 45.675 376.002C45.675 376.572 46.1294 377.034 46.69 377.034Z" fill="#646464"/>
<path d="M52.78 380.131C53.3406 380.131 53.795 379.668 53.795 379.098C53.795 378.528 53.3406 378.066 52.78 378.066C52.2194 378.066 51.765 378.528 51.765 379.098C51.765 379.668 52.2194 380.131 52.78 380.131Z" fill="#646464"/>
<path d="M48.72 380.131C49.2806 380.131 49.735 379.668 49.735 379.098C49.735 378.528 49.2806 378.066 48.72 378.066C48.1594 378.066 47.705 378.528 47.705 379.098C47.705 379.668 48.1594 380.131 48.72 380.131Z" fill="#646464"/>
<path d="M42.63 377.034C43.1906 377.034 43.645 376.572 43.645 376.002C43.645 375.432 43.1906 374.97 42.63 374.97C42.0694 374.97 41.615 375.432 41.615 376.002C41.615 376.572 42.0694 377.034 42.63 377.034Z" fill="#646464"/>
<path d="M44.66 380.131C45.2206 380.131 45.675 379.668 45.675 379.098C45.675 378.528 45.2206 378.066 44.66 378.066C44.0994 378.066 43.645 378.528 43.645 379.098C43.645 379.668 44.0994 380.131 44.66 380.131Z" fill="#646464"/>
<path d="M38.57 377.034C39.1306 377.034 39.585 376.572 39.585 376.002C39.585 375.432 39.1306 374.97 38.57 374.97C38.0094 374.97 37.555 375.432 37.555 376.002C37.555 376.572 38.0094 377.034 38.57 377.034Z" fill="#646464"/>
<path d="M40.6 380.131C41.1606 380.131 41.615 379.668 41.615 379.098C41.615 378.528 41.1606 378.066 40.6 378.066C40.0394 378.066 39.585 378.528 39.585 379.098C39.585 379.668 40.0394 380.131 40.6 380.131Z" fill="#646464"/>
<path d="M34.51 377.034C35.0706 377.034 35.525 376.572 35.525 376.002C35.525 375.432 35.0706 374.97 34.51 374.97C33.9494 374.97 33.495 375.432 33.495 376.002C33.495 376.572 33.9494 377.034 34.51 377.034Z" fill="#646464"/>
<path d="M36.54 380.131C37.1006 380.131 37.555 379.668 37.555 379.098C37.555 378.528 37.1006 378.066 36.54 378.066C35.9794 378.066 35.525 378.528 35.525 379.098C35.525 379.668 35.9794 380.131 36.54 380.131Z" fill="#646464"/>
<path d="M10.6575 401.807C13.1757 401.807 15.225 399.723 15.225 397.162C15.225 394.601 13.1757 392.517 10.6575 392.517C8.13929 392.517 6.09 394.601 6.09 397.162C6.09 399.723 8.13929 401.807 10.6575 401.807ZM10.6575 394.581C12.0562 394.581 13.195 395.739 13.195 397.162C13.195 398.585 12.0562 399.742 10.6575 399.742C9.25883 399.742 8.12 398.585 8.12 397.162C8.12 395.739 9.25883 394.581 10.6575 394.581Z" fill="#646464"/>
<path d="M50.75 396.646C51.3106 396.646 51.765 396.184 51.765 395.614C51.765 395.044 51.3106 394.581 50.75 394.581C50.1894 394.581 49.735 395.044 49.735 395.614C49.735 396.184 50.1894 396.646 50.75 396.646Z" fill="#646464"/>
<path d="M46.69 396.646C47.2506 396.646 47.705 396.184 47.705 395.614C47.705 395.044 47.2506 394.581 46.69 394.581C46.1294 394.581 45.675 395.044 45.675 395.614C45.675 396.184 46.1294 396.646 46.69 396.646Z" fill="#646464"/>
<path d="M52.78 399.742C53.3406 399.742 53.795 399.28 53.795 398.71C53.795 398.14 53.3406 397.678 52.78 397.678C52.2194 397.678 51.765 398.14 51.765 398.71C51.765 399.28 52.2194 399.742 52.78 399.742Z" fill="#646464"/>
<path d="M48.72 399.742C49.2806 399.742 49.735 399.28 49.735 398.71C49.735 398.14 49.2806 397.678 48.72 397.678C48.1594 397.678 47.705 398.14 47.705 398.71C47.705 399.28 48.1594 399.742 48.72 399.742Z" fill="#646464"/>
<path d="M42.63 396.646C43.1906 396.646 43.645 396.184 43.645 395.614C43.645 395.044 43.1906 394.581 42.63 394.581C42.0694 394.581 41.615 395.044 41.615 395.614C41.615 396.184 42.0694 396.646 42.63 396.646Z" fill="#646464"/>
<path d="M44.66 399.742C45.2206 399.742 45.675 399.28 45.675 398.71C45.675 398.14 45.2206 397.678 44.66 397.678C44.0994 397.678 43.645 398.14 43.645 398.71C43.645 399.28 44.0994 399.742 44.66 399.742Z" fill="#646464"/>
<path d="M38.57 396.646C39.1306 396.646 39.585 396.184 39.585 395.614C39.585 395.044 39.1306 394.581 38.57 394.581C38.0094 394.581 37.555 395.044 37.555 395.614C37.555 396.184 38.0094 396.646 38.57 396.646Z" fill="#646464"/>
<path d="M40.6 399.742C41.1606 399.742 41.615 399.28 41.615 398.71C41.615 398.14 41.1606 397.678 40.6 397.678C40.0394 397.678 39.585 398.14 39.585 398.71C39.585 399.28 40.0394 399.742 40.6 399.742Z" fill="#646464"/>
<path d="M34.51 396.646C35.0706 396.646 35.525 396.184 35.525 395.614C35.525 395.044 35.0706 394.581 34.51 394.581C33.9494 394.581 33.495 395.044 33.495 395.614C33.495 396.184 33.9494 396.646 34.51 396.646Z" fill="#646464"/>
<path d="M36.54 399.742C37.1006 399.742 37.555 399.28 37.555 398.71C37.555 398.14 37.1006 397.678 36.54 397.678C35.9794 397.678 35.525 398.14 35.525 398.71C35.525 399.28 35.9794 399.742 36.54 399.742Z" fill="#646464"/>
<path d="M312.665 216.585L312.73 205.175H311.819L311.754 215.756L297.443 201.86V197.079C299.069 196.888 300.305 195.55 300.305 193.892C300.305 192.107 298.809 190.641 296.987 190.641C295.166 190.578 293.735 192.044 293.735 193.829C293.735 195.486 294.971 196.824 296.597 197.016V201.796L282.286 215.692V205.111H281.375L281.44 216.521V217.095H282.026L293.8 217.159V216.266L282.936 216.33L296.597 203.008V230.608L288.856 223.15L288.205 223.788L296.532 231.883L296.662 232.011L296.987 232.266L297.313 232.011L297.443 231.883L305.769 223.852L305.119 223.214L297.443 230.608V203.008L311.104 216.33H300.24V217.222L312.014 217.159H312.665V216.585ZM297.052 196.187C295.686 196.187 294.646 195.103 294.646 193.829C294.646 192.554 295.751 191.47 297.052 191.47C298.418 191.47 299.459 192.554 299.459 193.829C299.459 195.103 298.353 196.187 297.052 196.187Z" fill="#646464" stroke="#646464" stroke-width="0.676667"/>
<circle cx="296.512" cy="211.182" r="31.8954" stroke="#646464" stroke-width="2.03"/>
<path d="M31.8032 324.093L31.8032 301.763C31.8032 298.026 34.8328 294.997 38.5699 294.997L359.31 294.997" stroke="#AAAAAA" stroke-width="2.03" stroke-linecap="round" stroke-dasharray="0.07 6.77"/>
<path d="M150.539 204.916C148.383 202.274 145.447 200.342 142.189 199.403C141.814 189.377 133.505 181.336 123.345 181.336C119.044 181.336 114.837 182.816 111.499 185.503C108.632 187.811 106.499 190.924 105.382 194.391C103.88 193.793 102.267 193.481 100.641 193.481C93.6297 193.481 87.9198 199.135 87.8704 206.105C83.0346 208.289 79.8467 213.153 79.8467 218.492C79.8467 225.988 85.9715 232.086 93.4998 232.086H137.54C146.77 232.086 154.28 224.609 154.28 215.418C154.28 211.602 152.951 207.872 150.539 204.916ZM137.54 229.488H93.4998C87.4102 229.488 82.4559 224.555 82.4559 218.492C82.4559 213.916 85.35 209.772 89.6572 208.18C90.1985 207.98 90.5433 207.45 90.505 206.877C90.4874 206.613 90.4792 206.397 90.4792 206.197C90.4792 200.617 95.0378 196.079 100.641 196.079C102.373 196.079 104.085 196.523 105.592 197.363C105.95 197.563 106.383 197.583 106.759 197.416C107.135 197.249 107.41 196.916 107.501 196.517C108.302 192.999 110.305 189.806 113.14 187.524C116.015 185.209 119.64 183.934 123.345 183.934C132.304 183.934 139.593 191.191 139.593 200.111C139.593 200.188 139.591 200.265 139.59 200.341L139.589 200.392C139.579 201.009 140.006 201.549 140.611 201.682C143.7 202.364 146.506 204.094 148.514 206.554C150.55 209.049 151.671 212.197 151.671 215.418C151.671 223.176 145.332 229.488 137.54 229.488Z" fill="#646464"/>
<path d="M94.7332 84.5532H38.5699C34.8328 84.5532 31.8032 87.5828 31.8032 91.3199V210.413C31.8032 214.15 34.8328 217.18 38.5699 217.18H73.0799" stroke="#F3652B" stroke-width="2.70667" stroke-linecap="round"/>
<path d="M167.137 217.18H253.073" stroke="#1E1E1E" stroke-width="2.70667" stroke-linecap="round"/>
<path d="M167.137 200.263H253.073" stroke="#F3652B" stroke-width="2.70667" stroke-linecap="round"/>
<path d="M359.31 294.997L212.473 294.997C208.736 294.997 205.707 298.027 205.707 301.764L205.707 323.416" stroke="#1E1E1E" stroke-width="2.70667" stroke-linecap="round"/>
<circle cx="206.383" cy="347.1" r="13.5333" fill="#646464"/>
<circle cx="375.55" cy="347.1" r="13.5333" fill="#646464"/>
<circle cx="30.4498" cy="347.1" r="13.5333" fill="#646464"/>
<path d="M31.4941 352.89H30.0192V343.113L27.0614 344.199V342.867L31.2642 341.289H31.4941V352.89Z" fill="white"/>
<path d="M210.171 352.89H202.606V351.835L206.603 347.395C207.195 346.723 207.602 346.179 207.824 345.761C208.051 345.338 208.165 344.902 208.165 344.453C208.165 343.85 207.982 343.356 207.618 342.97C207.253 342.584 206.766 342.391 206.158 342.391C205.429 342.391 204.861 342.6 204.454 343.018C204.052 343.43 203.851 344.006 203.851 344.746H202.384C202.384 343.684 202.725 342.825 203.407 342.169C204.094 341.514 205.011 341.186 206.158 341.186C207.232 341.186 208.08 341.469 208.704 342.034C209.328 342.595 209.64 343.343 209.64 344.278C209.64 345.415 208.915 346.768 207.467 348.338L204.374 351.693H210.171V352.89Z" fill="white"/>
<path d="M373.906 346.404H375.008C375.701 346.393 376.245 346.211 376.642 345.857C377.038 345.502 377.237 345.024 377.237 344.421C377.237 343.068 376.562 342.391 375.214 342.391C374.58 342.391 374.073 342.574 373.692 342.938C373.317 343.298 373.129 343.776 373.129 344.374H371.662C371.662 343.459 371.995 342.7 372.661 342.098C373.332 341.49 374.184 341.186 375.214 341.186C376.303 341.186 377.157 341.474 377.776 342.05C378.394 342.626 378.704 343.427 378.704 344.453C378.704 344.955 378.54 345.442 378.212 345.912C377.889 346.383 377.448 346.734 376.888 346.967C377.522 347.168 378.011 347.501 378.355 347.966C378.704 348.431 378.878 348.999 378.878 349.671C378.878 350.707 378.54 351.529 377.863 352.137C377.186 352.745 376.306 353.049 375.222 353.049C374.139 353.049 373.256 352.755 372.574 352.169C371.897 351.582 371.559 350.807 371.559 349.845H373.034C373.034 350.453 373.232 350.939 373.629 351.304C374.025 351.669 374.556 351.851 375.222 351.851C375.931 351.851 376.473 351.666 376.848 351.296C377.223 350.926 377.411 350.395 377.411 349.702C377.411 349.031 377.205 348.516 376.792 348.156C376.38 347.797 375.785 347.612 375.008 347.601H373.906V346.404Z" fill="white"/>
<path d="M224.654 66.2832V137.692C224.654 141.429 221.624 144.459 217.887 144.459H131.274C127.536 144.459 124.507 147.488 124.507 151.225V173.873" stroke="#1E1E1E" stroke-width="2.70667" stroke-linecap="round"/>
<path d="M69.739 223.947C70.1196 223.947 70.3734 223.817 70.6271 223.556L76.0828 218.091C76.3365 217.831 76.4634 217.57 76.4634 217.18C76.4634 216.79 76.3365 216.529 76.0828 216.269L70.754 210.804C70.2465 210.283 69.4853 210.283 68.9778 210.804C68.4703 211.324 68.4703 212.105 68.9778 212.626L73.2915 217.18L68.724 221.734C68.2165 222.255 68.2165 223.036 68.724 223.556C68.9778 223.817 69.3584 223.947 69.739 223.947Z" fill="#F3652B"/>
<path d="M249.056 223.947C249.437 223.947 249.69 223.817 249.944 223.556L255.4 218.091C255.653 217.831 255.78 217.57 255.78 217.18C255.78 216.79 255.653 216.529 255.4 216.269L250.071 210.804C249.563 210.283 248.802 210.283 248.295 210.804C247.787 211.324 247.787 212.105 248.295 212.626L252.608 217.18L248.041 221.734C247.533 222.255 247.533 223.036 248.041 223.556C248.295 223.817 248.675 223.947 249.056 223.947Z" fill="#1E1E1E"/>
<path d="M249.056 207.03C249.437 207.03 249.69 206.9 249.944 206.64L255.4 201.174C255.653 200.914 255.78 200.654 255.78 200.263C255.78 199.873 255.653 199.613 255.4 199.352L250.071 193.887C249.563 193.366 248.802 193.366 248.295 193.887C247.787 194.407 247.787 195.188 248.295 195.709L252.608 200.263L248.041 204.818C247.533 205.338 247.533 206.119 248.041 206.64C248.295 206.9 248.675 207.03 249.056 207.03Z" fill="#F3652B"/>
<path d="M117.74 171.209C117.74 171.59 117.87 171.843 118.13 172.097L123.596 177.553C123.856 177.806 124.116 177.933 124.507 177.933C124.897 177.933 125.157 177.806 125.418 177.553L130.883 172.224C131.404 171.716 131.404 170.955 130.883 170.448C130.363 169.94 129.582 169.94 129.061 170.448L124.507 174.761L119.952 170.194C119.432 169.686 118.651 169.686 118.13 170.194C117.87 170.448 117.74 170.828 117.74 171.209Z" fill="#1E1E1E"/>
<path d="M198.94 321.429C198.94 321.81 199.07 322.063 199.331 322.317L204.796 327.773C205.056 328.026 205.317 328.153 205.707 328.153C206.097 328.153 206.358 328.026 206.618 327.773L212.083 322.444C212.604 321.936 212.604 321.175 212.083 320.668C211.563 320.16 210.782 320.16 210.261 320.668L205.707 324.981L201.152 320.414C200.632 319.906 199.851 319.906 199.331 320.414C199.07 320.668 198.94 321.048 198.94 321.429Z" fill="#1E1E1E"/>
<path d="M368.783 321.429C368.783 321.81 368.913 322.063 369.173 322.317L374.639 327.773C374.899 328.026 375.159 328.153 375.55 328.153C375.94 328.153 376.2 328.026 376.461 327.773L381.926 322.444C382.447 321.936 382.447 321.175 381.926 320.668C381.406 320.16 380.625 320.16 380.104 320.668L375.55 324.981L370.995 320.414C370.475 319.906 369.694 319.906 369.173 320.414C368.913 320.668 368.783 321.048 368.783 321.429Z" fill="#F3652B"/>
<path d="M335.965 216.503L352.543 216.503C356.28 216.503 359.31 219.533 359.31 223.27V294.997" stroke="#1E1E1E" stroke-width="2.70667" stroke-linecap="round"/>
<path d="M336.303 200.94H368.783C372.52 200.94 375.55 203.969 375.55 207.707V326.123" stroke="#F3652B" stroke-width="2.70667" stroke-linecap="round"/>
</svg>
