<svg  viewBox="0 0 525 79" fill="none" xmlns="http://www.w3.org/2000/svg">
<g clip-path="url(#clip0)">
<path d="M118.68 11.1377V60.1745L79.1758 11.1377H68.7469V78.0086H79.4698V29.0978L119.072 78.0086H129.962V11.1377H118.68Z" fill="white"/>
<path d="M156.21 11.1377H142.337V78.0086H156.21V11.1377Z" fill="white"/>
<path d="M524.637 49.1015L497.41 2.06657L497.186 1.67461C497.172 1.64661 497.158 1.61861 497.144 1.59062C496.542 0.72271 495.576 0.134772 494.47 0.0647798C494.372 0.0507812 494.288 0.0507812 494.205 0.0507812C494.135 0.0507812 494.051 0.0507812 493.981 0.0647798H459.796H459.726C459.656 0.0647798 459.6 0.0647798 459.53 0.0647798C459.53 0.0647798 459.53 0.0647798 459.516 0.0647798C459.404 0.0647798 459.264 0.0787783 459.152 0.106775C459.138 0.106775 459.138 0.106775 459.124 0.106775C459.082 0.120774 459.012 0.134772 458.97 0.134772C458.9 0.148771 458.83 0.162769 458.774 0.190766C458.746 0.204765 458.718 0.204765 458.69 0.218763C457.976 0.442739 457.234 0.932687 456.451 1.7726L412.789 48.9196C412.789 48.9196 412.677 49.0176 412.537 49.1855C412.481 49.2555 412.425 49.3395 412.369 49.4235C412.201 49.6895 412.103 49.9974 412.103 50.3334C412.103 51.2573 412.831 52.0132 413.741 52.0412C413.769 52.0412 413.811 52.0412 413.839 52.0412C413.853 52.0412 434.543 52.0552 434.571 52.0552C434.865 52.0552 435.117 52.3072 435.117 52.6152C435.117 52.7552 435.061 52.8951 434.977 52.9791L414.007 75.4187C413.937 75.4887 413.881 75.5447 413.825 75.6147C413.671 75.7967 413.559 75.9927 413.475 76.1747C413.433 76.3286 413.391 76.4826 413.391 76.6366C413.391 77.0986 413.615 77.5045 413.951 77.7705C414.203 77.9245 414.511 78.0365 414.875 78.0645C414.959 78.0785 415.043 78.0785 415.127 78.0785H429.237H429.293C430.063 78.0785 430.959 77.7565 431.687 77.0566C431.715 77.0426 431.729 77.0286 431.757 77.0006L453.875 53.1751C454.015 53.0631 454.113 52.8951 454.113 52.6992C454.113 52.3492 453.833 52.0692 453.483 52.0692C453.455 52.0692 441.5 52.0832 441.5 52.0692C441.192 52.0272 440.954 51.7613 440.954 51.4533C440.954 51.2993 441.01 51.1593 441.108 51.0473C441.108 51.0473 441.108 51.0473 441.108 51.0333L464.416 25.934C464.5 25.836 464.584 25.766 464.682 25.696C464.976 25.3881 465.382 25.1921 465.844 25.1921C466.417 25.1921 466.907 25.4861 467.201 25.934L480.416 48.7516L481.774 51.0893C481.788 51.0893 481.788 51.1033 481.788 51.1173L481.844 51.2153C481.844 51.2153 481.844 51.2153 481.83 51.2153C481.858 51.2853 481.872 51.3693 481.872 51.4533C481.872 51.7893 481.606 52.0692 481.27 52.0692C481.27 52.0692 469.105 52.0972 469.077 52.0972C468.629 52.1112 468.279 52.4892 468.279 52.9231C468.279 53.1191 468.349 53.2311 468.461 53.4411L481.648 76.2586L481.746 76.4266C482.292 77.3505 483.258 77.9945 484.378 78.0925H485.021H511.969H511.983C512.305 78.0925 512.613 78.0505 512.865 77.9665C513.592 77.6725 514.11 76.9586 514.11 76.1327C514.11 75.8667 514.054 75.6007 513.956 75.3767L513.704 74.9428L500.896 52.9091C500.896 52.8951 500.84 52.7272 500.84 52.6292C500.84 52.3212 501.078 52.0832 501.386 52.0832C501.428 52.0692 501.47 52.0692 501.526 52.0692C501.526 52.0692 523.125 52.0692 523.139 52.0692H523.279C523.461 52.0692 523.629 52.0412 523.797 51.9852L523.811 51.9712C523.867 51.9572 523.923 51.9292 523.979 51.9012C524.007 51.9012 524.021 51.8872 524.035 51.8733H524.049C524.063 51.8733 524.077 51.8593 524.091 51.8453C524.161 51.8173 524.231 51.7613 524.287 51.7193C524.301 51.7053 524.315 51.6913 524.329 51.6913C524.385 51.6493 524.455 51.5933 524.497 51.5373C524.511 51.5233 524.539 51.4953 524.567 51.4673C524.609 51.4113 524.665 51.3693 524.707 51.3133C524.735 51.2573 524.777 51.2153 524.819 51.1453C524.861 51.0613 524.903 50.9913 524.945 50.9074C524.973 50.8374 525.001 50.7534 525.015 50.6694C525.015 50.3894 525.057 49.8155 524.637 49.1015ZM482.642 24.0302C482.628 24.0302 482.628 24.0442 482.628 24.0442H449.577V24.0302C449.255 24.0022 449.003 23.7363 449.003 23.4143C449.003 23.2603 449.059 23.1203 449.157 22.9943L468.643 1.94058C468.797 1.7866 468.965 1.64661 469.147 1.53462C469.413 1.35264 469.735 1.22666 470.085 1.22666C470.099 1.22666 470.141 1.22666 470.155 1.22666C470.197 1.22666 470.239 1.24065 470.267 1.24065C470.743 1.29665 471.149 1.54862 471.401 1.92658L483.356 22.7564C483.356 22.7704 483.37 22.7844 483.37 22.7984C483.44 22.9103 483.482 23.0503 483.482 23.1903C483.468 23.6523 483.09 24.0302 482.642 24.0302Z" fill="white"/>
<path d="M335.698 11.0537H299.175L286.661 77.9806H326.809L328.908 66.6138H306.931L310.262 48.7237H328.138L330.238 37.3569H312.362L315.148 22.4345H333.598L335.698 11.0537Z" fill="white"/>
<path d="M370.344 11.0537H347.023L334.494 77.9806H357.158C379.051 77.9806 397.977 63.2681 397.977 39.1627C397.977 22.5185 388.416 11.0537 370.344 11.0537ZM359.551 66.6138H354.764L362.981 22.4345H367.95C375.216 22.4345 379.415 30.7636 379.415 39.3587C379.429 57.1228 367.964 66.6138 359.551 66.6138Z" fill="white"/>
<path d="M198.568 66.6144C191.289 66.6144 187.089 58.2853 187.089 49.6902C187.089 31.9261 198.568 22.4491 206.967 22.4491H229.575L231.702 11.0684H209.361C187.467 11.0684 168.541 25.7808 168.541 49.8862C168.541 66.5164 178.102 77.9952 196.174 77.9952H219.3L221.399 66.6284L198.568 66.6144Z" fill="white"/>
<path d="M270.9 48.2484C277.115 45.1827 285.052 39.7373 285.052 28.0905C285.052 21.0073 280.363 11.0684 266.21 11.0684H239.445L226.917 77.9952H244.989L249.762 52.6719H254.928L261.731 78.0092H281.567L270.9 48.2484ZM257.125 41.2771H251.68L255.319 22.4351H260.009C263.831 22.4351 267.078 26.3547 267.078 30.3723C267.078 36.5736 262.011 41.2771 257.125 41.2771Z" fill="white"/>
<path d="M42.7094 11.1104V47.7584C42.4015 62.7089 39.5038 71.3879 28.375 71.3879C28.333 71.3879 28.137 71.3879 28.095 71.3879C16.9662 71.3879 14.0685 62.7089 13.7605 47.7584V11.1104H0V51.986C0 66.4744 5.34743 75.1675 17.6661 78.0372C17.6661 78.0372 21.1377 78.8491 27.3111 78.8491C27.3391 78.8491 29.1449 78.8491 29.1729 78.8491C35.3322 78.8491 38.2439 78.0372 38.2439 78.0372C51.1505 75.4475 56.47 66.4884 56.47 52V11.1104H42.7094Z" fill="white"/>
</g>
<defs>
<clipPath id="clip0">
<rect width="525" height="78.7836" fill="white" transform="translate(0 0.0517578)"/>
</clipPath>
</defs>
</svg>
