<svg width="42" height="42" viewBox="0 0 42 42" fill="none" xmlns="http://www.w3.org/2000/svg">
<path fill-rule="evenodd" clip-rule="evenodd" d="M20.9163 0L0.206818 12.133L0 12.2566V29.7487L20.7074 41.8785L20.9216 42L41.6322 29.8638L41.8316 29.7391V12.2545L21.186 0.157779L20.9195 0H20.9163ZM1.06709 29.1379V12.8632L20.9173 1.2356L40.7644 12.8632V29.1379L20.9173 40.7676L1.06709 29.1379Z" fill="#F3652B"/>
<path fill-rule="evenodd" clip-rule="evenodd" d="M20.9156 32.9523L3.57062 22.7937L3.02905 23.7105L20.6437 34.028L20.9135 34.1889L38.8021 23.7095L38.2574 22.7937L20.9156 32.9523Z" fill="#F3652B"/>
<path fill-rule="evenodd" clip-rule="evenodd" d="M3.57111 14.9795L3.02954 15.8984L20.641 26.2127L20.9118 26.3769L38.8026 15.8974L38.2568 14.9806L20.9161 25.1391L3.57111 14.9795Z" fill="#F3652B"/>
</svg>
