<svg  viewBox="0 0 1021 260" fill="none" xmlns="http://www.w3.org/2000/svg">
<g clip-path="url(#clip0)">
<path d="M0 26.8999C11.482 25.7665 23.0504 25.8342 34.5184 27.1018C41.8673 28.0441 47.941 32.5087 53.4555 37.3098C60.567 43.6376 66.9693 50.724 72.549 58.4436C93.7791 87.0408 115.002 115.646 136.217 144.258L140.557 150.024C140.68 147.286 140.814 145.536 140.814 143.809C140.814 106.466 140.904 69.1115 140.725 31.7571C140.725 27.371 141.843 26.1484 146.228 26.2493C159.259 26.5522 172.312 26.4849 185.377 26.2493C189.035 26.2493 190.097 27.2364 190.086 30.9494C189.974 96.8711 189.974 162.793 190.086 228.715C190.086 232.652 188.968 233.863 185.097 233.706C178.207 233.403 171.295 233.415 164.415 233.706C154.595 234.065 146.217 230.655 138.689 224.732C130.691 218.45 124.271 210.722 118.264 202.6C96.6389 173.39 74.9763 144.183 53.2765 114.98C52.225 113.555 51.0393 112.187 49.1826 109.775V116.382C49.1826 153.737 49.1826 191.08 49.2833 228.434C49.2833 232.484 48.4892 233.964 44.1156 233.785C29.4403 233.19 14.7313 234.368 0.055982 233.145L0 26.8999Z" fill="white"/>
<path d="M934.67 129.046C937.869 127.689 939.726 124.795 942.064 122.473C952.779 111.85 963.495 101.16 973.965 90.346C976.906 87.2948 978.595 86.9022 981.795 90.2114C993.271 102.181 1005.07 113.836 1016.81 125.547C1018.06 126.803 1018.92 128.688 1021.04 128.912V131.155C1019.77 133.424 1018.16 135.489 1016.28 137.28C991.276 162.295 966.269 187.307 941.258 212.314C939.446 214.12 938.115 217.811 934.234 215.78C933.115 213.29 933.462 210.643 933.462 208.052C933.462 183.642 933.462 159.233 933.462 134.184C921.527 146.142 909.973 157.741 898.485 169.228C892.143 175.554 891.617 175.543 885.152 169.082C874.712 158.687 864.313 148.277 853.956 137.852C852.052 136.075 850.4 134.044 849.045 131.817C847.558 129.574 849.37 128.284 850.567 127.072C863.109 114.359 875.723 101.698 888.407 89.0896C890.644 86.8461 892.881 86.5881 895.118 88.9326C908.306 102.27 922.064 115.081 934.67 129.046Z" fill="#CFCFCF"/>
<path d="M934.67 129.047C932.321 128.901 931.315 126.904 929.872 125.502C918.12 113.798 906.401 102.061 894.716 90.2899C893.15 88.7195 892.042 86.8574 889.47 89.4935C876.439 102.82 863.217 115.956 850.097 129.192C849.666 129.782 849.323 130.432 849.079 131.122C849.141 131.235 849.176 131.361 849.181 131.49C849.186 131.619 849.161 131.748 849.108 131.865C849.055 131.983 848.975 132.086 848.875 132.168C848.774 132.249 848.657 132.306 848.531 132.333L846.484 132.098C845.858 130.529 845.635 128.828 845.835 127.151C845.902 102.685 845.835 78.2199 845.835 53.7656C845.835 50.5574 845.969 47.4053 847.636 44.5449C860.813 31.196 873.982 17.8471 887.143 4.49824C888.564 3.05118 889.895 1.50316 891.271 0.0112305H892.389C904.134 13.2143 916.997 25.2843 929.548 37.7358C931.368 39.3793 932.801 41.409 933.741 43.6773C934.681 45.9456 935.106 48.3956 934.984 50.8491C934.659 76.8962 934.738 102.977 934.67 129.047Z" fill="#E8E8E8"/>
<path d="M848.531 132.333C848.71 131.929 848.889 131.526 849.079 131.122C862.032 144.011 875.074 156.81 887.87 169.845C890.79 172.829 892.423 173.344 895.622 170.013C906.807 158.302 918.451 146.938 929.916 135.463C931.203 134.184 932.567 132.973 934.927 130.763V216.184C922.042 229.256 909.164 242.344 896.293 255.446C894.906 256.87 893.027 257.914 892.4 260.011H891.282C878.094 246.651 864.962 233.246 851.674 219.998C850.596 219.007 849.75 217.789 849.197 216.432C848.644 215.074 848.397 213.61 848.475 212.146C848.587 185.572 848.542 158.952 848.531 132.333Z" fill="#B7B7B7"/>
<path d="M608.356 150.36V111.401C608.356 84.894 608.435 58.3757 608.267 31.8687C608.267 27.707 609.016 26.1029 613.625 26.2599C626.287 26.6077 638.96 26.5853 651.655 26.2599C656.252 26.1478 657.572 27.3817 657.561 32.0931C657.39 97.2445 657.352 162.4 657.449 227.559C657.416 227.932 657.416 228.307 657.449 228.68C658.042 232.539 656.543 233.908 652.573 233.739C645.693 233.437 638.781 233.437 631.891 233.739C622.081 234.11 613.692 230.767 606.097 224.833C598.267 218.686 591.936 211.102 586.041 203.138C564.416 173.928 542.791 144.713 521.165 115.495C520.047 113.914 518.783 112.343 517.385 110.492C516.188 112.837 516.736 114.879 516.736 116.819C516.736 153.972 516.624 191.124 516.803 228.277C516.803 232.685 515.684 233.885 511.289 233.784C498.246 233.504 485.204 233.582 472.139 233.784C468.717 233.784 467.363 233.19 467.374 229.297C467.509 163.211 467.509 97.1211 467.374 31.0274C467.374 27.4266 468.247 26.1815 471.972 26.3609C478.485 26.6974 485.011 26.6974 491.524 26.3609C503.067 25.6879 512.564 30.0291 521.02 37.4214C527.698 43.3857 533.72 50.0495 538.984 57.2989L603.748 144.347C604.922 145.895 606.119 147.51 608.356 150.36Z" fill="white"/>
<path d="M345.285 75.8754H339.211C305.655 75.8754 272.098 75.8753 238.609 75.9538C234.895 75.9538 233.419 75.2697 233.497 71.1416C233.766 57.6806 233.766 44.2381 233.497 30.8145C233.419 26.8996 234.817 26.249 238.273 26.249C298.451 26.3388 358.626 26.3388 418.796 26.249C422.834 26.249 423.885 27.5615 423.662 31.3642C423.298 36.3943 423.298 41.4441 423.662 46.4742C425.004 62.0105 419.12 74.8322 409.635 86.5433C401.861 96.1567 392.779 104.491 383.908 112.983C361.068 134.962 338.197 156.915 315.297 178.841C313.854 180.232 312.422 181.634 309.849 184.136H316.874C350.598 184.136 384.311 184.214 418.035 184.057C422.252 184.057 423.83 184.876 423.707 189.52C423.371 202.768 423.483 216.027 423.707 229.275C423.707 232.64 422.845 233.762 419.367 233.762C358.816 233.665 298.269 233.665 237.725 233.762C234.649 233.762 233.486 233.011 233.575 229.724C233.799 220.75 233.576 211.776 233.743 202.802C233.978 192.818 238.9 184.663 244.537 176.912C250.147 169.453 256.413 162.515 263.262 156.182C289.809 130.755 316.359 105.366 342.914 80.0146C344.078 79.1262 345.339 78.3736 346.672 77.7711L345.285 75.8754Z" fill="white"/>
<path d="M847.648 44.5449C847.692 71.9606 847.737 99.38 847.782 126.803C847.928 128.662 847.473 130.519 846.484 132.098C833.845 144.785 821.127 157.393 808.633 170.237C806.026 172.918 804.595 172.795 802.055 170.237C789.751 157.674 777.38 145.301 764.953 132.928C763.175 131.155 762.101 129.989 764.494 127.611C792.279 99.9633 819.997 72.2747 847.648 44.5449Z" fill="#CFCFCF"/>
</g>
<defs>
<clipPath id="clip0">
<rect width="1021" height="260" fill="white"/>
</clipPath>
</defs>
</svg>
