<svg width="32" height="42" viewBox="0 0 32 42" fill="none" xmlns="http://www.w3.org/2000/svg">
            <mask id="mask0" mask-type="alpha" maskUnits="userSpaceOnUse" x="0" y="0" width="32" height="42">
                <path fill-rule="evenodd" clip-rule="evenodd" d="M0 0H31.5878V42H0V0Z" fill="white" />
            </mask>
            <g mask="url(#mask0)">
                <path fill-rule="evenodd" clip-rule="evenodd"
                    d="M30.6202 41.0406H0.967832V17.6773H4.03859V12.6554C4.06529 6.20821 9.34772 0.963237 15.8152 0.963237C22.2799 0.963237 27.5402 6.22832 27.5402 12.702L27.5559 17.6773H30.6202V41.0406ZM28.5189 16.7168L28.5078 12.6521C28.4821 5.67558 22.788 0 15.8151 0C8.78779 0 3.07076 5.6966 3.07076 12.6987V16.7168H0V42H31.5878V16.7168H28.5189Z"
                    fill="#F3652B" />
            </g>
            <path fill-rule="evenodd" clip-rule="evenodd"
                d="M7.11122 16.7181V12.6543C7.11122 7.89846 11.0042 4.0285 15.7894 4.0285C20.5747 4.0285 24.4677 7.89846 24.4677 12.6552L24.4732 16.7181H7.11122ZM15.7905 3.06934C10.4712 3.06934 6.14453 7.36899 6.14453 12.6551V17.6788H25.4447L25.4355 12.6551C25.4355 7.36899 21.1088 3.06934 15.7905 3.06934Z"
                fill="#F3652B" />
            <path fill-rule="evenodd" clip-rule="evenodd"
                d="M18.3106 34.9771H13.2786L14.5364 28.8471L14.5235 28.5665L14.3237 28.4293C13.6294 27.9539 13.2151 27.1722 13.2151 26.3375C13.2151 24.9333 14.3633 23.7914 15.7757 23.7914C17.19 23.7914 18.3401 24.9333 18.3401 26.3375C18.3401 27.1585 17.9359 27.9338 17.1965 28.454L16.9985 28.592L18.3106 34.9771ZM19.3069 26.3381C19.3069 24.4054 17.7223 22.832 15.7749 22.832C13.8302 22.832 12.2465 24.4054 12.2465 26.3381C12.2465 27.3749 12.7161 28.3622 13.5135 29.026L12.0918 35.9376H19.492L18.0685 28.9995C18.8475 28.3357 19.3069 27.3584 19.3069 26.3381Z"
                fill="#F3652B" />
        </svg>
