<svg  viewBox="0 0 243 48" fill="none" xmlns="http://www.w3.org/2000/svg">
<path d="M43.2891 16.386L26.2039 33.3473C25.0146 34.5243 23.4335 35.1782 21.7544 35.1782C20.0752 35.1782 18.4975 34.5243 17.3116 33.3473L0.0912186 16.262L0 31.5029L9.58151 41.0163C12.835 44.2423 17.1596 46.0195 21.7544 46.0195C26.3525 46.0195 30.6804 44.2423 33.9272 41.0163L43.2891 31.7209V16.386Z" fill="white"/>
<path d="M33.8234 6.97834C30.5868 3.76584 26.3738 2.10593 22.1202 1.98857C17.5626 1.86449 12.9509 3.52775 9.47775 6.97834L0.000976562 16.3845L7.82227 23.9328L7.83917 23.9463L17.2011 14.6474C18.4275 13.4302 20.0424 12.8199 21.6506 12.8199C23.2622 12.8199 24.8771 13.4302 26.1001 14.6474L43.307 31.7227L43.2968 16.3811L33.8234 6.97834Z" fill="white"/>
<path d="M43.2893 31.709V16.3876L35.5728 24.05L43.2893 31.709Z" fill="white"/>
<path d="M0.00195312 31.5064L0.110066 31.6104L7.83677 23.9446L0.110066 16.2789L0.00195312 16.3828V31.5064Z" fill="white"/>
<path d="M83.3301 37.2638H76.7521V34.5208C75.1203 36.5227 72.6979 37.9043 69.2586 37.9043C62.3697 37.9043 57.1499 32.2908 57.1499 24.833C57.1499 17.3785 62.3697 11.765 69.2586 11.765C72.6979 11.765 75.0933 13.1466 76.7521 15.172V12.429H83.3301V37.2638ZM64.0455 24.833C64.0455 28.6256 66.549 31.6771 70.4985 31.6771C74.3466 31.6771 76.9515 28.753 76.9515 24.833C76.9515 20.9129 74.3466 17.9921 70.4985 17.9921C66.549 17.9921 64.0455 21.0437 64.0455 24.833Z" fill="white"/>
<path d="M107.023 15.1976V12.4277H113.631V35.2137C113.631 43.1846 108.388 48 100.124 48C96.1742 48 91.995 46.9772 89.1773 45.0021L91.5828 39.5462C94.0863 41.1827 96.8465 42.0814 99.8399 42.0814C104.026 42.0814 106.969 39.7743 106.969 35.4954V33.7516C105.266 35.8274 102.735 37.1083 99.2757 37.1083C93.1808 37.1083 87.7583 32.0616 87.7583 24.4495C87.7583 16.8139 93.1808 11.7604 99.2757 11.7604C102.759 11.7604 105.317 13.0951 107.023 15.1976ZM94.6809 24.4495C94.6809 28.0376 97.1337 30.9583 100.978 30.9583C104.722 30.9583 107.252 28.1415 107.252 24.4495C107.252 20.734 104.722 17.9138 100.978 17.9138C97.1337 17.9138 94.6809 20.8379 94.6809 24.4495Z" fill="white"/>
<path d="M127.155 4.30605C127.155 6.7171 125.27 8.56144 122.844 8.56144C120.415 8.56144 118.557 6.7171 118.557 4.30605C118.557 1.89499 120.415 0.000354767 122.844 0.000354767C125.27 0.000354767 127.155 1.89499 127.155 4.30605ZM126.25 37.2627H119.509V12.4312H126.25V37.2627Z" fill="white"/>
<path d="M156.962 25.3206C156.962 32.3425 151.644 37.5469 144.721 37.5469C140.13 37.5469 136.461 35.1861 134.474 31.702V37.2685H132.67V0.358303H134.474V18.9392C136.461 15.4282 140.13 13.0675 144.721 13.0675C151.644 13.0675 156.962 18.2987 156.962 25.3206ZM134.346 25.3206C134.346 31.3164 138.758 35.8534 144.721 35.8534C150.738 35.8534 155.103 31.2661 155.103 25.3206C155.103 19.3483 150.715 14.7609 144.721 14.7609C138.758 14.7609 134.346 19.298 134.346 25.3206Z" fill="white"/>
<path d="M185.729 37.2632H183.948V31.6732C181.958 35.1875 178.266 37.5449 173.671 37.5449C166.748 37.5449 161.454 32.3405 161.454 25.3186C161.454 18.3034 166.748 13.0689 173.671 13.0689C178.266 13.0689 181.958 15.4263 183.948 18.964V13.3506H185.729V37.2632ZM163.292 25.3186C163.292 31.2641 167.681 35.8548 173.671 35.8548C179.634 35.8548 184.05 31.3211 184.05 25.3186C184.05 19.2994 179.634 14.7623 173.671 14.7623C167.65 14.7623 163.292 19.3497 163.292 25.3186Z" fill="white"/>
<path d="M214.921 23.2439V37.2676H213.137V23.2439C213.137 18.1938 210.039 14.7599 204.285 14.7599C199.072 14.7599 195.451 18.5559 195.451 23.4216V37.2676H193.643V13.3515H195.427V17.9389C197.13 15.045 200.282 13.0699 204.437 13.0699C210.921 13.0699 214.921 17.0201 214.921 23.2439Z" fill="white"/>
<path d="M224.417 23.8848H228.883L240.114 13.352H242.418L230.279 24.6527L242.674 37.2646H240.377L228.86 25.5246H224.417V37.2646H222.609V0.357765H224.417V23.8848Z" fill="white"/>
</svg>
