<svg  viewBox="0 0 539 366" fill="none" xmlns="http://www.w3.org/2000/svg">
<rect width="538.413" height="366" fill="white"/>
<path d="M39.6118 53.1404H36.7553V60.9092H34.834V53.1404H32.0159V51.5841H39.6118V53.1404ZM38.9713 57.3803C38.9713 56.6928 39.1037 56.0801 39.3684 55.5421C39.6331 55.0042 40.0131 54.5879 40.5084 54.2933C41.008 53.9986 41.5865 53.8513 42.244 53.8513C43.1791 53.8513 43.9413 54.1374 44.5305 54.7096C45.124 55.2817 45.4549 56.0588 45.5232 57.0408L45.536 57.5148C45.536 58.5779 45.2393 59.4319 44.6458 60.0766C44.0523 60.717 43.256 61.0373 42.2569 61.0373C41.2577 61.0373 40.4593 60.717 39.8615 60.0766C39.2681 59.4361 38.9713 58.5651 38.9713 57.4635V57.3803ZM40.8222 57.5148C40.8222 58.1723 40.9461 58.6761 41.1937 59.0262C41.4413 59.3721 41.7957 59.545 42.2569 59.545C42.7052 59.545 43.0553 59.3742 43.3072 59.0326C43.5591 58.6868 43.6851 58.136 43.6851 57.3803C43.6851 56.7355 43.5591 56.236 43.3072 55.8816C43.0553 55.5272 42.7009 55.35 42.244 55.35C41.7915 55.35 41.4413 55.5272 41.1937 55.8816C40.9461 56.2317 40.8222 56.7761 40.8222 57.5148ZM48.892 52.2758V53.9794H50.0768V55.3372H48.892V58.7957C48.892 59.0519 48.9411 59.2355 49.0393 59.3465C49.1375 59.4575 49.3254 59.513 49.6029 59.513C49.8078 59.513 49.9893 59.498 50.1473 59.4682V60.8708C49.7844 60.9818 49.4108 61.0373 49.0265 61.0373C47.7285 61.0373 47.0667 60.3819 47.0411 59.0711V55.3372H46.0292V53.9794H47.0411V52.2758H48.892ZM55.1236 60.9092C55.0382 60.7427 54.9763 60.5356 54.9379 60.2879C54.4896 60.7875 53.9068 61.0373 53.1895 61.0373C52.5106 61.0373 51.947 60.8409 51.4987 60.4481C51.0546 60.0552 50.8326 59.5599 50.8326 58.9622C50.8326 58.2278 51.1037 57.6642 51.646 57.2714C52.1925 56.8786 52.9802 56.68 54.0092 56.6758H54.8611V56.2787C54.8611 55.9584 54.7778 55.7023 54.6113 55.5101C54.449 55.318 54.1907 55.2219 53.8363 55.2219C53.5246 55.2219 53.2791 55.2966 53.0998 55.4461C52.9247 55.5955 52.8372 55.8005 52.8372 56.0609H50.9863C50.9863 55.6596 51.1101 55.2881 51.3578 54.9465C51.6054 54.6049 51.9555 54.3381 52.4081 54.146C52.8607 53.9495 53.3688 53.8513 53.9324 53.8513C54.7863 53.8513 55.4631 54.067 55.9626 54.4982C56.4665 54.9252 56.7184 55.5272 56.7184 56.3043V59.308C56.7227 59.9656 56.8144 60.463 56.9938 60.8003V60.9092H55.1236ZM53.5929 59.6219C53.8662 59.6219 54.1181 59.5621 54.3487 59.4425C54.5793 59.3187 54.75 59.1543 54.8611 58.9494V57.7581H54.1694C53.2428 57.7581 52.7497 58.0784 52.6899 58.7188L52.6835 58.8277C52.6835 59.0583 52.7646 59.2483 52.9269 59.3977C53.0891 59.5471 53.3111 59.6219 53.5929 59.6219ZM60.0936 60.9092H58.2363V51.0718H60.0936V60.9092ZM65.0123 60.9092V51.5841H67.8815C68.7013 51.5841 69.4336 51.7699 70.0783 52.1413C70.7273 52.5085 71.2333 53.0337 71.5962 53.7168C71.9591 54.3957 72.1406 55.1685 72.1406 56.0353V56.4644C72.1406 57.3312 71.9613 58.1018 71.6026 58.7765C71.2482 59.4511 70.7465 59.9741 70.0975 60.3456C69.4485 60.717 68.7163 60.9049 67.9008 60.9092H65.0123ZM66.9337 53.1404V59.3657H67.8623C68.6138 59.3657 69.1881 59.1202 69.5852 58.6292C69.9822 58.1381 70.1851 57.4358 70.1936 56.522V56.0289C70.1936 55.081 69.9972 54.3637 69.6044 53.877C69.2116 53.3859 68.6373 53.1404 67.8815 53.1404H66.9337ZM77.4372 60.9092C77.3518 60.7427 77.2899 60.5356 77.2514 60.2879C76.8031 60.7875 76.2203 61.0373 75.503 61.0373C74.8241 61.0373 74.2605 60.8409 73.8122 60.4481C73.3681 60.0552 73.1461 59.5599 73.1461 58.9622C73.1461 58.2278 73.4172 57.6642 73.9595 57.2714C74.506 56.8786 75.2938 56.68 76.3228 56.6758H77.1746V56.2787C77.1746 55.9584 77.0913 55.7023 76.9248 55.5101C76.7626 55.318 76.5042 55.2219 76.1499 55.2219C75.8382 55.2219 75.5927 55.2966 75.4133 55.4461C75.2383 55.5955 75.1507 55.8005 75.1507 56.0609H73.2998C73.2998 55.6596 73.4236 55.2881 73.6713 54.9465C73.9189 54.6049 74.269 54.3381 74.7216 54.146C75.1742 53.9495 75.6823 53.8513 76.2459 53.8513C77.0999 53.8513 77.7766 54.067 78.2762 54.4982C78.78 54.9252 79.0319 55.5272 79.0319 56.3043V59.308C79.0362 59.9656 79.128 60.463 79.3073 60.8003V60.9092H77.4372ZM75.9065 59.6219C76.1797 59.6219 76.4317 59.5621 76.6622 59.4425C76.8928 59.3187 77.0636 59.1543 77.1746 58.9494V57.7581H76.4829C75.5564 57.7581 75.0632 58.0784 75.0034 58.7188L74.997 58.8277C74.997 59.0583 75.0782 59.2483 75.2404 59.3977C75.4027 59.5471 75.6247 59.6219 75.9065 59.6219ZM82.6697 52.2758V53.9794H83.8546V55.3372H82.6697V58.7957C82.6697 59.0519 82.7188 59.2355 82.817 59.3465C82.9152 59.4575 83.1031 59.513 83.3806 59.513C83.5856 59.513 83.767 59.498 83.925 59.4682V60.8708C83.5621 60.9818 83.1885 61.0373 82.8042 61.0373C81.5062 61.0373 80.8444 60.3819 80.8188 59.0711V55.3372H79.8069V53.9794H80.8188V52.2758H82.6697ZM88.9014 60.9092C88.816 60.7427 88.7541 60.5356 88.7156 60.2879C88.2673 60.7875 87.6845 61.0373 86.9672 61.0373C86.2883 61.0373 85.7247 60.8409 85.2764 60.4481C84.8323 60.0552 84.6103 59.5599 84.6103 58.9622C84.6103 58.2278 84.8814 57.6642 85.4237 57.2714C85.9702 56.8786 86.758 56.68 87.787 56.6758H88.6388V56.2787C88.6388 55.9584 88.5555 55.7023 88.389 55.5101C88.2267 55.318 87.9684 55.2219 87.614 55.2219C87.3023 55.2219 87.0568 55.2966 86.8775 55.4461C86.7025 55.5955 86.6149 55.8005 86.6149 56.0609H84.764C84.764 55.6596 84.8878 55.2881 85.1355 54.9465C85.3831 54.6049 85.7332 54.3381 86.1858 54.146C86.6384 53.9495 87.1465 53.8513 87.7101 53.8513C88.564 53.8513 89.2408 54.067 89.7404 54.4982C90.2442 54.9252 90.4961 55.5272 90.4961 56.3043V59.308C90.5004 59.9656 90.5922 60.463 90.7715 60.8003V60.9092H88.9014ZM87.3707 59.6219C87.6439 59.6219 87.8958 59.5621 88.1264 59.4425C88.357 59.3187 88.5278 59.1543 88.6388 58.9494V57.7581H87.9471C87.0205 57.7581 86.5274 58.0784 86.4676 58.7188L86.4612 58.8277C86.4612 59.0583 86.5423 59.2483 86.7046 59.3977C86.8668 59.5471 87.0889 59.6219 87.3707 59.6219Z" fill="#646464"/>
<path d="M412.075 60.9092H410.941V52.3074H412.075V60.9092ZM415.017 54.5169L415.052 55.3204C415.541 54.706 416.179 54.3988 416.966 54.3988C418.317 54.3988 418.999 55.1609 419.011 56.6851V60.9092H417.918V56.6792C417.914 56.2184 417.807 55.8777 417.599 55.6571C417.394 55.4366 417.073 55.3263 416.636 55.3263C416.281 55.3263 415.97 55.4208 415.702 55.6099C415.434 55.7989 415.226 56.0471 415.076 56.3543V60.9092H413.983V54.5169H415.017ZM422.142 52.9691V54.5169H423.335V55.3618H422.142V59.3259C422.142 59.5819 422.195 59.7749 422.301 59.9049C422.408 60.0309 422.589 60.0939 422.845 60.0939C422.971 60.0939 423.144 60.0703 423.365 60.023V60.9092C423.077 60.988 422.797 61.0273 422.526 61.0273C422.037 61.0273 421.669 60.8796 421.421 60.5843C421.173 60.2889 421.049 59.8694 421.049 59.3259V55.3618H419.885V54.5169H421.049V52.9691H422.142ZM427.27 61.0273C426.403 61.0273 425.698 60.7438 425.155 60.1766C424.611 59.6055 424.339 58.8434 424.339 57.8903V57.6894C424.339 57.0553 424.46 56.4901 424.7 55.9939C424.944 55.4937 425.283 55.1038 425.716 54.8241C426.153 54.5406 426.626 54.3988 427.134 54.3988C427.965 54.3988 428.611 54.6725 429.072 55.22C429.532 55.7674 429.763 56.5512 429.763 57.5713V58.0262H425.432C425.448 58.6563 425.631 59.1664 425.982 59.5563C426.336 59.9423 426.785 60.1353 427.329 60.1353C427.715 60.1353 428.042 60.0565 428.309 59.8989C428.577 59.7414 428.812 59.5327 429.012 59.2727L429.68 59.7926C429.144 60.6158 428.341 61.0273 427.27 61.0273ZM427.134 55.2968C426.693 55.2968 426.322 55.4582 426.023 55.7812C425.724 56.1002 425.539 56.5492 425.468 57.1282H428.67V57.0455C428.638 56.4901 428.489 56.0608 428.221 55.7576C427.953 55.4504 427.591 55.2968 427.134 55.2968ZM434.123 55.4976C433.957 55.4701 433.778 55.4563 433.585 55.4563C432.868 55.4563 432.382 55.7615 432.126 56.372V60.9092H431.033V54.5169H432.096L432.114 55.2554C432.472 54.6843 432.981 54.3988 433.638 54.3988C433.851 54.3988 434.012 54.4264 434.123 54.4815V55.4976ZM437.348 59.4263L438.932 54.5169H440.048L437.756 60.9092H436.923L434.607 54.5169H435.724L437.348 59.4263ZM444.952 60.9092C444.889 60.7831 444.837 60.5587 444.798 60.2357C444.29 60.7635 443.683 61.0273 442.978 61.0273C442.348 61.0273 441.83 60.8501 441.425 60.4956C441.023 60.1372 440.822 59.6843 440.822 59.1368C440.822 58.4712 441.074 57.9553 441.578 57.589C442.086 57.2188 442.799 57.0337 443.717 57.0337H444.78V56.5315C444.78 56.1495 444.666 55.8462 444.438 55.6217C444.209 55.3933 443.873 55.279 443.427 55.279C443.038 55.279 442.711 55.3775 442.447 55.5744C442.183 55.7714 442.051 56.0096 442.051 56.2893H440.952C440.952 55.9703 441.064 55.6631 441.289 55.3677C441.517 55.0683 441.825 54.832 442.21 54.6587C442.6 54.4854 443.028 54.3988 443.492 54.3988C444.229 54.3988 444.806 54.5839 445.223 54.9541C445.641 55.3204 445.858 55.8265 445.873 56.4724V59.4145C445.873 60.0013 445.948 60.4681 446.098 60.8147V60.9092H444.952ZM443.138 60.0762C443.481 60.0762 443.806 59.9876 444.113 59.8103C444.42 59.6331 444.643 59.4027 444.78 59.1191V57.8076H443.924C442.585 57.8076 441.915 58.1995 441.915 58.9832C441.915 59.3259 442.029 59.5937 442.258 59.7867C442.486 59.9797 442.78 60.0762 443.138 60.0762ZM448.774 60.9092H447.681V51.8348H448.774V60.9092Z" fill="#646464"/>
<path d="M459.054 60.9092H453.418V60.1234L456.395 56.8151C456.836 56.3149 457.139 55.9092 457.305 55.5981C457.474 55.283 457.559 54.9581 457.559 54.6233C457.559 54.1743 457.423 53.806 457.151 53.5185C456.88 53.231 456.517 53.0873 456.064 53.0873C455.521 53.0873 455.097 53.2428 454.794 53.554C454.495 53.8612 454.345 54.2905 454.345 54.8419H453.252C453.252 54.0502 453.506 53.4102 454.014 52.9218C454.526 52.4335 455.21 52.1893 456.064 52.1893C456.864 52.1893 457.496 52.4 457.961 52.8214C458.425 53.2389 458.658 53.7962 458.658 54.4933C458.658 55.3401 458.118 56.3484 457.039 57.5181L454.735 60.0171H459.054V60.9092ZM464.418 55.2909C464.902 54.6961 465.533 54.3988 466.308 54.3988C467.659 54.3988 468.341 55.1609 468.352 56.6851V60.9092H467.26V56.6792C467.256 56.2184 467.149 55.8777 466.941 55.6571C466.736 55.4366 466.415 55.3263 465.978 55.3263C465.623 55.3263 465.312 55.4208 465.044 55.6099C464.776 55.7989 464.568 56.0471 464.418 56.3543V60.9092H463.325V51.8348H464.418V55.2909ZM469.699 57.654C469.699 57.0278 469.822 56.4645 470.066 55.9644C470.314 55.4642 470.657 55.0782 471.094 54.8064C471.535 54.5347 472.037 54.3988 472.6 54.3988C473.471 54.3988 474.174 54.7001 474.709 55.3027C475.249 55.9053 475.519 56.7068 475.519 57.7072V57.784C475.519 58.4062 475.399 58.9655 475.158 59.4618C474.922 59.9541 474.581 60.3381 474.136 60.6138C473.695 60.8895 473.187 61.0273 472.612 61.0273C471.746 61.0273 471.043 60.726 470.503 60.1234C469.967 59.5208 469.699 58.7233 469.699 57.7308V57.654ZM470.798 57.784C470.798 58.4929 470.962 59.062 471.289 59.4913C471.62 59.9206 472.061 60.1353 472.612 60.1353C473.167 60.1353 473.608 59.9186 473.935 59.4854C474.262 59.0482 474.426 58.4378 474.426 57.654C474.426 56.9529 474.258 56.3858 473.924 55.9525C473.593 55.5154 473.152 55.2968 472.6 55.2968C472.061 55.2968 471.625 55.5114 471.295 55.9407C470.964 56.37 470.798 56.9844 470.798 57.784ZM480.836 60.277C480.41 60.7772 479.786 61.0273 478.963 61.0273C478.282 61.0273 477.762 60.8304 477.403 60.4366C477.049 60.0388 476.87 59.4519 476.866 58.676V54.5169H477.959V58.6465C477.959 59.6154 478.352 60.0998 479.14 60.0998C479.975 60.0998 480.53 59.7887 480.806 59.1664V54.5169H481.899V60.9092H480.859L480.836 60.277ZM486.655 55.4976C486.489 55.4701 486.31 55.4563 486.117 55.4563C485.4 55.4563 484.914 55.7615 484.658 56.372V60.9092H483.565V54.5169H484.628L484.646 55.2554C485.005 54.6843 485.513 54.3988 486.17 54.3988C486.383 54.3988 486.545 54.4264 486.655 54.4815V55.4976ZM491.387 59.2136C491.387 58.9183 491.275 58.6898 491.05 58.5283C490.83 58.3629 490.442 58.2211 489.886 58.103C489.335 57.9848 488.896 57.843 488.569 57.6776C488.246 57.5122 488.006 57.3153 487.848 57.0868C487.695 56.8584 487.618 56.5866 487.618 56.2716C487.618 55.7477 487.838 55.3046 488.28 54.9423C488.725 54.58 489.292 54.3988 489.981 54.3988C490.706 54.3988 491.292 54.5859 491.741 54.96C492.194 55.3342 492.421 55.8127 492.421 56.3956H491.322C491.322 56.0963 491.194 55.8383 490.938 55.6217C490.686 55.4051 490.367 55.2968 489.981 55.2968C489.583 55.2968 489.272 55.3834 489.048 55.5567C488.823 55.73 488.711 55.9565 488.711 56.2361C488.711 56.5 488.815 56.6989 489.024 56.8328C489.233 56.9667 489.609 57.0947 490.152 57.2168C490.7 57.3389 491.143 57.4846 491.482 57.654C491.82 57.8233 492.07 58.0281 492.232 58.2684C492.397 58.5047 492.48 58.7942 492.48 59.1368C492.48 59.7079 492.252 60.1668 491.795 60.5134C491.338 60.856 490.745 61.0273 490.016 61.0273C489.504 61.0273 489.051 60.9367 488.658 60.7556C488.264 60.5744 487.955 60.3223 487.73 59.9994C487.51 59.6725 487.399 59.32 487.399 58.9419H488.492C488.512 59.3082 488.658 59.5996 488.929 59.8162C489.205 60.0289 489.567 60.1353 490.016 60.1353C490.43 60.1353 490.761 60.0525 491.009 59.8871C491.261 59.7178 491.387 59.4933 491.387 59.2136Z" fill="#F3652B"/>
<path d="M493.041 297.942L493.041 303.992" stroke="#DFDFDF" stroke-width="1.5124"/>
<path d="M432.545 297.942L432.545 303.992" stroke="#DFDFDF" stroke-width="1.5124"/>
<path d="M372.049 297.942L372.049 303.992" stroke="#DFDFDF" stroke-width="1.5124"/>
<path d="M311.554 297.942L311.554 303.992" stroke="#DFDFDF" stroke-width="1.5124"/>
<path d="M251.058 297.942L251.058 303.992" stroke="#DFDFDF" stroke-width="1.5124"/>
<path d="M190.562 297.942L190.562 303.992" stroke="#DFDFDF" stroke-width="1.5124"/>
<path d="M110.405 297.942L110.405 303.992" stroke="#DFDFDF" stroke-width="1.5124"/>
<path d="M110.405 122.505H493.042" stroke="#F9F9F9" stroke-width="1.5124"/>
<path d="M110.405 86.207H493.042" stroke="#F9F9F9" stroke-width="1.5124"/>
<path d="M110.405 158.802H493.042" stroke="#F9F9F9" stroke-width="1.5124"/>
<path d="M110.405 195.1H493.042" stroke="#F9F9F9" stroke-width="1.5124"/>
<path d="M110.405 231.396H493.042" stroke="#F9F9F9" stroke-width="1.5124"/>
<path d="M110.405 267.694H493.042" stroke="#F9F9F9" stroke-width="1.5124"/>
<path d="M110.405 297.942H493.042" stroke="#DFDFDF" stroke-width="1.5124"/>
<path d="M47.2609 268.082H40.2158V267.1L43.9377 262.964C44.4891 262.339 44.8682 261.832 45.075 261.443C45.2867 261.049 45.3925 260.643 45.3925 260.225C45.3925 259.663 45.2227 259.203 44.883 258.844C44.5433 258.484 44.0904 258.305 43.5242 258.305C42.8448 258.305 42.3156 258.499 41.9365 258.888C41.5623 259.272 41.3752 259.809 41.3752 260.498H40.009C40.009 259.508 40.3266 258.708 40.9617 258.098C41.6017 257.487 42.4559 257.182 43.5242 257.182C44.5236 257.182 45.3138 257.446 45.8947 257.972C46.4756 258.494 46.7661 259.191 46.7661 260.062C46.7661 261.121 46.0916 262.381 44.7427 263.843L41.8626 266.967H47.2609V268.082ZM49.336 262.691L49.8825 257.33H55.3915V258.593H51.0419L50.7169 261.524C51.2437 261.214 51.8419 261.059 52.5114 261.059C53.4911 261.059 54.269 261.384 54.845 262.034C55.421 262.679 55.709 263.553 55.709 264.656C55.709 265.763 55.4087 266.637 54.8081 267.277C54.2124 267.912 53.3779 268.23 52.3047 268.23C51.3545 268.23 50.5791 267.966 49.9785 267.44C49.3778 266.913 49.0357 266.184 48.952 265.254H50.2443C50.328 265.869 50.5471 266.334 50.9016 266.649C51.256 266.96 51.7237 267.115 52.3047 267.115C52.9397 267.115 53.437 266.898 53.7964 266.465C54.1607 266.032 54.3428 265.433 54.3428 264.67C54.3428 263.951 54.1459 263.375 53.7521 262.942C53.3631 262.504 52.8437 262.285 52.1939 262.285C51.5982 262.285 51.1305 262.415 50.7908 262.676L50.4289 262.972L49.336 262.691ZM57.3706 267.366C57.3706 267.129 57.4395 266.932 57.5774 266.775C57.7201 266.617 57.9318 266.539 58.2125 266.539C58.4931 266.539 58.7048 266.617 58.8475 266.775C58.9952 266.932 59.0691 267.129 59.0691 267.366C59.0691 267.592 58.9952 267.782 58.8475 267.934C58.7048 268.087 58.4931 268.163 58.2125 268.163C57.9318 268.163 57.7201 268.087 57.5774 267.934C57.4395 267.782 57.3706 267.592 57.3706 267.366ZM67.9308 263.496C67.9308 265.096 67.6575 266.285 67.1111 267.063C66.5646 267.841 65.7104 268.23 64.5486 268.23C63.4015 268.23 62.5522 267.851 62.0008 267.092C61.4494 266.329 61.1639 265.192 61.1442 263.681V261.857C61.1442 260.276 61.4174 259.102 61.9639 258.334C62.5104 257.566 63.367 257.182 64.5338 257.182C65.6907 257.182 66.5425 257.554 67.0889 258.297C67.6354 259.036 67.916 260.178 67.9308 261.724V263.496ZM66.5646 261.628C66.5646 260.471 66.4021 259.629 66.0772 259.102C65.7523 258.57 65.2378 258.305 64.5338 258.305C63.8347 258.305 63.3252 258.568 63.0052 259.095C62.6852 259.622 62.5202 260.431 62.5104 261.524V263.71C62.5104 264.872 62.6778 265.731 63.0125 266.288C63.3522 266.839 63.8642 267.115 64.5486 267.115C65.223 267.115 65.7227 266.854 66.0477 266.332C66.3775 265.81 66.5498 264.988 66.5646 263.865V261.628ZM81.7255 266.672C81.3612 267.193 80.8516 267.585 80.1969 267.846C79.547 268.102 78.7888 268.23 77.9224 268.23C77.046 268.23 76.2682 268.025 75.5888 267.617C74.9094 267.203 74.3826 266.617 74.0084 265.859C73.6392 265.101 73.4497 264.222 73.4398 263.223V262.285C73.4398 260.665 73.8164 259.41 74.5697 258.519C75.3278 257.628 76.3912 257.182 77.7599 257.182C78.8824 257.182 79.7858 257.47 80.4701 258.046C81.1544 258.617 81.5729 259.43 81.7255 260.483H80.3076C80.0418 259.06 79.195 258.349 77.7673 258.349C76.8171 258.349 76.0959 258.684 75.6035 259.353C75.1161 260.018 74.87 260.983 74.8651 262.248V263.127C74.8651 264.333 75.1408 265.293 75.6922 266.007C76.2436 266.716 76.9894 267.07 77.9297 267.07C78.4614 267.07 78.9267 267.011 79.3255 266.893C79.7242 266.775 80.0541 266.576 80.315 266.295V263.88H77.8263V262.728H81.7255V266.672ZM84.096 268.082V257.33H87.6111C88.7779 257.33 89.6543 257.571 90.2401 258.054C90.8309 258.536 91.1263 259.25 91.1263 260.195C91.1263 260.697 90.9835 261.143 90.698 261.532C90.4124 261.916 90.0235 262.214 89.5312 262.425C90.1121 262.588 90.57 262.898 90.9047 263.356C91.2444 263.809 91.4143 264.35 91.4143 264.98C91.4143 265.945 91.1017 266.704 90.4764 267.255C89.8512 267.806 88.9675 268.082 87.8253 268.082H84.096ZM85.5139 263.053V266.923H87.8548C88.5145 266.923 89.0339 266.753 89.413 266.413C89.797 266.068 89.989 265.596 89.989 264.995C89.989 263.7 89.285 263.053 87.877 263.053H85.5139ZM85.5139 261.916H87.6555C88.2758 261.916 88.7705 261.761 89.1398 261.451C89.5139 261.14 89.701 260.719 89.701 260.188C89.701 259.597 89.5287 259.169 89.1841 258.903C88.8395 258.632 88.3152 258.497 87.6111 258.497H85.5139V261.916Z" fill="#646464"/>
<path d="M92.3302 293.745C92.3302 295.345 92.0569 296.534 91.5105 297.312C90.964 298.09 90.1098 298.479 88.948 298.479C87.8009 298.479 86.9516 298.1 86.4002 297.341C85.8488 296.578 85.5633 295.441 85.5436 293.93V292.106C85.5436 290.525 85.8168 289.351 86.3633 288.583C86.9098 287.815 87.7664 287.431 88.9332 287.431C90.0901 287.431 90.9418 287.803 91.4883 288.546C92.0348 289.285 92.3154 290.427 92.3302 291.973V293.745ZM90.964 291.877C90.964 290.72 90.8015 289.878 90.4766 289.351C90.1517 288.819 89.6372 288.554 88.9332 288.554C88.2341 288.554 87.7245 288.817 87.4045 289.344C87.0845 289.871 86.9196 290.68 86.9098 291.773V293.959C86.9098 295.121 87.0771 295.98 87.4119 296.537C87.7516 297.088 88.2636 297.364 88.948 297.364C89.6224 297.364 90.1221 297.103 90.4471 296.581C90.7769 296.059 90.9492 295.237 90.964 294.114V291.877Z" fill="#646464"/>
<path d="M116.337 313.172C116.337 313.601 116.222 313.983 115.994 314.318C115.77 314.652 115.464 314.914 115.078 315.103C115.527 315.296 115.882 315.578 116.142 315.948C116.406 316.318 116.538 316.738 116.538 317.207C116.538 317.951 116.286 318.544 115.781 318.985C115.281 319.426 114.621 319.646 113.802 319.646C112.975 319.646 112.312 319.426 111.811 318.985C111.315 318.54 111.067 317.947 111.067 317.207C111.067 316.742 111.193 316.322 111.445 315.948C111.701 315.574 112.054 315.29 112.503 315.097C112.121 314.908 111.819 314.647 111.599 314.312C111.378 313.977 111.268 313.597 111.268 313.172C111.268 312.447 111.5 311.872 111.965 311.446C112.43 311.021 113.042 310.808 113.802 310.808C114.558 310.808 115.169 311.021 115.634 311.446C116.102 311.872 116.337 312.447 116.337 313.172ZM115.445 317.183C115.445 316.702 115.291 316.311 114.984 316.007C114.681 315.704 114.283 315.552 113.79 315.552C113.298 315.552 112.902 315.702 112.603 316.001C112.308 316.301 112.16 316.695 112.16 317.183C112.16 317.671 112.304 318.055 112.591 318.335C112.883 318.615 113.286 318.754 113.802 318.754C114.314 318.754 114.716 318.615 115.007 318.335C115.299 318.051 115.445 317.667 115.445 317.183ZM113.802 311.706C113.373 311.706 113.024 311.84 112.757 312.108C112.493 312.372 112.361 312.732 112.361 313.189C112.361 313.626 112.491 313.981 112.751 314.253C113.015 314.52 113.365 314.654 113.802 314.654C114.239 314.654 114.588 314.52 114.848 314.253C115.112 313.981 115.244 313.626 115.244 313.189C115.244 312.752 115.108 312.396 114.836 312.12C114.564 311.844 114.22 311.706 113.802 311.706ZM118.05 318.955C118.05 318.766 118.105 318.609 118.215 318.483C118.33 318.357 118.499 318.294 118.723 318.294C118.948 318.294 119.117 318.357 119.232 318.483C119.35 318.609 119.409 318.766 119.409 318.955C119.409 319.136 119.35 319.288 119.232 319.41C119.117 319.532 118.948 319.593 118.723 319.593C118.499 319.593 118.33 319.532 118.215 319.41C118.105 319.288 118.05 319.136 118.05 318.955ZM124.992 310.927H126.132V317.018C126.132 317.841 125.884 318.485 125.387 318.949C124.895 319.414 124.237 319.646 123.414 319.646C122.56 319.646 121.894 319.428 121.417 318.991C120.941 318.554 120.703 317.941 120.703 317.153H121.837C121.837 317.646 121.971 318.03 122.239 318.305C122.51 318.581 122.902 318.719 123.414 318.719C123.883 318.719 124.261 318.571 124.549 318.276C124.84 317.98 124.988 317.567 124.992 317.035V310.927ZM131.839 318.896C131.413 319.396 130.789 319.646 129.966 319.646C129.285 319.646 128.765 319.45 128.406 319.056C128.052 318.658 127.873 318.071 127.869 317.295V313.136H128.962V317.266C128.962 318.235 129.356 318.719 130.143 318.719C130.978 318.719 131.534 318.408 131.809 317.786V313.136H132.902V319.528H131.862L131.839 318.896ZM135.602 313.136L135.637 313.94C136.126 313.325 136.764 313.018 137.552 313.018C138.903 313.018 139.584 313.78 139.596 315.304V319.528H138.503V315.298C138.499 314.838 138.392 314.497 138.184 314.276C137.979 314.056 137.658 313.945 137.221 313.945C136.866 313.945 136.555 314.04 136.287 314.229C136.02 314.418 135.811 314.666 135.661 314.973V319.528H134.568V313.136H135.602Z" fill="#646464"/>
<path d="M175.804 315.747C175.575 316.019 175.302 316.238 174.983 316.403C174.668 316.569 174.321 316.651 173.943 316.651C173.447 316.651 173.013 316.529 172.643 316.285C172.277 316.041 171.993 315.698 171.792 315.257C171.592 314.812 171.491 314.322 171.491 313.786C171.491 313.211 171.599 312.693 171.816 312.232C172.037 311.771 172.348 311.419 172.75 311.175C173.151 310.931 173.62 310.808 174.156 310.808C175.006 310.808 175.676 311.127 176.164 311.765C176.657 312.4 176.903 313.266 176.903 314.365V314.684C176.903 316.358 176.572 317.581 175.91 318.353C175.249 319.121 174.25 319.515 172.915 319.534H172.702V318.613H172.933C173.835 318.597 174.528 318.363 175.012 317.91C175.497 317.453 175.761 316.732 175.804 315.747ZM174.12 315.747C174.486 315.747 174.823 315.635 175.13 315.411C175.442 315.186 175.668 314.908 175.81 314.578V314.14C175.81 313.424 175.654 312.841 175.343 312.392C175.032 311.943 174.638 311.718 174.161 311.718C173.681 311.718 173.295 311.903 173.004 312.274C172.712 312.64 172.566 313.124 172.566 313.727C172.566 314.314 172.706 314.798 172.986 315.18C173.269 315.558 173.648 315.747 174.12 315.747ZM178.545 318.955C178.545 318.766 178.6 318.609 178.711 318.483C178.825 318.357 178.994 318.294 179.219 318.294C179.443 318.294 179.612 318.357 179.727 318.483C179.845 318.609 179.904 318.766 179.904 318.955C179.904 319.136 179.845 319.288 179.727 319.41C179.612 319.532 179.443 319.593 179.219 319.593C178.994 319.593 178.825 319.532 178.711 319.41C178.6 319.288 178.545 319.136 178.545 318.955ZM185.487 310.927H186.627V317.018C186.627 317.841 186.379 318.485 185.883 318.949C185.39 319.414 184.733 319.646 183.909 319.646C183.055 319.646 182.389 319.428 181.913 318.991C181.436 318.554 181.198 317.941 181.198 317.153H182.332C182.332 317.646 182.466 318.03 182.734 318.305C183.005 318.581 183.397 318.719 183.909 318.719C184.378 318.719 184.756 318.571 185.044 318.276C185.335 317.98 185.483 317.567 185.487 317.035V310.927ZM192.334 318.896C191.909 319.396 191.284 319.646 190.461 319.646C189.78 319.646 189.26 319.45 188.901 319.056C188.547 318.658 188.368 318.071 188.364 317.295V313.136H189.457V317.266C189.457 318.235 189.851 318.719 190.638 318.719C191.473 318.719 192.029 318.408 192.304 317.786V313.136H193.397V319.528H192.358L192.334 318.896ZM196.097 313.136L196.133 313.94C196.621 313.325 197.259 313.018 198.047 313.018C199.398 313.018 200.079 313.78 200.091 315.304V319.528H198.998V315.298C198.994 314.838 198.888 314.497 198.679 314.276C198.474 314.056 198.153 313.945 197.716 313.945C197.361 313.945 197.05 314.04 196.782 314.229C196.515 314.418 196.306 314.666 196.156 314.973V319.528H195.063V313.136H196.097Z" fill="#646464"/>
<path d="M235.703 319.528H234.604V312.244L232.401 313.053V312.061L235.532 310.885H235.703V319.528ZM244.299 315.86C244.299 317.14 244.081 318.091 243.643 318.713C243.206 319.335 242.523 319.646 241.593 319.646C240.676 319.646 239.996 319.343 239.555 318.737C239.114 318.126 238.886 317.216 238.87 316.007V314.548C238.87 313.284 239.088 312.344 239.526 311.73C239.963 311.116 240.648 310.808 241.582 310.808C242.507 310.808 243.188 311.106 243.626 311.7C244.063 312.291 244.287 313.205 244.299 314.442V315.86ZM243.206 314.365C243.206 313.439 243.076 312.766 242.816 312.344C242.556 311.919 242.145 311.706 241.582 311.706C241.022 311.706 240.615 311.917 240.359 312.339C240.103 312.76 239.971 313.408 239.963 314.282V316.031C239.963 316.96 240.097 317.648 240.365 318.093C240.636 318.534 241.046 318.754 241.593 318.754C242.133 318.754 242.533 318.546 242.793 318.128C243.057 317.711 243.194 317.053 243.206 316.155V314.365ZM245.835 318.955C245.835 318.766 245.89 318.609 246.001 318.483C246.115 318.357 246.284 318.294 246.509 318.294C246.733 318.294 246.902 318.357 247.017 318.483C247.135 318.609 247.194 318.766 247.194 318.955C247.194 319.136 247.135 319.288 247.017 319.41C246.902 319.532 246.733 319.593 246.509 319.593C246.284 319.593 246.115 319.532 246.001 319.41C245.89 319.288 245.835 319.136 245.835 318.955ZM252.777 310.927H253.917V317.018C253.917 317.841 253.669 318.485 253.173 318.949C252.68 319.414 252.023 319.646 251.199 319.646C250.345 319.646 249.679 319.428 249.203 318.991C248.726 318.554 248.488 317.941 248.488 317.153H249.622C249.622 317.646 249.756 318.03 250.024 318.305C250.296 318.581 250.687 318.719 251.199 318.719C251.668 318.719 252.046 318.571 252.334 318.276C252.625 317.98 252.773 317.567 252.777 317.035V310.927ZM259.624 318.896C259.199 319.396 258.574 319.646 257.751 319.646C257.07 319.646 256.55 319.45 256.192 319.056C255.837 318.658 255.658 318.071 255.654 317.295V313.136H256.747V317.266C256.747 318.235 257.141 318.719 257.928 318.719C258.763 318.719 259.319 318.408 259.594 317.786V313.136H260.687V319.528H259.648L259.624 318.896ZM263.387 313.136L263.423 313.94C263.911 313.325 264.549 313.018 265.337 313.018C266.688 313.018 267.369 313.78 267.381 315.304V319.528H266.288V315.298C266.284 314.838 266.178 314.497 265.969 314.276C265.764 314.056 265.443 313.945 265.006 313.945C264.651 313.945 264.34 314.04 264.073 314.229C263.805 314.418 263.596 314.666 263.446 314.973V319.528H262.353V313.136H263.387Z" fill="#646464"/>
<path d="M296.198 319.528H295.1V312.244L292.896 313.053V312.061L296.027 310.885H296.198V319.528ZM302.992 319.528H301.894V312.244L299.69 313.053V312.061L302.821 310.885H302.992V319.528ZM306.33 318.955C306.33 318.766 306.385 318.609 306.496 318.483C306.61 318.357 306.779 318.294 307.004 318.294C307.228 318.294 307.398 318.357 307.512 318.483C307.63 318.609 307.689 318.766 307.689 318.955C307.689 319.136 307.63 319.288 307.512 319.41C307.398 319.532 307.228 319.593 307.004 319.593C306.779 319.593 306.61 319.532 306.496 319.41C306.385 319.288 306.33 319.136 306.33 318.955ZM313.272 310.927H314.412V317.018C314.412 317.841 314.164 318.485 313.668 318.949C313.175 319.414 312.518 319.646 311.695 319.646C310.84 319.646 310.174 319.428 309.698 318.991C309.221 318.554 308.983 317.941 308.983 317.153H310.117C310.117 317.646 310.251 318.03 310.519 318.305C310.791 318.581 311.183 318.719 311.695 318.719C312.163 318.719 312.541 318.571 312.829 318.276C313.12 317.98 313.268 317.567 313.272 317.035V310.927ZM320.119 318.896C319.694 319.396 319.069 319.646 318.246 319.646C317.565 319.646 317.045 319.45 316.687 319.056C316.332 318.658 316.153 318.071 316.149 317.295V313.136H317.242V317.266C317.242 318.235 317.636 318.719 318.424 318.719C319.258 318.719 319.814 318.408 320.09 317.786V313.136H321.182V319.528H320.143L320.119 318.896ZM323.882 313.136L323.918 313.94C324.406 313.325 325.044 313.018 325.832 313.018C327.183 313.018 327.864 313.78 327.876 315.304V319.528H326.783V315.298C326.779 314.838 326.673 314.497 326.464 314.276C326.259 314.056 325.938 313.945 325.501 313.945C325.147 313.945 324.835 314.04 324.568 314.229C324.3 314.418 324.091 314.666 323.941 314.973V319.528H322.848V313.136H323.882Z" fill="#646464"/>
<path d="M356.694 319.528H355.596V312.244L353.392 313.053V312.061L356.523 310.885H356.694V319.528ZM365.533 319.528H359.897V318.743L362.874 315.434C363.315 314.934 363.618 314.528 363.784 314.217C363.953 313.902 364.038 313.577 364.038 313.242C364.038 312.793 363.902 312.425 363.63 312.138C363.358 311.85 362.996 311.706 362.543 311.706C362 311.706 361.576 311.862 361.273 312.173C360.974 312.48 360.824 312.91 360.824 313.461H359.731C359.731 312.669 359.985 312.029 360.493 311.541C361.005 311.053 361.689 310.808 362.543 310.808C363.343 310.808 363.975 311.019 364.44 311.441C364.904 311.858 365.137 312.415 365.137 313.112C365.137 313.959 364.597 314.967 363.518 316.137L361.214 318.636H365.533V319.528ZM366.826 318.955C366.826 318.766 366.881 318.609 366.992 318.483C367.106 318.357 367.275 318.294 367.5 318.294C367.724 318.294 367.894 318.357 368.008 318.483C368.126 318.609 368.185 318.766 368.185 318.955C368.185 319.136 368.126 319.288 368.008 319.41C367.894 319.532 367.724 319.593 367.5 319.593C367.275 319.593 367.106 319.532 366.992 319.41C366.881 319.288 366.826 319.136 366.826 318.955ZM373.768 310.927H374.908V317.018C374.908 317.841 374.66 318.485 374.164 318.949C373.672 319.414 373.014 319.646 372.191 319.646C371.336 319.646 370.67 319.428 370.194 318.991C369.717 318.554 369.479 317.941 369.479 317.153H370.613C370.613 317.646 370.747 318.03 371.015 318.305C371.287 318.581 371.679 318.719 372.191 318.719C372.659 318.719 373.037 318.571 373.325 318.276C373.616 317.98 373.764 317.567 373.768 317.035V310.927ZM380.615 318.896C380.19 319.396 379.566 319.646 378.742 319.646C378.061 319.646 377.541 319.45 377.183 319.056C376.828 318.658 376.649 318.071 376.645 317.295V313.136H377.738V317.266C377.738 318.235 378.132 318.719 378.92 318.719C379.755 318.719 380.31 318.408 380.586 317.786V313.136H381.679V319.528H380.639L380.615 318.896ZM384.378 313.136L384.414 313.94C384.902 313.325 385.54 313.018 386.328 313.018C387.679 313.018 388.36 313.78 388.372 315.304V319.528H387.279V315.298C387.275 314.838 387.169 314.497 386.96 314.276C386.755 314.056 386.434 313.945 385.997 313.945C385.643 313.945 385.332 314.04 385.064 314.229C384.796 314.418 384.587 314.666 384.438 314.973V319.528H383.345V313.136H384.378Z" fill="#646464"/>
<path d="M417.191 319.528H416.092V312.244L413.888 313.053V312.061L417.019 310.885H417.191V319.528ZM421.982 314.696H422.803C423.319 314.688 423.725 314.552 424.02 314.288C424.315 314.024 424.463 313.668 424.463 313.219C424.463 312.211 423.961 311.706 422.957 311.706C422.484 311.706 422.106 311.842 421.822 312.114C421.543 312.382 421.403 312.738 421.403 313.183H420.31C420.31 312.502 420.558 311.937 421.054 311.488C421.554 311.035 422.189 310.808 422.957 310.808C423.768 310.808 424.404 311.023 424.865 311.452C425.326 311.882 425.556 312.478 425.556 313.242C425.556 313.617 425.434 313.979 425.19 314.329C424.949 314.68 424.621 314.942 424.203 315.115C424.676 315.265 425.04 315.513 425.296 315.86C425.556 316.206 425.686 316.63 425.686 317.13C425.686 317.902 425.434 318.514 424.93 318.967C424.426 319.42 423.77 319.646 422.962 319.646C422.155 319.646 421.497 319.428 420.989 318.991C420.485 318.554 420.233 317.977 420.233 317.26H421.332C421.332 317.713 421.48 318.075 421.775 318.347C422.07 318.619 422.466 318.754 422.962 318.754C423.49 318.754 423.894 318.617 424.174 318.341C424.453 318.065 424.593 317.669 424.593 317.153C424.593 316.653 424.439 316.269 424.132 316.001C423.825 315.734 423.382 315.596 422.803 315.588H421.982V314.696ZM427.322 318.955C427.322 318.766 427.378 318.609 427.488 318.483C427.602 318.357 427.771 318.294 427.996 318.294C428.22 318.294 428.39 318.357 428.504 318.483C428.622 318.609 428.681 318.766 428.681 318.955C428.681 319.136 428.622 319.288 428.504 319.41C428.39 319.532 428.22 319.593 427.996 319.593C427.771 319.593 427.602 319.532 427.488 319.41C427.378 319.288 427.322 319.136 427.322 318.955ZM434.264 310.927H435.404V317.018C435.404 317.841 435.156 318.485 434.66 318.949C434.168 319.414 433.51 319.646 432.687 319.646C431.832 319.646 431.166 319.428 430.69 318.991C430.213 318.554 429.975 317.941 429.975 317.153H431.109C431.109 317.646 431.243 318.03 431.511 318.305C431.783 318.581 432.175 318.719 432.687 318.719C433.155 318.719 433.534 318.571 433.821 318.276C434.112 317.98 434.26 317.567 434.264 317.035V310.927ZM441.111 318.896C440.686 319.396 440.062 319.646 439.238 319.646C438.557 319.646 438.037 319.45 437.679 319.056C437.324 318.658 437.145 318.071 437.141 317.295V313.136H438.234V317.266C438.234 318.235 438.628 318.719 439.416 318.719C440.251 318.719 440.806 318.408 441.082 317.786V313.136H442.175V319.528H441.135L441.111 318.896ZM444.875 313.136L444.91 313.94C445.398 313.325 446.036 313.018 446.824 313.018C448.175 313.018 448.856 313.78 448.868 315.304V319.528H447.775V315.298C447.771 314.838 447.665 314.497 447.456 314.276C447.251 314.056 446.93 313.945 446.493 313.945C446.139 313.945 445.828 314.04 445.56 314.229C445.292 314.418 445.083 314.666 444.934 314.973V319.528H443.841V313.136H444.875Z" fill="#646464"/>
<path d="M477.687 319.528H476.588V312.244L474.384 313.053V312.061L477.515 310.885H477.687V319.528ZM485.503 316.639H486.696V317.531H485.503V319.528H484.404V317.531H480.487V316.888L484.339 310.927H485.503V316.639ZM481.728 316.639H484.404V312.421L484.274 312.658L481.728 316.639ZM487.819 318.955C487.819 318.766 487.874 318.609 487.984 318.483C488.098 318.357 488.268 318.294 488.492 318.294C488.717 318.294 488.886 318.357 489 318.483C489.118 318.609 489.177 318.766 489.177 318.955C489.177 319.136 489.118 319.288 489 319.41C488.886 319.532 488.717 319.593 488.492 319.593C488.268 319.593 488.098 319.532 487.984 319.41C487.874 319.288 487.819 319.136 487.819 318.955ZM494.76 310.927H495.9V317.018C495.9 317.841 495.652 318.485 495.156 318.949C494.664 319.414 494.006 319.646 493.183 319.646C492.328 319.646 491.663 319.428 491.186 318.991C490.709 318.554 490.471 317.941 490.471 317.153H491.605C491.605 317.646 491.739 318.03 492.007 318.305C492.279 318.581 492.671 318.719 493.183 318.719C493.652 318.719 494.03 318.571 494.317 318.276C494.609 317.98 494.756 317.567 494.76 317.035V310.927ZM501.607 318.896C501.182 319.396 500.558 319.646 499.735 319.646C499.053 319.646 498.533 319.45 498.175 319.056C497.82 318.658 497.641 318.071 497.637 317.295V313.136H498.73V317.266C498.73 318.235 499.124 318.719 499.912 318.719C500.747 318.719 501.302 318.408 501.578 317.786V313.136H502.671V319.528H501.631L501.607 318.896ZM505.371 313.136L505.406 313.94C505.894 313.325 506.532 313.018 507.32 313.018C508.671 313.018 509.352 313.78 509.364 315.304V319.528H508.271V315.298C508.267 314.838 508.161 314.497 507.952 314.276C507.748 314.056 507.427 313.945 506.989 313.945C506.635 313.945 506.324 314.04 506.056 314.229C505.788 314.418 505.579 314.666 505.43 314.973V319.528H504.337V313.136H505.371Z" fill="#646464"/>
<path d="M40.8435 226.394L41.39 221.033H46.899V222.296H42.5494L42.2245 225.227C42.7513 224.917 43.3494 224.762 44.019 224.762C44.9987 224.762 45.7765 225.087 46.3525 225.737C46.9286 226.382 47.2166 227.256 47.2166 228.359C47.2166 229.466 46.9162 230.34 46.3156 230.98C45.7199 231.615 44.8854 231.933 43.8122 231.933C42.862 231.933 42.0866 231.669 41.486 231.143C40.8854 230.616 40.5432 229.887 40.4595 228.957H41.7518C41.8355 229.572 42.0546 230.037 42.4091 230.353C42.7636 230.663 43.2313 230.818 43.8122 230.818C44.4473 230.818 44.9445 230.601 45.3039 230.168C45.6682 229.735 45.8504 229.136 45.8504 228.373C45.8504 227.655 45.6535 227.079 45.2596 226.645C44.8707 226.207 44.3513 225.988 43.7014 225.988C43.1057 225.988 42.638 226.119 42.2983 226.38L41.9365 226.675L40.8435 226.394ZM55.4506 227.199C55.4506 228.799 55.1773 229.988 54.6309 230.766C54.0844 231.544 53.2302 231.933 52.0683 231.933C50.9212 231.933 50.072 231.554 49.5206 230.796C48.9692 230.033 48.6837 228.895 48.664 227.384V225.56C48.664 223.979 48.9372 222.805 49.4837 222.037C50.0302 221.269 50.8868 220.885 52.0536 220.885C53.2105 220.885 54.0622 221.257 54.6087 222C55.1552 222.739 55.4358 223.881 55.4506 225.427V227.199ZM54.0844 225.331C54.0844 224.174 53.9219 223.332 53.597 222.805C53.2721 222.274 52.7576 222.008 52.0536 222.008C51.3545 222.008 50.8449 222.271 50.5249 222.798C50.2049 223.325 50.04 224.135 50.0302 225.227V227.413C50.0302 228.575 50.1975 229.434 50.5323 229.991C50.872 230.542 51.384 230.818 52.0683 230.818C52.7428 230.818 53.2425 230.557 53.5674 230.035C53.8973 229.513 54.0696 228.691 54.0844 227.568V225.331ZM57.3706 231.069C57.3706 230.833 57.4395 230.636 57.5774 230.478C57.7201 230.321 57.9318 230.242 58.2125 230.242C58.4931 230.242 58.7048 230.321 58.8475 230.478C58.9952 230.636 59.0691 230.833 59.0691 231.069C59.0691 231.295 58.9952 231.485 58.8475 231.637C58.7048 231.79 58.4931 231.866 58.2125 231.866C57.9318 231.866 57.7201 231.79 57.5774 231.637C57.4395 231.485 57.3706 231.295 57.3706 231.069ZM67.9308 227.199C67.9308 228.799 67.6575 229.988 67.1111 230.766C66.5646 231.544 65.7104 231.933 64.5486 231.933C63.4015 231.933 62.5522 231.554 62.0008 230.796C61.4494 230.033 61.1639 228.895 61.1442 227.384V225.56C61.1442 223.979 61.4174 222.805 61.9639 222.037C62.5104 221.269 63.367 220.885 64.5338 220.885C65.6907 220.885 66.5425 221.257 67.0889 222C67.6354 222.739 67.916 223.881 67.9308 225.427V227.199ZM66.5646 225.331C66.5646 224.174 66.4021 223.332 66.0772 222.805C65.7523 222.274 65.2378 222.008 64.5338 222.008C63.8347 222.008 63.3252 222.271 63.0052 222.798C62.6852 223.325 62.5202 224.135 62.5104 225.227V227.413C62.5104 228.575 62.6778 229.434 63.0125 229.991C63.3522 230.542 63.8642 230.818 64.5486 230.818C65.223 230.818 65.7227 230.557 66.0477 230.035C66.3775 229.513 66.5498 228.691 66.5646 227.568V225.331ZM81.7255 230.375C81.3612 230.897 80.8516 231.288 80.1969 231.549C79.547 231.805 78.7888 231.933 77.9224 231.933C77.046 231.933 76.2682 231.729 75.5888 231.32C74.9094 230.906 74.3826 230.321 74.0084 229.562C73.6392 228.804 73.4497 227.925 73.4398 226.926V225.988C73.4398 224.368 73.8164 223.113 74.5697 222.222C75.3278 221.331 76.3912 220.885 77.7599 220.885C78.8824 220.885 79.7858 221.173 80.4701 221.749C81.1544 222.32 81.5729 223.133 81.7255 224.186H80.3076C80.0418 222.763 79.195 222.052 77.7673 222.052C76.8171 222.052 76.0959 222.387 75.6035 223.056C75.1161 223.721 74.87 224.686 74.8651 225.951V226.83C74.8651 228.036 75.1408 228.996 75.6922 229.71C76.2436 230.419 76.9894 230.773 77.9297 230.773C78.4614 230.773 78.9267 230.714 79.3255 230.596C79.7242 230.478 80.0541 230.279 80.315 229.998V227.583H77.8263V226.431H81.7255V230.375ZM84.096 231.785V221.033H87.6111C88.7779 221.033 89.6543 221.274 90.2401 221.757C90.8309 222.239 91.1263 222.953 91.1263 223.898C91.1263 224.4 90.9835 224.846 90.698 225.235C90.4124 225.619 90.0235 225.917 89.5312 226.128C90.1121 226.291 90.57 226.601 90.9047 227.059C91.2444 227.512 91.4143 228.053 91.4143 228.684C91.4143 229.649 91.1017 230.407 90.4764 230.958C89.8512 231.509 88.9675 231.785 87.8253 231.785H84.096ZM85.5139 226.756V230.626H87.8548C88.5145 230.626 89.0339 230.456 89.413 230.116C89.797 229.772 89.989 229.299 89.989 228.698C89.989 227.404 89.285 226.756 87.877 226.756H85.5139ZM85.5139 225.619H87.6555C88.2758 225.619 88.7705 225.464 89.1398 225.154C89.5139 224.843 89.701 224.423 89.701 223.891C89.701 223.3 89.5287 222.872 89.1841 222.606C88.8395 222.335 88.3152 222.2 87.6111 222.2H85.5139V225.619Z" fill="#646464"/>
<path d="M47.1575 185.503L42.7045 195.487H41.2718L45.7101 185.858H39.8909V184.735H47.1575V185.503ZM49.336 190.096L49.8825 184.735H55.3915V185.998H51.0419L50.7169 188.93C51.2437 188.619 51.8419 188.464 52.5114 188.464C53.4911 188.464 54.269 188.789 54.845 189.439C55.421 190.084 55.709 190.958 55.709 192.061C55.709 193.168 55.4087 194.042 54.8081 194.682C54.2124 195.317 53.3779 195.635 52.3047 195.635C51.3545 195.635 50.5791 195.372 49.9785 194.845C49.3778 194.318 49.0357 193.589 48.952 192.659H50.2443C50.328 193.274 50.5471 193.74 50.9016 194.055C51.256 194.365 51.7237 194.52 52.3047 194.52C52.9397 194.52 53.437 194.303 53.7964 193.87C54.1607 193.437 54.3428 192.839 54.3428 192.076C54.3428 191.357 54.1459 190.781 53.7521 190.348C53.3631 189.909 52.8437 189.69 52.1939 189.69C51.5982 189.69 51.1305 189.821 50.7908 190.082L50.4289 190.377L49.336 190.096ZM57.3706 194.771C57.3706 194.535 57.4395 194.338 57.5774 194.18C57.7201 194.023 57.9318 193.944 58.2125 193.944C58.4931 193.944 58.7048 194.023 58.8475 194.18C58.9952 194.338 59.0691 194.535 59.0691 194.771C59.0691 194.997 58.9952 195.187 58.8475 195.34C58.7048 195.492 58.4931 195.569 58.2125 195.569C57.9318 195.569 57.7201 195.492 57.5774 195.34C57.4395 195.187 57.3706 194.997 57.3706 194.771ZM67.9308 190.901C67.9308 192.501 67.6575 193.69 67.1111 194.468C66.5646 195.246 65.7104 195.635 64.5486 195.635C63.4015 195.635 62.5522 195.256 62.0008 194.498C61.4494 193.735 61.1639 192.597 61.1442 191.086V189.262C61.1442 187.682 61.4174 186.507 61.9639 185.739C62.5104 184.971 63.367 184.587 64.5338 184.587C65.6907 184.587 66.5425 184.959 67.0889 185.703C67.6354 186.441 67.916 187.583 67.9308 189.129V190.901ZM66.5646 189.033C66.5646 187.876 66.4021 187.034 66.0772 186.507C65.7523 185.976 65.2378 185.71 64.5338 185.71C63.8347 185.71 63.3252 185.973 63.0052 186.5C62.6852 187.027 62.5202 187.837 62.5104 188.93V191.116C62.5104 192.277 62.6778 193.136 63.0125 193.693C63.3522 194.244 63.8642 194.52 64.5486 194.52C65.223 194.52 65.7227 194.259 66.0477 193.737C66.3775 193.215 66.5498 192.393 66.5646 191.271V189.033ZM81.7255 194.077C81.3612 194.599 80.8516 194.99 80.1969 195.251C79.547 195.507 78.7888 195.635 77.9224 195.635C77.046 195.635 76.2682 195.431 75.5888 195.022C74.9094 194.609 74.3826 194.023 74.0084 193.264C73.6392 192.506 73.4497 191.628 73.4398 190.628V189.69C73.4398 188.071 73.8164 186.815 74.5697 185.924C75.3278 185.033 76.3912 184.587 77.7599 184.587C78.8824 184.587 79.7858 184.875 80.4701 185.451C81.1544 186.023 81.5729 186.835 81.7255 187.888H80.3076C80.0418 186.466 79.195 185.754 77.7673 185.754C76.8171 185.754 76.0959 186.089 75.6035 186.759C75.1161 187.423 74.87 188.388 74.8651 189.653V190.532C74.8651 191.738 75.1408 192.698 75.6922 193.412C76.2436 194.121 76.9894 194.476 77.9297 194.476C78.4614 194.476 78.9267 194.417 79.3255 194.298C79.7242 194.18 80.0541 193.981 80.315 193.7V191.285H77.8263V190.133H81.7255V194.077ZM84.096 195.487V184.735H87.6111C88.7779 184.735 89.6543 184.976 90.2401 185.459C90.8309 185.941 91.1263 186.655 91.1263 187.6C91.1263 188.103 90.9835 188.548 90.698 188.937C90.4124 189.321 90.0235 189.619 89.5312 189.831C90.1121 189.993 90.57 190.303 90.9047 190.761C91.2444 191.214 91.4143 191.756 91.4143 192.386C91.4143 193.351 91.1017 194.109 90.4764 194.66C89.8512 195.212 88.9675 195.487 87.8253 195.487H84.096ZM85.5139 190.458V194.328H87.8548C88.5145 194.328 89.0339 194.158 89.413 193.818C89.797 193.474 89.989 193.001 89.989 192.4C89.989 191.106 89.285 190.458 87.877 190.458H85.5139ZM85.5139 189.321H87.6555C88.2758 189.321 88.7705 189.166 89.1398 188.856C89.5139 188.546 89.701 188.125 89.701 187.593C89.701 187.002 89.5287 186.574 89.1841 186.308C88.8395 186.037 88.3152 185.902 87.6111 185.902H85.5139V189.321Z" fill="#646464"/>
<path d="M49.2429 159.189H47.8693V150.084L45.1148 151.096V149.855L49.0287 148.386H49.2429V159.189ZM59.9877 154.604C59.9877 156.204 59.7144 157.392 59.168 158.17C58.6215 158.948 57.7673 159.337 56.6055 159.337C55.4584 159.337 54.6091 158.958 54.0577 158.2C53.5063 157.437 53.2208 156.3 53.2011 154.788V152.964C53.2011 151.384 53.4743 150.21 54.0208 149.442C54.5673 148.674 55.4239 148.29 56.5907 148.29C57.7476 148.29 58.5993 148.661 59.1458 149.405C59.6923 150.143 59.9729 151.285 59.9877 152.831V154.604ZM58.6215 152.735C58.6215 151.578 58.459 150.736 58.1341 150.21C57.8092 149.678 57.2947 149.412 56.5907 149.412C55.8916 149.412 55.382 149.675 55.062 150.202C54.742 150.729 54.5771 151.539 54.5673 152.632V154.818C54.5673 155.98 54.7346 156.839 55.0694 157.395C55.4091 157.946 55.9211 158.222 56.6055 158.222C57.2799 158.222 57.7796 157.961 58.1046 157.439C58.4344 156.917 58.6067 156.095 58.6215 154.973V152.735ZM68.4801 154.604C68.4801 156.204 68.2069 157.392 67.6604 158.17C67.114 158.948 66.2598 159.337 65.0979 159.337C63.9508 159.337 63.1016 158.958 62.5502 158.2C61.9988 157.437 61.7132 156.3 61.6935 154.788V152.964C61.6935 151.384 61.9668 150.21 62.5133 149.442C63.0597 148.674 63.9164 148.29 65.0831 148.29C66.2401 148.29 67.0918 148.661 67.6383 149.405C68.1847 150.143 68.4654 151.285 68.4801 152.831V154.604ZM67.114 152.735C67.114 151.578 66.9515 150.736 66.6266 150.21C66.3016 149.678 65.7872 149.412 65.0831 149.412C64.3841 149.412 63.8745 149.675 63.5545 150.202C63.2345 150.729 63.0696 151.539 63.0597 152.632V154.818C63.0597 155.98 63.2271 156.839 63.5619 157.395C63.9016 157.946 64.4136 158.222 65.0979 158.222C65.7724 158.222 66.2721 157.961 66.597 157.439C66.9269 156.917 67.0992 156.095 67.114 154.973V152.735ZM82.2748 157.779C81.9105 158.301 81.401 158.692 80.7462 158.953C80.0963 159.209 79.3382 159.337 78.4717 159.337C77.5954 159.337 76.8175 159.133 76.1381 158.724C75.4587 158.311 74.9319 157.725 74.5578 156.967C74.1885 156.208 73.999 155.33 73.9892 154.33V153.392C73.9892 151.773 74.3658 150.517 75.119 149.626C75.8772 148.735 76.9406 148.29 78.3092 148.29C79.4317 148.29 80.3351 148.578 81.0194 149.154C81.7038 149.725 82.1222 150.537 82.2748 151.591H80.857C80.5911 150.168 79.7443 149.456 78.3166 149.456C77.3664 149.456 76.6452 149.791 76.1529 150.461C75.6655 151.125 75.4193 152.09 75.4144 153.356V154.234C75.4144 155.44 75.6901 156.4 76.2415 157.114C76.7929 157.823 77.5388 158.178 78.4791 158.178C79.0108 158.178 79.476 158.119 79.8748 158.001C80.2736 157.882 80.6034 157.683 80.8644 157.402V154.988H78.3757V153.836H82.2748V157.779ZM84.6453 159.189V148.437H88.1605C89.3273 148.437 90.2036 148.678 90.7895 149.161C91.3802 149.643 91.6756 150.357 91.6756 151.303C91.6756 151.805 91.5329 152.25 91.2473 152.639C90.9618 153.023 90.5728 153.321 90.0805 153.533C90.6615 153.695 91.1193 154.005 91.4541 154.463C91.7938 154.916 91.9636 155.458 91.9636 156.088C91.9636 157.053 91.651 157.811 91.0258 158.362C90.4005 158.914 89.5168 159.189 88.3746 159.189H84.6453ZM86.0632 154.16V158.03H88.4042C89.0639 158.03 89.5833 157.86 89.9624 157.52C90.3464 157.176 90.5384 156.703 90.5384 156.103C90.5384 154.808 89.8344 154.16 88.4263 154.16H86.0632ZM86.0632 153.023H88.2048C88.8251 153.023 89.3199 152.868 89.6891 152.558C90.0633 152.248 90.2504 151.827 90.2504 151.295C90.2504 150.704 90.0781 150.276 89.7334 150.01C89.3888 149.739 88.8645 149.604 88.1605 149.604H86.0632V153.023Z" fill="#646464"/>
<path d="M49.2429 119.867H47.8693V110.762L45.1148 111.774V110.533L49.0287 109.063H49.2429V119.867ZM60.2904 119.867H53.2454V118.885L56.9673 114.75C57.5187 114.124 57.8978 113.617 58.1046 113.228C58.3163 112.834 58.4221 112.428 58.4221 112.01C58.4221 111.449 58.2523 110.988 57.9126 110.629C57.5729 110.269 57.1199 110.09 56.5538 110.09C55.8744 110.09 55.3451 110.284 54.966 110.673C54.5919 111.057 54.4048 111.594 54.4048 112.283H53.0386C53.0386 111.293 53.3562 110.493 53.9913 109.883C54.6313 109.273 55.4854 108.967 56.5538 108.967C57.5532 108.967 58.3433 109.231 58.9243 109.757C59.5052 110.279 59.7957 110.976 59.7957 111.847C59.7957 112.906 59.1212 114.166 57.7722 115.628L54.8922 118.752H60.2904V119.867ZM62.3656 114.476L62.912 109.115H68.4211V110.378H64.0714L63.7465 113.31C64.2733 112.999 64.8714 112.844 65.541 112.844C66.5207 112.844 67.2986 113.169 67.8746 113.819C68.4506 114.464 68.7386 115.338 68.7386 116.441C68.7386 117.548 68.4383 118.422 67.8377 119.062C67.242 119.697 66.4075 120.015 65.3342 120.015C64.3841 120.015 63.6087 119.751 63.008 119.225C62.4074 118.698 62.0652 117.969 61.9816 117.039H63.2739C63.3576 117.654 63.5767 118.119 63.9311 118.435C64.2856 118.745 64.7533 118.9 65.3342 118.9C65.9693 118.9 66.4666 118.683 66.8259 118.25C67.1903 117.817 67.3724 117.219 67.3724 116.455C67.3724 115.737 67.1755 115.161 66.7816 114.727C66.3927 114.289 65.8733 114.07 65.2235 114.07C64.6278 114.07 64.1601 114.201 63.8204 114.462L63.4585 114.757L62.3656 114.476ZM82.2748 118.457C81.9105 118.979 81.401 119.37 80.7462 119.631C80.0963 119.887 79.3382 120.015 78.4717 120.015C77.5954 120.015 76.8175 119.811 76.1381 119.402C75.4587 118.988 74.9319 118.403 74.5578 117.644C74.1885 116.886 73.999 116.007 73.9892 115.008V114.07C73.9892 112.45 74.3658 111.195 75.119 110.304C75.8772 109.413 76.9406 108.967 78.3092 108.967C79.4317 108.967 80.3351 109.255 81.0194 109.831C81.7038 110.402 82.1222 111.215 82.2748 112.268H80.857C80.5911 110.845 79.7443 110.134 78.3166 110.134C77.3664 110.134 76.6452 110.469 76.1529 111.138C75.6655 111.803 75.4193 112.768 75.4144 114.033V114.912C75.4144 116.118 75.6901 117.078 76.2415 117.792C76.7929 118.501 77.5388 118.855 78.4791 118.855C79.0108 118.855 79.476 118.796 79.8748 118.678C80.2736 118.56 80.6034 118.361 80.8644 118.08V115.665H78.3757V114.513H82.2748V118.457ZM84.6453 119.867V109.115H88.1605C89.3273 109.115 90.2036 109.356 90.7895 109.839C91.3802 110.321 91.6756 111.035 91.6756 111.98C91.6756 112.482 91.5329 112.928 91.2473 113.317C90.9618 113.701 90.5728 113.999 90.0805 114.21C90.6615 114.373 91.1193 114.683 91.4541 115.141C91.7938 115.594 91.9636 116.135 91.9636 116.766C91.9636 117.731 91.651 118.489 91.0258 119.04C90.4005 119.591 89.5168 119.867 88.3746 119.867H84.6453ZM86.0632 114.838V118.708H88.4042C89.0639 118.708 89.5833 118.538 89.9624 118.198C90.3464 117.854 90.5384 117.381 90.5384 116.78C90.5384 115.486 89.8344 114.838 88.4263 114.838H86.0632ZM86.0632 113.701H88.2048C88.8251 113.701 89.3199 113.546 89.6891 113.236C90.0633 112.926 90.2504 112.505 90.2504 111.973C90.2504 111.382 90.0781 110.954 89.7334 110.688C89.3888 110.417 88.8645 110.282 88.1605 110.282H86.0632V113.701Z" fill="#646464"/>
<path d="M110.405 127.491H114.266L119.285 137.402L124.304 125.239L130.095 142.358L137.817 245.973L142.45 260.84L147.469 245.973L157.893 112.625L164.842 121.184L171.02 125.239L175.267 134.699L179.513 117.58L184.532 125.239L193.798 254.983L199.203 267.147L203.45 258.587L211.558 145.962L223.14 134.699L226.615 137.402L230.862 154.521L240.128 125.239L248.622 245.973L254.027 260.84L258.66 241.018L267.539 105.867L272.172 127.491L277.964 130.645L285.685 150.016L291.09 139.655H296.882L304.603 254.983L310.78 275.256L314.255 267.147L324.293 168.937L328.926 154.521L333.559 150.016L341.667 125.239L345.527 121.184L350.16 134.699L360.198 258.587L364.445 269.399H368.692L372.167 249.577L375.256 236.062L377.958 195.066L383.363 178.398L387.61 183.804L391.857 168.937L396.876 172.992L403.053 154.521L406.528 158.125L415.408 245.973L420.427 258.587L425.446 263.092L434.712 178.398L439.731 158.125H444.75L448.611 160.378L457.877 121.184L463.282 139.655L471.003 254.983L478.339 252.28H480.655L490.307 125.239L494.554 207.23" stroke="#F3652B" stroke-width="0.901002"/>
</svg>
