<svg width="24" height="37" viewBox="0 0 24 37" fill="none" xmlns="http://www.w3.org/2000/svg">
            <path d="M7.3457 32.5664C7.4781 33.096 7.71452 33.5688 8.05496 33.9944" stroke="#F3652B" stroke-miterlimit="10" stroke-linecap="round" stroke-linejoin="round"/>
            <path d="M9.0475 34.8927C9.83241 35.4222 10.7686 35.687 11.8372 35.687C13.1328 35.687 14.2393 35.2898 15.1187 34.5144C16.0077 33.7295 16.4616 32.7081 16.4616 31.4788C16.4616 30.2494 16.0077 29.2281 15.1187 28.4431C14.2393 27.6677 13.1423 27.2705 11.8372 27.2705C10.901 27.2705 10.0688 27.4786 9.34066 27.8852C9.05696 28.046 8.80162 28.2256 8.55575 28.4431C8.42335 28.5566 8.30042 28.6796 8.18694 28.812C7.54388 29.5401 7.21289 30.4385 7.21289 31.4788" stroke="#F3652B" stroke-miterlimit="10" stroke-linecap="round" stroke-linejoin="round"/>
            <path d="M8.36698 21.3037C8.31969 21.5685 8.33861 21.578 8.30078 21.8617" stroke="#F3652B" stroke-miterlimit="10" stroke-linecap="round" stroke-linejoin="round"/>
            <path d="M5.12315 2.77832C4.71651 3.03365 4.34769 3.32681 3.98834 3.63889C2.03079 5.39784 1.02837 7.87551 1 11.0057C1 11.1003 1.03783 11.1854 1.10402 11.2516C1.17022 11.3178 1.25533 11.3556 1.3499 11.3556H9.06662C9.25575 11.3556 9.40706 11.2043 9.41652 11.0152C9.44489 9.956 9.71913 9.11435 10.2298 8.50912C10.731 7.91334 11.3646 7.62964 12.1779 7.62964C13.9652 7.62964 14.7974 8.61314 14.7974 10.7315C14.7974 11.6015 14.5326 12.3864 13.9841 13.1146C13.4167 13.8711 12.5751 14.7222 11.4686 15.649C10.3055 16.623 9.44489 17.7957 8.92477 19.1385C8.79237 19.479 8.67889 19.8478 8.58432 20.245" stroke="#F3652B" stroke-miterlimit="10" stroke-linecap="round" stroke-linejoin="round"/>
            <path d="M8.15893 24.1691C8.15893 24.292 8.15893 24.4149 8.15893 24.5284C8.15893 24.7176 8.31969 24.8783 8.50883 24.8783H15.0435C15.2326 24.8783 15.3839 24.727 15.3934 24.5379C15.4217 23.422 15.573 22.5047 15.8473 21.786C16.1121 21.0862 16.6133 20.3864 17.3131 19.7149L19.9421 17.2656C21.0769 16.1592 21.9185 15.0622 22.4292 13.9936C22.9493 12.9155 23.2141 11.7051 23.2141 10.3906C23.2141 7.40223 22.2306 5.06641 20.292 3.43039C18.3722 1.81328 15.6392 1 12.1781 1C10.0976 1 8.27241 1.32153 6.73096 1.94568" stroke="#F3652B" stroke-miterlimit="10" stroke-linecap="round" stroke-linejoin="round"/>
            </svg>
