<svg width="42" height="42" viewBox="0 0 42 42" fill="none" xmlns="http://www.w3.org/2000/svg">
<g clip-path="url(#clip0)">
<path d="M7.57496 23.5152C7.62475 22.9768 8.02313 15.5694 10.8367 11.0457C13.3639 6.97997 15.8413 6.26831 15.8413 6.26831C15.8413 6.26831 13.6813 11.4789 13.949 15.8788C14.2353 20.6562 16.4887 23.7565 16.4887 23.7565C16.4887 23.7565 18.7358 23.0325 19.4765 20.0373C20.0865 17.5744 19.8686 16.1325 19.6819 13.3292C21.5306 15.2599 26.89 24.2392 21.5431 31.4053C17.3228 37.0614 7.43802 35.9228 4.36926 31.7271C0.0493577 25.8172 2.22176 19.7898 3.86507 17.9457C3.65343 21.3183 6.4483 23.2614 7.57496 23.5152Z" stroke="#F3652B" stroke-width="1.4" stroke-miterlimit="10"/>
<path d="M40.8642 11.2251H32.2617V17.302H40.8642V11.2251Z" stroke="#F3652B" stroke-width="1.4" stroke-miterlimit="10"/>
<path d="M40.8705 20.3406H27.8921V26.467H40.8705V20.3406Z" stroke="#F3652B" stroke-width="1.4" stroke-miterlimit="10"/>
<path d="M40.8708 29.2642H32.1064V35.2668H40.8708V29.2642Z" stroke="#F3652B" stroke-width="1.4" stroke-miterlimit="10"/>
<path d="M29.5169 35.2668C29.5169 35.2668 22.6013 35.2668 22.3896 35.2668C22.8378 34.8832 23.8524 33.9673 24.6928 32.5811C25.3962 31.4301 25.9626 29.2642 25.9626 29.2642H29.5169V35.2668Z" stroke="#F3652B" stroke-width="1.4" stroke-miterlimit="10"/>
<path d="M29.5169 17.302C29.5169 17.302 25.8568 17.302 25.5393 17.302C25.3775 16.8936 24.6243 15.0433 24.3193 14.2636C23.6968 12.6917 22.3896 11.2251 22.3896 11.2251H29.5169V17.302Z" stroke="#F3652B" stroke-width="1.4" stroke-miterlimit="10"/>
</g>
<defs>
<clipPath id="clip0">
<rect width="39.9" height="30.1" fill="white" transform="translate(1.3999 5.6001)"/>
</clipPath>
</defs>
</svg>
