<svg xmlns="http://www.w3.org/2000/svg" fill="none" viewBox="0 0 701 282">
  <path fill="#fff" d="M.777.242h699.347v281.615H.777z"/>
  <path fill="#F3652B" d="M41.527 33.307c-.129 1.365-.633 2.431-1.511 3.199-.88.762-2.048 1.142-3.507 1.142-1.02 0-1.92-.24-2.699-.72-.773-.487-1.37-1.175-1.792-2.066-.422-.89-.642-1.925-.66-3.102v-1.196c0-1.207.214-2.27.642-3.19.428-.92 1.04-1.629 1.837-2.127.803-.498 1.728-.747 2.777-.747 1.412 0 2.55.384 3.41 1.151.862.768 1.363 1.852 1.503 3.252h-2.215c-.105-.92-.374-1.582-.808-1.986-.428-.41-1.058-.615-1.89-.615-.966 0-1.71.354-2.232 1.063-.516.703-.78 1.738-.791 3.103v1.134c0 1.382.246 2.437.738 3.164.498.726 1.225 1.09 2.18 1.09.873 0 1.53-.197 1.968-.59.44-.392.718-1.045.836-1.96h2.214zm6.768-3.393a5.282 5.282 0 00-.87-.07c-.979 0-1.638.375-1.978 1.125v6.504h-2.136v-9.51h2.04l.052 1.063c.516-.826 1.23-1.239 2.145-1.239.304 0 .556.041.756.123l-.01 2.004zm3.621 7.559H49.78v-9.51h2.136v9.51zm-2.268-11.98c0-.328.103-.6.308-.817.211-.217.51-.325.896-.325.387 0 .686.108.897.325.211.217.316.489.316.817 0 .322-.105.592-.316.809-.21.21-.51.316-.897.316-.386 0-.685-.105-.896-.316a1.131 1.131 0 01-.308-.809zm7.278.158v2.312h1.678v1.582h-1.678v5.308c0 .364.07.627.21.791.147.159.405.238.774.238.246 0 .495-.03.747-.088v1.652a5.258 5.258 0 01-1.406.202c-1.64 0-2.461-.905-2.461-2.715v-5.388h-1.564v-1.582h1.564V25.65h2.136zm7.506 11.997c-1.354 0-2.453-.424-3.296-1.274-.838-.855-1.257-1.992-1.257-3.41V32.7c0-.949.181-1.796.545-2.54.369-.75.885-1.333 1.547-1.749a4.078 4.078 0 012.215-.624c1.294 0 2.293.413 2.997 1.24.709.825 1.063 1.994 1.063 3.506v.861h-6.214c.065.786.325 1.407.783 1.864.462.457 1.042.685 1.74.685.978 0 1.775-.395 2.39-1.186l1.152 1.099c-.381.568-.89 1.01-1.53 1.327-.632.31-1.344.465-2.135.465zm-.255-8.147c-.586 0-1.06.205-1.424.615-.358.41-.586.982-.686 1.714h4.07v-.158c-.047-.715-.238-1.254-.572-1.617-.334-.37-.796-.554-1.388-.554zm10.714.413a5.282 5.282 0 00-.87-.07c-.979 0-1.638.375-1.978 1.125v6.504h-2.136v-9.51h2.04l.052 1.063c.516-.826 1.23-1.239 2.145-1.239.304 0 .556.041.755.123l-.008 2.004zm3.62 7.559h-2.135v-9.51h2.136v9.51zm-2.267-11.98c0-.328.103-.6.308-.817.21-.217.51-.325.896-.325.387 0 .686.108.897.325.21.217.316.489.316.817 0 .322-.105.592-.316.809-.211.21-.51.316-.897.316-.386 0-.685-.105-.896-.316a1.131 1.131 0 01-.308-.809zm10.283 11.98c-.093-.182-.175-.478-.246-.888-.68.709-1.512 1.063-2.496 1.063-.955 0-1.734-.272-2.338-.817-.603-.545-.905-1.219-.905-2.021 0-1.014.375-1.79 1.125-2.33.756-.544 1.834-.817 3.234-.817h1.31v-.624c0-.492-.138-.885-.413-1.178-.276-.299-.695-.448-1.257-.448-.486 0-.885.123-1.195.37-.31.24-.466.547-.466.922h-2.136c0-.521.173-1.008.519-1.459.345-.457.814-.814 1.406-1.072.598-.258 1.263-.387 1.995-.387 1.113 0 2.001.281 2.663.844.662.556 1.002 1.342 1.02 2.355v4.29c0 .855.12 1.537.36 2.047v.15h-2.18zm-2.346-1.538c.422 0 .817-.103 1.186-.308a2.05 2.05 0 00.844-.826v-1.793H85.06c-.791 0-1.386.137-1.785.413-.398.275-.597.665-.597 1.169 0 .41.135.738.404.984.275.24.642.36 1.099.36z"/>
  <path fill="#646464" d="M33.966 62.67c-.965-.277-1.668-.617-2.11-1.02a1.967 1.967 0 01-.656-1.5c0-.672.268-1.226.803-1.664.539-.441 1.238-.662 2.098-.662.586 0 1.107.114 1.564.34.461.227.816.54 1.066.938.254.398.381.834.381 1.306h-1.13c0-.515-.165-.92-.493-1.213-.328-.297-.79-.445-1.388-.445-.555 0-.989.123-1.301.37-.309.241-.463.58-.463 1.013 0 .347.146.642.44.885.296.238.798.457 1.505.656.711.199 1.266.42 1.664.662.403.238.7.517.89.838.196.32.294.697.294 1.13 0 .692-.27 1.247-.809 1.665-.539.414-1.26.62-2.162.62a4.04 4.04 0 01-1.64-.333c-.508-.227-.9-.535-1.178-.926a2.264 2.264 0 01-.41-1.33h1.13c0 .516.19.924.569 1.225.383.297.892.445 1.53.445.593 0 1.048-.121 1.364-.363.317-.243.475-.573.475-.99 0-.419-.147-.74-.44-.967-.292-.23-.824-.457-1.593-.68zm7.072 3.92c-.86 0-1.558-.281-2.098-.844-.539-.566-.808-1.322-.808-2.267v-.2c0-.629.119-1.19.357-1.681a2.813 2.813 0 011.008-1.16 2.535 2.535 0 011.406-.422c.825 0 1.465.271 1.922.814.457.543.686 1.32.686 2.332v.451h-4.295c.015.625.197 1.131.545 1.518.351.383.797.574 1.336.574.383 0 .707-.078.972-.234.266-.157.498-.364.698-.621l.662.515c-.532.817-1.328 1.225-2.39 1.225zm-.135-5.684c-.437 0-.804.16-1.101.48-.297.317-.48.762-.551 1.337h3.176v-.082c-.032-.551-.18-.977-.446-1.278-.265-.304-.625-.457-1.078-.457zm5.338-2.308v1.535h1.184v.838H46.24v3.931c0 .254.053.446.158.575.106.125.286.187.54.187.124 0 .296-.023.515-.07v.879a3.144 3.144 0 01-.832.117c-.484 0-.85-.147-1.096-.44-.246-.293-.369-.709-.369-1.248v-3.931h-1.154v-.838h1.154v-1.535h1.084zm9.346 7.875c-.063-.125-.113-.348-.152-.668-.504.523-1.106.785-1.805.785-.625 0-1.139-.176-1.541-.528a1.728 1.728 0 01-.598-1.347c0-.66.25-1.172.75-1.535.504-.367 1.211-.551 2.121-.551h1.055v-.498c0-.379-.113-.68-.34-.903-.226-.226-.56-.34-1.002-.34-.387 0-.71.098-.973.294-.261.195-.392.431-.392.709h-1.09c0-.317.111-.621.334-.914.227-.297.531-.532.914-.704.387-.171.81-.257 1.272-.257.73 0 1.302.183 1.716.55.414.364.63.866.645 1.506v2.918c0 .582.074 1.045.223 1.389v.094h-1.137zm-1.799-.826c.34 0 .662-.088.967-.264.305-.176.525-.404.662-.686v-1.3h-.85c-1.328 0-1.992.388-1.992 1.166 0 .34.113.605.34.796.227.192.518.288.873.288zm5.59.826h-1.084v-9h1.084v9zm2.918 0h-1.084v-9h1.084v9zm7.26-.768c.386 0 .724-.117 1.013-.352.29-.234.45-.527.48-.878h1.026c-.02.363-.144.709-.375 1.037-.23.328-.539.59-.926.785a2.645 2.645 0 01-1.218.293c-.864 0-1.551-.287-2.063-.862-.508-.578-.762-1.367-.762-2.367v-.181c0-.617.114-1.166.34-1.647.227-.48.551-.853.973-1.119.426-.266.928-.398 1.506-.398.71 0 1.3.212 1.77.638.472.426.724.979.755 1.658H71.05a1.477 1.477 0 00-.469-1.007 1.433 1.433 0 00-1.031-.399c-.551 0-.979.2-1.283.598-.301.394-.452.967-.452 1.717v.205c0 .73.15 1.293.452 1.687.3.395.73.592 1.289.592zm3.45-2.46c0-.622.122-1.18.364-1.677a2.76 2.76 0 011.02-1.148 2.79 2.79 0 011.494-.404c.863 0 1.56.299 2.092.896.535.598.802 1.393.802 2.385v.076c0 .617-.119 1.172-.357 1.664a2.67 2.67 0 01-1.014 1.143c-.437.273-.941.41-1.511.41-.86 0-1.557-.299-2.092-.897-.532-.597-.797-1.388-.797-2.373v-.076zm1.09.128c0 .703.163 1.268.487 1.693.328.426.766.64 1.313.64.55 0 .988-.216 1.312-.645.324-.434.486-1.04.486-1.817 0-.695-.166-1.258-.498-1.687a1.564 1.564 0 00-1.312-.65c-.535 0-.967.212-1.295.638-.328.426-.492 1.035-.492 1.828zm7.067-3.24l.035.797c.485-.61 1.117-.914 1.899-.914 1.34 0 2.015.756 2.027 2.267v4.19H84.04v-4.196c-.004-.457-.11-.795-.316-1.013-.204-.22-.522-.329-.955-.329-.352 0-.66.094-.926.282a1.909 1.909 0 00-.621.738v4.518h-1.084v-6.34h1.025zm5.332 3.117c0-.973.23-1.754.691-2.344.461-.593 1.065-.89 1.811-.89.742 0 1.33.254 1.764.761v-3.304h1.084v9h-.996l-.053-.68c-.434.531-1.037.797-1.81.797-.735 0-1.335-.3-1.8-.903-.46-.601-.69-1.386-.69-2.355v-.082zm1.084.123c0 .719.149 1.281.445 1.688.297.406.707.609 1.23.609.688 0 1.19-.309 1.507-.926v-2.912c-.325-.598-.822-.897-1.494-.897-.532 0-.946.206-1.243.616-.296.41-.445 1.017-.445 1.822zm7.131 3.1h-1.084v-6.34h1.084v6.34zm-1.172-8.022c0-.176.053-.324.158-.445.11-.121.27-.182.48-.182.212 0 .372.06.481.182a.64.64 0 01.164.445.619.619 0 01-.164.44c-.11.117-.27.175-.48.175-.211 0-.371-.058-.48-.175a.632.632 0 01-.159-.44zm4.383.147v1.535h1.183v.838h-1.183v3.931c0 .254.053.446.158.575.106.125.285.187.54.187.124 0 .296-.023.515-.07v.879a3.144 3.144 0 01-.832.117c-.485 0-.85-.147-1.096-.44-.246-.293-.37-.709-.37-1.248v-3.931h-1.153v-.838h1.154v-1.535h1.084zm3.633 7.875h-1.084v-6.34h1.084v6.34zm-1.172-8.022c0-.176.053-.324.158-.445.109-.121.27-.182.481-.182.21 0 .371.06.48.182.109.121.164.27.164.445a.62.62 0 01-.164.44c-.109.117-.27.175-.48.175-.211 0-.372-.058-.481-.175a.634.634 0 01-.158-.44zm2.625 4.793c0-.621.121-1.18.363-1.676a2.756 2.756 0 011.02-1.148c.437-.27.935-.404 1.494-.404.863 0 1.56.299 2.092.896.535.598.802 1.393.802 2.385v.076c0 .617-.119 1.172-.357 1.664-.234.488-.572.87-1.014 1.143-.437.273-.941.41-1.511.41-.86 0-1.557-.299-2.092-.897-.532-.597-.797-1.388-.797-2.373v-.076zm1.09.129c0 .703.162 1.268.486 1.693.328.426.766.64 1.313.64.55 0 .988-.216 1.312-.645.324-.434.486-1.04.486-1.817 0-.695-.166-1.258-.498-1.687a1.563 1.563 0 00-1.312-.65c-.535 0-.967.212-1.295.638-.328.426-.492 1.035-.492 1.828zm7.066-3.24l.035.797c.485-.61 1.117-.914 1.899-.914 1.34 0 2.015.756 2.027 2.267v4.19h-1.084v-4.196c-.004-.457-.109-.795-.316-1.013-.203-.22-.522-.329-.955-.329-.352 0-.661.094-.926.282a1.903 1.903 0 00-.621.738v4.518h-1.084v-6.34h1.025zm9.287 4.658c0-.293-.111-.52-.334-.68-.219-.164-.603-.304-1.154-.422-.547-.117-.983-.257-1.307-.421-.32-.165-.558-.36-.715-.586a1.417 1.417 0 01-.228-.809c0-.52.219-.959.656-1.318.442-.36 1.004-.54 1.688-.54.718 0 1.3.186 1.746.557.449.371.674.846.674 1.424h-1.09c0-.297-.127-.553-.381-.768-.25-.214-.567-.322-.949-.322-.395 0-.703.086-.926.258a.81.81 0 00-.334.674c0 .262.103.459.31.592.207.133.581.26 1.12.38.543.122.982.266 1.318.434.336.168.584.371.744.61.164.234.246.521.246.86 0 .567-.226 1.022-.68 1.366-.453.34-1.041.51-1.763.51-.508 0-.957-.09-1.348-.27-.39-.18-.697-.43-.92-.75a1.837 1.837 0 01-.328-1.048h1.084c.02.363.164.652.434.867.273.21.633.316 1.078.316.41 0 .738-.082.984-.246.25-.168.375-.39.375-.668zm6.944-6.193v1.535h1.183v.838h-1.183v3.931c0 .254.052.446.158.575.105.125.285.187.539.187.125 0 .297-.023.515-.07v.879a3.14 3.14 0 01-.832.117c-.484 0-.849-.147-1.095-.44-.246-.293-.369-.709-.369-1.248v-3.931h-1.155v-.838h1.155v-1.535h1.084zm2.05 4.646c0-.621.121-1.18.364-1.676a2.76 2.76 0 011.019-1.148c.438-.27.936-.404 1.494-.404.864 0 1.561.299 2.092.896.535.598.803 1.393.803 2.385v.076c0 .617-.119 1.172-.358 1.664-.234.488-.572.87-1.013 1.143-.438.273-.942.41-1.512.41-.859 0-1.557-.299-2.092-.897-.531-.597-.797-1.388-.797-2.373v-.076zm1.09.129c0 .703.162 1.268.487 1.693.328.426.765.64 1.312.64.551 0 .988-.216 1.313-.645.324-.434.486-1.04.486-1.817 0-.695-.166-1.258-.498-1.687a1.564 1.564 0 00-1.313-.65c-.535 0-.967.212-1.295.638-.328.426-.492 1.035-.492 1.828zm11.649 3.217c-.86 0-1.559-.281-2.098-.844-.539-.566-.809-1.322-.809-2.267v-.2c0-.629.12-1.19.358-1.681a2.811 2.811 0 011.008-1.16 2.532 2.532 0 011.406-.422c.824 0 1.465.271 1.922.814.457.543.685 1.32.685 2.332v.451h-4.295c.016.625.198 1.131.545 1.518.352.383.797.574 1.336.574.383 0 .707-.078.973-.234.265-.157.498-.364.697-.621l.662.515c-.531.817-1.328 1.225-2.39 1.225zm-.135-5.684c-.438 0-.805.16-1.102.48-.297.317-.48.762-.55 1.337h3.175v-.082c-.031-.551-.179-.977-.445-1.278-.266-.304-.625-.457-1.078-.457zm5.994 1.541l1.406-2.314h1.266l-2.074 3.135 2.138 3.205h-1.254L148.06 64.1l-1.465 2.373h-1.26l2.139-3.205-2.075-3.135h1.254l1.389 2.314zm6.34 4.143c-.86 0-1.559-.281-2.098-.844-.539-.566-.808-1.322-.808-2.267v-.2c0-.629.119-1.19.357-1.681a2.811 2.811 0 011.008-1.16 2.532 2.532 0 011.406-.422c.824 0 1.465.271 1.922.814.457.543.685 1.32.685 2.332v.451h-4.294c.015.625.197 1.131.544 1.518.352.383.797.574 1.336.574.383 0 .707-.078.973-.234.266-.157.498-.364.697-.621l.662.515c-.531.817-1.328 1.225-2.39 1.225zm-.135-5.684c-.437 0-.805.16-1.101.48-.297.317-.481.762-.551 1.337h3.176v-.082c-.032-.551-.18-.977-.446-1.278-.265-.304-.625-.457-1.078-.457zm6.41 4.8c.387 0 .725-.118 1.014-.353.289-.234.449-.527.48-.878h1.026c-.02.363-.145.709-.375 1.037-.231.328-.539.59-.926.785a2.646 2.646 0 01-1.219.293c-.863 0-1.551-.287-2.062-.862-.508-.578-.762-1.367-.762-2.367v-.181c0-.617.113-1.166.34-1.647a2.59 2.59 0 01.973-1.119c.425-.266.927-.398 1.505-.398.711 0 1.301.212 1.77.638.473.426.725.979.756 1.658h-1.026a1.476 1.476 0 00-.468-1.007 1.435 1.435 0 00-1.032-.399c-.55 0-.978.2-1.283.598-.301.394-.451.967-.451 1.717v.205c0 .73.15 1.293.451 1.687.301.395.731.592 1.289.592zm7.653.14c-.422.496-1.041.744-1.858.744-.676 0-1.191-.196-1.547-.586-.351-.395-.529-.977-.533-1.746v-4.125h1.084v4.095c0 .962.391 1.442 1.172 1.442.828 0 1.379-.309 1.652-.926v-4.611h1.084v6.34h-1.031l-.023-.627zm4.177-7.248v1.535h1.184v.838h-1.184v3.931c0 .254.053.446.159.575.105.125.285.187.539.187.125 0 .296-.023.515-.07v.879a3.14 3.14 0 01-.832.117c-.484 0-.849-.147-1.096-.44-.246-.293-.369-.709-.369-1.248v-3.931h-1.154v-.838h1.154v-1.535h1.084zm5.086 7.992c-.859 0-1.558-.281-2.097-.844-.539-.566-.809-1.322-.809-2.267v-.2c0-.629.119-1.19.357-1.681a2.825 2.825 0 011.008-1.16 2.537 2.537 0 011.406-.422c.825 0 1.465.271 1.922.814.457.543.686 1.32.686 2.332v.451h-4.295c.016.625.197 1.131.545 1.518.351.383.797.574 1.336.574.383 0 .707-.078.972-.234.266-.157.499-.364.698-.621l.662.515c-.531.817-1.328 1.225-2.391 1.225zm-.135-5.684c-.437 0-.804.16-1.101.48-.297.317-.481.762-.551 1.337h3.176v-.082c-.031-.551-.18-.977-.445-1.278-.266-.304-.625-.457-1.079-.457zm8.918 3.979l1.477-4.752h1.16l-2.549 7.318c-.394 1.055-1.021 1.582-1.881 1.582l-.205-.017-.404-.077v-.878l.293.023c.367 0 .652-.074.856-.223.207-.148.376-.42.509-.814l.241-.645-2.262-6.27h1.183l1.582 4.753zm3.229-1.64c0-.622.121-1.18.363-1.677a2.756 2.756 0 011.02-1.148c.437-.27.935-.404 1.494-.404.863 0 1.56.299 2.092.896.535.598.802 1.393.802 2.385v.076c0 .617-.119 1.172-.357 1.664-.234.488-.572.87-1.014 1.143-.437.273-.941.41-1.511.41-.86 0-1.557-.299-2.092-.897-.531-.597-.797-1.388-.797-2.373v-.076zm1.09.128c0 .703.162 1.268.486 1.693.328.426.766.64 1.313.64.55 0 .988-.216 1.312-.645.324-.434.486-1.04.486-1.817 0-.695-.166-1.258-.498-1.687a1.563 1.563 0 00-1.312-.65c-.535 0-.967.212-1.295.638-.328.426-.492 1.035-.492 1.828zm9.955 2.473c-.422.496-1.041.744-1.858.744-.675 0-1.191-.196-1.546-.586-.352-.395-.53-.977-.534-1.746v-4.125h1.084v4.095c0 .962.391 1.442 1.172 1.442.828 0 1.379-.309 1.653-.926v-4.611h1.084v6.34h-1.032l-.023-.627zm5.771-4.74a3.234 3.234 0 00-.533-.041c-.711 0-1.193.302-1.447.908v4.5h-1.084v-6.34h1.055l.017.732c.356-.566.86-.85 1.512-.85.211 0 .371.028.48.083v1.008zm7.043 0a3.234 3.234 0 00-.533-.041c-.711 0-1.193.302-1.447.908v4.5h-1.084v-6.34h1.055l.017.732c.356-.566.86-.85 1.512-.85.211 0 .371.028.48.083v1.008zm4.916 4.74c-.422.496-1.041.744-1.857.744-.676 0-1.191-.196-1.547-.586-.352-.395-.529-.977-.533-1.746v-4.125h1.084v4.095c0 .962.39 1.442 1.172 1.442.828 0 1.379-.309 1.652-.926v-4.611h1.084v6.34h-1.031l-.024-.627zm3.885.627h-1.084v-9h1.084v9zm4.371.117c-.859 0-1.558-.281-2.097-.844-.54-.566-.809-1.322-.809-2.267v-.2c0-.629.119-1.19.357-1.681a2.825 2.825 0 011.008-1.16 2.537 2.537 0 011.406-.422c.825 0 1.465.271 1.922.814.457.543.686 1.32.686 2.332v.451h-4.295c.016.625.197 1.131.545 1.518.351.383.797.574 1.336.574.383 0 .707-.078.972-.234.266-.157.499-.364.698-.621l.662.515c-.531.817-1.328 1.225-2.391 1.225zm-.135-5.684c-.437 0-.804.16-1.101.48-.297.317-.481.762-.551 1.337h3.176v-.082c-.031-.551-.18-.977-.445-1.278-.266-.304-.625-.457-1.079-.457zm3.891 4.998c0-.187.055-.343.164-.468.113-.126.281-.188.504-.188.223 0 .391.063.504.188a.66.66 0 01.176.468c0 .18-.059.33-.176.452-.113.12-.281.181-.504.181-.223 0-.391-.06-.504-.181a.65.65 0 01-.164-.452z"/>
  <path fill="#C8C8C8" fill-rule="evenodd" d="M179.319 218.473c-3.353 0-6.075 2.688-6.075 6s2.722 6 6.075 6c3.354 0 6.076-2.688 6.076-6s-2.722-6-6.076-6zm.608 9h-1.215v-3.6h1.215v3.6zm-1.215-4.8h1.215v-1.2h-1.215v1.2z" clip-rule="evenodd"/>
  <rect width="125.567" height="40" x="87.17" y="91.473" fill="#F9F9F9" rx="5"/>
  <path fill="#AAA" d="M193.708 109.473h6.923c.479 0 .719.51.38.808l-3.461 3.053a.591.591 0 01-.761 0l-3.461-3.053c-.339-.298-.099-.808.38-.808z"/>
  <path fill="#646464" d="M102.318 112.159h-2.504v4.314H98.4v-10.664h3.53c1.201 0 2.124.273 2.769.82.649.547.974 1.343.974 2.388 0 .664-.181 1.242-.542 1.735-.356.494-.855.862-1.494 1.106l2.505 4.527v.088h-1.509l-2.315-4.314zm-2.504-1.15h2.16c.698 0 1.253-.181 1.663-.542.415-.362.622-.845.622-1.45 0-.66-.197-1.165-.593-1.517-.39-.351-.957-.529-1.699-.534h-2.153v4.043zm10.913 5.61c-1.075 0-1.949-.351-2.622-1.055-.674-.708-1.011-1.652-1.011-2.834v-.249c0-.786.149-1.487.447-2.102.302-.62.722-1.104 1.259-1.45a3.167 3.167 0 011.758-.528c1.031 0 1.831.34 2.403 1.018.571.679.857 1.651.857 2.915v.564h-5.369c.019.782.246 1.414.681 1.897.439.479.996.718 1.67.718.478 0 .884-.097 1.216-.293a3.05 3.05 0 00.871-.776l.828.644c-.664 1.021-1.66 1.531-2.988 1.531zm-.169-7.104c-.547 0-1.006.2-1.377.6-.371.396-.6.952-.688 1.67h3.97v-.102c-.04-.689-.225-1.221-.557-1.597-.332-.381-.781-.571-1.348-.571zm4.505 2.929c0-1.245.285-2.229.857-2.951.571-.728 1.337-1.092 2.299-1.092.938 0 1.678.315 2.22.945l.058-.798h1.245v10.972h-1.355v-3.78c-.547.586-1.274.879-2.182.879-.957 0-1.721-.371-2.293-1.113-.566-.747-.849-1.736-.849-2.966v-.096zm1.355.154c0 .908.19 1.621.571 2.139.386.517.903.776 1.553.776.805 0 1.421-.356 1.845-1.069v-3.882c-.429-.698-1.04-1.047-1.831-1.047-.654 0-1.174.261-1.56.783-.386.518-.578 1.285-.578 2.3zm12.392 3.091c-.527.62-1.301.93-2.322.93-.844 0-1.489-.244-1.933-.732-.44-.493-.662-1.221-.667-2.183v-5.156h1.355v5.119c0 1.202.489 1.802 1.465 1.802 1.035 0 1.724-.386 2.066-1.157v-5.764h1.355v7.925h-1.29l-.029-.784zm6.673.93c-1.075 0-1.949-.351-2.623-1.055-.673-.708-1.01-1.652-1.01-2.834v-.249c0-.786.149-1.487.447-2.102.302-.62.722-1.104 1.259-1.45a3.167 3.167 0 011.758-.528c1.03 0 1.831.34 2.402 1.018.572.679.857 1.651.857 2.915v.564h-5.368c.019.782.246 1.414.681 1.897.439.479.996.718 1.67.718.478 0 .884-.097 1.216-.293a3.05 3.05 0 00.871-.776l.828.644c-.664 1.021-1.66 1.531-2.988 1.531zm-.169-7.104c-.547 0-1.006.2-1.377.6-.371.396-.6.952-.688 1.67h3.969v-.102c-.039-.689-.224-1.221-.556-1.597-.332-.381-.782-.571-1.348-.571zm9.448 4.856c0-.367-.139-.65-.417-.85-.274-.205-.755-.381-1.443-.527-.684-.147-1.228-.323-1.633-.528-.401-.205-.699-.449-.894-.732a1.771 1.771 0 01-.286-1.011c0-.649.274-1.199.821-1.648.552-.449 1.255-.674 2.109-.674.899 0 1.626.232 2.183.696.561.464.842 1.057.842 1.78h-1.362c0-.371-.159-.691-.476-.96-.313-.268-.708-.402-1.187-.402-.493 0-.879.107-1.157.322a1.016 1.016 0 00-.418.842c0 .327.13.574.389.74.258.166.725.325 1.399.476.678.151 1.228.332 1.648.542.419.21.729.464.93.762.205.293.307.652.307 1.076 0 .708-.283 1.277-.849 1.707-.567.425-1.302.637-2.205.637-.635 0-1.196-.112-1.684-.337a2.768 2.768 0 01-1.15-.937 2.3 2.3 0 01-.411-1.311h1.355c.025.454.206.815.542 1.084.342.263.791.395 1.348.395.513 0 .923-.102 1.231-.307.312-.21.468-.489.468-.835zm4.959-7.742v1.919h1.479v1.047h-1.479v4.915c0 .317.066.556.198.718.131.156.356.234.673.234.157 0 .372-.029.645-.088v1.099a3.957 3.957 0 01-1.04.146c-.606 0-1.062-.183-1.37-.549-.307-.366-.461-.886-.461-1.56v-4.915h-1.443v-1.047h1.443v-1.919h1.355zm14.509-.82v7.251c-.005 1.005-.322 1.828-.952 2.468-.625.639-1.475.998-2.549 1.076l-.373.015c-1.167 0-2.098-.315-2.791-.945-.693-.63-1.045-1.496-1.055-2.6v-7.265h1.392v7.221c0 .772.212 1.372.637 1.802.425.425 1.03.637 1.817.637.795 0 1.403-.212 1.823-.637.425-.425.638-1.023.638-1.794v-7.229h1.413zm6.13 6.35h-2.504v4.314h-1.414v-10.664h3.53c1.201 0 2.124.273 2.769.82.649.547.974 1.343.974 2.388 0 .664-.181 1.242-.542 1.735-.356.494-.855.862-1.494 1.106l2.505 4.527v.088h-1.509l-2.315-4.314zm-2.504-1.15h2.16c.698 0 1.253-.181 1.663-.542.415-.362.622-.845.622-1.45 0-.66-.197-1.165-.593-1.517-.39-.351-.957-.529-1.699-.534h-2.153v4.043zm9.345 5.464h-1.406v-10.664h1.406v10.664z"/>
  <rect width="125.567" height="40" x="87.17" y="151.473" fill="#F9F9F9" rx="5"/>
  <path fill="#AAA" d="M193.708 169.473h6.923c.479 0 .719.51.38.808l-3.461 3.053a.591.591 0 01-.761 0l-3.461-3.053c-.339-.298-.099-.808.38-.808z"/>
  <path fill="#646464" d="M102.318 172.159h-2.504v4.314H98.4v-10.664h3.53c1.201 0 2.124.273 2.769.82.649.547.974 1.343.974 2.388 0 .664-.181 1.242-.542 1.735-.356.494-.855.862-1.494 1.106l2.505 4.527v.088h-1.509l-2.315-4.314zm-2.504-1.15h2.16c.698 0 1.253-.181 1.663-.542.415-.362.622-.845.622-1.45 0-.66-.197-1.165-.593-1.517-.39-.351-.957-.529-1.699-.534h-2.153v4.043zm10.913 5.61c-1.075 0-1.949-.351-2.622-1.055-.674-.708-1.011-1.652-1.011-2.834v-.249c0-.786.149-1.487.447-2.102.302-.62.722-1.104 1.259-1.45a3.167 3.167 0 011.758-.528c1.031 0 1.831.34 2.403 1.018.571.679.857 1.651.857 2.915v.564h-5.369c.019.782.246 1.414.681 1.897.439.479.996.718 1.67.718.478 0 .884-.097 1.216-.293a3.05 3.05 0 00.871-.776l.828.644c-.664 1.021-1.66 1.531-2.988 1.531zm-.169-7.104c-.547 0-1.006.2-1.377.6-.371.396-.6.952-.688 1.67h3.97v-.102c-.04-.689-.225-1.221-.557-1.597-.332-.381-.781-.571-1.348-.571zm4.505 2.929c0-1.245.285-2.229.857-2.951.571-.728 1.337-1.092 2.299-1.092.938 0 1.678.315 2.22.945l.058-.798h1.245v10.972h-1.355v-3.78c-.547.586-1.274.879-2.182.879-.957 0-1.721-.371-2.293-1.113-.566-.747-.849-1.736-.849-2.966v-.096zm1.355.154c0 .908.19 1.621.571 2.139.386.517.903.776 1.553.776.805 0 1.421-.356 1.845-1.069v-3.882c-.429-.698-1.04-1.047-1.831-1.047-.654 0-1.174.261-1.56.783-.386.518-.578 1.285-.578 2.3zm12.392 3.091c-.527.62-1.301.93-2.322.93-.844 0-1.489-.244-1.933-.732-.44-.493-.662-1.221-.667-2.183v-5.156h1.355v5.119c0 1.202.489 1.802 1.465 1.802 1.035 0 1.724-.386 2.066-1.157v-5.764h1.355v7.925h-1.29l-.029-.784zm6.673.93c-1.075 0-1.949-.351-2.623-1.055-.673-.708-1.01-1.652-1.01-2.834v-.249c0-.786.149-1.487.447-2.102.302-.62.722-1.104 1.259-1.45a3.167 3.167 0 011.758-.528c1.03 0 1.831.34 2.402 1.018.572.679.857 1.651.857 2.915v.564h-5.368c.019.782.246 1.414.681 1.897.439.479.996.718 1.67.718.478 0 .884-.097 1.216-.293a3.05 3.05 0 00.871-.776l.828.644c-.664 1.021-1.66 1.531-2.988 1.531zm-.169-7.104c-.547 0-1.006.2-1.377.6-.371.396-.6.952-.688 1.67h3.969v-.102c-.039-.689-.224-1.221-.556-1.597-.332-.381-.782-.571-1.348-.571zm9.448 4.856c0-.367-.139-.65-.417-.85-.274-.205-.755-.381-1.443-.527-.684-.147-1.228-.323-1.633-.528-.401-.205-.699-.449-.894-.732a1.771 1.771 0 01-.286-1.011c0-.649.274-1.199.821-1.648.552-.449 1.255-.674 2.109-.674.899 0 1.626.232 2.183.696.561.464.842 1.057.842 1.78h-1.362c0-.371-.159-.691-.476-.96-.313-.268-.708-.402-1.187-.402-.493 0-.879.107-1.157.322a1.016 1.016 0 00-.418.842c0 .327.13.574.389.74.258.166.725.325 1.399.476.678.151 1.228.332 1.648.542.419.21.729.464.93.762.205.293.307.652.307 1.076 0 .708-.283 1.277-.849 1.707-.567.425-1.302.637-2.205.637-.635 0-1.196-.112-1.684-.337a2.768 2.768 0 01-1.15-.937 2.3 2.3 0 01-.411-1.311h1.355c.025.454.206.815.542 1.084.342.263.791.395 1.348.395.513 0 .923-.102 1.231-.307.312-.21.468-.489.468-.835zm4.959-7.742v1.919h1.479v1.047h-1.479v4.915c0 .317.066.556.198.718.131.156.356.234.673.234.157 0 .372-.029.645-.088v1.099a3.957 3.957 0 01-1.04.146c-.606 0-1.062-.183-1.37-.549-.307-.366-.461-.886-.461-1.56v-4.915h-1.443v-1.047h1.443v-1.919h1.355zm14.509-.82v7.251c-.005 1.005-.322 1.828-.952 2.468-.625.639-1.475.998-2.549 1.076l-.373.015c-1.167 0-2.098-.315-2.791-.945-.693-.63-1.045-1.496-1.055-2.6v-7.265h1.392v7.221c0 .772.212 1.372.637 1.802.425.425 1.03.637 1.817.637.795 0 1.403-.212 1.823-.637.425-.425.638-1.023.638-1.794v-7.229h1.413zm6.13 6.35h-2.504v4.314h-1.414v-10.664h3.53c1.201 0 2.124.273 2.769.82.649.547.974 1.343.974 2.388 0 .664-.181 1.242-.542 1.735-.356.494-.855.862-1.494 1.106l2.505 4.527v.088h-1.509l-2.315-4.314zm-2.504-1.15h2.16c.698 0 1.253-.181 1.663-.542.415-.362.622-.845.622-1.45 0-.66-.197-1.165-.593-1.517-.39-.351-.957-.529-1.699-.534h-2.153v4.043zm9.345 5.464h-1.406v-10.664h1.406v10.664zM33.209 112.473h-1.407v-10.664h1.407v10.664zm3.032 0v-6.878h-1.253v-1.047h1.253v-.813c0-.85.227-1.506.68-1.97.455-.464 1.097-.696 1.927-.696.313 0 .623.041.93.124l-.073 1.099a3.887 3.887 0 00-.732-.066c-.44 0-.78.129-1.018.388-.24.254-.36.62-.36 1.099v.835h1.693v1.047h-1.692v6.878H36.24zm4.504-.711a.86.86 0 01.205-.586c.142-.156.352-.234.63-.234s.488.078.63.234c.146.157.22.352.22.586a.778.778 0 01-.22.564c-.142.152-.352.227-.63.227s-.488-.075-.63-.227a.809.809 0 01-.205-.564zm.007-6.467c0-.234.069-.43.206-.586.141-.156.351-.234.63-.234.278 0 .488.078.63.234.146.156.219.352.219.586a.778.778 0 01-.22.564c-.141.151-.351.227-.63.227-.278 0-.488-.076-.63-.227a.809.809 0 01-.205-.564z"/>
  <path fill="#F3652B" d="M49.534 105.273l-2.212-.659.337-1.106 2.212.82-.066-2.519h1.12l-.072 2.556 2.175-.806.337 1.113-2.249.667 1.45 1.985-.908.688-1.362-2.109-1.319 2.058-.915-.667 1.472-2.021z"/>
  <path fill="#646464" d="M37.588 169.689h-4.467l-1.004 2.784h-1.45l4.072-10.664h1.23l4.08 10.664h-1.443l-1.018-2.784zm-4.043-1.157h3.626l-1.816-4.988-1.81 4.988zm9.01-3.984l.043.996c.606-.762 1.397-1.143 2.373-1.143 1.675 0 2.52.945 2.534 2.835v5.237H46.15v-5.244c-.005-.572-.136-.994-.395-1.268-.254-.273-.652-.41-1.194-.41-.44 0-.825.117-1.157.352-.332.234-.591.542-.777.923v5.647h-1.355v-7.925h1.282zm6.664 3.896c0-1.215.288-2.192.864-2.929.577-.743 1.331-1.114 2.264-1.114.927 0 1.662.318 2.204.953v-4.131h1.355v11.25h-1.245l-.066-.85c-.542.664-1.296.996-2.263.996-.918 0-1.667-.376-2.248-1.128-.577-.752-.865-1.733-.865-2.944v-.103zm1.355.154c0 .899.186 1.602.557 2.11.371.507.884.761 1.538.761.86 0 1.487-.386 1.882-1.157v-3.64c-.405-.747-1.028-1.121-1.867-1.121-.664 0-1.182.257-1.553.769-.371.513-.557 1.272-.557 2.278zm7.398 3.164a.86.86 0 01.205-.586c.141-.156.351-.234.63-.234.278 0 .488.078.63.234.146.157.22.352.22.586a.778.778 0 01-.22.564c-.142.152-.352.227-.63.227-.279 0-.489-.075-.63-.227a.809.809 0 01-.205-.564zm.007-6.467c0-.234.068-.43.205-.586.142-.156.352-.234.63-.234s.488.078.63.234c.146.156.22.352.22.586a.778.778 0 01-.22.564c-.142.151-.352.227-.63.227s-.488-.076-.63-.227a.809.809 0 01-.205-.564z"/>
  <g>
    <rect width="148.857" height="40" x="228.939" y="91.473" fill="#F9F9F9" rx="5"/>
    <path fill="#AAA" d="M358.477 109.473h6.923c.479 0 .719.51.38.808l-3.461 3.053a.591.591 0 01-.761 0l-3.461-3.053c-.339-.298-.099-.808.38-.808z"/>
    <path fill="#646464" d="M244.578 114.371c0-.367-.139-.65-.417-.85-.274-.205-.755-.381-1.443-.527-.684-.147-1.228-.323-1.633-.528-.401-.205-.699-.449-.894-.732a1.771 1.771 0 01-.286-1.011c0-.649.274-1.199.821-1.648.551-.449 1.255-.674 2.109-.674.899 0 1.626.232 2.183.696.561.464.842 1.057.842 1.78h-1.362c0-.371-.159-.691-.476-.96-.313-.268-.708-.402-1.187-.402-.493 0-.879.107-1.157.322a1.016 1.016 0 00-.418.842c0 .327.13.574.389.74.258.166.725.325 1.398.476.679.151 1.229.332 1.648.542.42.21.73.464.931.762.205.293.307.652.307 1.076 0 .708-.283 1.277-.849 1.707-.567.425-1.302.637-2.205.637-.635 0-1.196-.112-1.685-.337a2.771 2.771 0 01-1.149-.937 2.3 2.3 0 01-.411-1.311h1.355c.025.454.205.815.542 1.084.342.263.791.395 1.348.395.513 0 .923-.102 1.23-.307.313-.21.469-.489.469-.835zm4.959-7.742v1.919h1.479v1.047h-1.479v4.915c0 .317.066.556.197.718.132.156.357.234.674.234.157 0 .371-.029.645-.088v1.099a3.957 3.957 0 01-1.04.146c-.606 0-1.062-.183-1.37-.549-.307-.366-.461-.886-.461-1.56v-4.915h-1.443v-1.047h1.443v-1.919h1.355zm7.961 9.844c-.078-.157-.141-.435-.19-.835-.63.654-1.382.981-2.256.981-.781 0-1.423-.22-1.926-.659-.498-.444-.747-1.006-.747-1.685 0-.825.312-1.464.937-1.919.63-.459 1.514-.688 2.651-.688h1.319v-.623c0-.473-.142-.849-.425-1.128-.283-.283-.701-.424-1.252-.424-.484 0-.889.122-1.216.366-.327.244-.491.539-.491.886h-1.362c0-.395.139-.776.417-1.142a2.875 2.875 0 011.143-.879 3.865 3.865 0 011.589-.323c.913 0 1.629.23 2.146.689.518.454.786 1.081.806 1.882v3.648c0 .727.093 1.306.278 1.735v.118h-1.421zm-2.248-1.033c.424 0 .827-.11 1.208-.33.381-.219.657-.505.828-.857v-1.626h-1.062c-1.66 0-2.49.486-2.49 1.458 0 .425.141.757.424.996.284.239.647.359 1.092.359zm9.345-5.676a3.965 3.965 0 00-.666-.052c-.889 0-1.492.379-1.809 1.136v5.625h-1.355v-7.925h1.318l.022.915c.444-.708 1.074-1.062 1.89-1.062.263 0 .464.035.6.103v1.26zm3.457-3.135v1.919h1.48v1.047h-1.48v4.915c0 .317.066.556.198.718.132.156.357.234.674.234.156 0 .371-.029.644-.088v1.099a3.95 3.95 0 01-1.04.146c-.605 0-1.062-.183-1.369-.549-.308-.366-.462-.886-.462-1.56v-4.915h-1.442v-1.047h1.442v-1.919h1.355zm7.683 7.742c0-.367-.139-.65-.417-.85-.273-.205-.754-.381-1.443-.527-.683-.147-1.228-.323-1.633-.528-.401-.205-.698-.449-.894-.732-.19-.283-.285-.62-.285-1.011 0-.649.273-1.199.82-1.648.552-.449 1.255-.674 2.109-.674.899 0 1.626.232 2.183.696.561.464.842 1.057.842 1.78h-1.362c0-.371-.159-.691-.476-.96-.313-.268-.708-.402-1.187-.402-.493 0-.879.107-1.157.322a1.015 1.015 0 00-.417.842c0 .327.129.574.388.74.259.166.725.325 1.399.476.678.151 1.228.332 1.648.542.42.21.73.464.93.762.205.293.307.652.307 1.076 0 .708-.283 1.277-.849 1.707-.567.425-1.301.637-2.205.637-.635 0-1.196-.112-1.684-.337a2.768 2.768 0 01-1.15-.937 2.298 2.298 0 01-.41-1.311h1.355c.024.454.205.815.542 1.084.341.263.791.395 1.347.395.513 0 .923-.102 1.231-.307.312-.21.468-.489.468-.835zm13.858.234l1.523-6.057h1.355l-2.307 7.925h-1.098l-1.927-6.006-1.875 6.006h-1.098l-2.3-7.925h1.348l1.56 5.932 1.845-5.932h1.092l1.882 6.057zm5.735 1.868h-1.355v-7.925h1.355v7.925zm-1.465-10.027c0-.22.066-.405.198-.557.136-.151.337-.227.6-.227.264 0 .464.076.601.227a.8.8 0 01.205.557.77.77 0 01-.205.549c-.137.147-.337.22-.601.22-.263 0-.464-.073-.6-.22a.788.788 0 01-.198-.549zm5.478.183v1.919h1.48v1.047h-1.48v4.915c0 .317.066.556.198.718.132.156.357.234.674.234.156 0 .371-.029.645-.088v1.099a3.962 3.962 0 01-1.04.146c-.606 0-1.063-.183-1.37-.549-.308-.366-.462-.886-.462-1.56v-4.915h-1.442v-1.047h1.442v-1.919h1.355zm4.424 2.878c.601-.737 1.382-1.106 2.344-1.106 1.675 0 2.52.945 2.534 2.835v5.237h-1.355v-5.244c-.005-.572-.137-.994-.395-1.268-.254-.273-.652-.41-1.194-.41-.44 0-.825.117-1.157.352a2.39 2.39 0 00-.777.923v5.647h-1.355v-11.25h1.355v4.284z"/>
  </g>
  <g>
    <rect width="148.857" height="40" x="228.939" y="151.473" fill="#F9F9F9" rx="5"/>
    <path fill="#AAA" d="M358.477 169.473h6.923c.479 0 .719.51.38.808l-3.461 3.053a.591.591 0 01-.761 0l-3.461-3.053c-.339-.298-.099-.808.38-.808z"/>
    <path fill="#646464" d="M239.634 172.444c0-1.215.288-2.192.865-2.929.576-.743 1.33-1.114 2.263-1.114.928 0 1.662.318 2.204.953v-4.131h1.355v11.25h-1.245l-.066-.85c-.542.664-1.296.996-2.263.996-.918 0-1.667-.376-2.248-1.128-.577-.752-.865-1.733-.865-2.944v-.103zm1.355.154c0 .899.186 1.602.557 2.11.371.507.884.761 1.538.761.859 0 1.487-.386 1.882-1.157v-3.64c-.405-.747-1.027-1.121-1.867-1.121-.664 0-1.182.257-1.553.769-.371.513-.557 1.272-.557 2.278zm7.083-.161c0-.776.151-1.475.454-2.095.308-.62.732-1.098 1.274-1.435.547-.337 1.17-.506 1.868-.506 1.079 0 1.951.374 2.615 1.121.669.747 1.003 1.741 1.003 2.981v.095c0 .772-.149 1.465-.447 2.08a3.32 3.32 0 01-1.267 1.428c-.546.342-1.176.513-1.889.513-1.074 0-1.946-.373-2.615-1.12-.664-.748-.996-1.736-.996-2.967v-.095zm1.362.161c0 .879.203 1.585.608 2.117.41.532.957.798 1.641.798.688 0 1.235-.268 1.64-.805.406-.542.608-1.299.608-2.271 0-.869-.207-1.572-.622-2.109-.41-.542-.957-.813-1.641-.813-.669 0-1.208.266-1.619.798-.41.532-.615 1.294-.615 2.285zm10.84 4.021c-1.074 0-1.948-.351-2.622-1.055-.674-.708-1.011-1.652-1.011-2.834v-.249c0-.786.149-1.487.447-2.102.303-.62.723-1.104 1.26-1.45a3.167 3.167 0 011.758-.528c1.03 0 1.831.34 2.402 1.018.571.679.857 1.651.857 2.915v.564h-5.369c.02.782.247 1.414.681 1.897.44.479.996.718 1.67.718.479 0 .884-.097 1.216-.293.332-.195.623-.454.872-.776l.827.644c-.664 1.021-1.66 1.531-2.988 1.531zm-.168-7.104c-.547 0-1.006.2-1.377.6-.371.396-.601.952-.689 1.67h3.97v-.102c-.039-.689-.225-1.221-.557-1.597-.332-.381-.781-.571-1.347-.571zm9.448 4.856c0-.367-.139-.65-.418-.85-.273-.205-.754-.381-1.443-.527-.683-.147-1.228-.323-1.633-.528-.4-.205-.698-.449-.893-.732-.191-.283-.286-.62-.286-1.011 0-.649.273-1.199.82-1.648.552-.449 1.255-.674 2.11-.674.898 0 1.626.232 2.182.696.562.464.843 1.057.843 1.78h-1.363c0-.371-.158-.691-.476-.96-.312-.268-.708-.402-1.186-.402-.493 0-.879.107-1.158.322a1.015 1.015 0 00-.417.842c0 .327.129.574.388.74.259.166.725.325 1.399.476.679.151 1.228.332 1.648.542.42.21.73.464.93.762.205.293.308.652.308 1.076 0 .708-.283 1.277-.85 1.707-.566.425-1.301.637-2.204.637-.635 0-1.197-.112-1.685-.337a2.774 2.774 0 01-1.15-.937 2.306 2.306 0 01-.41-1.311h1.355c.024.454.205.815.542 1.084.342.263.791.395 1.348.395.512 0 .922-.102 1.23-.307.313-.21.469-.489.469-.835zm8.122-5.823l.044.996c.606-.762 1.397-1.143 2.373-1.143 1.675 0 2.52.945 2.535 2.835v5.237h-1.355v-5.244c-.005-.572-.137-.994-.396-1.268-.254-.273-.652-.41-1.194-.41-.439 0-.825.117-1.157.352a2.379 2.379 0 00-.776.923v5.647h-1.355v-7.925h1.281zm6.636 3.889c0-.776.152-1.475.454-2.095.308-.62.733-1.098 1.275-1.435.547-.337 1.169-.506 1.867-.506 1.079 0 1.951.374 2.615 1.121.669.747 1.003 1.741 1.003 2.981v.095c0 .772-.148 1.465-.446 2.08a3.333 3.333 0 01-1.267 1.428c-.547.342-1.177.513-1.89.513-1.074 0-1.946-.373-2.615-1.12-.664-.748-.996-1.736-.996-2.967v-.095zm1.362.161c0 .879.203 1.585.608 2.117.411.532.957.798 1.641.798.688 0 1.235-.268 1.641-.805.405-.542.608-1.299.608-2.271 0-.869-.208-1.572-.623-2.109-.41-.542-.957-.813-1.641-.813-.669 0-1.208.266-1.618.798-.41.532-.616 1.294-.616 2.285zm9.39-5.969v1.919h1.48v1.047h-1.48v4.915c0 .317.066.556.198.718.132.156.356.234.674.234.156 0 .371-.029.644-.088v1.099a3.95 3.95 0 01-1.04.146c-.605 0-1.062-.183-1.369-.549-.308-.366-.462-.886-.462-1.56v-4.915h-1.443v-1.047h1.443v-1.919h1.355zm8.064 1.919l.037.879c.581-.684 1.364-1.026 2.351-1.026 1.108 0 1.863.425 2.263 1.275a3.008 3.008 0 011.025-.923c.425-.234.926-.352 1.502-.352 1.738 0 2.622.921 2.651 2.762v5.31h-1.355v-5.23c0-.566-.129-.989-.388-1.267-.259-.283-.693-.425-1.304-.425-.503 0-.92.152-1.252.454-.332.298-.525.701-.579 1.209v5.259h-1.362v-5.193c0-1.153-.564-1.729-1.692-1.729-.889 0-1.497.379-1.824 1.136v5.786h-1.355v-7.925h1.282zm16.773 7.925c-.079-.157-.142-.435-.191-.835-.63.654-1.382.981-2.256.981-.781 0-1.423-.22-1.926-.659-.498-.444-.747-1.006-.747-1.685 0-.825.312-1.464.937-1.919.63-.459 1.514-.688 2.652-.688h1.318v-.623c0-.473-.141-.849-.425-1.128-.283-.283-.7-.424-1.252-.424-.484 0-.889.122-1.216.366-.327.244-.491.539-.491.886h-1.362c0-.395.139-.776.417-1.142a2.89 2.89 0 011.143-.879 3.865 3.865 0 011.589-.323c.914 0 1.629.23 2.146.689.518.454.787 1.081.806 1.882v3.648c0 .727.093 1.306.278 1.735v.118h-1.42zm-2.249-1.033c.425 0 .828-.11 1.208-.33.381-.219.657-.505.828-.857v-1.626h-1.062c-1.66 0-2.49.486-2.49 1.458 0 .425.141.757.425.996.283.239.647.359 1.091.359zm7.353-8.811v1.919h1.48v1.047h-1.48v4.915c0 .317.066.556.198.718.132.156.357.234.674.234.156 0 .371-.029.645-.088v1.099a3.962 3.962 0 01-1.04.146c-.606 0-1.062-.183-1.37-.549-.308-.366-.461-.886-.461-1.56v-4.915h-1.443v-1.047h1.443v-1.919h1.354zm6.248 8.884c.483 0 .906-.146 1.267-.439.361-.293.562-.659.601-1.099h1.281c-.024.454-.18.886-.468 1.296a3.07 3.07 0 01-1.158.982 3.305 3.305 0 01-1.523.366c-1.079 0-1.938-.359-2.578-1.077-.635-.722-.952-1.709-.952-2.959v-.227c0-.771.141-1.457.425-2.058.283-.6.688-1.067 1.215-1.399.533-.332 1.16-.498 1.883-.498.888 0 1.626.266 2.212.799.59.532.905 1.223.944 2.072h-1.281c-.039-.512-.235-.932-.586-1.259-.347-.332-.777-.498-1.289-.498-.689 0-1.223.249-1.604.747-.376.493-.564 1.208-.564 2.146v.256c0 .913.188 1.616.564 2.109.376.494.913.74 1.611.74zm6.028-6.006c.6-.737 1.382-1.106 2.344-1.106 1.674 0 2.519.945 2.534 2.835v5.237h-1.355v-5.244c-.005-.572-.137-.994-.396-1.268-.254-.273-.652-.41-1.194-.41-.439 0-.825.117-1.157.352a2.379 2.379 0 00-.776.923v5.647h-1.355v-11.25h1.355v4.284z"/>
  </g>
  <g>
    <rect width="276.45" height="40" x="393.998" y="91.473" fill="#F9F9F9" rx="5"/>
    <path fill="#AAA" d="M650.537 109.473h6.923c.479 0 .718.51.379.808l-3.46 3.053a.591.591 0 01-.761 0l-3.461-3.053c-.339-.298-.099-.808.38-.808z"/>
    <path fill="#646464" d="M405.295 117.388h-1.165l4.453-11.579h1.157l-4.445 11.579z"/>
  </g>
  <g>
    <rect width="276.45" height="40" x="393.998" y="151.473" fill="#F9F9F9" rx="5"/>
    <path fill="#AAA" d="M650.537 169.473h6.923c.479 0 .718.51.379.808l-3.46 3.053a.591.591 0 01-.761 0l-3.461-3.053c-.339-.298-.099-.808.38-.808z"/>
    <path fill="#646464" d="M404.291 165.809h1.289l4.453 11.579h-1.289l-4.453-11.579zm6.914 9.953c0-.234.069-.429.205-.586.142-.156.352-.234.63-.234.279 0 .489.078.63.234.147.157.22.352.22.586a.776.776 0 01-.22.564c-.141.152-.351.227-.63.227-.278 0-.488-.075-.63-.227a.812.812 0 01-.205-.564zm3.875-3.618c0-1.103.146-2.163.439-3.179a9.307 9.307 0 011.326-2.768c.586-.83 1.194-1.416 1.824-1.758l.278.894c-.713.546-1.299 1.381-1.758 2.504-.454 1.123-.703 2.381-.747 3.772l-.007.623c0 1.885.344 3.52 1.033 4.907.415.83.908 1.48 1.479 1.948l-.278.828c-.65-.361-1.27-.967-1.861-1.816-1.152-1.661-1.728-3.645-1.728-5.955zm6.577-3.596v8.84c0 1.524-.691 2.285-2.073 2.285a2.53 2.53 0 01-.827-.131v-1.084c.156.039.361.058.615.058.303 0 .532-.083.688-.249.161-.161.242-.444.242-.85v-8.869h1.355zm-1.494-2.102a.81.81 0 01.198-.55c.136-.156.334-.234.593-.234.264 0 .464.076.6.227a.801.801 0 01.206.557c0 .22-.069.403-.206.549-.136.147-.336.22-.6.22-.264 0-.462-.073-.593-.22a.788.788 0 01-.198-.549zm10.378 6.152c0 1.206-.276 2.178-.827 2.915-.552.737-1.299 1.106-2.242 1.106-.962 0-1.718-.305-2.27-.915v3.816h-1.355v-10.972h1.238l.066.879c.551-.684 1.318-1.026 2.299-1.026.953 0 1.705.359 2.256 1.077.557.718.835 1.716.835 2.996v.124zm-1.355-.154c0-.893-.19-1.599-.571-2.116-.381-.518-.903-.777-1.567-.777-.821 0-1.436.364-1.846 1.092v3.786c.405.723 1.025 1.084 1.86 1.084.65 0 1.165-.256 1.546-.769.385-.517.578-1.284.578-2.3zm2.762 0c0-1.235.285-2.216.856-2.944.572-.732 1.329-1.099 2.271-1.099.967 0 1.721.342 2.263 1.026l.066-.879h1.238v7.734c0 1.026-.305 1.834-.916 2.425-.605.59-1.421.886-2.446.886-.571 0-1.13-.122-1.677-.366-.547-.245-.965-.579-1.253-1.004l.703-.813c.582.718 1.292 1.077 2.132 1.077.659 0 1.172-.186 1.538-.557.371-.371.557-.893.557-1.567v-.681c-.542.625-1.282.937-2.22.937-.927 0-1.679-.373-2.256-1.12-.571-.748-.856-1.766-.856-3.055zm1.362.154c0 .894.183 1.597.549 2.11.366.507.879.761 1.538.761.855 0 1.482-.388 1.883-1.164v-3.618c-.415-.757-1.038-1.136-1.868-1.136-.659 0-1.174.257-1.546.769-.371.513-.556 1.272-.556 2.278zm8.73 5.852h-1.091v-12.641h1.091v12.641zm3.714-9.902v8.84c0 1.524-.691 2.285-2.073 2.285a2.54 2.54 0 01-.828-.131v-1.084c.157.039.362.058.616.058.302 0 .532-.083.688-.249.161-.161.242-.444.242-.85v-8.869h1.355zm-1.494-2.102c0-.215.065-.398.197-.55.137-.156.335-.234.594-.234.263 0 .463.076.6.227a.8.8 0 01.205.557.77.77 0 01-.205.549c-.137.147-.337.22-.6.22-.264 0-.462-.073-.594-.22a.787.787 0 01-.197-.549zm10.378 6.152c0 1.206-.276 2.178-.828 2.915-.551.737-1.299 1.106-2.241 1.106-.962 0-1.719-.305-2.27-.915v3.816h-1.355v-10.972h1.237l.066.879c.552-.684 1.319-1.026 2.3-1.026.952 0 1.704.359 2.256 1.077.557.718.835 1.716.835 2.996v.124zm-1.355-.154c0-.893-.19-1.599-.571-2.116-.381-.518-.904-.777-1.568-.777-.82 0-1.435.364-1.845 1.092v3.786c.405.723 1.025 1.084 1.86 1.084.649 0 1.164-.256 1.545-.769.386-.517.579-1.284.579-2.3zm6.372 4.175c-1.074 0-1.948-.351-2.622-1.055-.674-.708-1.011-1.652-1.011-2.834v-.249c0-.786.149-1.487.447-2.102.303-.62.723-1.104 1.26-1.45a3.167 3.167 0 011.758-.528c1.03 0 1.831.34 2.402 1.018.571.679.857 1.651.857 2.915v.564h-5.369c.02.782.247 1.414.681 1.897.44.479.996.718 1.67.718.479 0 .884-.097 1.216-.293.332-.195.623-.454.872-.776l.827.644c-.664 1.021-1.66 1.531-2.988 1.531zm-.168-7.104c-.547 0-1.006.2-1.377.6-.371.396-.601.952-.689 1.67h3.97v-.102c-.039-.689-.225-1.221-.557-1.597-.332-.381-.781-.571-1.347-.571zm4.511 2.929c0-1.235.286-2.216.857-2.944.572-.732 1.328-1.099 2.271-1.099.967 0 1.721.342 2.263 1.026l.066-.879h1.238v7.734c0 1.026-.306 1.834-.916 2.425-.605.59-1.421.886-2.446.886a4.075 4.075 0 01-1.677-.366c-.547-.245-.965-.579-1.253-1.004l.703-.813c.581.718 1.292 1.077 2.132 1.077.659 0 1.171-.186 1.538-.557.371-.371.556-.893.556-1.567v-.681c-.542.625-1.281.937-2.219.937-.928 0-1.68-.373-2.256-1.12-.571-.748-.857-1.766-.857-3.055zm1.363.154c0 .894.183 1.597.549 2.11.366.507.879.761 1.538.761.854 0 1.482-.388 1.882-1.164v-3.618c-.415-.757-1.037-1.136-1.867-1.136-.66 0-1.175.257-1.546.769-.371.513-.556 1.272-.556 2.278zm8.73 5.852H473v-12.641h1.091v12.641zm9.009-5.852c0 1.206-.276 2.178-.828 2.915-.552.737-1.299 1.106-2.241 1.106-.962 0-1.719-.305-2.271-.915v3.816h-1.354v-10.972h1.237l.066.879c.552-.684 1.319-1.026 2.3-1.026.952 0 1.704.359 2.256 1.077.557.718.835 1.716.835 2.996v.124zm-1.355-.154c0-.893-.191-1.599-.571-2.116-.381-.518-.904-.777-1.568-.777-.82 0-1.435.364-1.846 1.092v3.786c.406.723 1.026 1.084 1.861 1.084.649 0 1.164-.256 1.545-.769.386-.517.579-1.284.579-2.3zm4.365-3.896l.044.996c.606-.762 1.397-1.143 2.373-1.143 1.675 0 2.52.945 2.534 2.835v5.237h-1.355v-5.244c-.005-.572-.136-.994-.395-1.268-.254-.273-.652-.41-1.194-.41-.44 0-.825.117-1.157.352a2.39 2.39 0 00-.777.923v5.647h-1.355v-7.925h1.282zm6.672 3.896c0-1.235.286-2.216.857-2.944.572-.732 1.329-1.099 2.271-1.099.967 0 1.721.342 2.263 1.026l.066-.879h1.238v7.734c0 1.026-.305 1.834-.916 2.425-.605.59-1.421.886-2.446.886-.571 0-1.13-.122-1.677-.366-.547-.245-.965-.579-1.253-1.004l.703-.813c.581.718 1.292 1.077 2.132 1.077.659 0 1.172-.186 1.538-.557.371-.371.557-.893.557-1.567v-.681c-.542.625-1.282.937-2.22.937-.927 0-1.679-.373-2.256-1.12-.571-.748-.857-1.766-.857-3.055zm1.363.154c0 .894.183 1.597.549 2.11.366.507.879.761 1.538.761.855 0 1.482-.388 1.883-1.164v-3.618c-.416-.757-1.038-1.136-1.868-1.136-.659 0-1.174.257-1.546.769-.371.513-.556 1.272-.556 2.278zm8.73 5.852h-1.091v-12.641h1.091v12.641zm9.024-5.852c0 1.211-.279 2.185-.835 2.923-.557.732-1.304 1.098-2.241 1.098-1.001 0-1.775-.354-2.322-1.062l-.066.916h-1.245v-11.25h1.355v4.196c.547-.678 1.301-1.018 2.263-1.018s1.716.364 2.263 1.092c.552.727.828 1.723.828 2.988v.117zm-1.355-.154c0-.923-.179-1.635-.535-2.138-.356-.503-.869-.755-1.538-.755-.894 0-1.536.415-1.926 1.245v3.428c.415.83 1.062 1.245 1.941 1.245.649 0 1.154-.251 1.516-.754.361-.503.542-1.26.542-2.271zm4.343-3.896l.037.879c.581-.684 1.364-1.026 2.351-1.026 1.108 0 1.862.425 2.263 1.275a3.008 3.008 0 011.025-.923c.425-.234.926-.352 1.502-.352 1.738 0 2.622.921 2.651 2.762v5.31h-1.355v-5.23c0-.566-.129-.989-.388-1.267-.259-.283-.693-.425-1.304-.425-.503 0-.92.152-1.252.454-.332.298-.525.701-.579 1.209v5.259h-1.362v-5.193c0-1.153-.564-1.729-1.692-1.729-.889 0-1.497.379-1.824 1.136v5.786h-1.355v-7.925h1.282zm18.574 4.05c0 1.206-.276 2.178-.827 2.915-.552.737-1.299 1.106-2.242 1.106-.962 0-1.718-.305-2.27-.915v3.816h-1.355v-10.972h1.238l.066.879c.551-.684 1.318-1.026 2.299-1.026.953 0 1.704.359 2.256 1.077.557.718.835 1.716.835 2.996v.124zm-1.355-.154c0-.893-.19-1.599-.571-2.116-.381-.518-.903-.777-1.567-.777-.821 0-1.436.364-1.846 1.092v3.786c.405.723 1.025 1.084 1.86 1.084.65 0 1.165-.256 1.546-.769.385-.517.578-1.284.578-2.3zm4.431 6.006h-1.091v-12.641h1.091v12.641zm1.993-6.006c0-1.235.285-2.216.856-2.944.572-.732 1.329-1.099 2.271-1.099.967 0 1.721.342 2.263 1.026l.066-.879h1.238v7.734c0 1.026-.305 1.834-.916 2.425-.605.59-1.421.886-2.446.886-.571 0-1.13-.122-1.677-.366-.547-.245-.965-.579-1.253-1.004l.703-.813c.582.718 1.292 1.077 2.132 1.077.659 0 1.172-.186 1.538-.557.371-.371.557-.893.557-1.567v-.681c-.542.625-1.282.937-2.22.937-.927 0-1.679-.373-2.256-1.12-.571-.748-.856-1.766-.856-3.055zm1.362.154c0 .894.183 1.597.549 2.11.366.507.879.761 1.538.761.855 0 1.482-.388 1.883-1.164v-3.618c-.415-.757-1.038-1.136-1.868-1.136-.659 0-1.174.257-1.546.769-.371.513-.556 1.272-.556 2.278zm8.855 3.875h-1.355v-7.925h1.355v7.925zm-1.465-10.027c0-.22.066-.405.198-.557.136-.151.337-.227.6-.227.264 0 .464.076.601.227a.8.8 0 01.205.557.77.77 0 01-.205.549c-.137.147-.337.22-.601.22-.263 0-.464-.073-.6-.22a.788.788 0 01-.198-.549zm4.307 10.027v-6.878h-1.253v-1.047h1.253v-.813c0-.85.227-1.506.681-1.97.454-.464 1.096-.696 1.926-.696.313 0 .623.041.93.124l-.073 1.099a3.892 3.892 0 00-.732-.066c-.44 0-.779.129-1.019.388-.239.254-.358.62-.358 1.099v.835h1.691v1.047h-1.691v6.878h-1.355zm5.896 1.977h-1.092v-12.641h1.092v12.641zm3.786-1.977h-1.355v-7.925h1.355v7.925zm-1.465-10.027c0-.22.066-.405.198-.557.137-.151.337-.227.601-.227.263 0 .464.076.6.227a.8.8 0 01.205.557.77.77 0 01-.205.549c-.136.147-.337.22-.6.22-.264 0-.464-.073-.601-.22a.788.788 0 01-.198-.549zm6.819 9.067a1.95 1.95 0 001.267-.439c.362-.293.562-.659.601-1.099h1.282a2.462 2.462 0 01-.469 1.296 3.075 3.075 0 01-1.157.982 3.312 3.312 0 01-1.524.366c-1.079 0-1.938-.359-2.578-1.077-.635-.722-.952-1.709-.952-2.959v-.227c0-.771.142-1.457.425-2.058.283-.6.688-1.067 1.216-1.399.532-.332 1.159-.498 1.882-.498.889 0 1.626.266 2.212.799.591.532.906 1.223.945 2.072h-1.282c-.039-.512-.234-.932-.586-1.259-.347-.332-.776-.498-1.289-.498-.689 0-1.223.249-1.604.747-.376.493-.564 1.208-.564 2.146v.256c0 .913.188 1.616.564 2.109.376.494.913.74 1.611.74zm4.314-3.076c0-.776.152-1.475.454-2.095.308-.62.733-1.098 1.275-1.435.547-.337 1.169-.506 1.867-.506 1.08 0 1.951.374 2.615 1.121.669.747 1.004 1.741 1.004 2.981v.095c0 .772-.149 1.465-.447 2.08a3.333 3.333 0 01-1.267 1.428c-.547.342-1.177.513-1.89.513-1.074 0-1.946-.373-2.615-1.12-.664-.748-.996-1.736-.996-2.967v-.095zm1.363.161c0 .879.202 1.585.607 2.117.411.532.957.798 1.641.798.689 0 1.235-.268 1.641-.805.405-.542.608-1.299.608-2.271 0-.869-.208-1.572-.623-2.109-.41-.542-.957-.813-1.641-.813-.669 0-1.208.266-1.618.798-.41.532-.615 1.294-.615 2.285zm8.898 5.852h-1.091v-12.641h1.091v12.641zm5.494-2.937c.483 0 .905-.146 1.267-.439.361-.293.561-.659.6-1.099h1.282a2.453 2.453 0 01-.469 1.296 3.075 3.075 0 01-1.157.982 3.305 3.305 0 01-1.523.366c-1.079 0-1.939-.359-2.579-1.077-.634-.722-.952-1.709-.952-2.959v-.227c0-.771.142-1.457.425-2.058.283-.6.689-1.067 1.216-1.399.532-.332 1.16-.498 1.882-.498.889 0 1.626.266 2.212.799.591.532.906 1.223.945 2.072h-1.282c-.039-.512-.234-.932-.586-1.259-.346-.332-.776-.498-1.289-.498-.688 0-1.223.249-1.604.747-.376.493-.564 1.208-.564 2.146v.256c0 .913.188 1.616.564 2.109.376.494.913.74 1.612.74zm9.287-1.142c0-.367-.139-.65-.418-.85-.273-.205-.754-.381-1.443-.527-.683-.147-1.228-.323-1.633-.528-.4-.205-.698-.449-.893-.732-.191-.283-.286-.62-.286-1.011 0-.649.273-1.199.82-1.648.552-.449 1.255-.674 2.11-.674.898 0 1.626.232 2.182.696.562.464.842 1.057.842 1.78H595.9c0-.371-.159-.691-.476-.96-.312-.268-.708-.402-1.186-.402-.494 0-.879.107-1.158.322a1.015 1.015 0 00-.417.842c0 .327.129.574.388.74.259.166.725.325 1.399.476.679.151 1.228.332 1.648.542.42.21.73.464.93.762.205.293.308.652.308 1.076 0 .708-.284 1.277-.85 1.707-.566.425-1.301.637-2.205.637-.634 0-1.196-.112-1.684-.337a2.774 2.774 0 01-1.15-.937 2.306 2.306 0 01-.41-1.311h1.355c.024.454.205.815.542 1.084.342.263.791.395 1.347.395.513 0 .923-.102 1.231-.307.312-.21.469-.489.469-.835zm7.734 0c0-.367-.139-.65-.417-.85-.274-.205-.755-.381-1.443-.527-.684-.147-1.228-.323-1.634-.528-.4-.205-.698-.449-.893-.732-.191-.283-.286-.62-.286-1.011 0-.649.274-1.199.821-1.648.551-.449 1.254-.674 2.109-.674.898 0 1.626.232 2.183.696.561.464.842 1.057.842 1.78h-1.362c0-.371-.159-.691-.477-.96-.312-.268-.708-.402-1.186-.402-.493 0-.879.107-1.157.322a1.014 1.014 0 00-.418.842c0 .327.13.574.388.74.259.166.725.325 1.399.476.679.151 1.228.332 1.648.542.42.21.73.464.93.762.206.293.308.652.308 1.076 0 .708-.283 1.277-.85 1.707-.566.425-1.301.637-2.204.637-.635 0-1.196-.112-1.685-.337a2.78 2.78 0 01-1.15-.937 2.306 2.306 0 01-.41-1.311h1.355c.025.454.205.815.542 1.084.342.263.791.395 1.348.395.513 0 .923-.102 1.23-.307.313-.21.469-.489.469-.835zm4.468 4.079h-1.091v-12.641h1.091v12.641zm3.713-9.902v8.84c0 1.524-.691 2.285-2.073 2.285-.297 0-.573-.044-.827-.131v-1.084c.156.039.361.058.615.058.303 0 .532-.083.689-.249.161-.161.241-.444.241-.85v-8.869h1.355zm-1.494-2.102a.81.81 0 01.198-.55c.137-.156.334-.234.593-.234.264 0 .464.076.601.227a.805.805 0 01.205.557c0 .22-.069.403-.205.549-.137.147-.337.22-.601.22-.264 0-.461-.073-.593-.22a.788.788 0 01-.198-.549zm8.298 7.925c0-.367-.139-.65-.417-.85-.273-.205-.754-.381-1.443-.527-.684-.147-1.228-.323-1.633-.528-.401-.205-.698-.449-.894-.732-.19-.283-.285-.62-.285-1.011 0-.649.273-1.199.82-1.648.552-.449 1.255-.674 2.109-.674.899 0 1.626.232 2.183.696.561.464.842 1.057.842 1.78h-1.362c0-.371-.159-.691-.476-.96-.313-.268-.708-.402-1.187-.402-.493 0-.879.107-1.157.322a1.015 1.015 0 00-.417.842c0 .327.129.574.388.74.259.166.725.325 1.399.476.678.151 1.228.332 1.648.542.42.21.73.464.93.762.205.293.307.652.307 1.076 0 .708-.283 1.277-.849 1.707-.567.425-1.301.637-2.205.637-.635 0-1.196-.112-1.684-.337a2.768 2.768 0 01-1.15-.937 2.298 2.298 0 01-.41-1.311h1.355c.024.454.205.815.542 1.084.341.263.791.395 1.347.395.513 0 .923-.102 1.231-.307.312-.21.468-.489.468-.835zm6.248-2.154c0 1.089-.144 2.134-.432 3.135a9.132 9.132 0 01-1.311 2.761c-.586.845-1.201 1.446-1.846 1.802l-.286-.828c.752-.576 1.355-1.469 1.81-2.68.459-1.216.693-2.564.703-4.043v-.235c0-1.025-.108-1.977-.323-2.856a9.538 9.538 0 00-.9-2.373c-.381-.698-.811-1.243-1.29-1.633l.286-.828c.645.356 1.257.952 1.839 1.787a9.202 9.202 0 011.311 2.761c.293 1.006.439 2.083.439 3.23zm7.332 1.509c0-.449-.159-.828-.477-1.135-.312-.308-.842-.586-1.589-.835-1.04-.318-1.799-.73-2.278-1.238-.473-.513-.71-1.162-.71-1.948 0-.801.232-1.458.696-1.97.468-.513 1.11-.818 1.926-.916v-1.604h1.091v1.611c.821.113 1.458.457 1.912 1.033.459.576.688 1.365.688 2.366h-1.347c0-.689-.164-1.236-.491-1.641-.327-.405-.769-.608-1.326-.608-.581 0-1.025.152-1.333.454-.307.298-.461.716-.461 1.253 0 .498.161.896.483 1.194.327.293.862.561 1.604.805.747.24 1.328.506 1.743.799.42.288.728.625.923 1.01.2.386.301.838.301 1.355 0 .826-.25 1.49-.748 1.993-.493.503-1.186.8-2.08.893v1.399h-1.084v-1.399c-.908-.083-1.621-.405-2.138-.967-.513-.566-.769-1.333-.769-2.299h1.355c0 .678.178 1.201.534 1.567.357.366.862.549 1.516.549.64 0 1.143-.154 1.509-.461.366-.308.55-.728.55-1.26z"/>
  </g>
  <g>
    <path fill="#F9F9F9" d="M87.17 211.473h583.278v40H87.17z"/>
    <path fill="#AAA" d="M218.516 230.752h2.974v1.282h-2.974v3.369h-1.362v-3.369h-2.973v-1.282h2.973v-3.112h1.362v3.112zm14.451 2.937h-4.468l-1.003 2.784h-1.45l4.072-10.664h1.23l4.08 10.664h-1.443l-1.018-2.784zm-4.043-1.157h3.626l-1.817-4.988-1.809 4.988zm9.009-3.984l.044.996c.605-.762 1.396-1.143 2.373-1.143 1.675 0 2.519.945 2.534 2.835v5.237h-1.355v-5.244c-.005-.572-.137-.994-.395-1.268-.254-.273-.652-.41-1.194-.41-.44 0-.825.117-1.157.352a2.39 2.39 0 00-.777.923v5.647h-1.355v-7.925h1.282zm6.665 3.896c0-1.215.288-2.192.864-2.929.576-.743 1.331-1.114 2.263-1.114.928 0 1.663.318 2.205.953v-4.131h1.355v11.25h-1.245l-.066-.85c-.542.664-1.296.996-2.263.996-.918 0-1.668-.376-2.249-1.128-.576-.752-.864-1.733-.864-2.944v-.103zm1.355.154c0 .899.186 1.602.557 2.11.371.507.883.761 1.538.761.859 0 1.487-.386 1.882-1.157v-3.64c-.405-.747-1.028-1.121-1.868-1.121-.664 0-1.181.257-1.552.769-.371.513-.557 1.272-.557 2.278zM515.722 230.752h2.974v1.282h-2.974v3.369h-1.362v-3.369h-2.974v-1.282h2.974v-3.112h1.362v3.112zm16.765.733c0 1.045-.176 1.958-.527 2.739-.352.776-.85 1.37-1.494 1.78-.645.41-1.397.615-2.256.615-.84 0-1.585-.205-2.234-.615-.649-.415-1.155-1.004-1.516-1.765-.357-.767-.54-1.653-.55-2.659v-.769c0-1.025.179-1.931.535-2.717.357-.786.86-1.387 1.509-1.802.654-.42 1.401-.63 2.241-.63.855 0 1.607.208 2.256.623.654.41 1.157 1.008 1.509 1.794.351.781.527 1.692.527 2.732v.674zm-1.399-.689c0-1.264-.254-2.234-.761-2.907-.508-.679-1.219-1.018-2.132-1.018-.889 0-1.589.339-2.102 1.018-.508.673-.769 1.611-.784 2.812v.784c0 1.225.257 2.19.769 2.893.518.698 1.228 1.047 2.132 1.047.908 0 1.611-.329 2.109-.988.498-.665.755-1.614.769-2.85v-.791zm7.127-1.032a3.977 3.977 0 00-.667-.052c-.888 0-1.492.379-1.809 1.136v5.625h-1.355v-7.925h1.318l.022.915c.445-.708 1.075-1.062 1.89-1.062.264 0 .464.035.601.103v1.26z"/>
    <path stroke="#DFDFDF" stroke-dasharray="3 3" d="M378.309 251.473v-40"/>
  </g>
</svg>
