<svg xmlns="http://www.w3.org/2000/svg" fill="none" viewBox="0 0 615 201">
  <path fill="#fff" d="M.17.06h614.21v200.001H.17v-200z"/>
  <g clip-path="url(#clip0_3_132)">
    <path fill="#F9F9F9" fill-rule="evenodd" d="M23.546 147.561a4 4 0 014-4h563.193a4 4 0 014 4v29.869a4 4 0 01-4 4H27.546a4 4 0 01-4-4v-29.869z" clip-rule="evenodd"/>
    <path fill="#646464" d="M282.543 162.532h3.171v1.367h-3.171v3.594h-1.454v-3.594h-3.171v-1.367h3.171v-3.32h1.454v3.32zm17.5 2.492c-.141 1.204-.586 2.133-1.336 2.789-.745.652-1.737.977-2.977.977-1.344 0-2.422-.482-3.234-1.445-.808-.964-1.211-2.253-1.211-3.867v-1.094c0-1.058.187-1.987.562-2.789.38-.802.917-1.417 1.61-1.844.692-.432 1.494-.648 2.406-.648 1.208 0 2.177.338 2.906 1.015.729.672 1.154 1.604 1.274 2.797h-1.508c-.13-.906-.414-1.562-.852-1.969-.432-.406-1.039-.609-1.82-.609-.958 0-1.711.354-2.258 1.062-.542.709-.812 1.717-.812 3.024v1.101c0 1.235.257 2.217.773 2.946.516.729 1.237 1.093 2.164 1.093.833 0 1.471-.187 1.914-.562.448-.38.745-1.039.891-1.977h1.508zm5.914-3.546a4.276 4.276 0 00-.711-.055c-.948 0-1.591.403-1.93 1.211v6h-1.445v-8.453h1.406l.023.976c.474-.755 1.146-1.133 2.016-1.133.281 0 .495.037.641.11v1.344zm2.906 7.156h-1.445v-8.453h1.445v8.453zm-1.563-10.696c0-.234.071-.432.211-.593.146-.162.36-.242.641-.242s.495.08.641.242a.855.855 0 01.218.593c0 .235-.073.43-.218.586-.146.157-.36.235-.641.235s-.495-.078-.641-.235a.845.845 0 01-.211-.586zm5.844.196v2.047h1.578v1.117h-1.578v5.242c0 .339.07.594.211.766.141.166.38.25.719.25.166 0 .396-.032.687-.094v1.172c-.38.104-.75.156-1.109.156-.646 0-1.133-.195-1.461-.586-.328-.391-.492-.945-.492-1.664v-5.242h-1.539v-1.117h1.539v-2.047h1.445zm6.781 10.656c-1.145 0-2.078-.375-2.796-1.125-.719-.755-1.079-1.763-1.079-3.023v-.266c0-.839.159-1.586.477-2.242.323-.662.771-1.177 1.344-1.547a3.38 3.38 0 011.875-.563c1.099 0 1.953.362 2.562 1.086.61.724.914 1.761.914 3.11v.601h-5.726c.021.834.263 1.508.726 2.024.469.51 1.063.765 1.782.765.51 0 .942-.104 1.296-.312a3.26 3.26 0 00.93-.828l.883.687c-.708 1.089-1.771 1.633-3.188 1.633zm-.179-7.578a1.92 1.92 0 00-1.469.641c-.396.421-.641 1.015-.734 1.781h4.234v-.11c-.042-.734-.24-1.302-.594-1.703-.354-.406-.833-.609-1.437-.609zm9.242.266a4.276 4.276 0 00-.711-.055c-.948 0-1.591.403-1.93 1.211v6h-1.445v-8.453h1.406l.024.976c.474-.755 1.145-1.133 2.015-1.133.282 0 .495.037.641.11v1.344zm2.906 7.156h-1.445v-8.453h1.445v8.453zm-1.562-10.696c0-.234.07-.432.211-.593.145-.162.359-.242.64-.242s.495.08.641.242a.851.851 0 01.219.593c0 .235-.073.43-.219.586-.146.157-.36.235-.641.235s-.495-.078-.64-.235a.84.84 0 01-.211-.586zm9.101 10.696c-.083-.167-.151-.464-.203-.891-.672.698-1.474 1.047-2.406 1.047-.834 0-1.518-.234-2.055-.703-.531-.474-.797-1.073-.797-1.797 0-.88.334-1.562 1-2.047.672-.489 1.615-.734 2.828-.734h1.407v-.664c0-.505-.151-.907-.453-1.203-.303-.302-.748-.454-1.336-.454-.516 0-.948.131-1.297.391-.349.261-.524.576-.524.945h-1.453c0-.421.149-.828.445-1.218a3.095 3.095 0 011.219-.938 4.133 4.133 0 011.696-.344c.973 0 1.736.245 2.289.735.552.484.838 1.153.859 2.008v3.89c0 .776.099 1.393.297 1.852v.125h-1.516zm-2.398-1.102c.453 0 .883-.117 1.289-.351.406-.235.7-.539.883-.914v-1.735h-1.133c-1.771 0-2.656.518-2.656 1.555 0 .453.151.807.453 1.062.302.256.69.383 1.164.383z"/>
  </g>
  <path fill="#F3652B" d="M24.847 36.193V23.396h4.385c1.448 0 2.55.29 3.305.87.756.58 1.134 1.444 1.134 2.593 0 .586-.158 1.113-.475 1.582-.316.469-.779.832-1.388 1.09.691.187 1.224.542 1.6 1.063.38.516.57 1.137.57 1.864 0 1.2-.386 2.123-1.16 2.768-.767.645-1.869.967-3.304.967h-4.667zm2.223-5.774v3.998h2.47c.697 0 1.242-.172 1.635-.518.392-.346.589-.826.589-1.441 0-1.33-.68-2.01-2.04-2.04H27.07zm0-1.635h2.18c.691 0 1.23-.156 1.617-.466.393-.317.59-.762.59-1.336 0-.633-.183-1.09-.546-1.371-.357-.281-.917-.422-1.679-.422H27.07v3.595zm13.114 7.585c-1.354 0-2.453-.425-3.296-1.275-.838-.855-1.257-1.992-1.257-3.41v-.264c0-.949.181-1.796.545-2.54.369-.75.884-1.333 1.547-1.749a4.078 4.078 0 012.215-.624c1.294 0 2.293.413 2.997 1.24.709.826 1.063 1.995 1.063 3.506v.862h-6.214c.065.785.325 1.406.782 1.863.463.457 1.043.686 1.74.686.98 0 1.776-.396 2.391-1.187l1.152 1.099a3.87 3.87 0 01-1.53 1.327c-.633.31-1.344.466-2.135.466zm-.255-8.148c-.586 0-1.06.205-1.424.615-.358.41-.586.982-.686 1.714h4.07v-.158c-.047-.715-.238-1.254-.572-1.617-.334-.37-.797-.554-1.388-.554zm7.84-.5c.697-.81 1.579-1.214 2.645-1.214 2.027 0 3.056 1.158 3.085 3.472v6.214h-2.136v-6.135c0-.656-.143-1.119-.43-1.389-.282-.275-.698-.413-1.248-.413-.856 0-1.495.381-1.916 1.143v6.794h-2.136v-13.5h2.136v5.027zm13.579 8.472c-.094-.182-.176-.478-.246-.888a3.325 3.325 0 01-2.496 1.064c-.956 0-1.735-.273-2.338-.818-.604-.545-.906-1.218-.906-2.021 0-1.014.375-1.79 1.125-2.33.756-.544 1.834-.817 3.235-.817h1.31v-.624c0-.492-.138-.884-.414-1.178-.275-.298-.694-.448-1.257-.448-.486 0-.884.123-1.195.37-.31.24-.466.547-.466.922h-2.136c0-.521.173-1.008.519-1.459.346-.457.815-.814 1.406-1.072.598-.258 1.263-.387 1.995-.387 1.114 0 2.001.282 2.663.844.663.557 1.002 1.342 1.02 2.355v4.29c0 .855.12 1.538.36 2.047v.15h-2.18zM59 34.655c.422 0 .817-.103 1.187-.308.374-.205.656-.48.843-.826v-1.793H59.88c-.791 0-1.386.138-1.784.413-.399.276-.598.665-.598 1.17 0 .41.135.737.404.983.276.24.642.36 1.099.36zm9.615-1.17l2.013-6.802h2.206l-3.296 9.51h-1.854l-3.323-9.51h2.215l2.04 6.803zm7.831 2.708h-2.136v-9.51h2.136v9.51zm-2.267-11.98c0-.328.102-.6.307-.817.211-.217.51-.325.897-.325.386 0 .685.108.896.325.211.217.317.49.317.817 0 .323-.106.592-.317.809-.21.21-.51.316-.896.316-.387 0-.686-.105-.897-.316a1.131 1.131 0 01-.307-.809zm4.2 7.137c0-.931.185-1.77.555-2.514.369-.75.887-1.324 1.555-1.722.668-.405 1.436-.607 2.303-.607 1.283 0 2.323.413 3.12 1.24.803.826 1.236 1.922 1.3 3.287l.01.5c0 .938-.182 1.776-.545 2.514a3.96 3.96 0 01-1.547 1.714c-.668.404-1.442.607-2.32.607-1.342 0-2.417-.446-3.226-1.336-.803-.897-1.204-2.09-1.204-3.577v-.106zm2.137.185c0 .978.202 1.746.606 2.302.404.551.967.827 1.688.827.72 0 1.28-.282 1.678-.844.405-.563.607-1.386.607-2.47 0-.96-.208-1.723-.624-2.285-.41-.563-.97-.844-1.679-.844-.697 0-1.251.279-1.661.835-.41.55-.615 1.377-.615 2.479zm13.49-2.9a5.282 5.282 0 00-.87-.071c-.978 0-1.637.375-1.977 1.125v6.504h-2.136v-9.51h2.04l.052 1.064c.516-.827 1.23-1.24 2.145-1.24.304 0 .556.041.756.123l-.01 2.004zm6.681 4.974c0-.381-.159-.671-.475-.87-.31-.2-.83-.375-1.556-.528-.726-.152-1.333-.345-1.82-.58-1.066-.515-1.599-1.262-1.599-2.24 0-.821.346-1.507 1.037-2.057.692-.551 1.57-.827 2.637-.827 1.137 0 2.054.282 2.751.844.703.563 1.055 1.292 1.055 2.189h-2.136c0-.41-.152-.75-.457-1.02-.305-.275-.709-.413-1.213-.413-.469 0-.852.108-1.151.325-.293.217-.44.507-.44.87 0 .328.138.583.413.765.276.181.832.366 1.67.554.838.181 1.494.401 1.969.659.481.252.835.556 1.064.914.234.357.351.79.351 1.3 0 .856-.354 1.55-1.063 2.084-.709.527-1.638.79-2.786.79-.78 0-1.474-.14-2.083-.421-.61-.282-1.084-.668-1.424-1.16a2.746 2.746 0 01-.51-1.591h2.074c.03.504.22.893.571 1.169.352.27.818.404 1.398.404.562 0 .99-.105 1.283-.316.293-.217.44-.498.44-.844z"/>
  <path fill="#646464" d="M30.811 60.727c-.105.903-.439 1.6-1.001 2.092-.559.489-1.303.733-2.233.733-1.008 0-1.816-.362-2.426-1.084-.605-.723-.908-1.69-.908-2.9v-.82c0-.794.14-1.491.422-2.093.285-.601.688-1.062 1.207-1.383.52-.324 1.121-.486 1.805-.486.906 0 1.633.254 2.18.762.546.504.865 1.203.954 2.097h-1.13c-.098-.68-.31-1.171-.639-1.476-.324-.305-.78-.457-1.365-.457-.719 0-1.283.265-1.694.797-.406.531-.609 1.287-.609 2.267v.826c0 .926.193 1.663.58 2.21.387.546.928.82 1.623.82.625 0 1.104-.14 1.436-.422.336-.285.558-.78.668-1.483h1.13zm2.456-2.865c.48-.59 1.105-.885 1.875-.885 1.34 0 2.015.756 2.027 2.268v4.19h-1.084v-4.196c-.004-.457-.11-.795-.316-1.013-.204-.22-.522-.328-.956-.328-.351 0-.66.093-.925.28a1.91 1.91 0 00-.621.739v4.518h-1.084v-9h1.084v3.427zm5.238 2.344c0-.621.121-1.18.363-1.676a2.759 2.759 0 011.02-1.148 2.79 2.79 0 011.494-.404c.863 0 1.56.298 2.092.896.535.598.802 1.393.802 2.385v.076c0 .617-.119 1.172-.357 1.664-.234.488-.572.87-1.014 1.143-.437.273-.941.41-1.511.41-.86 0-1.557-.3-2.092-.897-.532-.597-.797-1.388-.797-2.373v-.076zm1.09.129c0 .703.162 1.267.486 1.693.328.426.766.639 1.313.639.55 0 .988-.215 1.312-.645.324-.433.486-1.039.486-1.816 0-.695-.166-1.258-.498-1.687a1.564 1.564 0 00-1.312-.65c-.535 0-.967.212-1.295.638-.328.426-.492 1.035-.492 1.828zm5.754-.129c0-.621.12-1.18.363-1.676a2.76 2.76 0 011.02-1.148 2.79 2.79 0 011.494-.404c.863 0 1.56.298 2.091.896.535.598.803 1.393.803 2.385v.076c0 .617-.119 1.172-.357 1.664a2.67 2.67 0 01-1.014 1.143c-.438.273-.941.41-1.512.41-.86 0-1.556-.3-2.092-.897-.53-.597-.796-1.388-.796-2.373v-.076zm1.09.129c0 .703.162 1.267.486 1.693.328.426.765.639 1.312.639.551 0 .989-.215 1.313-.645.324-.433.486-1.039.486-1.816 0-.695-.166-1.258-.498-1.687a1.564 1.564 0 00-1.312-.65c-.536 0-.967.212-1.295.638-.328.426-.492 1.035-.492 1.828zm9.732 1.418c0-.293-.111-.52-.334-.68-.219-.164-.604-.304-1.154-.422-.547-.117-.983-.257-1.307-.422-.32-.164-.559-.359-.715-.585a1.415 1.415 0 01-.228-.809c0-.52.218-.959.656-1.318.441-.36 1.004-.54 1.687-.54.72 0 1.301.186 1.746.557.45.371.674.846.674 1.424h-1.09c0-.297-.127-.553-.38-.768-.25-.214-.567-.322-.95-.322-.394 0-.703.086-.925.258a.811.811 0 00-.334.674c0 .262.103.459.31.592.207.132.58.26 1.12.38.542.122.982.266 1.318.434.336.168.584.371.744.61.164.234.246.52.246.86a1.63 1.63 0 01-.68 1.366c-.453.34-1.04.51-1.764.51-.507 0-.956-.09-1.347-.27-.39-.18-.697-.43-.92-.75a1.84 1.84 0 01-.328-1.049H53.3c.02.364.164.653.433.868.274.21.633.316 1.079.316.41 0 .738-.082.984-.246.25-.168.375-.39.375-.668zm5.127 1.799c-.86 0-1.559-.282-2.098-.844-.539-.566-.808-1.322-.808-2.268v-.199c0-.629.119-1.19.357-1.681a2.815 2.815 0 011.008-1.16 2.536 2.536 0 011.406-.422c.824 0 1.465.271 1.922.814.457.543.685 1.32.685 2.332v.451h-4.294c.015.625.197 1.131.544 1.518.352.383.797.574 1.336.574.383 0 .707-.078.973-.234.266-.157.498-.364.697-.621l.662.515c-.53.817-1.328 1.225-2.39 1.225zm-.135-5.684c-.437 0-.805.16-1.101.48-.297.317-.48.762-.551 1.337h3.175v-.083c-.03-.55-.18-.976-.445-1.277-.265-.305-.625-.457-1.078-.457zm8.315-2.308v1.535h1.183v.838h-1.183v3.931c0 .254.052.446.158.575.105.124.285.187.539.187.125 0 .297-.023.515-.07v.879a3.143 3.143 0 01-.832.117c-.484 0-.85-.147-1.095-.44-.246-.293-.37-.709-.37-1.248v-3.931H67.24v-.838h1.155V55.56h1.084zm3.539 2.302c.48-.59 1.105-.885 1.875-.885 1.34 0 2.015.756 2.027 2.268v4.19h-1.084v-4.196c-.004-.457-.11-.795-.316-1.013-.204-.22-.522-.328-.956-.328-.351 0-.66.093-.925.28a1.91 1.91 0 00-.621.739v4.518h-1.084v-9h1.084v3.427zm8.156 5.69c-.86 0-1.559-.282-2.098-.844-.539-.566-.808-1.322-.808-2.268v-.199c0-.629.119-1.19.357-1.681a2.815 2.815 0 011.008-1.16 2.536 2.536 0 011.406-.422c.824 0 1.465.271 1.922.814.457.543.686 1.32.686 2.332v.451H79.35c.015.625.197 1.131.544 1.518.352.383.797.574 1.336.574.383 0 .708-.078.973-.234.266-.157.498-.364.697-.621l.663.515c-.532.817-1.329 1.225-2.391 1.225zm-.135-5.684c-.437 0-.805.16-1.102.48-.296.317-.48.762-.55 1.337h3.175v-.083c-.03-.55-.18-.976-.445-1.277-.265-.305-.625-.457-1.078-.457zm10.758 5.567c-.063-.125-.113-.348-.152-.668-.504.523-1.106.785-1.805.785-.625 0-1.139-.176-1.541-.528a1.728 1.728 0 01-.598-1.347c0-.66.25-1.172.75-1.535.504-.368 1.211-.551 2.121-.551h1.055v-.498c0-.38-.113-.68-.34-.903-.226-.226-.56-.34-1.002-.34-.387 0-.71.098-.973.294-.261.195-.392.431-.392.709h-1.09c0-.317.111-.622.334-.915.227-.296.531-.53.914-.703.387-.172.81-.258 1.272-.258.73 0 1.302.184 1.716.551.415.364.63.866.645 1.506v2.918c0 .582.074 1.045.223 1.389v.094h-1.137zm-1.799-.827c.34 0 .662-.087.967-.263.305-.176.525-.405.662-.686v-1.3h-.85c-1.328 0-1.992.388-1.992 1.165 0 .34.113.606.34.797.227.192.518.287.873.287zm6.955.059c.387 0 .725-.117 1.014-.352.289-.234.449-.527.48-.878h1.026c-.02.363-.145.709-.375 1.037-.23.328-.54.59-.926.785-.383.195-.79.293-1.219.293-.863 0-1.55-.287-2.062-.862-.508-.578-.762-1.367-.762-2.367v-.181c0-.618.113-1.166.34-1.647.226-.48.55-.853.972-1.119.426-.266.928-.398 1.506-.398.711 0 1.301.212 1.77.638.473.426.724.979.756 1.658h-1.026a1.477 1.477 0 00-.468-1.007 1.433 1.433 0 00-1.032-.399c-.55 0-.978.2-1.283.598-.3.394-.451.967-.451 1.717v.205c0 .73.15 1.293.451 1.687.3.395.73.592 1.29.592zm5.209-7.107v1.535h1.184v.838h-1.184v3.931c0 .254.053.446.158.575.106.124.285.187.539.187.125 0 .297-.023.516-.07v.879a3.14 3.14 0 01-.832.117c-.484 0-.85-.147-1.096-.44-.246-.293-.369-.709-.369-1.248v-3.931h-1.154v-.838h1.154V55.56h1.084zm3.633 7.875h-1.084v-6.34h1.084v6.34zm-1.172-8.022c0-.176.053-.324.158-.445.11-.121.27-.182.481-.182.211 0 .371.06.48.182.11.12.164.27.164.445a.616.616 0 01-.164.44c-.109.117-.269.175-.48.175-.211 0-.371-.058-.481-.175a.634.634 0 01-.158-.44zm2.625 4.793c0-.621.121-1.18.363-1.676a2.756 2.756 0 011.02-1.148c.437-.27.935-.404 1.494-.404.863 0 1.561.298 2.092.896.535.598.803 1.393.803 2.385v.076c0 .617-.12 1.172-.358 1.664-.234.488-.572.87-1.014 1.143-.437.273-.941.41-1.511.41-.86 0-1.557-.3-2.092-.897-.531-.597-.797-1.388-.797-2.373v-.076zm1.09.129c0 .703.162 1.267.486 1.693.328.426.766.639 1.313.639.551 0 .988-.215 1.312-.645.324-.433.487-1.039.487-1.816 0-.695-.166-1.258-.498-1.687a1.566 1.566 0 00-1.313-.65c-.535 0-.967.212-1.295.638-.328.426-.492 1.035-.492 1.828zm7.066-3.24l.035.797c.485-.61 1.118-.915 1.899-.915 1.34 0 2.016.756 2.027 2.268v4.19h-1.084v-4.196c-.004-.457-.109-.795-.316-1.013-.203-.22-.522-.328-.955-.328-.352 0-.66.093-.926.28a1.903 1.903 0 00-.621.739v4.518h-1.084v-6.34h1.025zm9.287 4.658c0-.293-.111-.52-.334-.68-.218-.164-.603-.304-1.154-.422-.547-.117-.982-.257-1.306-.422-.321-.164-.559-.359-.715-.585a1.41 1.41 0 01-.229-.809c0-.52.219-.959.656-1.318.442-.36 1.004-.54 1.688-.54.719 0 1.301.186 1.746.557.449.371.674.846.674 1.424h-1.09c0-.297-.127-.553-.381-.768-.25-.214-.566-.322-.949-.322-.395 0-.703.086-.926.258a.81.81 0 00-.334.674c0 .262.104.459.311.592.207.132.58.26 1.119.38.543.122.982.266 1.318.434.336.168.584.371.744.61.164.234.246.52.246.86a1.63 1.63 0 01-.679 1.366c-.453.34-1.041.51-1.764.51-.508 0-.957-.09-1.348-.27-.39-.18-.697-.43-.92-.75a1.845 1.845 0 01-.328-1.049h1.084c.02.364.164.653.434.868.273.21.633.316 1.078.316.41 0 .738-.082.984-.246.25-.168.375-.39.375-.668zm7.547.094l1.477-4.752h1.16l-2.549 7.318c-.394 1.055-1.021 1.582-1.881 1.582l-.205-.017-.404-.077v-.879l.293.024c.367 0 .652-.074.855-.223.207-.148.377-.42.51-.814l.24-.645-2.261-6.27h1.183l1.582 4.753zm3.229-1.64c0-.622.121-1.18.363-1.677a2.756 2.756 0 011.02-1.148c.437-.27.935-.404 1.494-.404.863 0 1.56.298 2.092.896.535.598.802 1.393.802 2.385v.076c0 .617-.119 1.172-.357 1.664-.234.488-.572.87-1.014 1.143-.437.273-.941.41-1.512.41-.859 0-1.556-.3-2.091-.897-.532-.597-.797-1.388-.797-2.373v-.076zm1.09.128c0 .703.162 1.267.486 1.693.328.426.766.639 1.312.639.551 0 .989-.215 1.313-.645.324-.433.486-1.039.486-1.816 0-.695-.166-1.258-.498-1.687a1.563 1.563 0 00-1.312-.65c-.535 0-.967.212-1.295.638-.328.426-.492 1.035-.492 1.828zm9.955 2.473c-.422.496-1.041.744-1.858.744-.675 0-1.191-.196-1.547-.586-.351-.395-.529-.977-.533-1.746v-4.125h1.084v4.095c0 .961.391 1.442 1.172 1.442.828 0 1.379-.309 1.652-.926v-4.611h1.084v6.34h-1.031l-.023-.627zm11.297-.868l1.218-4.845h1.084l-1.845 6.34h-.879l-1.541-4.805-1.5 4.805h-.879l-1.84-6.34h1.078l1.248 4.746 1.477-4.746h.873l1.506 4.845zm7.324 1.495c-.063-.125-.113-.348-.153-.668-.503.523-1.105.785-1.804.785-.625 0-1.139-.176-1.541-.528a1.727 1.727 0 01-.598-1.347c0-.66.25-1.172.75-1.535.504-.368 1.211-.551 2.121-.551h1.055v-.498c0-.38-.113-.68-.34-.903-.226-.226-.56-.34-1.002-.34-.387 0-.711.098-.973.294-.261.195-.392.431-.392.709h-1.09c0-.317.111-.622.334-.915.227-.296.531-.53.914-.703a3.098 3.098 0 011.272-.258c.73 0 1.302.184 1.716.551.414.364.629.866.645 1.506v2.918c0 .582.074 1.045.223 1.389v.094h-1.137zm-1.799-.827c.34 0 .662-.087.967-.263a1.6 1.6 0 00.662-.686v-1.3h-.85c-1.328 0-1.992.388-1.992 1.165 0 .34.113.606.34.797.227.192.518.287.873.287zm5.438-5.513l.035.797c.484-.61 1.117-.915 1.898-.915 1.34 0 2.016.756 2.027 2.268v4.19h-1.084v-4.196c-.003-.457-.109-.795-.316-1.013-.203-.22-.521-.328-.955-.328-.352 0-.66.093-.926.28a1.92 1.92 0 00-.621.739v4.518h-1.084v-6.34h1.026zm7.066-1.535v1.535h1.184v.838h-1.184v3.931c0 .254.053.446.158.575.106.124.285.187.539.187.125 0 .297-.023.516-.07v.879a3.146 3.146 0 01-.832.117c-.485 0-.85-.147-1.096-.44-.246-.293-.369-.709-.369-1.248v-3.931h-1.154v-.838h1.154V55.56h1.084zm6.902 0v1.535h1.184v.838h-1.184v3.931c0 .254.053.446.158.575.106.124.286.187.54.187.125 0 .296-.023.515-.07v.879a3.14 3.14 0 01-.832.117c-.484 0-.849-.147-1.096-.44-.246-.293-.369-.709-.369-1.248v-3.931h-1.154v-.838h1.154V55.56h1.084zm2.051 4.646c0-.621.121-1.18.363-1.676a2.756 2.756 0 011.02-1.148c.437-.27.935-.404 1.494-.404.863 0 1.561.298 2.092.896.535.598.803 1.393.803 2.385v.076c0 .617-.12 1.172-.358 1.664-.234.488-.572.87-1.014 1.143-.437.273-.941.41-1.511.41-.86 0-1.557-.3-2.092-.897-.531-.597-.797-1.388-.797-2.373v-.076zm1.09.129c0 .703.162 1.267.486 1.693.328.426.766.639 1.313.639.55 0 .988-.215 1.312-.645.324-.433.487-1.039.487-1.816 0-.695-.166-1.258-.499-1.687a1.563 1.563 0 00-1.312-.65c-.535 0-.967.212-1.295.638-.328.426-.492 1.035-.492 1.828zm14.373 0c0 .965-.221 1.742-.662 2.332-.442.59-1.039.885-1.793.885-.77 0-1.375-.244-1.817-.733v3.053h-1.084v-8.777h.991l.052.703c.442-.547 1.055-.82 1.84-.82.762 0 1.364.287 1.805.86.445.575.668 1.374.668 2.397v.1zm-1.084-.123c0-.715-.152-1.28-.457-1.693-.305-.414-.723-.621-1.254-.621-.656 0-1.148.29-1.477.872v3.03c.325.578.821.867 1.489.867.519 0 .931-.205 1.236-.615.309-.414.463-1.028.463-1.84zm5.098 3.34c-.86 0-1.559-.282-2.098-.844-.539-.566-.809-1.322-.809-2.268v-.199c0-.629.119-1.19.358-1.681a2.812 2.812 0 011.008-1.16 2.533 2.533 0 011.406-.422c.824 0 1.465.271 1.922.814.457.543.685 1.32.685 2.332v.451h-4.295c.016.625.198 1.131.545 1.518.352.383.797.574 1.336.574.383 0 .707-.078.973-.234.265-.157.498-.364.697-.621l.662.515c-.531.817-1.328 1.225-2.39 1.225zm-.135-5.684c-.438 0-.805.16-1.102.48-.297.317-.48.762-.551 1.337h3.176v-.083c-.031-.55-.179-.976-.445-1.277-.266-.305-.625-.457-1.078-.457zm6.931.2a3.234 3.234 0 00-.533-.042c-.711 0-1.193.303-1.447.909v4.5h-1.084v-6.34h1.055l.017.732c.356-.566.86-.85 1.512-.85.211 0 .371.028.48.083v1.007zm1.629 5.367v-5.502h-1.002v-.838h1.002v-.65c0-.68.182-1.206.545-1.577.364-.37.877-.556 1.541-.556.25 0 .498.033.744.1l-.058.878a3.122 3.122 0 00-.586-.053c-.352 0-.623.104-.815.31-.191.204-.287.497-.287.88v.668h1.354v.838h-1.354v5.502h-1.084zm3.352-3.229c0-.621.121-1.18.363-1.676a2.756 2.756 0 011.02-1.148c.437-.27.935-.404 1.494-.404.863 0 1.56.298 2.092.896.535.598.802 1.393.802 2.385v.076c0 .617-.119 1.172-.357 1.664-.234.488-.572.87-1.014 1.143-.437.273-.941.41-1.511.41-.86 0-1.557-.3-2.092-.897-.531-.597-.797-1.388-.797-2.373v-.076zm1.09.129c0 .703.162 1.267.486 1.693.328.426.766.639 1.313.639.55 0 .988-.215 1.312-.645.324-.433.486-1.039.486-1.816 0-.695-.166-1.258-.498-1.687a1.563 1.563 0 00-1.312-.65c-.535 0-.967.212-1.295.638-.328.426-.492 1.035-.492 1.828zm9.105-2.268a3.243 3.243 0 00-.533-.04c-.711 0-1.193.302-1.447.908v4.5h-1.084v-6.34h1.054l.018.732c.356-.566.859-.85 1.512-.85.211 0 .371.028.48.083v1.007zm2.022-.972l.029.703c.465-.547 1.092-.82 1.881-.82.887 0 1.49.34 1.81 1.02.211-.306.485-.552.821-.74.34-.187.74-.28 1.201-.28 1.391 0 2.098.736 2.121 2.209v4.248h-1.084V59.25c0-.453-.103-.791-.311-1.014-.207-.226-.554-.34-1.042-.34-.403 0-.737.122-1.002.364-.266.238-.42.56-.463.966v4.208h-1.09V59.28c0-.922-.451-1.383-1.354-1.383-.711 0-1.197.303-1.459.909v4.629h-1.084v-6.34h1.026zm13.658 6.34h-1.084v-6.34h1.084v6.34zm-1.172-8.022c0-.176.053-.324.158-.445.11-.121.27-.182.481-.182.211 0 .371.06.48.182.11.12.164.27.164.445a.616.616 0 01-.164.44c-.109.117-.269.175-.48.175-.211 0-.371-.058-.481-.175a.634.634 0 01-.158-.44zm3.445 8.022v-5.502h-1.002v-.838h1.002v-.65c0-.68.182-1.206.545-1.577.364-.37.877-.556 1.541-.556.25 0 .498.033.744.1l-.058.878a3.122 3.122 0 00-.586-.053c-.352 0-.623.104-.815.31-.191.204-.287.497-.287.88v.668h1.354v.838h-1.354v5.502h-1.084zm8.086-7.875v1.535h1.184v.838h-1.184v3.931c0 .254.053.446.159.575.105.124.285.187.539.187.125 0 .296-.023.515-.07v.879a3.14 3.14 0 01-.832.117c-.484 0-.849-.147-1.096-.44-.246-.293-.369-.709-.369-1.248v-3.931h-1.154v-.838h1.154V55.56h1.084zm3.539 2.302c.481-.59 1.106-.885 1.875-.885 1.34 0 2.016.756 2.028 2.268v4.19h-1.084v-4.196c-.004-.457-.11-.795-.317-1.013-.203-.22-.521-.328-.955-.328-.351 0-.66.093-.926.28a1.92 1.92 0 00-.621.739v4.518h-1.084v-9h1.084v3.427zm8.157 5.69c-.86 0-1.559-.282-2.098-.844-.539-.566-.809-1.322-.809-2.268v-.199c0-.629.12-1.19.358-1.681a2.812 2.812 0 011.008-1.16 2.533 2.533 0 011.406-.422c.824 0 1.465.271 1.922.814.457.543.685 1.32.685 2.332v.451h-4.295c.016.625.198 1.131.545 1.518.352.383.797.574 1.336.574.383 0 .707-.078.973-.234.266-.157.498-.364.697-.621l.662.515c-.531.817-1.328 1.225-2.39 1.225zm-.135-5.684c-.438 0-.805.16-1.102.48-.297.317-.48.762-.55 1.337h3.175v-.083c-.031-.55-.179-.976-.445-1.277-.266-.305-.625-.457-1.078-.457zm9.908.2a3.243 3.243 0 00-.533-.042c-.711 0-1.193.303-1.447.909v4.5h-1.084v-6.34h1.054l.018.732c.355-.566.859-.85 1.512-.85.211 0 .371.028.48.083v1.007zm3.516 5.484c-.86 0-1.559-.282-2.098-.844-.539-.566-.809-1.322-.809-2.268v-.199c0-.629.12-1.19.358-1.681a2.812 2.812 0 011.008-1.16 2.533 2.533 0 011.406-.422c.824 0 1.465.271 1.922.814.457.543.685 1.32.685 2.332v.451h-4.295c.016.625.198 1.131.545 1.518.352.383.797.574 1.336.574.383 0 .707-.078.973-.234.266-.157.498-.364.697-.621l.662.515c-.531.817-1.328 1.225-2.39 1.225zm-.135-5.684c-.438 0-.805.16-1.102.48-.297.317-.48.762-.55 1.337h3.175v-.083c-.031-.55-.179-.976-.445-1.277-.266-.305-.625-.457-1.078-.457zm3.603 2.344c0-.996.229-1.783.686-2.361.457-.582 1.07-.873 1.84-.873.75 0 1.342.252 1.775.755l.047-.638h.996v8.777h-1.084V62.85c-.437.468-1.019.703-1.746.703-.766 0-1.377-.297-1.834-.89-.453-.599-.68-1.39-.68-2.374v-.076zm1.084.123c0 .727.153 1.297.457 1.71.309.415.723.622 1.243.622.644 0 1.136-.285 1.476-.855v-3.106c-.344-.559-.832-.838-1.465-.838-.523 0-.939.21-1.248.627-.308.414-.463 1.028-.463 1.84zm9.914 2.473c-.421.496-1.041.744-1.857.744-.676 0-1.191-.196-1.547-.586-.351-.395-.529-.977-.533-1.746v-4.125h1.084v4.095c0 .961.391 1.442 1.172 1.442.828 0 1.379-.309 1.652-.926v-4.611h1.084v6.34h-1.031l-.024-.627zm5.338.744c-.859 0-1.558-.282-2.097-.844-.539-.566-.809-1.322-.809-2.268v-.199c0-.629.119-1.19.358-1.681a2.817 2.817 0 011.007-1.16 2.539 2.539 0 011.407-.422c.824 0 1.464.271 1.921.814.458.543.686 1.32.686 2.332v.451h-4.295c.016.625.197 1.131.545 1.518.352.383.797.574 1.336.574.383 0 .707-.078.973-.234.265-.157.498-.364.697-.621l.662.515c-.531.817-1.328 1.225-2.391 1.225zm-.134-5.684c-.438 0-.805.16-1.102.48-.297.317-.48.762-.551 1.337h3.176v-.083c-.031-.55-.18-.976-.445-1.277-.266-.305-.625-.457-1.078-.457zm7.558 3.885c0-.293-.111-.52-.334-.68-.219-.164-.603-.304-1.154-.422-.547-.117-.982-.257-1.307-.422-.32-.164-.558-.359-.715-.585a1.417 1.417 0 01-.228-.809c0-.52.219-.959.656-1.318.442-.36 1.004-.54 1.688-.54.718 0 1.3.186 1.746.557.449.371.674.846.674 1.424h-1.09c0-.297-.127-.553-.381-.768-.25-.214-.567-.322-.949-.322-.395 0-.703.086-.926.258a.81.81 0 00-.334.674c0 .262.103.459.31.592.207.132.581.26 1.12.38.543.122.982.266 1.318.434.336.168.584.371.744.61.164.234.246.52.246.86a1.63 1.63 0 01-.679 1.366c-.454.34-1.042.51-1.764.51-.508 0-.957-.09-1.348-.27-.39-.18-.697-.43-.92-.75a1.845 1.845 0 01-.328-1.049h1.084c.02.364.164.653.434.868.273.21.633.316 1.078.316.41 0 .738-.082.984-.246.25-.168.375-.39.375-.668zm3.967-6.193v1.535h1.184v.838h-1.184v3.931c0 .254.053.446.158.575.106.124.285.187.539.187.125 0 .297-.023.516-.07v.879a3.146 3.146 0 01-.832.117c-.485 0-.85-.147-1.096-.44-.246-.293-.369-.709-.369-1.248v-3.931h-1.154v-.838h1.154V55.56h1.084zm6.451 1.535l.029.703c.465-.547 1.092-.82 1.881-.82.887 0 1.491.34 1.811 1.02.211-.306.484-.552.82-.74.34-.187.74-.28 1.201-.28 1.391 0 2.098.736 2.121 2.209v4.248h-1.084V59.25c0-.453-.103-.791-.31-1.014-.207-.226-.555-.34-1.043-.34-.402 0-.736.122-1.002.364-.266.238-.42.56-.463.966v4.208h-1.09V59.28c0-.922-.451-1.383-1.353-1.383-.711 0-1.198.303-1.459.909v4.629h-1.084v-6.34h1.025zm12.135 6.457c-.859 0-1.559-.282-2.098-.844-.539-.566-.808-1.322-.808-2.268v-.199c0-.629.119-1.19.357-1.681a2.812 2.812 0 011.008-1.16 2.536 2.536 0 011.406-.422c.824 0 1.465.271 1.922.814.457.543.686 1.32.686 2.332v.451h-4.295c.015.625.197 1.131.545 1.518.351.383.796.574 1.336.574.382 0 .707-.078.972-.234.266-.157.498-.364.697-.621l.663.515c-.532.817-1.329 1.225-2.391 1.225zm-.135-5.684c-.437 0-.805.16-1.101.48-.297.317-.481.762-.551 1.337h3.176v-.083c-.032-.55-.18-.976-.446-1.277-.265-.305-.625-.457-1.078-.457zm6.498 5.684c-.859 0-1.558-.282-2.097-.844-.539-.566-.809-1.322-.809-2.268v-.199c0-.629.119-1.19.357-1.681a2.826 2.826 0 011.008-1.16 2.538 2.538 0 011.406-.422c.825 0 1.465.271 1.922.814.457.543.686 1.32.686 2.332v.451h-4.295c.016.625.197 1.131.545 1.518.351.383.797.574 1.336.574.383 0 .707-.078.972-.234.266-.157.499-.364.698-.621l.662.515c-.531.817-1.328 1.225-2.391 1.225zm-.135-5.684c-.437 0-.804.16-1.101.48-.297.317-.481.762-.551 1.337h3.176v-.083c-.031-.55-.18-.976-.445-1.277-.266-.305-.625-.457-1.079-.457zm5.338-2.308v1.535h1.184v.838h-1.184v3.931c0 .254.053.446.159.575.105.124.285.187.539.187.125 0 .296-.023.515-.07v.879a3.14 3.14 0 01-.832.117c-.484 0-.849-.147-1.095-.44-.247-.293-.37-.709-.37-1.248v-3.931h-1.154v-.838h1.154V55.56h1.084zm6.147 6.193c0-.293-.111-.52-.334-.68-.219-.164-.604-.304-1.154-.422-.547-.117-.983-.257-1.307-.422-.32-.164-.559-.359-.715-.585a1.417 1.417 0 01-.228-.809c0-.52.218-.959.656-1.318.441-.36 1.004-.54 1.687-.54.719 0 1.301.186 1.746.557.45.371.674.846.674 1.424h-1.09c0-.297-.127-.553-.38-.768-.25-.214-.567-.322-.95-.322-.394 0-.703.086-.925.258a.81.81 0 00-.334.674c0 .262.103.459.31.592.207.132.58.26 1.119.38.543.122.983.266 1.319.434.336.168.584.371.744.61.164.234.246.52.246.86a1.63 1.63 0 01-.68 1.366c-.453.34-1.041.51-1.764.51-.507 0-.957-.09-1.347-.27a2.222 2.222 0 01-.92-.75 1.837 1.837 0 01-.328-1.049h1.084c.019.364.164.653.433.868.274.21.633.316 1.078.316.411 0 .739-.082.985-.246.25-.168.375-.39.375-.668zm7.547.094l1.476-4.752h1.16l-2.548 7.318c-.395 1.055-1.022 1.582-1.881 1.582l-.205-.017-.405-.077v-.879l.293.024c.368 0 .653-.074.856-.223.207-.148.377-.42.51-.814l.24-.645-2.262-6.27h1.184l1.582 4.753zm3.228-1.64c0-.622.121-1.18.364-1.677a2.754 2.754 0 011.019-1.148c.438-.27.936-.404 1.494-.404.863 0 1.561.298 2.092.896.535.598.803 1.393.803 2.385v.076c0 .617-.119 1.172-.358 1.664-.234.488-.572.87-1.013 1.143-.438.273-.942.41-1.512.41-.859 0-1.557-.3-2.092-.897-.531-.597-.797-1.388-.797-2.373v-.076zm1.09.128c0 .703.162 1.267.486 1.693.329.426.766.639 1.313.639.551 0 .988-.215 1.312-.645.325-.433.487-1.039.487-1.816 0-.695-.166-1.258-.498-1.687a1.564 1.564 0 00-1.313-.65c-.535 0-.967.212-1.295.638-.328.426-.492 1.035-.492 1.828zm9.955 2.473c-.422.496-1.041.744-1.857.744-.676 0-1.192-.196-1.547-.586-.352-.395-.529-.977-.533-1.746v-4.125h1.084v4.095c0 .961.39 1.442 1.172 1.442.828 0 1.378-.309 1.652-.926v-4.611h1.084v6.34h-1.031l-.024-.627zm5.772-4.74a3.246 3.246 0 00-.534-.042c-.711 0-1.193.303-1.447.909v4.5h-1.084v-6.34h1.055l.017.732c.356-.566.86-.85 1.512-.85.211 0 .371.028.481.083v1.007zm6.521 4.599c.387 0 .725-.117 1.014-.352.289-.234.449-.527.48-.878h1.026c-.02.363-.145.709-.375 1.037-.231.328-.539.59-.926.785a2.646 2.646 0 01-1.219.293c-.863 0-1.551-.287-2.062-.862-.508-.578-.762-1.367-.762-2.367v-.181c0-.618.113-1.166.34-1.647.226-.48.551-.853.972-1.119.426-.266.928-.398 1.506-.398.711 0 1.301.212 1.77.638.472.426.724.979.756 1.658h-1.026a1.477 1.477 0 00-.468-1.007 1.436 1.436 0 00-1.032-.399c-.551 0-.978.2-1.283.598-.301.394-.451.967-.451 1.717v.205c0 .73.15 1.293.451 1.687.301.395.731.592 1.289.592zm6.803-4.6a3.243 3.243 0 00-.533-.04c-.711 0-1.194.302-1.448.908v4.5h-1.084v-6.34h1.055l.018.732c.355-.566.859-.85 1.511-.85.211 0 .371.028.481.083v1.007zm2.18 5.368h-1.084v-6.34h1.084v6.34zm-1.172-8.022c0-.176.052-.324.158-.445.109-.121.269-.182.48-.182.211 0 .371.06.481.182.109.12.164.27.164.445a.62.62 0 01-.164.44c-.11.117-.27.175-.481.175-.211 0-.371-.058-.48-.175a.63.63 0 01-.158-.44zm4.382.147v1.535h1.184v.838h-1.184v3.931c0 .254.053.446.159.575.105.124.285.187.539.187.125 0 .297-.023.515-.07v.879a3.14 3.14 0 01-.832.117c-.484 0-.849-.147-1.095-.44-.246-.293-.37-.709-.37-1.248v-3.931h-1.154v-.838h1.154V55.56h1.084zm5.086 7.992c-.859 0-1.558-.282-2.097-.844-.539-.566-.809-1.322-.809-2.268v-.199c0-.629.119-1.19.358-1.681a2.817 2.817 0 011.007-1.16 2.539 2.539 0 011.407-.422c.824 0 1.464.271 1.922.814.457.543.685 1.32.685 2.332v.451h-4.295c.016.625.197 1.131.545 1.518.352.383.797.574 1.336.574.383 0 .707-.078.973-.234.265-.157.498-.364.697-.621l.662.515c-.531.817-1.328 1.225-2.391 1.225zm-.134-5.684c-.438 0-.805.16-1.102.48-.297.317-.48.762-.551 1.337h3.176v-.083c-.031-.55-.18-.976-.445-1.277-.266-.305-.625-.457-1.078-.457zm6.931.2a3.243 3.243 0 00-.533-.042c-.711 0-1.193.303-1.447.909v4.5h-1.084v-6.34h1.055l.017.732c.356-.566.859-.85 1.512-.85.211 0 .371.028.48.083v1.007zm2.18 5.367h-1.084v-6.34h1.084v6.34zm-1.172-8.022c0-.176.053-.324.158-.445.11-.121.27-.182.481-.182.211 0 .371.06.48.182.11.12.164.27.164.445a.616.616 0 01-.164.44c-.109.117-.269.175-.48.175-.211 0-.371-.058-.481-.175a.634.634 0 01-.158-.44zm6.826 8.022c-.062-.125-.113-.348-.152-.668-.504.523-1.106.785-1.805.785-.625 0-1.138-.176-1.541-.528a1.729 1.729 0 01-.597-1.347c0-.66.25-1.172.75-1.535.503-.368 1.211-.551 2.121-.551h1.054v-.498c0-.38-.113-.68-.339-.903-.227-.226-.561-.34-1.002-.34-.387 0-.711.098-.973.294-.262.195-.393.431-.393.709h-1.09c0-.317.112-.622.334-.915a2.32 2.32 0 01.915-.703 3.09 3.09 0 011.271-.258c.73 0 1.303.184 1.717.551.414.364.629.866.644 1.506v2.918c0 .582.075 1.045.223 1.389v.094h-1.137zm-1.799-.827c.34 0 .663-.087.967-.263.305-.176.526-.405.662-.686v-1.3h-.849c-1.328 0-1.992.388-1.992 1.165 0 .34.113.606.339.797.227.192.518.287.873.287zm4.436.258c0-.187.055-.343.164-.468.113-.126.281-.188.504-.188.223 0 .391.063.504.188a.66.66 0 01.176.468c0 .18-.059.33-.176.451-.113.121-.281.182-.504.182-.223 0-.391-.06-.504-.182a.65.65 0 01-.164-.45z"/>
  <rect width="191.714" height="37.869" x="88.612" y="86.41" fill="#F9F9F9" rx="5"/>
  <path fill="#AAA" d="M261.15 103.41h6.924c.479 0 .718.51.379.809l-3.46 3.052a.592.592 0 01-.762 0l-3.46-3.052c-.339-.299-.099-.809.379-.809z"/>
  <path fill="#646464" d="M102.992 105.657c-1.206-.347-2.085-.772-2.637-1.275a2.457 2.457 0 01-.82-1.875c0-.84.335-1.533 1.003-2.08.674-.552 1.548-.827 2.623-.827.732 0 1.384.141 1.955.424.576.284 1.021.674 1.333 1.172.317.498.476 1.043.476 1.634h-1.413c0-.645-.205-1.15-.616-1.517-.41-.371-.988-.556-1.735-.556-.694 0-1.236.154-1.626.461-.386.303-.579.725-.579 1.267 0 .435.183.804.549 1.106.371.298.999.572 1.883.821.888.249 1.582.525 2.08.827.503.298.874.647 1.113 1.048.244.4.366.871.366 1.413 0 .864-.337 1.558-1.011 2.08-.673.518-1.574.777-2.702.777-.733 0-1.416-.14-2.051-.418-.635-.283-1.126-.669-1.472-1.157a2.83 2.83 0 01-.513-1.663h1.414c0 .645.237 1.155.71 1.531.479.371 1.116.557 1.912.557.742 0 1.311-.152 1.706-.454.396-.303.594-.716.594-1.238 0-.523-.184-.925-.55-1.209-.366-.288-1.03-.571-1.992-.849zm8.84 4.9c-1.074 0-1.948-.352-2.622-1.055-.674-.708-1.01-1.653-1.01-2.835v-.249c0-.786.149-1.486.446-2.102a3.523 3.523 0 011.26-1.45 3.174 3.174 0 011.758-.527c1.03 0 1.831.339 2.402 1.018.572.679.857 1.65.857 2.915v.564h-5.368c.019.781.246 1.414.681 1.897.439.478.996.718 1.67.718.478 0 .883-.098 1.215-.293.332-.196.623-.454.872-.777l.828.645c-.664 1.02-1.66 1.531-2.989 1.531zm-.168-7.105a1.8 1.8 0 00-1.377.601c-.371.395-.601.952-.688 1.67h3.969v-.103c-.039-.688-.224-1.221-.556-1.597-.332-.38-.782-.571-1.348-.571zm6.672-2.886v1.919h1.48v1.048h-1.48v4.914c0 .318.066.557.198.718.132.156.357.234.674.234.156 0 .371-.029.644-.087v1.098a3.912 3.912 0 01-1.04.147c-.605 0-1.062-.183-1.369-.55-.308-.366-.462-.886-.462-1.56v-4.914h-1.443v-1.048h1.443v-1.919h1.355zm9.302 6.482l.205 1.407.3-1.267 2.11-7.442h1.186l2.058 7.442.293 1.289.227-1.436 1.656-7.295h1.413l-2.585 10.664h-1.282l-2.197-7.771-.169-.813-.168.813-2.278 7.771h-1.282l-2.578-10.664h1.406l1.685 7.302zm16.582.579h-4.468l-1.003 2.783h-1.45l4.072-10.664h1.23l4.08 10.664h-1.443l-1.018-2.783zm-4.043-1.157h3.626l-1.817-4.988-1.809 4.988zm13.821-.769h-4.475v4.709h-1.406V99.746h6.606v1.157h-5.2v3.648h4.475v1.15zm10.041.395h-2.504v4.314h-1.414V99.746h3.53c1.201 0 2.124.274 2.769.82.649.547.974 1.343.974 2.388 0 .664-.181 1.243-.542 1.736-.357.493-.855.862-1.494 1.106l2.505 4.526v.088h-1.509l-2.315-4.314zm-2.504-1.15h2.16c.698 0 1.253-.18 1.663-.542.415-.361.622-.844.622-1.45 0-.659-.197-1.164-.593-1.516-.391-.352-.957-.53-1.699-.535h-2.153v4.043zm12.517 4.68c-.528.621-1.302.931-2.322.931-.845 0-1.489-.245-1.934-.733-.439-.493-.661-1.22-.666-2.182v-5.157h1.355v5.12c0 1.201.488 1.802 1.465 1.802 1.035 0 1.723-.386 2.065-1.157v-5.765h1.355v7.925h-1.289l-.029-.784zm4.856.784h-1.355V99.16h1.355v11.25zm5.463.147c-1.074 0-1.948-.352-2.622-1.055-.673-.708-1.01-1.653-1.01-2.835v-.249c0-.786.149-1.486.446-2.102a3.523 3.523 0 011.26-1.45 3.174 3.174 0 011.758-.527c1.03 0 1.831.339 2.402 1.018.572.679.857 1.65.857 2.915v.564h-5.368c.019.781.246 1.414.681 1.897.439.478.996.718 1.67.718.478 0 .883-.098 1.216-.293.332-.196.622-.454.871-.777l.828.645c-.664 1.02-1.66 1.531-2.989 1.531zm-.168-7.105a1.8 1.8 0 00-1.377.601c-.371.395-.601.952-.688 1.67h3.969v-.103c-.039-.688-.224-1.221-.556-1.597-.332-.38-.782-.571-1.348-.571zm11.909 2.205c-1.206-.347-2.085-.772-2.637-1.275a2.458 2.458 0 01-.82-1.875c0-.84.335-1.533 1.004-2.08.673-.552 1.547-.827 2.622-.827.732 0 1.384.141 1.955.424.576.284 1.021.674 1.333 1.172.318.498.476 1.043.476 1.634h-1.413c0-.645-.205-1.15-.616-1.517-.41-.371-.988-.556-1.735-.556-.694 0-1.236.154-1.626.461-.386.303-.579.725-.579 1.267 0 .435.183.804.549 1.106.371.298.999.572 1.883.821.888.249 1.582.525 2.08.827.503.298.874.647 1.113 1.048.244.4.366.871.366 1.413 0 .864-.337 1.558-1.01 2.08-.674.518-1.575.777-2.703.777-.733 0-1.416-.14-2.051-.418-.635-.283-1.125-.669-1.472-1.157a2.829 2.829 0 01-.513-1.663h1.414c0 .645.237 1.155.71 1.531.479.371 1.116.557 1.912.557.742 0 1.311-.152 1.706-.454.396-.303.594-.716.594-1.238 0-.523-.183-.925-.55-1.209-.366-.288-1.03-.571-1.992-.849zm8.841 4.9c-1.075 0-1.949-.352-2.623-1.055-.673-.708-1.01-1.653-1.01-2.835v-.249c0-.786.149-1.486.446-2.102a3.523 3.523 0 011.26-1.45 3.174 3.174 0 011.758-.527c1.03 0 1.831.339 2.402 1.018.572.679.857 1.65.857 2.915v.564h-5.368c.019.781.246 1.414.681 1.897.439.478.996.718 1.67.718.478 0 .884-.098 1.216-.293.332-.196.622-.454.871-.777l.828.645c-.664 1.02-1.66 1.531-2.988 1.531zm-.169-7.105a1.8 1.8 0 00-1.377.601c-.371.395-.6.952-.688 1.67h3.969v-.103c-.039-.688-.224-1.221-.556-1.597-.332-.38-.782-.571-1.348-.571zm6.672-2.886v1.919h1.48v1.048h-1.48v4.914c0 .318.066.557.198.718.132.156.357.234.674.234.156 0 .371-.029.645-.087v1.098a3.925 3.925 0 01-1.041.147c-.605 0-1.062-.183-1.369-.55-.308-.366-.462-.886-.462-1.56v-4.914h-1.442v-1.048h1.442v-1.919h1.355z"/>
  <g>
    <path fill="#F9F9F9" d="M298.916 86.41h291.543v37.869H298.916z"/>
    <path fill="#AAA" d="M570.195 103.451h7.209c.499 0 .748.483.395.766l-3.603 2.89a.665.665 0 01-.793 0l-3.603-2.89c-.353-.283-.103-.766.395-.766z"/>
    <path fill="#646464" d="M312.866 107.462l.205 1.407.301-1.267 2.109-7.442h1.186l2.059 7.442.293 1.289.227-1.436 1.655-7.295h1.413l-2.585 10.664h-1.282l-2.197-7.771-.168-.813-.169.813-2.278 7.771h-1.281l-2.579-10.664h1.407l1.684 7.302zm16.582.579h-4.468l-1.003 2.783h-1.45l4.072-10.664h1.231l4.079 10.664h-1.443l-1.018-2.783zm-4.043-1.157h3.626l-1.817-4.988-1.809 4.988zm13.821-.769h-4.475v4.709h-1.406V100.16h6.606v1.157h-5.2v3.648h4.475v1.15zm10.042.395h-2.505v4.314h-1.414V100.16h3.53c1.202 0 2.124.274 2.769.82.649.547.974 1.343.974 2.388 0 .664-.181 1.243-.542 1.736-.356.493-.854.862-1.494 1.106l2.505 4.526v.088h-1.509l-2.314-4.314zm-2.505-1.15h2.16c.699 0 1.253-.18 1.663-.542.415-.361.622-.844.622-1.45 0-.659-.197-1.164-.593-1.516-.39-.352-.957-.53-1.699-.535h-2.153v4.043zm12.517 4.681c-.528.62-1.301.93-2.322.93-.845 0-1.489-.244-1.934-.733-.439-.493-.661-1.22-.666-2.182v-5.157h1.355v5.12c0 1.201.488 1.802 1.465 1.802 1.035 0 1.723-.386 2.065-1.157v-5.765h1.355v7.925h-1.289l-.029-.783zm4.856.783h-1.355v-11.25h1.355v11.25zm5.464.147c-1.075 0-1.949-.352-2.622-1.055-.674-.708-1.011-1.653-1.011-2.834v-.249c0-.787.149-1.487.447-2.103a3.514 3.514 0 011.259-1.45 3.174 3.174 0 011.758-.527c1.03 0 1.831.339 2.402 1.018.572.679.857 1.65.857 2.915v.564h-5.368c.019.781.246 1.414.681 1.897.439.478.996.718 1.67.718.478 0 .884-.098 1.216-.293.332-.196.622-.454.871-.777l.828.645c-.664 1.02-1.66 1.531-2.988 1.531zm-.169-7.105a1.8 1.8 0 00-1.377.601c-.371.395-.6.952-.688 1.67h3.969v-.103c-.039-.688-.224-1.221-.556-1.596-.332-.381-.781-.572-1.348-.572zm9.448 4.856c0-.366-.139-.649-.417-.849-.274-.206-.754-.381-1.443-.528-.684-.146-1.228-.322-1.633-.527-.401-.205-.698-.449-.894-.733-.19-.283-.285-.62-.285-1.01 0-.65.273-1.199.82-1.648.552-.449 1.255-.674 2.109-.674.899 0 1.626.232 2.183.696.561.464.842 1.057.842 1.78h-1.362c0-.372-.159-.691-.476-.96-.313-.269-.708-.403-1.187-.403-.493 0-.879.108-1.157.322a1.016 1.016 0 00-.417.843c0 .327.129.573.388.74.258.166.725.324 1.399.476.678.151 1.228.332 1.648.542.42.21.73.463.93.761.205.293.307.652.307 1.077 0 .708-.283 1.277-.849 1.706-.567.425-1.302.638-2.205.638-.635 0-1.196-.113-1.684-.337a2.77 2.77 0 01-1.15-.938 2.294 2.294 0 01-.41-1.311h1.355c.024.454.205.816.542 1.084.341.264.791.396 1.347.396.513 0 .923-.103 1.231-.308.312-.21.468-.488.468-.835zm7.508 2.102v-6.877h-1.253v-1.048h1.253v-.813c0-.849.227-1.506.681-1.97.454-.464 1.096-.696 1.926-.696.313 0 .623.042.93.125l-.073 1.099a3.885 3.885 0 00-.732-.066c-.44 0-.779.129-1.018.388-.24.254-.359.62-.359 1.098v.835h1.692v1.048h-1.692v6.877h-1.355zm4.189-4.035c0-.777.152-1.475.454-2.095.308-.62.733-1.099 1.275-1.436.547-.337 1.169-.505 1.867-.505 1.079 0 1.951.373 2.615 1.121.669.747 1.004 1.74 1.004 2.98v.096c0 .771-.149 1.465-.447 2.08a3.345 3.345 0 01-1.267 1.428c-.547.342-1.177.513-1.89.513-1.074 0-1.946-.374-2.615-1.121-.664-.747-.996-1.736-.996-2.966v-.095zm1.362.161c0 .879.203 1.584.608 2.116.411.533.957.799 1.641.799.688 0 1.235-.269 1.641-.806.405-.542.608-1.299.608-2.27 0-.87-.208-1.573-.623-2.11-.41-.542-.957-.813-1.641-.813-.669 0-1.208.266-1.618.799-.41.532-.616 1.293-.616 2.285zm11.382-2.835a4.077 4.077 0 00-.666-.051c-.889 0-1.492.378-1.809 1.135v5.625h-1.355v-7.925h1.318l.022.916c.444-.708 1.074-1.062 1.89-1.062.263 0 .464.034.6.102v1.26zm7.002-3.955l3.487 8.701 3.486-8.701h1.824v10.664h-1.407v-4.153l.132-4.482-3.501 8.635h-1.076l-3.494-8.613.139 4.46v4.153h-1.406V100.16h1.816zm13.66 8.679l1.846-5.94h1.45l-3.186 9.148c-.493 1.319-1.277 1.978-2.351 1.978l-.257-.022-.505-.095v-1.099l.366.029c.459 0 .816-.092 1.07-.278.258-.185.471-.525.637-1.018l.3-.806-2.827-7.837h1.479l1.978 5.94zm14.333-.798h-4.467l-1.004 2.783h-1.45l4.072-10.664h1.231l4.079 10.664h-1.443l-1.018-2.783zm-4.043-1.157h3.626l-1.816-4.988-1.81 4.988zm14.422.066c0 1.206-.276 2.177-.828 2.915-.552.737-1.299 1.106-2.241 1.106-.962 0-1.719-.305-2.271-.916v3.816H442v-10.972h1.237l.066.879c.552-.683 1.319-1.025 2.3-1.025.952 0 1.704.359 2.256 1.077.557.717.835 1.716.835 2.995v.125zm-1.355-.154c0-.894-.191-1.599-.571-2.117-.381-.517-.904-.776-1.568-.776-.82 0-1.435.364-1.846 1.091v3.787c.406.722 1.026 1.084 1.861 1.084.649 0 1.164-.257 1.545-.769.386-.518.579-1.284.579-2.3zm9.778.154c0 1.206-.276 2.177-.828 2.915-.552.737-1.299 1.106-2.241 1.106-.962 0-1.719-.305-2.271-.916v3.816h-1.355v-10.972h1.238l.066.879c.552-.683 1.318-1.025 2.3-1.025.952 0 1.704.359 2.256 1.077.556.717.835 1.716.835 2.995v.125zm-1.355-.154c0-.894-.191-1.599-.572-2.117-.38-.517-.903-.776-1.567-.776-.82 0-1.435.364-1.846 1.091v3.787c.406.722 1.026 1.084 1.861 1.084.649 0 1.164-.257 1.545-.769.386-.518.579-1.284.579-2.3zm4.555 4.028h-1.355v-11.25h1.355v11.25zm3.648 0h-1.355v-7.925h1.355v7.925zm-1.465-10.027c0-.219.066-.405.198-.556.136-.152.337-.227.6-.227.264 0 .464.075.601.227a.798.798 0 01.205.556c0 .22-.068.403-.205.55-.137.146-.337.219-.601.219-.263 0-.464-.073-.6-.219a.792.792 0 01-.198-.55zm6.819 9.068c.483 0 .906-.147 1.267-.44.361-.293.561-.659.601-1.098h1.281c-.024.454-.18.886-.468 1.296-.289.41-.674.737-1.158.981a3.294 3.294 0 01-1.523.367c-1.079 0-1.939-.359-2.578-1.077-.635-.723-.952-1.709-.952-2.959v-.227c0-.771.141-1.458.424-2.058a3.249 3.249 0 011.216-1.399c.532-.332 1.16-.498 1.883-.498.888 0 1.626.266 2.211.798.591.532.906 1.223.945 2.073h-1.281c-.04-.513-.235-.933-.586-1.26-.347-.332-.777-.498-1.289-.498-.689 0-1.224.249-1.604.747-.376.493-.564 1.209-.564 2.146v.257c0 .913.188 1.616.564 2.109.375.493.913.74 1.611.74zm9.565.959c-.078-.156-.141-.434-.19-.835-.63.655-1.382.982-2.256.982-.781 0-1.423-.22-1.926-.659-.498-.445-.747-1.006-.747-1.685 0-.825.312-1.465.937-1.919.63-.459 1.514-.688 2.652-.688h1.318v-.623c0-.474-.142-.85-.425-1.128-.283-.283-.701-.425-1.252-.425-.484 0-.889.122-1.216.366-.327.245-.491.54-.491.887h-1.362c0-.396.139-.777.417-1.143a2.893 2.893 0 011.143-.879 3.864 3.864 0 011.589-.322c.913 0 1.629.229 2.146.688.518.455.786 1.082.806 1.883v3.647c0 .728.093 1.306.278 1.736v.117h-1.421zm-2.248-1.032c.425 0 .827-.11 1.208-.33.381-.22.657-.505.828-.857v-1.626h-1.062c-1.66 0-2.49.486-2.49 1.458 0 .424.141.756.424.996.284.239.647.359 1.092.359zm7.353-8.812v1.919h1.48v1.048h-1.48v4.914c0 .318.066.557.198.718.132.156.356.234.674.234.156 0 .371-.029.644-.087v1.098a3.912 3.912 0 01-1.04.147c-.605 0-1.062-.183-1.369-.55-.308-.366-.462-.886-.462-1.56v-4.914h-1.443v-1.048h1.443v-1.919h1.355zm4.541 9.844h-1.355v-7.925h1.355v7.925zm-1.465-10.027c0-.219.066-.405.198-.556.137-.152.337-.227.601-.227.263 0 .464.075.6.227a.798.798 0 01.205.556c0 .22-.068.403-.205.55-.136.146-.337.219-.6.219-.264 0-.464-.073-.601-.219a.792.792 0 01-.198-.55zm3.282 5.992c0-.777.151-1.475.454-2.095.307-.62.732-1.099 1.274-1.436.547-.337 1.17-.505 1.868-.505 1.079 0 1.951.373 2.615 1.121.669.747 1.003 1.74 1.003 2.98v.096c0 .771-.149 1.465-.447 2.08a3.338 3.338 0 01-1.267 1.428c-.547.342-1.177.513-1.889.513-1.075 0-1.946-.374-2.615-1.121-.664-.747-.996-1.736-.996-2.966v-.095zm1.362.161c0 .879.203 1.584.608 2.116.41.533.957.799 1.641.799.688 0 1.235-.269 1.64-.806.405-.542.608-1.299.608-2.27 0-.87-.207-1.573-.623-2.11-.41-.542-.957-.813-1.64-.813-.669 0-1.209.266-1.619.799-.41.532-.615 1.293-.615 2.285zm8.833-4.051l.044.997c.605-.762 1.396-1.143 2.373-1.143 1.675 0 2.52.945 2.534 2.834v5.237h-1.355v-5.244c-.005-.571-.137-.994-.395-1.267-.254-.273-.652-.41-1.194-.41-.44 0-.825.117-1.157.351a2.397 2.397 0 00-.777.923v5.647h-1.355v-7.925h1.282z"/>
  </g>
  <g>
    <path fill="#646464" d="M32.152 101.317h-3.428v9.507h-1.399v-9.507h-3.42v-1.157h8.247v1.157zm2.724 2.542c.601-.737 1.382-1.106 2.344-1.106 1.675 0 2.52.945 2.534 2.834v5.237H38.4v-5.244c-.005-.571-.136-.994-.395-1.267-.254-.273-.652-.41-1.194-.41-.44 0-.825.117-1.157.351-.332.235-.591.542-.776.923v5.647h-1.355v-11.25h1.355v4.285zm10.196 7.112c-1.074 0-1.949-.352-2.622-1.055-.674-.708-1.011-1.653-1.011-2.834v-.249c0-.787.149-1.487.447-2.103a3.52 3.52 0 011.26-1.45 3.173 3.173 0 011.757-.527c1.03 0 1.831.339 2.403 1.018.571.679.857 1.65.857 2.915v.564h-5.37c.02.781.248 1.414.682 1.897.44.478.996.718 1.67.718.478 0 .884-.098 1.216-.293.332-.196.622-.454.871-.777l.828.645c-.664 1.02-1.66 1.531-2.988 1.531zm-.169-7.105a1.8 1.8 0 00-1.377.601c-.37.395-.6.952-.688 1.67h3.97v-.103c-.04-.688-.225-1.221-.557-1.596-.332-.381-.781-.572-1.348-.572zm6.116-.967l.044.997c.605-.762 1.396-1.143 2.373-1.143 1.675 0 2.52.945 2.534 2.834v5.237h-1.355v-5.244c-.005-.571-.137-.994-.395-1.267-.254-.273-.652-.41-1.194-.41-.44 0-.825.117-1.157.351a2.39 2.39 0 00-.777.923v5.647h-1.355v-7.925h1.282zm6.95 7.215c0-.235.07-.43.206-.586.141-.156.351-.235.63-.235.278 0 .488.079.63.235.146.156.22.351.22.586a.781.781 0 01-.22.564c-.142.151-.352.227-.63.227-.279 0-.489-.076-.63-.227a.812.812 0 01-.205-.564zm.008-6.468c0-.234.068-.429.205-.585.142-.157.352-.235.63-.235s.488.078.63.235c.146.156.22.351.22.585a.778.778 0 01-.22.564c-.142.152-.352.228-.63.228s-.488-.076-.63-.228a.809.809 0 01-.205-.564z"/>
    <path fill="#F3652B" d="M66.759 103.625l-2.212-.66.337-1.106 2.212.821-.066-2.52h1.12l-.073 2.556 2.175-.805.337 1.113-2.248.666 1.45 1.985-.908.689-1.362-2.11-1.319 2.058-.915-.666 1.472-2.021z"/>
  </g>
  <defs>
    <clipPath id="clip0_3_132">
      <path fill="#fff" d="M0 0h571.655v37.869H0z" transform="translate(23.546 142.267)"/>
    </clipPath>
  </defs>
</svg>
