<svg xmlns="http://www.w3.org/2000/svg" fill="none" viewBox="0 0 194 80">
  <path fill="#fff" d="M0 1.615C0 .723.723 0 1.615 0h190.439c.892 0 1.615.723 1.615 1.615v75.93c0 .892-.723 1.615-1.615 1.615H1.615A1.615 1.615 0 010 77.545V1.615z"/>
  <g clip-path="url(#clip0_0_121)">
    <path fill="#F9F9F9" fill-rule="evenodd" d="M6.59 60.372c0-.892.723-1.615 1.615-1.615H185.08c.892 0 1.615.723 1.615 1.615V72.13c0 .893-.723 1.616-1.615 1.616H8.205A1.615 1.615 0 016.59 72.13V60.371z" clip-rule="evenodd"/>
    <path fill="#646464" d="M85.865 65.372h1.28v.552h-1.28v1.451h-.587v-1.45h-1.281v-.553h1.28v-1.34h.588v1.34zm7.066 1.006c-.057.486-.236.862-.54 1.127-.3.263-.7.394-1.201.394-.543 0-.978-.195-1.306-.584-.326-.389-.49-.91-.49-1.561v-.442c0-.427.076-.802.228-1.126.153-.324.37-.572.65-.745.28-.174.603-.262.971-.262.488 0 .88.137 1.174.41.294.272.466.648.514 1.13h-.609c-.052-.366-.167-.631-.344-.795-.174-.164-.42-.246-.735-.246-.387 0-.69.143-.911.429-.22.286-.328.693-.328 1.22v.446c0 .498.104.895.312 1.189.208.294.5.442.874.442.336 0 .594-.076.773-.227.18-.154.3-.42.36-.799h.608zm2.388-1.432a1.75 1.75 0 00-.287-.022c-.383 0-.642.163-.78.489v2.423h-.583v-3.414h.568l.01.395a.909.909 0 01.814-.458c.113 0 .2.015.258.044v.543zm1.174 2.89h-.584v-3.414h.584v3.414zm-.631-4.319c0-.095.028-.175.085-.24.059-.065.145-.098.259-.098.113 0 .2.033.258.098a.345.345 0 01.089.24c0 .095-.03.173-.089.237-.058.063-.145.094-.258.094-.114 0-.2-.031-.259-.094a.34.34 0 01-.085-.237zm2.36.079v.826h.637v.452h-.637v2.116c0 .137.028.24.085.31.056.067.153.1.29.1.067 0 .16-.012.278-.037v.473a1.691 1.691 0 01-.448.063c-.261 0-.458-.079-.59-.237-.133-.157-.2-.381-.2-.672v-2.116h-.62v-.452h.62v-.826h.585zm2.738 4.303c-.463 0-.839-.151-1.13-.454-.29-.305-.435-.712-.435-1.221v-.108c0-.338.064-.64.193-.905.13-.267.31-.475.542-.624.234-.152.486-.228.757-.228.444 0 .789.147 1.035.439.246.292.369.71.369 1.255v.243h-2.312c.008.337.106.61.293.817.189.207.429.31.719.31.206 0 .381-.043.524-.127.143-.084.268-.195.375-.334l.357.278c-.286.44-.715.659-1.287.659zm-.073-3.06a.777.777 0 00-.593.258c-.16.17-.259.41-.296.72h1.709v-.044c-.016-.297-.096-.526-.239-.688a.732.732 0 00-.581-.246zm3.732.107a1.748 1.748 0 00-.287-.022c-.383 0-.642.163-.779.489v2.423h-.584v-3.414h.568l.01.395a.908.908 0 01.814-.458c.113 0 .199.015.258.044v.543zm1.174 2.89h-.584v-3.414h.584v3.414zm-.631-4.319c0-.095.028-.175.085-.24.059-.065.145-.098.259-.098.113 0 .2.033.258.098a.345.345 0 01.089.24c0 .095-.03.173-.089.237-.058.063-.145.094-.258.094-.114 0-.2-.031-.259-.094a.34.34 0 01-.085-.237zm3.675 4.319a1.246 1.246 0 01-.082-.36 1.302 1.302 0 01-.972.423c-.336 0-.613-.095-.829-.284a.929.929 0 01-.322-.726c0-.355.135-.63.404-.826.271-.198.652-.297 1.142-.297h.568v-.268a.65.65 0 00-.183-.486c-.122-.122-.302-.183-.54-.183a.848.848 0 00-.523.158c-.141.105-.212.233-.212.382h-.587c0-.17.06-.335.18-.492.122-.16.286-.286.492-.379.209-.092.437-.139.685-.139.393 0 .701.1.924.297.223.195.339.466.347.81v1.572c0 .313.04.562.12.747v.05h-.612zm-.968-.445c.183 0 .356-.047.52-.142a.863.863 0 00.357-.369v-.7h-.458c-.715 0-1.072.209-1.072.627 0 .183.061.326.183.43a.702.702 0 00.47.154z"/>
  </g>
  <path fill="#F3652B" d="M7.115 16.533v-5.168h1.771c.585 0 1.03.117 1.335.352.305.234.458.583.458 1.047 0 .236-.064.45-.192.639s-.315.335-.56.44c.279.075.494.219.645.43.154.207.23.458.23.752 0 .484-.155.857-.467 1.117-.31.26-.755.39-1.335.39H7.115zm.898-2.332v1.615h.998c.281 0 .501-.07.66-.21.158-.14.238-.333.238-.582 0-.537-.275-.811-.824-.823H8.013zm0-.66h.88c.28 0 .497-.063.654-.188.158-.128.237-.308.237-.54 0-.255-.073-.44-.22-.553-.144-.114-.37-.17-.678-.17h-.873v1.451zm5.296 3.063c-.547 0-.99-.172-1.331-.515-.339-.345-.508-.804-.508-1.377v-.106c0-.384.073-.726.22-1.026.15-.303.357-.538.625-.706.267-.168.565-.252.894-.252.523 0 .927.167 1.21.5.287.334.43.806.43 1.416v.348h-2.51c.027.317.132.568.316.753a.96.96 0 00.703.276c.395 0 .717-.16.966-.479l.465.444c-.154.23-.36.408-.618.536a1.931 1.931 0 01-.862.188zm-.103-3.29a.732.732 0 00-.575.248c-.145.166-.237.397-.277.692h1.643v-.063c-.019-.29-.096-.507-.23-.654-.135-.149-.322-.223-.561-.223zm3.165-.203a1.35 1.35 0 011.069-.49c.818 0 1.234.468 1.245 1.403v2.509h-.862v-2.477c0-.265-.058-.452-.174-.561-.114-.111-.282-.167-.504-.167-.345 0-.603.154-.774.461v2.744h-.862V11.08h.862v2.03zm5.484 3.422a1.329 1.329 0 01-.1-.359c-.274.287-.61.43-1.008.43-.385 0-.7-.11-.944-.33a1.056 1.056 0 01-.365-.817c0-.409.151-.722.454-.94.305-.22.74-.33 1.306-.33h.529v-.252a.666.666 0 00-.167-.476c-.111-.12-.28-.18-.507-.18a.753.753 0 00-.483.148.451.451 0 00-.188.373h-.863c0-.21.07-.407.21-.59a1.39 1.39 0 01.568-.432c.241-.104.51-.156.805-.156.45 0 .808.113 1.076.34.267.225.404.542.411.952v1.732c0 .345.049.62.146.826v.06h-.88zm-.948-.621a.97.97 0 00.48-.125.827.827 0 00.34-.333v-.724h-.465c-.32 0-.56.056-.72.167a.54.54 0 00-.242.472c0 .165.055.298.163.397a.65.65 0 00.444.146zm3.883-.472l.813-2.747h.89l-1.33 3.84h-.75l-1.341-3.84h.894l.824 2.747zm3.162 1.093h-.862v-3.84h.862v3.84zm-.916-4.838c0-.132.042-.242.124-.33.086-.087.206-.13.363-.13.156 0 .276.043.361.13a.454.454 0 01.128.33.45.45 0 01-.128.327c-.085.085-.205.128-.361.128-.157 0-.277-.043-.363-.128a.457.457 0 01-.124-.327zm1.697 2.882c0-.376.074-.714.223-1.015.15-.303.359-.534.628-.695.27-.164.58-.245.93-.245.519 0 .939.167 1.26.5.325.334.5.776.526 1.328l.003.202c0 .378-.073.717-.22 1.015a1.599 1.599 0 01-.624.692c-.27.163-.583.245-.938.245-.541 0-.976-.18-1.302-.54-.324-.362-.486-.843-.486-1.444v-.043zm.862.075c0 .395.082.705.245.93.163.222.39.333.681.333a.783.783 0 00.678-.34c.164-.227.245-.56.245-.998 0-.388-.084-.695-.252-.922a.795.795 0 00-.678-.341.79.79 0 00-.67.337c-.166.222-.249.556-.249 1zm5.448-1.171a2.138 2.138 0 00-.351-.029c-.395 0-.662.152-.799.454v2.627h-.862v-3.84h.823l.021.43c.209-.334.497-.501.866-.501.123 0 .225.016.306.05l-.004.809zm2.697 2.008a.39.39 0 00-.191-.35c-.126-.081-.335-.152-.629-.214a3.24 3.24 0 01-.734-.234c-.43-.208-.646-.51-.646-.905 0-.331.14-.608.419-.83.279-.223.634-.334 1.064-.334.46 0 .83.113 1.111.34.284.228.426.522.426.884h-.862a.526.526 0 00-.185-.412.702.702 0 00-.49-.166.772.772 0 00-.465.131.415.415 0 00-.177.351.35.35 0 00.167.31c.111.072.336.147.674.223.338.073.603.162.795.266a1.1 1.1 0 01.43.369c.094.144.142.32.142.525 0 .346-.144.626-.43.841-.286.213-.661.32-1.125.32-.315 0-.595-.057-.841-.17a1.384 1.384 0 01-.575-.469 1.109 1.109 0 01-.206-.642h.838c.011.203.088.36.23.472.142.108.33.163.565.163.227 0 .4-.043.518-.128a.405.405 0 00.177-.34z"/>
  <path fill="#646464" d="M9.524 25.805c-.043.365-.177.646-.405.845-.225.197-.526.296-.901.296-.407 0-.733-.146-.98-.438-.244-.292-.366-.682-.366-1.171v-.331c0-.32.057-.602.17-.845a1.282 1.282 0 011.216-.755c.366 0 .66.103.88.308.221.203.35.486.386.847h-.457c-.039-.275-.125-.473-.257-.596-.131-.123-.315-.185-.552-.185a.816.816 0 00-.684.322c-.164.214-.246.52-.246.915v.334c0 .374.078.671.235.892.156.22.374.331.655.331.252 0 .446-.057.58-.17.135-.115.225-.315.27-.599h.456zm.992-1.157a.93.93 0 01.757-.357c.54 0 .813.305.818.916v1.691h-.438v-1.694c-.001-.184-.044-.32-.127-.409-.082-.088-.21-.133-.386-.133a.632.632 0 00-.374.114.77.77 0 00-.25.298v1.824h-.438v-3.634h.438v1.384zm2.115.947c0-.251.049-.477.146-.677.1-.2.237-.355.412-.464.177-.108.378-.163.603-.163.349 0 .63.12.845.362.216.241.324.562.324.963v.03c0 .25-.048.474-.144.673-.095.197-.231.35-.41.461-.176.11-.38.166-.61.166a1.08 1.08 0 01-.845-.362c-.214-.242-.321-.561-.321-.959v-.03zm.44.052c0 .284.065.512.196.684.133.172.31.258.53.258a.63.63 0 00.53-.26c.131-.176.197-.42.197-.734 0-.281-.067-.508-.202-.682a.631.631 0 00-.53-.262.629.629 0 00-.522.258c-.133.172-.2.418-.2.738zm2.323-.052c0-.251.05-.477.147-.677.1-.2.236-.355.412-.464.176-.108.377-.163.603-.163.348 0 .63.12.845.362.216.241.324.562.324.963v.03c0 .25-.048.474-.145.673-.094.197-.23.35-.409.461-.177.11-.38.166-.61.166a1.08 1.08 0 01-.845-.362c-.214-.242-.322-.561-.322-.959v-.03zm.44.052c0 .284.066.512.197.684.132.172.309.258.53.258a.63.63 0 00.53-.26c.13-.176.196-.42.196-.734 0-.281-.067-.508-.201-.682a.631.631 0 00-.53-.262.629.629 0 00-.523.258c-.132.172-.199.418-.199.738zm3.93.572a.318.318 0 00-.135-.274c-.088-.066-.243-.123-.466-.17a2.229 2.229 0 01-.527-.17.763.763 0 01-.289-.237.571.571 0 01-.092-.327c0-.21.088-.387.265-.532.178-.145.405-.218.681-.218.29 0 .525.075.705.225.182.15.272.341.272.575h-.44a.394.394 0 00-.154-.31.568.568 0 00-.383-.13.599.599 0 00-.374.104.328.328 0 00-.135.272c0 .106.042.185.126.239.083.054.234.105.452.154.22.049.396.107.532.175a.76.76 0 01.3.246c.067.095.1.21.1.348a.658.658 0 01-.274.55c-.183.138-.42.207-.713.207-.205 0-.386-.037-.544-.11a.897.897 0 01-.371-.302.743.743 0 01-.133-.424h.438a.458.458 0 00.175.35c.11.086.256.128.435.128a.706.706 0 00.398-.099.311.311 0 00.151-.27zm2.07.727c-.346 0-.629-.114-.846-.341-.218-.229-.327-.534-.327-.916v-.08c0-.254.048-.48.144-.68.098-.2.234-.356.407-.468.175-.113.365-.17.568-.17.333 0 .592.11.776.329.185.22.277.533.277.942v.182H21.1c.006.252.08.457.22.613a.7.7 0 00.54.232.763.763 0 00.392-.095.984.984 0 00.282-.251l.267.208c-.215.33-.536.495-.965.495zm-.054-2.295a.582.582 0 00-.445.194c-.12.128-.194.307-.222.54h1.282v-.034c-.012-.222-.072-.394-.18-.516a.548.548 0 00-.435-.184zm3.358-.933v.62h.477v.339h-.477v1.587c0 .103.02.18.063.232.043.05.116.076.218.076.05 0 .12-.01.208-.028v.354a1.266 1.266 0 01-.336.048c-.195 0-.343-.06-.442-.178-.1-.118-.15-.286-.15-.504v-1.587h-.465v-.339h.466v-.62h.438zm1.429.93a.93.93 0 01.757-.357c.54 0 .814.305.818.916v1.691h-.437v-1.694c-.002-.184-.044-.32-.128-.409-.082-.088-.21-.133-.386-.133a.632.632 0 00-.373.114.77.77 0 00-.251.298v1.824h-.438v-3.634h.438v1.384zm3.293 2.298c-.347 0-.63-.114-.847-.341-.218-.229-.326-.534-.326-.916v-.08c0-.254.048-.48.144-.68.098-.2.233-.356.407-.468.175-.113.364-.17.568-.17.333 0 .591.11.776.329.184.22.277.533.277.942v.182h-1.735c.007.252.08.457.22.613a.7.7 0 00.54.232.762.762 0 00.393-.095.984.984 0 00.281-.251l.268.208c-.215.33-.537.495-.966.495zm-.054-2.295a.582.582 0 00-.445.194c-.12.128-.194.307-.223.54h1.283v-.034c-.013-.222-.073-.394-.18-.516a.548.548 0 00-.435-.184zm4.344 2.247a.92.92 0 01-.062-.27.977.977 0 01-.728.318.911.911 0 01-.623-.213.698.698 0 01-.241-.544c0-.267.1-.474.303-.62.203-.148.489-.223.856-.223h.426v-.2a.488.488 0 00-.137-.365c-.092-.092-.226-.137-.405-.137a.638.638 0 00-.392.118c-.106.079-.159.174-.159.286h-.44c0-.128.045-.25.135-.369a.935.935 0 01.369-.284 1.25 1.25 0 01.513-.104c.295 0 .527.074.694.223.167.146.254.349.26.608V26.3c0 .235.03.422.09.56v.038h-.46zm-.727-.333a.77.77 0 00.39-.107.644.644 0 00.268-.276v-.526h-.343c-.536 0-.804.157-.804.471 0 .137.045.245.137.322a.527.527 0 00.352.116zm2.809.023a.63.63 0 00.41-.142.5.5 0 00.193-.354h.414a.794.794 0 01-.151.418.996.996 0 01-.374.317 1.07 1.07 0 01-.492.119c-.349 0-.626-.116-.833-.348-.205-.233-.307-.552-.307-.956v-.073c0-.25.045-.471.137-.665.091-.194.222-.345.392-.452.172-.107.375-.16.609-.16.287 0 .525.085.714.257a.92.92 0 01.305.67h-.414a.596.596 0 00-.605-.568.615.615 0 00-.519.241c-.121.16-.182.39-.182.693v.083c0 .295.06.522.182.681.122.16.295.24.52.24zm2.103-2.87v.62h.478v.339h-.478v1.587c0 .103.022.18.064.232.043.05.115.076.218.076.05 0 .12-.01.208-.028v.354a1.267 1.267 0 01-.336.048c-.195 0-.343-.06-.442-.178-.1-.118-.15-.286-.15-.504v-1.587h-.465v-.339h.466v-.62h.437zm1.467 3.18h-.437v-2.56h.437v2.56zm-.473-3.239c0-.07.021-.13.064-.18.044-.048.109-.073.194-.073s.15.025.194.074a.258.258 0 01.066.18.25.25 0 01-.066.177c-.044.047-.109.07-.194.07s-.15-.023-.194-.07a.255.255 0 01-.064-.178zm1.06 1.936c0-.251.049-.477.147-.677.1-.2.236-.355.411-.464.177-.108.378-.163.604-.163.348 0 .63.12.844.362.217.241.325.562.325.963v.03c0 .25-.048.474-.145.673-.094.197-.23.35-.409.461-.177.11-.38.166-.61.166a1.08 1.08 0 01-.845-.362c-.215-.242-.322-.561-.322-.959v-.03zm.44.052c0 .284.066.512.197.684.132.172.309.258.53.258a.63.63 0 00.53-.26c.13-.176.196-.42.196-.734 0-.281-.067-.508-.201-.682a.631.631 0 00-.53-.262.629.629 0 00-.523.258c-.133.172-.199.418-.199.738zm2.854-1.309l.014.322a.933.933 0 01.766-.369c.541 0 .814.305.819.916v1.691h-.438v-1.694c-.001-.184-.044-.32-.127-.409-.082-.088-.211-.133-.386-.133a.632.632 0 00-.374.114.772.772 0 00-.25.298v1.824h-.438v-2.56h.414zm3.75 1.881a.318.318 0 00-.135-.274c-.088-.066-.244-.123-.466-.17a2.229 2.229 0 01-.528-.17.762.762 0 01-.288-.237.571.571 0 01-.093-.327c0-.21.089-.387.265-.532.178-.145.406-.218.682-.218.29 0 .525.075.705.225.181.15.272.341.272.575h-.44a.394.394 0 00-.154-.31.567.567 0 00-.383-.13.598.598 0 00-.374.104.328.328 0 00-.135.272c0 .106.042.185.125.239.084.054.235.105.452.154.22.049.397.107.533.175a.76.76 0 01.3.246c.066.095.1.21.1.348a.658.658 0 01-.275.55c-.183.138-.42.207-.712.207-.205 0-.387-.037-.544-.11a.897.897 0 01-.372-.302.743.743 0 01-.132-.424h.437a.458.458 0 00.175.35c.11.086.256.128.436.128a.706.706 0 00.397-.099.311.311 0 00.152-.27zm3.047.038l.597-1.919h.468l-1.03 2.956c-.159.425-.412.638-.759.638l-.083-.007-.163-.03v-.355l.118.01c.149 0 .264-.03.346-.09.084-.06.152-.17.206-.33l.097-.26-.914-2.532h.478l.64 1.92zm1.304-.662c0-.251.049-.477.147-.677.099-.2.236-.355.411-.464.177-.108.378-.163.604-.163.348 0 .63.12.844.362.216.241.325.562.325.963v.03c0 .25-.049.474-.145.673-.094.197-.231.35-.41.461-.176.11-.38.166-.61.166a1.08 1.08 0 01-.844-.362c-.215-.242-.322-.561-.322-.959v-.03zm.44.052c0 .284.065.512.196.684.133.172.31.258.53.258a.63.63 0 00.53-.26c.131-.176.197-.42.197-.734 0-.281-.067-.508-.201-.682a.631.631 0 00-.53-.262.629.629 0 00-.523.258c-.133.172-.199.418-.199.738zm4.02.998c-.17.2-.42.3-.75.3-.273 0-.481-.078-.625-.236-.142-.16-.213-.394-.215-.705v-1.666h.438v1.654c0 .388.157.582.473.582.334 0 .557-.124.667-.373v-1.863h.438v2.56h-.417l-.01-.253zm4.562-.35l.492-1.957h.438l-.746 2.56h-.355l-.622-1.94-.606 1.94h-.355l-.743-2.56h.436l.504 1.917.596-1.917h.352l.609 1.957zm2.957.603a.916.916 0 01-.061-.27.976.976 0 01-.73.318.911.911 0 01-.621-.213.698.698 0 01-.242-.544c0-.267.101-.474.303-.62.204-.148.49-.223.857-.223h.425v-.2a.488.488 0 00-.137-.365c-.091-.092-.226-.137-.404-.137a.638.638 0 00-.393.118c-.106.079-.159.174-.159.286h-.44c0-.128.045-.25.135-.369a.935.935 0 01.37-.284 1.25 1.25 0 01.513-.104c.295 0 .526.074.693.223.167.146.254.349.26.608V26.3c0 .235.03.422.09.56v.038h-.459zm-.726-.333a.77.77 0 00.39-.107.644.644 0 00.267-.276v-.526h-.343c-.536 0-.804.157-.804.471 0 .137.046.245.137.322a.527.527 0 00.353.116zm2.196-2.227l.014.322a.933.933 0 01.766-.369c.541 0 .814.305.819.916v1.691h-.438v-1.694c-.001-.184-.044-.32-.128-.409-.082-.088-.21-.133-.385-.133a.632.632 0 00-.374.114.772.772 0 00-.25.298v1.824h-.439v-2.56h.415zm2.853-.62v.62h.478v.339h-.478v1.587c0 .103.021.18.064.232.042.05.115.076.218.076.05 0 .12-.01.208-.028v.354a1.268 1.268 0 01-.336.048c-.196 0-.343-.06-.443-.178-.1-.118-.149-.286-.149-.504v-1.587h-.466v-.339h.466v-.62h.438zm2.787 0v.62h.478v.339h-.478v1.587c0 .103.021.18.064.232.043.05.115.076.218.076.05 0 .12-.01.208-.028v.354a1.268 1.268 0 01-.336.048c-.196 0-.343-.06-.442-.178-.1-.118-.15-.286-.15-.504v-1.587h-.466v-.339h.466v-.62h.438zm.828 1.877c0-.251.05-.477.147-.677.1-.2.237-.355.412-.464.176-.108.377-.163.603-.163.349 0 .63.12.845.362.216.241.324.562.324.963v.03c0 .25-.048.474-.145.673-.094.197-.23.35-.409.461-.177.11-.38.166-.61.166a1.08 1.08 0 01-.845-.362c-.215-.242-.322-.561-.322-.959v-.03zm.44.052c0 .284.066.512.197.684.132.172.309.258.53.258a.63.63 0 00.53-.26c.13-.176.196-.42.196-.734 0-.281-.067-.508-.201-.682a.631.631 0 00-.53-.262.629.629 0 00-.523.258c-.132.172-.199.418-.199.738zm5.804 0c0 .39-.089.703-.267.942a.857.857 0 01-.724.357c-.31 0-.555-.099-.734-.296v1.233h-.437v-3.545h.4l.02.284c.179-.22.427-.33.744-.33a.87.87 0 01.728.347c.18.232.27.554.27.968v.04zm-.438-.05c0-.289-.061-.517-.184-.684a.594.594 0 00-.506-.25.643.643 0 00-.597.352v1.223c.131.234.332.35.601.35a.59.59 0 00.5-.248c.124-.167.186-.415.186-.743zm2.059 1.349c-.347 0-.63-.114-.847-.341-.218-.229-.327-.534-.327-.916v-.08c0-.254.049-.48.145-.68.097-.2.233-.356.407-.468.175-.113.364-.17.567-.17.333 0 .592.11.777.329.184.22.276.533.276.942v.182H78.83c.006.252.08.457.22.613a.7.7 0 00.54.232.763.763 0 00.392-.095.984.984 0 00.282-.251l.267.208c-.214.33-.536.495-.965.495zm-.055-2.295a.582.582 0 00-.444.194c-.12.128-.194.307-.223.54h1.283v-.034c-.013-.222-.073-.394-.18-.516a.548.548 0 00-.436-.184zm2.8.08a1.316 1.316 0 00-.216-.016c-.287 0-.482.122-.584.366v1.817h-.438v-2.56h.426l.007.296a.681.681 0 01.61-.343c.086 0 .15.011.195.033v.407zm.657 2.167v-2.221h-.404v-.339h.404v-.262c0-.275.074-.487.22-.637.147-.15.355-.224.623-.224.1 0 .2.013.3.04l-.024.355a1.257 1.257 0 00-.236-.022c-.142 0-.252.042-.329.126-.077.082-.116.2-.116.355v.27h.547v.338h-.547v2.221h-.438zm1.354-1.303c0-.251.049-.477.146-.677.1-.2.237-.355.412-.464.177-.108.378-.163.603-.163.349 0 .63.12.845.362.216.241.324.562.324.963v.03c0 .25-.048.474-.144.673-.095.197-.231.35-.41.461-.176.11-.38.166-.61.166a1.08 1.08 0 01-.844-.362c-.215-.242-.322-.561-.322-.959v-.03zm.44.052c0 .284.065.512.196.684.133.172.31.258.53.258a.63.63 0 00.53-.26c.131-.176.197-.42.197-.734 0-.281-.068-.508-.202-.682a.631.631 0 00-.53-.262.629.629 0 00-.523.258c-.132.172-.198.418-.198.738zm3.677-.916a1.317 1.317 0 00-.216-.016c-.287 0-.482.122-.584.366v1.817H87.2v-2.56h.426l.007.296a.682.682 0 01.61-.343c.086 0 .15.011.195.033v.407zm.816-.393l.012.284c.187-.22.44-.33.76-.33.357 0 .601.136.73.41a.973.973 0 01.331-.297.99.99 0 01.486-.114c.561 0 .847.297.856.892v1.715h-.438V25.21c0-.183-.041-.32-.125-.41-.084-.09-.224-.136-.421-.136a.578.578 0 00-.405.146.586.586 0 00-.187.39v1.7h-.44V25.22c0-.372-.182-.558-.546-.558-.287 0-.484.122-.59.366v1.87h-.437v-2.56h.414zm5.515 2.56h-.438v-2.56h.438v2.56zm-.473-3.239c0-.07.021-.13.064-.18.044-.048.109-.073.194-.073s.15.025.194.074a.258.258 0 01.066.18.25.25 0 01-.066.177c-.044.047-.109.07-.194.07s-.15-.023-.194-.07a.255.255 0 01-.064-.178zm1.391 3.24v-2.222h-.404v-.339h.404v-.262c0-.275.073-.487.22-.637.147-.15.354-.224.622-.224.101 0 .201.013.3.04l-.023.355a1.257 1.257 0 00-.236-.022c-.142 0-.252.042-.33.126-.076.082-.115.2-.115.355v.27h.546v.338h-.546v2.221h-.438zm3.265-3.18v.62h.478v.338h-.478v1.587c0 .103.022.18.064.232.043.05.115.076.218.076.05 0 .12-.01.208-.028v.354a1.266 1.266 0 01-.336.048c-.195 0-.343-.06-.442-.178-.1-.118-.15-.286-.15-.504v-1.587h-.466v-.339h.466v-.62h.438zm1.429.93a.932.932 0 01.757-.358c.542 0 .814.305.819.916v1.691h-.438v-1.694c-.001-.184-.044-.32-.127-.409-.082-.088-.211-.133-.386-.133a.632.632 0 00-.374.114.775.775 0 00-.251.298v1.824h-.437v-3.634h.437v1.384zm3.294 2.297c-.347 0-.629-.114-.847-.341-.218-.229-.327-.534-.327-.916v-.08c0-.254.048-.48.145-.68.097-.2.233-.356.407-.468.175-.113.364-.17.567-.17.333 0 .592.11.777.329.184.22.276.533.276.942v.182h-1.734c.006.252.08.457.22.613a.701.701 0 00.54.232.76.76 0 00.392-.095.983.983 0 00.282-.251l.267.208c-.214.33-.536.495-.965.495zm-.055-2.295a.582.582 0 00-.444.194c-.12.128-.194.307-.223.54h1.283v-.034c-.013-.222-.073-.394-.18-.516a.549.549 0 00-.436-.184zm4.001.08a1.313 1.313 0 00-.215-.016c-.287 0-.482.122-.584.366v1.817h-.438v-2.56h.426l.007.296a.682.682 0 01.61-.343c.086 0 .15.011.194.033v.407zm1.42 2.215c-.347 0-.629-.114-.847-.341-.218-.229-.327-.534-.327-.916v-.08c0-.254.049-.48.145-.68.098-.2.233-.356.407-.468.175-.113.364-.17.568-.17.332 0 .591.11.776.329.184.22.277.533.277.942v.182h-1.735c.007.252.08.457.22.613a.701.701 0 00.54.232.76.76 0 00.392-.095.97.97 0 00.282-.251l.267.208c-.214.33-.536.495-.965.495zm-.054-2.295a.582.582 0 00-.445.194c-.12.128-.194.307-.223.54h1.283v-.034c-.013-.222-.073-.394-.18-.516a.547.547 0 00-.435-.184zm1.455.946c0-.402.092-.72.277-.953a.895.895 0 01.743-.353c.302 0 .541.102.716.305l.019-.258h.403v3.545h-.438v-1.221c-.177.19-.412.284-.705.284a.889.889 0 01-.741-.36c-.183-.241-.274-.56-.274-.958v-.03zm.437.05c0 .293.062.524.185.69.125.168.292.252.502.252.26 0 .459-.116.596-.346v-1.254a.658.658 0 00-.592-.338.595.595 0 00-.504.253c-.124.167-.187.415-.187.743zm4.004.998c-.171.2-.421.3-.75.3-.273 0-.481-.078-.625-.236-.142-.16-.214-.394-.215-.705v-1.666h.438v1.654c0 .388.157.582.473.582.334 0 .557-.124.667-.373v-1.863h.438v2.56h-.417l-.009-.253zm2.155.3c-.347 0-.629-.113-.847-.34-.217-.229-.326-.534-.326-.916v-.08c0-.254.048-.48.144-.68.098-.2.233-.356.407-.468.175-.113.364-.17.568-.17.333 0 .591.11.776.329.184.22.277.533.277.942v.182h-1.735c.007.252.08.457.22.613a.701.701 0 00.54.232.767.767 0 00.393-.095.98.98 0 00.281-.251l.268.208c-.215.33-.537.495-.966.495zm-.054-2.294a.582.582 0 00-.445.194c-.12.128-.194.307-.222.54h1.282v-.034c-.013-.222-.073-.394-.18-.516a.547.547 0 00-.435-.184zm3.052 1.568a.318.318 0 00-.135-.274c-.088-.066-.244-.123-.466-.17a2.231 2.231 0 01-.528-.17.762.762 0 01-.288-.237.568.568 0 01-.093-.327c0-.21.089-.387.265-.532.179-.145.406-.218.682-.218.29 0 .525.075.705.225.181.15.272.341.272.575h-.44a.393.393 0 00-.154-.31.568.568 0 00-.383-.13.6.6 0 00-.374.104.328.328 0 00-.135.272c0 .106.042.185.126.239.083.054.234.105.452.154.219.049.396.107.532.175a.75.75 0 01.3.246c.067.095.1.21.1.348a.659.659 0 01-.275.55c-.183.138-.42.207-.712.207-.205 0-.386-.037-.544-.11a.897.897 0 01-.372-.302.745.745 0 01-.132-.424h.438a.458.458 0 00.175.35c.11.086.255.128.435.128a.708.708 0 00.398-.099.31.31 0 00.151-.27zm1.602-2.5v.62h.478v.338h-.478v1.587c0 .103.021.18.064.232.042.05.115.076.217.076.051 0 .12-.01.209-.028v.354a1.277 1.277 0 01-.336.048c-.196 0-.343-.06-.443-.178-.099-.118-.149-.286-.149-.504v-1.587h-.466v-.339h.466v-.62h.438zm2.605.62l.012.283c.187-.22.441-.33.759-.33.358 0 .602.136.731.41a.97.97 0 01.332-.297.986.986 0 01.485-.114c.561 0 .847.297.856.892v1.715h-.438V25.21c0-.183-.041-.32-.125-.41-.084-.09-.224-.136-.421-.136a.577.577 0 00-.405.146.59.59 0 00-.187.39v1.7h-.44V25.22c0-.372-.182-.558-.546-.558-.287 0-.484.122-.589.366v1.87h-.438v-2.56h.414zm4.9 2.607c-.347 0-.629-.114-.847-.341-.218-.229-.327-.534-.327-.916v-.08c0-.254.048-.48.145-.68.097-.2.233-.356.407-.468.175-.113.364-.17.567-.17.333 0 .592.11.777.329.184.22.276.533.276.942v.182h-1.734c.006.252.08.457.22.613a.701.701 0 00.54.232.76.76 0 00.392-.095.983.983 0 00.282-.251l.267.208c-.214.33-.536.495-.965.495zm-.055-2.295a.582.582 0 00-.444.194c-.12.128-.194.307-.223.54h1.283v-.034c-.013-.222-.073-.394-.18-.516a.549.549 0 00-.436-.184zm2.624 2.295c-.347 0-.629-.114-.847-.341-.217-.229-.326-.534-.326-.916v-.08c0-.254.048-.48.144-.68.098-.2.234-.356.407-.468.175-.113.365-.17.568-.17.333 0 .592.11.776.329.185.22.277.533.277.942v.182h-1.734c.006.252.079.457.22.613a.7.7 0 00.539.232.762.762 0 00.393-.095.98.98 0 00.281-.251l.268.208c-.215.33-.537.495-.966.495zm-.054-2.295a.582.582 0 00-.445.194c-.12.128-.194.307-.222.54h1.282v-.034c-.012-.222-.072-.394-.18-.516a.547.547 0 00-.435-.184zm2.155-.933v.62h.478v.339h-.478v1.587c0 .103.022.18.064.232.043.05.116.076.218.076.051 0 .12-.01.208-.028v.354a1.265 1.265 0 01-.336.048c-.195 0-.343-.06-.442-.178-.1-.118-.149-.286-.149-.504v-1.587h-.466v-.339h.466v-.62h.437zm2.482 2.501a.32.32 0 00-.134-.274c-.089-.066-.244-.123-.467-.17a2.237 2.237 0 01-.527-.17.765.765 0 01-.289-.237.575.575 0 01-.092-.327c0-.21.088-.387.265-.532.178-.145.405-.218.681-.218.291 0 .526.075.705.225.182.15.273.341.273.575h-.441a.395.395 0 00-.153-.31.569.569 0 00-.384-.13.595.595 0 00-.373.104.328.328 0 00-.135.272c0 .106.041.185.125.239.084.054.234.105.452.154.219.049.397.107.532.175.136.068.236.15.301.246.066.095.099.21.099.348a.658.658 0 01-.274.55c-.183.138-.421.207-.712.207a1.29 1.29 0 01-.545-.11.9.9 0 01-.371-.302.746.746 0 01-.133-.424h.438a.458.458 0 00.175.35.696.696 0 00.436.128.705.705 0 00.397-.099.31.31 0 00.151-.27zm3.048.038l.596-1.919h.469l-1.03 2.956c-.159.425-.412.638-.759.638l-.083-.007-.163-.03v-.355l.118.01a.58.58 0 00.346-.09c.083-.06.152-.17.205-.33l.097-.26-.913-2.532h.478l.639 1.92zm1.304-.662c0-.251.048-.477.146-.677.1-.2.237-.355.412-.464.177-.108.378-.163.603-.163.349 0 .63.12.845.362.216.241.324.562.324.963v.03c0 .25-.048.474-.144.673-.095.197-.231.35-.41.461-.176.11-.38.166-.61.166-.347 0-.629-.12-.845-.362-.214-.242-.321-.561-.321-.959v-.03zm.44.052c0 .284.065.512.196.684a.636.636 0 00.53.258.63.63 0 00.53-.26c.131-.176.196-.42.196-.734 0-.281-.067-.508-.201-.682a.63.63 0 00-.53-.262.63.63 0 00-.523.258c-.132.172-.198.418-.198.738zm4.02.998c-.171.2-.421.3-.75.3-.273 0-.482-.078-.625-.236-.142-.16-.214-.394-.215-.705v-1.666h.437v1.654c0 .388.158.582.474.582.334 0 .556-.124.667-.373v-1.863h.437v2.56h-.416l-.009-.253zm2.33-1.914a1.313 1.313 0 00-.215-.016c-.287 0-.482.122-.585.366v1.817h-.437v-2.56h.426l.007.296a.68.68 0 01.61-.343c.085 0 .15.011.194.033v.407zm2.634 1.857a.63.63 0 00.409-.142.5.5 0 00.194-.354h.414a.795.795 0 01-.151.418 1.071 1.071 0 01-.866.435c-.349 0-.627-.115-.833-.347-.205-.233-.308-.552-.308-.956v-.073c0-.25.046-.471.137-.665.092-.194.223-.345.393-.452.172-.107.375-.16.608-.16.287 0 .525.085.715.257a.92.92 0 01.305.67h-.414a.6.6 0 00-.606-.568.615.615 0 00-.518.241c-.121.16-.182.39-.182.693v.083c0 .295.061.522.182.681.121.16.295.24.521.24zm2.747-1.857a1.334 1.334 0 00-.216-.016c-.287 0-.482.122-.584.366v1.817h-.438v-2.56h.426l.007.296a.682.682 0 01.61-.343c.086 0 .15.011.195.033v.407zm.88 2.167h-.438v-2.56h.438v2.56zm-.474-3.239c0-.07.022-.13.064-.18.045-.048.109-.073.194-.073.086 0 .15.025.194.074a.255.255 0 01.067.18c0 .07-.022.13-.067.177-.044.047-.108.07-.194.07-.085 0-.149-.023-.194-.07a.258.258 0 01-.064-.178zm1.77.06v.62h.478v.338h-.478v1.587c0 .103.022.18.064.232.043.05.115.076.218.076.05 0 .12-.01.208-.028v.354a1.265 1.265 0 01-.336.048c-.196 0-.343-.06-.442-.178-.1-.118-.149-.286-.149-.504v-1.587h-.467v-.339h.467v-.62h.437zm2.054 3.227c-.347 0-.629-.114-.847-.341-.218-.229-.327-.534-.327-.916v-.08c0-.254.049-.48.145-.68.098-.2.233-.356.407-.468.175-.113.364-.17.568-.17.332 0 .591.11.776.329.184.22.276.533.276.942v.182h-1.734c.006.252.08.457.22.613a.701.701 0 00.54.232.76.76 0 00.392-.095.97.97 0 00.282-.251l.267.208c-.214.33-.536.495-.965.495zm-.054-2.295a.582.582 0 00-.445.194c-.12.128-.194.307-.223.54h1.283v-.034c-.013-.222-.073-.394-.18-.516a.547.547 0 00-.435-.184zm2.799.08a1.326 1.326 0 00-.216-.016c-.287 0-.482.122-.584.366v1.817h-.438v-2.56h.426l.007.296a.682.682 0 01.611-.343.45.45 0 01.194.033v.407zm.88 2.167h-.438v-2.56h.438v2.56zm-.473-3.239c0-.07.021-.13.063-.18.045-.048.109-.073.194-.073.086 0 .15.025.194.074a.255.255 0 01.067.18c0 .07-.022.13-.067.177-.044.047-.108.07-.194.07-.085 0-.149-.023-.194-.07a.258.258 0 01-.063-.178zm2.756 3.24a.93.93 0 01-.062-.27.975.975 0 01-.728.317.913.913 0 01-.623-.213.7.7 0 01-.241-.544c0-.267.101-.474.303-.62.203-.148.489-.223.856-.223h.426v-.2a.486.486 0 00-.137-.365c-.091-.092-.226-.137-.404-.137a.636.636 0 00-.393.118c-.106.079-.159.174-.159.286h-.44c0-.128.045-.25.135-.369a.942.942 0 01.369-.284 1.25 1.25 0 01.514-.104c.295 0 .526.074.693.223.167.146.254.349.26.608V26.3c0 .235.03.422.09.56v.038h-.459zm-.726-.334a.77.77 0 00.39-.107.642.642 0 00.267-.276v-.526h-.343c-.536 0-.804.157-.804.471a.4.4 0 00.137.322.529.529 0 00.353.116zm1.791.104c0-.076.022-.139.066-.19.046-.05.114-.075.203-.075.09 0 .158.025.204.076.047.05.071.113.071.189a.253.253 0 01-.071.182c-.046.049-.114.073-.204.073-.089 0-.157-.024-.203-.073a.262.262 0 01-.066-.182z"/>
  <rect width="60.45" height="14.989" x="27.107" y="36.138" fill="#F9F9F9" rx="2.019"/>
  <path fill="#AAA" d="M79.778 42.002h2.796c.194 0 .29.206.153.327l-1.397 1.233a.239.239 0 01-.307 0l-1.398-1.233c-.137-.12-.04-.327.153-.327z"/>
  <path fill="#646464" d="M32.913 43.256c-.487-.14-.841-.311-1.064-.514a.993.993 0 01-.332-.758c0-.339.136-.619.406-.84.272-.222.625-.334 1.058-.334.296 0 .56.057.79.172.233.114.412.272.538.473.129.201.193.42.193.66h-.571c0-.26-.083-.465-.249-.613-.165-.15-.399-.224-.7-.224-.28 0-.5.062-.657.186a.614.614 0 00-.234.511.56.56 0 00.222.447c.15.12.403.23.76.331.359.1.639.212.84.334.203.12.353.262.45.423.098.162.148.352.148.571 0 .35-.137.63-.409.84-.272.21-.635.314-1.091.314a2.04 2.04 0 01-.828-.169 1.414 1.414 0 01-.595-.467 1.142 1.142 0 01-.207-.671h.571c0 .26.096.466.287.618.193.15.45.224.772.224.3 0 .53-.06.69-.183a.596.596 0 00.239-.5.58.58 0 00-.222-.488c-.148-.116-.416-.23-.805-.343zm3.57 1.979c-.434 0-.786-.142-1.059-.426-.272-.286-.408-.668-.408-1.145v-.1c0-.318.06-.6.18-.85a1.42 1.42 0 01.51-.585 1.28 1.28 0 01.71-.213c.415 0 .739.137.97.411.23.275.345.667.345 1.178v.227h-2.168c.008.316.1.571.276.766.177.194.402.29.674.29.193 0 .357-.04.49-.118.135-.08.252-.184.353-.314l.334.26c-.268.413-.67.619-1.207.619zm-.068-2.87c-.22 0-.406.082-.556.243-.15.16-.242.385-.278.675h1.603v-.042c-.016-.278-.09-.493-.225-.644a.685.685 0 00-.544-.231zm2.694-1.164v.774h.598v.423h-.598v1.985c0 .128.027.225.08.29.054.063.144.094.273.094.063 0 .15-.011.26-.035v.444c-.144.039-.284.059-.42.059-.245 0-.43-.074-.553-.222-.125-.148-.187-.358-.187-.63v-1.985h-.582v-.423h.582v-.774h.547zm3.757 2.617l.082.568.122-.512.851-3.005h.48l.83 3.005.119.52.092-.579.668-2.946h.57l-1.043 4.307h-.518l-.887-3.138-.068-.329-.068.329-.92 3.138h-.517l-1.041-4.307h.567l.68 2.949zm6.696.234h-1.805l-.405 1.124h-.585l1.644-4.307h.497l1.647 4.307h-.582l-.411-1.124zm-1.633-.468h1.464l-.734-2.014-.73 2.014zm5.58-.31h-1.806v1.902h-.568v-4.307h2.668v.468h-2.1v1.472h1.807v.465zm4.056.16h-1.012v1.742h-.57v-4.307h1.425c.485 0 .858.11 1.118.332.262.22.393.542.393.964 0 .268-.073.502-.219.7-.144.2-.345.349-.603.447l1.011 1.828v.036H58.5l-.934-1.742zm-1.012-.465h.873c.282 0 .505-.073.671-.219a.737.737 0 00.251-.585c0-.266-.08-.47-.24-.612-.157-.142-.386-.214-.685-.216h-.87v1.632zm5.055 1.89c-.213.25-.526.376-.938.376-.341 0-.601-.099-.78-.296-.178-.2-.268-.493-.27-.881v-2.083h.547v2.068c0 .485.197.727.592.727.418 0 .696-.155.834-.467v-2.328h.547v3.2h-.52l-.012-.316zm1.96.317h-.547v-4.543h.547v4.543zm2.207.059c-.434 0-.787-.142-1.059-.426-.272-.286-.408-.668-.408-1.145v-.1c0-.318.06-.6.18-.85.123-.25.292-.445.509-.585a1.28 1.28 0 01.71-.213c.416 0 .74.137.97.411.23.275.346.667.346 1.178v.227h-2.168c.008.316.1.571.275.766.178.194.402.29.674.29.194 0 .357-.04.491-.118.134-.08.252-.184.352-.314l.334.26c-.268.413-.67.619-1.206.619zm-.068-2.87c-.221 0-.406.082-.556.243-.15.16-.243.385-.278.675h1.603v-.042c-.016-.278-.091-.493-.225-.644a.685.685 0 00-.544-.231zm4.809.891c-.487-.14-.842-.311-1.065-.514a.993.993 0 01-.331-.758c0-.339.135-.619.405-.84.272-.222.625-.334 1.059-.334.295 0 .559.057.79.172.232.114.412.272.538.473.128.201.192.42.192.66h-.57c0-.26-.084-.465-.25-.613-.165-.15-.399-.224-.7-.224-.28 0-.5.062-.657.186a.614.614 0 00-.234.511.56.56 0 00.222.447c.15.12.404.23.76.331.36.1.64.212.84.334.204.12.353.262.45.423.099.162.148.352.148.571 0 .35-.136.63-.408.84-.272.21-.636.314-1.092.314a2.04 2.04 0 01-.828-.169 1.414 1.414 0 01-.594-.467 1.142 1.142 0 01-.207-.671h.57c0 .26.096.466.287.618.194.15.45.224.772.224.3 0 .53-.06.69-.183a.596.596 0 00.239-.5.58.58 0 00-.222-.488c-.148-.116-.416-.23-.804-.343zm3.57 1.979c-.434 0-.787-.142-1.06-.426-.271-.286-.407-.668-.407-1.145v-.1c0-.318.06-.6.18-.85a1.42 1.42 0 01.509-.585 1.28 1.28 0 01.71-.213c.415 0 .739.137.97.411.23.275.346.667.346 1.178v.227h-2.168c.008.316.1.571.275.766.177.194.402.29.674.29.193 0 .357-.04.491-.118.134-.08.251-.184.352-.314l.334.26c-.268.413-.67.619-1.207.619zm-.069-2.87c-.22 0-.406.082-.556.243-.15.16-.242.385-.278.675h1.603v-.042c-.015-.278-.09-.493-.224-.644a.685.685 0 00-.544-.231zm2.695-1.164v.774h.597v.423h-.597v1.985c0 .128.026.225.08.29.053.063.144.094.272.094.063 0 .15-.011.26-.035v.444c-.144.039-.284.059-.42.059-.245 0-.429-.074-.553-.222-.124-.148-.186-.358-.186-.63v-1.985h-.583v-.423h.583v-.774h.547z"/>
  <g>
    <rect width="91.928" height="14.989" x="93.418" y="36.138" fill="#F9F9F9" rx="2.019"/>
    <path fill="#AAA" d="M178.957 42.882h2.273c.157 0 .236.191.124.303l-1.136 1.144a.176.176 0 01-.25 0l-1.136-1.144a.178.178 0 01.125-.303z"/>
    <path fill="#646464" d="M98.418 44.642l.083.568.121-.511.852-3.005h.48l.83 3.005.119.52.091-.58.669-2.945h.57L101.189 46h-.517l-.887-3.138-.069-.328-.067.328-.92 3.138h-.518l-1.04-4.306h.567l.68 2.948zm6.646.234h-1.804L102.855 46h-.586l1.645-4.306h.496L106.058 46h-.583l-.411-1.124zm-1.632-.467h1.463l-.733-2.014-.73 2.014zm5.53-.31h-1.807V46h-.568v-4.306h2.668v.467h-2.1v1.473h1.807v.464zm3.955.159h-1.011V46h-.571v-4.306h1.425c.485 0 .858.11 1.118.331.263.22.394.542.394.964 0 .268-.073.502-.219.701-.144.2-.345.348-.603.447l1.011 1.828V46h-.609l-.935-1.742zm-1.011-.464h.872c.282 0 .506-.073.672-.22a.739.739 0 00.251-.585c0-.266-.08-.47-.24-.612-.157-.142-.386-.214-.686-.216h-.869v1.633zm5.004 1.89c-.213.25-.525.375-.937.375-.341 0-.602-.098-.781-.296-.178-.199-.267-.492-.269-.881V42.8h.547v2.067c0 .485.197.728.591.728.418 0 .696-.156.834-.468V42.8h.548V46h-.521l-.012-.316zm1.911.316h-.547v-4.543h.547V46zm2.156.06c-.433 0-.786-.143-1.058-.427-.273-.286-.409-.667-.409-1.144v-.1c0-.318.061-.601.181-.85.122-.25.292-.445.509-.585.218-.142.455-.213.709-.213.416 0 .74.137.97.41.231.275.346.667.346 1.178v.228h-2.167c.007.315.099.57.275.766.177.193.402.29.674.29.193 0 .357-.04.491-.119.134-.079.251-.183.352-.313l.334.26c-.268.412-.67.618-1.207.618zm-.068-2.87a.73.73 0 00-.556.243c-.15.16-.242.384-.278.674h1.603v-.041c-.015-.278-.09-.493-.224-.645a.688.688 0 00-.545-.23zm3.766 1.961a.399.399 0 00-.169-.343c-.11-.083-.305-.154-.583-.213a2.773 2.773 0 01-.659-.213.953.953 0 01-.361-.295.713.713 0 01-.115-.409.83.83 0 01.331-.665c.223-.181.507-.272.852-.272.362 0 .656.093.881.28a.89.89 0 01.34.72h-.55a.493.493 0 00-.192-.388.709.709 0 00-.479-.163c-.199 0-.355.044-.468.13a.41.41 0 00-.168.34c0 .133.052.232.157.3.104.066.292.13.564.191.275.062.496.135.666.22a.957.957 0 01.376.307.745.745 0 01.124.435.825.825 0 01-.343.689c-.229.171-.526.257-.891.257a1.61 1.61 0 01-.68-.136 1.119 1.119 0 01-.464-.379.924.924 0 01-.166-.529h.547c.01.184.083.33.219.438.138.106.32.16.544.16.207 0 .373-.042.497-.125a.39.39 0 00.19-.337zm2.931.849v-2.777h-.506V42.8h.506v-.328c0-.343.092-.609.275-.796.183-.187.443-.28.778-.28.126 0 .251.016.376.05l-.03.443a1.577 1.577 0 00-.296-.027c-.177 0-.314.053-.411.157-.096.103-.145.25-.145.444v.337h.683v.423h-.683V46h-.547zm1.642-1.63c0-.313.061-.595.183-.845a1.39 1.39 0 01.515-.58c.221-.136.472-.204.754-.204.436 0 .788.15 1.056.452.27.302.405.703.405 1.204v.038c0 .312-.06.592-.18.84a1.351 1.351 0 01-.512.577 1.41 1.41 0 01-.763.207c-.434 0-.786-.15-1.056-.452-.268-.302-.402-.701-.402-1.198v-.039zm.55.066c0 .354.082.64.245.854a.796.796 0 00.663.323.785.785 0 00.662-.326c.164-.219.246-.524.246-.917 0-.35-.084-.634-.252-.851a.788.788 0 00-.662-.329.787.787 0 00-.654.323c-.165.215-.248.522-.248.922zm4.546-1.145a1.645 1.645 0 00-.269-.02c-.359 0-.603.152-.731.458V46h-.547v-3.2h.532l.009.37a.853.853 0 01.763-.43.56.56 0 01.243.042v.509zm2.727-1.597l1.408 3.513 1.408-3.513h.736V46h-.568v-1.677l.054-1.81L138.695 46h-.435l-1.41-3.478.056 1.801V46h-.568v-4.306h.733zm5.466 3.505l.745-2.4h.586l-1.286 3.695c-.2.532-.516.798-.95.798l-.103-.008-.204-.039v-.444l.147.012c.186 0 .33-.037.432-.112.105-.075.191-.212.258-.411l.121-.325-1.142-3.165h.598l.798 2.399zm5.688-.323h-1.804L146.016 46h-.586l1.645-4.306h.496L149.219 46h-.583l-.411-1.124zm-1.632-.467h1.464l-.734-2.014-.73 2.014zm5.773.026c0 .487-.111.88-.334 1.178a1.072 1.072 0 01-.905.446c-.389 0-.694-.123-.917-.37v1.541h-.547V42.8h.5l.026.355c.223-.276.533-.414.929-.414.384 0 .688.145.911.434.225.29.337.694.337 1.21v.05zm-.547-.062c0-.36-.077-.645-.231-.854a.744.744 0 00-.633-.314.803.803 0 00-.745.44v1.53a.806.806 0 00.751.438c.262 0 .47-.104.624-.311.156-.209.234-.519.234-.929zm3.898.063c0 .486-.111.879-.334 1.177a1.072 1.072 0 01-.905.446c-.389 0-.694-.123-.917-.37v1.541h-.547V42.8h.5l.026.355c.223-.276.533-.414.929-.414.385 0 .688.145.911.434.225.29.337.694.337 1.21v.05zm-.547-.063c0-.36-.077-.645-.231-.854a.742.742 0 00-.633-.314.804.804 0 00-.745.44v1.53a.806.806 0 00.751.438.735.735 0 00.624-.311c.156-.209.234-.519.234-.929zM156.96 46h-.548v-4.543h.548V46zm1.422 0h-.547v-3.2h.547V46zm-.591-4.049c0-.089.027-.163.08-.225.055-.06.136-.091.242-.091.107 0 .188.03.243.091a.325.325 0 01.083.225.313.313 0 01-.083.222c-.055.06-.136.089-.243.089-.106 0-.187-.03-.242-.09a.32.32 0 01-.08-.22zm2.703 3.662c.196 0 .366-.06.512-.178a.625.625 0 00.243-.444h.517a.996.996 0 01-.189.524 1.242 1.242 0 01-.467.396 1.34 1.34 0 01-.616.148c-.435 0-.782-.145-1.041-.435-.256-.291-.384-.69-.384-1.195v-.091c0-.312.057-.589.171-.831.115-.243.278-.431.491-.565.215-.134.469-.201.76-.201.359 0 .657.107.894.322.238.215.365.494.381.837h-.517a.747.747 0 00-.758-.71c-.278 0-.493.1-.647.302-.152.2-.228.488-.228.867v.103c0 .369.076.653.228.852.152.199.368.299.65.299zm3.813.387a1.143 1.143 0 01-.077-.337 1.22 1.22 0 01-.911.396c-.315 0-.575-.089-.778-.266a.872.872 0 01-.301-.68c0-.334.126-.592.378-.775.255-.185.611-.278 1.071-.278h.532v-.252a.61.61 0 00-.171-.455c-.115-.114-.283-.172-.506-.172a.798.798 0 00-.491.148c-.132.099-.198.218-.198.358h-.55c0-.16.056-.313.168-.461a1.17 1.17 0 01.462-.355c.195-.087.409-.13.641-.13.369 0 .658.093.867.278.209.183.317.437.325.76v1.473c0 .293.038.527.113.7V46h-.574zm-.908-.417a.961.961 0 00.488-.133.803.803 0 00.334-.346v-.657h-.429c-.67 0-1.005.197-1.005.589 0 .171.057.306.171.402a.662.662 0 00.441.145zm2.919-3.558v.775h.598v.423h-.598v1.984c0 .129.027.225.08.29.053.063.144.095.272.095.063 0 .15-.012.261-.036V46c-.144.04-.284.06-.42.06-.245 0-.429-.075-.553-.223-.125-.148-.187-.358-.187-.63v-1.984h-.582V42.8h.582v-.775h.547zM168.102 46h-.547v-3.2h.547V46zm-.591-4.049c0-.089.026-.163.079-.225.056-.06.136-.091.243-.091.106 0 .187.03.242.091a.32.32 0 01.083.225.31.31 0 01-.083.222c-.055.06-.136.089-.242.089-.107 0-.187-.03-.243-.09a.32.32 0 01-.079-.22zm1.275 2.42c0-.314.061-.596.183-.846.124-.25.296-.444.514-.58.221-.136.473-.204.755-.204.435 0 .787.15 1.056.452.27.302.405.703.405 1.204v.038c0 .312-.06.592-.181.84a1.35 1.35 0 01-.511.577 1.412 1.412 0 01-.763.207c-.434 0-.786-.15-1.056-.452-.268-.302-.402-.701-.402-1.198v-.039zm.55.064c0 .355.081.64.245.855a.796.796 0 00.663.323.786.786 0 00.662-.326c.164-.219.246-.524.246-.917 0-.35-.084-.634-.252-.851a.788.788 0 00-.662-.329.787.787 0 00-.654.323c-.166.215-.248.522-.248.922zm3.516-1.635l.018.402c.245-.307.564-.461.958-.461.677 0 1.018.381 1.024 1.144V46h-.547v-2.118c-.002-.23-.056-.4-.16-.511-.103-.11-.263-.166-.482-.166a.792.792 0 00-.468.142.964.964 0 00-.313.373V46h-.547v-3.2h.517z"/>
  </g>
  <g>
    <path fill="#646464" d="M10.065 42.42H8.681v3.84h-.565v-3.84h-1.38v-.467h3.33v.468zm1.1 1.027c.243-.298.559-.447.947-.447.676 0 1.017.382 1.023 1.145v2.114h-.547v-2.117c-.002-.23-.055-.401-.16-.512-.102-.11-.263-.165-.482-.165a.79.79 0 00-.467.141.964.964 0 00-.313.373v2.28h-.548v-4.542h.547v1.73zm4.117 2.872c-.433 0-.786-.142-1.058-.426-.273-.286-.409-.668-.409-1.145v-.1c0-.318.06-.6.18-.85a1.42 1.42 0 01.51-.585 1.28 1.28 0 01.71-.213c.415 0 .739.137.97.411.23.274.346.667.346 1.177v.228h-2.168c.008.316.1.571.275.766.177.193.402.29.674.29.193 0 .357-.04.491-.118.134-.08.251-.184.352-.314l.334.26c-.268.413-.67.619-1.207.619zm-.068-2.87c-.22 0-.406.082-.556.243-.15.16-.242.385-.278.675h1.603v-.042c-.015-.278-.09-.493-.224-.645a.685.685 0 00-.545-.23zm2.47-.39l.018.403c.244-.308.564-.462.958-.462.676 0 1.017.382 1.023 1.145v2.114h-.547v-2.117c-.002-.23-.055-.401-.16-.512-.102-.11-.263-.165-.482-.165a.79.79 0 00-.467.141.966.966 0 00-.314.373v2.28h-.547v-3.2h.518zm2.807 2.914c0-.095.027-.174.082-.237.058-.063.142-.095.255-.095.112 0 .197.032.254.095.06.063.089.142.089.237 0 .09-.03.166-.089.227-.057.061-.142.092-.254.092-.113 0-.197-.03-.255-.092a.327.327 0 01-.082-.227zm.003-2.612c0-.095.027-.173.082-.236.058-.064.142-.095.255-.095.112 0 .197.031.254.094.06.064.089.142.089.237 0 .09-.03.167-.089.228-.057.06-.142.092-.254.092-.113 0-.197-.031-.255-.092a.327.327 0 01-.082-.228z"/>
    <path fill="#F3652B" d="M24.04 43.352l-.893-.266.136-.447.893.332-.027-1.018h.453l-.03 1.032.879-.325.136.45-.908.269.585.801-.367.278-.55-.852-.532.832-.37-.27.595-.816z"/>
  </g>
  <defs>
    <clipPath id="clip0_0_121">
      <path fill="#fff" d="M0 0h180.251v14.989H0z" transform="translate(6.59 58.246)"/>
    </clipPath>
  </defs>
</svg>
