<svg xmlns="http://www.w3.org/2000/svg" fill="none" viewBox="0 0 281 100">
  <path fill="#fff" d="M.546.372h280.431v98.873H.546z"/>
  <path fill="#F9F9F9" d="M18.956 40.717h237.979v39.672H18.956z"/>
  <path fill="#AAA" d="M240.06 58.569h6.996c.484 0 .726.506.384.802l-3.497 3.027a.606.606 0 01-.769 0l-3.497-3.027c-.343-.296-.101-.802.383-.802z"/>
  <path fill="#646464" d="M21.636 25.786h5.107v1.162h-6.535V16.172h1.428v9.614zm11.457 1.162c-.079-.158-.143-.44-.192-.844-.637.661-1.397.992-2.28.992-.79 0-1.438-.222-1.946-.666-.503-.45-.755-1.017-.755-1.703 0-.833.316-1.48.947-1.939.637-.463 1.53-.695 2.68-.695h1.332v-.63c0-.478-.143-.858-.43-1.14-.286-.285-.708-.428-1.265-.428-.489 0-.898.123-1.229.37-.33.246-.496.545-.496.895h-1.376c0-.4.14-.784.422-1.154a2.924 2.924 0 011.154-.889 3.91 3.91 0 011.606-.325c.923 0 1.646.232 2.169.696.523.458.794 1.092.814 1.902v3.685c0 .736.094 1.32.281 1.754v.119h-1.436zm-2.272-1.044c.43 0 .836-.11 1.221-.333.385-.222.664-.51.837-.866v-1.643h-1.074c-1.677 0-2.516.491-2.516 1.473 0 .43.143.765.43 1.007.285.241.653.362 1.102.362zm6.868-6.964l.045 1.006c.611-.77 1.41-1.154 2.398-1.154 1.692 0 2.546.955 2.56 2.864v5.292h-1.369v-5.3c-.005-.577-.138-1.003-.4-1.28-.256-.276-.658-.414-1.206-.414-.444 0-.834.118-1.17.355a2.412 2.412 0 00-.784.933v5.706h-1.369V18.94h1.295zm6.742 3.937c0-1.248.29-2.24.866-2.975.578-.74 1.343-1.11 2.295-1.11.977 0 1.739.345 2.287 1.036l.066-.888h1.251v7.815c0 1.037-.308 1.853-.925 2.45-.612.597-1.436.896-2.472.896a4.119 4.119 0 01-1.695-.37c-.553-.247-.974-.585-1.265-1.014l.71-.822c.587.725 1.305 1.088 2.154 1.088.666 0 1.184-.188 1.554-.562.375-.375.562-.903.562-1.584v-.689c-.547.632-1.295.948-2.242.948-.938 0-1.697-.378-2.28-1.133-.577-.755-.865-1.783-.865-3.086zm1.377.156c0 .903.185 1.613.555 2.131.37.513.888.77 1.554.77.864 0 1.498-.392 1.902-1.177v-3.656c-.419-.765-1.048-1.147-1.887-1.147-.666 0-1.187.259-1.561.777-.375.518-.563 1.285-.563 2.302zm12.404 3.123c-.533.627-1.315.94-2.346.94-.854 0-1.505-.247-1.954-.74-.444-.499-.668-1.234-.673-2.206v-5.21h1.369v5.173c0 1.214.493 1.82 1.48 1.82 1.046 0 1.742-.389 2.087-1.168V18.94h1.37v8.008h-1.303l-.03-.792zm8.363.792c-.079-.158-.143-.44-.192-.844-.637.661-1.396.992-2.28.992-.79 0-1.438-.222-1.946-.666-.503-.45-.755-1.017-.755-1.703 0-.833.316-1.48.947-1.939.637-.463 1.53-.695 2.68-.695h1.332v-.63c0-.478-.144-.858-.43-1.14-.286-.285-.708-.428-1.265-.428-.489 0-.898.123-1.229.37-.33.246-.496.545-.496.895h-1.376c0-.4.14-.784.422-1.154a2.925 2.925 0 011.154-.889 3.91 3.91 0 011.606-.325c.923 0 1.646.232 2.169.696.523.458.794 1.092.814 1.902v3.685c0 .736.094 1.32.281 1.754v.119h-1.436zm-2.272-1.044c.43 0 .837-.11 1.221-.333.385-.222.664-.51.837-.866v-1.643h-1.074c-1.677 0-2.516.491-2.516 1.473 0 .43.143.765.43 1.007.286.241.653.362 1.102.362zm5.248-3.027c0-1.248.288-2.24.865-2.975.578-.74 1.342-1.11 2.295-1.11.977 0 1.739.345 2.287 1.036l.066-.888h1.251v7.815c0 1.037-.308 1.853-.925 2.45-.612.597-1.436.896-2.472.896a4.118 4.118 0 01-1.695-.37c-.552-.247-.974-.585-1.266-1.014l.711-.822c.587.725 1.305 1.088 2.154 1.088.666 0 1.184-.188 1.554-.562.375-.375.562-.903.562-1.584v-.689c-.547.632-1.295.948-2.242.948-.938 0-1.697-.378-2.28-1.133-.577-.755-.865-1.783-.865-3.086zm1.376.156c0 .903.185 1.613.555 2.131.37.513.888.77 1.554.77.864 0 1.498-.392 1.902-1.177v-3.656c-.419-.765-1.048-1.147-1.887-1.147-.666 0-1.186.259-1.561.777s-.563 1.285-.563 2.302zm10.783 4.063c-1.085 0-1.968-.355-2.65-1.066-.68-.715-1.02-1.67-1.02-2.864v-.252c0-.794.15-1.502.45-2.124.307-.627.731-1.115 1.274-1.465a3.203 3.203 0 011.776-.533c1.041 0 1.85.343 2.428 1.029.577.685.865 1.667.865 2.945v.57H79.41c.02.79.249 1.429.688 1.917.444.483 1.006.725 1.687.725.484 0 .893-.099 1.229-.296a3.09 3.09 0 00.88-.784l.837.651c-.671 1.031-1.678 1.547-3.02 1.547zm-.17-7.18c-.553 0-1.016.203-1.391.608-.375.4-.607.962-.696 1.687h4.011v-.103c-.04-.696-.227-1.234-.562-1.614-.336-.385-.79-.577-1.362-.577zm4.84 6.314c0-.237.07-.434.208-.592.143-.158.355-.237.636-.237s.493.079.636.237a.832.832 0 01.222.592.787.787 0 01-.221.57c-.144.153-.356.23-.637.23s-.493-.077-.636-.23a.819.819 0 01-.208-.57zm.008-6.535c0-.237.069-.434.207-.592.143-.158.355-.237.636-.237.282 0 .494.079.637.237a.832.832 0 01.222.592.788.788 0 01-.222.57c-.143.153-.355.23-.637.23-.28 0-.493-.077-.636-.23a.82.82 0 01-.207-.57z"/>
  <path fill="#F3652B" d="M95.261 19.673l-2.235-.666.34-1.118 2.236.829-.067-2.546h1.133l-.074 2.583 2.198-.814.34 1.125-2.272.673 1.466 2.006-.918.695-1.377-2.13-1.332 2.079-.925-.674 1.487-2.042z"/>
  <path fill="gray" d="M34.826 54.85h1.429v7.63c0 1.032-.311 1.838-.933 2.42-.617.583-1.44.874-2.472.874-1.07 0-1.904-.274-2.501-.822-.597-.547-.896-1.315-.896-2.301h1.421c0 .616.168 1.097.503 1.443.34.345.832.518 1.473.518.587 0 1.06-.185 1.421-.555.365-.37.55-.888.555-1.554V54.85zm8.578 10.776c-.079-.158-.143-.44-.193-.844-.636.661-1.396.992-2.279.992-.79 0-1.438-.222-1.947-.666-.503-.45-.754-1.017-.754-1.703 0-.833.315-1.48.947-1.938.636-.464 1.53-.696 2.68-.696h1.331v-.63c0-.478-.143-.858-.429-1.14-.286-.285-.708-.428-1.265-.428-.489 0-.898.123-1.23.37-.33.246-.495.545-.495.895h-1.377c0-.4.141-.784.422-1.154a2.924 2.924 0 011.155-.888 3.91 3.91 0 011.606-.326c.922 0 1.645.232 2.168.696.523.459.795 1.093.815 1.902v3.685c0 .736.093 1.32.28 1.754v.119h-1.435zm-2.272-1.044c.43 0 .836-.11 1.221-.333.385-.222.664-.51.836-.866V61.74h-1.073c-1.677 0-2.516.491-2.516 1.473 0 .43.143.765.43 1.007.285.241.653.362 1.102.362zm8.096-.814l1.984-6.15h1.399l-2.872 8.008h-1.043l-2.902-8.008h1.4l2.034 6.15zm9.526 1.858c-.08-.158-.143-.44-.193-.844-.636.661-1.396.992-2.28.992-.789 0-1.438-.222-1.946-.666-.503-.45-.755-1.017-.755-1.703 0-.833.316-1.48.948-1.938.636-.464 1.53-.696 2.679-.696h1.332v-.63c0-.478-.143-.858-.43-1.14-.285-.285-.707-.428-1.265-.428-.488 0-.898.123-1.229.37-.33.246-.495.545-.495.895h-1.377c0-.4.14-.784.422-1.154a2.924 2.924 0 011.154-.888 3.91 3.91 0 011.606-.326c.923 0 1.646.232 2.169.696.523.459.794 1.093.814 1.902v3.685c0 .736.094 1.32.281 1.754v.119h-1.435zm-2.273-1.044c.43 0 .837-.11 1.222-.333.384-.222.663-.51.836-.866V61.74h-1.073c-1.678 0-2.517.491-2.517 1.473 0 .43.144.765.43 1.007.286.241.654.362 1.102.362zm8.963-3.76c-1.219-.35-2.107-.779-2.664-1.287a2.484 2.484 0 01-.83-1.895c0-.849.339-1.55 1.015-2.102.68-.557 1.564-.836 2.65-.836.74 0 1.398.143 1.975.43.583.285 1.032.68 1.347 1.183a3.01 3.01 0 01.481 1.65H67.99c0-.65-.207-1.161-.622-1.531-.414-.375-.999-.563-1.754-.563-.7 0-1.248.156-1.643.467-.39.306-.584.732-.584 1.28 0 .44.185.812.555 1.117.375.301 1.009.578 1.902.83.898.251 1.598.53 2.102.836.508.3.883.653 1.125 1.058.246.405.37.88.37 1.428 0 .874-.34 1.574-1.022 2.102-.68.523-1.59.785-2.73.785-.74 0-1.432-.14-2.073-.422-.641-.286-1.137-.676-1.488-1.17a2.859 2.859 0 01-.518-1.68h1.429c0 .652.239 1.167.718 1.547.483.375 1.127.563 1.931.563.75 0 1.325-.153 1.725-.459.4-.306.6-.723.6-1.25 0-.529-.186-.936-.556-1.222-.37-.291-1.04-.577-2.013-.858zm8.822 3.834c.488 0 .915-.148 1.28-.444.365-.296.568-.666.607-1.11h1.295a2.484 2.484 0 01-.473 1.31c-.291.414-.681.745-1.17.992-.483.246-.996.37-1.539.37-1.09 0-1.959-.363-2.605-1.088-.642-.73-.962-1.727-.962-2.99v-.23c0-.78.143-1.472.429-2.08a3.277 3.277 0 011.229-1.413c.537-.335 1.171-.503 1.902-.503.898 0 1.643.269 2.235.807.597.537.915 1.236.954 2.094h-1.295c-.04-.518-.237-.942-.592-1.273-.35-.335-.784-.503-1.302-.503-.696 0-1.236.252-1.621.755-.38.498-.57 1.22-.57 2.168v.26c0 .922.19 1.633.57 2.13.38.5.922.748 1.628.748zm8.593-5.81a4.107 4.107 0 00-.674-.051c-.898 0-1.507.382-1.828 1.147v5.684h-1.37v-8.008h1.333l.022.925c.45-.715 1.086-1.073 1.91-1.073.266 0 .468.035.607.104v1.273zm2.753 6.78h-1.37v-8.008h1.37v8.008zm-1.48-10.132c0-.222.066-.41.2-.563.138-.153.34-.229.606-.229.267 0 .469.076.607.23.138.152.207.34.207.562 0 .222-.069.407-.207.555-.138.148-.34.222-.607.222-.266 0-.468-.074-.607-.222a.799.799 0 01-.2-.555zm10.442 6.217c0 1.218-.278 2.2-.836 2.945-.558.745-1.312 1.118-2.265 1.118-.972 0-1.736-.308-2.294-.925v3.856h-1.37V57.618h1.252l.066.888c.558-.69 1.332-1.036 2.324-1.036.962 0 1.722.363 2.28 1.088.562.725.843 1.734.843 3.027v.126zm-1.369-.156c0-.903-.192-1.616-.577-2.139-.385-.523-.913-.784-1.584-.784-.829 0-1.45.367-1.865 1.103v3.826c.41.73 1.036 1.095 1.88 1.095.656 0 1.177-.259 1.562-.777.39-.523.584-1.297.584-2.324zm4.974-5.876v1.939h1.495v1.058h-1.495v4.966c0 .321.066.563.2.726.133.157.36.237.68.237.158 0 .375-.03.652-.09v1.11c-.36.1-.71.149-1.051.149-.612 0-1.073-.185-1.384-.555-.311-.37-.466-.896-.466-1.577v-4.966H95.35v-1.058h1.459v-1.94h1.369z"/>
  <g>
    <path fill="#CCC" fill-rule="evenodd" d="M117.662 16.375a5.391 5.391 0 00-5.389 5.388 5.391 5.391 0 005.389 5.39 5.39 5.39 0 005.389-5.39 5.39 5.39 0 00-5.389-5.389zm.541 8.083h-1.078v-3.233h1.078v3.233zm-1.078-4.31h1.078V19.07h-1.078v1.077z" clip-rule="evenodd"/>
  </g>
</svg>
