<svg xmlns="http://www.w3.org/2000/svg" fill="none" viewBox="0 0 393 458">
  <path fill="#fff" d="M.859.246h392v457.229h-392z"/>
  <path fill="#F9F9F9" d="M20.59 61.86h353.376v40H20.59z"/>
  <path fill="#AAA" d="M355.128 79.86h6.924c.479 0 .718.51.379.81l-3.46 3.052a.592.592 0 01-.762 0l-3.46-3.053c-.339-.299-.1-.809.379-.809z"/>
  <path fill="#646464" d="M21.828 47.86V37.196h3.01c.928 0 1.748.205 2.461.616.713.41 1.262.993 1.648 1.75.39.757.588 1.626.593 2.607v.682c0 1.005-.195 1.887-.586 2.644a4.067 4.067 0 01-1.662 1.743c-.718.405-1.555.613-2.513.622h-2.951zm1.406-9.507v8.357h1.48c1.084 0 1.926-.337 2.527-1.01.605-.674.908-1.634.908-2.879V42.2c0-1.211-.286-2.151-.857-2.82-.567-.674-1.372-1.016-2.417-1.026h-1.64zm13.118 9.507c-.078-.156-.142-.434-.19-.835-.63.655-1.383.982-2.256.982-.782 0-1.424-.22-1.927-.66-.498-.444-.747-1.005-.747-1.684 0-.825.313-1.465.938-1.919.63-.459 1.513-.688 2.651-.688h1.318v-.623c0-.474-.141-.85-.424-1.128-.284-.283-.701-.425-1.253-.425-.483 0-.889.122-1.216.367-.327.244-.49.54-.49.886h-1.363c0-.396.14-.777.418-1.143a2.895 2.895 0 011.142-.879 3.87 3.87 0 011.59-.322c.913 0 1.628.23 2.146.688.517.455.786 1.082.805 1.883v3.647c0 .728.093 1.306.279 1.736v.117h-1.421zm-2.249-1.032c.425 0 .828-.11 1.209-.33.38-.22.657-.505.827-.857v-1.626h-1.062c-1.66 0-2.49.486-2.49 1.458 0 .425.142.757.425.996.283.239.647.359 1.091.359zm7.354-8.811v1.918h1.48v1.048h-1.48v4.915c0 .317.066.556.197.717.132.157.357.235.674.235.157 0 .371-.03.645-.088v1.098a3.93 3.93 0 01-1.04.147c-.606 0-1.062-.183-1.37-.55-.307-.366-.461-.886-.461-1.56v-4.914h-1.443v-1.047h1.443v-1.92h1.355zm7.961 9.843c-.078-.156-.141-.434-.19-.835-.63.655-1.382.982-2.256.982-.781 0-1.423-.22-1.926-.66-.498-.444-.747-1.005-.747-1.684 0-.825.312-1.465.937-1.919.63-.459 1.514-.688 2.652-.688h1.318v-.623c0-.474-.142-.85-.425-1.128-.283-.283-.7-.425-1.252-.425-.484 0-.89.122-1.216.367-.327.244-.491.54-.491.886H44.46c0-.396.139-.777.417-1.143a2.895 2.895 0 011.143-.879 3.87 3.87 0 011.59-.322c.912 0 1.627.23 2.145.688.518.455.786 1.082.806 1.883v3.647c0 .728.093 1.306.278 1.736v.117h-1.42zm-2.248-1.032c.424 0 .827-.11 1.208-.33.381-.22.657-.505.828-.857v-1.626h-1.062c-1.66 0-2.49.486-2.49 1.458 0 .425.141.757.424.996.284.239.647.359 1.092.359zm12.59-3.721c-1.206-.347-2.085-.772-2.637-1.274a2.458 2.458 0 01-.82-1.875c0-.84.335-1.534 1.003-2.08.674-.552 1.548-.828 2.623-.828.732 0 1.384.141 1.955.425.576.283 1.02.673 1.333 1.172a2.98 2.98 0 01.476 1.633H62.28c0-.645-.206-1.15-.616-1.516-.41-.371-.989-.557-1.736-.557-.693 0-1.235.154-1.625.462-.386.302-.58.725-.58 1.267 0 .434.184.803.55 1.105.371.298.999.572 1.883.82.888.25 1.581.526 2.08.829.503.297.874.646 1.113 1.047.244.4.366.871.366 1.413 0 .865-.337 1.558-1.01 2.08-.674.518-1.575.777-2.703.777a5.05 5.05 0 01-2.051-.418c-.635-.283-1.126-.669-1.472-1.157a2.83 2.83 0 01-.513-1.663h1.414c0 .645.236 1.155.71 1.531.479.371 1.116.557 1.912.557.742 0 1.31-.151 1.706-.454.396-.303.593-.715.593-1.238 0-.522-.183-.925-.549-1.209-.366-.288-1.03-.57-1.992-.85zm5.193.718c0-.777.151-1.475.454-2.095.308-.62.732-1.099 1.274-1.436.547-.336 1.17-.505 1.868-.505 1.08 0 1.95.374 2.615 1.12.669.748 1.003 1.741 1.003 2.982v.095c0 .771-.149 1.465-.447 2.08a3.338 3.338 0 01-1.267 1.428c-.547.342-1.176.513-1.89.513-1.073 0-1.945-.374-2.614-1.12-.664-.748-.996-1.737-.996-2.967v-.095zm1.362.16c0 .88.203 1.585.608 2.117.41.533.957.799 1.64.799.69 0 1.236-.269 1.641-.806.406-.542.608-1.299.608-2.27 0-.87-.207-1.573-.622-2.11-.41-.542-.957-.813-1.64-.813-.67 0-1.21.267-1.62.799-.41.532-.615 1.294-.615 2.285zm12.444 3.092c-.527.62-1.301.93-2.322.93-.844 0-1.489-.244-1.933-.733-.44-.493-.662-1.22-.667-2.182v-5.157h1.355v5.12c0 1.201.488 1.802 1.465 1.802 1.035 0 1.724-.386 2.065-1.157v-5.765h1.355v7.925h-1.289l-.029-.783zm7.214-5.926a4.059 4.059 0 00-.666-.05c-.889 0-1.492.377-1.81 1.134v5.625h-1.354v-7.925h1.318l.022.916c.444-.708 1.074-1.062 1.89-1.062.263 0 .464.034.6.103v1.26zm4.285 5.75c.484 0 .906-.147 1.267-.44.361-.292.562-.659.6-1.098h1.282c-.024.454-.18.886-.468 1.296a3.08 3.08 0 01-1.157.982 3.305 3.305 0 01-1.524.366c-1.079 0-1.938-.36-2.578-1.077-.635-.722-.952-1.709-.952-2.959v-.227c0-.771.141-1.457.425-2.058.283-.6.688-1.067 1.215-1.399.533-.332 1.16-.498 1.883-.498.888 0 1.626.266 2.212.798.59.533.905 1.223.945 2.073h-1.282c-.04-.512-.235-.932-.586-1.26-.347-.332-.777-.498-1.29-.498-.688 0-1.222.25-1.603.747-.376.494-.564 1.209-.564 2.146v.257c0 .913.188 1.616.564 2.11.376.492.913.739 1.611.739zm7.962 1.106c-1.075 0-1.949-.352-2.623-1.055-.673-.708-1.01-1.653-1.01-2.834v-.25c0-.785.149-1.486.446-2.101.303-.62.723-1.104 1.26-1.45a3.169 3.169 0 011.758-.528c1.03 0 1.831.34 2.402 1.018.572.679.857 1.65.857 2.915v.564h-5.368c.02.781.246 1.414.68 1.897.44.479.997.718 1.67.718.48 0 .885-.098 1.216-.293.333-.195.623-.454.872-.776l.828.644c-.664 1.02-1.66 1.53-2.989 1.53zm-.169-7.105c-.547 0-1.006.2-1.377.6-.371.396-.6.953-.688 1.67h3.97v-.102c-.04-.688-.225-1.22-.557-1.596-.332-.381-.782-.572-1.348-.572zm4.79 6.248c0-.234.068-.43.205-.586.142-.156.352-.234.63-.234s.488.078.63.234c.146.156.22.352.22.586a.781.781 0 01-.22.564c-.142.151-.352.227-.63.227s-.488-.076-.63-.227a.809.809 0 01-.205-.564zm.007-6.467a.86.86 0 01.205-.586c.142-.157.352-.235.63-.235.279 0 .489.078.63.235.147.156.22.351.22.586a.777.777 0 01-.22.564c-.141.15-.351.227-.63.227-.278 0-.488-.076-.63-.227a.814.814 0 01-.205-.564z"/>
  <path fill="#F3652B" d="M111.63 40.66l-2.212-.658.337-1.107 2.212.82-.066-2.519h1.121l-.074 2.556 2.176-.805.337 1.113-2.249.667 1.45 1.984-.908.689-1.362-2.11-1.319 2.059-.915-.667 1.472-2.021z"/>
  <path fill="#646464" d="M37.856 81.931h-4.622v3.78h5.369v1.15h-6.775V76.195h6.701v1.157h-5.295v3.428h4.622v1.15zm1.809.901c0-1.216.288-2.192.864-2.93.576-.742 1.33-1.113 2.263-1.113.928 0 1.663.317 2.205.952v-4.13h1.355v11.25h-1.245l-.066-.85c-.542.664-1.297.996-2.263.996-.918 0-1.668-.376-2.249-1.128-.576-.752-.864-1.734-.864-2.944v-.103zm1.355.154c0 .898.185 1.601.556 2.11.371.507.884.76 1.538.76.86 0 1.487-.385 1.883-1.156v-3.64c-.405-.748-1.028-1.121-1.868-1.121-.664 0-1.181.256-1.553.769-.37.513-.556 1.272-.556 2.278zm7.119-.154c0-1.235.286-2.217.857-2.944.571-.733 1.328-1.099 2.27-1.099.967 0 1.721.342 2.264 1.025l.066-.878h1.237v7.734c0 1.025-.305 1.833-.915 2.424-.606.591-1.421.887-2.447.887-.57 0-1.13-.123-1.677-.367-.547-.244-.964-.578-1.252-1.003l.703-.813c.58.718 1.291 1.076 2.131 1.076.66 0 1.172-.185 1.538-.556.371-.371.557-.894.557-1.567v-.682c-.542.625-1.282.938-2.22.938-.927 0-1.679-.374-2.255-1.12-.571-.748-.857-1.766-.857-3.055zm1.362.154c0 .893.183 1.596.55 2.11.366.507.878.76 1.538.76.854 0 1.482-.387 1.882-1.164v-3.618c-.415-.757-1.038-1.135-1.868-1.135-.659 0-1.174.256-1.545.769s-.557 1.272-.557 2.278zm10.672 4.02c-1.075 0-1.949-.35-2.623-1.054-.673-.708-1.01-1.653-1.01-2.834v-.25c0-.785.149-1.486.447-2.101.302-.62.722-1.104 1.26-1.45a3.169 3.169 0 011.757-.528c1.03 0 1.831.34 2.403 1.018.57.679.856 1.65.856 2.915v.564h-5.368c.02.781.246 1.414.68 1.897.44.479.997.718 1.67.718.48 0 .885-.098 1.217-.293.332-.195.622-.454.871-.776l.828.644c-.664 1.02-1.66 1.53-2.988 1.53zm-.169-7.104c-.547 0-1.006.2-1.377.6-.37.396-.6.953-.688 1.67h3.97v-.102c-.04-.688-.225-1.22-.557-1.596-.332-.381-.781-.572-1.348-.572zm14.656 4.175h-4.468L69.19 86.86h-1.45l4.072-10.664h1.23l4.08 10.664h-1.443l-1.018-2.783zm-4.043-1.157h3.625l-1.816-4.988-1.81 4.988zm14.421.066c0 1.206-.275 2.178-.827 2.915-.552.737-1.3 1.106-2.242 1.106-.961 0-1.718-.305-2.27-.916v3.816h-1.355V78.936h1.238l.066.878c.552-.683 1.318-1.025 2.3-1.025.952 0 1.704.359 2.255 1.077.557.718.835 1.716.835 2.995v.125zm-1.355-.154c0-.893-.19-1.6-.57-2.117-.382-.517-.904-.776-1.568-.776-.82 0-1.436.364-1.846 1.091v3.787c.405.723 1.025 1.084 1.86 1.084.65 0 1.165-.257 1.546-.77.385-.517.578-1.283.578-2.299zm9.778.154c0 1.206-.276 2.178-.828 2.915-.551.737-1.298 1.106-2.24 1.106-.963 0-1.72-.305-2.271-.916v3.816h-1.355V78.936h1.238l.066.878c.551-.683 1.318-1.025 2.3-1.025.952 0 1.704.359 2.255 1.077.557.718.835 1.716.835 2.995v.125zm-1.355-.154c0-.893-.19-1.6-.571-2.117-.38-.517-.903-.776-1.567-.776-.82 0-1.436.364-1.846 1.091v3.787c.405.723 1.025 1.084 1.86 1.084.65 0 1.165-.257 1.546-.77.385-.517.578-1.283.578-2.299zm4.556 4.028h-1.355V75.61h1.355v11.25zm3.647 0h-1.355v-7.924h1.355v7.924zm-1.465-10.026c0-.22.066-.406.198-.557.137-.151.337-.227.6-.227.264 0 .465.076.601.227a.799.799 0 01.205.556c0 .22-.068.403-.205.55-.136.146-.337.22-.6.22-.264 0-.464-.074-.6-.22a.79.79 0 01-.199-.55zm6.819 9.067a1.95 1.95 0 001.267-.44c.362-.293.562-.659.601-1.098h1.282a2.463 2.463 0 01-.469 1.296c-.288.41-.674.737-1.157.982a3.31 3.31 0 01-1.524.366c-1.079 0-1.938-.36-2.578-1.077-.635-.723-.952-1.709-.952-2.959v-.227c0-.771.142-1.457.425-2.058.283-.6.688-1.067 1.216-1.399.532-.332 1.159-.498 1.882-.498.889 0 1.626.266 2.212.798.591.533.906 1.224.945 2.073h-1.282c-.039-.513-.234-.932-.586-1.26-.347-.332-.776-.498-1.289-.498-.688 0-1.223.25-1.604.747-.376.494-.564 1.209-.564 2.146v.257c0 .913.188 1.616.564 2.11.376.492.913.739 1.611.739zm9.566.96c-.078-.157-.142-.435-.191-.836-.63.655-1.382.982-2.256.982-.781 0-1.423-.22-1.926-.66-.498-.444-.747-1.005-.747-1.684 0-.825.313-1.465.938-1.919.63-.459 1.513-.688 2.651-.688h1.318v-.623c0-.474-.141-.85-.424-1.128-.284-.283-.701-.425-1.253-.425-.483 0-.889.122-1.216.367-.327.244-.49.54-.49.886h-1.363c0-.396.139-.777.418-1.143a2.895 2.895 0 011.142-.879 3.876 3.876 0 011.59-.322c.913 0 1.628.23 2.146.689.517.454.786 1.081.805 1.882v3.647c0 .728.093 1.306.279 1.736v.117h-1.421zm-2.249-1.033c.425 0 .828-.11 1.209-.33.381-.22.656-.505.827-.857v-1.626h-1.062c-1.66 0-2.49.486-2.49 1.458 0 .424.142.757.425.996.283.239.647.359 1.091.359zm7.354-8.811v1.919h1.479v1.047h-1.479v4.914c0 .318.066.557.197.718.132.157.357.235.674.235.157 0 .371-.03.645-.088v1.098a3.933 3.933 0 01-1.04.147c-.606 0-1.062-.183-1.37-.55-.307-.366-.461-.886-.461-1.56v-4.914h-1.443v-1.047h1.443v-1.92h1.355zm4.541 9.843h-1.355v-7.924h1.355v7.924zm-1.465-10.026c0-.22.066-.406.198-.557.136-.151.337-.227.6-.227.264 0 .464.076.601.227a.799.799 0 01.205.556c0 .22-.068.403-.205.55-.137.146-.337.22-.601.22-.263 0-.464-.074-.6-.22a.79.79 0 01-.198-.55zm3.281 5.99c0-.776.152-1.474.454-2.094.308-.62.733-1.099 1.275-1.436.547-.337 1.169-.505 1.867-.505 1.079 0 1.951.374 2.615 1.12.669.748 1.004 1.741 1.004 2.982v.095c0 .771-.149 1.465-.447 2.08a3.342 3.342 0 01-1.267 1.428c-.547.342-1.177.513-1.89.513-1.074 0-1.946-.374-2.615-1.12-.664-.748-.996-1.737-.996-2.967v-.095zm1.362.162c0 .879.203 1.584.608 2.117.411.532.957.798 1.641.798.688 0 1.235-.269 1.641-.806.405-.542.608-1.299.608-2.27 0-.87-.208-1.573-.623-2.11-.41-.542-.957-.813-1.641-.813-.669 0-1.208.266-1.618.799-.41.532-.616 1.294-.616 2.285zm8.833-4.05l.044.996c.606-.762 1.397-1.143 2.373-1.143 1.675 0 2.52.945 2.535 2.835v5.236h-1.355v-5.244c-.005-.571-.137-.993-.396-1.267-.254-.273-.652-.41-1.194-.41-.439 0-.825.117-1.157.352a2.382 2.382 0 00-.776.922v5.647h-1.355v-7.924h1.281z"/>
  <path fill="#F9F9F9" d="M20.59 157.86h353.376v40H20.59z"/>
  <path fill="#AAA" d="M355.128 175.86h6.924c.479 0 .718.51.379.809l-3.46 3.053a.592.592 0 01-.762 0l-3.46-3.053c-.339-.299-.1-.809.379-.809z"/>
  <path fill="#646464" d="M29.196 134.354h-3.428v9.506H24.37v-9.506h-3.42v-1.158h8.247v1.158zm3.926 9.653c-1.074 0-1.948-.352-2.622-1.055-.674-.708-1.011-1.653-1.011-2.834v-.249c0-.786.149-1.487.447-2.102a3.516 3.516 0 011.26-1.451 3.173 3.173 0 011.757-.527c1.03 0 1.831.339 2.403 1.018.571.679.857 1.651.857 2.915v.564h-5.369c.02.781.247 1.414.681 1.897.44.479.996.718 1.67.718.479 0 .884-.098 1.216-.293.332-.195.622-.454.871-.776l.828.644c-.664 1.021-1.66 1.531-2.988 1.531zm-.169-7.105c-.547 0-1.006.201-1.377.601-.37.395-.6.952-.688 1.67h3.97v-.103c-.04-.688-.225-1.22-.557-1.596-.332-.381-.781-.572-1.348-.572zm6.109-.966l.036.878c.581-.683 1.365-1.025 2.352-1.025 1.108 0 1.862.425 2.263 1.274.263-.38.605-.688 1.025-.922.425-.235.925-.352 1.502-.352 1.738 0 2.622.92 2.65 2.761v5.31h-1.354v-5.229c0-.567-.13-.989-.388-1.267-.26-.283-.694-.425-1.304-.425-.503 0-.92.151-1.252.454-.332.298-.525.701-.58 1.209v5.258h-1.361v-5.193c0-1.152-.564-1.728-1.692-1.728-.889 0-1.497.378-1.824 1.135v5.786H37.78v-7.924h1.282zm18.574 4.05c0 1.206-.276 2.178-.828 2.915-.551.737-1.298 1.106-2.24 1.106-.963 0-1.72-.305-2.271-.916v3.816h-1.355v-10.971h1.237l.066.878c.552-.683 1.319-1.025 2.3-1.025.952 0 1.704.359 2.256 1.077.557.717.835 1.716.835 2.995v.125zm-1.355-.154c0-.894-.19-1.599-.571-2.117-.381-.517-.904-.776-1.568-.776-.82 0-1.435.364-1.845 1.091v3.787c.405.723 1.025 1.084 1.86 1.084.65 0 1.165-.256 1.545-.769.386-.518.579-1.284.579-2.3zm4.556 4.028h-1.355v-11.25h1.355v11.25zm7.067 0c-.078-.156-.141-.434-.19-.835-.63.655-1.382.982-2.256.982-.781 0-1.423-.22-1.926-.659-.498-.445-.747-1.006-.747-1.685 0-.825.312-1.465.937-1.919.63-.459 1.514-.688 2.652-.688h1.318v-.623c0-.474-.141-.85-.425-1.128-.283-.283-.7-.425-1.252-.425-.484 0-.889.122-1.216.367-.327.244-.49.539-.49.886h-1.363c0-.396.14-.777.418-1.143a2.897 2.897 0 011.142-.879 3.867 3.867 0 011.59-.322c.912 0 1.628.23 2.145.689.518.454.787 1.081.806 1.882v3.647c0 .728.093 1.306.278 1.736v.117h-1.42zm-2.248-1.032c.425 0 .828-.11 1.209-.33.38-.22.656-.505.827-.857v-1.626H66.63c-1.66 0-2.49.486-2.49 1.458 0 .424.141.756.425.996.283.239.647.359 1.091.359zm7.353-8.811v1.919h1.48v1.047h-1.48v4.914c0 .318.066.557.198.718.132.156.357.235.674.235.156 0 .371-.03.645-.088v1.098a3.915 3.915 0 01-1.04.147c-.606 0-1.062-.183-1.37-.549-.308-.367-.462-.887-.462-1.561v-4.914h-1.442v-1.047h1.442v-1.919h1.356zm6.358 9.99c-1.074 0-1.948-.352-2.622-1.055-.674-.708-1.01-1.653-1.01-2.834v-.249c0-.786.148-1.487.446-2.102a3.517 3.517 0 011.26-1.451 3.173 3.173 0 011.757-.527c1.03 0 1.832.339 2.403 1.018s.857 1.651.857 2.915v.564h-5.369c.02.781.247 1.414.681 1.897.44.479.996.718 1.67.718.479 0 .884-.098 1.216-.293.332-.195.623-.454.872-.776l.827.644c-.664 1.021-1.66 1.531-2.988 1.531zm-.169-7.105c-.546 0-1.005.201-1.376.601-.372.395-.601.952-.689 1.67h3.97v-.103c-.04-.688-.225-1.22-.557-1.596-.332-.381-.781-.572-1.348-.572zm4.79 6.248c0-.234.069-.43.206-.586.141-.156.351-.234.63-.234.278 0 .488.078.63.234.146.156.22.352.22.586a.78.78 0 01-.22.564c-.142.151-.352.227-.63.227-.279 0-.489-.076-.63-.227a.81.81 0 01-.206-.564zm.008-6.467c0-.235.068-.43.205-.586.142-.157.352-.235.63-.235s.488.078.63.235c.146.156.22.351.22.586a.781.781 0 01-.22.564c-.142.151-.352.227-.63.227-.279 0-.489-.076-.63-.227a.812.812 0 01-.205-.564z"/>
  <path fill="#F3652B" d="M92.778 136.661l-2.212-.66.337-1.105 2.212.82-.066-2.52h1.12l-.073 2.556 2.175-.805.337 1.113-2.248.667 1.45 1.984-.908.689-1.363-2.109-1.318 2.058-.916-.667 1.473-2.021z"/>
  <path fill="#646464" d="M37.856 177.931h-4.622v3.779h5.369v1.15h-6.775v-10.664h6.701v1.158h-5.295v3.427h4.622v1.15zm1.809.901c0-1.216.288-2.192.864-2.93.576-.742 1.33-1.113 2.263-1.113.928 0 1.663.317 2.205.952v-4.131h1.355v11.25h-1.245l-.066-.849c-.542.664-1.297.996-2.263.996-.918 0-1.668-.376-2.249-1.128-.576-.752-.864-1.733-.864-2.944v-.103zm1.355.154c0 .898.185 1.601.556 2.109.371.508.884.762 1.538.762.86 0 1.487-.386 1.883-1.157v-3.64c-.405-.748-1.028-1.121-1.868-1.121-.664 0-1.181.256-1.553.769-.37.513-.556 1.272-.556 2.278zm7.119-.154c0-1.235.286-2.217.857-2.944.571-.733 1.328-1.099 2.27-1.099.967 0 1.721.342 2.264 1.025l.066-.878h1.237v7.734c0 1.025-.305 1.833-.915 2.424-.606.591-1.421.886-2.447.886-.57 0-1.13-.122-1.677-.366-.547-.244-.964-.578-1.252-1.003l.703-.813c.58.718 1.291 1.077 2.131 1.077.66 0 1.172-.186 1.538-.557.371-.371.557-.894.557-1.568v-.681c-.542.625-1.282.938-2.22.938-.927 0-1.679-.374-2.255-1.121-.571-.747-.857-1.765-.857-3.054zm1.362.154c0 .893.183 1.597.55 2.109.366.508.878.762 1.538.762.854 0 1.482-.388 1.882-1.165v-3.618c-.415-.757-1.038-1.135-1.868-1.135-.659 0-1.174.256-1.545.769s-.557 1.272-.557 2.278zm10.672 4.021c-1.075 0-1.949-.352-2.623-1.055-.673-.708-1.01-1.653-1.01-2.834v-.249c0-.786.149-1.487.447-2.102a3.516 3.516 0 011.26-1.451 3.174 3.174 0 011.757-.527c1.03 0 1.831.339 2.403 1.018.57.679.856 1.651.856 2.915v.564h-5.368c.02.781.246 1.414.68 1.897.44.479.997.718 1.67.718.48 0 .885-.098 1.217-.293.332-.195.622-.454.871-.776l.828.644c-.664 1.021-1.66 1.531-2.988 1.531zm-.169-7.105c-.547 0-1.006.201-1.377.601-.37.395-.6.952-.688 1.67h3.97v-.103c-.04-.688-.225-1.22-.557-1.596-.332-.381-.781-.572-1.348-.572zm14.649 2.249h-4.476v4.709h-1.406v-10.664h6.607v1.158h-5.2v3.647h4.475v1.15zm6.928 3.926c-.527.62-1.301.93-2.322.93-.844 0-1.489-.244-1.933-.733-.44-.493-.662-1.22-.667-2.182v-5.156h1.355v5.119c0 1.201.489 1.802 1.465 1.802 1.035 0 1.724-.386 2.066-1.157v-5.764H82.9v7.924h-1.29l-.029-.783zm4.666-7.141l.044.996c.605-.762 1.396-1.143 2.373-1.143 1.675 0 2.52.945 2.534 2.835v5.236h-1.355v-5.244c-.005-.571-.137-.993-.395-1.267-.254-.273-.652-.41-1.194-.41-.44 0-.826.117-1.158.352-.332.234-.59.542-.776.922v5.647h-1.355v-7.924h1.282zm10.173 6.965c.484 0 .906-.147 1.267-.44.362-.293.562-.659.6-1.098h1.283c-.025.454-.181.886-.47 1.296a3.09 3.09 0 01-1.156.982 3.308 3.308 0 01-1.524.366c-1.079 0-1.938-.359-2.578-1.077-.635-.722-.952-1.709-.952-2.959v-.227c0-.771.141-1.457.425-2.058a3.241 3.241 0 011.216-1.399c.532-.332 1.16-.498 1.882-.498.889 0 1.626.266 2.212.798.59.533.906 1.224.945 2.073h-1.282c-.04-.513-.234-.932-.586-1.26-.347-.332-.776-.498-1.29-.498-.688 0-1.222.249-1.603.747-.376.494-.564 1.209-.564 2.146v.257c0 .913.188 1.616.564 2.109.376.493.913.74 1.611.74zm6.511-8.884v1.919h1.48v1.047h-1.48v4.914c0 .318.066.557.198.718.132.156.357.235.674.235.156 0 .371-.03.645-.088v1.098a3.925 3.925 0 01-1.041.147c-.605 0-1.062-.183-1.369-.549-.308-.367-.462-.887-.462-1.561v-4.914h-1.442v-1.047h1.442v-1.919h1.355zm4.541 9.843h-1.355v-7.924h1.355v7.924zm-1.464-10.027c0-.219.065-.405.197-.556.137-.152.337-.227.601-.227.264 0 .464.075.6.227a.799.799 0 01.206.556c0 .22-.069.403-.206.55-.136.146-.336.22-.6.22-.264 0-.464-.074-.601-.22a.791.791 0 01-.197-.55zm3.281 5.992c0-.777.151-1.475.454-2.095.308-.62.732-1.099 1.274-1.436.547-.336 1.17-.505 1.868-.505 1.079 0 1.951.374 2.615 1.121.669.747 1.003 1.74 1.003 2.981v.095c0 .771-.149 1.465-.447 2.08a3.338 3.338 0 01-1.267 1.428c-.547.342-1.176.513-1.889.513-1.075 0-1.946-.374-2.615-1.121-.664-.747-.996-1.736-.996-2.966v-.095zm1.362.161c0 .879.203 1.584.608 2.117.41.532.957.798 1.641.798.688 0 1.235-.269 1.64-.806.406-.542.608-1.299.608-2.27 0-.869-.207-1.573-.622-2.11-.411-.542-.957-.813-1.641-.813-.669 0-1.208.266-1.619.799-.41.532-.615 1.294-.615 2.285zm8.833-4.05l.044.996c.606-.762 1.397-1.143 2.373-1.143 1.675 0 2.52.945 2.534 2.835v5.236h-1.355v-5.244c-.005-.571-.136-.993-.395-1.267-.254-.273-.652-.41-1.194-.41-.439 0-.825.117-1.157.352a2.394 2.394 0 00-.777.922v5.647h-1.355v-7.924h1.282zm11.609 5.822c0-.366-.139-.649-.417-.849-.274-.205-.755-.381-1.443-.528-.684-.146-1.228-.322-1.634-.527-.4-.205-.698-.449-.893-.732a1.768 1.768 0 01-.286-1.011c0-.65.274-1.199.82-1.648.552-.449 1.255-.674 2.11-.674.898 0 1.626.232 2.182.696.562.464.843 1.057.843 1.78h-1.363c0-.371-.158-.691-.476-.96-.312-.268-.708-.403-1.186-.403-.493 0-.879.108-1.157.323a1.011 1.011 0 00-.418.842c0 .327.13.574.388.74.259.166.725.324 1.399.476.679.151 1.228.332 1.648.542.42.21.73.464.93.761.205.293.308.652.308 1.077 0 .708-.283 1.277-.85 1.707-.566.424-1.301.637-2.204.637-.635 0-1.196-.112-1.685-.337a2.783 2.783 0 01-1.15-.938 2.301 2.301 0 01-.41-1.311h1.355c.025.454.205.816.542 1.084.342.264.791.396 1.348.396.512 0 .923-.103 1.23-.308.313-.21.469-.488.469-.835zm13.081-2.827h-4.622v3.779h5.369v1.15h-6.775v-10.664h6.702v1.158h-5.296v3.427h4.622v1.15zm4.71 3.091l1.962-6.086h1.385l-2.842 7.924h-1.033l-2.871-7.924h1.384l2.015 6.086zm7.836 1.985c-1.074 0-1.948-.352-2.622-1.055-.673-.708-1.01-1.653-1.01-2.834v-.249c0-.786.149-1.487.446-2.102a3.52 3.52 0 011.26-1.451 3.174 3.174 0 011.758-.527c1.03 0 1.831.339 2.402 1.018.572.679.857 1.651.857 2.915v.564h-5.368c.019.781.246 1.414.681 1.897.439.479.996.718 1.67.718.478 0 .883-.098 1.216-.293a3.05 3.05 0 00.871-.776l.828.644c-.664 1.021-1.66 1.531-2.989 1.531zm-.168-7.105c-.547 0-1.006.201-1.377.601-.371.395-.601.952-.688 1.67h3.969v-.103c-.039-.688-.224-1.22-.556-1.596-.332-.381-.782-.572-1.348-.572zm6.116-.966l.044.996c.605-.762 1.396-1.143 2.373-1.143 1.675 0 2.519.945 2.534 2.835v5.236h-1.355v-5.244c-.005-.571-.137-.993-.396-1.267-.253-.273-.651-.41-1.193-.41-.44 0-.826.117-1.158.352-.332.234-.59.542-.776.922v5.647h-1.355v-7.924h1.282zm8.833-1.919v1.919h1.479v1.047h-1.479v4.914c0 .318.066.557.197.718.132.156.357.235.674.235.157 0 .371-.03.645-.088v1.098a3.918 3.918 0 01-1.04.147c-.606 0-1.062-.183-1.37-.549-.307-.367-.461-.887-.461-1.561v-4.914h-1.443v-1.047h1.443v-1.919h1.355zm14.846 6.46c-.132 1.127-.549 1.999-1.253 2.614-.698.611-1.628.916-2.79.916-1.26 0-2.271-.452-3.032-1.355-.757-.903-1.136-2.112-1.136-3.626v-1.025c0-.991.176-1.863.528-2.615.356-.752.859-1.328 1.509-1.728.649-.406 1.401-.608 2.255-.608 1.133 0 2.041.317 2.725.952.684.63 1.082 1.504 1.194 2.622h-1.414c-.122-.85-.388-1.465-.798-1.846-.405-.381-.974-.571-1.707-.571-.898 0-1.604.332-2.116.996-.508.664-.762 1.609-.762 2.835v1.032c0 1.158.242 2.078.725 2.762.484.683 1.16 1.025 2.029 1.025.781 0 1.379-.176 1.794-.527.42-.357.699-.975.835-1.853h1.414zm1.355-.652c0-.777.151-1.475.454-2.095.308-.62.732-1.099 1.274-1.436.547-.336 1.17-.505 1.868-.505 1.079 0 1.951.374 2.615 1.121.669.747 1.003 1.74 1.003 2.981v.095c0 .771-.149 1.465-.447 2.08a3.332 3.332 0 01-1.267 1.428c-.546.342-1.176.513-1.889.513-1.074 0-1.946-.374-2.615-1.121-.664-.747-.996-1.736-.996-2.966v-.095zm1.362.161c0 .879.203 1.584.608 2.117.41.532.957.798 1.641.798.688 0 1.235-.269 1.64-.806.406-.542.608-1.299.608-2.27 0-.869-.207-1.573-.622-2.11-.41-.542-.957-.813-1.641-.813-.669 0-1.208.266-1.619.799-.41.532-.615 1.294-.615 2.285zm9.024 3.874h-1.355v-11.25h1.355v11.25zm3.647 0h-1.355v-11.25h1.355v11.25zm5.464.147c-1.074 0-1.948-.352-2.622-1.055-.674-.708-1.011-1.653-1.011-2.834v-.249c0-.786.149-1.487.447-2.102a3.52 3.52 0 011.26-1.451 3.174 3.174 0 011.758-.527c1.03 0 1.831.339 2.402 1.018.571.679.857 1.651.857 2.915v.564h-5.369c.02.781.247 1.414.681 1.897.44.479.996.718 1.67.718.479 0 .884-.098 1.216-.293.332-.195.623-.454.872-.776l.827.644c-.664 1.021-1.66 1.531-2.988 1.531zm-.168-7.105c-.547 0-1.006.201-1.377.601-.372.395-.601.952-.689 1.67h3.97v-.103c-.039-.688-.225-1.22-.557-1.596-.332-.381-.781-.572-1.347-.572zm8.012 5.999a1.95 1.95 0 001.267-.44c.362-.293.562-.659.601-1.098h1.282a2.462 2.462 0 01-.469 1.296c-.288.41-.674.737-1.157.982a3.312 3.312 0 01-1.524.366c-1.079 0-1.938-.359-2.578-1.077-.635-.722-.952-1.709-.952-2.959v-.227c0-.771.142-1.457.425-2.058a3.236 3.236 0 011.216-1.399c.532-.332 1.159-.498 1.882-.498.889 0 1.626.266 2.212.798.591.533.906 1.224.945 2.073h-1.282c-.039-.513-.234-.932-.586-1.26-.347-.332-.776-.498-1.289-.498-.689 0-1.223.249-1.604.747-.376.494-.564 1.209-.564 2.146v.257c0 .913.188 1.616.564 2.109.376.493.913.74 1.611.74zm6.511-8.884v1.919h1.48v1.047h-1.48v4.914c0 .318.066.557.198.718.132.156.357.235.674.235.156 0 .371-.03.645-.088v1.098a3.923 3.923 0 01-1.04.147c-.606 0-1.062-.183-1.37-.549-.308-.367-.462-.887-.462-1.561v-4.914h-1.442v-1.047h1.442v-1.919h1.355zm2.564 5.808c0-.777.151-1.475.454-2.095.308-.62.732-1.099 1.274-1.436.547-.336 1.17-.505 1.868-.505 1.079 0 1.951.374 2.615 1.121.669.747 1.003 1.74 1.003 2.981v.095c0 .771-.149 1.465-.447 2.08a3.332 3.332 0 01-1.267 1.428c-.546.342-1.176.513-1.889.513-1.074 0-1.946-.374-2.615-1.121-.664-.747-.996-1.736-.996-2.966v-.095zm1.362.161c0 .879.203 1.584.608 2.117.41.532.957.798 1.641.798.688 0 1.235-.269 1.64-.806.406-.542.608-1.299.608-2.27 0-.869-.207-1.573-.622-2.11-.41-.542-.957-.813-1.641-.813-.669 0-1.208.266-1.619.799-.41.532-.615 1.294-.615 2.285zm11.382-2.835a4.077 4.077 0 00-.666-.051c-.889 0-1.492.379-1.81 1.135v5.625h-1.355v-7.924h1.319l.022.915c.444-.708 1.074-1.062 1.889-1.062.264 0 .464.034.601.103v1.259z"/>
  <g>
    <path fill="#AAA" fill-rule="evenodd" d="M121.59 132.86c-3.312 0-6 2.688-6 6s2.688 6 6 6 6-2.688 6-6-2.688-6-6-6zm-.6 9v-3.6h1.2v3.6h-1.2zm0-6v1.2h1.2v-1.2h-1.2z" clip-rule="evenodd"/>
  </g>
  <g>
    <path fill="#AAA" fill-rule="evenodd" d="M105.59 228.861c-3.312 0-6 2.688-6 6s2.688 6 6 6 6-2.688 6-6-2.688-6-6-6zm-.6 9v-3.6h1.2v3.6h-1.2zm0-6v1.2h1.2v-1.2h-1.2z" clip-rule="evenodd"/>
  </g>
  <g>
    <path fill="#AAA" fill-rule="evenodd" d="M140.59 36.86c-3.312 0-6 2.688-6 6s2.688 6 6 6 6-2.688 6-6-2.688-6-6-6zm-.6 9v-3.6h1.2v3.6h-1.2zm0-6v1.2h1.2v-1.2h-1.2z" clip-rule="evenodd"/>
  </g>
  <g>
    <path fill="#F9F9F9" d="M20.59 253.861h353.376v178.257H20.59z"/>
    <path fill="#DFDFDF" fill-opacity=".5" d="M20.59 253.861h41v178.257h-41z"/>
    <path fill="#333" d="M42.706 260.261c.456-.176.9-.4 1.332-.672.432-.28.828-.628 1.188-1.044h.792v8.316h-1.116v-6.768a2.99 2.99 0 01-.36.276 4.045 4.045 0 01-.456.276c-.16.088-.332.172-.516.252-.176.08-.348.148-.516.204l-.348-.84zM47.194 278.669c0 .288-.06.568-.18.84a4.024 4.024 0 01-.456.792 9.176 9.176 0 01-.648.768c-.24.248-.48.492-.72.732l-.48.48a8.653 8.653 0 00-.504.576c-.16.2-.296.392-.408.576-.104.184-.156.344-.156.48h3.828v.948h-5.04a.875.875 0 01-.012-.144v-.132c0-.376.06-.724.18-1.044.128-.328.292-.636.492-.924a6.5 6.5 0 01.672-.816c.248-.256.492-.504.732-.744.2-.192.388-.38.564-.564.184-.192.344-.38.48-.564.144-.192.256-.388.336-.588.088-.2.132-.412.132-.636 0-.24-.04-.444-.12-.612a1.151 1.151 0 00-.3-.42 1.135 1.135 0 00-.456-.24 1.697 1.697 0 00-.54-.084c-.232 0-.444.032-.636.096s-.364.14-.516.228c-.152.08-.28.168-.384.264l-.24.204-.552-.792c.072-.08.18-.176.324-.288.144-.12.316-.232.516-.336.2-.104.424-.192.672-.264.248-.072.516-.108.804-.108.872 0 1.524.204 1.956.612.44.4.66.968.66 1.704zM44.302 302.045c.712 0 1.22-.14 1.524-.42.312-.28.468-.656.468-1.128 0-.304-.064-.56-.192-.768a1.414 1.414 0 00-.504-.492 2.04 2.04 0 00-.732-.264 4.155 4.155 0 00-.84-.084h-.288v-.912h.396c.2 0 .404-.02.612-.06.216-.04.412-.112.588-.216s.32-.244.432-.42c.112-.184.168-.412.168-.684 0-.224-.04-.416-.12-.576a1.122 1.122 0 00-.324-.396 1.097 1.097 0 00-.456-.216 1.958 1.958 0 00-.54-.072c-.384 0-.712.056-.984.168a4.338 4.338 0 00-.672.348l-.432-.852c.096-.064.216-.132.36-.204.152-.08.32-.152.504-.216s.38-.116.588-.156c.216-.048.44-.072.672-.072.44 0 .82.056 1.14.168.32.104.584.256.792.456.208.192.364.424.468.696.104.264.156.552.156.864 0 .432-.124.804-.372 1.116a2.464 2.464 0 01-.9.696 2.7 2.7 0 01.624.276c.2.12.372.272.516.456.152.184.272.396.36.636.096.24.144.508.144.804 0 .36-.064.696-.192 1.008-.12.304-.312.568-.576.792-.256.224-.58.4-.972.528s-.856.192-1.392.192c-.208 0-.424-.016-.648-.048a6.917 6.917 0 01-1.116-.264 2.617 2.617 0 01-.312-.12l.216-.972c.136.064.36.148.672.252.32.104.708.156 1.164.156zM42.07 317.981c.152-.352.36-.76.624-1.224.264-.472.56-.956.888-1.452a26.23 26.23 0 011.068-1.464c.384-.48.768-.912 1.152-1.296h1.068v5.28h.984v.912h-.984v2.124h-1.08v-2.124h-3.72v-.756zm3.72-4.116c-.24.256-.484.544-.732.864a19.452 19.452 0 00-1.368 2.04c-.2.36-.38.712-.54 1.056h2.64v-3.96zM43.978 333.749c1.208.048 2.092.312 2.652.792.568.48.852 1.132.852 1.956 0 .368-.064.708-.192 1.02-.12.312-.308.58-.564.804-.248.224-.564.4-.948.528s-.84.192-1.368.192c-.208 0-.42-.016-.636-.048a5.68 5.68 0 01-.6-.12 7.774 7.774 0 01-.492-.144 2.617 2.617 0 01-.312-.12l.216-.972c.136.064.356.148.66.252.312.104.692.156 1.14.156.36 0 .66-.04.9-.12.248-.08.448-.188.6-.324.152-.136.26-.292.324-.468.072-.184.108-.376.108-.576 0-.304-.052-.572-.156-.804a1.319 1.319 0 00-.552-.6c-.264-.16-.616-.28-1.056-.36-.44-.088-.996-.132-1.668-.132.048-.392.084-.76.108-1.104a51.327 51.327 0 00.144-1.98l.048-1.032h4.008v.948h-3.036l-.036.492-.048.636-.048.636a9.366 9.366 0 01-.048.492zM42.346 353.525c0-.808.112-1.52.336-2.136.224-.624.54-1.148.948-1.572a4.027 4.027 0 011.5-.96c.592-.224 1.256-.34 1.992-.348l.084.936c-.472.008-.904.06-1.296.156a3.172 3.172 0 00-1.032.456c-.304.208-.56.48-.768.816-.208.328-.364.736-.468 1.224a3.94 3.94 0 01.696-.24c.264-.064.536-.096.816-.096.472 0 .872.072 1.2.216.328.144.596.336.804.576.208.232.356.504.444.816.096.304.144.624.144.96 0 .304-.052.616-.156.936-.104.32-.264.612-.48.876-.208.264-.476.48-.804.648-.328.168-.716.252-1.164.252-.912 0-1.608-.312-2.088-.936-.472-.624-.708-1.484-.708-2.58zm2.688-.852c-.28 0-.54.028-.78.084a3.57 3.57 0 00-.72.228l-.024.276v.264c0 .352.024.684.072.996.048.312.132.588.252.828.128.232.296.42.504.564.208.136.472.204.792.204.264 0 .488-.056.672-.168a1.47 1.47 0 00.456-.432c.12-.176.204-.364.252-.564.056-.208.084-.408.084-.6 0-.544-.132-.96-.396-1.248-.256-.288-.644-.432-1.164-.432zM43.546 374.861c.048-.64.16-1.312.336-2.016.184-.712.408-1.4.672-2.064.264-.672.552-1.292.864-1.86.32-.576.632-1.044.936-1.404H42.31v-.972h5.292v.924c-.264.304-.556.724-.876 1.26-.32.528-.624 1.124-.912 1.788-.28.656-.524 1.36-.732 2.112a11.41 11.41 0 00-.372 2.232h-1.164zM47.698 390.701c0 .336-.06.648-.18.936-.112.28-.284.528-.516.744a2.259 2.259 0 01-.852.48 3.6 3.6 0 01-1.188.18c-.52 0-.956-.072-1.308-.216a2.477 2.477 0 01-.828-.564 2.003 2.003 0 01-.444-.732 2.5 2.5 0 01-.132-.768c0-.232.036-.452.108-.66.08-.216.18-.416.3-.6.128-.184.272-.348.432-.492.168-.152.344-.284.528-.396-.784-.448-1.176-1.108-1.176-1.98 0-.304.06-.592.18-.864.12-.28.288-.524.504-.732a2.47 2.47 0 01.804-.492c.312-.128.66-.192 1.044-.192.448 0 .832.068 1.152.204.32.136.58.312.78.528.208.208.356.44.444.696.096.256.144.504.144.744 0 .232-.036.452-.108.66-.064.2-.156.388-.276.564a2.233 2.233 0 01-.396.468 3.218 3.218 0 01-.456.36c.944.448 1.424 1.156 1.44 2.124zm-4.32.072c0 .144.024.296.072.456.056.152.148.296.276.432.128.128.292.236.492.324.2.088.452.132.756.132.272 0 .508-.04.708-.12.208-.08.376-.18.504-.3a1.314 1.314 0 00.384-.924c0-.256-.048-.48-.144-.672a1.477 1.477 0 00-.42-.504 2.277 2.277 0 00-.648-.36 5.11 5.11 0 00-.852-.264c-.36.2-.64.448-.84.744-.192.296-.288.648-.288 1.056zm3-4.26c0-.12-.028-.252-.084-.396a1.076 1.076 0 00-.24-.396 1.252 1.252 0 00-.432-.312 1.439 1.439 0 00-.648-.132c-.256 0-.476.04-.66.12-.176.08-.32.184-.432.312-.112.12-.196.256-.252.408a1.359 1.359 0 00-.072.432 1.536 1.536 0 00.396 1.02c.136.152.312.288.528.408.224.12.488.216.792.288.336-.2.604-.432.804-.696.2-.272.3-.624.3-1.056zM47.602 405.869c0 1.648-.412 2.896-1.236 3.744-.816.84-2.032 1.264-3.648 1.272l-.036-.936c.504 0 .956-.048 1.356-.144a3.149 3.149 0 001.068-.456c.304-.216.556-.492.756-.828.208-.336.36-.748.456-1.236a3.86 3.86 0 01-.708.24 3.922 3.922 0 01-.816.084c-.472 0-.872-.068-1.2-.204a2.304 2.304 0 01-.804-.564 2.282 2.282 0 01-.456-.816 3.563 3.563 0 01-.132-.972c0-.296.052-.604.156-.924.104-.32.26-.612.468-.876.216-.264.488-.48.816-.648.328-.168.716-.252 1.164-.252.456 0 .856.08 1.2.24.352.16.644.392.876.696.24.304.42.676.54 1.116.12.432.18.92.18 1.464zm-2.688.828c.28 0 .544-.024.792-.072.248-.056.488-.136.72-.24.008-.088.012-.172.012-.252v-.264a6.47 6.47 0 00-.072-.984 2.458 2.458 0 00-.264-.828 1.411 1.411 0 00-.492-.564c-.208-.144-.472-.216-.792-.216a1.27 1.27 0 00-.672.168 1.47 1.47 0 00-.456.432 1.74 1.74 0 00-.264.564c-.048.2-.072.396-.072.588 0 .544.128.96.384 1.248.264.28.656.42 1.176.42z"/>
    <path fill="#646464" d="M21.828 239.861v-10.664h3.01c.928 0 1.748.205 2.461.615a4.14 4.14 0 011.648 1.75c.39.757.588 1.626.593 2.608v.681c0 1.006-.195 1.887-.586 2.644a4.064 4.064 0 01-1.662 1.743c-.718.406-1.555.613-2.513.623h-2.951zm1.406-9.507v8.357h1.48c1.084 0 1.926-.337 2.527-1.011.605-.674.908-1.633.908-2.878v-.623c0-1.211-.286-2.151-.857-2.82-.567-.673-1.372-1.015-2.417-1.025h-1.64zm13.118 9.507c-.078-.156-.142-.435-.19-.835-.63.654-1.383.981-2.256.981-.782 0-1.424-.219-1.927-.659-.498-.444-.747-1.006-.747-1.684 0-.826.313-1.465.938-1.919.63-.459 1.513-.689 2.651-.689h1.318v-.622c0-.474-.141-.85-.424-1.128-.284-.284-.701-.425-1.253-.425-.483 0-.889.122-1.216.366-.327.244-.49.54-.49.886h-1.363c0-.395.14-.776.418-1.142a2.897 2.897 0 011.142-.879 3.867 3.867 0 011.59-.322c.913 0 1.628.229 2.146.688.517.454.786 1.082.805 1.882v3.648c0 .727.093 1.306.279 1.736v.117h-1.421zm-2.249-1.033c.425 0 .828-.11 1.209-.329.38-.22.657-.506.827-.857v-1.626h-1.062c-1.66 0-2.49.485-2.49 1.457 0 .425.142.757.425.996.283.239.647.359 1.091.359zm7.354-8.811v1.919h1.48v1.047h-1.48v4.915c0 .317.066.557.197.718.132.156.357.234.674.234.157 0 .371-.029.645-.088v1.099a3.954 3.954 0 01-1.04.146c-.606 0-1.062-.183-1.37-.549-.307-.366-.461-.886-.461-1.56v-4.915h-1.443v-1.047h1.443v-1.919h1.355zm7.961 9.844c-.078-.156-.141-.435-.19-.835-.63.654-1.382.981-2.256.981-.781 0-1.423-.219-1.926-.659-.498-.444-.747-1.006-.747-1.684 0-.826.312-1.465.937-1.919.63-.459 1.514-.689 2.652-.689h1.318v-.622c0-.474-.142-.85-.425-1.128-.283-.284-.7-.425-1.252-.425-.484 0-.89.122-1.216.366-.327.244-.491.54-.491.886H44.46c0-.395.139-.776.417-1.142a2.897 2.897 0 011.143-.879 3.867 3.867 0 011.59-.322c.912 0 1.627.229 2.145.688.518.454.786 1.082.806 1.882v3.648c0 .727.093 1.306.278 1.736v.117h-1.42zm-2.248-1.033c.424 0 .827-.11 1.208-.329.381-.22.657-.506.828-.857v-1.626h-1.062c-1.66 0-2.49.485-2.49 1.457 0 .425.141.757.424.996.284.239.647.359 1.092.359zm12.59-3.721c-1.206-.346-2.085-.771-2.637-1.274a2.459 2.459 0 01-.82-1.875c0-.84.335-1.533 1.003-2.08.674-.552 1.548-.828 2.623-.828.732 0 1.384.142 1.955.425.576.283 1.02.674 1.333 1.172.317.498.476 1.042.476 1.633H62.28c0-.644-.206-1.15-.616-1.516-.41-.371-.989-.556-1.736-.556-.693 0-1.235.153-1.625.461-.386.303-.58.725-.58 1.267 0 .435.184.803.55 1.106.371.298.999.571 1.883.82.888.249 1.581.525 2.08.828.503.298.874.647 1.113 1.047.244.401.366.872.366 1.414 0 .864-.337 1.557-1.01 2.08-.674.518-1.575.776-2.703.776a5.056 5.056 0 01-2.051-.417c-.635-.283-1.126-.669-1.472-1.157a2.832 2.832 0 01-.513-1.663h1.414c0 .645.236 1.155.71 1.531.479.371 1.116.556 1.912.556.742 0 1.31-.151 1.706-.454.396-.302.593-.715.593-1.237 0-.523-.183-.926-.549-1.209-.366-.288-1.03-.571-1.992-.85zm8.84 4.9c-1.074 0-1.948-.351-2.622-1.054-.674-.708-1.01-1.653-1.01-2.835v-.249c0-.786.148-1.487.446-2.102a3.52 3.52 0 011.26-1.45 3.165 3.165 0 011.758-.527c1.03 0 1.83.339 2.402 1.018.572.678.857 1.65.857 2.915v.564h-5.368c.019.781.246 1.413.68 1.897.44.478.997.717 1.67.717.48 0 .884-.097 1.216-.293.332-.195.623-.454.872-.776l.828.645c-.664 1.02-1.66 1.53-2.989 1.53zm-.168-7.104c-.547 0-1.006.2-1.377.6-.371.396-.6.953-.689 1.67h3.97v-.102c-.039-.689-.224-1.221-.556-1.597-.332-.381-.782-.571-1.348-.571zm6.672-2.886v1.919h1.48v1.047h-1.48v4.915c0 .317.066.557.198.718.132.156.356.234.674.234.156 0 .37-.029.644-.088v1.099a3.955 3.955 0 01-1.04.146c-.605 0-1.062-.183-1.37-.549-.307-.366-.46-.886-.46-1.56v-4.915h-1.444v-1.047h1.443v-1.919h1.355zm3.025 9.133a.86.86 0 01.205-.586c.142-.156.352-.234.63-.234s.488.078.63.234c.147.157.22.352.22.586a.778.778 0 01-.22.564c-.142.152-.352.227-.63.227s-.488-.075-.63-.227a.809.809 0 01-.205-.564zm.007-6.467c0-.234.069-.43.206-.586.141-.156.351-.234.63-.234.278 0 .488.078.63.234.146.156.219.352.219.586a.778.778 0 01-.22.564c-.141.151-.351.227-.63.227-.278 0-.488-.076-.63-.227a.809.809 0 01-.204-.564z"/>
  </g>
  <g>
    <path fill="#1E1E1E" d="M70.219 271.542c-.864-.245-1.516-.647-1.956-1.209-.434-.557-.651-1.294-.651-2.212v-1.457c0-1.187-.518-1.78-1.553-1.78v-1.062c1.035 0 1.553-.591 1.553-1.773v-1.523c.01-.894.227-1.614.651-2.161.43-.552 1.082-.952 1.956-1.201l.278.842c-1.02.327-1.53 1.18-1.53 2.556v1.48c0 1.108-.408 1.88-1.224 2.314.816.44 1.224 1.219 1.224 2.337v1.509c.014 1.342.525 2.175 1.53 2.497l-.278.843zm69.009 14.608c0-.234.068-.429.205-.586.141-.156.351-.234.63-.234.278 0 .488.078.63.234a.827.827 0 01.219.586.78.78 0 01-.219.564c-.142.152-.352.227-.63.227-.279 0-.489-.075-.63-.227a.808.808 0 01-.205-.564zm.007-6.467c0-.234.068-.43.205-.586.142-.156.352-.234.63-.234s.488.078.63.234c.146.156.22.352.22.586a.78.78 0 01-.22.564c-.142.151-.352.227-.63.227s-.488-.076-.63-.227a.808.808 0 01-.205-.564zm54.939 9.302l-.769-.527c.459-.64.698-1.299.718-1.978v-1.223h1.325v1.062c0 .493-.122.986-.366 1.479-.239.494-.542.889-.908 1.187zm-48.662 15.165c0-.234.068-.429.205-.586.142-.156.352-.234.63-.234s.488.078.63.234c.146.157.22.352.22.586a.78.78 0 01-.22.564c-.142.152-.352.227-.63.227s-.488-.075-.63-.227a.808.808 0 01-.205-.564zm.007-6.467c0-.234.069-.43.205-.586.142-.156.352-.234.63-.234.279 0 .489.078.63.234.147.156.22.352.22.586a.776.776 0 01-.22.564c-.141.151-.351.227-.63.227-.278 0-.488-.076-.63-.227a.812.812 0 01-.205-.564zm61.663 9.302l-.769-.527c.459-.64.698-1.299.718-1.978v-1.223h1.325v1.062c0 .493-.122.986-.366 1.479-.239.494-.542.889-.908 1.187zm-10.693 15.165c0-.234.068-.429.205-.586.141-.156.351-.234.629-.234.279 0 .489.078.63.234.147.157.22.352.22.586a.776.776 0 01-.22.564c-.141.152-.351.227-.63.227-.278 0-.488-.075-.629-.227a.808.808 0 01-.205-.564zm.007-6.467c0-.234.068-.43.205-.586.142-.156.351-.234.63-.234.278 0 .488.078.63.234a.825.825 0 01.219.586.78.78 0 01-.219.564c-.142.151-.352.227-.63.227-.279 0-.488-.076-.63-.227a.808.808 0 01-.205-.564zm85.115 9.302l-.769-.527c.459-.64.698-1.299.717-1.978v-1.223h1.326v1.062c0 .493-.122.986-.366 1.479-.239.494-.542.889-.908 1.187zm-67.735 15.165c0-.234.069-.429.205-.586.142-.156.352-.234.63-.234.279 0 .488.078.63.234.147.157.22.352.22.586a.776.776 0 01-.22.564c-.142.152-.351.227-.63.227-.278 0-.488-.075-.63-.227a.812.812 0 01-.205-.564zm.008-6.467c0-.234.068-.43.205-.586.141-.156.351-.234.63-.234.278 0 .488.078.629.234.147.156.22.352.22.586a.776.776 0 01-.22.564c-.141.151-.351.227-.629.227-.279 0-.489-.076-.63-.227a.808.808 0 01-.205-.564zm138.83 9.302l-.769-.527c.459-.64.698-1.299.718-1.978v-1.223h1.326v1.062c0 .493-.123.986-.367 1.479-.239.494-.542.889-.908 1.187zM173.886 358.15c0-.234.068-.429.205-.586.142-.156.352-.234.63-.234s.488.078.63.234c.146.157.22.352.22.586a.78.78 0 01-.22.564c-.142.152-.352.227-.63.227s-.488-.075-.63-.227a.808.808 0 01-.205-.564zm.007-6.467c0-.234.069-.43.205-.586.142-.156.352-.234.63-.234.279 0 .489.078.63.234.147.156.22.352.22.586a.776.776 0 01-.22.564c-.141.151-.351.227-.63.227-.278 0-.488-.076-.63-.227a.812.812 0 01-.205-.564zm94.549 9.302l-.769-.527c.459-.64.698-1.299.717-1.978v-1.223h1.326v1.062c0 .493-.122.986-.366 1.479-.239.494-.542.889-.908 1.187zM164.98 376.15c0-.234.068-.429.205-.586.141-.156.351-.234.63-.234.278 0 .488.078.63.234a.827.827 0 01.219.586.78.78 0 01-.219.564c-.142.152-.352.227-.63.227-.279 0-.489-.075-.63-.227a.808.808 0 01-.205-.564zm.007-6.467c0-.234.068-.43.205-.586.142-.156.352-.234.63-.234s.488.078.63.234c.146.156.22.352.22.586a.78.78 0 01-.22.564c-.142.151-.352.227-.63.227s-.488-.076-.63-.227a.808.808 0 01-.205-.564zm83.035 9.302l-.769-.527c.459-.64.698-1.299.717-1.978v-1.223h1.326v1.062c0 .493-.122.986-.366 1.479-.239.494-.542.889-.908 1.187zm-56.778 15.165c0-.234.069-.429.205-.586.142-.156.352-.234.63-.234.279 0 .489.078.63.234.147.157.22.352.22.586a.776.776 0 01-.22.564c-.141.152-.351.227-.63.227-.278 0-.488-.075-.63-.227a.812.812 0 01-.205-.564zm.008-6.467c0-.234.068-.43.205-.586.141-.156.351-.234.63-.234.278 0 .488.078.63.234a.825.825 0 01.219.586.78.78 0 01-.219.564c-.142.151-.352.227-.63.227-.279 0-.489-.076-.63-.227a.808.808 0 01-.205-.564zm113.781 9.302l-.769-.527c.459-.64.699-1.299.718-1.978v-1.223h1.326v1.062c0 .493-.122.986-.366 1.479-.24.494-.542.889-.909 1.187zM65.729 414.699c.992-.317 1.504-1.125 1.538-2.424v-1.611c0-1.128.442-1.897 1.326-2.308-.884-.4-1.326-1.169-1.326-2.307v-1.487c0-1.376-.51-2.229-1.53-2.556l.278-.842c.864.244 1.514.642 1.948 1.194.435.547.654 1.272.66 2.175v1.538c0 1.167.517 1.751 1.552 1.751v1.062c-1.035 0-1.553.593-1.553 1.78v1.479c0 .918-.222 1.653-.666 2.205-.44.551-1.087.949-1.941 1.194l-.286-.843z"/>
    <path fill="#168B9D" d="M101.105 276.607l-.22 2.622h-.812l.007-3.618h1.025v.996zm1.978 0l-.22 2.622h-.813l.007-3.618h1.026v.996zm3.662.41v1.919h1.479v1.047h-1.479v4.915c0 .317.066.557.198.718.131.156.356.234.673.234.157 0 .372-.029.645-.088v1.099a3.95 3.95 0 01-1.04.146c-.606 0-1.062-.183-1.37-.549-.307-.366-.461-.886-.461-1.56v-4.915h-1.443v-1.047h1.443v-1.919h1.355zm4.541 9.844h-1.355v-7.925h1.355v7.925zm-1.465-10.027c0-.22.066-.405.198-.557.137-.151.337-.227.6-.227.264 0 .464.076.601.227a.8.8 0 01.205.557.77.77 0 01-.205.549c-.137.147-.337.22-.601.22-.263 0-.463-.073-.6-.22a.788.788 0 01-.198-.549zm4.915 2.102l.036.879c.581-.684 1.365-1.025 2.351-1.025 1.109 0 1.863.424 2.263 1.274a3.012 3.012 0 011.026-.923c.425-.234.925-.351 1.501-.351 1.739 0 2.622.92 2.652 2.761v5.31h-1.355v-5.23c0-.566-.13-.988-.388-1.267-.259-.283-.694-.425-1.304-.425-.503 0-.921.152-1.253.455-.332.297-.525.7-.578 1.208v5.259h-1.363v-5.193c0-1.152-.564-1.729-1.691-1.729-.889 0-1.497.379-1.824 1.136v5.786h-1.355v-7.925h1.282zm15.168 8.071c-1.074 0-1.948-.351-2.622-1.054-.674-.708-1.011-1.653-1.011-2.835v-.249c0-.786.149-1.487.447-2.102a3.523 3.523 0 011.26-1.45 3.166 3.166 0 011.758-.527c1.03 0 1.831.339 2.402 1.018.571.678.857 1.65.857 2.915v.564h-5.369c.02.781.247 1.413.681 1.897.44.478.996.717 1.67.717.479 0 .884-.097 1.216-.293.332-.195.623-.454.872-.776l.827.645c-.664 1.02-1.66 1.53-2.988 1.53zm-.168-7.104c-.547 0-1.006.2-1.377.6-.371.396-.601.953-.689 1.67h3.97v-.102c-.039-.689-.225-1.221-.557-1.597-.332-.381-.781-.571-1.347-.571zm5.734-3.296l-.219 2.622h-.813l.007-3.618h1.025v.996zm1.978 0l-.22 2.622h-.813l.008-3.618h1.025v.996zm-36.343 18l-.22 2.622h-.812l.007-3.618h1.025v.996zm1.978 0l-.22 2.622h-.813l.007-3.618h1.026v.996zm4.563 9.294c.483 0 .906-.146 1.267-.439.361-.293.561-.659.6-1.099h1.282c-.024.454-.18.887-.469 1.297-.288.41-.673.737-1.157.981a3.305 3.305 0 01-1.523.366c-1.079 0-1.939-.359-2.578-1.076-.635-.723-.953-1.709-.953-2.959v-.227c0-.772.142-1.458.425-2.058a3.243 3.243 0 011.216-1.399c.532-.332 1.16-.498 1.882-.498.889 0 1.626.266 2.212.798.591.532.906 1.223.945 2.073h-1.282c-.039-.513-.234-.933-.586-1.26-.346-.332-.776-.498-1.289-.498-.688 0-1.223.249-1.604.747-.376.493-.564 1.208-.564 2.146v.256c0 .913.188 1.616.564 2.11.376.493.914.739 1.612.739zm6.145.96h-1.355v-11.25h1.355v11.25zm3.647 0h-1.355v-7.925h1.355v7.925zm-1.465-10.027c0-.22.066-.405.198-.557.137-.151.337-.227.601-.227.263 0 .464.076.6.227a.8.8 0 01.205.557.77.77 0 01-.205.549c-.136.147-.337.22-.6.22-.264 0-.464-.073-.601-.22a.788.788 0 01-.198-.549zm6.929 10.173c-1.074 0-1.948-.351-2.622-1.054-.674-.708-1.011-1.653-1.011-2.835v-.249c0-.786.149-1.487.447-2.102a3.523 3.523 0 011.26-1.45 3.166 3.166 0 011.758-.527c1.03 0 1.831.339 2.402 1.018.571.678.857 1.65.857 2.915v.564h-5.369c.02.781.247 1.413.681 1.897.44.478.997.717 1.67.717.479 0 .884-.097 1.216-.293.332-.195.623-.454.872-.776l.827.645c-.664 1.02-1.66 1.53-2.988 1.53zm-.168-7.104c-.547 0-1.006.2-1.377.6-.371.396-.601.953-.689 1.67h3.97v-.102c-.039-.689-.225-1.221-.557-1.597-.332-.381-.781-.571-1.347-.571zm6.115-.967l.044.996c.606-.762 1.397-1.142 2.373-1.142 1.675 0 2.52.944 2.535 2.834v5.237h-1.355v-5.244c-.005-.572-.137-.994-.396-1.267-.254-.274-.652-.411-1.194-.411-.439 0-.825.118-1.157.352a2.379 2.379 0 00-.776.923v5.647h-1.355v-7.925h1.281zm8.833-1.919v1.919h1.48v1.047h-1.48v4.915c0 .317.066.557.198.718.132.156.357.234.674.234.156 0 .371-.029.644-.088v1.099a3.95 3.95 0 01-1.04.146c-.605 0-1.062-.183-1.369-.549-.308-.366-.462-.886-.462-1.56v-4.915h-1.442v-1.047h1.442v-1.919h1.355zm4.073-.41l-.22 2.622h-.813l.007-3.618h1.026v.996zm1.977 0l-.22 2.622h-.813l.008-3.618h1.025v.996zm-42.627 18l-.22 2.622h-.812l.007-3.618h1.025v.996zm1.978 0l-.22 2.622h-.813l.007-3.618h1.026v.996zm4.563 9.294c.483 0 .906-.146 1.267-.439.361-.293.561-.659.6-1.099h1.282c-.024.454-.18.887-.469 1.297-.288.41-.673.737-1.157.981a3.305 3.305 0 01-1.523.366c-1.079 0-1.939-.359-2.578-1.076-.635-.723-.953-1.709-.953-2.959v-.227c0-.772.142-1.458.425-2.058a3.243 3.243 0 011.216-1.399c.532-.332 1.16-.498 1.882-.498.889 0 1.626.266 2.212.798.591.532.906 1.223.945 2.073h-1.282c-.039-.513-.234-.933-.586-1.26-.346-.332-.776-.498-1.289-.498-.688 0-1.223.249-1.604.747-.376.493-.564 1.208-.564 2.146v.256c0 .913.188 1.616.564 2.11.376.493.914.739 1.612.739zm4.314-3.076c0-.776.151-1.474.454-2.095.307-.62.732-1.098 1.274-1.435.547-.337 1.17-.505 1.868-.505 1.079 0 1.951.373 2.615 1.12.669.747 1.003 1.741 1.003 2.981v.095c0 .772-.149 1.465-.447 2.08a3.335 3.335 0 01-1.267 1.429c-.547.341-1.177.512-1.889.512-1.075 0-1.946-.373-2.615-1.12-.664-.747-.996-1.736-.996-2.967v-.095zm1.362.161c0 .879.203 1.585.608 2.117.41.532.957.798 1.641.798.688 0 1.235-.268 1.64-.805.405-.542.608-1.299.608-2.271 0-.869-.207-1.572-.622-2.109-.411-.542-.957-.813-1.641-.813-.669 0-1.209.266-1.619.798-.41.532-.615 1.294-.615 2.285zm8.833-4.05l.044.996c.605-.762 1.396-1.142 2.373-1.142 1.675 0 2.52.944 2.534 2.834v5.237h-1.355v-5.244c-.005-.572-.136-.994-.395-1.267-.254-.274-.652-.411-1.194-.411-.44 0-.825.118-1.157.352a2.39 2.39 0 00-.777.923v5.647h-1.355v-7.925h1.282zm7.449 7.925v-6.878h-1.253v-1.047h1.253v-.674c0-.884.251-1.572.754-2.065.508-.493 1.223-.74 2.146-.74.547 0 1.238.149 2.073.447l-.227 1.142c-.61-.244-1.192-.366-1.743-.366-.581 0-1.001.132-1.26.396-.254.258-.381.649-.381 1.172v.688h1.619v1.047h-1.619v6.878h-1.362zm5.647 0h-1.363v-7.925h1.363v7.925zm1.882-4.028c0-1.236.286-2.217.857-2.945.571-.732 1.328-1.098 2.27-1.098.967 0 1.722.341 2.264 1.025l.066-.879h1.237v7.734c0 1.026-.305 1.834-.915 2.425-.606.591-1.421.886-2.446.886a4.08 4.08 0 01-1.678-.366c-.547-.244-.964-.579-1.252-1.004l.703-.813c.581.718 1.292 1.077 2.131 1.077.66 0 1.172-.186 1.538-.557.372-.371.557-.893.557-1.567v-.681c-.542.625-1.282.937-2.219.937-.928 0-1.68-.373-2.256-1.12-.571-.747-.857-1.765-.857-3.054zm1.362.153c0 .894.183 1.597.55 2.11.366.508.879.761 1.538.761.854 0 1.482-.388 1.882-1.164v-3.618c-.415-.757-1.038-1.136-1.868-1.136-.659 0-1.174.257-1.545.769-.371.513-.557 1.272-.557 2.278zm12.276 3.091c-.528.62-1.302.93-2.322.93-.845 0-1.489-.244-1.934-.732-.439-.493-.661-1.221-.666-2.183v-5.156h1.355v5.12c0 1.201.488 1.801 1.465 1.801 1.035 0 1.723-.385 2.065-1.157v-5.764h1.355v7.925H150.8l-.029-.784zm7.214-5.925a4.077 4.077 0 00-.666-.051c-.889 0-1.492.378-1.809 1.135v5.625h-1.355v-7.925h1.318l.022.916c.444-.708 1.074-1.062 1.89-1.062.263 0 .463.034.6.102v1.26zm5.852 6.709c-.078-.156-.141-.435-.19-.835-.63.654-1.382.981-2.256.981-.781 0-1.423-.219-1.926-.659-.498-.444-.747-1.006-.747-1.684 0-.826.312-1.465.937-1.919.63-.459 1.514-.689 2.651-.689h1.319v-.622c0-.474-.142-.85-.425-1.128-.283-.284-.701-.425-1.252-.425-.484 0-.889.122-1.216.366-.327.244-.491.54-.491.886h-1.362c0-.395.139-.776.417-1.142a2.893 2.893 0 011.143-.879 3.864 3.864 0 011.589-.322c.913 0 1.628.229 2.146.688.518.454.786 1.082.806 1.882v3.648c0 .727.093 1.306.278 1.736v.117h-1.421zm-2.248-1.033c.424 0 .827-.11 1.208-.329.381-.22.657-.506.828-.857v-1.626h-1.062c-1.66 0-2.49.485-2.49 1.457 0 .425.141.757.424.996.284.239.647.359 1.092.359zm7.353-8.811v1.919h1.48v1.047h-1.48v4.915c0 .317.066.557.198.718.132.156.356.234.674.234.156 0 .371-.029.644-.088v1.099a3.95 3.95 0 01-1.04.146c-.605 0-1.062-.183-1.369-.549-.308-.366-.462-.886-.462-1.56v-4.915h-1.443v-1.047h1.443v-1.919h1.355zm4.541 9.844h-1.355v-7.925h1.355v7.925zm-1.465-10.027c0-.22.066-.405.198-.557.137-.151.337-.227.601-.227.263 0 .464.076.6.227a.8.8 0 01.205.557.77.77 0 01-.205.549c-.136.147-.337.22-.6.22-.264 0-.464-.073-.601-.22a.788.788 0 01-.198-.549zm3.282 5.991c0-.776.151-1.474.454-2.095.307-.62.732-1.098 1.274-1.435.547-.337 1.17-.505 1.868-.505 1.079 0 1.95.373 2.614 1.12.669.747 1.004 1.741 1.004 2.981v.095c0 .772-.149 1.465-.447 2.08a3.335 3.335 0 01-1.267 1.429c-.547.341-1.177.512-1.89.512-1.074 0-1.945-.373-2.614-1.12-.664-.747-.996-1.736-.996-2.967v-.095zm1.362.161c0 .879.203 1.585.608 2.117.41.532.957.798 1.64.798.689 0 1.236-.268 1.641-.805.405-.542.608-1.299.608-2.271 0-.869-.208-1.572-.623-2.109-.41-.542-.957-.813-1.64-.813-.669 0-1.209.266-1.619.798-.41.532-.615 1.294-.615 2.285zm8.833-4.05l.044.996c.605-.762 1.396-1.142 2.373-1.142 1.675 0 2.519.944 2.534 2.834v5.237h-1.355v-5.244c-.005-.572-.137-.994-.395-1.267-.254-.274-.652-.411-1.194-.411-.44 0-.825.118-1.158.352-.332.234-.59.542-.776.923v5.647h-1.355v-7.925h1.282zm7.236-2.329l-.22 2.622h-.813l.008-3.618h1.025v.996zm1.978 0l-.22 2.622h-.813l.007-3.618h1.026v.996zm-93.604 18l-.22 2.622h-.812l.007-3.618h1.025v.996zm1.978 0l-.22 2.622h-.813l.007-3.618h1.026v.996zm4.673 10.4c-1.075 0-1.949-.351-2.622-1.054-.674-.708-1.011-1.653-1.011-2.835v-.249c0-.786.149-1.487.447-2.102a3.514 3.514 0 011.259-1.45 3.166 3.166 0 011.758-.527c1.03 0 1.831.339 2.403 1.018.571.678.856 1.65.856 2.915v.564h-5.368c.019.781.246 1.413.681 1.897.439.478.996.717 1.67.717.478 0 .884-.097 1.216-.293a3.05 3.05 0 00.871-.776l.828.645c-.664 1.02-1.66 1.53-2.988 1.53zm-.169-7.104c-.547 0-1.006.2-1.377.6-.371.396-.6.953-.688 1.67h3.969v-.102c-.039-.689-.224-1.221-.556-1.597-.332-.381-.781-.571-1.348-.571zm4.505 2.93c0-1.216.288-2.193.864-2.93.576-.742 1.33-1.113 2.263-1.113.928 0 1.663.317 2.205.952v-4.131h1.355v11.25h-1.246l-.065-.85c-.542.664-1.297.996-2.264.996-.918 0-1.667-.376-2.248-1.128-.576-.752-.864-1.733-.864-2.944v-.102zm1.355.153c0 .899.185 1.602.556 2.11.371.508.884.761 1.538.761.86 0 1.487-.385 1.883-1.157v-3.64c-.406-.747-1.028-1.121-1.868-1.121-.664 0-1.182.257-1.553.769-.371.513-.556 1.272-.556 2.278zm7.119-.153c0-1.236.285-2.217.857-2.945.571-.732 1.328-1.098 2.27-1.098.967 0 1.721.341 2.263 1.025l.066-.879h1.238v7.734c0 1.026-.305 1.834-.916 2.425-.605.591-1.42.886-2.446.886-.571 0-1.13-.122-1.677-.366-.547-.244-.964-.579-1.252-1.004l.703-.813c.581.718 1.291 1.077 2.131 1.077.659 0 1.172-.186 1.538-.557.371-.371.557-.893.557-1.567v-.681c-.542.625-1.282.937-2.22.937-.927 0-1.679-.373-2.255-1.12-.572-.747-.857-1.765-.857-3.054zm1.362.153c0 .894.183 1.597.549 2.11.367.508.879.761 1.538.761.855 0 1.482-.388 1.883-1.164v-3.618c-.415-.757-1.038-1.136-1.868-1.136-.659 0-1.174.257-1.545.769-.371.513-.557 1.272-.557 2.278zm10.671 4.021c-1.074 0-1.948-.351-2.622-1.054-.674-.708-1.01-1.653-1.01-2.835v-.249c0-.786.148-1.487.446-2.102a3.523 3.523 0 011.26-1.45 3.166 3.166 0 011.758-.527c1.03 0 1.831.339 2.402 1.018.572.678.857 1.65.857 2.915v.564h-5.368c.019.781.246 1.413.681 1.897.439.478.996.717 1.67.717.478 0 .883-.097 1.215-.293.332-.195.623-.454.872-.776l.828.645c-.664 1.02-1.661 1.53-2.989 1.53zm-.168-7.104c-.547 0-1.006.2-1.377.6-.371.396-.601.953-.689 1.67h3.97v-.102c-.039-.689-.224-1.221-.556-1.597-.332-.381-.782-.571-1.348-.571zm10.928 2.248h-4.475v4.71h-1.407v-10.664h6.607v1.157h-5.2v3.647h4.475v1.15zm6.928 3.926c-.527.62-1.301.93-2.321.93-.845 0-1.49-.244-1.934-.732-.439-.493-.662-1.221-.667-2.183v-5.156h1.355v5.12c0 1.201.489 1.801 1.465 1.801 1.035 0 1.724-.385 2.066-1.157v-5.764h1.355v7.925h-1.289l-.03-.784zm4.666-7.141l.044.996c.605-.762 1.396-1.142 2.373-1.142 1.675 0 2.519.944 2.534 2.834v5.237h-1.355v-5.244c-.005-.572-.137-.994-.395-1.267-.254-.274-.652-.411-1.194-.411-.44 0-.825.118-1.158.352-.332.234-.59.542-.776.923v5.647h-1.355v-7.925h1.282zm10.173 6.965a1.95 1.95 0 001.267-.439c.362-.293.562-.659.601-1.099h1.282a2.465 2.465 0 01-.469 1.297c-.288.41-.674.737-1.157.981a3.312 3.312 0 01-1.524.366c-1.079 0-1.938-.359-2.578-1.076-.635-.723-.952-1.709-.952-2.959v-.227c0-.772.142-1.458.425-2.058a3.236 3.236 0 011.216-1.399c.532-.332 1.159-.498 1.882-.498.889 0 1.626.266 2.212.798.591.532.906 1.223.945 2.073h-1.282c-.039-.513-.234-.933-.586-1.26-.347-.332-.776-.498-1.289-.498-.689 0-1.223.249-1.604.747-.376.493-.564 1.208-.564 2.146v.256c0 .913.188 1.616.564 2.11.376.493.913.739 1.611.739zm6.511-8.884v1.919h1.48v1.047h-1.48v4.915c0 .317.066.557.198.718.132.156.357.234.674.234.156 0 .371-.029.645-.088v1.099a3.962 3.962 0 01-1.04.146c-.606 0-1.062-.183-1.37-.549-.308-.366-.462-.886-.462-1.56v-4.915h-1.442v-1.047h1.442v-1.919h1.355zm4.541 9.844h-1.355v-7.925h1.355v7.925zm-1.464-10.027c0-.22.066-.405.197-.557.137-.151.337-.227.601-.227.264 0 .464.076.601.227a.805.805 0 01.205.557c0 .22-.069.403-.205.549-.137.147-.337.22-.601.22-.264 0-.464-.073-.601-.22a.792.792 0 01-.197-.549zm3.281 5.991c0-.776.151-1.474.454-2.095.308-.62.732-1.098 1.274-1.435.547-.337 1.17-.505 1.868-.505 1.079 0 1.951.373 2.615 1.12.669.747 1.003 1.741 1.003 2.981v.095c0 .772-.149 1.465-.447 2.08a3.335 3.335 0 01-1.267 1.429c-.547.341-1.176.512-1.889.512-1.075 0-1.946-.373-2.615-1.12-.664-.747-.996-1.736-.996-2.967v-.095zm1.362.161c0 .879.203 1.585.608 2.117.41.532.957.798 1.641.798.688 0 1.235-.268 1.64-.805.406-.542.608-1.299.608-2.271 0-.869-.207-1.572-.622-2.109-.41-.542-.957-.813-1.641-.813-.669 0-1.208.266-1.619.798-.41.532-.615 1.294-.615 2.285zm8.833-4.05l.044.996c.606-.762 1.397-1.142 2.373-1.142 1.675 0 2.52.944 2.534 2.834v5.237h-1.355v-5.244c-.005-.572-.136-.994-.395-1.267-.254-.274-.652-.411-1.194-.411-.439 0-.825.118-1.157.352a2.39 2.39 0 00-.777.923v5.647h-1.355v-7.925h1.282zm8.716 7.925H195.5v-10.664h1.406v10.664zm2.578 0v-10.664h3.01c.928 0 1.748.205 2.461.615.713.41 1.263.994 1.648 1.75.391.757.589 1.626.594 2.608v.681c0 1.006-.196 1.887-.586 2.644a4.065 4.065 0 01-1.663 1.743c-.718.406-1.555.613-2.512.623h-2.952zm1.406-9.507v8.357h1.48c1.084 0 1.926-.337 2.527-1.011.605-.674.908-1.633.908-2.878v-.623c0-1.211-.286-2.151-.857-2.82-.566-.673-1.372-1.015-2.417-1.025h-1.641zm9.229-.747l-.22 2.622h-.813l.008-3.618h1.025v.996zm1.977 0l-.219 2.622h-.813l.007-3.618h1.025v.996zm-110.991 18l-.22 2.622h-.812l.007-3.618h1.025v.996zm1.978 0l-.22 2.622h-.813l.007-3.618h1.026v.996zm5.654 3.545a4.077 4.077 0 00-.666-.051c-.889 0-1.492.378-1.81 1.135v5.625h-1.355v-7.925h1.319l.022.916c.444-.708 1.074-1.062 1.889-1.062.264 0 .464.034.601.102v1.26zm4.395 6.855c-1.075 0-1.949-.351-2.622-1.054-.674-.708-1.011-1.653-1.011-2.835v-.249c0-.786.149-1.487.447-2.102a3.514 3.514 0 011.259-1.45 3.166 3.166 0 011.758-.527c1.03 0 1.831.339 2.402 1.018.572.678.857 1.65.857 2.915v.564h-5.368c.019.781.246 1.413.681 1.897.439.478.996.717 1.67.717.478 0 .884-.097 1.216-.293a3.05 3.05 0 00.871-.776l.828.645c-.664 1.02-1.66 1.53-2.988 1.53zm-.169-7.104c-.547 0-1.006.2-1.377.6-.371.396-.6.953-.688 1.67h3.969v-.102c-.039-.689-.224-1.221-.556-1.597-.332-.381-.781-.571-1.348-.571zm4.505 2.93c0-1.246.285-2.229.856-2.952.572-.728 1.338-1.091 2.3-1.091.938 0 1.678.314 2.22.944l.058-.798h1.245v10.972h-1.355v-3.78c-.547.586-1.274.879-2.182.879-.957 0-1.722-.371-2.293-1.113-.566-.747-.849-1.736-.849-2.966v-.095zm1.355.153c0 .909.19 1.621.571 2.139.386.518.903.776 1.553.776.805 0 1.42-.356 1.845-1.069v-3.882c-.429-.698-1.04-1.047-1.831-1.047-.654 0-1.174.261-1.56.784-.386.517-.578 1.284-.578 2.299zm12.392 3.091c-.527.62-1.301.93-2.322.93-.844 0-1.489-.244-1.933-.732-.44-.493-.662-1.221-.667-2.183v-5.156h1.355v5.12c0 1.201.488 1.801 1.465 1.801 1.035 0 1.724-.385 2.065-1.157v-5.764h1.355v7.925h-1.289l-.029-.784zm6.672.93c-1.074 0-1.948-.351-2.622-1.054-.673-.708-1.01-1.653-1.01-2.835v-.249c0-.786.149-1.487.446-2.102a3.523 3.523 0 011.26-1.45 3.166 3.166 0 011.758-.527c1.03 0 1.831.339 2.402 1.018.572.678.857 1.65.857 2.915v.564h-5.368c.019.781.246 1.413.681 1.897.439.478.996.717 1.67.717.478 0 .883-.097 1.216-.293a3.05 3.05 0 00.871-.776l.828.645c-.664 1.02-1.66 1.53-2.989 1.53zm-.168-7.104c-.547 0-1.006.2-1.377.6-.371.396-.601.953-.688 1.67h3.969v-.102c-.039-.689-.224-1.221-.556-1.597-.332-.381-.782-.571-1.348-.571zm9.448 4.856c0-.366-.139-.65-.417-.85-.274-.205-.755-.381-1.443-.527-.684-.147-1.228-.322-1.633-.528-.401-.205-.699-.449-.894-.732a1.771 1.771 0 01-.286-1.011c0-.649.274-1.198.821-1.648.551-.449 1.255-.673 2.109-.673.899 0 1.626.231 2.183.695.561.464.842 1.057.842 1.78h-1.362c0-.371-.159-.691-.476-.959-.313-.269-.708-.403-1.187-.403-.493 0-.879.107-1.157.322a1.016 1.016 0 00-.418.842c0 .328.13.574.389.74.258.166.725.325 1.398.476.679.152 1.229.332 1.648.542.42.21.73.464.931.762.205.293.307.652.307 1.077 0 .708-.283 1.276-.849 1.706-.567.425-1.302.637-2.205.637-.635 0-1.196-.112-1.685-.337a2.771 2.771 0 01-1.149-.937 2.295 2.295 0 01-.411-1.311h1.355c.025.454.205.815.542 1.084.342.264.791.395 1.348.395.513 0 .923-.102 1.23-.307.313-.21.469-.489.469-.835zm4.959-7.742v1.919h1.479v1.047h-1.479v4.915c0 .317.066.557.197.718.132.156.357.234.674.234.157 0 .371-.029.645-.088v1.099a3.957 3.957 0 01-1.04.146c-.606 0-1.062-.183-1.37-.549-.307-.366-.461-.886-.461-1.56v-4.915h-1.443v-1.047h1.443v-1.919h1.355zm4.79 9.844h-1.406v-10.664h1.406v10.664zm2.578 0v-10.664h3.01c.928 0 1.748.205 2.461.615.713.41 1.262.994 1.648 1.75.391.757.588 1.626.593 2.608v.681c0 1.006-.195 1.887-.586 2.644a4.063 4.063 0 01-1.662 1.743c-.718.406-1.555.613-2.512.623h-2.952zm1.406-9.507v8.357h1.48c1.084 0 1.926-.337 2.526-1.011.606-.674.909-1.633.909-2.878v-.623c0-1.211-.286-2.151-.857-2.82-.567-.673-1.372-1.015-2.417-1.025H160.9zm9.229-.747l-.22 2.622h-.813l.007-3.618h1.026v.996zm1.977 0l-.22 2.622h-.813l.008-3.618h1.025v.996zm-71.001 18l-.22 2.622h-.812l.007-3.618h1.025v.996zm1.978 0l-.22 2.622h-.813l.007-3.618h1.026v.996zm3.296 10.254h-1.355v-11.25h1.355v11.25zm1.816-4.036c0-.776.151-1.474.454-2.095.308-.62.733-1.098 1.275-1.435.546-.337 1.169-.505 1.867-.505 1.079 0 1.951.373 2.615 1.12.669.747 1.003 1.741 1.003 2.981v.095c0 .772-.149 1.465-.446 2.08a3.342 3.342 0 01-1.267 1.429c-.547.341-1.177.512-1.89.512-1.074 0-1.946-.373-2.615-1.12-.664-.747-.996-1.736-.996-2.967v-.095zm1.362.161c0 .879.203 1.585.608 2.117.41.532.957.798 1.641.798.688 0 1.235-.268 1.641-.805.405-.542.607-1.299.607-2.271 0-.869-.207-1.572-.622-2.109-.41-.542-.957-.813-1.641-.813-.669 0-1.208.266-1.618.798-.411.532-.616 1.294-.616 2.285zm7.229-.153c0-1.236.286-2.217.857-2.945.572-.732 1.328-1.098 2.271-1.098.967 0 1.721.341 2.263 1.025l.066-.879h1.238v7.734c0 1.026-.305 1.834-.916 2.425-.605.591-1.421.886-2.446.886-.571 0-1.13-.122-1.677-.366-.547-.244-.965-.579-1.253-1.004l.703-.813c.581.718 1.292 1.077 2.132 1.077.659 0 1.172-.186 1.538-.557.371-.371.556-.893.556-1.567v-.681c-.542.625-1.281.937-2.219.937-.928 0-1.68-.373-2.256-1.12-.571-.747-.857-1.765-.857-3.054zm1.363.153c0 .894.183 1.597.549 2.11.366.508.879.761 1.538.761.855 0 1.482-.388 1.882-1.164v-3.618c-.415-.757-1.037-1.136-1.867-1.136-.659 0-1.175.257-1.546.769-.371.513-.556 1.272-.556 2.278zm9.008 2.725h5.054v1.15h-6.467v-10.664h1.413v9.514zm9.734 1.296c-1.074 0-1.948-.351-2.622-1.054-.674-.708-1.01-1.653-1.01-2.835v-.249c0-.786.148-1.487.446-2.102a3.523 3.523 0 011.26-1.45 3.166 3.166 0 011.758-.527c1.03 0 1.831.339 2.402 1.018.572.678.857 1.65.857 2.915v.564h-5.368c.019.781.246 1.413.681 1.897.439.478.996.717 1.67.717.478 0 .883-.097 1.215-.293.332-.195.623-.454.872-.776l.828.645c-.664 1.02-1.661 1.53-2.989 1.53zm-.168-7.104c-.547 0-1.006.2-1.377.6-.371.396-.601.953-.689 1.67h3.97v-.102c-.039-.689-.224-1.221-.556-1.597-.332-.381-.782-.571-1.348-.571zm7.346 5.119l1.963-6.086h1.384l-2.842 7.925h-1.032l-2.871-7.925h1.384l2.014 6.086zm7.837 1.985c-1.074 0-1.948-.351-2.622-1.054-.674-.708-1.011-1.653-1.011-2.835v-.249c0-.786.149-1.487.447-2.102a3.523 3.523 0 011.26-1.45 3.166 3.166 0 011.758-.527c1.03 0 1.831.339 2.402 1.018.571.678.857 1.65.857 2.915v.564h-5.369c.02.781.247 1.413.681 1.897.44.478.996.717 1.67.717.479 0 .884-.097 1.216-.293.332-.195.623-.454.872-.776l.827.645c-.664 1.02-1.66 1.53-2.988 1.53zm-.168-7.104c-.547 0-1.006.2-1.377.6-.371.396-.601.953-.689 1.67h3.97v-.102c-.039-.689-.225-1.221-.557-1.597-.332-.381-.781-.571-1.347-.571zm6.306 6.958h-1.355v-11.25h1.355v11.25zm3.178-10.254l-.219 2.622h-.813l.007-3.618h1.025v.996zm1.978 0l-.22 2.622h-.813l.008-3.618h1.025v.996zm-62.095 18l-.22 2.622h-.812l.007-3.618h1.025v.996zm1.978 0l-.22 2.622h-.813l.007-3.618h1.026v.996zm3.296 10.254h-1.355v-11.25h1.355v11.25zm1.816-4.036c0-.776.151-1.474.454-2.095.308-.62.733-1.098 1.275-1.435.546-.337 1.169-.505 1.867-.505 1.079 0 1.951.373 2.615 1.12.669.747 1.003 1.741 1.003 2.981v.095c0 .772-.149 1.465-.446 2.08a3.342 3.342 0 01-1.267 1.429c-.547.341-1.177.512-1.89.512-1.074 0-1.946-.373-2.615-1.12-.664-.747-.996-1.736-.996-2.967v-.095zm1.362.161c0 .879.203 1.585.608 2.117.41.532.957.798 1.641.798.688 0 1.235-.268 1.641-.805.405-.542.607-1.299.607-2.271 0-.869-.207-1.572-.622-2.109-.41-.542-.957-.813-1.641-.813-.669 0-1.208.266-1.618.798-.411.532-.616 1.294-.616 2.285zm7.229-.153c0-1.236.286-2.217.857-2.945.572-.732 1.328-1.098 2.271-1.098.967 0 1.721.341 2.263 1.025l.066-.879h1.238v7.734c0 1.026-.305 1.834-.916 2.425-.605.591-1.421.886-2.446.886-.571 0-1.13-.122-1.677-.366-.547-.244-.965-.579-1.253-1.004l.703-.813c.581.718 1.292 1.077 2.132 1.077.659 0 1.172-.186 1.538-.557.371-.371.556-.893.556-1.567v-.681c-.542.625-1.281.937-2.219.937-.928 0-1.68-.373-2.256-1.12-.571-.747-.857-1.765-.857-3.054zm1.363.153c0 .894.183 1.597.549 2.11.366.508.879.761 1.538.761.855 0 1.482-.388 1.882-1.164v-3.618c-.415-.757-1.037-1.136-1.867-1.136-.659 0-1.175.257-1.546.769-.371.513-.556 1.272-.556 2.278zm9.411-6.789l3.487 8.701 3.486-8.701h1.824v10.664h-1.407v-4.153l.132-4.482-3.501 8.635h-1.076l-3.494-8.613.139 4.46v4.153h-1.406v-10.664h1.816zm14.356 10.81c-1.074 0-1.948-.351-2.622-1.054-.674-.708-1.011-1.653-1.011-2.835v-.249c0-.786.149-1.487.447-2.102a3.51 3.51 0 011.26-1.45 3.16 3.16 0 011.757-.527c1.031 0 1.831.339 2.403 1.018.571.678.857 1.65.857 2.915v.564h-5.369c.019.781.247 1.413.681 1.897.44.478.996.717 1.67.717.479 0 .884-.097 1.216-.293a3.05 3.05 0 00.871-.776l.828.645c-.664 1.02-1.66 1.53-2.988 1.53zm-.169-7.104c-.547 0-1.006.2-1.377.6-.371.396-.6.953-.688 1.67h3.97v-.102c-.039-.689-.225-1.221-.557-1.597-.332-.381-.781-.571-1.348-.571zm9.449 4.856c0-.366-.14-.65-.418-.85-.273-.205-.754-.381-1.443-.527-.683-.147-1.228-.322-1.633-.528-.4-.205-.698-.449-.894-.732-.19-.283-.285-.62-.285-1.011 0-.649.273-1.198.82-1.648.552-.449 1.255-.673 2.109-.673.899 0 1.626.231 2.183.695.562.464.842 1.057.842 1.78h-1.362c0-.371-.159-.691-.476-.959-.313-.269-.708-.403-1.187-.403-.493 0-.879.107-1.157.322a1.015 1.015 0 00-.417.842c0 .328.129.574.388.74.259.166.725.325 1.399.476.679.152 1.228.332 1.648.542.42.21.73.464.93.762.205.293.308.652.308 1.077 0 .708-.284 1.276-.85 1.706-.566.425-1.301.637-2.205.637-.634 0-1.196-.112-1.684-.337a2.768 2.768 0 01-1.15-.937 2.294 2.294 0 01-.41-1.311h1.355c.024.454.205.815.542 1.084.341.264.791.395 1.347.395.513 0 .923-.102 1.231-.307.312-.21.469-.489.469-.835zm7.734 0c0-.366-.139-.65-.418-.85-.273-.205-.754-.381-1.442-.527-.684-.147-1.228-.322-1.634-.528-.4-.205-.698-.449-.893-.732-.191-.283-.286-.62-.286-1.011 0-.649.274-1.198.82-1.648.552-.449 1.255-.673 2.11-.673.898 0 1.626.231 2.182.695.562.464.843 1.057.843 1.78h-1.363c0-.371-.158-.691-.476-.959-.312-.269-.708-.403-1.186-.403-.493 0-.879.107-1.157.322a1.014 1.014 0 00-.418.842c0 .328.129.574.388.74.259.166.725.325 1.399.476.679.152 1.228.332 1.648.542.42.21.73.464.93.762.205.293.308.652.308 1.077 0 .708-.283 1.276-.85 1.706-.566.425-1.301.637-2.204.637-.635 0-1.197-.112-1.685-.337a2.78 2.78 0 01-1.15-.937 2.301 2.301 0 01-.41-1.311h1.355c.024.454.205.815.542 1.084.342.264.791.395 1.348.395.512 0 .923-.102 1.23-.307.313-.21.469-.489.469-.835zm8.013 2.102c-.078-.156-.142-.435-.191-.835-.63.654-1.382.981-2.256.981-.781 0-1.423-.219-1.926-.659-.498-.444-.747-1.006-.747-1.684 0-.826.312-1.465.937-1.919.63-.459 1.514-.689 2.652-.689h1.318v-.622c0-.474-.141-.85-.425-1.128-.283-.284-.7-.425-1.252-.425-.483 0-.889.122-1.216.366-.327.244-.491.54-.491.886h-1.362c0-.395.139-.776.418-1.142a2.897 2.897 0 011.142-.879 3.869 3.869 0 011.59-.322c.913 0 1.628.229 2.146.688.517.454.786 1.082.805 1.882v3.648c0 .727.093 1.306.279 1.736v.117h-1.421zm-2.249-1.033c.425 0 .828-.11 1.209-.329.38-.22.656-.506.827-.857v-1.626h-1.062c-1.66 0-2.49.485-2.49 1.457 0 .425.142.757.425.996.283.239.647.359 1.091.359zm5.193-2.995c0-1.236.286-2.217.857-2.945.571-.732 1.328-1.098 2.27-1.098.967 0 1.722.341 2.264 1.025l.066-.879h1.237v7.734c0 1.026-.305 1.834-.915 2.425-.606.591-1.421.886-2.447.886-.571 0-1.13-.122-1.677-.366-.547-.244-.964-.579-1.252-1.004l.703-.813c.581.718 1.291 1.077 2.131 1.077.659 0 1.172-.186 1.538-.557.371-.371.557-.893.557-1.567v-.681c-.542.625-1.282.937-2.219.937-.928 0-1.68-.373-2.256-1.12-.571-.747-.857-1.765-.857-3.054zm1.362.153c0 .894.183 1.597.55 2.11.366.508.878.761 1.538.761.854 0 1.482-.388 1.882-1.164v-3.618c-.415-.757-1.038-1.136-1.868-1.136-.659 0-1.174.257-1.545.769-.371.513-.557 1.272-.557 2.278zm10.672 4.021c-1.075 0-1.949-.351-2.622-1.054-.674-.708-1.011-1.653-1.011-2.835v-.249c0-.786.149-1.487.447-2.102a3.514 3.514 0 011.259-1.45 3.166 3.166 0 011.758-.527c1.03 0 1.831.339 2.403 1.018.571.678.856 1.65.856 2.915v.564h-5.368c.019.781.246 1.413.681 1.897.439.478.996.717 1.67.717.478 0 .884-.097 1.216-.293a3.05 3.05 0 00.871-.776l.828.645c-.664 1.02-1.66 1.53-2.988 1.53zm-.169-7.104c-.547 0-1.006.2-1.377.6-.371.396-.6.953-.688 1.67h3.969v-.102c-.039-.689-.224-1.221-.556-1.597-.332-.381-.781-.571-1.348-.571zm5.735-3.296l-.22 2.622h-.813l.008-3.618h1.025v.996zm1.978 0l-.22 2.622h-.813l.007-3.618h1.026v.996z"/>
    <path fill="#128B27" d="M147.629 276.607l-.22 2.622h-.813l.007-3.618h1.026v.996zm1.977 0l-.22 2.622h-.813l.008-3.618h1.025v.996zm7.068 7.507a1.52 1.52 0 00-.476-1.135c-.313-.308-.842-.586-1.589-.835-1.04-.317-1.8-.73-2.278-1.238-.474-.512-.711-1.162-.711-1.948 0-.801.232-1.458.696-1.97.469-.513 1.111-.818 1.926-.916v-1.604h1.092v1.612c.82.112 1.457.456 1.911 1.032.459.576.689 1.365.689 2.366h-1.348c0-.688-.163-1.235-.491-1.641-.327-.405-.769-.608-1.325-.608-.581 0-1.026.152-1.333.455-.308.297-.462.715-.462 1.252 0 .498.161.896.484 1.194.327.293.862.561 1.604.806.747.239 1.328.505 1.743.798.42.288.727.625.923 1.011.2.385.3.837.3 1.355 0 .825-.249 1.489-.747 1.992-.493.503-1.187.801-2.08.893v1.399h-1.084v-1.399c-.908-.083-1.621-.405-2.139-.966-.512-.567-.769-1.333-.769-2.3h1.355c0 .678.178 1.201.535 1.567.356.366.862.549 1.516.549.64 0 1.143-.153 1.509-.461.366-.308.549-.728.549-1.26zm5.017-7.097v1.919h1.48v1.047h-1.48v4.915c0 .317.066.557.198.718.132.156.356.234.674.234.156 0 .371-.029.644-.088v1.099a3.95 3.95 0 01-1.04.146c-.605 0-1.062-.183-1.369-.549-.308-.366-.462-.886-.462-1.56v-4.915h-1.443v-1.047h1.443v-1.919h1.355zm4.541 9.844h-1.355v-7.925h1.355v7.925zm-1.465-10.027c0-.22.066-.405.198-.557.137-.151.337-.227.601-.227.263 0 .464.076.6.227a.8.8 0 01.205.557.77.77 0 01-.205.549c-.136.147-.337.22-.6.22-.264 0-.464-.073-.601-.22a.788.788 0 01-.198-.549zm4.915 2.102l.037.879c.581-.684 1.364-1.025 2.351-1.025 1.108 0 1.862.424 2.263 1.274a3 3 0 011.025-.923c.425-.234.925-.351 1.502-.351 1.738 0 2.622.92 2.651 2.761v5.31h-1.355v-5.23c0-.566-.129-.988-.388-1.267-.259-.283-.694-.425-1.304-.425-.503 0-.92.152-1.252.455-.332.297-.525.7-.579 1.208v5.259h-1.362v-5.193c0-1.152-.564-1.729-1.692-1.729-.889 0-1.497.379-1.824 1.136v5.786H168.4v-7.925h1.282zm15.168 8.071c-1.074 0-1.948-.351-2.622-1.054-.674-.708-1.01-1.653-1.01-2.835v-.249c0-.786.148-1.487.446-2.102a3.523 3.523 0 011.26-1.45 3.166 3.166 0 011.758-.527c1.03 0 1.831.339 2.402 1.018.572.678.857 1.65.857 2.915v.564h-5.368c.019.781.246 1.413.681 1.897.439.478.996.717 1.67.717.478 0 .883-.097 1.215-.293.332-.195.623-.454.872-.776l.828.645c-.664 1.02-1.661 1.53-2.989 1.53zm-.168-7.104c-.547 0-1.006.2-1.377.6-.371.396-.601.953-.689 1.67h3.97v-.102c-.039-.689-.224-1.221-.556-1.597-.332-.381-.782-.571-1.348-.571zm5.735-3.296l-.22 2.622h-.813l.007-3.618h1.026v.996zm1.977 0l-.219 2.622h-.813l.007-3.618h1.025v.996zm-38.481 18l-.22 2.622h-.813l.007-3.618h1.026v.996zm1.977 0l-.219 2.622h-.813l.007-3.618h1.025v.996zm7.068 7.507c0-.449-.158-.827-.476-1.135-.312-.308-.842-.586-1.589-.835-1.04-.317-1.799-.73-2.278-1.238-.474-.512-.71-1.162-.71-1.948 0-.801.231-1.458.695-1.97.469-.513 1.111-.818 1.927-.916v-1.604h1.091v1.612c.82.112 1.457.456 1.912 1.032.459.576.688 1.365.688 2.366h-1.348c0-.688-.163-1.235-.49-1.641-.328-.405-.769-.608-1.326-.608-.581 0-1.025.152-1.333.455-.308.297-.461.715-.461 1.252 0 .498.161.896.483 1.194.327.293.862.561 1.604.806.747.239 1.328.505 1.743.798.42.288.728.625.923 1.011.2.385.3.837.3 1.355 0 .825-.249 1.489-.747 1.992-.493.503-1.186.801-2.08.893v1.399h-1.084v-1.399c-.908-.083-1.621-.405-2.139-.966-.512-.567-.769-1.333-.769-2.3h1.355c0 .678.179 1.201.535 1.567.356.366.862.549 1.516.549.64 0 1.143-.153 1.509-.461.366-.308.549-.728.549-1.26zm6.358 1.787c.483 0 .905-.146 1.267-.439.361-.293.561-.659.6-1.099h1.282a2.457 2.457 0 01-.469 1.297c-.288.41-.673.737-1.157.981a3.305 3.305 0 01-1.523.366c-1.079 0-1.939-.359-2.578-1.076-.635-.723-.953-1.709-.953-2.959v-.227c0-.772.142-1.458.425-2.058a3.243 3.243 0 011.216-1.399c.532-.332 1.16-.498 1.882-.498.889 0 1.626.266 2.212.798.591.532.906 1.223.945 2.073h-1.282c-.039-.513-.234-.933-.586-1.26-.346-.332-.776-.498-1.289-.498-.688 0-1.223.249-1.604.747-.376.493-.564 1.208-.564 2.146v.256c0 .913.188 1.616.564 2.11.376.493.913.739 1.612.739zm6.145.96h-1.355v-11.25h1.355v11.25zm3.647 0h-1.355v-7.925h1.355v7.925zm-1.465-10.027c0-.22.066-.405.198-.557.137-.151.337-.227.601-.227.263 0 .464.076.6.227a.8.8 0 01.205.557.77.77 0 01-.205.549c-.136.147-.337.22-.6.22-.264 0-.464-.073-.601-.22a.788.788 0 01-.198-.549zm6.929 10.173c-1.074 0-1.948-.351-2.622-1.054-.674-.708-1.011-1.653-1.011-2.835v-.249c0-.786.149-1.487.447-2.102a3.523 3.523 0 011.26-1.45 3.166 3.166 0 011.758-.527c1.03 0 1.831.339 2.402 1.018.571.678.857 1.65.857 2.915v.564h-5.369c.02.781.247 1.413.681 1.897.44.478.996.717 1.67.717.479 0 .884-.097 1.216-.293.332-.195.623-.454.872-.776l.827.645c-.664 1.02-1.66 1.53-2.988 1.53zm-.168-7.104c-.547 0-1.006.2-1.377.6-.371.396-.601.953-.689 1.67h3.97v-.102c-.039-.689-.225-1.221-.557-1.597-.332-.381-.781-.571-1.347-.571zm6.115-.967l.044.996c.606-.762 1.397-1.142 2.373-1.142 1.675 0 2.52.944 2.534 2.834v5.237h-1.355v-5.244c-.004-.572-.136-.994-.395-1.267-.254-.274-.652-.411-1.194-.411-.439 0-.825.118-1.157.352a2.379 2.379 0 00-.776.923v5.647h-1.355v-7.925h1.281zm8.833-1.919v1.919h1.48v1.047h-1.48v4.915c0 .317.066.557.198.718.132.156.356.234.674.234.156 0 .371-.029.644-.088v1.099a3.95 3.95 0 01-1.04.146c-.605 0-1.062-.183-1.369-.549-.308-.366-.462-.886-.462-1.56v-4.915h-1.443v-1.047h1.443v-1.919h1.355zm4.073-.41l-.22 2.622h-.813l.007-3.618h1.026v.996zm1.977 0l-.22 2.622h-.813l.008-3.618h1.025v.996z"/>
    <path fill="#00861D" d="M204.889 312.607l-.219 2.622h-.813l.007-3.618h1.025v.996zm1.978 0l-.22 2.622h-.813l.008-3.618h1.025v.996zm7.068 7.507a1.52 1.52 0 00-.476-1.135c-.313-.308-.843-.586-1.59-.835-1.04-.317-1.799-.73-2.277-1.238-.474-.512-.711-1.162-.711-1.948 0-.801.232-1.458.696-1.97.469-.513 1.111-.818 1.926-.916v-1.604h1.091v1.612c.821.112 1.458.456 1.912 1.032.459.576.689 1.365.689 2.366h-1.348c0-.688-.164-1.235-.491-1.641-.327-.405-.769-.608-1.325-.608-.582 0-1.026.152-1.333.455-.308.297-.462.715-.462 1.252 0 .498.161.896.483 1.194.328.293.862.561 1.604.806.748.239 1.329.505 1.744.798.42.288.727.625.923 1.011.2.385.3.837.3 1.355 0 .825-.249 1.489-.747 1.992-.493.503-1.187.801-2.08.893v1.399h-1.084v-1.399c-.909-.083-1.621-.405-2.139-.966-.513-.567-.769-1.333-.769-2.3h1.355c0 .678.178 1.201.535 1.567.356.366.861.549 1.516.549.639 0 1.142-.153 1.508-.461.367-.308.55-.728.55-1.26zm2.856-1.281c0-1.236.286-2.217.857-2.945.571-.732 1.328-1.098 2.271-1.098.966 0 1.721.341 2.263 1.025l.066-.879h1.238v7.734c0 1.026-.306 1.834-.916 2.425-.605.591-1.421.886-2.446.886a4.071 4.071 0 01-1.677-.366c-.547-.244-.965-.579-1.253-1.004l.703-.813c.581.718 1.292 1.077 2.132 1.077.659 0 1.171-.186 1.538-.557.371-.371.556-.893.556-1.567v-.681c-.542.625-1.281.937-2.219.937-.928 0-1.68-.373-2.256-1.12-.571-.747-.857-1.765-.857-3.054zm1.363.153c0 .894.183 1.597.549 2.11.366.508.879.761 1.538.761.854 0 1.482-.388 1.882-1.164v-3.618c-.415-.757-1.037-1.136-1.867-1.136-.66 0-1.175.257-1.546.769-.371.513-.556 1.272-.556 2.278zm8.855 3.875h-1.355v-11.25h1.355v11.25zm1.816-4.036c0-.776.151-1.474.454-2.095.308-.62.732-1.098 1.274-1.435.547-.337 1.17-.505 1.868-.505 1.079 0 1.951.373 2.615 1.12.669.747 1.003 1.741 1.003 2.981v.095c0 .772-.149 1.465-.446 2.08a3.338 3.338 0 01-1.268 1.429c-.546.341-1.176.512-1.889.512-1.074 0-1.946-.373-2.615-1.12-.664-.747-.996-1.736-.996-2.967v-.095zm1.362.161c0 .879.203 1.585.608 2.117.41.532.957.798 1.641.798.688 0 1.235-.268 1.64-.805.406-.542.608-1.299.608-2.271 0-.869-.207-1.572-.622-2.109-.41-.542-.957-.813-1.641-.813-.669 0-1.208.266-1.619.798-.41.532-.615 1.294-.615 2.285zm14.261 0c0 1.211-.279 2.185-.835 2.923-.557.732-1.304 1.098-2.242 1.098-1.001 0-1.775-.354-2.321-1.062l-.066.916h-1.245v-11.25h1.355v4.197c.546-.679 1.301-1.018 2.263-1.018s1.716.363 2.263 1.091c.552.727.828 1.723.828 2.988v.117zm-1.355-.153c0-.923-.179-1.636-.535-2.139-.357-.503-.869-.755-1.538-.755-.894 0-1.536.415-1.926 1.246v3.427c.415.83 1.062 1.245 1.94 1.245.65 0 1.155-.251 1.517-.754.361-.503.542-1.26.542-2.27zm7.961 4.028c-.078-.156-.142-.435-.19-.835-.63.654-1.382.981-2.256.981-.782 0-1.424-.219-1.927-.659-.498-.444-.747-1.006-.747-1.684 0-.826.313-1.465.938-1.919.63-.459 1.513-.689 2.651-.689h1.319v-.622c0-.474-.142-.85-.425-1.128-.283-.284-.701-.425-1.253-.425-.483 0-.888.122-1.216.366-.327.244-.49.54-.49.886h-1.363c0-.395.14-.776.418-1.142a2.893 2.893 0 011.143-.879 3.864 3.864 0 011.589-.322c.913 0 1.628.229 2.146.688.517.454.786 1.082.806 1.882v3.648c0 .727.092 1.306.278 1.736v.117h-1.421zm-2.249-1.033c.425 0 .828-.11 1.209-.329.381-.22.657-.506.828-.857v-1.626h-1.062c-1.661 0-2.491.485-2.491 1.457 0 .425.142.757.425.996.283.239.647.359 1.091.359zm6.988 1.033h-1.355v-11.25h1.355v11.25zm7.888 1.106h-6.709v-1.106h6.709v1.106zm2.527-1.106h-1.355v-7.925h1.355v7.925zm-1.465-10.027c0-.22.066-.405.198-.557.136-.151.337-.227.6-.227.264 0 .464.076.601.227a.8.8 0 01.205.557.77.77 0 01-.205.549c-.137.147-.337.22-.601.22-.263 0-.464-.073-.6-.22a.788.788 0 01-.198-.549zm3.31 5.999c0-1.216.289-2.193.865-2.93.576-.742 1.33-1.113 2.263-1.113.928 0 1.663.317 2.204.952v-4.131h1.355v11.25h-1.245l-.066-.85c-.542.664-1.296.996-2.263.996-.918 0-1.667-.376-2.248-1.128-.576-.752-.865-1.733-.865-2.944v-.102zm1.355.153c0 .899.186 1.602.557 2.11.371.508.884.761 1.538.761.86 0 1.487-.385 1.882-1.157v-3.64c-.405-.747-1.027-1.121-1.867-1.121-.664 0-1.182.257-1.553.769-.371.513-.557 1.272-.557 2.278zm8.445-6.379l-.219 2.622h-.813l.007-3.618h1.025v.996zm1.978 0l-.22 2.622h-.813l.007-3.618h1.026v.996zm-57.554 18l-.22 2.622h-.813l.008-3.618h1.025v.996zm1.978 0l-.22 2.622h-.813l.007-3.618h1.026v.996zm7.068 7.507c0-.449-.159-.827-.477-1.135-.312-.308-.842-.586-1.589-.835-1.04-.317-1.799-.73-2.278-1.238-.473-.512-.71-1.162-.71-1.948 0-.801.232-1.458.696-1.97.468-.513 1.11-.818 1.926-.916v-1.604h1.091v1.612c.82.112 1.458.456 1.912 1.032.459.576.688 1.365.688 2.366h-1.347c0-.688-.164-1.235-.491-1.641-.327-.405-.769-.608-1.326-.608-.581 0-1.025.152-1.333.455-.307.297-.461.715-.461 1.252 0 .498.161.896.483 1.194.327.293.862.561 1.604.806.747.239 1.328.505 1.743.798.42.288.728.625.923 1.011.2.385.3.837.3 1.355 0 .825-.249 1.489-.747 1.992-.493.503-1.186.801-2.08.893v1.399h-1.084v-1.399c-.908-.083-1.621-.405-2.138-.966-.513-.567-.769-1.333-.769-2.3h1.355c0 .678.178 1.201.534 1.567.357.366.862.549 1.516.549.64 0 1.143-.153 1.509-.461.366-.308.55-.728.55-1.26zm6.467 2.893c-1.074 0-1.948-.351-2.622-1.054-.674-.708-1.011-1.653-1.011-2.835v-.249c0-.786.149-1.487.447-2.102a3.51 3.51 0 011.26-1.45 3.162 3.162 0 011.757-.527c1.031 0 1.831.339 2.403 1.018.571.678.857 1.65.857 2.915v.564h-5.369c.019.781.247 1.413.681 1.897.44.478.996.717 1.67.717.479 0 .884-.097 1.216-.293a3.05 3.05 0 00.871-.776l.828.645c-.664 1.02-1.66 1.53-2.988 1.53zm-.169-7.104c-.547 0-1.006.2-1.377.6-.371.396-.6.953-.688 1.67h3.97v-.102c-.039-.689-.225-1.221-.557-1.597-.332-.381-.781-.571-1.348-.571zm4.505 2.93c0-1.216.288-2.193.864-2.93.576-.742 1.331-1.113 2.263-1.113.928 0 1.663.317 2.205.952v-4.131h1.355v11.25h-1.245l-.066-.85c-.542.664-1.297.996-2.263.996-.918 0-1.668-.376-2.249-1.128-.576-.752-.864-1.733-.864-2.944v-.102zm1.355.153c0 .899.185 1.602.556 2.11.371.508.884.761 1.538.761.86 0 1.487-.385 1.883-1.157v-3.64c-.406-.747-1.028-1.121-1.868-1.121-.664 0-1.182.257-1.553.769-.371.513-.556 1.272-.556 2.278zm7.119-.153c0-1.236.285-2.217.857-2.945.571-.732 1.328-1.098 2.27-1.098.967 0 1.721.341 2.263 1.025l.066-.879h1.238v7.734c0 1.026-.305 1.834-.915 2.425-.606.591-1.421.886-2.447.886-.571 0-1.13-.122-1.677-.366-.547-.244-.964-.579-1.252-1.004l.703-.813c.581.718 1.291 1.077 2.131 1.077.659 0 1.172-.186 1.538-.557.371-.371.557-.893.557-1.567v-.681c-.542.625-1.282.937-2.219.937-.928 0-1.68-.373-2.256-1.12-.572-.747-.857-1.765-.857-3.054zm1.362.153c0 .894.183 1.597.549 2.11.367.508.879.761 1.539.761.854 0 1.481-.388 1.882-1.164v-3.618c-.415-.757-1.038-1.136-1.868-1.136-.659 0-1.174.257-1.545.769-.371.513-.557 1.272-.557 2.278zm10.672 4.021c-1.075 0-1.949-.351-2.623-1.054-.673-.708-1.01-1.653-1.01-2.835v-.249c0-.786.149-1.487.447-2.102a3.514 3.514 0 011.259-1.45 3.166 3.166 0 011.758-.527c1.03 0 1.831.339 2.402 1.018.572.678.857 1.65.857 2.915v.564h-5.368c.019.781.246 1.413.681 1.897.439.478.996.717 1.67.717.478 0 .884-.097 1.216-.293a3.05 3.05 0 00.871-.776l.828.645c-.664 1.02-1.66 1.53-2.988 1.53zm-.169-7.104c-.547 0-1.006.2-1.377.6-.371.396-.6.953-.688 1.67h3.969v-.102c-.039-.689-.224-1.221-.556-1.597-.332-.381-.782-.571-1.348-.571zm10.547 8.064h-6.709v-1.106h6.709v1.106zm1.721-1.106v-6.878h-1.252v-1.047h1.252v-.813c0-.85.227-1.506.681-1.97.454-.464 1.096-.696 1.927-.696.312 0 .622.042.93.125l-.073 1.098a3.895 3.895 0 00-.733-.066c-.439 0-.779.13-1.018.388-.239.254-.359.621-.359 1.099v.835h1.692v1.047h-1.692v6.878h-1.355zm9.441-.784c-.527.62-1.301.93-2.322.93-.844 0-1.489-.244-1.933-.732-.44-.493-.662-1.221-.667-2.183v-5.156h1.355v5.12c0 1.201.488 1.801 1.465 1.801 1.035 0 1.724-.385 2.065-1.157v-5.764h1.355v7.925h-1.289l-.029-.784zm4.666-7.141l.044.996c.605-.762 1.396-1.142 2.373-1.142 1.674 0 2.519.944 2.534 2.834v5.237h-1.355v-5.244c-.005-.572-.137-.994-.396-1.267-.254-.274-.652-.411-1.194-.411-.439 0-.825.118-1.157.352a2.379 2.379 0 00-.776.923v5.647h-1.355v-7.925h1.282zm10.173 6.965c.483 0 .906-.146 1.267-.439.361-.293.562-.659.601-1.099h1.281c-.024.454-.18.887-.468 1.297-.288.41-.674.737-1.158.981a3.305 3.305 0 01-1.523.366c-1.079 0-1.939-.359-2.578-1.076-.635-.723-.952-1.709-.952-2.959v-.227c0-.772.141-1.458.424-2.058a3.249 3.249 0 011.216-1.399c.533-.332 1.16-.498 1.883-.498.888 0 1.626.266 2.212.798.59.532.905 1.223.944 2.073h-1.281c-.039-.513-.235-.933-.586-1.26-.347-.332-.777-.498-1.289-.498-.689 0-1.224.249-1.604.747-.376.493-.564 1.208-.564 2.146v.256c0 .913.188 1.616.564 2.11.376.493.913.739 1.611.739zm6.511-8.884v1.919h1.48v1.047h-1.48v4.915c0 .317.066.557.198.718.132.156.356.234.674.234.156 0 .371-.029.644-.088v1.099a3.95 3.95 0 01-1.04.146c-.605 0-1.062-.183-1.369-.549-.308-.366-.462-.886-.462-1.56v-4.915h-1.443v-1.047h1.443v-1.919h1.355zm4.541 9.844h-1.355v-7.925h1.355v7.925zm-1.465-10.027c0-.22.066-.405.198-.557.137-.151.337-.227.601-.227.263 0 .464.076.6.227a.8.8 0 01.205.557.77.77 0 01-.205.549c-.136.147-.337.22-.6.22-.264 0-.464-.073-.601-.22a.788.788 0 01-.198-.549zm3.282 5.991c0-.776.151-1.474.454-2.095.307-.62.732-1.098 1.274-1.435.547-.337 1.17-.505 1.868-.505 1.079 0 1.95.373 2.615 1.12.668.747 1.003 1.741 1.003 2.981v.095c0 .772-.149 1.465-.447 2.08a3.335 3.335 0 01-1.267 1.429c-.547.341-1.177.512-1.89.512-1.074 0-1.945-.373-2.614-1.12-.664-.747-.996-1.736-.996-2.967v-.095zm1.362.161c0 .879.203 1.585.608 2.117.41.532.957.798 1.64.798.689 0 1.236-.268 1.641-.805.405-.542.608-1.299.608-2.271 0-.869-.208-1.572-.623-2.109-.41-.542-.957-.813-1.64-.813-.669 0-1.209.266-1.619.798-.41.532-.615 1.294-.615 2.285zm8.833-4.05l.044.996c.605-.762 1.396-1.142 2.373-1.142 1.675 0 2.519.944 2.534 2.834v5.237h-1.355v-5.244c-.005-.572-.137-.994-.395-1.267-.254-.274-.652-.411-1.194-.411-.44 0-.825.118-1.157.352a2.381 2.381 0 00-.777.923v5.647h-1.355v-7.925h1.282zm12.707 9.031h-6.709v-1.106h6.709v1.106zm2.527-1.106h-1.355v-7.925h1.355v7.925zm-1.465-10.027c0-.22.066-.405.198-.557.137-.151.337-.227.601-.227.263 0 .464.076.6.227a.8.8 0 01.205.557.77.77 0 01-.205.549c-.136.147-.337.22-.6.22-.264 0-.464-.073-.601-.22a.788.788 0 01-.198-.549zm3.311 5.999c0-1.216.288-2.193.864-2.93.576-.742 1.331-1.113 2.263-1.113.928 0 1.663.317 2.205.952v-4.131h1.355v11.25h-1.245l-.066-.85c-.542.664-1.296.996-2.263.996-.918 0-1.668-.376-2.249-1.128-.576-.752-.864-1.733-.864-2.944v-.102zm1.355.153c0 .899.186 1.602.557 2.11.371.508.883.761 1.538.761.859 0 1.487-.385 1.882-1.157v-3.64c-.405-.747-1.028-1.121-1.868-1.121-.664 0-1.181.257-1.552.769-.371.513-.557 1.272-.557 2.278zm8.445-6.379l-.22 2.622h-.813l.007-3.618h1.026v.996zm1.977 0l-.219 2.622h-.813l.007-3.618h1.025v.996zm-168.647 18l-.22 2.622h-.813l.007-3.618h1.026v.996zm1.977 0l-.219 2.622h-.813l.007-3.618h1.025v.996zm7.068 7.507c0-.449-.158-.827-.476-1.135-.312-.308-.842-.586-1.589-.835-1.04-.317-1.799-.73-2.278-1.238-.474-.512-.71-1.162-.71-1.948 0-.801.231-1.458.695-1.97.469-.513 1.111-.818 1.927-.916v-1.604h1.091v1.612c.82.112 1.457.456 1.912 1.032.459.576.688 1.365.688 2.366h-1.348c0-.688-.163-1.235-.49-1.641-.327-.405-.769-.608-1.326-.608-.581 0-1.025.152-1.333.455-.308.297-.461.715-.461 1.252 0 .498.161.896.483 1.194.327.293.862.561 1.604.806.747.239 1.328.505 1.743.798.42.288.728.625.923 1.011.2.385.3.837.3 1.355 0 .825-.249 1.489-.747 1.992-.493.503-1.186.801-2.08.893v1.399h-1.084v-1.399c-.908-.083-1.621-.405-2.139-.966-.512-.567-.769-1.333-.769-2.3h1.355c0 .678.179 1.201.535 1.567.357.366.862.549 1.516.549.64 0 1.143-.153 1.509-.461.366-.308.549-.728.549-1.26zm7.01-3.962a4.098 4.098 0 00-.667-.051c-.889 0-1.492.378-1.809 1.135v5.625h-1.355v-7.925h1.318l.022.916c.445-.708 1.075-1.062 1.89-1.062.264 0 .464.034.601.102v1.26zm4.394 6.855c-1.074 0-1.948-.351-2.622-1.054-.674-.708-1.011-1.653-1.011-2.835v-.249c0-.786.149-1.487.447-2.102a3.523 3.523 0 011.26-1.45 3.166 3.166 0 011.758-.527c1.03 0 1.831.339 2.402 1.018.571.678.857 1.65.857 2.915v.564h-5.369c.02.781.247 1.413.681 1.897.44.478.996.717 1.67.717.479 0 .884-.097 1.216-.293.332-.195.623-.454.872-.776l.827.645c-.664 1.02-1.66 1.53-2.988 1.53zm-.168-7.104c-.547 0-1.006.2-1.377.6-.371.396-.601.953-.689 1.67h3.97v-.102c-.039-.689-.225-1.221-.557-1.597-.332-.381-.781-.571-1.347-.571zm4.504 2.93c0-1.246.286-2.229.857-2.952.571-.728 1.338-1.091 2.3-1.091.937 0 1.677.314 2.219.944l.059-.798h1.245v10.972h-1.355v-3.78c-.547.586-1.275.879-2.183.879-.957 0-1.721-.371-2.292-1.113-.567-.747-.85-1.736-.85-2.966v-.095zm1.355.153c0 .909.19 1.621.571 2.139.386.518.904.776 1.553.776.806 0 1.421-.356 1.846-1.069v-3.882c-.43-.698-1.04-1.047-1.831-1.047-.655 0-1.175.261-1.56.784-.386.517-.579 1.284-.579 2.299zm12.393 3.091c-.528.62-1.302.93-2.322.93-.845 0-1.489-.244-1.934-.732-.439-.493-.661-1.221-.666-2.183v-5.156h1.355v5.12c0 1.201.488 1.801 1.465 1.801 1.035 0 1.723-.385 2.065-1.157v-5.764h1.355v7.925h-1.289l-.029-.784zm6.672.93c-1.074 0-1.948-.351-2.622-1.054-.674-.708-1.011-1.653-1.011-2.835v-.249c0-.786.149-1.487.447-2.102a3.523 3.523 0 011.26-1.45 3.165 3.165 0 011.757-.527c1.031 0 1.832.339 2.403 1.018.571.678.857 1.65.857 2.915v.564h-5.369c.02.781.247 1.413.681 1.897.44.478.996.717 1.67.717.479 0 .884-.097 1.216-.293.332-.195.623-.454.872-.776l.827.645c-.664 1.02-1.66 1.53-2.988 1.53zm-.169-7.104c-.546 0-1.005.2-1.376.6-.372.396-.601.953-.689 1.67h3.97v-.102c-.039-.689-.225-1.221-.557-1.597-.332-.381-.781-.571-1.348-.571zm9.449 4.856c0-.366-.139-.65-.418-.85-.273-.205-.754-.381-1.443-.527-.683-.147-1.228-.322-1.633-.528-.4-.205-.698-.449-.893-.732-.191-.283-.286-.62-.286-1.011 0-.649.273-1.198.82-1.648.552-.449 1.255-.673 2.11-.673.898 0 1.626.231 2.182.695.562.464.842 1.057.842 1.78h-1.362c0-.371-.159-.691-.476-.959-.312-.269-.708-.403-1.186-.403-.494 0-.879.107-1.158.322a1.015 1.015 0 00-.417.842c0 .328.129.574.388.74.259.166.725.325 1.399.476.679.152 1.228.332 1.648.542.42.21.73.464.93.762.205.293.308.652.308 1.077 0 .708-.283 1.276-.85 1.706-.566.425-1.301.637-2.204.637-.635 0-1.197-.112-1.685-.337a2.774 2.774 0 01-1.15-.937 2.301 2.301 0 01-.41-1.311h1.355c.024.454.205.815.542 1.084.342.264.791.395 1.348.395.512 0 .922-.102 1.23-.307.312-.21.469-.489.469-.835zm4.958-7.742v1.919h1.48v1.047h-1.48v4.915c0 .317.066.557.198.718.132.156.356.234.674.234.156 0 .371-.029.644-.088v1.099a3.95 3.95 0 01-1.04.146c-.605 0-1.062-.183-1.369-.549-.308-.366-.462-.886-.462-1.56v-4.915h-1.443v-1.047h1.443v-1.919h1.355zm8.782 10.95h-6.709v-1.106h6.709v1.106zm2.527-1.106h-1.355v-7.925h1.355v7.925zm-1.465-10.027c0-.22.066-.405.198-.557.136-.151.337-.227.6-.227.264 0 .464.076.601.227a.8.8 0 01.205.557.77.77 0 01-.205.549c-.137.147-.337.22-.601.22-.263 0-.464-.073-.6-.22a.788.788 0 01-.198-.549zm3.311 5.999c0-1.216.288-2.193.864-2.93.576-.742 1.33-1.113 2.263-1.113.928 0 1.663.317 2.205.952v-4.131h1.355v11.25h-1.246l-.066-.85c-.541.664-1.296.996-2.263.996-.918 0-1.667-.376-2.248-1.128-.576-.752-.864-1.733-.864-2.944v-.102zm1.355.153c0 .899.185 1.602.556 2.11.371.508.884.761 1.538.761.86 0 1.487-.385 1.883-1.157v-3.64c-.406-.747-1.028-1.121-1.868-1.121-.664 0-1.182.257-1.553.769-.371.513-.556 1.272-.556 2.278zm8.444-6.379l-.219 2.622h-.813l.007-3.618h1.025v.996zm1.978 0l-.22 2.622h-.813l.007-3.618h1.026v.996zm-93.281 18l-.22 2.622h-.813l.007-3.618h1.026v.996zm1.977 0l-.22 2.622h-.813l.008-3.618h1.025v.996zm7.068 7.507a1.52 1.52 0 00-.476-1.135c-.313-.308-.842-.586-1.589-.835-1.04-.317-1.8-.73-2.278-1.238-.474-.512-.711-1.162-.711-1.948 0-.801.232-1.458.696-1.97.469-.513 1.111-.818 1.926-.916v-1.604h1.092v1.612c.82.112 1.457.456 1.911 1.032.459.576.689 1.365.689 2.366h-1.348c0-.688-.163-1.235-.491-1.641-.327-.405-.769-.608-1.325-.608-.581 0-1.026.152-1.333.455-.308.297-.462.715-.462 1.252 0 .498.161.896.484 1.194.327.293.862.561 1.604.806.747.239 1.328.505 1.743.798.42.288.727.625.923 1.011.2.385.3.837.3 1.355 0 .825-.249 1.489-.747 1.992-.493.503-1.187.801-2.08.893v1.399h-1.084v-1.399c-.908-.083-1.621-.405-2.139-.966-.512-.567-.769-1.333-.769-2.3h1.355c0 .678.178 1.201.535 1.567.356.366.862.549 1.516.549.64 0 1.142-.153 1.509-.461.366-.308.549-.728.549-1.26zm4.651 2.747h-1.355v-11.25h1.355v11.25zm1.816-4.036c0-.776.152-1.474.454-2.095.308-.62.733-1.098 1.275-1.435.547-.337 1.169-.505 1.868-.505 1.079 0 1.95.373 2.614 1.12.669.747 1.004 1.741 1.004 2.981v.095c0 .772-.149 1.465-.447 2.08a3.335 3.335 0 01-1.267 1.429c-.547.341-1.177.512-1.89.512-1.074 0-1.946-.373-2.615-1.12-.664-.747-.996-1.736-.996-2.967v-.095zm1.363.161c0 .879.202 1.585.608 2.117.41.532.957.798 1.64.798.689 0 1.236-.268 1.641-.805.405-.542.608-1.299.608-2.271 0-.869-.208-1.572-.623-2.109-.41-.542-.957-.813-1.64-.813-.669 0-1.209.266-1.619.798-.41.532-.615 1.294-.615 2.285zm7.229-.153c0-1.236.285-2.217.857-2.945.571-.732 1.328-1.098 2.27-1.098.967 0 1.721.341 2.263 1.025l.066-.879h1.238v7.734c0 1.026-.305 1.834-.916 2.425-.605.591-1.42.886-2.446.886-.571 0-1.13-.122-1.677-.366-.547-.244-.964-.579-1.253-1.004l.704-.813c.581.718 1.291 1.077 2.131 1.077.659 0 1.172-.186 1.538-.557.371-.371.557-.893.557-1.567v-.681c-.542.625-1.282.937-2.22.937-.927 0-1.679-.373-2.255-1.12-.572-.747-.857-1.765-.857-3.054zm1.362.153c0 .894.183 1.597.549 2.11.366.508.879.761 1.538.761.855 0 1.482-.388 1.883-1.164v-3.618c-.415-.757-1.038-1.136-1.868-1.136-.659 0-1.174.257-1.545.769-.372.513-.557 1.272-.557 2.278zm13.096 4.981h-6.709v-1.106h6.709v1.106zm2.526-1.106h-1.354v-11.25h1.354v11.25zm5.464.146c-1.074 0-1.948-.351-2.622-1.054-.674-.708-1.01-1.653-1.01-2.835v-.249c0-.786.148-1.487.446-2.102a3.523 3.523 0 011.26-1.45 3.166 3.166 0 011.758-.527c1.03 0 1.831.339 2.402 1.018.572.678.857 1.65.857 2.915v.564h-5.368c.019.781.246 1.413.681 1.897.439.478.996.717 1.67.717.478 0 .883-.097 1.215-.293.332-.195.623-.454.872-.776l.828.645c-.664 1.02-1.661 1.53-2.989 1.53zm-.168-7.104c-.547 0-1.006.2-1.377.6-.371.396-.601.953-.689 1.67h3.97v-.102c-.039-.689-.224-1.221-.556-1.597-.332-.381-.782-.571-1.348-.571zm7.346 5.119l1.963-6.086h1.384l-2.842 7.925h-1.032l-2.871-7.925h1.384l2.014 6.086zm7.837 1.985c-1.074 0-1.948-.351-2.622-1.054-.674-.708-1.011-1.653-1.011-2.835v-.249c0-.786.149-1.487.447-2.102a3.523 3.523 0 011.26-1.45 3.166 3.166 0 011.758-.527c1.03 0 1.831.339 2.402 1.018.571.678.857 1.65.857 2.915v.564h-5.369c.02.781.247 1.413.681 1.897.44.478.996.717 1.67.717.479 0 .884-.097 1.216-.293.332-.195.623-.454.872-.776l.827.645c-.664 1.02-1.66 1.53-2.988 1.53zm-.168-7.104c-.547 0-1.006.2-1.377.6-.372.396-.601.953-.689 1.67h3.97v-.102c-.039-.689-.225-1.221-.557-1.597-.332-.381-.781-.571-1.347-.571zm6.306 6.958h-1.355v-11.25h1.355v11.25zm3.178-10.254l-.219 2.622h-.813l.007-3.618h1.025v.996zm1.978 0l-.22 2.622h-.813l.008-3.618h1.025v.996zm-46.597 18l-.219 2.622h-.813l.007-3.618h1.025v.996zm1.978 0l-.22 2.622h-.813l.007-3.618h1.026v.996zm7.068 7.507a1.52 1.52 0 00-.476-1.135c-.313-.308-.843-.586-1.59-.835-1.04-.317-1.799-.73-2.278-1.238-.473-.512-.71-1.162-.71-1.948 0-.801.232-1.458.696-1.97.469-.513 1.111-.818 1.926-.916v-1.604h1.091v1.612c.821.112 1.458.456 1.912 1.032.459.576.688 1.365.688 2.366h-1.347c0-.688-.164-1.235-.491-1.641-.327-.405-.769-.608-1.326-.608-.581 0-1.025.152-1.333.455-.307.297-.461.715-.461 1.252 0 .498.161.896.483 1.194.327.293.862.561 1.604.806.747.239 1.328.505 1.744.798.419.288.727.625.922 1.011.201.385.301.837.301 1.355 0 .825-.249 1.489-.747 1.992-.494.503-1.187.801-2.08.893v1.399h-1.084v-1.399c-.909-.083-1.622-.405-2.139-.966-.513-.567-.769-1.333-.769-2.3h1.355c0 .678.178 1.201.534 1.567.357.366.862.549 1.517.549.639 0 1.142-.153 1.508-.461.367-.308.55-.728.55-1.26zm4.651 2.747h-1.355v-11.25h1.355v11.25zm1.816-4.036c0-.776.151-1.474.454-2.095.308-.62.732-1.098 1.274-1.435.547-.337 1.17-.505 1.868-.505 1.079 0 1.951.373 2.615 1.12.669.747 1.003 1.741 1.003 2.981v.095c0 .772-.149 1.465-.446 2.08a3.338 3.338 0 01-1.268 1.429c-.546.341-1.176.512-1.889.512-1.074 0-1.946-.373-2.615-1.12-.664-.747-.996-1.736-.996-2.967v-.095zm1.362.161c0 .879.203 1.585.608 2.117.41.532.957.798 1.641.798.688 0 1.235-.268 1.64-.805.406-.542.608-1.299.608-2.271 0-.869-.207-1.572-.622-2.109-.41-.542-.957-.813-1.641-.813-.669 0-1.208.266-1.619.798-.41.532-.615 1.294-.615 2.285zm7.229-.153c0-1.236.286-2.217.857-2.945.571-.732 1.328-1.098 2.271-1.098.967 0 1.721.341 2.263 1.025l.066-.879h1.238v7.734c0 1.026-.306 1.834-.916 2.425-.605.591-1.421.886-2.446.886a4.071 4.071 0 01-1.677-.366c-.547-.244-.965-.579-1.253-1.004l.703-.813c.581.718 1.292 1.077 2.132 1.077.659 0 1.171-.186 1.538-.557.371-.371.556-.893.556-1.567v-.681c-.542.625-1.281.937-2.219.937-.928 0-1.68-.373-2.256-1.12-.571-.747-.857-1.765-.857-3.054zm1.363.153c0 .894.183 1.597.549 2.11.366.508.879.761 1.538.761.854 0 1.482-.388 1.882-1.164v-3.618c-.415-.757-1.037-1.136-1.867-1.136-.66 0-1.175.257-1.546.769-.371.513-.556 1.272-.556 2.278zm13.095 4.981h-6.709v-1.106h6.709v1.106zm2.329-9.031l.037.879c.581-.684 1.365-1.025 2.351-1.025 1.108 0 1.863.424 2.263 1.274a3.012 3.012 0 011.026-.923c.424-.234.925-.351 1.501-.351 1.738 0 2.622.92 2.651 2.761v5.31h-1.355v-5.23c0-.566-.129-.988-.388-1.267-.258-.283-.693-.425-1.303-.425-.503 0-.921.152-1.253.455-.332.297-.525.7-.578 1.208v5.259h-1.363v-5.193c0-1.152-.564-1.729-1.692-1.729-.888 0-1.496.379-1.823 1.136v5.786h-1.355v-7.925h1.281zm15.169 8.071c-1.074 0-1.948-.351-2.622-1.054-.674-.708-1.011-1.653-1.011-2.835v-.249c0-.786.149-1.487.447-2.102.303-.62.722-1.103 1.26-1.45a3.162 3.162 0 011.757-.527c1.031 0 1.831.339 2.403 1.018.571.678.857 1.65.857 2.915v.564h-5.369c.02.781.247 1.413.681 1.897.44.478.996.717 1.67.717.479 0 .884-.097 1.216-.293a3.05 3.05 0 00.871-.776l.828.645c-.664 1.02-1.66 1.53-2.988 1.53zm-.169-7.104c-.546 0-1.005.2-1.377.6-.371.396-.6.953-.688 1.67h3.97v-.102c-.039-.689-.225-1.221-.557-1.597-.332-.381-.781-.571-1.348-.571zm9.449 4.856c0-.366-.14-.65-.418-.85-.273-.205-.754-.381-1.443-.527-.683-.147-1.228-.322-1.633-.528-.4-.205-.698-.449-.894-.732-.19-.283-.285-.62-.285-1.011 0-.649.273-1.198.82-1.648.552-.449 1.255-.673 2.109-.673.899 0 1.626.231 2.183.695.562.464.842 1.057.842 1.78h-1.362c0-.371-.159-.691-.476-.959-.313-.269-.708-.403-1.187-.403-.493 0-.878.107-1.157.322a1.015 1.015 0 00-.417.842c0 .328.129.574.388.74.259.166.725.325 1.399.476.679.152 1.228.332 1.648.542.42.21.73.464.93.762.205.293.308.652.308 1.077 0 .708-.284 1.276-.85 1.706-.566.425-1.301.637-2.205.637-.634 0-1.196-.112-1.684-.337a2.774 2.774 0 01-1.15-.937 2.294 2.294 0 01-.41-1.311h1.355c.024.454.205.815.542 1.084.342.264.791.395 1.347.395.513 0 .923-.102 1.231-.307.312-.21.469-.489.469-.835zm7.734 0c0-.366-.139-.65-.417-.85-.274-.205-.755-.381-1.443-.527-.684-.147-1.228-.322-1.634-.528-.4-.205-.698-.449-.893-.732-.191-.283-.286-.62-.286-1.011 0-.649.274-1.198.82-1.648.552-.449 1.255-.673 2.11-.673.898 0 1.626.231 2.182.695.562.464.843 1.057.843 1.78h-1.363c0-.371-.158-.691-.476-.959-.312-.269-.708-.403-1.186-.403-.493 0-.879.107-1.157.322a1.014 1.014 0 00-.418.842c0 .328.13.574.388.74.259.166.725.325 1.399.476.679.152 1.228.332 1.648.542.42.21.73.464.93.762.205.293.308.652.308 1.077 0 .708-.283 1.276-.85 1.706-.566.425-1.301.637-2.204.637-.635 0-1.197-.112-1.685-.337a2.78 2.78 0 01-1.15-.937 2.301 2.301 0 01-.41-1.311h1.355c.025.454.205.815.542 1.084.342.264.791.395 1.348.395.512 0 .923-.102 1.23-.307.313-.21.469-.489.469-.835zm8.013 2.102c-.078-.156-.142-.435-.191-.835-.63.654-1.382.981-2.256.981-.781 0-1.423-.219-1.926-.659-.498-.444-.747-1.006-.747-1.684 0-.826.313-1.465.938-1.919.629-.459 1.513-.689 2.651-.689h1.318v-.622c0-.474-.141-.85-.425-1.128-.283-.284-.7-.425-1.252-.425-.483 0-.889.122-1.216.366-.327.244-.491.54-.491.886h-1.362c0-.395.139-.776.418-1.142a2.897 2.897 0 011.142-.879 3.869 3.869 0 011.59-.322c.913 0 1.628.229 2.146.688.517.454.786 1.082.805 1.882v3.648c0 .727.093 1.306.279 1.736v.117h-1.421zm-2.249-1.033c.425 0 .828-.11 1.209-.329.381-.22.656-.506.827-.857v-1.626h-1.062c-1.66 0-2.49.485-2.49 1.457 0 .425.142.757.425.996.283.239.647.359 1.091.359zm5.193-2.995c0-1.236.286-2.217.857-2.945.571-.732 1.328-1.098 2.27-1.098.967 0 1.722.341 2.264 1.025l.066-.879h1.237v7.734c0 1.026-.305 1.834-.915 2.425-.606.591-1.421.886-2.446.886a4.08 4.08 0 01-1.678-.366c-.547-.244-.964-.579-1.252-1.004l.703-.813c.581.718 1.291 1.077 2.131 1.077.66 0 1.172-.186 1.538-.557.372-.371.557-.893.557-1.567v-.681c-.542.625-1.282.937-2.219.937-.928 0-1.68-.373-2.256-1.12-.571-.747-.857-1.765-.857-3.054zm1.362.153c0 .894.183 1.597.55 2.11.366.508.879.761 1.538.761.854 0 1.482-.388 1.882-1.164v-3.618c-.415-.757-1.038-1.136-1.868-1.136-.659 0-1.174.257-1.545.769-.371.513-.557 1.272-.557 2.278zm10.672 4.021c-1.075 0-1.949-.351-2.622-1.054-.674-.708-1.011-1.653-1.011-2.835v-.249c0-.786.149-1.487.447-2.102a3.514 3.514 0 011.259-1.45 3.166 3.166 0 011.758-.527c1.031 0 1.831.339 2.403 1.018.571.678.857 1.65.857 2.915v.564h-5.369c.019.781.246 1.413.681 1.897.439.478.996.717 1.67.717.478 0 .884-.097 1.216-.293a3.05 3.05 0 00.871-.776l.828.645c-.664 1.02-1.66 1.53-2.988 1.53zm-.169-7.104c-.547 0-1.006.2-1.377.6-.371.396-.6.953-.688 1.67h3.97v-.102c-.04-.689-.225-1.221-.557-1.597-.332-.381-.781-.571-1.348-.571zm5.735-3.296l-.22 2.622h-.813l.008-3.618h1.025v.996zm1.978 0l-.22 2.622h-.813l.007-3.618h1.026v.996z"/>
  </g>
</svg>
