<svg xmlns="http://www.w3.org/2000/svg" fill="none" viewBox="0 0 277 236">
  <rect width="276.192" height="235.072" x=".244" y=".442" fill="#fff" rx="3.45"/>
  <rect width="234" height="40" x="18.802" y="55.06" fill="#F7F7F7" rx="5"/>
  <path fill="#646464" d="M26.067 36.131h-4.621v3.78h5.368v1.15H20.04V30.395h6.702v1.158h-5.295v3.427h4.621v1.15zm3.567-2.995l.044.996c.605-.762 1.396-1.143 2.373-1.143 1.675 0 2.52.945 2.534 2.835v5.236H33.23v-5.244c-.005-.57-.136-.993-.395-1.267-.254-.273-.652-.41-1.194-.41-.44 0-.825.117-1.157.352-.332.234-.591.542-.777.923v5.646h-1.355v-7.924h1.282zm6.665 3.896c0-1.216.288-2.192.864-2.93.577-.742 1.33-1.113 2.264-1.113.927 0 1.662.318 2.204.952v-4.13h1.355v11.25h-1.245l-.066-.85c-.542.664-1.296.996-2.263.996-.918 0-1.668-.376-2.249-1.128-.576-.752-.864-1.733-.864-2.944v-.103zm1.355.154c0 .898.186 1.602.557 2.11.37.507.883.761 1.538.761.86 0 1.487-.386 1.882-1.157v-3.64c-.405-.747-1.028-1.12-1.868-1.12-.664 0-1.181.255-1.552.768s-.557 1.272-.557 2.278zm14.136 0c0 1.206-.276 2.178-.828 2.915-.552.737-1.299 1.106-2.241 1.106-.962 0-1.719-.305-2.27-.916v3.816h-1.355V33.136h1.237l.066.879c.552-.684 1.319-1.026 2.3-1.026.952 0 1.704.36 2.256 1.077.556.718.835 1.716.835 2.995v.125zm-1.355-.154c0-.893-.19-1.599-.572-2.116-.38-.518-.903-.777-1.567-.777-.82 0-1.435.364-1.846 1.091v3.787c.406.723 1.026 1.084 1.86 1.084.65 0 1.165-.256 1.546-.769.386-.517.579-1.284.579-2.3zm2.724-.007c0-.776.152-1.475.455-2.095.307-.62.732-1.099 1.274-1.435.547-.337 1.17-.506 1.868-.506 1.079 0 1.95.374 2.614 1.12.67.748 1.004 1.742 1.004 2.982v.095c0 .772-.15 1.465-.447 2.08a3.337 3.337 0 01-1.267 1.428c-.547.342-1.177.513-1.89.513-1.074 0-1.946-.373-2.614-1.12-.664-.748-.997-1.736-.997-2.967v-.095zm1.363.161c0 .879.202 1.584.608 2.117.41.532.957.798 1.64.798.689 0 1.236-.268 1.64-.806.406-.542.609-1.298.609-2.27 0-.87-.208-1.572-.623-2.11-.41-.541-.957-.813-1.64-.813-.67 0-1.209.267-1.619.799-.41.532-.615 1.294-.615 2.285zm9.023 3.874H62.19v-7.924h1.355v7.924zM62.08 31.034c0-.22.066-.406.198-.557.137-.151.337-.227.6-.227.264 0 .465.076.601.227a.8.8 0 01.205.557c0 .22-.068.402-.205.549-.136.147-.337.22-.6.22-.264 0-.464-.073-.6-.22a.79.79 0 01-.199-.55zm4.922 2.102l.044.996c.606-.762 1.397-1.143 2.373-1.143 1.675 0 2.52.945 2.534 2.835v5.236h-1.355v-5.244c-.004-.57-.136-.993-.395-1.267-.254-.273-.652-.41-1.194-.41-.44 0-.825.117-1.157.352-.332.234-.591.542-.777.923v5.646H65.72v-7.924h1.282zm8.833-1.92v1.92h1.48v1.047h-1.48v4.915c0 .317.066.556.198.717.132.157.356.235.674.235.156 0 .37-.03.644-.088v1.098a3.926 3.926 0 01-1.04.147c-.605 0-1.062-.183-1.37-.55-.307-.365-.46-.885-.46-1.56v-4.914h-1.444v-1.047h1.443v-1.92h1.355zm14.077.338h-3.427v9.506h-1.4v-9.506h-3.42v-1.157h8.247v1.157zm3.435 7.522l1.846-5.94h1.45l-3.186 9.148c-.493 1.318-1.277 1.977-2.35 1.977l-.257-.022-.505-.095v-1.099l.366.03c.459 0 .815-.093 1.069-.279.259-.185.471-.524.637-1.018l.3-.805-2.827-7.837h1.48l1.977 5.94zm11.206-1.89c0 1.206-.275 2.178-.827 2.915-.552.737-1.299 1.106-2.241 1.106-.962 0-1.72-.305-2.27-.916v3.816h-1.356V33.136h1.238l.066.879c.552-.684 1.318-1.026 2.3-1.026.952 0 1.704.36 2.256 1.077.556.718.834 1.716.834 2.995v.125zm-1.355-.154c0-.893-.19-1.599-.571-2.116-.381-.518-.903-.777-1.567-.777-.82 0-1.436.364-1.846 1.091v3.787c.405.723 1.026 1.084 1.86 1.084.65 0 1.165-.256 1.546-.769.386-.517.578-1.284.578-2.3zm6.373 4.175c-1.075 0-1.949-.352-2.623-1.055-.673-.708-1.01-1.653-1.01-2.834v-.25c0-.785.149-1.486.447-2.101a3.512 3.512 0 011.259-1.45 3.17 3.17 0 011.758-.528c1.03 0 1.831.34 2.402 1.018.572.679.857 1.65.857 2.915v.564h-5.368c.019.782.246 1.414.681 1.897.439.479.996.718 1.67.718.478 0 .884-.098 1.216-.293.332-.195.622-.454.871-.776l.828.644c-.664 1.02-1.66 1.531-2.988 1.531zm-.169-7.105c-.547 0-1.006.2-1.377.601-.371.396-.6.952-.688 1.67h3.969v-.102c-.039-.689-.224-1.221-.556-1.597-.332-.381-.781-.572-1.348-.572zm4.79 6.248c0-.234.068-.43.205-.586.142-.156.352-.234.63-.234s.488.078.63.234c.146.156.22.352.22.586a.781.781 0 01-.22.564c-.142.151-.352.227-.63.227s-.488-.076-.63-.227a.809.809 0 01-.205-.564zm.007-6.467c0-.235.069-.43.206-.586.141-.156.351-.234.629-.234.279 0 .489.078.63.234.147.156.22.351.22.586a.777.777 0 01-.22.564c-.141.151-.351.227-.63.227-.278 0-.488-.076-.629-.227a.81.81 0 01-.206-.564z"/>
  <path fill="#F3652B" d="M122.981 33.86l-2.212-.658.337-1.106 2.212.82-.066-2.52h1.121l-.073 2.557 2.175-.806.337 1.113-2.249.667 1.45 1.985-.908.688-1.362-2.11-1.318 2.059-.916-.667 1.472-2.021z"/>
  <path fill="#646464" d="M35.928 77.277H31.46l-1.003 2.784h-1.45l4.072-10.665h1.23l4.08 10.665h-1.443l-1.018-2.784zm-4.043-1.157h3.625l-1.816-4.988-1.809 4.988zm14.421.066c0 1.206-.275 2.178-.827 2.915-.552.737-1.3 1.106-2.242 1.106-.961 0-1.718-.305-2.27-.915v3.815h-1.355V72.136h1.238l.066.879c.552-.684 1.318-1.026 2.3-1.026.952 0 1.704.36 2.255 1.077.557.718.835 1.716.835 2.995v.125zm-1.355-.154c0-.893-.19-1.599-.57-2.117-.382-.517-.904-.776-1.568-.776-.82 0-1.436.364-1.846 1.092v3.786c.405.723 1.025 1.084 1.86 1.084.65 0 1.165-.256 1.546-.769.386-.517.578-1.284.578-2.3zm7.977 4.029c-.079-.157-.142-.435-.19-.835-.63.654-1.383.981-2.257.981-.781 0-1.423-.22-1.926-.66-.498-.444-.747-1.005-.747-1.684 0-.825.312-1.465.937-1.919.63-.459 1.514-.688 2.652-.688h1.318v-.623c0-.473-.142-.85-.425-1.128-.283-.283-.7-.424-1.252-.424-.484 0-.889.122-1.216.366-.327.244-.49.54-.49.886h-1.363c0-.395.14-.776.417-1.143a2.894 2.894 0 011.143-.879 3.87 3.87 0 011.59-.322c.913 0 1.628.23 2.145.689.518.454.786 1.081.806 1.882v3.647c0 .728.093 1.307.278 1.736v.118h-1.42zm-2.249-1.033c.425 0 .828-.11 1.209-.33.38-.22.656-.505.827-.857v-1.626h-1.062c-1.66 0-2.49.486-2.49 1.458 0 .425.141.757.425.996.283.24.647.359 1.091.359zm8.694.073c.483 0 .906-.146 1.267-.44.361-.292.561-.659.6-1.098h1.282c-.024.454-.18.886-.468 1.296a3.08 3.08 0 01-1.158.982 3.305 3.305 0 01-1.523.366c-1.08 0-1.939-.359-2.578-1.077-.635-.722-.953-1.709-.953-2.959v-.227c0-.771.142-1.457.425-2.058.283-.6.689-1.067 1.216-1.399.532-.332 1.16-.498 1.883-.498.888 0 1.626.266 2.211.799.591.532.906 1.223.945 2.072H61.24c-.039-.512-.234-.932-.586-1.26-.346-.331-.776-.497-1.289-.497-.688 0-1.223.249-1.604.747-.376.493-.564 1.208-.564 2.146v.256c0 .913.188 1.616.564 2.11.377.493.914.74 1.612.74zm6.028-6.006c.6-.737 1.382-1.106 2.343-1.106 1.675 0 2.52.945 2.535 2.835v5.237h-1.355v-5.245c-.005-.57-.137-.993-.396-1.267-.254-.273-.652-.41-1.194-.41-.44 0-.825.117-1.157.352-.332.234-.59.542-.776.923v5.647h-1.355V68.81H65.4v4.284zm10.195 7.112c-1.074 0-1.948-.351-2.622-1.055-.674-.708-1.01-1.653-1.01-2.834v-.25c0-.785.148-1.486.446-2.101.303-.62.723-1.104 1.26-1.45a3.169 3.169 0 011.757-.528c1.03 0 1.831.34 2.403 1.018.571.679.857 1.65.857 2.915v.564h-5.369c.02.782.247 1.414.681 1.897.44.479.996.718 1.67.718.479 0 .884-.098 1.216-.293.332-.195.623-.454.872-.776l.827.644c-.664 1.02-1.66 1.531-2.988 1.531zm-.169-7.104c-.546 0-1.005.2-1.377.6-.37.396-.6.952-.688 1.67h3.97v-.103c-.04-.688-.225-1.22-.557-1.596-.332-.381-.781-.572-1.348-.572zm11.477 2l-1.303 1.354v3.604h-1.406V69.395H85.6v5.274l4.739-5.273h1.699l-4.197 4.709 4.526 5.955h-1.684l-3.78-4.959zM98.28 80.06c-.078-.157-.141-.435-.19-.835-.63.654-1.382.981-2.256.981-.781 0-1.424-.22-1.927-.66-.498-.444-.747-1.005-.747-1.684 0-.825.313-1.465.938-1.919.63-.459 1.514-.688 2.651-.688h1.319v-.623c0-.473-.142-.85-.425-1.128-.283-.283-.7-.424-1.253-.424-.483 0-.888.122-1.215.366-.328.244-.491.54-.491.886H93.32c0-.395.139-.776.417-1.143a2.895 2.895 0 011.143-.879 3.87 3.87 0 011.589-.322c.913 0 1.628.23 2.146.689.517.454.786 1.081.806 1.882v3.647c0 .728.092 1.307.278 1.736v.118h-1.42zm-2.248-1.033c.424 0 .827-.11 1.208-.33.38-.22.657-.505.828-.857v-1.626h-1.062c-1.66 0-2.49.486-2.49 1.458 0 .425.141.757.424.996.283.24.647.359 1.092.359zm6.181 1.032v-6.877h-1.252v-1.047h1.252v-.813c0-.85.227-1.507.681-1.97.454-.464 1.097-.696 1.927-.696.312 0 .622.041.93.124l-.073 1.099a3.896 3.896 0 00-.733-.066c-.439 0-.779.13-1.018.388-.239.254-.359.62-.359 1.099v.835h1.692v1.047h-1.692v6.877h-1.355zm6.76-3.669l-.849.886v2.784h-1.355V68.81h1.355v6.804l.725-.872 2.468-2.607h1.648l-3.083 3.31 3.442 4.615h-1.589l-2.762-3.67zm10.284 3.67c-.079-.157-.142-.435-.191-.835-.63.654-1.382.981-2.256.981-.781 0-1.423-.22-1.926-.66-.498-.444-.747-1.005-.747-1.684 0-.825.312-1.465.937-1.919.63-.459 1.514-.688 2.652-.688h1.318v-.623c0-.473-.141-.85-.425-1.128-.283-.283-.7-.424-1.252-.424-.483 0-.889.122-1.216.366-.327.244-.491.54-.491.886h-1.362c0-.395.139-.776.418-1.143a2.895 2.895 0 011.142-.879 3.872 3.872 0 011.59-.322c.913 0 1.628.23 2.146.689.517.454.786 1.081.805 1.882v3.647c0 .728.093 1.307.279 1.736v.118h-1.421zm-2.249-1.033c.425 0 .828-.11 1.209-.33.38-.22.656-.505.827-.857v-1.626h-1.062c-1.66 0-2.49.486-2.49 1.458 0 .425.142.757.425.996.283.24.647.359 1.091.359z"/>
  <g filter="url(#filter0_d_3_304)">
    <path fill="#fff" fill-rule="evenodd" d="M18.802 106.061a5 5 0 015-5h224a5 5 0 015 5v94a5 5 0 01-5 5h-224a5 5 0 01-5-5v-94z" clip-rule="evenodd"/>
  </g>
  <path fill="#FAFAFA" d="M18.802 135.061h234v35h-234z"/>
  <path fill="#646464" d="M35.225 120.314c.107-.781-.298-1.353-1.216-1.714l-1.267-.461-.425-.183c-1.426-.65-2.092-1.563-2-2.74a2.864 2.864 0 01.608-1.567c.357-.454.828-.803 1.414-1.047a4.529 4.529 0 011.882-.352c.645.015 1.219.159 1.722.432.507.274.893.657 1.157 1.15.264.488.38 1.04.351 1.655l-1.384-.007c.049-.654-.098-1.16-.44-1.516-.341-.361-.83-.547-1.464-.557-.67-.01-1.228.147-1.677.469a1.83 1.83 0 00-.777 1.318c-.097.728.35 1.28 1.34 1.656l1.092.388.55.234c1.376.635 2.013 1.577 1.91 2.827a2.84 2.84 0 01-.607 1.56c-.352.435-.83.772-1.436 1.011-.6.239-1.247.352-1.94.337a4.114 4.114 0 01-1.839-.425c-.552-.283-.972-.669-1.26-1.157-.288-.488-.415-1.042-.38-1.663l1.376.008c-.044.634.127 1.14.513 1.516.39.371.94.561 1.648.571.708.01 1.291-.144 1.75-.461.46-.318.726-.745.799-1.282zm6.02-7.097l-.337 1.919h1.443l-.183 1.047h-1.435l-.828 4.929a1.723 1.723 0 00-.007.352c.034.381.241.571.622.571.161 0 .376-.024.645-.073l-.103 1.106c-.317.088-.64.132-.966.132-.528-.01-.923-.203-1.187-.579-.264-.381-.366-.891-.308-1.531l.806-4.907h-1.399l.183-1.047h1.4l.336-1.919h1.318zm6.182 9.844a1.78 1.78 0 01-.051-.418l.022-.417c-.728.673-1.5 1.001-2.315.981-.698-.01-1.267-.229-1.706-.659-.435-.435-.633-.977-.594-1.626.05-.84.416-1.494 1.1-1.963.688-.474 1.59-.71 2.709-.71l1.384.007.088-.63c.049-.474-.044-.847-.278-1.121-.23-.278-.576-.422-1.04-.432a2.046 2.046 0 00-1.209.337c-.346.23-.559.535-.637.916l-1.333.007c.044-.464.225-.874.542-1.23.317-.362.725-.64 1.223-.835a3.893 3.893 0 011.546-.286c.825.019 1.467.271 1.926.754.459.479.652 1.116.579 1.912l-.645 3.926-.037.564c-.01.268.02.534.088.798l-.014.125h-1.348zm-2.08-1.026c.425.01.825-.09 1.201-.3.381-.215.708-.51.981-.886l.286-1.634-1.003-.007c-.835 0-1.475.132-1.92.396-.444.263-.695.637-.754 1.12-.044.371.042.681.257.93.22.244.537.371.952.381zm7.859-6.907l-.19 1.004c.712-.781 1.523-1.162 2.431-1.143.747.02 1.299.279 1.655.777.357.498.489 1.198.396 2.102l-.864 5.193h-1.326l.871-5.215c.03-.24.032-.462.008-.667-.083-.683-.486-1.033-1.209-1.047-.796-.015-1.494.41-2.095 1.274l-.98 5.655h-1.327l1.377-7.925 1.253-.008zm5.852 3.955c.098-.805.32-1.533.666-2.182.347-.65.774-1.135 1.282-1.458a2.93 2.93 0 011.677-.461c.884.019 1.563.342 2.036.967l.762-4.138h1.326l-1.948 11.25H63.65l.14-.85c-.626.684-1.397 1.016-2.315.996-.733-.019-1.316-.305-1.75-.857-.435-.557-.67-1.301-.704-2.234a7.132 7.132 0 01.037-1.033zm1.274.762c-.014.698.11 1.24.374 1.626.263.386.65.584 1.157.593.767.035 1.448-.351 2.044-1.157l.63-3.662c-.294-.723-.826-1.094-1.597-1.113a2.01 2.01 0 00-1.385.476c-.395.327-.698.788-.908 1.384a5.748 5.748 0 00-.315 1.853zm11.47 3.216a1.78 1.78 0 01-.051-.418l.022-.417c-.728.673-1.5 1.001-2.315.981-.698-.01-1.267-.229-1.706-.659-.435-.435-.633-.977-.594-1.626.05-.84.415-1.494 1.1-1.963.688-.474 1.59-.71 2.709-.71l1.384.007.088-.63c.049-.474-.044-.847-.278-1.121-.23-.278-.576-.422-1.04-.432a2.046 2.046 0 00-1.209.337c-.346.23-.559.535-.637.916l-1.333.007c.044-.464.225-.874.542-1.23.318-.362.725-.64 1.223-.835a3.893 3.893 0 011.546-.286c.825.019 1.467.271 1.926.754.459.479.652 1.116.579 1.912l-.645 3.926-.037.564c-.01.268.02.534.088.798l-.014.125h-1.348zm-2.08-1.026c.425.01.825-.09 1.201-.3.381-.215.708-.51.981-.886l.286-1.634-1.003-.007c-.835 0-1.475.132-1.92.396-.444.263-.695.637-.754 1.12-.044.371.042.681.257.93.22.244.537.371.952.381zm10.159-5.691l-.623-.066c-.85 0-1.518.384-2.007 1.15l-.974 5.633h-1.326l1.377-7.925 1.282-.008-.198.923c.562-.737 1.223-1.096 1.985-1.076.161 0 .371.036.63.109l-.146 1.26zm.3 2.739c.098-.805.32-1.533.666-2.182.347-.65.774-1.135 1.282-1.458a2.93 2.93 0 011.677-.461c.884.019 1.563.342 2.037.967l.761-4.138h1.326l-1.948 11.25h-1.209l.14-.85c-.626.684-1.397 1.016-2.315.996-.733-.019-1.316-.305-1.75-.857-.435-.557-.67-1.301-.704-2.234a7.116 7.116 0 01.037-1.033zm1.274.762c-.014.698.11 1.24.374 1.626.264.386.65.584 1.157.593.767.035 1.448-.351 2.043-1.157l.63-3.662c-.293-.723-.825-1.094-1.596-1.113a2.01 2.01 0 00-1.385.476c-.395.327-.698.788-.908 1.384a5.748 5.748 0 00-.315 1.853zm18.465 3.216h-1.377l.857-4.93h-5.208l-.857 4.93h-1.377l1.853-10.665h1.377l-.798 4.585h5.2l.798-4.585h1.385l-1.853 10.665zm11.067-9.507h-3.318l-1.648 9.507h-1.37l1.648-9.507h-3.318l.205-1.158h8.006l-.205 1.158zm8.877 0h-3.318l-1.648 9.507h-1.37l1.648-9.507h-3.318l.205-1.158h8.006l-.205 1.158zm2.058 5.332l-.725 4.175h-1.377l1.853-10.665 3.559.008c1.099 0 1.946.293 2.542.879.595.581.852 1.355.769 2.321-.088 1.021-.496 1.824-1.223 2.41-.723.586-1.678.879-2.864.879l-2.534-.007zm.197-1.15l2.373.007c.748 0 1.36-.188 1.839-.564.478-.376.759-.898.842-1.567.078-.601-.046-1.087-.373-1.458-.328-.376-.804-.573-1.429-.593l-2.527-.007-.725 4.182zm6.9 6.24h-1.201l6.328-11.58h1.194l-6.321 11.58zm14.099-.915h-1.377l.857-4.93h-5.208l-.857 4.93h-1.377l1.854-10.665h1.376l-.798 4.585h5.2l.799-4.585h1.384l-1.853 10.665zm11.067-9.507h-3.318l-1.648 9.507h-1.37l1.648-9.507h-3.318l.206-1.158h8.005l-.205 1.158zm8.877 0h-3.318l-1.648 9.507h-1.37l1.648-9.507h-3.318l.205-1.158h8.006l-.205 1.158zm2.058 5.332l-.725 4.175h-1.377l1.853-10.665 3.559.008c1.099 0 1.946.293 2.542.879.596.581.852 1.355.769 2.321-.088 1.021-.496 1.824-1.223 2.41-.723.586-1.677.879-2.864.879l-2.534-.007zm.198-1.15l2.373.007c.747 0 1.36-.188 1.838-.564.479-.376.759-.898.842-1.567.078-.601-.046-1.087-.373-1.458-.327-.376-.803-.573-1.428-.593l-2.527-.007-.725 4.182zm12.949 2.578c.107-.781-.298-1.353-1.216-1.714l-1.267-.461-.425-.183c-1.426-.65-2.092-1.563-1.999-2.74a2.852 2.852 0 01.608-1.567c.356-.454.827-.803 1.413-1.047a4.528 4.528 0 011.882-.352c.645.015 1.219.159 1.722.432.507.274.893.657 1.157 1.15.264.488.381 1.04.351 1.655l-1.384-.007c.049-.654-.098-1.16-.439-1.516-.342-.361-.83-.547-1.465-.557-.669-.01-1.228.147-1.677.469a1.83 1.83 0 00-.777 1.318c-.097.728.349 1.28 1.341 1.656l1.091.388.549.234c1.377.635 2.014 1.577 1.912 2.827a2.847 2.847 0 01-.608 1.56c-.352.435-.83.772-1.436 1.011-.6.239-1.247.352-1.941.337a4.113 4.113 0 01-1.838-.425c-.552-.283-.972-.669-1.26-1.157-.288-.488-.415-1.042-.381-1.663l1.377.008c-.044.634.127 1.14.513 1.516.391.371.94.561 1.648.571.708.01 1.292-.144 1.751-.461.458-.318.725-.745.798-1.282zm8.503-1.428l-.725 4.175h-1.377l1.853-10.665 3.56.008c1.098 0 1.946.293 2.541.879.596.581.852 1.355.769 2.321-.088 1.021-.495 1.824-1.223 2.41-.722.586-1.677.879-2.864.879l-2.534-.007zm.198-1.15l2.373.007c.747 0 1.36-.188 1.838-.564.479-.376.76-.898.843-1.567.078-.601-.047-1.087-.374-1.458-.327-.376-.803-.573-1.428-.593l-2.527-.007-.725 4.182zm10.869 5.471c-.679-.015-1.269-.178-1.772-.491-.498-.312-.891-.771-1.18-1.377-.288-.61-.446-1.294-.476-2.05-.029-.591.037-1.321.198-2.19.161-.87.44-1.653.835-2.351.396-.699.877-1.258 1.443-1.678.767-.566 1.641-.84 2.622-.82 1.04.02 1.86.381 2.461 1.084.601.698.923 1.645.967 2.842.019.512-.034 1.164-.161 1.955a7.942 7.942 0 01-.667 2.205 5.43 5.43 0 01-1.216 1.706c-.859.801-1.877 1.189-3.054 1.165zm3.743-6.694c.029-.962-.139-1.707-.506-2.234-.366-.532-.91-.808-1.633-.828a2.793 2.793 0 00-1.758.528c-.512.371-.935.927-1.267 1.669-.327.738-.534 1.673-.622 2.806l-.022.476c-.03.957.141 1.706.512 2.248.372.542.911.823 1.619.843.923.024 1.687-.308 2.293-.997.61-.693 1.015-1.665 1.215-2.915.098-.615.154-1.147.169-1.596zm8.415 3.801c.108-.781-.297-1.353-1.215-1.714l-1.268-.461-.424-.183c-1.426-.65-2.093-1.563-2-2.74a2.867 2.867 0 01.608-1.567c.356-.454.828-.803 1.414-1.047a4.525 4.525 0 011.882-.352c.644.015 1.218.159 1.721.432.508.274.894.657 1.157 1.15.264.488.381 1.04.352 1.655l-1.384-.007c.048-.654-.098-1.16-.44-1.516-.342-.361-.83-.547-1.465-.557-.669-.01-1.228.147-1.677.469a1.828 1.828 0 00-.776 1.318c-.098.728.349 1.28 1.34 1.656l1.091.388.55.234c1.377.635 2.014 1.577 1.911 2.827a2.832 2.832 0 01-.608 1.56c-.351.435-.83.772-1.435 1.011a4.912 4.912 0 01-1.941.337 4.11 4.11 0 01-1.838-.425c-.552-.283-.972-.669-1.26-1.157-.288-.488-.415-1.042-.381-1.663l1.377.008c-.044.634.127 1.14.513 1.516.39.371.94.561 1.648.571.708.01 1.291-.144 1.75-.461.459-.318.725-.745.798-1.282zm11.529-6.76h-3.318l-1.648 9.507h-1.37l1.648-9.507h-3.318l.205-1.158h8.006l-.205 1.158zM35.225 155.314c.107-.781-.298-1.353-1.216-1.714l-1.267-.461-.425-.183c-1.426-.65-2.092-1.563-2-2.74a2.864 2.864 0 01.608-1.567c.357-.454.828-.803 1.414-1.047a4.529 4.529 0 011.882-.352c.645.015 1.219.159 1.722.432.507.274.893.657 1.157 1.15.264.488.38 1.04.351 1.655l-1.384-.007c.049-.654-.098-1.16-.44-1.516-.341-.361-.83-.547-1.464-.557-.67-.01-1.228.147-1.677.469a1.83 1.83 0 00-.777 1.318c-.097.728.35 1.28 1.34 1.656l1.092.388.55.234c1.376.635 2.013 1.577 1.91 2.827a2.84 2.84 0 01-.607 1.56c-.352.435-.83.772-1.436 1.011-.6.239-1.247.352-1.94.337a4.114 4.114 0 01-1.839-.425c-.552-.283-.972-.669-1.26-1.157-.288-.488-.415-1.042-.38-1.663l1.376.008c-.044.634.127 1.14.513 1.516.39.371.94.561 1.648.571.708.01 1.291-.144 1.75-.461.46-.318.726-.745.799-1.282zm3.955 2.747h-1.318l1.377-7.925h1.318l-1.377 7.925zm1.091-10.818c.225-.01.41.058.557.205a.734.734 0 01.227.564.79.79 0 01-.227.564.791.791 0 01-.557.234.728.728 0 01-.564-.198.715.715 0 01-.212-.556.833.833 0 01.22-.572.773.773 0 01.556-.241zm3.692 2.885l-.169.887c.664-.703 1.468-1.045 2.41-1.026.503.01.928.125 1.274.344.352.22.593.53.725.931.743-.869 1.619-1.294 2.63-1.275.79.02 1.374.286 1.75.799.376.512.515 1.201.418 2.065l-.872 5.208h-1.318l.864-5.223c.03-.254.03-.485 0-.695-.093-.664-.527-1.004-1.304-1.018a2.002 2.002 0 00-1.318.454c-.39.307-.642.713-.754 1.215l-.901 5.267h-1.333l.879-5.215c.063-.542-.02-.96-.25-1.253-.224-.293-.576-.444-1.054-.454-.825-.019-1.482.357-1.97 1.128l-1.004 5.794h-1.325l1.377-7.925 1.245-.008zm17.395 4.007a6.288 6.288 0 01-.652 2.175c-.337.645-.755 1.128-1.253 1.45a2.875 2.875 0 01-1.655.454c-.918-.019-1.621-.329-2.11-.93l-.71 3.823h-1.325l1.904-10.971 1.201-.008-.146.887c.654-.703 1.438-1.045 2.35-1.026.762.02 1.356.301 1.78.843.425.542.65 1.289.674 2.241.005.312-.007.615-.036.908l-.022.154zm-1.304-.154l.037-.615c0-.713-.137-1.258-.41-1.634-.27-.38-.66-.581-1.172-.6-.767-.02-1.429.344-1.985 1.091l-.667 3.801c.298.704.833 1.065 1.604 1.084.66.015 1.218-.241 1.677-.769.464-.532.77-1.318.916-2.358zm3.808 4.08h-1.318l1.948-11.25h1.326l-1.956 11.25zm5.596.146c-.986-.019-1.758-.383-2.314-1.091-.557-.708-.791-1.614-.703-2.718l.036-.315a5.306 5.306 0 01.696-2.153c.386-.649.855-1.138 1.406-1.465a3.261 3.261 0 011.788-.476c.815.02 1.454.291 1.918.813.464.523.718 1.231.762 2.124.015.318.005.635-.03.952l-.08.608H67.76c-.088.718.03 1.328.352 1.831.327.503.813.765 1.457.784.781.02 1.504-.332 2.168-1.055l.762.645a3.519 3.519 0 01-1.29 1.128 3.651 3.651 0 01-1.75.388zm.843-7.112a1.95 1.95 0 00-1.436.557c-.405.386-.727.959-.967 1.721l3.853.007.029-.117c.078-.615-.022-1.125-.3-1.531-.274-.41-.667-.622-1.18-.637zm13.38 4.219c.108-.781-.297-1.353-1.215-1.714l-1.267-.461-.425-.183c-1.426-.65-2.092-1.563-2-2.74a2.862 2.862 0 01.609-1.567c.356-.454.827-.803 1.413-1.047a4.53 4.53 0 011.882-.352c.645.015 1.219.159 1.722.432.507.274.893.657 1.157 1.15.264.488.38 1.04.351 1.655l-1.384-.007c.049-.654-.097-1.16-.44-1.516-.341-.361-.83-.547-1.464-.557-.67-.01-1.228.147-1.677.469-.45.322-.708.762-.777 1.318-.097.728.35 1.28 1.34 1.656l1.092.388.55.234c1.376.635 2.013 1.577 1.91 2.827a2.84 2.84 0 01-.607 1.56c-.352.435-.83.772-1.436 1.011a4.91 4.91 0 01-1.94.337 4.114 4.114 0 01-1.839-.425c-.552-.283-.972-.669-1.26-1.157-.288-.488-.415-1.042-.38-1.663l1.376.008c-.043.634.127 1.14.513 1.516.39.371.94.561 1.648.571.708.01 1.292-.144 1.75-.461.46-.318.726-.745.799-1.282zm6.021-7.097l-.337 1.919h1.443l-.183 1.047H89.19l-.828 4.929a1.724 1.724 0 00-.007.352c.034.381.241.571.622.571.161 0 .376-.024.645-.073l-.103 1.106c-.317.088-.64.132-.967.132-.527-.01-.922-.203-1.186-.579-.264-.381-.366-.891-.308-1.531l.806-4.907h-1.399l.183-1.047h1.4l.336-1.919h1.318zm5.589 1.772c.664.01 1.233.191 1.706.542.474.352.823.838 1.048 1.458.23.615.307 1.289.234 2.021l-.015.161a5.36 5.36 0 01-.688 2.095 4.043 4.043 0 01-1.421 1.45 3.458 3.458 0 01-1.912.491c-.659-.01-1.228-.19-1.706-.542-.474-.352-.82-.83-1.04-1.436-.22-.605-.298-1.271-.234-1.999a5.4 5.4 0 01.666-2.212c.371-.654.847-1.16 1.428-1.516a3.431 3.431 0 011.934-.513zm-2.695 4.248a4.502 4.502 0 000 .96c.048.576.22 1.035.512 1.377.298.342.694.52 1.187.534.44.015.844-.092 1.215-.322.372-.234.684-.586.938-1.055.254-.468.418-.988.49-1.56a7.02 7.02 0 00.023-1.135c-.059-.591-.237-1.057-.535-1.399-.298-.342-.693-.522-1.186-.542-.684-.014-1.265.254-1.744.806-.478.552-.774 1.274-.886 2.168l-.014.168zm11.601-2.893l-.623-.066c-.849 0-1.518.384-2.006 1.15l-.974 5.633h-1.326l1.377-7.925 1.282-.008-.198.923c.561-.737 1.223-1.096 1.985-1.076.161 0 .371.036.63.109l-.147 1.26zm4.622 6.717a1.74 1.74 0 01-.052-.418l.022-.417c-.727.673-1.499 1.001-2.314.981-.698-.01-1.267-.229-1.707-.659-.434-.435-.632-.977-.593-1.626.049-.84.415-1.494 1.099-1.963.688-.474 1.591-.71 2.71-.71l1.384.007.088-.63c.049-.474-.044-.847-.279-1.121-.229-.278-.576-.422-1.04-.432a2.046 2.046 0 00-1.208.337c-.347.23-.559.535-.637.916l-1.333.007c.044-.464.224-.874.542-1.23.317-.362.725-.64 1.223-.835a3.892 3.892 0 011.545-.286c.825.019 1.468.271 1.927.754.459.479.651 1.116.578 1.912l-.644 3.926-.037.564c-.01.268.02.534.088.798l-.015.125h-1.347zm-2.08-1.026c.424.01.825-.09 1.201-.3a3.07 3.07 0 00.981-.886l.286-1.634-1.004-.007c-.835 0-1.474.132-1.919.396-.444.263-.695.637-.754 1.12-.044.371.042.681.256.93.22.244.537.371.953.381zm5.617-2.952c.117-.864.349-1.613.696-2.248.352-.64.776-1.111 1.274-1.414a2.958 2.958 0 011.648-.439c.918.019 1.612.366 2.08 1.04l.264-.886h1.216l-1.318 7.756c-.142 1.011-.552 1.819-1.231 2.424-.679.611-1.516.901-2.512.872a3.603 3.603 0 01-1.546-.381 2.933 2.933 0 01-1.157-1.003l.755-.813c.478.708 1.11 1.071 1.897 1.091.63.02 1.162-.156 1.596-.527.44-.371.73-.899.872-1.582l.146-.703c-.644.644-1.399.957-2.263.937-.493-.015-.923-.146-1.289-.395-.361-.254-.642-.618-.842-1.092a4.506 4.506 0 01-.33-1.596 8.17 8.17 0 01.044-1.041zm1.282.755c-.015.698.105 1.24.359 1.626.259.381.647.581 1.164.6.791.02 1.473-.368 2.044-1.164l.622-3.64c-.293-.723-.822-1.099-1.589-1.128-.718-.02-1.309.273-1.772.879-.459.605-.73 1.423-.813 2.453l-.015.374zm10.005 3.369c-.987-.019-1.758-.383-2.315-1.091-.556-.708-.791-1.614-.703-2.718l.037-.315a5.305 5.305 0 01.696-2.153c.385-.649.854-1.138 1.406-1.465a3.26 3.26 0 011.787-.476c.815.02 1.455.291 1.919.813.464.523.718 1.231.762 2.124a6.18 6.18 0 01-.03.952l-.08.608h-5.178c-.088.718.029 1.328.351 1.831.327.503.813.765 1.458.784.781.02 1.504-.332 2.168-1.055l.761.645a3.514 3.514 0 01-1.289 1.128 3.65 3.65 0 01-1.75.388zm.842-7.112a1.949 1.949 0 00-1.435.557c-.406.386-.728.959-.967 1.721l3.852.007.03-.117c.078-.615-.022-1.125-.301-1.531-.273-.41-.666-.622-1.179-.637zm13.381 4.219c.108-.781-.297-1.353-1.215-1.714l-1.267-.461-.425-.183c-1.426-.65-2.093-1.563-2-2.74a2.867 2.867 0 01.608-1.567 3.438 3.438 0 011.414-1.047 4.528 4.528 0 011.882-.352c.645.015 1.218.159 1.721.432.508.274.894.657 1.157 1.15.264.488.381 1.04.352 1.655l-1.384-.007c.049-.654-.098-1.16-.44-1.516-.342-.361-.83-.547-1.465-.557-.669-.01-1.228.147-1.677.469a1.828 1.828 0 00-.776 1.318c-.098.728.349 1.28 1.34 1.656l1.091.388.55.234c1.377.635 2.014 1.577 1.911 2.827a2.832 2.832 0 01-.608 1.56c-.351.435-.83.772-1.435 1.011a4.912 4.912 0 01-1.941.337 4.11 4.11 0 01-1.838-.425c-.552-.283-.972-.669-1.26-1.157-.288-.488-.415-1.042-.381-1.663l1.377.008c-.044.634.127 1.14.513 1.516.39.371.94.561 1.648.571.708.01 1.291-.144 1.75-.461.459-.318.725-.745.798-1.282zm5.948 2.893c-.987-.019-1.758-.383-2.315-1.091-.556-.708-.791-1.614-.703-2.718l.037-.315a5.305 5.305 0 01.696-2.153c.385-.649.854-1.138 1.406-1.465a3.26 3.26 0 011.787-.476c.815.02 1.455.291 1.919.813.464.523.718 1.231.762 2.124.014.318.004.635-.03.952l-.08.608h-5.178c-.088.718.029 1.328.351 1.831.327.503.813.765 1.458.784.781.02 1.503-.332 2.168-1.055l.761.645a3.514 3.514 0 01-1.289 1.128 3.65 3.65 0 01-1.75.388zm.842-7.112a1.952 1.952 0 00-1.436.557c-.405.386-.727.959-.966 1.721l3.852.007.029-.117c.079-.615-.021-1.125-.3-1.531-.273-.41-.666-.622-1.179-.637zm8.438.249l-.623-.066c-.85 0-1.519.384-2.007 1.15l-.974 5.633h-1.326l1.377-7.925 1.282-.008-.198.923c.562-.737 1.223-1.096 1.985-1.076.161 0 .371.036.63.109l-.146 1.26zm3.076 4.864l2.856-6.072h1.399l-3.992 7.925h-1.01l-1.553-7.925h1.304l.996 6.072zm5.676 1.853h-1.318l1.377-7.925h1.318l-1.377 7.925zm1.091-10.818c.225-.01.41.058.557.205a.735.735 0 01.227.564.793.793 0 01-.227.564.792.792 0 01-.557.234.73.73 0 01-.564-.198.716.716 0 01-.212-.556.832.832 0 01.22-.572.771.771 0 01.556-.241zm4.424 9.865c.474.01.901-.127 1.282-.41.381-.288.63-.664.747-1.128l1.252-.007a2.806 2.806 0 01-.6 1.362c-.323.41-.73.73-1.223.96a3.335 3.335 0 01-1.517.322c-.659-.01-1.218-.181-1.677-.513-.454-.337-.788-.803-1.003-1.399-.215-.6-.288-1.274-.22-2.021l.037-.366a5.254 5.254 0 01.666-2.044c.352-.6.811-1.067 1.377-1.399a3.409 3.409 0 011.875-.476c.83.02 1.494.298 1.992.835.498.537.747 1.218.747 2.044l-1.237-.008c-.01-.517-.154-.935-.432-1.252-.279-.322-.655-.493-1.128-.513-.689-.014-1.263.242-1.722.769-.454.528-.737 1.265-.849 2.212l-.022.191a6.449 6.449 0 00-.015.966c.034.572.195 1.023.484 1.355.288.332.683.506 1.186.52zm7.771 1.099c-.986-.019-1.758-.383-2.314-1.091-.557-.708-.791-1.614-.703-2.718l.036-.315a5.305 5.305 0 01.696-2.153c.386-.649.854-1.138 1.406-1.465a3.262 3.262 0 011.787-.476c.816.02 1.455.291 1.919.813.464.523.718 1.231.762 2.124a6.18 6.18 0 01-.029.952l-.081.608h-5.178c-.088.718.029 1.328.351 1.831.328.503.813.765 1.458.784.781.02 1.504-.332 2.168-1.055l.762.645a3.522 3.522 0 01-1.289 1.128 3.654 3.654 0 01-1.751.388zm.842-7.112a1.949 1.949 0 00-1.435.557c-.405.386-.728.959-.967 1.721l3.853.007.029-.117c.078-.615-.022-1.125-.3-1.531-.274-.41-.667-.622-1.18-.637zm7.932 2.666c.162-1.128.459-2.226.894-3.296.44-1.069.977-1.98 1.611-2.732.635-.756 1.343-1.328 2.124-1.713l.198.908c-.766.571-1.426 1.318-1.977 2.241-.547.918-.97 2.012-1.267 3.281a15.773 15.773 0 00-.433 3.743c0 1.011.13 1.899.389 2.666.263.771.642 1.379 1.135 1.824l-.33.82c-.815-.566-1.44-1.404-1.875-2.512-.429-1.109-.625-2.378-.586-3.809.01-.469.044-.915.103-1.34l.014-.081zm10.503 1.553c.108-.781-.297-1.353-1.215-1.714l-1.267-.461-.425-.183c-1.426-.65-2.093-1.563-2-2.74a2.867 2.867 0 01.608-1.567 3.438 3.438 0 011.414-1.047 4.528 4.528 0 011.882-.352c.645.015 1.218.159 1.721.432.508.274.894.657 1.157 1.15.264.488.381 1.04.352 1.655l-1.384-.007c.049-.654-.098-1.16-.44-1.516-.342-.361-.83-.547-1.465-.557-.669-.01-1.228.147-1.677.469a1.828 1.828 0 00-.776 1.318c-.098.728.349 1.28 1.34 1.656l1.091.388.55.234c1.377.635 2.014 1.577 1.911 2.827a2.832 2.832 0 01-.608 1.56c-.351.435-.83.772-1.435 1.011a4.912 4.912 0 01-1.941.337 4.11 4.11 0 01-1.838-.425c-.552-.283-.972-.669-1.26-1.157-.288-.488-.415-1.042-.381-1.663l1.377.008c-.044.634.127 1.14.513 1.516.39.371.94.561 1.648.571.708.01 1.291-.144 1.75-.461.459-.318.725-.745.798-1.282zm5.34-3.245l.879.008c.644 0 1.186-.169 1.626-.506.444-.342.698-.803.761-1.384.064-.566-.041-1.011-.315-1.333-.273-.327-.671-.496-1.193-.505-.557-.01-1.031.153-1.421.49-.386.332-.623.782-.711 1.348l-1.311.007c.083-.879.457-1.591 1.121-2.138.669-.552 1.465-.823 2.388-.813.893.019 1.594.3 2.102.842.512.537.734 1.248.666 2.131a2.466 2.466 0 01-.579 1.377c-.341.415-.815.76-1.42 1.033.483.195.844.505 1.084.93.239.42.339.913.3 1.48-.078.962-.462 1.735-1.15 2.321-.684.586-1.516.87-2.498.85-.913-.019-1.64-.303-2.182-.85-.542-.546-.794-1.252-.755-2.116l1.326.007c-.029.547.103.989.396 1.326.293.332.717.508 1.274.527.625.02 1.145-.159 1.56-.535.415-.376.652-.878.71-1.508.054-.581-.078-1.033-.395-1.355-.317-.328-.791-.501-1.421-.52l-1.018-.008.176-1.106zm9.206 1.707a13.674 13.674 0 01-.93 3.384c-.449 1.059-.989 1.953-1.619 2.68-.625.733-1.318 1.289-2.08 1.67l-.205-.842c1.675-1.26 2.793-3.284 3.355-6.072a15.8 15.8 0 00.322-3.244c-.024-2.095-.532-3.597-1.523-4.505l.344-.82a4.81 4.81 0 011.384 1.523c.381.63.659 1.365.835 2.205.181.835.261 1.702.242 2.6-.015.474-.051.92-.11 1.34l-.015.081zM35.46 190.277h-4.322l-1.458 2.784h-1.472l5.794-10.665h1.208l2.11 10.665h-1.355l-.506-2.784zm-3.714-1.157h3.508l-.886-4.973-2.622 4.973zm14.026.015a6.286 6.286 0 01-.652 2.175c-.337.645-.755 1.128-1.253 1.45a2.875 2.875 0 01-1.655.454c-.918-.019-1.62-.329-2.11-.93l-.71 3.823h-1.325l1.904-10.971 1.201-.008-.146.887c.654-.703 1.438-1.045 2.35-1.026.762.02 1.356.301 1.78.843.425.542.65 1.289.674 2.241.005.312-.007.615-.036.908l-.022.154zm-1.304-.154l.037-.615c0-.713-.137-1.258-.41-1.634-.27-.38-.66-.581-1.172-.6-.767-.02-1.429.344-1.985 1.091l-.667 3.801c.298.704.833 1.065 1.604 1.084.66.015 1.218-.241 1.678-.769.463-.532.769-1.318.915-2.358zm7.222 4.08a1.78 1.78 0 01-.052-.418l.022-.417c-.727.673-1.499 1.001-2.314.981-.698-.01-1.267-.229-1.707-.659-.434-.435-.632-.977-.593-1.626.049-.84.415-1.494 1.099-1.963.688-.474 1.592-.71 2.71-.71l1.384.007.088-.63c.049-.474-.044-.847-.278-1.121-.23-.278-.577-.422-1.04-.432a2.047 2.047 0 00-1.209.337c-.347.23-.559.535-.637.916l-1.333.007c.044-.464.224-.874.542-1.23.317-.362.725-.64 1.223-.835a3.893 3.893 0 011.545-.286c.826.019 1.468.271 1.927.754.459.479.651 1.116.578 1.912l-.644 3.926-.037.564c-.01.268.02.534.088.798l-.015.125H51.69zm-2.08-1.026c.424.01.825-.09 1.2-.3.382-.215.709-.51.982-.886l.286-1.634-1.004-.007c-.834 0-1.474.132-1.918.396-.445.263-.696.637-.755 1.12-.044.371.042.681.256.93.22.244.538.371.953.381zm8.576.073c.474.01.901-.127 1.282-.41.38-.288.63-.664.747-1.128l1.252-.007a2.807 2.807 0 01-.6 1.362c-.322.41-.73.73-1.223.96a3.33 3.33 0 01-1.516.322c-.66-.01-1.219-.181-1.678-.513-.454-.337-.788-.803-1.003-1.399-.215-.6-.288-1.274-.22-2.021l.037-.366a5.26 5.26 0 01.666-2.044c.352-.6.811-1.067 1.377-1.399a3.406 3.406 0 011.875-.476c.83.02 1.494.298 1.993.835.498.537.747 1.218.747 2.044l-1.238-.008c-.01-.517-.154-.935-.432-1.252-.279-.322-.655-.493-1.128-.513-.689-.014-1.262.242-1.721.769-.454.528-.738 1.265-.85 2.212l-.022.191c-.03.312-.034.634-.015.966.035.572.196 1.023.484 1.355.288.332.683.506 1.186.52zm6.82-6.005c.692-.757 1.49-1.126 2.394-1.106.742.009 1.292.266 1.648.769.361.498.496 1.198.403 2.102l-.864 5.193H67.26l.872-5.215c.029-.24.031-.462.007-.667-.083-.683-.486-1.033-1.209-1.047-.81-.02-1.508.405-2.094 1.274l-.982 5.655H62.53l1.955-11.25h1.326l-.806 4.292zm9.037 7.104c-.986-.019-1.758-.383-2.314-1.091-.557-.708-.791-1.614-.703-2.718l.036-.315a5.306 5.306 0 01.696-2.153c.386-.649.855-1.138 1.406-1.465a3.261 3.261 0 011.787-.476c.816.02 1.456.291 1.92.813.463.523.717 1.231.761 2.124.015.318.005.635-.03.952l-.08.608h-5.178c-.088.718.03 1.328.352 1.831.327.503.813.765 1.457.784.781.02 1.504-.332 2.168-1.055l.762.645a3.52 3.52 0 01-1.29 1.128 3.652 3.652 0 01-1.75.388zm.842-7.112a1.95 1.95 0 00-1.435.557c-.405.386-.728.959-.967 1.721l3.853.007.029-.117c.078-.615-.022-1.125-.3-1.531-.274-.41-.667-.622-1.18-.637zm10.943 2.022l-1.56 1.399-.615 3.545h-1.377l1.853-10.665h1.377l-.909 5.193 5.435-5.193h1.772l-4.958 4.776 3.318 5.889h-1.53l-2.806-4.944zm10.29 4.944a1.78 1.78 0 01-.05-.418l.021-.417c-.727.673-1.499 1.001-2.314.981-.699-.01-1.267-.229-1.707-.659-.434-.435-.632-.977-.593-1.626.049-.84.415-1.494 1.099-1.963.688-.474 1.591-.71 2.71-.71l1.384.007.088-.63c.048-.474-.044-.847-.279-1.121-.23-.278-.576-.422-1.04-.432a2.047 2.047 0 00-1.208.337c-.347.23-.56.535-.637.916l-1.334.007c.044-.464.225-.874.543-1.23.317-.362.725-.64 1.223-.835a3.893 3.893 0 011.545-.286c.825.019 1.467.271 1.926.754.46.479.652 1.116.579 1.912l-.645 3.926-.036.564c-.01.268.02.534.088.798l-.015.125h-1.348zm-2.08-1.026c.425.01.826-.09 1.202-.3.38-.215.708-.51.98-.886l.287-1.634-1.004-.007c-.835 0-1.474.132-1.919.396-.444.263-.696.637-.754 1.12-.044.371.041.681.256.93.22.244.537.371.952.381zm5.874 1.026l1.202-6.878H99.89l.183-1.047h1.216l.132-.938c.127-.796.435-1.418.923-1.867.513-.469 1.167-.699 1.963-.689.249 0 .564.042.945.125l-.161 1.106a4.265 4.265 0 00-.711-.088c-.459 0-.832.144-1.12.432-.284.283-.459.661-.528 1.135l-.117.784h1.641l-.183 1.047h-1.641l-1.194 6.878h-1.326zm7.325-3.655l-1.04.93-.469 2.725h-1.326l1.956-11.25h1.325l-1.172 6.723.813-.82 2.813-2.578h1.721l-3.64 3.376 2.505 4.549h-1.45l-2.036-3.655zm9.462 3.655a1.79 1.79 0 01-.051-.418l.022-.417c-.727.673-1.499 1.001-2.314.981-.699-.01-1.267-.229-1.707-.659-.434-.435-.632-.977-.593-1.626.049-.84.415-1.494 1.099-1.963.688-.474 1.591-.71 2.71-.71l1.384.007.088-.63c.048-.474-.044-.847-.279-1.121-.229-.278-.576-.422-1.04-.432a2.044 2.044 0 00-1.208.337c-.347.23-.559.535-.637.916l-1.333.007c.044-.464.224-.874.542-1.23.317-.362.725-.64 1.223-.835a3.892 3.892 0 011.545-.286c.825.019 1.467.271 1.926.754.459.479.652 1.116.579 1.912l-.645 3.926-.036.564c-.01.268.019.534.088.798l-.015.125h-1.348zm-2.08-1.026c.425.01.826-.09 1.202-.3.38-.215.708-.51.981-.886l.286-1.634-1.004-.007c-.835 0-1.474.132-1.919.396-.444.263-.696.637-.754 1.12-.044.371.041.681.256.93.22.244.537.371.952.381z"/>
  <path fill="#B1B1B1" d="M236.215 73.06h6.924c.479 0 .718.51.379.81l-3.46 3.052a.592.592 0 01-.762 0l-3.46-3.053c-.339-.299-.1-.808.379-.808z"/>
  <defs>
    <filter id="filter0_d_3_304" width="248" height="118" x="11.802" y="94.061" color-interpolation-filters="sRGB" filterUnits="userSpaceOnUse">
      <feFlood flood-opacity="0" result="BackgroundImageFix"/>
      <feColorMatrix in="SourceAlpha" result="hardAlpha" values="0 0 0 0 0 0 0 0 0 0 0 0 0 0 0 0 0 0 127 0"/>
      <feOffset/>
      <feGaussianBlur stdDeviation="3.5"/>
      <feColorMatrix values="0 0 0 0 0.117647 0 0 0 0 0.117647 0 0 0 0 0.117647 0 0 0 0.1 0"/>
      <feBlend in2="BackgroundImageFix" result="effect1_dropShadow_3_304"/>
      <feBlend in="SourceGraphic" in2="effect1_dropShadow_3_304" result="shape"/>
    </filter>
  </defs>
</svg>
