<svg xmlns="http://www.w3.org/2000/svg" fill="none" viewBox="0 0 312 184">
  <path fill="#fff" d="M.845.551h310.248v183.217H.845z"/>
  <path fill="#F9F9F9" d="M19.256 49.358h271.583V89.03H19.256z"/>
  <path fill="#AAA" d="M268.491 67.21h6.996c.484 0 .726.505.384.802l-3.497 3.027a.607.607 0 01-.77 0l-3.496-3.027c-.343-.297-.101-.802.383-.802z"/>
  <path fill="#646464" d="M26.45 30.83H21.93v4.758h-1.421V24.812h6.675v1.17H21.93v3.685h4.522v1.162zm7.002 3.966c-.533.627-1.315.94-2.346.94-.854 0-1.505-.246-1.954-.74-.444-.498-.669-1.233-.674-2.205v-5.21h1.37v5.173c0 1.213.493 1.82 1.48 1.82 1.046 0 1.742-.39 2.087-1.17V27.58h1.37v8.008h-1.303l-.03-.792zm4.714-7.216l.045 1.007c.612-.77 1.41-1.155 2.398-1.155 1.692 0 2.546.955 2.56 2.865v5.291H41.8V30.29c-.005-.577-.138-1.004-.4-1.28-.256-.276-.658-.415-1.206-.415-.444 0-.834.119-1.17.355a2.413 2.413 0 00-.784.933v5.706h-1.369V27.58h1.295zm10.28 7.039c.489 0 .916-.148 1.28-.444.366-.296.568-.666.608-1.11h1.295a2.483 2.483 0 01-.474 1.31c-.291.414-.68.745-1.17.991-.483.247-.996.37-1.539.37-1.09 0-1.958-.362-2.605-1.088-.641-.73-.962-1.727-.962-2.99v-.23c0-.779.143-1.472.43-2.079a3.277 3.277 0 011.228-1.413c.538-.336 1.172-.504 1.902-.504.898 0 1.643.27 2.235.807.597.538.915 1.236.955 2.095h-1.295c-.04-.518-.237-.943-.593-1.273-.35-.336-.784-.504-1.302-.504-.696 0-1.236.252-1.62.755-.38.498-.57 1.221-.57 2.169v.259c0 .922.19 1.633.57 2.131.379.498.922.748 1.627.748zm6.58-8.978v1.94h1.495v1.058h-1.495v4.966c0 .32.066.562.2.725.133.158.36.237.68.237.158 0 .376-.03.652-.089v1.11c-.36.099-.71.148-1.051.148-.612 0-1.073-.185-1.384-.555-.31-.37-.466-.895-.466-1.576v-4.966h-1.458V27.58h1.458v-1.939h1.369zm4.588 9.947h-1.369V27.58h1.37v8.008zm-1.48-10.132c0-.222.067-.41.2-.562.138-.153.34-.23.607-.23.266 0 .469.077.607.23.138.153.207.34.207.562 0 .222-.069.407-.207.555-.138.148-.34.222-.607.222-.267 0-.469-.074-.607-.222a.8.8 0 01-.2-.555zm3.316 6.054c0-.784.153-1.49.459-2.116.31-.627.74-1.11 1.288-1.451.552-.34 1.181-.51 1.887-.51 1.09 0 1.97.377 2.642 1.132.676.755 1.014 1.759 1.014 3.012v.096c0 .78-.15 1.48-.452 2.102a3.372 3.372 0 01-1.28 1.443c-.553.346-1.19.518-1.91.518-1.085 0-1.966-.377-2.642-1.132-.67-.755-1.006-1.754-1.006-2.997v-.097zm1.377.163c0 .888.204 1.601.614 2.139.414.538.967.807 1.658.807.695 0 1.248-.272 1.657-.814.41-.548.615-1.313.615-2.295 0-.878-.21-1.588-.63-2.131-.414-.548-.966-.822-1.657-.822-.676 0-1.221.27-1.636.807-.414.538-.621 1.308-.621 2.31zm8.925-4.093l.044 1.007c.612-.77 1.412-1.155 2.398-1.155 1.693 0 2.546.955 2.561 2.865v5.291h-1.369V30.29c-.005-.577-.138-1.004-.4-1.28-.256-.276-.658-.415-1.206-.415-.444 0-.834.119-1.17.355a2.413 2.413 0 00-.784.933v5.706h-1.37V27.58h1.296zm12.685-1.939v1.94h1.495v1.058h-1.495v4.966c0 .32.067.562.2.725.133.158.36.237.681.237.158 0 .375-.03.651-.089v1.11c-.36.099-.71.148-1.05.148-.612 0-1.074-.185-1.385-.555-.31-.37-.466-.895-.466-1.576v-4.966H81.61V27.58h1.458v-1.939h1.37zm2.59 5.87c0-.785.154-1.49.46-2.117.31-.627.74-1.11 1.287-1.451.553-.34 1.182-.51 1.888-.51 1.09 0 1.97.377 2.642 1.132.676.755 1.014 1.759 1.014 3.012v.096c0 .78-.15 1.48-.452 2.102a3.373 3.373 0 01-1.28 1.443c-.553.346-1.19.518-1.91.518-1.085 0-1.966-.377-2.642-1.132-.67-.755-1.006-1.754-1.006-2.997v-.097zm1.377.162c0 .888.205 1.601.615 2.139.414.538.967.807 1.657.807.696 0 1.249-.272 1.658-.814.41-.548.614-1.313.614-2.295 0-.878-.21-1.588-.629-2.131-.414-.548-.967-.822-1.657-.822-.676 0-1.222.27-1.636.807-.414.538-.622 1.308-.622 2.31zm15.261-2.864a4.106 4.106 0 00-.673-.052c-.898 0-1.508.383-1.828 1.147v5.684h-1.37V27.58h1.333l.022.926c.449-.716 1.085-1.074 1.909-1.074.267 0 .469.035.607.104v1.273zm6.21 5.987c-.533.627-1.315.94-2.347.94-.853 0-1.504-.246-1.953-.74-.444-.498-.669-1.233-.674-2.205v-5.21h1.369v5.173c0 1.213.494 1.82 1.48 1.82 1.047 0 1.742-.39 2.088-1.17V27.58h1.369v8.008h-1.303l-.029-.792zm4.714-7.216l.044 1.007c.612-.77 1.412-1.155 2.398-1.155 1.693 0 2.546.955 2.561 2.865v5.291h-1.369V30.29c-.005-.577-.138-1.004-.4-1.28-.256-.276-.658-.415-1.206-.415-.444 0-.834.119-1.169.355a2.414 2.414 0 00-.785.933v5.706h-1.369V27.58h1.295z"/>
  <path fill="#F3652B" d="M126.823 28.313l-2.235-.666.34-1.118 2.235.83-.066-2.547h1.132l-.074 2.583 2.198-.814.341 1.125-2.273.674 1.466 2.005-.918.696-1.376-2.131-1.333 2.08-.925-.674 1.488-2.043z"/>
  <path fill="#646464" d="M23.875 121.491h-1.422v-10.776h1.422v10.776zm3.685-8.008l.045 1.007c.611-.77 1.41-1.155 2.398-1.155 1.692 0 2.545.955 2.56 2.864v5.292h-1.369v-5.299c-.005-.577-.138-1.004-.4-1.281-.256-.276-.658-.414-1.206-.414-.444 0-.834.118-1.17.355a2.414 2.414 0 00-.784.933v5.706h-1.369v-8.008h1.295zm8.556 8.008h-1.37v-8.008h1.37v8.008zm-1.48-10.132c0-.222.066-.41.2-.562.138-.153.34-.23.606-.23.267 0 .469.077.607.23.138.152.207.34.207.562 0 .222-.069.407-.207.555-.138.148-.34.222-.607.222-.266 0-.468-.074-.607-.222a.798.798 0 01-.2-.555zm5.535.185v1.939h1.495v1.058h-1.494v4.966c0 .321.066.563.2.726.133.158.36.237.68.237.158 0 .375-.03.651-.089v1.11c-.36.099-.71.148-1.05.148-.612 0-1.074-.185-1.384-.555-.311-.37-.467-.896-.467-1.577v-4.966h-1.458v-1.058h1.458v-1.939h1.37zm4.59 9.947h-1.37v-8.008h1.37v8.008zm-1.481-10.132c0-.222.066-.41.2-.562.138-.153.34-.23.607-.23.266 0 .468.077.606.23.139.152.208.34.208.562 0 .222-.07.407-.208.555-.138.148-.34.222-.606.222-.267 0-.47-.074-.607-.222a.799.799 0 01-.2-.555zm8.622 10.132c-.079-.158-.143-.439-.192-.844-.637.661-1.397.992-2.28.992-.79 0-1.438-.222-1.946-.666-.504-.449-.755-1.017-.755-1.702 0-.834.316-1.481.947-1.939.637-.464 1.53-.696 2.68-.696h1.331v-.629c0-.479-.143-.859-.429-1.14-.286-.286-.708-.429-1.265-.429-.489 0-.898.123-1.229.37-.33.247-.496.545-.496.895h-1.376c0-.399.14-.784.421-1.154a2.924 2.924 0 011.155-.888 3.912 3.912 0 011.606-.326c.923 0 1.645.232 2.169.696.523.459.794 1.093.814 1.902v3.686c0 .735.093 1.319.28 1.754v.118h-1.435zm-2.272-1.044c.43 0 .836-.111 1.221-.333.385-.222.664-.51.836-.866v-1.643h-1.073c-1.677 0-2.516.491-2.516 1.473 0 .429.143.765.43 1.007.285.242.653.362 1.102.362zm7.43-8.903v1.939h1.495v1.058H57.06v4.966c0 .321.067.563.2.726.134.158.36.237.681.237.158 0 .375-.03.651-.089v1.11c-.36.099-.71.148-1.05.148-.612 0-1.074-.185-1.384-.555-.311-.37-.467-.896-.467-1.577v-4.966h-1.458v-1.058h1.458v-1.939h1.37zm2.59 5.869c0-.785.154-1.49.46-2.117.31-.626.74-1.11 1.288-1.45.552-.341 1.181-.511 1.887-.511 1.09 0 1.97.378 2.642 1.132.676.755 1.014 1.759 1.014 3.013v.096c0 .779-.15 1.48-.452 2.102a3.373 3.373 0 01-1.28 1.443c-.553.345-1.19.518-1.91.518-1.085 0-1.966-.377-2.642-1.132-.67-.755-1.006-1.754-1.006-2.998v-.096zm1.378.163c0 .888.204 1.601.614 2.139.414.538.967.806 1.658.806.695 0 1.248-.271 1.657-.814.41-.547.615-1.312.615-2.294 0-.878-.21-1.589-.63-2.131-.414-.548-.966-.822-1.657-.822-.676 0-1.221.269-1.636.807-.414.538-.621 1.307-.621 2.309zm11.5-2.864a4.052 4.052 0 00-.673-.052c-.898 0-1.507.382-1.828 1.147v5.684h-1.37v-8.008h1.333l.022.925c.45-.715 1.086-1.073 1.91-1.073.266 0 .469.035.607.104v1.273zm12.39-2.828h-3.464v9.607h-1.413v-9.607h-3.457v-1.169h8.334v1.169zm3.47 7.601l1.866-6.002h1.465l-3.219 9.244c-.498 1.332-1.29 1.998-2.376 1.998l-.259-.022-.51-.096v-1.11l.37.029c.463 0 .824-.094 1.08-.281.262-.188.476-.53.644-1.029l.303-.814-2.856-7.919h1.495l1.998 6.002zm11.325-1.909c0 1.219-.28 2.2-.837 2.945-.557.745-1.312 1.118-2.265 1.118-.972 0-1.736-.308-2.294-.925v3.856h-1.369v-11.087h1.25l.067.888c.558-.691 1.332-1.036 2.324-1.036.962 0 1.722.363 2.28 1.088.562.725.844 1.734.844 3.027v.126zm-1.37-.156c0-.903-.192-1.615-.577-2.138-.385-.523-.913-.785-1.584-.785-.829 0-1.45.368-1.865 1.103v3.826c.41.73 1.036 1.095 1.88 1.095.656 0 1.177-.259 1.562-.777.39-.523.584-1.297.584-2.324zm6.439 4.219c-1.085 0-1.969-.355-2.649-1.066-.681-.715-1.022-1.67-1.022-2.864v-.252c0-.794.151-1.502.452-2.124.306-.626.73-1.115 1.273-1.465a3.2 3.2 0 011.776-.533c1.041 0 1.85.343 2.427 1.029.578.686.866 1.667.866 2.945v.57h-5.425c.02.79.25 1.429.689 1.917.444.484 1.006.725 1.687.725.484 0 .893-.098 1.229-.296a3.07 3.07 0 00.88-.784l.837.651c-.671 1.031-1.678 1.547-3.02 1.547zm-.17-7.179c-.553 0-1.016.202-1.391.607-.375.4-.607.962-.696 1.687h4.011v-.103c-.039-.696-.227-1.234-.562-1.614-.336-.385-.79-.577-1.362-.577zm4.84 6.313c0-.237.069-.434.207-.592.143-.158.356-.237.637-.237s.493.079.636.237a.832.832 0 01.222.592.788.788 0 01-.222.57c-.143.153-.355.229-.636.229s-.494-.076-.637-.229a.82.82 0 01-.207-.57zm.008-6.535c0-.237.069-.434.207-.592.143-.158.355-.237.636-.237.282 0 .494.079.637.237a.832.832 0 01.222.592.788.788 0 01-.222.57c-.143.153-.355.229-.637.229-.281 0-.493-.076-.636-.229a.82.82 0 01-.207-.57z"/>
  <path fill="gray" d="M31.766 67.228c.607-.745 1.396-1.117 2.368-1.117 1.692 0 2.546.954 2.56 2.864v5.291h-1.368v-5.299c-.005-.577-.139-1.004-.4-1.28-.257-.276-.659-.414-1.207-.414-.444 0-.833.118-1.169.355a2.413 2.413 0 00-.784.932v5.706h-1.37V62.9h1.37v4.33zm11.923 7.038c-.08-.157-.143-.439-.193-.843-.636.661-1.396.992-2.28.992-.789 0-1.438-.223-1.946-.666-.503-.45-.755-1.017-.755-1.703 0-.834.316-1.48.948-1.939.636-.464 1.53-.695 2.679-.695h1.332v-.63c0-.478-.143-.858-.43-1.14-.285-.285-.707-.429-1.265-.429-.488 0-.898.124-1.228.37-.33.247-.496.546-.496.896h-1.377c0-.4.14-.785.422-1.155a2.924 2.924 0 011.155-.888 3.91 3.91 0 011.606-.325c.922 0 1.645.231 2.168.695.523.46.794 1.093.814 1.902v3.686c0 .735.094 1.32.281 1.754v.118H43.69zm-2.272-1.043c.429 0 .836-.111 1.22-.333.386-.222.664-.51.837-.866v-1.643h-1.073c-1.678 0-2.516.49-2.516 1.473 0 .43.143.765.429 1.006.286.242.654.363 1.103.363zm6.868-6.964l.044 1.006c.612-.77 1.411-1.154 2.398-1.154 1.692 0 2.546.954 2.56 2.864v5.291H51.92v-5.299c-.005-.577-.139-1.004-.4-1.28-.257-.276-.659-.414-1.206-.414-.445 0-.834.118-1.17.355a2.413 2.413 0 00-.784.932v5.706h-1.37V66.26h1.296zm6.735 3.937c0-1.229.29-2.215.873-2.96.582-.75 1.344-1.125 2.287-1.125.937 0 1.68.32 2.227.962v-4.174h1.37v11.367h-1.258l-.067-.858c-.548.671-1.31 1.007-2.287 1.007-.928 0-1.685-.38-2.272-1.14-.582-.76-.873-1.752-.873-2.975v-.104zm1.369.155c0 .908.187 1.619.562 2.132.375.513.893.77 1.554.77.869 0 1.503-.39 1.902-1.17v-3.678c-.409-.755-1.038-1.132-1.887-1.132-.67 0-1.194.259-1.569.777s-.562 1.285-.562 2.301zm9.007 3.915h-1.37V62.9h1.37v11.367zm5.52.148c-1.085 0-1.968-.355-2.649-1.065-.68-.716-1.021-1.67-1.021-2.864v-.252c0-.794.15-1.502.452-2.124.305-.627.73-1.115 1.273-1.465a3.202 3.202 0 011.776-.533c1.04 0 1.85.343 2.427 1.028.577.686.866 1.668.866 2.946v.57h-5.425c.02.79.25 1.428.689 1.917.444.483 1.006.725 1.687.725.484 0 .893-.099 1.228-.296.336-.197.63-.459.881-.785l.837.652c-.671 1.03-1.678 1.547-3.02 1.547zm-.17-7.178c-.552 0-1.016.202-1.39.606-.376.4-.608.963-.696 1.688h4.011v-.104c-.04-.695-.227-1.233-.563-1.613-.335-.385-.789-.577-1.361-.577zm9.052 2.671h-2.531v4.36h-1.428V63.49h3.567c1.214 0 2.146.276 2.797.829.657.552.985 1.356.985 2.412 0 .671-.183 1.256-.548 1.754-.36.499-.863.871-1.51 1.118l2.531 4.574v.088h-1.524l-2.339-4.359zm-2.531-1.162h2.183c.706 0 1.266-.182 1.68-.547.42-.365.63-.854.63-1.466 0-.666-.2-1.176-.6-1.532-.395-.355-.967-.535-1.717-.54h-2.176v4.085zm11.028 5.67c-1.086 0-1.97-.356-2.65-1.066-.681-.716-1.021-1.67-1.021-2.864v-.252c0-.794.15-1.502.451-2.124.306-.627.73-1.115 1.273-1.465a3.203 3.203 0 011.776-.533c1.041 0 1.85.343 2.428 1.028.577.686.866 1.668.866 2.946v.57h-5.425c.02.79.249 1.428.688 1.917.444.483 1.007.725 1.688.725.483 0 .892-.099 1.228-.296.336-.197.63-.459.88-.785l.837.652c-.671 1.03-1.677 1.547-3.02 1.547zm-.17-7.18c-.553 0-1.017.203-1.392.608-.375.4-.607.962-.696 1.687h4.011v-.104c-.039-.695-.227-1.233-.562-1.613-.336-.385-.79-.577-1.362-.577zm4.55 2.961c0-1.258.29-2.252.867-2.983.577-.735 1.352-1.102 2.324-1.102.947 0 1.695.318 2.242.954l.06-.806h1.257v11.086h-1.369v-3.819c-.552.593-1.287.889-2.205.889-.967 0-1.74-.375-2.317-1.125-.572-.755-.858-1.754-.858-2.998v-.096zm1.37.155c0 .918.192 1.639.577 2.162.39.522.913.784 1.57.784.813 0 1.435-.36 1.864-1.08v-3.923c-.434-.706-1.05-1.058-1.85-1.058-.661 0-1.187.264-1.576.791-.39.523-.585 1.298-.585 2.324zm12.523 3.124c-.533.626-1.315.94-2.347.94-.853 0-1.504-.247-1.953-.74-.445-.499-.669-1.234-.674-2.206v-5.21h1.369v5.173c0 1.214.494 1.82 1.48 1.82 1.046 0 1.742-.39 2.087-1.169V66.26h1.37v8.007h-1.303l-.029-.791zm6.742.94c-1.086 0-1.969-.356-2.65-1.066-.681-.716-1.021-1.67-1.021-2.864v-.252c0-.794.15-1.502.451-2.124a3.56 3.56 0 011.273-1.465 3.205 3.205 0 011.777-.533c1.041 0 1.85.343 2.427 1.028.577.686.866 1.668.866 2.946v.57h-5.425c.02.79.249 1.428.688 1.917.444.483 1.007.725 1.688.725.483 0 .893-.099 1.228-.296.336-.197.629-.459.881-.785l.836.652c-.671 1.03-1.677 1.547-3.019 1.547zm-.17-7.18c-.553 0-1.017.203-1.392.608-.375.4-.607.962-.695 1.687h4.011v-.104c-.04-.695-.227-1.233-.563-1.613-.335-.385-.789-.577-1.361-.577zm9.547 4.907c0-.37-.141-.656-.422-.858-.276-.207-.762-.385-1.458-.533-.691-.148-1.241-.326-1.65-.533-.405-.207-.706-.454-.903-.74-.193-.286-.289-.626-.289-1.021 0-.656.276-1.211.829-1.665.557-.454 1.268-.681 2.131-.681.908 0 1.643.234 2.206.703.567.469.851 1.068.851 1.798h-1.377c0-.375-.16-.698-.481-.97-.315-.27-.715-.406-1.199-.406-.498 0-.888.108-1.169.325-.281.217-.422.501-.422.851 0 .33.131.58.392.748.262.168.733.328 1.414.48.686.154 1.241.336 1.665.549.425.212.738.468.94.77.207.295.311.658.311 1.087 0 .716-.286 1.29-.858 1.725-.573.429-1.315.644-2.228.644-.642 0-1.209-.114-1.702-.34a2.801 2.801 0 01-1.162-.948 2.319 2.319 0 01-.415-1.325h1.369c.025.459.208.824.548 1.095.345.267.799.4 1.362.4.518 0 .932-.104 1.243-.31.316-.213.474-.494.474-.845zm5.01-7.822v1.939h1.495v1.058h-1.495v4.966c0 .32.067.563.2.725.133.158.36.237.681.237.158 0 .375-.03.651-.089v1.11c-.36.1-.71.148-1.051.148-.611 0-1.073-.184-1.384-.555-.31-.37-.466-.895-.466-1.576v-4.966h-1.458v-1.058h1.458v-1.94h1.369z"/>
  <g>
    <path fill="#CCC" fill-rule="evenodd" d="M152.801 29.067a5.391 5.391 0 00-5.389 5.39 5.391 5.391 0 005.389 5.388 5.39 5.39 0 005.389-5.389 5.39 5.39 0 00-5.389-5.389zm.541 8.084h-1.078v-3.233h1.078v3.233zm-1.078-4.31h1.078v-1.079h-1.078v1.078z" clip-rule="evenodd"/>
  </g>
  <g>
    <path fill="#CCC" fill-rule="evenodd" d="M133.018 115.32a5.39 5.39 0 00-5.389 5.389 5.39 5.39 0 005.389 5.389 5.39 5.39 0 005.389-5.389 5.39 5.39 0 00-5.389-5.389zm.54 8.084h-1.077v-3.233h1.077v3.233zm-1.077-4.311h1.077v-1.078h-1.077v1.078z" clip-rule="evenodd"/>
  </g>
  <path fill="#646464" d="M58.865 148.097h-4.622v3.78h5.37v1.149h-6.776v-10.664h6.702v1.158h-5.296v3.427h4.622v1.15zm1.81.901c0-1.216.287-2.192.863-2.93.577-.742 1.33-1.113 2.264-1.113.927 0 1.662.318 2.204.952v-4.131h1.355v11.25h-1.245l-.066-.849c-.542.664-1.296.996-2.263.996-.918 0-1.668-.376-2.249-1.128-.576-.752-.864-1.733-.864-2.944v-.103zm1.354.154c0 .898.186 1.601.557 2.109.37.508.883.762 1.538.762.86 0 1.487-.386 1.882-1.157v-3.64c-.405-.747-1.028-1.121-1.868-1.121-.664 0-1.181.256-1.552.769s-.557 1.272-.557 2.278zm7.12-.154c0-1.235.285-2.217.856-2.944.571-.733 1.328-1.099 2.27-1.099.967 0 1.722.342 2.264 1.026l.066-.879h1.237v7.734c0 1.025-.305 1.833-.915 2.424-.606.591-1.42.887-2.446.887-.572 0-1.13-.123-1.677-.367-.547-.244-.965-.578-1.253-1.003l.703-.813c.581.718 1.292 1.077 2.131 1.077.66 0 1.172-.186 1.539-.557.37-.371.556-.894.556-1.567v-.682c-.542.625-1.282.938-2.219.938-.928 0-1.68-.374-2.256-1.121-.571-.747-.857-1.765-.857-3.054zm1.361.154c0 .893.184 1.597.55 2.109.366.508.879.762 1.538.762.854 0 1.482-.388 1.882-1.165v-3.618c-.415-.757-1.037-1.135-1.868-1.135-.659 0-1.174.256-1.545.769s-.556 1.272-.556 2.278zm10.672 4.021c-1.074 0-1.948-.352-2.622-1.055-.674-.708-1.01-1.653-1.01-2.834v-.249c0-.786.148-1.487.446-2.102.303-.62.723-1.104 1.26-1.451a3.173 3.173 0 011.757-.527c1.03 0 1.831.339 2.403 1.018.571.679.857 1.651.857 2.915v.564h-5.369c.02.781.247 1.414.681 1.897.44.479.996.718 1.67.718.479 0 .884-.098 1.216-.293.332-.195.623-.454.871-.776l.828.644c-.664 1.021-1.66 1.531-2.988 1.531zm-.169-7.105c-.546 0-1.005.201-1.377.601-.37.395-.6.952-.688 1.67h3.97v-.103c-.04-.688-.225-1.22-.557-1.596-.332-.381-.781-.572-1.348-.572zm14.656 4.175h-4.468l-1.003 2.783h-1.45l4.072-10.664h1.23l4.08 10.664h-1.443l-1.018-2.783zm-4.043-1.157h3.626l-1.817-4.988-1.809 4.988zm14.422.066c0 1.206-.276 2.178-.828 2.915-.552.737-1.299 1.106-2.241 1.106-.962 0-1.719-.305-2.271-.916v3.816h-1.355v-10.971h1.238l.066.879c.552-.684 1.318-1.026 2.3-1.026.952 0 1.704.359 2.256 1.077.556.718.835 1.716.835 2.995v.125zm-1.355-.154c0-.893-.191-1.599-.572-2.117-.381-.517-.903-.776-1.567-.776-.82 0-1.436.364-1.846 1.091v3.787c.406.723 1.026 1.084 1.861 1.084.649 0 1.164-.256 1.545-.769.386-.518.579-1.284.579-2.3zm9.777.154c0 1.206-.275 2.178-.827 2.915-.552.737-1.299 1.106-2.241 1.106-.962 0-1.719-.305-2.271-.916v3.816h-1.355v-10.971h1.238l.066.879c.552-.684 1.318-1.026 2.3-1.026.952 0 1.704.359 2.255 1.077.557.718.835 1.716.835 2.995v.125zm-1.355-.154c0-.893-.19-1.599-.571-2.117-.381-.517-.903-.776-1.567-.776-.821 0-1.436.364-1.846 1.091v3.787c.405.723 1.025 1.084 1.86 1.084.65 0 1.165-.256 1.546-.769.386-.518.578-1.284.578-2.3zm4.556 4.028h-1.355v-11.25h1.355v11.25zm3.648 0h-1.355v-7.924h1.355v7.924zM119.854 143c0-.22.066-.406.198-.557.136-.151.336-.227.6-.227.264 0 .464.076.601.227a.803.803 0 01.205.557.778.778 0 01-.205.549c-.137.146-.337.22-.601.22-.264 0-.464-.074-.6-.22a.791.791 0 01-.198-.549zm6.819 9.067c.483 0 .905-.147 1.267-.44.361-.292.561-.659.6-1.098h1.282a2.453 2.453 0 01-.469 1.296c-.288.41-.674.738-1.157.982a3.305 3.305 0 01-1.523.366c-1.079 0-1.939-.359-2.579-1.077-.634-.722-.952-1.709-.952-2.959v-.227c0-.771.142-1.457.425-2.058.283-.6.689-1.067 1.216-1.399.532-.332 1.16-.498 1.882-.498.889 0 1.626.266 2.212.798.591.533.906 1.224.945 2.073h-1.282c-.039-.512-.234-.932-.586-1.26-.346-.332-.776-.498-1.289-.498-.688 0-1.223.249-1.604.747-.376.494-.564 1.209-.564 2.146v.257c0 .913.188 1.616.564 2.109.376.493.913.74 1.612.74zm9.565.959c-.078-.156-.142-.434-.19-.835-.63.655-1.382.982-2.256.982-.782 0-1.424-.22-1.927-.659-.498-.445-.747-1.006-.747-1.685 0-.825.313-1.465.938-1.919.63-.459 1.514-.688 2.651-.688h1.319v-.623c0-.473-.142-.849-.425-1.128-.283-.283-.701-.425-1.253-.425-.483 0-.888.123-1.215.367-.328.244-.491.539-.491.886h-1.362c0-.396.139-.776.417-1.143a2.893 2.893 0 011.143-.879 3.88 3.88 0 011.589-.322c.913 0 1.628.23 2.146.689.518.454.786 1.081.806 1.882v3.647c0 .728.092 1.307.278 1.736v.117h-1.421zm-2.248-1.032c.424 0 .827-.11 1.208-.33.381-.22.657-.505.828-.857v-1.626h-1.062c-1.661 0-2.491.486-2.491 1.458 0 .425.142.757.425.996.283.239.647.359 1.092.359zm7.353-8.811v1.919h1.48v1.047h-1.48v4.915c0 .317.066.556.198.717.132.157.356.235.674.235.156 0 .371-.03.644-.088v1.098a3.912 3.912 0 01-1.04.147c-.605 0-1.062-.183-1.37-.549-.307-.367-.461-.887-.461-1.56v-4.915h-1.443v-1.047h1.443v-1.919h1.355zm4.541 9.843h-1.355v-7.924h1.355v7.924zM144.419 143c0-.22.066-.406.198-.557.137-.151.337-.227.601-.227.263 0 .463.076.6.227a.799.799 0 01.205.557.774.774 0 01-.205.549c-.137.146-.337.22-.6.22-.264 0-.464-.074-.601-.22a.791.791 0 01-.198-.549zm3.281 5.991c0-.777.152-1.475.455-2.095.307-.62.732-1.099 1.274-1.436.547-.336 1.169-.505 1.868-.505 1.079 0 1.95.374 2.614 1.121.669.747 1.004 1.74 1.004 2.981v.095c0 .771-.149 1.465-.447 2.08a3.338 3.338 0 01-1.267 1.428c-.547.342-1.177.513-1.89.513-1.074 0-1.946-.374-2.614-1.121-.665-.747-.997-1.736-.997-2.966v-.095zm1.363.161c0 .879.202 1.584.608 2.117.41.532.957.798 1.64.798.689 0 1.236-.269 1.641-.806.405-.542.608-1.299.608-2.27 0-.869-.208-1.572-.623-2.11-.41-.542-.957-.813-1.64-.813-.669 0-1.209.267-1.619.799-.41.532-.615 1.294-.615 2.285zm8.833-4.05l.044.996c.605-.762 1.396-1.143 2.373-1.143 1.675 0 2.519.945 2.534 2.835v5.236h-1.355v-5.244c-.005-.571-.137-.993-.396-1.267-.253-.273-.651-.41-1.193-.41-.44 0-.826.117-1.158.352-.332.234-.59.542-.776.922v5.647h-1.355v-7.924h1.282zM209.105 148.097h-4.621v3.78h5.368v1.149h-6.775v-10.664h6.702v1.158h-5.295v3.427h4.621v1.15zm1.809.901c0-1.216.288-2.192.865-2.93.576-.742 1.33-1.113 2.263-1.113.927 0 1.662.318 2.204.952v-4.131h1.355v11.25h-1.245l-.066-.849c-.542.664-1.296.996-2.263.996-.918 0-1.667-.376-2.248-1.128-.577-.752-.865-1.733-.865-2.944v-.103zm1.355.154c0 .898.186 1.601.557 2.109.371.508.884.762 1.538.762.859 0 1.487-.386 1.882-1.157v-3.64c-.405-.747-1.027-1.121-1.867-1.121-.664 0-1.182.256-1.553.769s-.557 1.272-.557 2.278zm7.119-.154c0-1.235.286-2.217.857-2.944.572-.733 1.328-1.099 2.271-1.099.967 0 1.721.342 2.263 1.026l.066-.879h1.238v7.734c0 1.025-.305 1.833-.916 2.424-.605.591-1.421.887-2.446.887a4.08 4.08 0 01-1.677-.367c-.547-.244-.965-.578-1.253-1.003l.703-.813c.581.718 1.292 1.077 2.132 1.077.659 0 1.172-.186 1.538-.557.371-.371.556-.894.556-1.567v-.682c-.542.625-1.281.938-2.219.938-.928 0-1.679-.374-2.256-1.121-.571-.747-.857-1.765-.857-3.054zm1.363.154c0 .893.183 1.597.549 2.109.366.508.879.762 1.538.762.855 0 1.482-.388 1.882-1.165v-3.618c-.415-.757-1.037-1.135-1.867-1.135-.659 0-1.175.256-1.546.769s-.556 1.272-.556 2.278zm10.671 4.021c-1.074 0-1.948-.352-2.622-1.055-.674-.708-1.011-1.653-1.011-2.834v-.249c0-.786.149-1.487.447-2.102.303-.62.723-1.104 1.26-1.451a3.174 3.174 0 011.758-.527c1.03 0 1.831.339 2.402 1.018.571.679.857 1.651.857 2.915v.564h-5.369c.02.781.247 1.414.681 1.897.44.479.997.718 1.67.718.479 0 .884-.098 1.216-.293.332-.195.623-.454.872-.776l.827.644c-.664 1.021-1.66 1.531-2.988 1.531zm-.168-7.105c-.547 0-1.006.201-1.377.601-.371.395-.601.952-.689 1.67h3.97v-.103c-.039-.688-.225-1.22-.557-1.596-.332-.381-.781-.572-1.347-.572zm14.648 2.249h-4.475v4.709h-1.406v-10.664h6.606v1.158h-5.2v3.647h4.475v1.15zm3.67 4.709h-1.355v-7.924h1.355v7.924zM248.107 143c0-.22.066-.406.197-.557.137-.151.337-.227.601-.227.264 0 .464.076.601.227a.803.803 0 01.205.557.778.778 0 01-.205.549c-.137.146-.337.22-.601.22-.264 0-.464-.074-.601-.22a.795.795 0 01-.197-.549zm7.47 3.317a4.077 4.077 0 00-.666-.051c-.889 0-1.492.379-1.809 1.135v5.625h-1.355v-7.924h1.318l.022.915c.444-.708 1.074-1.062 1.89-1.062.263 0 .464.034.6.103v1.259zm4.395 6.856c-1.074 0-1.948-.352-2.622-1.055-.674-.708-1.011-1.653-1.011-2.834v-.249c0-.786.149-1.487.447-2.102.303-.62.723-1.104 1.26-1.451a3.173 3.173 0 011.757-.527c1.031 0 1.832.339 2.403 1.018s.857 1.651.857 2.915v.564h-5.369c.02.781.247 1.414.681 1.897.44.479.996.718 1.67.718.479 0 .884-.098 1.216-.293.332-.195.623-.454.872-.776l.827.644c-.664 1.021-1.66 1.531-2.988 1.531zm-.169-7.105c-.546 0-1.005.201-1.376.601-.372.395-.601.952-.689 1.67h3.97v-.103c-.039-.688-.225-1.22-.557-1.596-.332-.381-.781-.572-1.348-.572zm11.851 5.091l1.523-6.057h1.355l-2.307 7.924h-1.098l-1.927-6.005-1.875 6.005h-1.098l-2.3-7.924h1.348l1.56 5.932 1.845-5.932h1.092l1.882 6.057zm9.155 1.867c-.078-.156-.141-.434-.19-.835-.63.655-1.382.982-2.256.982-.781 0-1.423-.22-1.926-.659-.498-.445-.747-1.006-.747-1.685 0-.825.312-1.465.937-1.919.63-.459 1.514-.688 2.652-.688h1.318v-.623c0-.473-.142-.849-.425-1.128-.283-.283-.701-.425-1.252-.425-.484 0-.889.123-1.216.367-.327.244-.491.539-.491.886h-1.362c0-.396.139-.776.417-1.143a2.9 2.9 0 011.143-.879 3.88 3.88 0 011.589-.322c.913 0 1.629.23 2.146.689.518.454.786 1.081.806 1.882v3.647c0 .728.093 1.307.278 1.736v.117h-1.421zm-2.248-1.032c.425 0 .827-.11 1.208-.33.381-.22.657-.505.828-.857v-1.626h-1.062c-1.66 0-2.49.486-2.49 1.458 0 .425.141.757.424.996.284.239.647.359 1.092.359zm6.987 1.032h-1.355v-11.25h1.355v11.25zm3.648 0h-1.355v-11.25h1.355v11.25z"/>
  <g>
    <path stroke="#F3652B" d="M40.6 146.958c0 5.196-4.25 9.415-9.5 9.415-5.251 0-9.5-4.219-9.5-9.415 0-5.195 4.249-9.414 9.5-9.414 5.25 0 9.5 4.219 9.5 9.414z"/>
  </g>
  <g>
    <path stroke="#F3652B" d="M190.84 146.958c0 5.196-4.25 9.415-9.5 9.415-5.251 0-9.5-4.219-9.5-9.415 0-5.195 4.249-9.414 9.5-9.414 5.25 0 9.5 4.219 9.5 9.414z"/>
    <ellipse cx="181.34" cy="146.958" fill="#F3652B" rx="7" ry="6.94"/>
  </g>
</svg>
