<svg xmlns="http://www.w3.org/2000/svg" fill="none" viewBox="0 0 455 196">
  <path fill="#fff" d="M0 .448h454.374V196H0z"/>
  <path fill="#646464" d="M37.285 159.365v7.251c-.005 1.006-.322 1.829-.952 2.468-.625.64-1.475.999-2.549 1.077l-.373.015c-1.167 0-2.098-.315-2.79-.945-.694-.63-1.046-1.497-1.056-2.6v-7.266h1.392v7.222c0 .771.212 1.372.637 1.802.425.424 1.03.637 1.817.637.795 0 1.404-.213 1.823-.637.425-.425.638-1.023.638-1.795v-7.229h1.413zm6.621 8.562c0-.366-.139-.649-.417-.849-.274-.206-.755-.381-1.443-.528-.684-.146-1.228-.322-1.633-.527-.4-.205-.699-.449-.894-.733-.19-.283-.286-.62-.286-1.01 0-.65.274-1.199.82-1.648.553-.449 1.256-.674 2.11-.674.899 0 1.626.232 2.183.696.561.464.842 1.057.842 1.78h-1.362c0-.372-.159-.691-.476-.96-.313-.269-.708-.403-1.187-.403-.493 0-.879.108-1.157.322a1.015 1.015 0 00-.418.843c0 .327.13.573.389.74.258.166.725.324 1.399.476.678.151 1.227.332 1.647.542.42.21.73.463.93.761.206.293.308.652.308 1.077 0 .708-.283 1.277-.85 1.706-.566.425-1.3.638-2.204.638-.635 0-1.196-.113-1.684-.337a2.776 2.776 0 01-1.15-.938 2.298 2.298 0 01-.41-1.311h1.354c.025.454.206.816.542 1.084.342.264.791.396 1.348.396.513 0 .923-.103 1.23-.308.313-.21.47-.488.47-.835zm6.409 2.249c-1.074 0-1.948-.352-2.622-1.055-.674-.708-1.01-1.653-1.01-2.834v-.249c0-.787.148-1.487.446-2.103a3.52 3.52 0 011.26-1.45 3.173 3.173 0 011.758-.527c1.03 0 1.83.339 2.402 1.018.571.679.857 1.65.857 2.915v.564h-5.369c.02.781.247 1.414.681 1.897.44.478.996.718 1.67.718.479 0 .884-.098 1.216-.293.332-.196.623-.454.872-.777l.827.645c-.664 1.02-1.66 1.531-2.988 1.531zm-.168-7.105a1.8 1.8 0 00-1.377.601c-.372.395-.601.952-.689 1.67h3.97v-.103c-.04-.688-.225-1.221-.557-1.596-.332-.381-.781-.572-1.347-.572zm8.664.249a4.08 4.08 0 00-.666-.051c-.89 0-1.492.378-1.81 1.135v5.625H54.98v-7.925H56.3l.022.916c.444-.708 1.074-1.062 1.89-1.062.263 0 .463.034.6.102v1.26zm11.074 3.926h-4.468l-1.003 2.783h-1.45l4.072-10.664h1.23l4.08 10.664h-1.443l-1.018-2.783zm-4.043-1.157h3.626l-1.817-4.988-1.809 4.988zm12.532 3.157c-.527.62-1.301.93-2.322.93-.845 0-1.489-.244-1.933-.733-.44-.493-.662-1.22-.667-2.182v-5.157h1.355v5.12c0 1.201.488 1.802 1.465 1.802 1.035 0 1.724-.386 2.065-1.157v-5.765h1.355v7.925h-1.289l-.029-.783zm5.222-9.061v1.919h1.48v1.048h-1.48v4.914c0 .318.066.557.198.718.132.156.356.234.674.234.156 0 .37-.029.644-.087v1.098a3.915 3.915 0 01-1.04.147c-.605 0-1.062-.183-1.37-.55-.307-.366-.46-.886-.46-1.56v-4.914h-1.444v-1.048h1.443v-1.919h1.355zm4.424 2.879c.6-.737 1.382-1.106 2.344-1.106 1.675 0 2.52.945 2.534 2.834v5.237h-1.355v-5.244c-.005-.571-.137-.994-.396-1.267-.253-.273-.651-.41-1.193-.41-.44 0-.826.117-1.158.351-.332.235-.59.542-.776.923v5.647h-1.355v-11.25h1.355v4.285zm10.195 7.112c-1.074 0-1.948-.352-2.622-1.055-.674-.708-1.01-1.653-1.01-2.834v-.249c0-.787.148-1.487.446-2.103a3.52 3.52 0 011.26-1.45 3.173 3.173 0 011.758-.527c1.03 0 1.83.339 2.402 1.018.572.679.857 1.65.857 2.915v.564h-5.368c.019.781.246 1.414.68 1.897.44.478.997.718 1.67.718.48 0 .884-.098 1.216-.293.332-.196.623-.454.872-.777l.828.645c-.664 1.02-1.66 1.531-2.989 1.531zm-.168-7.105a1.8 1.8 0 00-1.377.601c-.371.395-.6.952-.689 1.67h3.97v-.103c-.039-.688-.224-1.221-.556-1.596-.332-.381-.782-.572-1.348-.572zm6.116-.967l.044.997c.605-.762 1.396-1.143 2.373-1.143 1.674 0 2.519.945 2.534 2.834v5.237h-1.355v-5.244c-.005-.571-.137-.994-.396-1.267-.254-.273-.652-.41-1.194-.41-.439 0-.825.117-1.157.351a2.386 2.386 0 00-.776.923v5.647h-1.355v-7.925h1.282zm8.833-1.919v1.919h1.479v1.048h-1.479v4.914c0 .318.066.557.197.718.132.156.357.234.674.234.156 0 .371-.029.645-.087v1.098a3.918 3.918 0 01-1.04.147c-.606 0-1.062-.183-1.37-.55-.308-.366-.461-.886-.461-1.56v-4.914h-1.443v-1.048h1.443v-1.919h1.355zm4.541 9.844h-1.355v-7.925h1.355v7.925zm-1.465-10.027c0-.219.066-.405.198-.556.136-.152.336-.227.6-.227.264 0 .464.075.601.227a.803.803 0 01.205.556.78.78 0 01-.205.55c-.137.146-.337.219-.601.219-.264 0-.464-.073-.6-.219a.792.792 0 01-.198-.55zm6.819 9.068c.483 0 .905-.147 1.267-.44.361-.293.561-.659.6-1.098h1.282a2.453 2.453 0 01-.469 1.296c-.288.41-.674.737-1.157.981a3.294 3.294 0 01-1.523.367c-1.079 0-1.939-.359-2.579-1.077-.634-.723-.952-1.709-.952-2.959v-.227c0-.771.142-1.458.425-2.058a3.243 3.243 0 011.216-1.399c.532-.332 1.16-.498 1.882-.498.889 0 1.626.266 2.212.798.591.532.906 1.223.945 2.073h-1.282c-.039-.513-.234-.933-.586-1.26-.346-.332-.776-.498-1.289-.498-.688 0-1.223.249-1.604.747-.376.493-.564 1.209-.564 2.146v.257c0 .913.188 1.616.564 2.109.376.493.913.74 1.612.74zm9.565.959c-.078-.156-.142-.434-.19-.835-.63.655-1.382.982-2.256.982-.781 0-1.424-.22-1.927-.659-.498-.445-.747-1.006-.747-1.685 0-.825.313-1.465.938-1.919.63-.459 1.514-.688 2.651-.688h1.319v-.623c0-.474-.142-.85-.425-1.128-.283-.283-.701-.425-1.253-.425-.483 0-.888.122-1.215.366-.328.245-.491.54-.491.887h-1.362c0-.396.139-.777.417-1.143a2.893 2.893 0 011.143-.879 3.864 3.864 0 011.589-.322c.913 0 1.628.229 2.146.688.518.455.786 1.082.806 1.883v3.647c0 .728.092 1.306.278 1.736v.117h-1.421zm-2.248-1.032c.424 0 .827-.11 1.208-.33.381-.22.657-.505.828-.857v-1.626h-1.062c-1.661 0-2.491.486-2.491 1.458 0 .424.142.756.425.996.283.239.647.359 1.092.359zm7.353-8.812v1.919h1.48v1.048h-1.48v4.914c0 .318.066.557.198.718.132.156.356.234.674.234.156 0 .371-.029.644-.087v1.098a3.912 3.912 0 01-1.04.147c-.605 0-1.062-.183-1.37-.55-.307-.366-.461-.886-.461-1.56v-4.914h-1.443v-1.048h1.443v-1.919h1.355zm4.541 9.844h-1.355v-7.925h1.355v7.925zm-1.465-10.027c0-.219.066-.405.198-.556.137-.152.337-.227.601-.227.263 0 .463.075.6.227a.798.798 0 01.205.556c0 .22-.068.403-.205.55-.137.146-.337.219-.6.219-.264 0-.464-.073-.601-.219a.792.792 0 01-.198-.55zm3.281 5.992c0-.777.152-1.475.455-2.095.307-.62.732-1.099 1.274-1.436.547-.337 1.169-.505 1.868-.505 1.079 0 1.95.373 2.614 1.121.669.747 1.004 1.74 1.004 2.98v.096c0 .771-.149 1.465-.447 2.08a3.338 3.338 0 01-1.267 1.428c-.547.342-1.177.513-1.89.513-1.074 0-1.946-.374-2.614-1.121-.665-.747-.997-1.736-.997-2.966v-.095zm1.363.161c0 .879.202 1.584.608 2.116.41.533.957.799 1.64.799.689 0 1.236-.269 1.641-.806.405-.542.608-1.299.608-2.27 0-.87-.208-1.573-.623-2.11-.41-.542-.957-.813-1.64-.813-.669 0-1.209.266-1.619.799-.41.532-.615 1.293-.615 2.285zm8.833-4.051l.044.997c.605-.762 1.396-1.143 2.373-1.143 1.675 0 2.519.945 2.534 2.834v5.237h-1.355v-5.244c-.005-.571-.137-.994-.396-1.267-.253-.273-.651-.41-1.193-.41-.44 0-.826.117-1.158.351-.332.235-.59.542-.776.923v5.647h-1.355v-7.925h1.282zM189.205 158.987h1.413v7.552c0 1.02-.307 1.819-.923 2.395-.61.576-1.425.864-2.446.864-1.06 0-1.885-.271-2.476-.813-.59-.542-.886-1.301-.886-2.278h1.406c0 .611.166 1.087.499 1.428.336.342.822.513 1.457.513.581 0 1.05-.183 1.406-.549.362-.366.545-.879.55-1.538v-7.574zm8.488 10.665c-.078-.157-.141-.435-.19-.835-.63.654-1.382.981-2.256.981-.781 0-1.423-.22-1.926-.659-.498-.444-.747-1.006-.747-1.685 0-.825.312-1.465.937-1.919.63-.459 1.514-.688 2.652-.688h1.318v-.623c0-.473-.142-.849-.425-1.128-.283-.283-.701-.424-1.252-.424-.484 0-.889.122-1.216.366-.327.244-.491.539-.491.886h-1.362c0-.396.139-.776.417-1.143a2.89 2.89 0 011.143-.878 3.865 3.865 0 011.589-.323c.913 0 1.629.23 2.146.689.518.454.786 1.081.806 1.882v3.648c0 .727.093 1.306.278 1.735v.118h-1.421zm-2.248-1.033c.425 0 .827-.11 1.208-.33.381-.219.657-.505.828-.857v-1.626h-1.062c-1.66 0-2.49.486-2.49 1.458 0 .425.141.757.425.996.283.239.646.359 1.091.359zm8.013-.806l1.962-6.086h1.385l-2.842 7.925h-1.033l-2.871-7.925h1.384l2.015 6.086zm9.426 1.839c-.078-.157-.142-.435-.191-.835-.63.654-1.381.981-2.255.981-.782 0-1.424-.22-1.927-.659-.498-.444-.747-1.006-.747-1.685 0-.825.313-1.465.938-1.919.63-.459 1.513-.688 2.651-.688h1.318v-.623c0-.473-.141-.849-.424-1.128-.284-.283-.701-.424-1.253-.424-.483 0-.889.122-1.216.366-.327.244-.49.539-.49.886h-1.363c0-.396.139-.776.418-1.143a2.886 2.886 0 011.142-.878 3.873 3.873 0 011.59-.323c.913 0 1.628.23 2.146.689.517.454.786 1.081.805 1.882v3.648c0 .727.093 1.306.279 1.735v.118h-1.421zm-2.249-1.033c.425 0 .828-.11 1.209-.33.381-.219.656-.505.827-.857v-1.626h-1.062c-1.66 0-2.49.486-2.49 1.458 0 .425.142.757.425.996.283.239.647.359 1.091.359zm8.87-3.721c-1.206-.347-2.085-.771-2.637-1.274a2.458 2.458 0 01-.82-1.875c0-.84.334-1.534 1.003-2.08.674-.552 1.548-.828 2.622-.828.733 0 1.385.142 1.956.425.576.283 1.02.674 1.333 1.172.317.498.476 1.042.476 1.633h-1.414c0-.645-.205-1.15-.615-1.516-.41-.371-.989-.557-1.736-.557-.693 0-1.235.154-1.626.462-.385.302-.578.725-.578 1.267 0 .434.183.803.549 1.106.371.298.999.571 1.882.82.889.249 1.582.525 2.08.828.503.297.874.647 1.114 1.047.244.4.366.872.366 1.414 0 .864-.337 1.557-1.011 2.08-.674.517-1.574.776-2.702.776a5.055 5.055 0 01-2.051-.417c-.635-.284-1.126-.669-1.472-1.158a2.826 2.826 0 01-.513-1.662h1.414c0 .644.236 1.154.71 1.53.478.372 1.116.557 1.912.557.742 0 1.311-.151 1.706-.454.396-.303.593-.715.593-1.238 0-.522-.183-.925-.549-1.208-.366-.288-1.03-.572-1.992-.85zm8.73 3.794a1.95 1.95 0 001.267-.439c.362-.293.562-.66.601-1.099h1.282a2.462 2.462 0 01-.469 1.296 3.075 3.075 0 01-1.157.982 3.312 3.312 0 01-1.524.366c-1.079 0-1.938-.359-2.578-1.077-.635-.722-.952-1.709-.952-2.959v-.227c0-.771.142-1.457.425-2.058.283-.6.688-1.067 1.216-1.399.532-.332 1.159-.498 1.882-.498.889 0 1.626.266 2.212.799.591.532.906 1.223.945 2.072h-1.282c-.039-.512-.234-.932-.586-1.259-.347-.332-.776-.498-1.289-.498-.688 0-1.223.249-1.604.747-.376.493-.564 1.208-.564 2.146v.256c0 .913.188 1.616.564 2.109.376.493.913.74 1.611.74zm8.504-5.749a3.968 3.968 0 00-.667-.052c-.888 0-1.491.379-1.809 1.136v5.625h-1.355v-7.925h1.319l.022.915c.444-.708 1.074-1.062 1.889-1.062.264 0 .464.034.601.103v1.26zm2.724 6.709h-1.355v-7.925h1.355v7.925zm-1.464-10.027c0-.22.065-.406.197-.557.137-.151.337-.227.601-.227.264 0 .464.076.6.227a.8.8 0 01.206.557.773.773 0 01-.206.549c-.136.146-.336.22-.6.22-.264 0-.464-.074-.601-.22a.789.789 0 01-.197-.549zm10.334 6.152c0 1.206-.276 2.178-.828 2.915-.551.737-1.298 1.106-2.241 1.106-.962 0-1.719-.305-2.27-.916v3.816h-1.355v-10.971h1.237l.066.879c.552-.684 1.319-1.026 2.3-1.026.952 0 1.704.359 2.256 1.077.557.718.835 1.716.835 2.996v.124zm-1.355-.154c0-.893-.19-1.599-.571-2.116-.381-.518-.904-.777-1.568-.777-.82 0-1.435.364-1.845 1.091v3.787c.405.723 1.025 1.084 1.86 1.084.649 0 1.165-.256 1.545-.769.386-.518.579-1.284.579-2.3zm4.922-5.815v1.919h1.479v1.047H251.9v4.915c0 .317.066.556.198.717.131.157.356.235.673.235.157 0 .372-.03.645-.088v1.099a3.95 3.95 0 01-1.04.146c-.605 0-1.062-.183-1.37-.549-.307-.367-.461-.887-.461-1.56v-4.915h-1.443v-1.047h1.443v-1.919h1.355z"/>
  <path fill="#EBEBEB" d="M16.894 99.752h421.713v.791H16.894z"/>
  <path fill="#646464" d="M39.704 82.328c-.132 1.128-.549 2-1.252 2.614-.698.61-1.628.916-2.79.916-1.26 0-2.271-.452-3.033-1.355-.757-.903-1.135-2.112-1.135-3.625v-1.026c0-.991.176-1.863.527-2.615.357-.751.86-1.328 1.509-1.728.65-.405 1.401-.608 2.256-.608 1.133 0 2.04.317 2.724.952.684.63 1.082 1.504 1.194 2.622h-1.413c-.122-.85-.388-1.465-.799-1.846-.405-.38-.974-.57-1.706-.57-.898 0-1.604.331-2.117.995-.508.664-.761 1.61-.761 2.835v1.032c0 1.158.241 2.078.725 2.762.483.683 1.16 1.025 2.028 1.025.782 0 1.38-.176 1.795-.527.42-.357.698-.974.835-1.853h1.413zm3.07-3.582c.6-.737 1.381-1.106 2.343-1.106 1.675 0 2.52.945 2.534 2.835v5.237h-1.355v-5.245c-.005-.57-.137-.993-.395-1.267-.254-.273-.652-.41-1.194-.41-.44 0-.825.117-1.157.352-.332.234-.591.542-.777.923v5.647h-1.355v-11.25h1.355v4.284zm10.194 7.112c-1.074 0-1.948-.352-2.622-1.055-.673-.708-1.01-1.653-1.01-2.834v-.25c0-.785.149-1.486.447-2.101.302-.62.722-1.104 1.26-1.45a3.169 3.169 0 011.757-.528c1.03 0 1.831.34 2.402 1.018.572.679.857 1.65.857 2.915v.564h-5.368c.02.782.246 1.414.68 1.897.44.479.997.718 1.67.718.48 0 .885-.098 1.217-.293.332-.195.622-.454.871-.776l.828.644c-.664 1.02-1.66 1.531-2.989 1.531zm-.168-7.105c-.547 0-1.006.2-1.377.601-.371.396-.6.952-.688 1.67h3.97v-.103c-.04-.688-.225-1.22-.557-1.596-.332-.381-.782-.572-1.348-.572zm8.013 6c.483 0 .905-.147 1.267-.44.361-.293.561-.66.6-1.099h1.282c-.024.454-.18.886-.469 1.296a3.08 3.08 0 01-1.157.982 3.306 3.306 0 01-1.523.366c-1.08 0-1.939-.359-2.578-1.077-.635-.722-.953-1.709-.953-2.959v-.227c0-.771.142-1.457.425-2.058.283-.6.689-1.067 1.216-1.399.532-.332 1.16-.498 1.882-.498.89 0 1.626.266 2.212.799.591.532.906 1.223.945 2.072H62.68c-.039-.512-.234-.932-.586-1.26-.346-.332-.776-.498-1.289-.498-.688 0-1.223.25-1.604.748-.376.493-.563 1.208-.563 2.146v.256c0 .913.187 1.616.563 2.11.376.492.913.74 1.612.74zm6.885-2.71l-.85.885v2.784h-1.355v-11.25h1.355v6.804l.725-.872 2.468-2.607h1.648l-3.083 3.31 3.442 4.615h-1.59l-2.76-3.67zm5.031-.367c0-.776.152-1.475.454-2.095.308-.62.733-1.099 1.275-1.435.547-.337 1.17-.506 1.867-.506 1.08 0 1.951.374 2.615 1.12.67.748 1.004 1.742 1.004 2.982v.095c0 .772-.15 1.465-.447 2.08a3.336 3.336 0 01-1.267 1.428c-.547.342-1.177.513-1.89.513-1.074 0-1.946-.374-2.615-1.12-.664-.748-.996-1.736-.996-2.967v-.095zm1.363.161c0 .879.202 1.584.608 2.117.41.532.956.798 1.64.798.689 0 1.235-.268 1.64-.806.406-.542.609-1.298.609-2.27 0-.87-.208-1.572-.623-2.11-.41-.541-.957-.813-1.64-.813-.67 0-1.21.267-1.62.799-.41.532-.614 1.294-.614 2.285zm12.443 3.09c-.527.621-1.3.931-2.321.931-.845 0-1.49-.244-1.934-.732-.44-.494-.662-1.221-.666-2.183v-5.156h1.355v5.12c0 1.2.488 1.801 1.464 1.801 1.035 0 1.724-.386 2.066-1.157v-5.764h1.355v7.924h-1.29l-.029-.783zm5.223-9.06v1.92h1.48v1.047h-1.48v4.915c0 .317.066.556.197.717.132.157.357.235.674.235.156 0 .371-.03.645-.088v1.099a3.927 3.927 0 01-1.04.146c-.606 0-1.062-.183-1.37-.55-.308-.366-.461-.886-.461-1.56v-4.914H88.96v-1.047h1.443v-1.92h1.355zm15.197 9.844h-1.413v-4.929h-5.376v4.93H98.76V75.047h1.406v4.585h5.376v-4.585h1.413v10.665zm7.178 0c-.078-.156-.142-.434-.19-.834-.63.654-1.382.981-2.256.981-.781 0-1.424-.22-1.927-.66-.498-.444-.747-1.005-.747-1.684 0-.825.313-1.465.938-1.919.63-.459 1.514-.688 2.651-.688h1.319v-.623c0-.473-.142-.85-.425-1.128-.283-.283-.701-.424-1.253-.424-.483 0-.888.122-1.215.366-.328.244-.491.54-.491.886h-1.362c0-.395.139-.776.417-1.143a2.891 2.891 0 011.143-.878 3.867 3.867 0 011.589-.323c.913 0 1.628.23 2.146.689.518.454.786 1.081.806 1.882v3.648c0 .727.092 1.306.278 1.735v.118h-1.421zm-2.248-1.032c.424 0 .827-.11 1.208-.33.381-.22.657-.505.828-.857v-1.626h-1.062c-1.661 0-2.491.486-2.491 1.458 0 .425.142.757.425.996.283.24.647.359 1.092.359zm6.796-6.892l.044.996c.606-.762 1.397-1.143 2.373-1.143 1.675 0 2.52.945 2.535 2.835v5.237h-1.355v-5.245c-.005-.57-.137-.993-.396-1.267-.254-.273-.652-.41-1.194-.41-.439 0-.825.117-1.157.352a2.382 2.382 0 00-.776.923v5.647H117.4v-7.925h1.281zm6.665 3.896c0-1.216.289-2.192.865-2.93.576-.742 1.33-1.113 2.263-1.113.928 0 1.662.318 2.204.952v-4.13h1.355v11.25h-1.245l-.066-.85c-.542.664-1.296.996-2.263.996-.918 0-1.667-.376-2.248-1.128-.576-.752-.865-1.733-.865-2.944v-.103zm1.355.154c0 .898.186 1.602.557 2.11.371.507.884.761 1.538.761.86 0 1.487-.386 1.882-1.157v-3.64c-.405-.747-1.027-1.12-1.867-1.12-.664 0-1.182.255-1.553.768s-.557 1.272-.557 2.278zm8.914 3.874h-1.355v-11.25h1.355v11.25zm5.464.147c-1.074 0-1.948-.352-2.622-1.055-.674-.708-1.011-1.653-1.011-2.834v-.25c0-.785.149-1.486.447-2.101.303-.62.722-1.104 1.26-1.45a3.168 3.168 0 011.757-.528c1.031 0 1.831.34 2.403 1.018.571.679.857 1.65.857 2.915v.564h-5.369c.02.782.247 1.414.681 1.897.44.479.996.718 1.67.718.479 0 .884-.098 1.216-.293a3.07 3.07 0 00.872-.776l.827.644c-.664 1.02-1.66 1.531-2.988 1.531zm-.169-7.105c-.546 0-1.005.2-1.377.601-.371.396-.6.952-.688 1.67h3.97v-.103c-.039-.688-.225-1.22-.557-1.596-.332-.381-.781-.572-1.348-.572zm8.665.25a4.057 4.057 0 00-.667-.052c-.888 0-1.491.379-1.809 1.136v5.624h-1.355v-7.924h1.319l.022.915c.444-.708 1.074-1.062 1.889-1.062.264 0 .464.034.601.103v1.26z"/>
  <path fill="#777" d="M313.514 80.404h-4.621v3.78h5.368v1.15h-6.775V74.668h6.702v1.157h-5.295v3.428h4.621v1.15zm1.809.9c0-1.215.288-2.192.865-2.929.576-.742 1.33-1.113 2.263-1.113.927 0 1.662.317 2.204.952v-4.13h1.355v11.25h-1.245l-.066-.85c-.542.664-1.296.996-2.263.996-.918 0-1.667-.376-2.248-1.128-.577-.752-.865-1.734-.865-2.945v-.102zm1.355.155c0 .898.186 1.601.557 2.109.371.508.884.762 1.538.762.859 0 1.487-.386 1.882-1.157v-3.64c-.405-.748-1.028-1.121-1.867-1.121-.664 0-1.182.256-1.553.769s-.557 1.272-.557 2.278zm7.119-.154c0-1.236.286-2.217.857-2.945.572-.732 1.328-1.098 2.271-1.098.967 0 1.721.342 2.263 1.025l.066-.879h1.238v7.735c0 1.025-.305 1.833-.916 2.424-.605.59-1.421.886-2.446.886-.571 0-1.13-.122-1.677-.366-.547-.244-.965-.579-1.253-1.003l.703-.813c.581.717 1.292 1.076 2.132 1.076.659 0 1.172-.185 1.538-.556.371-.371.556-.894.556-1.568v-.68c-.542.624-1.281.937-2.219.937-.928 0-1.68-.374-2.256-1.12-.571-.748-.857-1.766-.857-3.055zm1.363.154c0 .893.183 1.596.549 2.109.366.508.879.762 1.538.762.855 0 1.482-.388 1.882-1.165v-3.618c-.415-.757-1.037-1.135-1.867-1.135-.659 0-1.175.256-1.546.769s-.556 1.272-.556 2.278zm10.671 4.02c-1.074 0-1.948-.35-2.622-1.054-.674-.708-1.011-1.653-1.011-2.834v-.25c0-.786.149-1.486.447-2.102.303-.62.723-1.103 1.26-1.45a3.17 3.17 0 011.758-.527c1.03 0 1.831.34 2.402 1.018.571.679.857 1.65.857 2.915v.564h-5.369c.02.781.247 1.413.681 1.897.44.478.996.718 1.67.718.479 0 .884-.098 1.216-.293.332-.196.623-.454.872-.777l.827.645c-.664 1.02-1.66 1.53-2.988 1.53zm-.168-7.104c-.547 0-1.006.2-1.377.6-.371.396-.601.953-.689 1.67h3.97v-.102c-.039-.688-.225-1.22-.557-1.597-.332-.38-.781-.57-1.347-.57zm14.655 4.175h-4.467l-1.004 2.783h-1.45l4.072-10.664h1.231l4.079 10.664h-1.443l-1.018-2.783zm-4.043-1.157h3.626l-1.817-4.988-1.809 4.988zm14.422.066c0 1.206-.276 2.177-.828 2.915-.552.737-1.299 1.106-2.241 1.106-.962 0-1.719-.306-2.271-.916v3.816h-1.355V77.408h1.238l.066.88c.552-.684 1.319-1.026 2.3-1.026.952 0 1.704.359 2.256 1.076.556.718.835 1.717.835 2.996v.125zm-1.355-.154c0-.894-.191-1.6-.571-2.117-.381-.517-.904-.776-1.568-.776-.82 0-1.435.364-1.846 1.091v3.787c.406.722 1.026 1.084 1.861 1.084.649 0 1.164-.257 1.545-.77.386-.517.579-1.284.579-2.3zm9.778.154c0 1.206-.276 2.177-.828 2.915-.552.737-1.299 1.106-2.241 1.106-.962 0-1.719-.306-2.271-.916v3.816h-1.355V77.408h1.238l.066.88c.552-.684 1.318-1.026 2.3-1.026.952 0 1.704.359 2.256 1.076.556.718.835 1.717.835 2.996v.125zm-1.355-.154c0-.894-.191-1.6-.572-2.117-.381-.517-.903-.776-1.567-.776-.82 0-1.436.364-1.846 1.091v3.787c.406.722 1.026 1.084 1.861 1.084.649 0 1.164-.257 1.545-.77.386-.517.579-1.284.579-2.3zm4.555 4.028h-1.355v-11.25h1.355v11.25zm3.648 0h-1.355v-7.925h1.355v7.925zm-1.465-10.027c0-.22.066-.405.198-.556.136-.152.337-.227.6-.227.264 0 .464.075.601.227a.799.799 0 01.205.556c0 .22-.068.403-.205.55-.137.146-.337.22-.601.22-.263 0-.464-.074-.6-.22a.79.79 0 01-.198-.55zm6.819 9.068c.483 0 .906-.147 1.267-.44.361-.293.561-.659.6-1.098h1.282c-.024.454-.18.886-.469 1.296-.288.41-.673.737-1.157.981a3.303 3.303 0 01-1.523.367c-1.079 0-1.939-.36-2.578-1.077-.635-.723-.952-1.709-.952-2.959v-.227c0-.772.141-1.458.424-2.058.284-.6.689-1.067 1.216-1.4.532-.331 1.16-.497 1.882-.497.889 0 1.626.266 2.212.798.591.532.906 1.223.945 2.073h-1.282c-.039-.513-.234-.933-.585-1.26-.347-.332-.777-.498-1.29-.498-.688 0-1.223.25-1.604.747-.376.493-.564 1.209-.564 2.146v.257c0 .913.188 1.616.564 2.109.376.493.914.74 1.612.74zm9.565.96c-.078-.157-.141-.435-.19-.836-.63.654-1.382.982-2.256.982-.781 0-1.423-.22-1.926-.66-.498-.444-.747-1.005-.747-1.684 0-.825.312-1.465.937-1.919.63-.459 1.514-.689 2.651-.689h1.319v-.622c0-.474-.142-.85-.425-1.128-.283-.283-.701-.425-1.252-.425-.484 0-.889.122-1.216.366-.327.245-.491.54-.491.887h-1.362c0-.396.139-.777.417-1.143a2.89 2.89 0 011.143-.879 3.866 3.866 0 011.589-.322c.913 0 1.629.23 2.146.688.518.454.786 1.082.806 1.883v3.647c0 .728.093 1.306.278 1.736v.117h-1.421zm-2.248-1.034c.424 0 .827-.11 1.208-.33.381-.219.657-.504.828-.856v-1.626h-1.062c-1.66 0-2.49.486-2.49 1.457 0 .425.141.757.424.997.284.239.647.359 1.092.359zm7.353-8.81v1.918h1.48v1.048h-1.48v4.914c0 .318.066.557.198.718.132.156.356.234.674.234.156 0 .371-.029.644-.088v1.1a3.927 3.927 0 01-1.04.146c-.605 0-1.062-.183-1.369-.55-.308-.366-.462-.886-.462-1.56v-4.914h-1.443v-1.048h1.443V75.49h1.355zm4.541 9.843h-1.355v-7.925h1.355v7.925zm-1.465-10.027c0-.22.066-.405.198-.556.137-.152.337-.227.601-.227.263 0 .464.075.6.227a.799.799 0 01.205.556c0 .22-.068.403-.205.55-.136.146-.337.22-.6.22-.264 0-.464-.074-.601-.22a.79.79 0 01-.198-.55zm3.282 5.992c0-.777.151-1.475.454-2.095.307-.62.732-1.099 1.274-1.436.547-.337 1.17-.505 1.868-.505 1.079 0 1.95.373 2.615 1.12.668.748 1.003 1.741 1.003 2.981v.096c0 .771-.149 1.465-.447 2.08a3.336 3.336 0 01-1.267 1.428c-.547.342-1.177.513-1.89.513-1.074 0-1.945-.374-2.614-1.12-.664-.748-.996-1.737-.996-2.967v-.096zm1.362.16c0 .88.203 1.585.608 2.117.41.533.957.799 1.64.799.689 0 1.236-.269 1.641-.806.405-.542.608-1.299.608-2.27 0-.87-.208-1.573-.623-2.11-.41-.542-.957-.813-1.64-.813-.669 0-1.209.266-1.619.799-.41.532-.615 1.293-.615 2.285zm8.833-4.05l.044.996c.605-.761 1.396-1.142 2.373-1.142 1.675 0 2.519.945 2.534 2.834v5.237h-1.355V80.09c-.005-.571-.137-.994-.395-1.267-.254-.273-.652-.41-1.194-.41-.44 0-.825.117-1.157.351a2.383 2.383 0 00-.777.923v5.647h-1.355v-7.925h1.282zM313.514 122.213h-4.621v3.779h5.368v1.15h-6.775v-10.664h6.702v1.157h-5.295v3.428h4.621v1.15zm1.809.9c0-1.215.288-2.192.865-2.929.576-.742 1.33-1.114 2.263-1.114.927 0 1.662.318 2.204.953v-4.131h1.355v11.25h-1.245l-.066-.85c-.542.664-1.296.996-2.263.996-.918 0-1.667-.376-2.248-1.128-.577-.752-.865-1.733-.865-2.944v-.103zm1.355.154c0 .899.186 1.602.557 2.11.371.507.884.761 1.538.761.859 0 1.487-.385 1.882-1.157v-3.64c-.405-.747-1.028-1.121-1.867-1.121-.664 0-1.182.257-1.553.769-.371.513-.557 1.272-.557 2.278zm7.119-.154c0-1.235.286-2.216.857-2.944.572-.732 1.328-1.099 2.271-1.099.967 0 1.721.342 2.263 1.026l.066-.879h1.238v7.734c0 1.026-.305 1.834-.916 2.425-.605.59-1.421.886-2.446.886-.571 0-1.13-.122-1.677-.366-.547-.244-.965-.579-1.253-1.004l.703-.813c.581.718 1.292 1.077 2.132 1.077.659 0 1.172-.186 1.538-.557.371-.371.556-.893.556-1.567v-.681c-.542.625-1.281.937-2.219.937-.928 0-1.68-.373-2.256-1.12-.571-.747-.857-1.765-.857-3.055zm1.363.154c0 .894.183 1.597.549 2.11.366.507.879.761 1.538.761.855 0 1.482-.388 1.882-1.164v-3.618c-.415-.757-1.037-1.136-1.867-1.136-.659 0-1.175.257-1.546.769-.371.513-.556 1.272-.556 2.278zm10.671 4.021c-1.074 0-1.948-.351-2.622-1.054-.674-.708-1.011-1.653-1.011-2.835v-.249c0-.786.149-1.487.447-2.102a3.523 3.523 0 011.26-1.45 3.167 3.167 0 011.758-.528c1.03 0 1.831.34 2.402 1.019.571.678.857 1.65.857 2.915v.564h-5.369c.02.781.247 1.413.681 1.897.44.478.996.717 1.67.717.479 0 .884-.097 1.216-.293.332-.195.623-.454.872-.776l.827.644c-.664 1.021-1.66 1.531-2.988 1.531zm-.168-7.104c-.547 0-1.006.2-1.377.6-.371.396-.601.952-.689 1.67h3.97v-.102c-.039-.689-.225-1.221-.557-1.597-.332-.381-.781-.571-1.347-.571zm14.655 4.175h-4.467l-1.004 2.783h-1.45l4.072-10.664h1.231l4.079 10.664h-1.443l-1.018-2.783zm-4.043-1.158h3.626l-1.817-4.987-1.809 4.987zm14.422.066c0 1.206-.276 2.178-.828 2.915-.552.738-1.299 1.106-2.241 1.106-.962 0-1.719-.305-2.271-.915v3.816h-1.355v-10.972h1.238l.066.879c.552-.684 1.319-1.026 2.3-1.026.952 0 1.704.359 2.256 1.077.556.718.835 1.716.835 2.996v.124zm-1.355-.154c0-.893-.191-1.599-.571-2.116-.381-.518-.904-.777-1.568-.777-.82 0-1.435.364-1.846 1.092v3.786c.406.723 1.026 1.084 1.861 1.084.649 0 1.164-.256 1.545-.769.386-.517.579-1.284.579-2.3zm9.778.154c0 1.206-.276 2.178-.828 2.915-.552.738-1.299 1.106-2.241 1.106-.962 0-1.719-.305-2.271-.915v3.816h-1.355v-10.972h1.238l.066.879c.552-.684 1.318-1.026 2.3-1.026.952 0 1.704.359 2.256 1.077.556.718.835 1.716.835 2.996v.124zm-1.355-.154c0-.893-.191-1.599-.572-2.116-.381-.518-.903-.777-1.567-.777-.82 0-1.436.364-1.846 1.092v3.786c.406.723 1.026 1.084 1.861 1.084.649 0 1.164-.256 1.545-.769.386-.517.579-1.284.579-2.3zm4.555 4.029h-1.355v-11.25h1.355v11.25zm3.648 0h-1.355v-7.925h1.355v7.925zm-1.465-10.027c0-.22.066-.405.198-.557.136-.151.337-.227.6-.227.264 0 .464.076.601.227a.8.8 0 01.205.557.77.77 0 01-.205.549c-.137.147-.337.22-.601.22-.263 0-.464-.073-.6-.22a.788.788 0 01-.198-.549zm6.819 9.067c.483 0 .906-.146 1.267-.439.361-.293.561-.659.6-1.099h1.282c-.024.454-.18.886-.469 1.297-.288.41-.673.737-1.157.981a3.305 3.305 0 01-1.523.366c-1.079 0-1.939-.359-2.578-1.076-.635-.723-.952-1.709-.952-2.959v-.227c0-.772.141-1.458.424-2.059.284-.6.689-1.066 1.216-1.398.532-.333 1.16-.499 1.882-.499.889 0 1.626.267 2.212.799.591.532.906 1.223.945 2.073h-1.282c-.039-.513-.234-.933-.585-1.26-.347-.332-.777-.498-1.29-.498-.688 0-1.223.249-1.604.747-.376.493-.564 1.208-.564 2.146v.256c0 .913.188 1.616.564 2.11.376.493.914.739 1.612.739zm9.565.96c-.078-.156-.141-.435-.19-.835-.63.654-1.382.981-2.256.981-.781 0-1.423-.219-1.926-.659-.498-.444-.747-1.006-.747-1.684 0-.826.312-1.465.937-1.919.63-.459 1.514-.689 2.651-.689h1.319v-.622c0-.474-.142-.85-.425-1.128-.283-.284-.701-.425-1.252-.425-.484 0-.889.122-1.216.366-.327.244-.491.54-.491.886h-1.362c0-.395.139-.776.417-1.142a2.893 2.893 0 011.143-.879 3.865 3.865 0 011.589-.323c.913 0 1.629.23 2.146.689.518.454.786 1.081.806 1.882v3.648c0 .727.093 1.306.278 1.736v.117h-1.421zm-2.248-1.033c.424 0 .827-.11 1.208-.33.381-.219.657-.505.828-.856v-1.626h-1.062c-1.66 0-2.49.485-2.49 1.457 0 .425.141.757.424.996.284.239.647.359 1.092.359zm7.353-8.811v1.919h1.48v1.047h-1.48v4.915c0 .317.066.557.198.718.132.156.356.234.674.234.156 0 .371-.029.644-.088v1.099a3.95 3.95 0 01-1.04.146c-.605 0-1.062-.183-1.369-.549-.308-.366-.462-.886-.462-1.56v-4.915h-1.443v-1.047h1.443v-1.919h1.355zm4.541 9.844h-1.355v-7.925h1.355v7.925zm-1.465-10.027c0-.22.066-.405.198-.557.137-.151.337-.227.601-.227.263 0 .464.076.6.227a.8.8 0 01.205.557.77.77 0 01-.205.549c-.136.147-.337.22-.6.22-.264 0-.464-.073-.601-.22a.788.788 0 01-.198-.549zm3.282 5.991c0-.776.151-1.474.454-2.095.307-.62.732-1.098 1.274-1.435.547-.337 1.17-.506 1.868-.506 1.079 0 1.95.374 2.615 1.121.668.747 1.003 1.741 1.003 2.981v.095c0 .772-.149 1.465-.447 2.08a3.335 3.335 0 01-1.267 1.429c-.547.341-1.177.512-1.89.512-1.074 0-1.945-.373-2.614-1.12-.664-.747-.996-1.736-.996-2.967v-.095zm1.362.161c0 .879.203 1.585.608 2.117.41.532.957.798 1.64.798.689 0 1.236-.268 1.641-.805.405-.542.608-1.299.608-2.271 0-.869-.208-1.572-.623-2.109-.41-.542-.957-.813-1.64-.813-.669 0-1.209.266-1.619.798-.41.532-.615 1.294-.615 2.285zm8.833-4.05l.044.996c.605-.762 1.396-1.143 2.373-1.143 1.675 0 2.519.945 2.534 2.835v5.237h-1.355v-5.244c-.005-.572-.137-.994-.395-1.267-.254-.274-.652-.411-1.194-.411-.44 0-.825.118-1.157.352a2.381 2.381 0 00-.777.923v5.647h-1.355v-7.925h1.282zM313.514 164.721h-4.622v3.78h5.369v1.15h-6.775v-10.665h6.702v1.158h-5.296v3.427h4.622v1.15zm1.809.901c0-1.216.288-2.192.864-2.929.577-.743 1.331-1.114 2.264-1.114.927 0 1.662.318 2.204.952v-4.13h1.355v11.25h-1.245l-.066-.85c-.542.664-1.296.996-2.263.996-.918 0-1.668-.376-2.249-1.128-.576-.752-.864-1.733-.864-2.944v-.103zm1.355.154c0 .898.186 1.602.557 2.109.371.508.884.762 1.538.762.859 0 1.487-.386 1.882-1.157v-3.64c-.405-.747-1.028-1.121-1.868-1.121-.664 0-1.181.257-1.552.769-.371.513-.557 1.272-.557 2.278zm7.119-.154c0-1.235.286-2.217.857-2.944.571-.733 1.328-1.099 2.271-1.099.966 0 1.721.342 2.263 1.026l.066-.879h1.238v7.734c0 1.026-.306 1.834-.916 2.424-.605.591-1.421.887-2.446.887a4.057 4.057 0 01-1.677-.367c-.547-.244-.965-.578-1.253-1.003l.703-.813c.581.718 1.292 1.077 2.132 1.077.659 0 1.171-.186 1.538-.557.371-.371.556-.893.556-1.567v-.681c-.542.625-1.281.937-2.219.937-.928 0-1.68-.373-2.256-1.121-.571-.747-.857-1.765-.857-3.054zm1.363.154c0 .894.183 1.597.549 2.109.366.508.879.762 1.538.762.854 0 1.482-.388 1.882-1.164v-3.619c-.415-.756-1.037-1.135-1.867-1.135-.66 0-1.175.257-1.546.769-.371.513-.556 1.272-.556 2.278zm10.671 4.021c-1.074 0-1.948-.352-2.622-1.055-.674-.708-1.011-1.652-1.011-2.834v-.249c0-.786.149-1.487.447-2.102.303-.62.723-1.104 1.26-1.45a3.166 3.166 0 011.757-.528c1.031 0 1.832.34 2.403 1.018.571.679.857 1.651.857 2.915v.564h-5.369c.02.782.247 1.414.681 1.897.44.479.996.718 1.67.718.479 0 .884-.098 1.216-.293.332-.195.623-.454.872-.776l.827.644c-.664 1.021-1.66 1.531-2.988 1.531zm-.169-7.104c-.546 0-1.005.2-1.376.6-.372.396-.601.952-.689 1.67h3.97v-.102c-.039-.689-.225-1.221-.557-1.597-.332-.381-.781-.571-1.348-.571zm14.656 4.174h-4.468l-1.003 2.784h-1.45l4.072-10.665h1.231l4.079 10.665h-1.443l-1.018-2.784zm-4.043-1.157h3.626l-1.817-4.988-1.809 4.988zm14.422.066c0 1.206-.276 2.178-.828 2.915-.552.737-1.299 1.106-2.241 1.106-.962 0-1.719-.305-2.271-.915v3.815h-1.355v-10.971h1.238l.066.879c.552-.684 1.318-1.026 2.3-1.026.952 0 1.704.359 2.256 1.077.556.718.835 1.716.835 2.996v.124zm-1.355-.154c0-.893-.191-1.599-.572-2.116-.38-.518-.903-.777-1.567-.777-.82 0-1.436.364-1.846 1.091v3.787c.406.723 1.026 1.084 1.861 1.084.649 0 1.164-.256 1.545-.769.386-.518.579-1.284.579-2.3zm9.778.154c0 1.206-.276 2.178-.828 2.915-.552.737-1.299 1.106-2.241 1.106-.962 0-1.719-.305-2.271-.915v3.815h-1.355v-10.971h1.238l.066.879c.552-.684 1.318-1.026 2.3-1.026.952 0 1.704.359 2.256 1.077.556.718.835 1.716.835 2.996v.124zm-1.355-.154c0-.893-.191-1.599-.572-2.116-.381-.518-.903-.777-1.567-.777-.82 0-1.436.364-1.846 1.091v3.787c.405.723 1.026 1.084 1.861 1.084.649 0 1.164-.256 1.545-.769.386-.518.579-1.284.579-2.3zm4.555 4.029h-1.355v-11.25h1.355v11.25zm3.648 0h-1.355v-7.925h1.355v7.925zm-1.465-10.027c0-.22.066-.406.198-.557.136-.151.336-.227.6-.227.264 0 .464.076.601.227a.803.803 0 01.205.557.777.777 0 01-.205.549c-.137.147-.337.22-.601.22-.264 0-.464-.073-.6-.22a.79.79 0 01-.198-.549zm6.819 9.067c.483 0 .905-.146 1.267-.439.361-.293.561-.66.6-1.099h1.282a2.453 2.453 0 01-.469 1.296 3.075 3.075 0 01-1.157.982 3.305 3.305 0 01-1.523.366c-1.079 0-1.939-.359-2.578-1.077-.635-.722-.953-1.709-.953-2.959v-.227c0-.771.142-1.457.425-2.058.283-.6.689-1.067 1.216-1.399.532-.332 1.16-.498 1.882-.498.889 0 1.626.266 2.212.799.591.532.906 1.223.945 2.072h-1.282c-.039-.512-.234-.932-.586-1.259-.346-.332-.776-.498-1.289-.498-.688 0-1.223.249-1.604.747-.376.493-.564 1.208-.564 2.146v.256c0 .913.188 1.616.564 2.109.376.494.913.74 1.612.74zm9.565.96c-.078-.157-.142-.435-.19-.835-.63.654-1.382.981-2.256.981-.781 0-1.424-.22-1.926-.659-.499-.444-.748-1.006-.748-1.685 0-.825.313-1.465.938-1.919.63-.459 1.514-.688 2.651-.688h1.319v-.623c0-.473-.142-.849-.425-1.128-.283-.283-.701-.424-1.253-.424-.483 0-.888.122-1.215.366-.328.244-.491.539-.491.886h-1.362c0-.395.139-.776.417-1.143a2.882 2.882 0 011.143-.878 3.865 3.865 0 011.589-.323c.913 0 1.628.23 2.146.689.518.454.786 1.081.806 1.882v3.648c0 .727.092 1.306.278 1.735v.118h-1.421zm-2.248-1.033c.424 0 .827-.11 1.208-.33.381-.219.657-.505.828-.857v-1.626h-1.062c-1.66 0-2.491.486-2.491 1.458 0 .425.142.757.425.996.283.239.647.359 1.092.359zm7.353-8.811v1.919h1.48v1.047h-1.48v4.915c0 .317.066.556.198.717.132.157.356.235.674.235.156 0 .371-.029.644-.088v1.099a3.95 3.95 0 01-1.04.146c-.605 0-1.062-.183-1.369-.549-.308-.366-.462-.887-.462-1.56v-4.915h-1.443v-1.047h1.443v-1.919h1.355zm4.541 9.844h-1.355v-7.925h1.355v7.925zm-1.465-10.027c0-.22.066-.406.198-.557.137-.151.337-.227.601-.227.263 0 .463.076.6.227a.799.799 0 01.205.557.772.772 0 01-.205.549c-.137.147-.337.22-.6.22-.264 0-.464-.073-.601-.22a.79.79 0 01-.198-.549zm3.281 5.991c0-.776.152-1.475.455-2.095.307-.62.732-1.098 1.274-1.435.547-.337 1.169-.506 1.868-.506 1.079 0 1.95.374 2.614 1.121.669.747 1.004 1.741 1.004 2.981v.095c0 .772-.149 1.465-.447 2.08a3.333 3.333 0 01-1.267 1.428c-.547.342-1.177.513-1.89.513-1.074 0-1.945-.373-2.614-1.121-.664-.747-.997-1.735-.997-2.966v-.095zm1.363.161c0 .879.202 1.585.608 2.117.41.532.957.798 1.64.798.689 0 1.236-.268 1.641-.806.405-.542.608-1.298.608-2.27 0-.869-.208-1.572-.623-2.109-.41-.542-.957-.813-1.64-.813-.669 0-1.209.266-1.619.798-.41.532-.615 1.294-.615 2.285zm8.833-4.05l.044.996c.605-.762 1.396-1.143 2.373-1.143 1.675 0 2.519.945 2.534 2.835v5.237h-1.355v-5.245c-.005-.571-.137-.993-.396-1.267-.253-.273-.651-.41-1.193-.41-.44 0-.826.117-1.158.352-.332.234-.59.542-.776.923v5.647h-1.355v-7.925h1.282z"/>
  <path fill="#646464" d="M189.205 74.67h1.413v7.55c0 1.02-.307 1.82-.923 2.395-.61.577-1.425.865-2.446.865-1.06 0-1.885-.271-2.476-.813-.59-.542-.886-1.302-.886-2.278h1.406c0 .61.166 1.086.499 1.428.336.342.822.513 1.457.513.581 0 1.05-.183 1.406-.55.362-.366.545-.879.55-1.538V74.67zm8.488 10.663c-.078-.156-.141-.434-.19-.835-.63.654-1.382.982-2.256.982-.781 0-1.423-.22-1.926-.66-.498-.444-.747-1.005-.747-1.684 0-.825.312-1.465.937-1.919.63-.459 1.514-.689 2.652-.689h1.318v-.622c0-.474-.142-.85-.425-1.128-.283-.283-.701-.425-1.252-.425-.484 0-.889.122-1.216.366-.327.245-.491.54-.491.887h-1.362c0-.396.139-.777.417-1.143a2.897 2.897 0 011.143-.879 3.866 3.866 0 011.589-.322c.913 0 1.629.23 2.146.688.518.454.786 1.082.806 1.883v3.647c0 .728.093 1.306.278 1.736v.117h-1.421zm-2.248-1.032c.425 0 .827-.11 1.208-.33.381-.22.657-.505.828-.857v-1.626h-1.062c-1.66 0-2.49.486-2.49 1.457 0 .425.141.757.425.997.283.239.646.359 1.091.359zm8.013-.806l1.962-6.087h1.385l-2.842 7.925h-1.033l-2.871-7.925h1.384l2.015 6.087zm9.426 1.838c-.078-.156-.142-.434-.191-.835-.63.654-1.381.982-2.255.982-.782 0-1.424-.22-1.927-.66-.498-.444-.747-1.005-.747-1.684 0-.825.313-1.465.938-1.919.63-.459 1.513-.689 2.651-.689h1.318v-.622c0-.474-.141-.85-.424-1.128-.284-.283-.701-.425-1.253-.425-.483 0-.889.122-1.216.366-.327.245-.49.54-.49.887h-1.363c0-.396.139-.777.418-1.143a2.894 2.894 0 011.142-.879 3.874 3.874 0 011.59-.322c.913 0 1.628.23 2.146.688.517.454.786 1.082.805 1.883v3.647c0 .728.093 1.306.279 1.736v.117h-1.421zm-2.249-1.032c.425 0 .828-.11 1.209-.33.381-.22.656-.505.827-.857v-1.626h-1.062c-1.66 0-2.49.486-2.49 1.457 0 .425.142.757.425.997.283.239.647.359 1.091.359zm8.87-3.721c-1.206-.347-2.085-.772-2.637-1.275a2.457 2.457 0 01-.82-1.875c0-.84.334-1.533 1.003-2.08.674-.551 1.548-.827 2.622-.827.733 0 1.385.141 1.956.424.576.284 1.02.674 1.333 1.172.317.498.476 1.043.476 1.634h-1.414c0-.645-.205-1.15-.615-1.516-.41-.372-.989-.557-1.736-.557-.693 0-1.235.154-1.626.461-.385.303-.578.725-.578 1.267 0 .435.183.804.549 1.106.371.298.999.572 1.882.82.889.25 1.582.525 2.08.828.503.298.874.647 1.114 1.048.244.4.366.871.366 1.413 0 .864-.337 1.558-1.011 2.08-.674.518-1.574.777-2.702.777a5.05 5.05 0 01-2.051-.418c-.635-.283-1.126-.669-1.472-1.157a2.828 2.828 0 01-.513-1.663h1.414c0 .645.236 1.155.71 1.531.478.371 1.116.557 1.912.557.742 0 1.311-.152 1.706-.454.396-.303.593-.716.593-1.238 0-.523-.183-.925-.549-1.209-.366-.288-1.03-.57-1.992-.85zm8.73 3.794a1.95 1.95 0 001.267-.44c.362-.293.562-.659.601-1.098h1.282a2.463 2.463 0 01-.469 1.296c-.288.41-.674.737-1.157.981a3.31 3.31 0 01-1.524.367c-1.079 0-1.938-.36-2.578-1.077-.635-.723-.952-1.709-.952-2.959v-.227c0-.772.142-1.458.425-2.058.283-.6.688-1.067 1.216-1.4.532-.331 1.159-.497 1.882-.497.889 0 1.626.266 2.212.798.591.532.906 1.223.945 2.073h-1.282c-.039-.513-.234-.933-.586-1.26-.347-.332-.776-.498-1.289-.498-.688 0-1.223.25-1.604.747-.376.493-.564 1.209-.564 2.146v.257c0 .913.188 1.616.564 2.109.376.493.913.74 1.611.74zm8.504-5.75a4.057 4.057 0 00-.667-.051c-.888 0-1.491.378-1.809 1.135v5.625h-1.355v-7.925h1.319l.022.916c.444-.708 1.074-1.062 1.889-1.062.264 0 .464.034.601.102v1.26zm2.724 6.71h-1.355v-7.926h1.355v7.925zm-1.464-10.028c0-.22.065-.405.197-.556.137-.152.337-.227.601-.227.264 0 .464.075.6.227a.8.8 0 01.206.556c0 .22-.069.403-.206.55-.136.146-.336.22-.6.22-.264 0-.464-.074-.601-.22a.79.79 0 01-.197-.55zm10.334 6.153c0 1.206-.276 2.177-.828 2.915-.551.737-1.298 1.106-2.241 1.106-.962 0-1.719-.306-2.27-.916v3.816h-1.355V77.408h1.237l.066.88c.552-.684 1.319-1.026 2.3-1.026.952 0 1.704.359 2.256 1.076.557.718.835 1.717.835 2.996v.125zm-1.355-.154c0-.894-.19-1.6-.571-2.117-.381-.517-.904-.776-1.568-.776-.82 0-1.435.364-1.845 1.091v3.787c.405.722 1.025 1.084 1.86 1.084.649 0 1.165-.257 1.545-.77.386-.517.579-1.284.579-2.3zm4.922-5.816v1.92h1.479v1.047H251.9v4.914c0 .318.066.557.198.718.131.156.356.234.673.234.157 0 .372-.029.645-.088v1.1a3.927 3.927 0 01-1.04.146c-.605 0-1.062-.183-1.37-.55-.307-.366-.461-.886-.461-1.56v-4.914h-1.443v-1.048h1.443V75.49h1.355z"/>
  <path fill="#EBEBEB" d="M16.894 141.561h421.713v.791H16.894z"/>
  <path fill="#646464" d="M37.749 124.737H33.28l-1.003 2.784h-1.45l4.072-10.664h1.23l4.08 10.664h-1.443l-1.018-2.784zm-4.043-1.157h3.625l-1.816-4.988-1.81 4.988zm7.998 4.856h-1.165l4.453-11.579h1.158l-4.446 11.579zm6.123-.915v-10.664h3.486c1.157 0 2.027.239 2.608.717.586.479.879 1.187.879 2.124 0 .498-.142.94-.425 1.326-.283.381-.67.676-1.157.886.576.161 1.03.469 1.362.923.337.449.505.986.505 1.611 0 .957-.31 1.709-.93 2.256-.62.547-1.497.821-2.63.821h-3.698zm1.406-4.988v3.838h2.322c.654 0 1.17-.169 1.545-.506.381-.341.572-.81.572-1.406 0-1.284-.699-1.926-2.095-1.926h-2.344zm0-1.128h2.124c.615 0 1.106-.154 1.472-.462.371-.307.557-.725.557-1.252 0-.586-.17-1.011-.513-1.274-.341-.269-.861-.403-1.56-.403h-2.08v3.391zm18.736-3.391H64.54v9.507h-1.4v-9.507h-3.42v-1.157h8.248v1.157zm3.925 9.653c-1.074 0-1.948-.351-2.622-1.055-.674-.708-1.01-1.652-1.01-2.834v-.249c0-.786.148-1.487.446-2.102.303-.62.723-1.104 1.26-1.45a3.166 3.166 0 011.758-.528c1.03 0 1.83.34 2.402 1.018.572.679.857 1.651.857 2.915v.564h-5.368c.019.782.246 1.414.68 1.897.44.479.997.718 1.67.718.479 0 .884-.098 1.216-.293.332-.195.623-.454.872-.776l.828.644c-.664 1.021-1.66 1.531-2.989 1.531zm-.168-7.104c-.547 0-1.006.2-1.377.6-.371.396-.6.952-.689 1.67h3.97v-.102c-.039-.689-.224-1.221-.556-1.597-.332-.381-.782-.571-1.348-.571zm9.448 4.856c0-.367-.14-.65-.417-.85-.274-.205-.755-.381-1.443-.527-.684-.147-1.228-.323-1.634-.528-.4-.205-.698-.449-.893-.732-.19-.283-.286-.62-.286-1.011 0-.649.274-1.199.82-1.648.552-.449 1.255-.674 2.11-.674.898 0 1.626.232 2.183.696.561.464.842 1.057.842 1.78h-1.362c0-.371-.16-.691-.477-.96-.312-.268-.708-.402-1.186-.402-.493 0-.879.107-1.157.322a1.014 1.014 0 00-.418.842c0 .327.13.574.388.74.26.166.725.325 1.4.476.678.151 1.227.332 1.647.542.42.21.73.464.93.762.206.293.308.652.308 1.076 0 .708-.283 1.277-.85 1.707-.566.425-1.3.637-2.204.637-.635 0-1.196-.112-1.685-.337a2.774 2.774 0 01-1.15-.937 2.302 2.302 0 01-.41-1.311h1.355c.025.454.205.815.542 1.084.342.263.791.395 1.348.395.513 0 .923-.102 1.23-.307.313-.21.47-.489.47-.835zm4.959-7.742v1.919h1.48v1.047h-1.48v4.915c0 .317.066.556.197.718.132.156.357.234.674.234.156 0 .371-.029.645-.088v1.099a3.954 3.954 0 01-1.04.146c-.606 0-1.062-.183-1.37-.549-.308-.366-.461-.886-.461-1.56v-4.915h-1.443v-1.047h1.443v-1.919h1.355zM189.205 116.479h1.413v7.551c0 1.02-.307 1.819-.923 2.395-.61.576-1.425.864-2.446.864-1.06 0-1.885-.271-2.476-.813-.59-.542-.886-1.301-.886-2.278h1.406c0 .611.166 1.087.499 1.429.336.341.822.512 1.457.512.581 0 1.05-.183 1.406-.549.362-.366.545-.879.55-1.538v-7.573zm8.488 10.664c-.078-.157-.141-.435-.19-.835-.63.654-1.382.981-2.256.981-.781 0-1.423-.219-1.926-.659-.498-.444-.747-1.006-.747-1.685 0-.825.312-1.464.937-1.918.63-.459 1.514-.689 2.652-.689h1.318v-.623c0-.473-.142-.849-.425-1.127-.283-.284-.701-.425-1.252-.425-.484 0-.889.122-1.216.366-.327.244-.491.54-.491.886h-1.362c0-.395.139-.776.417-1.142a2.9 2.9 0 011.143-.879 3.865 3.865 0 011.589-.323c.913 0 1.629.23 2.146.689.518.454.786 1.081.806 1.882v3.648c0 .727.093 1.306.278 1.736v.117h-1.421zm-2.248-1.033c.425 0 .827-.11 1.208-.33.381-.219.657-.505.828-.856v-1.626h-1.062c-1.66 0-2.49.485-2.49 1.457 0 .425.141.757.425.996.283.239.646.359 1.091.359zm8.013-.806l1.962-6.086h1.385l-2.842 7.925h-1.033l-2.871-7.925h1.384l2.015 6.086zm9.426 1.839c-.078-.157-.142-.435-.191-.835-.63.654-1.381.981-2.255.981-.782 0-1.424-.219-1.927-.659-.498-.444-.747-1.006-.747-1.685 0-.825.313-1.464.938-1.918.63-.459 1.513-.689 2.651-.689h1.318v-.623c0-.473-.141-.849-.424-1.127-.284-.284-.701-.425-1.253-.425-.483 0-.889.122-1.216.366-.327.244-.49.54-.49.886h-1.363c0-.395.139-.776.418-1.142a2.897 2.897 0 011.142-.879 3.873 3.873 0 011.59-.323c.913 0 1.628.23 2.146.689.517.454.786 1.081.805 1.882v3.648c0 .727.093 1.306.279 1.736v.117h-1.421zm-2.249-1.033c.425 0 .828-.11 1.209-.33.381-.219.656-.505.827-.856v-1.626h-1.062c-1.66 0-2.49.485-2.49 1.457 0 .425.142.757.425.996.283.239.647.359 1.091.359zm8.87-3.721c-1.206-.346-2.085-.771-2.637-1.274a2.458 2.458 0 01-.82-1.875c0-.84.334-1.533 1.003-2.08.674-.552 1.548-.828 2.622-.828.733 0 1.385.142 1.956.425.576.283 1.02.674 1.333 1.172.317.498.476 1.042.476 1.633h-1.414c0-.644-.205-1.15-.615-1.516-.41-.371-.989-.557-1.736-.557-.693 0-1.235.154-1.626.462-.385.303-.578.725-.578 1.267 0 .435.183.803.549 1.106.371.298.999.571 1.882.82.889.249 1.582.525 2.08.828.503.298.874.647 1.114 1.047.244.401.366.872.366 1.414 0 .864-.337 1.557-1.011 2.08-.674.517-1.574.776-2.702.776a5.055 5.055 0 01-2.051-.417c-.635-.283-1.126-.669-1.472-1.157a2.831 2.831 0 01-.513-1.663h1.414c0 .644.236 1.155.71 1.531.478.371 1.116.556 1.912.556.742 0 1.311-.151 1.706-.454.396-.303.593-.715.593-1.238 0-.522-.183-.925-.549-1.208-.366-.288-1.03-.571-1.992-.85zm8.73 3.794a1.95 1.95 0 001.267-.439c.362-.293.562-.659.601-1.099h1.282a2.468 2.468 0 01-.469 1.297c-.288.41-.674.737-1.157.981a3.312 3.312 0 01-1.524.366c-1.079 0-1.938-.359-2.578-1.076-.635-.723-.952-1.709-.952-2.959v-.227c0-.772.142-1.458.425-2.059.283-.6.688-1.066 1.216-1.398.532-.333 1.159-.499 1.882-.499.889 0 1.626.267 2.212.799.591.532.906 1.223.945 2.073h-1.282c-.039-.513-.234-.933-.586-1.26-.347-.332-.776-.498-1.289-.498-.688 0-1.223.249-1.604.747-.376.493-.564 1.208-.564 2.146v.256c0 .913.188 1.616.564 2.11.376.493.913.739 1.611.739zm8.504-5.749a4.076 4.076 0 00-.667-.052c-.888 0-1.491.379-1.809 1.136v5.625h-1.355v-7.925h1.319l.022.915c.444-.708 1.074-1.062 1.889-1.062.264 0 .464.035.601.103v1.26zm2.724 6.709h-1.355v-7.925h1.355v7.925zm-1.464-10.027c0-.22.065-.405.197-.557.137-.151.337-.227.601-.227.264 0 .464.076.6.227a.801.801 0 01.206.557c0 .22-.069.403-.206.549-.136.147-.336.22-.6.22-.264 0-.464-.073-.601-.22a.787.787 0 01-.197-.549zm10.334 6.152c0 1.206-.276 2.178-.828 2.915-.551.738-1.298 1.106-2.241 1.106-.962 0-1.719-.305-2.27-.915v3.816h-1.355v-10.972h1.237l.066.879c.552-.684 1.319-1.026 2.3-1.026.952 0 1.704.359 2.256 1.077.557.718.835 1.716.835 2.996v.124zm-1.355-.154c0-.893-.19-1.599-.571-2.116-.381-.518-.904-.777-1.568-.777-.82 0-1.435.364-1.845 1.092v3.786c.405.723 1.025 1.084 1.86 1.084.649 0 1.165-.256 1.545-.769.386-.517.579-1.284.579-2.3zm4.922-5.815v1.919h1.479v1.047H251.9v4.915c0 .317.066.556.198.718.131.156.356.234.673.234.157 0 .372-.029.645-.088v1.099a3.95 3.95 0 01-1.04.146c-.605 0-1.062-.183-1.37-.549-.307-.366-.461-.886-.461-1.56v-4.915h-1.443v-1.047h1.443v-1.919h1.355z"/>
  <path fill="#F3652B" d="M16.688 53.333h422.123v1H16.688z" opacity=".5"/>
  <g clip-path="url(#clip0_3_237)">
    <path fill="#F3652B" d="M263.146 28.333h8.11c.561 0 .841.638.444 1.011l-4.053 3.816a.66.66 0 01-.892 0l-4.053-3.816c-.397-.373-.117-1.01.444-1.01zM186.036 34.183h5.054v1.15h-6.468V24.67h1.414v9.514zm11.338 1.15c-.078-.156-.142-.434-.191-.835-.63.655-1.381.982-2.256.982-.781 0-1.423-.22-1.926-.66-.498-.444-.747-1.005-.747-1.684 0-.825.313-1.465.938-1.919.63-.459 1.513-.688 2.651-.688h1.318v-.623c0-.474-.141-.85-.424-1.128-.284-.283-.701-.425-1.253-.425-.483 0-.889.122-1.216.366-.327.244-.49.54-.49.887h-1.363c0-.396.139-.777.418-1.143a2.894 2.894 0 011.142-.879 3.874 3.874 0 011.59-.322c.913 0 1.628.23 2.146.688.517.454.786 1.082.805 1.883v3.647c0 .728.093 1.306.279 1.736v.117h-1.421zm-2.249-1.032c.425 0 .828-.11 1.209-.33.381-.22.656-.505.827-.857v-1.626h-1.062c-1.66 0-2.49.486-2.49 1.458 0 .424.142.756.425.996.283.239.647.358 1.091.358zm6.797-6.893l.044.996c.606-.761 1.397-1.142 2.373-1.142 1.675 0 2.52.945 2.534 2.834v5.237h-1.355V30.09c-.005-.571-.136-.994-.395-1.267-.254-.273-.652-.41-1.194-.41-.439 0-.825.117-1.157.351a2.392 2.392 0 00-.777.923v5.647h-1.355v-7.925h1.282zm6.672 3.897c0-1.235.286-2.217.857-2.945.572-.732 1.329-1.098 2.271-1.098.967 0 1.721.342 2.263 1.025l.066-.879h1.238v7.735c0 1.025-.305 1.833-.916 2.424-.605.59-1.421.886-2.446.886-.571 0-1.13-.122-1.677-.366-.547-.244-.965-.579-1.253-1.003l.703-.813c.581.717 1.292 1.076 2.132 1.076.659 0 1.172-.185 1.538-.556.371-.371.557-.894.557-1.568v-.68c-.542.624-1.282.937-2.22.937-.927 0-1.679-.374-2.256-1.12-.571-.748-.857-1.766-.857-3.055zm1.363.154c0 .893.183 1.596.549 2.109.366.508.879.762 1.538.762.855 0 1.482-.388 1.883-1.165v-3.618c-.416-.757-1.038-1.135-1.868-1.135-.659 0-1.174.256-1.546.769-.371.512-.556 1.272-.556 2.278zm12.275 3.09c-.527.62-1.301.93-2.322.93-.844 0-1.489-.243-1.933-.732-.44-.493-.662-1.22-.667-2.182v-5.157h1.355v5.12c0 1.201.489 1.802 1.465 1.802 1.035 0 1.724-.386 2.066-1.157v-5.765h1.355v7.925h-1.29l-.029-.783zm8.277.784c-.079-.156-.142-.434-.191-.835-.63.655-1.382.982-2.256.982-.781 0-1.423-.22-1.926-.66-.498-.444-.747-1.005-.747-1.684 0-.825.312-1.465.937-1.919.63-.459 1.514-.688 2.652-.688h1.318v-.623c0-.474-.141-.85-.425-1.128-.283-.283-.7-.425-1.252-.425-.484 0-.889.122-1.216.366-.327.244-.491.54-.491.887h-1.362c0-.396.139-.777.418-1.143a2.894 2.894 0 011.142-.879 3.87 3.87 0 011.589-.322c.914 0 1.629.23 2.146.688.518.454.787 1.082.806 1.883v3.647c0 .728.093 1.306.278 1.736v.117h-1.42zm-2.249-1.032c.425 0 .828-.11 1.209-.33.38-.22.656-.505.827-.857v-1.626h-1.062c-1.66 0-2.49.486-2.49 1.458 0 .424.141.756.425.996.283.239.647.358 1.091.358zm5.193-2.996c0-1.235.286-2.217.857-2.945.571-.732 1.328-1.098 2.27-1.098.967 0 1.722.342 2.264 1.025l.065-.879h1.238v7.735c0 1.025-.305 1.833-.915 2.424-.606.59-1.421.886-2.447.886-.571 0-1.13-.122-1.677-.366-.547-.244-.964-.579-1.252-1.003l.703-.813c.581.717 1.291 1.076 2.131 1.076.659 0 1.172-.185 1.538-.556.371-.371.557-.894.557-1.568v-.68c-.542.624-1.282.937-2.219.937-.928 0-1.68-.374-2.256-1.12-.571-.748-.857-1.766-.857-3.055zm1.362.154c0 .893.183 1.596.55 2.109.366.508.878.762 1.538.762.854 0 1.482-.388 1.882-1.165v-3.618c-.415-.757-1.038-1.135-1.868-1.135-.659 0-1.174.256-1.545.769-.371.512-.557 1.272-.557 2.278zm10.672 4.02c-1.075 0-1.949-.35-2.622-1.054-.674-.708-1.011-1.653-1.011-2.834v-.25c0-.786.149-1.486.447-2.102a3.512 3.512 0 011.259-1.45 3.17 3.17 0 011.758-.527c1.03 0 1.831.34 2.402 1.018.572.679.857 1.65.857 2.915v.564h-5.368c.019.781.246 1.413.681 1.897.439.478.996.718 1.67.718.478 0 .884-.098 1.216-.293.332-.196.622-.454.871-.777l.828.645c-.664 1.02-1.66 1.53-2.988 1.53zm-.169-7.104c-.547 0-1.006.2-1.377.6-.371.396-.6.953-.688 1.67h3.969v-.102c-.039-.688-.224-1.22-.556-1.596-.332-.381-.781-.572-1.348-.572z"/>
  </g>
  <g clip-path="url(#clip1_3_237)">
    <path fill="#F3652B" d="M410.779 33.333h-8.11c-.561 0-.842-.637-.445-1.01l4.054-3.816a.66.66 0 01.892 0l4.053 3.815c.397.374.117 1.011-.444 1.011zM308.995 35.333h-1.407V24.67h1.407v10.664zm3.647-7.925l.044.996c.605-.761 1.396-1.142 2.373-1.142 1.675 0 2.519.945 2.534 2.834v5.237h-1.355V30.09c-.005-.571-.137-.994-.395-1.267-.254-.273-.652-.41-1.194-.41-.44 0-.825.117-1.157.351a2.392 2.392 0 00-.777.923v5.647h-1.355v-7.925h1.282zm8.467 7.925h-1.355v-7.925h1.355v7.925zm-1.465-10.027c0-.22.066-.405.198-.556.136-.152.337-.227.6-.227.264 0 .464.075.601.227a.799.799 0 01.205.556c0 .22-.068.403-.205.55-.137.146-.337.22-.601.22-.263 0-.464-.074-.6-.22a.79.79 0 01-.198-.55zm5.478.183v1.92h1.48v1.047h-1.48v4.914c0 .318.066.557.198.718.132.156.357.234.674.234.156 0 .371-.029.645-.088v1.1a3.939 3.939 0 01-1.04.146c-.606 0-1.063-.183-1.37-.55-.308-.366-.462-.886-.462-1.56v-4.914h-1.442v-1.048h1.442V25.49h1.355zm4.541 9.844h-1.355v-7.925h1.355v7.925zm-1.464-10.027c0-.22.066-.405.197-.556.137-.152.337-.227.601-.227.264 0 .464.075.601.227a.803.803 0 01.205.556c0 .22-.069.403-.205.55-.137.146-.337.22-.601.22-.264 0-.464-.074-.601-.22a.794.794 0 01-.197-.55zm8.532 10.027c-.078-.156-.141-.434-.19-.835-.63.655-1.382.982-2.256.982-.781 0-1.423-.22-1.926-.66-.498-.444-.747-1.005-.747-1.684 0-.825.312-1.465.937-1.919.63-.459 1.514-.688 2.652-.688h1.318v-.623c0-.474-.142-.85-.425-1.128-.283-.283-.701-.425-1.252-.425-.484 0-.889.122-1.216.366-.327.244-.491.54-.491.887h-1.362c0-.396.139-.777.417-1.143a2.897 2.897 0 011.143-.879 3.866 3.866 0 011.589-.322c.913 0 1.629.23 2.146.688.518.454.786 1.082.806 1.883v3.647c0 .728.093 1.306.278 1.736v.117h-1.421zm-2.248-1.032c.425 0 .827-.11 1.208-.33.381-.22.657-.505.828-.857v-1.626h-1.062c-1.66 0-2.49.486-2.49 1.458 0 .424.141.756.424.996.284.239.647.358 1.092.358zm7.353-8.812v1.92h1.48v1.047h-1.48v4.914c0 .318.066.557.198.718.132.156.357.234.674.234.156 0 .371-.029.644-.088v1.1a3.927 3.927 0 01-1.04.146c-.605 0-1.062-.183-1.369-.55-.308-.366-.462-.886-.462-1.56v-4.914h-1.443v-1.048h1.443V25.49h1.355zm2.564 5.808c0-.776.151-1.474.454-2.094.307-.62.732-1.099 1.274-1.436.547-.337 1.17-.505 1.868-.505 1.079 0 1.951.373 2.615 1.12.669.748 1.003 1.741 1.003 2.981v.096c0 .771-.149 1.464-.447 2.08a3.336 3.336 0 01-1.267 1.428c-.547.342-1.176.513-1.889.513-1.075 0-1.946-.374-2.615-1.12-.664-.748-.996-1.737-.996-2.967v-.096zm1.362.162c0 .879.203 1.584.608 2.116.41.533.957.799 1.641.799.688 0 1.235-.269 1.64-.806.406-.542.608-1.299.608-2.27 0-.87-.207-1.573-.622-2.11-.411-.542-.957-.813-1.641-.813-.669 0-1.209.266-1.619.799-.41.532-.615 1.294-.615 2.285zm11.382-2.835a4.057 4.057 0 00-.667-.051c-.888 0-1.491.378-1.809 1.135v5.625h-1.355v-7.925h1.319l.022.916c.444-.708 1.074-1.062 1.889-1.062.264 0 .464.034.601.102v1.26zm6.811-3.135v1.92h1.48v1.047h-1.48v4.914c0 .318.066.557.198.718.132.156.357.234.674.234.156 0 .371-.029.645-.088v1.1a3.939 3.939 0 01-1.04.146c-.606 0-1.062-.183-1.37-.55-.308-.366-.462-.886-.462-1.56v-4.914h-1.442v-1.048h1.442V25.49h1.355zm5.662 7.86l1.846-5.94h1.45l-3.186 9.147c-.493 1.319-1.277 1.978-2.351 1.978l-.256-.022-.506-.095v-1.099l.366.03c.459 0 .816-.093 1.07-.279.258-.186.471-.525.637-1.018l.3-.806-2.827-7.837h1.48l1.977 5.94zm11.206-1.89c0 1.206-.276 2.177-.828 2.915-.551.737-1.298 1.106-2.241 1.106-.962 0-1.718-.305-2.27-.916v3.816h-1.355V27.408h1.238l.065.88c.552-.684 1.319-1.026 2.3-1.026.952 0 1.704.359 2.256 1.076.557.718.835 1.717.835 2.996v.125zm-1.355-.154c0-.894-.19-1.6-.571-2.117-.381-.517-.903-.776-1.568-.776-.82 0-1.435.364-1.845 1.091v3.787c.405.722 1.025 1.084 1.86 1.084.65 0 1.165-.257 1.546-.77.385-.517.578-1.283.578-2.3zm6.372 4.175c-1.074 0-1.948-.352-2.622-1.055-.674-.708-1.011-1.653-1.011-2.834v-.25c0-.786.149-1.486.447-2.102.303-.62.723-1.103 1.26-1.45a3.17 3.17 0 011.758-.527c1.03 0 1.831.34 2.402 1.018.571.679.857 1.65.857 2.915v.564h-5.369c.02.781.247 1.413.682 1.897.439.478.996.718 1.669.718.479 0 .884-.098 1.216-.293.332-.196.623-.454.872-.777l.827.645c-.664 1.02-1.66 1.53-2.988 1.53zm-.168-7.105c-.547 0-1.006.2-1.377.6-.371.396-.601.953-.689 1.67h3.97v-.102c-.039-.688-.225-1.22-.557-1.596-.332-.381-.781-.572-1.347-.572z"/>
  </g>
  <path fill="#F3652B" d="M39.014 34.333h-1.413l-5.37-8.218v8.218h-1.413V23.67h1.414l5.383 8.255v-8.255h1.4v10.664zm7.178 0c-.078-.156-.142-.434-.19-.835-.63.655-1.382.982-2.256.982-.782 0-1.424-.22-1.927-.66-.498-.444-.747-1.005-.747-1.684 0-.825.313-1.465.938-1.919.63-.459 1.513-.688 2.651-.688h1.319v-.623c0-.474-.142-.85-.425-1.128-.283-.283-.701-.425-1.253-.425-.483 0-.888.122-1.216.366-.327.244-.49.54-.49.887h-1.363c0-.396.14-.777.418-1.143a2.893 2.893 0 011.142-.879 3.868 3.868 0 011.59-.322c.913 0 1.628.23 2.146.688.517.454.786 1.082.805 1.883v3.647c0 .728.093 1.306.279 1.736v.117h-1.421zm-2.249-1.032c.425 0 .828-.11 1.209-.33.38-.22.657-.505.828-.857v-1.626h-1.063c-1.66 0-2.49.486-2.49 1.457 0 .425.142.757.425.997.283.239.647.358 1.091.358zm6.79-6.893l.037.88c.58-.684 1.364-1.026 2.35-1.026 1.109 0 1.863.425 2.264 1.274.264-.38.605-.688 1.025-.923.425-.234.925-.351 1.502-.351 1.738 0 2.622.92 2.651 2.761v5.31h-1.355v-5.23c0-.566-.13-.988-.388-1.266-.259-.284-.694-.425-1.304-.425-.503 0-.92.151-1.252.454-.332.298-.525.7-.579 1.208v5.26h-1.362V29.14c0-1.152-.564-1.728-1.692-1.728-.889 0-1.497.378-1.824 1.135v5.786h-1.355v-7.925h1.282zM65.9 34.48c-1.074 0-1.948-.352-2.622-1.055-.674-.708-1.01-1.653-1.01-2.834v-.25c0-.786.148-1.486.446-2.102.303-.62.723-1.103 1.26-1.45a3.17 3.17 0 011.758-.527c1.03 0 1.831.34 2.402 1.018.572.679.857 1.65.857 2.915v.564h-5.369c.02.781.247 1.413.682 1.897.44.478.996.718 1.67.718.478 0 .883-.098 1.215-.293.332-.196.623-.454.872-.777l.828.645c-.664 1.02-1.66 1.53-2.989 1.53zm-.168-7.105c-.547 0-1.006.2-1.377.6-.371.396-.6.953-.688 1.67h3.97v-.102c-.04-.688-.225-1.22-.557-1.596-.332-.381-.782-.572-1.348-.572zM82.271 28.333h8.11c.56 0 .841.638.444 1.011l-4.053 3.816a.66.66 0 01-.892 0l-4.053-3.816c-.397-.373-.117-1.01.444-1.01z"/>
  <defs>
    <clipPath id="clip0_3_237">
      <path fill="#fff" d="M0 0h88v18H0z" transform="translate(183.499 21.866)"/>
    </clipPath>
    <clipPath id="clip1_3_237">
      <path fill="#fff" d="M0 0h105.161v18H0z" transform="translate(306.248 21.333)"/>
    </clipPath>
  </defs>
</svg>
