<svg xmlns="http://www.w3.org/2000/svg" fill="none" viewBox="0 0 303 101">
  <rect width="303" height="100.959" fill="#fff" rx="1.615"/>
  <path fill="#F3652B" d="M17.33 12.57c-.051.552-.255.982-.61 1.292-.355.308-.827.461-1.416.461-.412 0-.775-.097-1.09-.29a1.937 1.937 0 01-.723-.835c-.17-.36-.26-.777-.267-1.252v-.483c0-.487.087-.917.26-1.288.172-.372.42-.658.741-.86a2.083 2.083 0 011.122-.3c.57 0 1.029.154 1.377.464.348.31.55.748.607 1.313h-.895c-.042-.371-.151-.639-.326-.802-.173-.165-.427-.248-.763-.248-.39 0-.691.143-.902.43-.208.283-.315.7-.32 1.252v.458c0 .558.1.984.299 1.277.201.294.494.44.88.44.353 0 .618-.079.795-.237.177-.159.29-.423.337-.792h.895zm2.733-1.37a2.127 2.127 0 00-.351-.028c-.395 0-.661.151-.799.454v2.627h-.862v-3.84h.823l.022.429c.208-.334.496-.5.866-.5.123 0 .224.016.305.05l-.004.808zm1.463 3.053h-.863v-3.84h.863v3.84zm-.916-4.838c0-.132.041-.242.124-.33.085-.087.206-.131.362-.131s.277.044.362.131a.454.454 0 01.128.33.45.45 0 01-.128.327c-.085.085-.206.127-.362.127s-.277-.042-.362-.127a.457.457 0 01-.124-.327zm2.939.064v.934h.677v.638h-.677v2.144c0 .147.028.253.085.32.059.063.163.095.312.095.1 0 .2-.012.302-.035v.667a2.124 2.124 0 01-.568.081c-.663 0-.994-.365-.994-1.096V11.05h-.632v-.639h.632V9.48h.863zm3.03 4.845c-.546 0-.99-.172-1.33-.515-.339-.345-.508-.804-.508-1.377v-.107c0-.383.073-.725.22-1.025.15-.303.357-.539.625-.707.267-.168.565-.252.894-.252.523 0 .926.167 1.21.5.287.335.43.807.43 1.417v.348h-2.51c.027.317.132.568.316.752a.96.96 0 00.703.277c.395 0 .717-.16.965-.48l.465.445c-.154.229-.36.408-.617.535a1.931 1.931 0 01-.863.188zm-.102-3.29a.732.732 0 00-.576.248c-.144.166-.236.396-.276.692h1.643v-.064c-.019-.289-.096-.506-.23-.653-.136-.149-.323-.223-.561-.223zm4.326.166a2.127 2.127 0 00-.352-.028c-.395 0-.66.151-.798.454v2.627h-.863v-3.84h.824l.021.429c.208-.334.497-.5.866-.5.123 0 .225.016.305.05l-.003.808zm1.462 3.053h-.862v-3.84h.862v3.84zm-.916-4.838c0-.132.042-.242.125-.33.085-.087.205-.131.361-.131.157 0 .277.044.362.131a.454.454 0 01.128.33.45.45 0 01-.128.327c-.085.085-.205.127-.362.127-.156 0-.276-.042-.361-.127a.457.457 0 01-.125-.327zm4.153 4.838a1.334 1.334 0 01-.1-.359c-.274.286-.61.43-1.008.43-.385 0-.7-.11-.944-.33a1.056 1.056 0 01-.365-.817c0-.41.151-.723.454-.94.305-.22.74-.33 1.306-.33h.529v-.252a.666.666 0 00-.167-.476c-.111-.12-.28-.18-.507-.18a.754.754 0 00-.483.148.451.451 0 00-.188.373h-.863c0-.21.07-.407.21-.59a1.39 1.39 0 01.568-.432c.241-.104.51-.156.805-.156.45 0 .808.113 1.076.34.267.225.404.542.411.951v1.732c0 .346.049.621.146.827v.06h-.88zm-.948-.621a.97.97 0 00.48-.125.828.828 0 00.34-.333v-.724h-.465c-.32 0-.56.055-.72.166a.54.54 0 00-.242.473c0 .165.055.298.163.397a.65.65 0 00.444.146z"/>
  <path fill="#646464" d="M14.276 22.547c-.39-.111-.673-.249-.852-.411a.794.794 0 01-.265-.606c0-.271.108-.495.325-.672.217-.178.5-.267.847-.267.236 0 .447.046.631.137.187.091.33.218.431.379.102.16.154.336.154.527h-.457c0-.208-.066-.371-.199-.49-.132-.12-.319-.18-.56-.18-.224 0-.4.05-.526.15a.49.49 0 00-.187.409c0 .14.06.26.178.357.12.097.322.185.608.265.287.08.511.17.672.268a.997.997 0 01.36.338.86.86 0 01.118.457c0 .279-.109.503-.327.672-.217.167-.508.25-.873.25-.236 0-.457-.045-.662-.134a1.132 1.132 0 01-.476-.374.914.914 0 01-.165-.537h.456c0 .208.077.373.23.494.154.12.36.18.617.18.24 0 .424-.049.552-.147a.477.477 0 00.191-.4.465.465 0 00-.177-.39c-.118-.093-.333-.185-.644-.274zm2.856 1.583c-.347 0-.63-.113-.847-.34-.218-.23-.326-.534-.326-.916v-.08c0-.254.048-.48.144-.68.098-.2.233-.356.407-.468.175-.114.364-.17.568-.17.332 0 .591.11.776.329.184.219.277.533.277.941v.182h-1.735c.006.253.08.457.22.613a.7.7 0 00.54.232.762.762 0 00.392-.095.984.984 0 00.282-.25l.267.208c-.214.33-.536.494-.965.494zm-.054-2.295a.582.582 0 00-.445.194c-.12.128-.194.308-.223.54h1.283v-.033c-.013-.223-.073-.395-.18-.516a.548.548 0 00-.435-.185zm2.155-.932v.62h.478v.338h-.478v1.588c0 .102.021.18.064.232.043.05.115.075.218.075.05 0 .12-.009.208-.028v.355a1.267 1.267 0 01-.336.047c-.196 0-.343-.059-.443-.177-.099-.118-.149-.286-.149-.504V21.86h-.466v-.338h.466v-.62h.438zm3.774 3.18a.914.914 0 01-.062-.27.977.977 0 01-.728.317.911.911 0 01-.623-.213.698.698 0 01-.241-.544c0-.266.101-.473.303-.62.203-.148.489-.222.856-.222h.426v-.201a.488.488 0 00-.137-.365c-.091-.091-.226-.137-.405-.137a.638.638 0 00-.392.119c-.106.078-.159.174-.159.286h-.44c0-.128.045-.251.135-.37a.935.935 0 01.369-.283 1.25 1.25 0 01.514-.104c.294 0 .526.074.693.222.167.147.254.35.26.608v1.178c0 .235.03.422.09.561v.038h-.46zm-.727-.334a.77.77 0 00.39-.106.644.644 0 00.268-.277v-.525h-.343c-.536 0-.804.157-.804.47 0 .138.046.245.137.323a.527.527 0 00.352.115zm2.258.334H24.1v-3.634h.438v3.634zm1.178 0h-.438v-3.634h.438v3.634zm2.931-.31a.63.63 0 00.41-.142.5.5 0 00.194-.355h.414a.794.794 0 01-.151.419.996.996 0 01-.374.317 1.07 1.07 0 01-.492.118c-.35 0-.627-.116-.833-.347-.205-.234-.308-.553-.308-.956v-.074c0-.249.046-.47.137-.665.092-.194.223-.344.393-.451.172-.108.375-.161.608-.161.287 0 .525.086.715.258a.92.92 0 01.305.67h-.414a.597.597 0 00-.606-.569.615.615 0 00-.518.242c-.121.159-.182.39-.182.693v.083c0 .295.06.522.182.681.122.16.295.24.52.24zm1.394-.994c0-.25.049-.476.147-.676.1-.2.236-.355.412-.464.176-.109.377-.163.603-.163.348 0 .63.12.845.362.216.241.324.562.324.963v.03c0 .25-.048.474-.145.672-.094.198-.23.351-.409.462-.177.11-.38.165-.61.165a1.08 1.08 0 01-.845-.362c-.215-.241-.322-.56-.322-.958v-.03zm.44.052c0 .284.066.512.197.684.132.172.309.258.53.258a.63.63 0 00.53-.26c.13-.175.196-.42.196-.734 0-.28-.067-.508-.201-.681a.631.631 0 00-.53-.263.628.628 0 00-.523.258c-.133.172-.199.418-.199.738zm2.854-1.308l.014.322a.933.933 0 01.766-.37c.541 0 .814.306.82.916v1.692h-.439v-1.694c-.001-.185-.044-.321-.127-.41-.082-.088-.211-.132-.386-.132a.632.632 0 00-.374.114.77.77 0 00-.25.298v1.824h-.438v-2.56h.414zm2.153 1.259c0-.393.093-.709.279-.947.186-.24.43-.36.731-.36.3 0 .537.103.712.308V20.45h.438v3.634h-.402l-.022-.274c-.175.214-.418.321-.73.321a.878.878 0 01-.727-.364c-.186-.243-.28-.56-.28-.951v-.033zm.438.05c0 .29.06.517.18.68.12.165.285.247.496.247.278 0 .48-.125.608-.374V22.21a.643.643 0 00-.603-.362.584.584 0 00-.502.249c-.12.165-.18.41-.18.735zm2.879 1.251h-.438v-2.56h.438v2.56zm-.473-3.24c0-.07.021-.13.064-.179.044-.049.108-.073.194-.073.085 0 .15.024.194.073a.258.258 0 01.066.18.25.25 0 01-.066.177c-.044.048-.11.071-.194.071-.086 0-.15-.023-.194-.07a.255.255 0 01-.064-.178zm1.77.06v.62h.478v.338h-.478v1.588c0 .102.02.18.063.232.043.05.116.075.218.075.05 0 .12-.009.208-.028v.355a1.267 1.267 0 01-.336.047c-.195 0-.343-.059-.442-.177-.1-.118-.15-.286-.15-.504V21.86h-.465v-.338h.466v-.62h.438zm1.467 3.18h-.438v-2.56h.438v2.56zm-.474-3.24c0-.07.022-.13.064-.179.044-.049.109-.073.194-.073s.15.024.194.073a.259.259 0 01.066.18.25.25 0 01-.066.177c-.044.048-.109.071-.194.071s-.15-.023-.194-.07a.256.256 0 01-.064-.178zm1.06 1.936c0-.25.05-.476.147-.676.1-.2.236-.355.412-.464.176-.109.377-.163.603-.163.349 0 .63.12.845.362.216.241.324.562.324.963v.03c0 .25-.048.474-.144.672-.095.198-.232.351-.41.462-.177.11-.38.165-.61.165a1.08 1.08 0 01-.845-.362c-.214-.241-.322-.56-.322-.958v-.03zm.44.052c0 .284.066.512.197.684.132.172.309.258.53.258a.63.63 0 00.53-.26c.13-.175.196-.42.196-.734 0-.28-.067-.508-.201-.681a.631.631 0 00-.53-.263.629.629 0 00-.523.258c-.132.172-.199.418-.199.738zm2.854-1.308l.014.322a.933.933 0 01.767-.37c.54 0 .814.306.818.916v1.692h-.438v-1.694c-.001-.185-.044-.321-.127-.41-.082-.088-.21-.132-.386-.132a.632.632 0 00-.374.114.772.772 0 00-.25.298v1.824h-.438v-2.56h.414zm3.75 1.881a.318.318 0 00-.135-.274c-.088-.067-.244-.123-.466-.17a2.23 2.23 0 01-.528-.171.762.762 0 01-.288-.237.571.571 0 01-.093-.326c0-.21.089-.387.265-.533.179-.145.406-.217.682-.217.29 0 .525.075.705.224.181.15.272.342.272.575h-.44a.394.394 0 00-.154-.31.567.567 0 00-.383-.13.598.598 0 00-.374.104.328.328 0 00-.135.273c0 .105.042.185.125.239.084.053.235.104.452.153.22.05.397.108.533.175a.76.76 0 01.3.246c.066.095.1.211.1.348a.658.658 0 01-.275.551c-.183.138-.42.206-.712.206-.205 0-.386-.036-.544-.108a.897.897 0 01-.372-.303.743.743 0 01-.132-.424h.438a.458.458 0 00.175.35c.11.085.255.128.435.128a.706.706 0 00.398-.1.311.311 0 00.15-.269zm2.804-2.5v.619h.478v.338h-.478v1.588c0 .102.021.18.064.232.042.05.115.075.217.075.05 0 .12-.009.209-.028v.355a1.268 1.268 0 01-.337.047c-.195 0-.343-.059-.442-.177-.1-.118-.149-.286-.149-.504V21.86h-.466v-.338h.466v-.62h.438zm.828 1.875c0-.25.049-.476.146-.676.1-.2.237-.355.412-.464.177-.109.378-.163.603-.163.35 0 .63.12.845.362.216.241.324.562.324.963v.03c0 .25-.048.474-.144.672-.095.198-.231.351-.41.462-.176.11-.38.165-.61.165a1.08 1.08 0 01-.844-.362c-.215-.241-.322-.56-.322-.958v-.03zm.44.052c0 .284.065.512.196.684.133.172.31.258.53.258a.63.63 0 00.53-.26c.131-.175.197-.42.197-.734 0-.28-.067-.508-.201-.681a.631.631 0 00-.53-.263.629.629 0 00-.523.258c-.133.172-.2.418-.2.738zm4.704 1.3c-.347 0-.63-.114-.848-.341-.217-.23-.326-.534-.326-.916v-.08c0-.254.048-.48.144-.68.098-.2.234-.356.407-.468.175-.114.365-.17.568-.17.333 0 .592.11.776.329.185.219.277.533.277.941v.182h-1.734c.006.253.08.457.22.613a.7.7 0 00.54.232.763.763 0 00.392-.095.984.984 0 00.282-.25l.267.208c-.215.33-.536.494-.965.494zm-.055-2.296a.582.582 0 00-.445.194c-.12.128-.194.308-.222.54h1.282v-.033c-.012-.223-.072-.395-.18-.516a.548.548 0 00-.435-.185zm2.42.623l.568-.935h.511l-.837 1.266.864 1.294h-.507l-.591-.958-.592.958h-.508l.863-1.294-.837-1.266h.506l.56.935zm2.56 1.672c-.346 0-.629-.113-.846-.34-.218-.23-.327-.534-.327-.916v-.08c0-.254.048-.48.144-.68.098-.2.234-.356.407-.468.175-.114.365-.17.568-.17.333 0 .592.11.776.329.185.219.277.533.277.941v.182h-1.734c.006.253.08.457.22.613a.7.7 0 00.54.232.763.763 0 00.392-.095.984.984 0 00.282-.25l.267.208c-.215.33-.536.494-.965.494zm-.054-2.295a.582.582 0 00-.445.194c-.12.128-.194.308-.222.54h1.282v-.033c-.012-.223-.072-.395-.18-.516a.548.548 0 00-.435-.185zm2.589 1.938a.63.63 0 00.409-.142.5.5 0 00.194-.355h.414a.794.794 0 01-.151.419.996.996 0 01-.374.317 1.069 1.069 0 01-.492.118c-.349 0-.627-.116-.833-.347-.205-.234-.308-.553-.308-.956v-.074c0-.249.046-.47.138-.665.091-.194.222-.344.392-.451.172-.108.375-.161.608-.161.287 0 .526.086.715.258a.92.92 0 01.305.67h-.414a.597.597 0 00-.606-.569.615.615 0 00-.518.242c-.121.159-.182.39-.182.693v.083c0 .295.06.522.182.681.122.16.295.24.52.24zm3.09.057c-.17.2-.42.3-.75.3-.273 0-.481-.078-.625-.236-.142-.16-.214-.395-.215-.705v-1.666h.438v1.654c0 .388.157.582.473.582.334 0 .556-.125.667-.374v-1.862h.438v2.56h-.417l-.01-.253zm1.687-2.927v.62h.478v.338h-.478v1.588c0 .102.021.18.064.232.042.05.115.075.217.075.05 0 .12-.009.209-.028v.355a1.267 1.267 0 01-.337.047c-.195 0-.343-.059-.442-.177-.1-.118-.149-.286-.149-.504V21.86h-.466v-.338h.466v-.62h.438zm2.053 3.227c-.347 0-.629-.113-.847-.34-.217-.23-.326-.534-.326-.916v-.08c0-.254.048-.48.144-.68.098-.2.234-.356.407-.468.175-.114.365-.17.568-.17.333 0 .591.11.776.329.185.219.277.533.277.941v.182H71.53c.006.253.08.457.22.613a.7.7 0 00.54.232.763.763 0 00.392-.095.984.984 0 00.281-.25l.268.208c-.215.33-.536.494-.965.494zm-.054-2.295a.582.582 0 00-.445.194c-.12.128-.194.308-.222.54h1.282v-.033c-.012-.223-.072-.395-.18-.516a.548.548 0 00-.435-.185zm3.601 1.607l.596-1.919h.469l-1.03 2.955c-.159.426-.412.639-.759.639l-.083-.007-.163-.03v-.356l.118.01c.149 0 .264-.03.346-.09.083-.06.152-.17.206-.33l.097-.26-.914-2.531h.478l.64 1.919zm1.304-.663c0-.25.049-.476.147-.676.099-.2.236-.355.411-.464.177-.109.378-.163.604-.163.348 0 .63.12.844.362.216.241.324.562.324.963v.03c0 .25-.048.474-.144.672-.095.198-.231.351-.41.462-.176.11-.38.165-.61.165a1.08 1.08 0 01-.844-.362c-.215-.241-.322-.56-.322-.958v-.03zm.44.052c0 .284.065.512.196.684.133.172.31.258.53.258a.63.63 0 00.53-.26c.131-.175.197-.42.197-.734 0-.28-.067-.508-.201-.681a.631.631 0 00-.53-.263.629.629 0 00-.523.258c-.133.172-.2.418-.2.738zm4.02.999c-.17.2-.42.3-.75.3-.273 0-.481-.078-.625-.236-.142-.16-.214-.395-.215-.705v-1.666h.438v1.654c0 .388.157.582.473.582.334 0 .557-.125.667-.374v-1.862h.438v2.56h-.417l-.01-.253zm2.33-1.914a1.318 1.318 0 00-.215-.017c-.287 0-.482.122-.584.367v1.817h-.438v-2.56h.426l.007.296a.682.682 0 01.61-.343c.085 0 .15.01.194.033v.407zm2.844 0a1.316 1.316 0 00-.215-.017c-.287 0-.482.122-.584.367v1.817h-.438v-2.56h.426l.007.296a.681.681 0 01.61-.343c.085 0 .15.01.194.033v.407zm1.986 1.914c-.17.2-.42.3-.75.3-.273 0-.482-.078-.625-.236-.142-.16-.214-.395-.216-.705v-1.666h.438v1.654c0 .388.158.582.473.582.335 0 .557-.125.668-.374v-1.862h.437v2.56h-.416l-.01-.253zm1.568.253h-.438v-3.634h.438v3.634zm1.765.047c-.347 0-.63-.113-.847-.34-.218-.23-.326-.534-.326-.916v-.08c0-.254.048-.48.144-.68.098-.2.233-.356.407-.468.175-.114.364-.17.568-.17.333 0 .591.11.776.329.184.219.277.533.277.941v.182h-1.735c.007.253.08.457.22.613a.7.7 0 00.54.232.762.762 0 00.393-.095.984.984 0 00.281-.25l.267.208c-.214.33-.536.494-.965.494zm-.054-2.295a.582.582 0 00-.445.194c-.12.128-.194.308-.222.54h1.282v-.033c-.013-.223-.073-.395-.18-.516a.548.548 0 00-.435-.185zm1.57 2.018c0-.075.023-.138.067-.189.046-.05.114-.076.204-.076.09 0 .157.026.203.076.047.05.071.114.071.19a.251.251 0 01-.071.182c-.046.049-.114.073-.203.073-.09 0-.158-.024-.204-.073a.262.262 0 01-.066-.183z"/>
  <path fill="#C8C8C8" fill-rule="evenodd" d="M77.355 78.235c-1.453 0-2.632.964-2.632 2.151 0 1.188 1.18 2.151 2.632 2.151 1.453 0 2.633-.963 2.633-2.15 0-1.188-1.18-2.152-2.633-2.152zm.263 3.227h-.526v-1.29h.526v1.29zm-.526-1.722h.526v-.43h-.526v.43z" clip-rule="evenodd"/>
  <rect width="54.403" height="14.34" x="37.43" y="32.706" fill="#F9F9F9" rx="2.019"/>
  <path fill="#AAA" d="M83.45 38.974h2.796c.194 0 .29.207.154.327l-1.398 1.233a.239.239 0 01-.307 0L83.298 39.3c-.137-.12-.04-.327.153-.327z"/>
  <path fill="#646464" d="M43.547 40.406h-1.011v1.742h-.57v-4.306h1.425c.485 0 .857.11 1.118.331.262.22.393.542.393.964 0 .268-.073.502-.219.701-.144.2-.345.348-.603.447l1.011 1.828v.035h-.609l-.934-1.742zm-1.011-.464h.872c.282 0 .506-.073.672-.22a.737.737 0 00.251-.585c0-.266-.08-.47-.24-.612-.157-.142-.386-.214-.685-.216h-.87v1.633zm4.407 2.265c-.434 0-.787-.142-1.059-.426-.272-.286-.408-.667-.408-1.144v-.1c0-.318.06-.601.18-.85.123-.25.292-.445.509-.585a1.28 1.28 0 01.71-.213c.416 0 .74.137.97.41.23.275.346.667.346 1.178v.228h-2.168c.008.315.1.57.275.766.177.193.402.29.674.29.194 0 .357-.04.491-.119.134-.079.252-.183.352-.313l.335.26c-.269.412-.67.618-1.207.618zm-.068-2.869c-.221 0-.406.081-.556.243-.15.16-.243.384-.278.674h1.603v-.041c-.016-.278-.091-.493-.225-.645a.685.685 0 00-.544-.23zm1.819 1.183c0-.502.115-.9.346-1.191.23-.294.54-.441.928-.441.379 0 .678.127.896.381l.024-.322h.503v4.43h-.547v-1.526c-.221.237-.515.355-.882.355-.386 0-.695-.15-.925-.45-.229-.301-.343-.7-.343-1.197v-.039zm.547.063c0 .366.077.654.23.863a.742.742 0 00.628.314c.325 0 .573-.144.745-.432V39.76c-.174-.282-.42-.423-.74-.423a.743.743 0 00-.63.317c-.155.209-.233.518-.233.928zm5.004 1.248c-.213.25-.526.375-.938.375-.34 0-.6-.098-.78-.296-.178-.199-.267-.492-.27-.88v-2.083h.548v2.067c0 .485.197.728.591.728.418 0 .696-.156.834-.468v-2.327h.547v3.2h-.52l-.012-.316zm2.694.375c-.434 0-.786-.142-1.059-.426-.272-.286-.408-.667-.408-1.144v-.1c0-.318.06-.601.18-.85a1.42 1.42 0 01.51-.585 1.28 1.28 0 01.71-.213c.415 0 .739.137.97.41.23.275.345.667.345 1.178v.228H56.02c.007.315.1.57.274.766.178.193.403.29.675.29.193 0 .357-.04.49-.119.135-.079.252-.183.353-.313l.334.26c-.268.412-.67.618-1.207.618zm-.068-2.869c-.22 0-.406.081-.556.243-.15.16-.242.384-.278.674h1.603v-.041c-.016-.278-.09-.493-.224-.645a.685.685 0 00-.545-.23zm3.816 1.961a.398.398 0 00-.17-.343c-.11-.083-.304-.154-.582-.213a2.787 2.787 0 01-.66-.213.954.954 0 01-.36-.296.714.714 0 01-.115-.408c0-.262.11-.484.33-.665.224-.181.508-.272.853-.272.362 0 .656.093.881.28a.89.89 0 01.34.72h-.55a.492.492 0 00-.192-.388.71.71 0 00-.48-.163c-.199 0-.354.044-.467.13a.41.41 0 00-.168.34c0 .133.052.232.157.3.104.066.292.13.564.192.274.06.496.134.666.218a.95.95 0 01.375.308.74.74 0 01.125.435.823.823 0 01-.343.689c-.23.171-.526.257-.89.257-.257 0-.484-.045-.68-.136a1.122 1.122 0 01-.465-.378.928.928 0 01-.166-.53h.547c.01.184.083.33.22.438.137.106.319.16.543.16.207 0 .373-.042.497-.125a.39.39 0 00.19-.337zm2.002-3.126v.775h.597v.423h-.597v1.984c0 .129.026.225.08.29.053.063.144.095.272.095.063 0 .15-.012.26-.036v.444c-.144.04-.284.06-.42.06-.245 0-.429-.075-.553-.223-.124-.148-.186-.358-.186-.63v-1.984h-.583v-.423h.583v-.775h.547zm5.859-.331v2.928c-.002.406-.13.738-.385.996-.252.259-.595.404-1.029.435l-.15.006c-.472 0-.848-.127-1.128-.381-.28-.255-.422-.605-.426-1.05v-2.934h.562v2.916c0 .311.086.554.258.727.171.172.416.258.733.258.322 0 .567-.086.737-.258.171-.171.257-.413.257-.724v-2.92h.57zm2.475 2.564h-1.011v1.742h-.571v-4.306h1.425c.485 0 .858.11 1.118.331.263.22.394.542.394.964 0 .268-.073.502-.22.701-.143.2-.344.348-.603.447l1.012 1.828v.035h-.61l-.934-1.742zm-1.011-.464h.872c.282 0 .506-.073.671-.22a.737.737 0 00.252-.585c0-.266-.08-.47-.24-.612-.157-.142-.386-.214-.686-.216h-.87v1.633zm3.773 2.206h-.567v-4.306h.567v4.306z"/>
  <rect width="54.403" height="14.34" x="37.43" y="54.216" fill="#F9F9F9" rx="2.019"/>
  <path fill="#AAA" d="M83.45 60.484h2.796c.194 0 .29.206.154.327l-1.398 1.233a.239.239 0 01-.307 0l-1.397-1.233c-.137-.12-.04-.327.153-.327z"/>
  <path fill="#646464" d="M43.547 61.916h-1.011v1.742h-.57V59.35h1.425c.485 0 .857.11 1.118.332.262.22.393.542.393.964 0 .268-.073.502-.219.7-.144.2-.345.349-.603.447l1.011 1.828v.036h-.609l-.934-1.742zm-1.011-.465h.872c.282 0 .506-.073.672-.219a.737.737 0 00.251-.585c0-.266-.08-.47-.24-.612-.157-.142-.386-.214-.685-.216h-.87v1.632zm4.407 2.266c-.434 0-.787-.142-1.059-.426-.272-.286-.408-.667-.408-1.145v-.1c0-.318.06-.6.18-.85.123-.25.292-.445.509-.585a1.28 1.28 0 01.71-.213c.416 0 .74.137.97.411.23.275.346.667.346 1.178v.227h-2.168c.008.316.1.571.275.766.177.194.402.29.674.29.194 0 .357-.04.491-.118.134-.079.252-.184.352-.314l.335.26c-.269.413-.67.619-1.207.619zm-.068-2.869c-.221 0-.406.08-.556.242-.15.16-.243.385-.278.675h1.603v-.042c-.016-.278-.091-.492-.225-.644a.685.685 0 00-.544-.231zm1.819 1.183c0-.503.115-.9.346-1.192.23-.294.54-.44.928-.44.379 0 .678.127.896.38l.024-.321h.503v4.43h-.547v-1.526c-.221.236-.515.355-.882.355-.386 0-.695-.15-.925-.45-.229-.301-.343-.7-.343-1.198v-.038zm.547.062c0 .367.077.655.23.864a.742.742 0 00.628.313c.325 0 .573-.144.745-.432v-1.567c-.174-.282-.42-.423-.74-.423a.743.743 0 00-.63.316c-.155.21-.233.519-.233.93zm5.004 1.248c-.213.25-.526.376-.938.376-.34 0-.6-.099-.78-.296-.178-.2-.267-.493-.27-.881v-2.082h.548v2.067c0 .485.197.727.591.727.418 0 .696-.155.834-.467v-2.327h.547v3.2h-.52l-.012-.317zm2.694.376c-.434 0-.786-.142-1.059-.426-.272-.286-.408-.667-.408-1.145v-.1c0-.318.06-.6.18-.85a1.42 1.42 0 01.51-.585 1.28 1.28 0 01.71-.213c.415 0 .739.137.97.411.23.275.345.667.345 1.178v.227H56.02c.007.316.1.571.274.766.178.194.403.29.675.29.193 0 .357-.04.49-.118.135-.079.252-.184.353-.314l.334.26c-.268.413-.67.619-1.207.619zm-.068-2.869c-.22 0-.406.08-.556.242-.15.16-.242.385-.278.675h1.603v-.042c-.016-.278-.09-.492-.224-.644a.685.685 0 00-.545-.231zm3.816 1.96a.398.398 0 00-.17-.342c-.11-.083-.304-.154-.582-.213a2.782 2.782 0 01-.66-.213.954.954 0 01-.36-.296.714.714 0 01-.115-.408c0-.262.11-.484.33-.666.224-.18.508-.272.853-.272.362 0 .656.094.881.281a.89.89 0 01.34.72h-.55a.493.493 0 00-.192-.388.71.71 0 00-.48-.163c-.199 0-.354.043-.467.13a.41.41 0 00-.168.34c0 .132.052.232.157.299.104.067.292.131.564.192.274.061.496.134.666.219a.95.95 0 01.375.308.74.74 0 01.125.434.823.823 0 01-.343.69c-.23.171-.526.257-.89.257-.257 0-.484-.046-.68-.136a1.122 1.122 0 01-.465-.379.929.929 0 01-.166-.53h.547c.01.184.083.33.22.439.137.106.319.16.543.16.207 0 .373-.042.497-.125a.39.39 0 00.19-.337zm2.002-3.125v.775h.597v.422h-.597v1.985c0 .128.026.225.08.29.053.063.144.094.272.094.063 0 .15-.011.26-.035v.444c-.144.04-.284.059-.42.059-.245 0-.429-.074-.553-.222-.124-.148-.186-.358-.186-.63V60.88h-.583v-.422h.583v-.775h.547zm5.859-.332v2.928c-.002.407-.13.739-.385.997-.252.258-.595.403-1.029.435l-.15.006c-.472 0-.848-.127-1.128-.382-.28-.254-.422-.604-.426-1.05v-2.934h.562v2.917c0 .311.086.554.258.727.171.172.416.257.733.257.322 0 .567-.085.737-.257.171-.171.257-.413.257-.724v-2.92h.57zm2.475 2.565h-1.011v1.742h-.571V59.35h1.425c.485 0 .858.11 1.118.332.263.22.394.542.394.964 0 .268-.073.502-.22.7-.143.2-.344.349-.603.447l1.012 1.828v.036h-.61l-.934-1.742zm-1.011-.465h.872c.282 0 .506-.073.671-.219a.737.737 0 00.252-.585c0-.266-.08-.47-.24-.612-.157-.142-.386-.214-.686-.216h-.87v1.632zm3.773 2.207h-.567V59.35h.567v4.307zM13.97 40.216h-.568v-4.307h.568v4.307zm1.225 0v-2.778h-.506v-.422h.506v-.329c0-.343.091-.608.275-.795.183-.188.442-.281.778-.281.126 0 .251.016.375.05l-.03.444a1.566 1.566 0 00-.295-.027c-.177 0-.314.052-.411.157-.097.102-.145.25-.145.443v.338h.683v.422h-.683v2.778h-.547zm1.819-.287c0-.095.027-.174.082-.237.058-.063.142-.095.255-.095.112 0 .197.032.254.095.06.063.089.142.089.237 0 .09-.03.166-.089.227-.057.062-.142.092-.254.092-.113 0-.197-.03-.255-.092a.327.327 0 01-.082-.227zm.003-2.612c0-.095.027-.173.082-.236.058-.064.142-.095.255-.095.112 0 .197.032.254.095.06.063.089.141.089.236 0 .09-.03.167-.089.228-.057.061-.142.092-.254.092-.113 0-.197-.031-.255-.092a.327.327 0 01-.082-.228z"/>
  <path fill="#F3652B" d="M20.563 37.308l-.893-.266.136-.447.893.332-.027-1.018h.453l-.03 1.033.879-.326.136.45-.908.269.585.801-.366.278-.55-.851-.533.83-.37-.268.595-.817z"/>
  <path fill="#646464" d="M15.739 60.602h-1.804l-.405 1.123h-.586l1.644-4.306h.497l1.648 4.306h-.583l-.411-1.123zm-1.633-.468h1.464l-.733-2.014-.73 2.014zm3.638-1.609l.018.403c.244-.308.564-.462.958-.462.677 0 1.018.382 1.024 1.145v2.114h-.548v-2.117c-.002-.231-.055-.401-.16-.512-.102-.11-.263-.165-.481-.165a.79.79 0 00-.468.141.964.964 0 00-.313.373v2.28h-.547v-3.2h.517zm2.692 1.574c0-.491.116-.886.349-1.183.232-.3.537-.45.913-.45.375 0 .672.128.89.385v-1.669h.548v4.543h-.503l-.027-.343c-.218.268-.523.403-.913.403-.371 0-.674-.152-.908-.456-.233-.304-.35-.7-.35-1.189V60.1zm.547.062c0 .363.075.646.224.852.15.205.357.307.622.307.347 0 .6-.156.76-.467v-1.47a.804.804 0 00-.755-.453.73.73 0 00-.627.311c-.15.207-.224.514-.224.92zm2.987 1.277c0-.094.027-.173.083-.236.057-.063.142-.095.254-.095.112 0 .197.032.254.095.06.063.09.142.09.236 0 .091-.03.167-.09.228-.057.061-.142.092-.254.092-.112 0-.197-.03-.254-.092a.327.327 0 01-.083-.227zm.003-2.611c0-.095.027-.174.083-.237.057-.063.142-.094.254-.094.112 0 .197.031.254.094.06.063.09.142.09.237 0 .09-.03.167-.09.228-.057.06-.142.091-.254.091-.112 0-.197-.03-.254-.091a.327.327 0 01-.083-.228z"/>
  <g>
    <rect width="64.494" height="14.34" x="98.853" y="32.706" fill="#F9F9F9" rx="2.019"/>
    <path fill="#AAA" d="M155.161 38.974h2.796c.193 0 .29.207.153.327l-1.397 1.233a.24.24 0 01-.308 0l-1.397-1.233c-.137-.12-.04-.327.153-.327z"/>
    <path fill="#646464" d="M105.168 41.3a.398.398 0 00-.168-.344c-.111-.083-.305-.154-.583-.213a2.773 2.773 0 01-.659-.213.953.953 0 01-.361-.296.713.713 0 01-.115-.408.83.83 0 01.331-.665c.223-.181.506-.272.852-.272.362 0 .656.093.881.28a.89.89 0 01.34.72h-.55a.493.493 0 00-.192-.388.71.71 0 00-.479-.163c-.2 0-.355.044-.468.13a.41.41 0 00-.168.34c0 .133.052.232.156.3.105.066.293.13.565.192.274.06.496.134.666.218a.946.946 0 01.375.308.738.738 0 01.125.435.825.825 0 01-.343.689c-.229.171-.526.257-.891.257a1.61 1.61 0 01-.68-.136 1.119 1.119 0 01-.464-.378.924.924 0 01-.166-.53h.547c.01.184.083.33.219.438.138.106.32.16.544.16.207 0 .373-.042.497-.125a.39.39 0 00.189-.337zm2.003-3.127v.775h.597v.423h-.597v1.984c0 .129.026.225.08.29.053.063.143.095.272.095.063 0 .149-.012.26-.036v.444c-.144.04-.284.06-.42.06-.245 0-.429-.075-.553-.223-.124-.148-.186-.358-.186-.63v-1.984h-.583v-.423h.583v-.775h.547zm3.215 3.975a1.112 1.112 0 01-.077-.337 1.222 1.222 0 01-.911.396c-.316 0-.575-.089-.778-.266a.873.873 0 01-.302-.68c0-.334.126-.592.379-.775.254-.185.611-.278 1.07-.278h.533v-.252a.607.607 0 00-.172-.455c-.114-.114-.283-.171-.505-.171a.797.797 0 00-.491.147c-.133.099-.199.218-.199.358h-.55a.75.75 0 01.169-.461c.114-.15.268-.268.461-.355.195-.087.409-.13.642-.13.369 0 .658.092.867.278.209.183.317.436.325.76V41.4c0 .294.037.527.112.7v.048h-.573zm-.908-.417a.964.964 0 00.488-.133.81.81 0 00.334-.346v-.657h-.429c-.67 0-1.006.197-1.006.589a.5.5 0 00.172.402.659.659 0 00.441.145zm3.773-2.292a1.628 1.628 0 00-.269-.02c-.359 0-.602.152-.73.458v2.271h-.547v-3.2h.532l.009.37a.852.852 0 01.763-.43c.106 0 .187.015.242.042v.509zm1.396-1.266v.775h.598v.423h-.598v1.984c0 .129.027.225.08.29.053.063.144.095.272.095.063 0 .15-.012.261-.036v.444c-.144.04-.284.06-.42.06-.245 0-.429-.075-.553-.223-.125-.148-.187-.358-.187-.63v-1.984h-.582v-.423h.582v-.775h.547zm3.103 3.126a.397.397 0 00-.169-.343c-.11-.083-.304-.154-.582-.213a2.798 2.798 0 01-.66-.213.953.953 0 01-.361-.296.713.713 0 01-.115-.408.83.83 0 01.331-.665c.223-.181.507-.272.852-.272.363 0 .657.093.881.28a.89.89 0 01.34.72h-.55a.493.493 0 00-.192-.388.709.709 0 00-.479-.163c-.199 0-.355.044-.467.13a.408.408 0 00-.169.34c0 .133.052.232.157.3.104.066.293.13.565.192.274.06.496.134.665.218a.95.95 0 01.376.308.738.738 0 01.124.435.822.822 0 01-.343.689c-.229.171-.526.257-.89.257-.257 0-.483-.045-.681-.136a1.125 1.125 0 01-.464-.378.93.93 0 01-.165-.53h.547a.57.57 0 00.219.438c.138.106.319.16.544.16.207 0 .372-.042.497-.125a.39.39 0 00.189-.337zm5.596.095l.615-2.446h.547l-.932 3.2h-.443l-.778-2.425-.757 2.425h-.444l-.929-3.2h.545l.629 2.396.746-2.396h.44l.761 2.446zm2.315.754h-.547v-3.2h.547v3.2zm-.591-4.049c0-.089.026-.163.08-.225.055-.06.136-.091.242-.091.107 0 .187.03.243.091a.323.323 0 01.082.225.313.313 0 01-.082.222c-.056.06-.136.089-.243.089-.106 0-.187-.03-.242-.09a.316.316 0 01-.08-.22zm2.212.074v.775h.597v.423h-.597v1.984c0 .129.027.225.08.29.053.063.144.095.272.095.063 0 .15-.012.26-.036v.444c-.144.04-.284.06-.42.06-.244 0-.429-.075-.553-.223-.124-.148-.186-.358-.186-.63v-1.984h-.583v-.423h.583v-.775h.547zm1.786 1.162c.243-.297.558-.446.947-.446.676 0 1.017.381 1.023 1.144v2.115h-.547V40.03c-.002-.23-.055-.4-.16-.511-.102-.11-.263-.166-.482-.166a.79.79 0 00-.467.142.966.966 0 00-.314.373v2.28h-.547v-4.543h.547v1.73z"/>
  </g>
  <g>
    <rect width="64.494" height="14.34" x="98.853" y="54.216" fill="#F9F9F9" rx="2.019"/>
    <path fill="#AAA" d="M155.161 60.484h2.796c.193 0 .29.206.153.327l-1.397 1.233a.24.24 0 01-.308 0l-1.397-1.233c-.137-.12-.04-.327.153-.327z"/>
    <path fill="#646464" d="M103.172 62.031c0-.491.116-.885.349-1.183.233-.3.537-.45.914-.45.375 0 .671.129.89.385v-1.668h.547v4.543h-.502l-.027-.343c-.219.268-.524.402-.914.402-.371 0-.673-.152-.908-.456-.233-.303-.349-.7-.349-1.189v-.041zm.547.062c0 .363.075.647.225.852.15.205.357.307.621.307.347 0 .6-.155.76-.467v-1.47a.804.804 0 00-.754-.452.73.73 0 00-.627.31c-.15.207-.225.514-.225.92zm2.86-.065c0-.313.061-.595.184-.846.124-.25.295-.444.514-.58.221-.136.472-.204.754-.204.436 0 .788.151 1.056.453.27.302.405.703.405 1.204v.038c0 .312-.06.592-.18.84a1.345 1.345 0 01-.512.577 1.409 1.409 0 01-.763.207c-.434 0-.785-.151-1.056-.453-.268-.301-.402-.7-.402-1.198v-.038zm.55.065c0 .355.082.64.246.855a.793.793 0 00.662.322.788.788 0 00.663-.325c.163-.219.245-.525.245-.917 0-.35-.084-.635-.251-.852a.79.79 0 00-.663-.328.784.784 0 00-.653.322c-.166.215-.249.523-.249.923zm4.377 1.624c-.433 0-.786-.142-1.058-.426-.272-.286-.408-.667-.408-1.145v-.1c0-.318.06-.6.18-.85.122-.25.292-.445.509-.585.218-.142.455-.213.709-.213.416 0 .74.137.971.411.23.275.346.667.346 1.178v.227h-2.168c.008.316.099.571.275.766.177.194.402.29.674.29.193 0 .357-.04.491-.118.134-.079.251-.184.352-.314l.334.26c-.268.413-.67.619-1.207.619zm-.068-2.869a.73.73 0 00-.556.242c-.149.16-.242.385-.278.675h1.603v-.042c-.015-.278-.09-.492-.224-.644a.686.686 0 00-.545-.231zm3.816 1.96a.4.4 0 00-.169-.342c-.11-.083-.305-.154-.583-.213a2.784 2.784 0 01-.659-.213.953.953 0 01-.361-.296.713.713 0 01-.115-.408.83.83 0 01.331-.666c.223-.18.507-.272.852-.272.363 0 .656.094.881.281a.89.89 0 01.34.72h-.55a.493.493 0 00-.192-.388.709.709 0 00-.479-.163c-.199 0-.355.043-.468.13a.41.41 0 00-.168.34c0 .132.052.232.157.299.104.067.292.131.565.192.274.061.495.134.665.219a.95.95 0 01.376.308.745.745 0 01.124.434.825.825 0 01-.343.69c-.229.171-.526.257-.89.257-.257 0-.484-.046-.681-.136a1.12 1.12 0 01-.464-.379.932.932 0 01-.166-.53h.547c.01.184.083.33.219.439.138.106.32.16.545.16.207 0 .372-.042.496-.125a.388.388 0 00.19-.337zm3.28-2.35l.017.402c.245-.308.564-.462.959-.462.676 0 1.017.382 1.023 1.145v2.115h-.547V61.54c-.002-.23-.055-.401-.16-.512-.102-.11-.263-.165-.482-.165a.79.79 0 00-.467.142.966.966 0 00-.314.372v2.28h-.547v-3.2h.518zm2.679 1.57c0-.313.061-.595.184-.846.124-.25.295-.444.514-.58.221-.136.472-.204.754-.204.436 0 .788.151 1.056.453.27.302.405.703.405 1.204v.038c0 .312-.06.592-.18.84a1.345 1.345 0 01-.512.577 1.409 1.409 0 01-.763.207c-.434 0-.786-.151-1.056-.453-.268-.301-.402-.7-.402-1.198v-.038zm.55.065c0 .355.082.64.246.855a.793.793 0 00.662.322.788.788 0 00.663-.325c.163-.219.245-.525.245-.917 0-.35-.084-.635-.251-.852a.79.79 0 00-.663-.328.784.784 0 00-.653.322c-.166.215-.249.523-.249.923zm3.792-2.41v.775h.597v.422h-.597v1.985c0 .128.026.225.08.29.053.063.144.094.272.094.063 0 .15-.011.26-.035v.444c-.144.04-.284.059-.42.059-.244 0-.429-.074-.553-.222-.124-.148-.186-.358-.186-.63V60.88h-.583v-.422h.583v-.775h.547zm3.256.775l.015.355c.235-.277.551-.415.949-.415.448 0 .752.172.914.515.107-.154.245-.278.414-.373.172-.094.374-.142.606-.142.702 0 1.059.372 1.071 1.115v2.145h-.547v-2.112c0-.229-.052-.4-.157-.512-.104-.114-.28-.171-.526-.171a.723.723 0 00-.506.183.734.734 0 00-.234.488v2.124h-.55V61.56c0-.466-.227-.698-.683-.698-.359 0-.604.153-.736.458v2.337h-.547v-3.2h.517zm6.773 3.2a1.143 1.143 0 01-.077-.337 1.22 1.22 0 01-.911.396c-.315 0-.575-.089-.778-.266a.872.872 0 01-.301-.68c0-.334.126-.592.378-.776.254-.185.611-.277 1.071-.277h.532v-.252a.61.61 0 00-.171-.455c-.115-.115-.283-.172-.506-.172a.798.798 0 00-.491.148c-.132.099-.198.218-.198.358h-.55c0-.16.056-.314.168-.462a1.17 1.17 0 01.462-.355c.195-.086.409-.13.641-.13.369 0 .658.093.867.278.209.184.317.437.325.76v1.473c0 .294.038.528.113.701v.048h-.574zm-.908-.417a.964.964 0 00.488-.133.803.803 0 00.334-.346v-.657h-.429c-.67 0-1.005.196-1.005.589 0 .171.057.305.171.402a.66.66 0 00.441.145zm2.969-3.558v.775h.598v.422h-.598v1.985c0 .128.027.225.08.29.053.063.144.094.272.094.063 0 .15-.011.261-.035v.444c-.144.04-.284.059-.42.059-.245 0-.429-.074-.554-.222-.124-.148-.186-.358-.186-.63V60.88h-.582v-.422h.582v-.775h.547zm2.523 3.587a.79.79 0 00.512-.177.624.624 0 00.242-.444h.518a.996.996 0 01-.189.524 1.253 1.253 0 01-.468.396 1.333 1.333 0 01-.615.148c-.436 0-.783-.145-1.041-.435-.256-.292-.384-.69-.384-1.195v-.092c0-.311.057-.588.171-.83.114-.243.278-.431.491-.566.215-.134.468-.2.76-.2.359 0 .657.107.893.322.239.215.366.494.382.837h-.518a.746.746 0 00-.757-.71c-.278 0-.494.1-.648.302-.151.199-.227.488-.227.866v.104c0 .368.076.652.227.852.152.199.369.298.651.298zm2.434-2.425c.243-.298.558-.447.947-.447.676 0 1.017.382 1.023 1.145v2.115h-.547V61.54c-.002-.23-.055-.401-.16-.512-.103-.11-.263-.165-.482-.165a.788.788 0 00-.467.142.966.966 0 00-.314.372v2.28h-.547v-4.542h.547v1.73z"/>
  </g>
  <g>
    <rect width="119.775" height="14.34" x="170.367" y="32.706" fill="#F9F9F9" rx="2.019"/>
    <path fill="#AAA" d="M281.958 38.974h2.796c.194 0 .29.207.153.327l-1.397 1.233a.238.238 0 01-.307 0l-1.398-1.233c-.137-.12-.04-.327.153-.327z"/>
    <path fill="#646464" d="M174.929 42.518h-.47l1.798-4.676h.467l-1.795 4.676z"/>
  </g>
  <g>
    <rect width="119.775" height="14.34" x="170.367" y="54.216" fill="#F9F9F9" rx="2.019"/>
    <path fill="#AAA" d="M281.958 60.484h2.796c.194 0 .29.206.153.327l-1.397 1.233a.238.238 0 01-.307 0l-1.398-1.233c-.137-.12-.04-.327.153-.327z"/>
    <path fill="#646464" d="M174.524 59.351h.52l1.798 4.676h-.52l-1.798-4.676zm2.792 4.02c0-.095.027-.174.082-.237.057-.063.142-.095.255-.095.112 0 .197.032.254.095a.333.333 0 01.089.237c0 .09-.03.166-.089.227-.057.062-.142.092-.254.092-.113 0-.198-.03-.255-.091a.328.328 0 01-.082-.228zm1.564-1.461c0-.446.059-.874.177-1.284.121-.41.299-.783.536-1.118.236-.335.482-.572.736-.71l.113.361c-.288.221-.525.558-.71 1.012a4.399 4.399 0 00-.302 1.523l-.003.251c0 .761.139 1.422.417 1.982.168.335.367.597.598.786l-.113.335c-.262-.146-.512-.39-.751-.734-.465-.67-.698-1.472-.698-2.404zm2.656-1.452v3.57c0 .614-.279.922-.837.922-.12 0-.232-.018-.334-.053v-.438c.063.016.146.024.248.024.122 0 .215-.034.278-.1.065-.066.098-.18.098-.344v-3.581h.547zm-.603-.85c0-.086.026-.16.079-.221.056-.063.135-.095.24-.095.106 0 .187.03.243.092a.323.323 0 01.082.225.313.313 0 01-.082.222c-.056.059-.137.088-.243.088-.106 0-.186-.03-.24-.088a.32.32 0 01-.079-.222zm4.19 2.485c0 .487-.111.88-.334 1.177a1.07 1.07 0 01-.905.447c-.388 0-.694-.123-.917-.37v1.541h-.547v-4.43h.5l.027.355c.222-.277.532-.415.928-.415.385 0 .688.145.911.435.225.29.337.693.337 1.21v.05zm-.547-.062c0-.36-.077-.646-.23-.855a.744.744 0 00-.633-.313.805.805 0 00-.746.44v1.53a.807.807 0 00.752.437c.262 0 .47-.103.624-.31.155-.21.233-.519.233-.929zm1.115 0c0-.499.116-.895.346-1.189.231-.296.537-.444.917-.444.391 0 .695.138.914.414l.027-.354h.499v3.123c0 .414-.123.74-.369.979-.245.238-.574.358-.988.358-.231 0-.456-.05-.677-.148a1.164 1.164 0 01-.506-.405l.284-.329c.235.29.521.435.861.435.266 0 .473-.075.621-.225.149-.15.224-.36.224-.633v-.275c-.218.253-.517.379-.896.379-.374 0-.678-.151-.911-.453-.23-.301-.346-.713-.346-1.233zm.55.062c0 .36.074.645.222.852a.722.722 0 00.621.307c.345 0 .599-.156.76-.47v-1.46c-.167-.306-.419-.46-.754-.46a.728.728 0 00-.624.311c-.15.207-.225.514-.225.92zm3.526 2.363h-.441v-5.105h.441v5.105zm1.499-3.998v3.57c0 .614-.279.922-.837.922-.12 0-.231-.018-.334-.053v-.438c.063.016.146.024.249.024.122 0 .214-.034.278-.1.065-.066.097-.18.097-.344v-3.581h.547zm-.603-.85c0-.086.027-.16.08-.221.055-.063.135-.095.239-.095.107 0 .188.03.243.092a.324.324 0 01.083.225.314.314 0 01-.083.222c-.055.059-.136.088-.243.088-.106 0-.186-.03-.239-.088a.32.32 0 01-.08-.222zm4.191 2.485c0 .487-.112.88-.334 1.177a1.072 1.072 0 01-.905.447c-.389 0-.694-.123-.917-.37v1.541h-.547v-4.43h.499l.027.355c.223-.277.532-.415.929-.415.384 0 .688.145.911.435.224.29.337.693.337 1.21v.05zm-.547-.062c0-.36-.077-.646-.231-.855a.744.744 0 00-.633-.313.803.803 0 00-.745.44v1.53a.805.805 0 00.751.437c.262 0 .47-.103.624-.31.156-.21.234-.519.234-.929zm2.573 1.686c-.434 0-.787-.142-1.059-.426-.272-.286-.408-.667-.408-1.145v-.1c0-.318.06-.6.18-.85.122-.25.292-.445.509-.585a1.28 1.28 0 01.71-.213c.416 0 .739.137.97.411.23.275.346.667.346 1.178v.227h-2.168c.008.316.099.571.275.766.177.194.402.29.674.29.193 0 .357-.04.491-.118.134-.079.252-.184.352-.314l.334.26c-.268.413-.67.619-1.206.619zm-.068-2.869a.726.726 0 00-.556.242c-.15.16-.243.385-.278.675h1.603v-.042c-.016-.278-.091-.492-.225-.644a.685.685 0 00-.544-.231zm1.822 1.183c0-.499.115-.895.346-1.189.23-.296.536-.444.916-.444.391 0 .695.138.914.414l.027-.354h.5v3.123c0 .414-.124.74-.37.979-.244.238-.574.358-.988.358-.23 0-.456-.05-.677-.148a1.17 1.17 0 01-.506-.405l.284-.329c.235.29.522.435.861.435.266 0 .473-.075.621-.225.15-.15.225-.36.225-.633v-.275c-.219.253-.518.379-.897.379-.374 0-.678-.151-.91-.453-.231-.301-.346-.713-.346-1.233zm.55.062c0 .36.074.645.221.852a.723.723 0 00.622.307c.345 0 .598-.156.76-.47v-1.46c-.168-.306-.419-.46-.755-.46a.728.728 0 00-.624.311c-.149.207-.224.514-.224.92zm3.525 2.363h-.441v-5.105h.441v5.105zm3.638-2.363c0 .487-.112.88-.334 1.177a1.072 1.072 0 01-.905.447c-.389 0-.694-.123-.917-.37v1.541h-.547v-4.43h.499l.027.355c.223-.277.532-.415.929-.415.384 0 .688.145.911.435.224.29.337.693.337 1.21v.05zm-.547-.062c0-.36-.077-.646-.231-.855a.744.744 0 00-.633-.313.803.803 0 00-.745.44v1.53a.805.805 0 00.751.437c.262 0 .47-.103.624-.31.156-.21.234-.519.234-.929zm1.762-1.573l.018.402c.245-.308.564-.462.958-.462.677 0 1.018.382 1.024 1.145v2.115h-.547V61.54c-.002-.23-.056-.401-.16-.512-.103-.11-.263-.165-.482-.165a.793.793 0 00-.468.142.964.964 0 00-.313.372v2.28h-.547v-3.2h.517zm2.695 1.573c0-.499.115-.895.346-1.189.23-.296.536-.444.917-.444.39 0 .695.138.913.414l.027-.354h.5v3.123c0 .414-.123.74-.37.979-.244.238-.574.358-.988.358-.23 0-.456-.05-.677-.148a1.17 1.17 0 01-.506-.405l.284-.329c.235.29.522.435.861.435.266 0 .473-.075.621-.225.15-.15.225-.36.225-.633v-.275c-.219.253-.518.379-.896.379-.375 0-.679-.151-.911-.453-.231-.301-.346-.713-.346-1.233zm.55.062c0 .36.074.645.222.852a.72.72 0 00.621.307c.345 0 .598-.156.76-.47v-1.46c-.168-.306-.419-.46-.754-.46a.725.725 0 00-.624.311c-.15.207-.225.514-.225.92zm3.525 2.363h-.44v-5.105h.44v5.105zm3.644-2.363c0 .49-.113.882-.337 1.18a1.08 1.08 0 01-.905.444c-.404 0-.717-.143-.938-.43l-.026.37h-.503v-4.542h.547v1.694c.221-.274.525-.41.914-.41.388 0 .693.146.914.44.222.294.334.696.334 1.207v.047zm-.547-.062c0-.373-.072-.66-.216-.864-.144-.203-.351-.304-.621-.304-.361 0-.62.167-.778.502v1.385c.168.335.429.502.784.502a.71.71 0 00.612-.304c.146-.203.219-.509.219-.917zm1.754-1.573l.014.355c.235-.277.551-.415.95-.415.447 0 .752.172.914.515.106-.154.244-.278.414-.373.171-.094.373-.142.606-.142.702 0 1.059.372 1.071 1.115v2.145h-.548v-2.112c0-.229-.052-.4-.156-.512-.105-.114-.28-.171-.527-.171a.72.72 0 00-.505.183.73.73 0 00-.234.488v2.124h-.55V61.56c0-.466-.228-.698-.683-.698-.359 0-.605.153-.737.458v2.337h-.547v-3.2h.518zm7.5 1.635c0 .487-.111.88-.334 1.177a1.072 1.072 0 01-.905.447c-.389 0-.694-.123-.917-.37v1.541h-.547v-4.43h.5l.026.355c.223-.277.533-.415.929-.415.384 0 .688.145.911.435.225.29.337.693.337 1.21v.05zm-.547-.062c0-.36-.077-.646-.231-.855a.744.744 0 00-.633-.313.803.803 0 00-.745.44v1.53a.806.806 0 00.751.437c.262 0 .47-.103.624-.31.156-.21.234-.519.234-.929zm1.789 2.425h-.441v-5.105h.441v5.105zm.805-2.425c0-.499.115-.895.346-1.189.23-.296.536-.444.916-.444.391 0 .695.138.914.414l.027-.354h.5v3.123c0 .414-.123.74-.37.979-.244.238-.574.358-.988.358-.23 0-.456-.05-.677-.148a1.17 1.17 0 01-.506-.405l.284-.329c.235.29.522.435.861.435.266 0 .473-.075.621-.225.15-.15.225-.36.225-.633v-.275c-.219.253-.518.379-.897.379-.374 0-.678-.151-.91-.453-.231-.301-.346-.713-.346-1.233zm.55.062c0 .36.074.645.221.852a.723.723 0 00.622.307c.345 0 .598-.156.76-.47v-1.46c-.168-.306-.419-.46-.755-.46a.728.728 0 00-.624.311c-.149.207-.224.514-.224.92zm3.575 1.565h-.547v-3.2h.547v3.2zm-.591-4.05c0-.088.026-.163.08-.224.055-.061.136-.092.242-.092.107 0 .187.03.243.092a.324.324 0 01.083.225.314.314 0 01-.083.222c-.056.059-.136.088-.243.088-.106 0-.187-.03-.242-.088a.316.316 0 01-.08-.222zm1.739 4.05V60.88h-.506v-.422h.506v-.329c0-.343.092-.608.275-.795.183-.188.443-.281.778-.281.126 0 .251.017.375.05l-.029.444a1.577 1.577 0 00-.296-.027c-.177 0-.314.052-.411.157-.097.102-.145.25-.145.443v.338h.683v.422h-.683v2.778h-.547zm2.381.798h-.441v-5.105h.441v5.105zm1.529-.798h-.547v-3.2h.547v3.2zm-.592-4.05c0-.088.027-.163.08-.224.055-.061.136-.092.243-.092.106 0 .187.03.242.092a.324.324 0 01.083.225.314.314 0 01-.083.222c-.055.059-.136.088-.242.088-.107 0-.188-.03-.243-.088a.32.32 0 01-.08-.222zm2.754 3.662c.195 0 .365-.059.511-.177a.625.625 0 00.243-.444h.517a.987.987 0 01-.189.524 1.242 1.242 0 01-.467.396 1.333 1.333 0 01-.615.148c-.436 0-.783-.145-1.041-.435-.257-.292-.385-.69-.385-1.195v-.092c0-.311.057-.588.172-.83.114-.243.278-.431.491-.566.215-.134.468-.2.76-.2.359 0 .656.107.893.322.238.215.366.494.381.837h-.517a.747.747 0 00-.237-.509.722.722 0 00-.52-.201c-.278 0-.494.1-.648.302-.152.199-.228.488-.228.866v.104c0 .368.076.652.228.852.152.199.369.298.651.298zm1.742-1.242c0-.313.061-.595.183-.846a1.39 1.39 0 01.515-.58c.221-.136.472-.204.754-.204.436 0 .788.151 1.056.453.27.302.405.703.405 1.204v.038c0 .312-.06.592-.181.84a1.343 1.343 0 01-.511.577 1.409 1.409 0 01-.763.207c-.434 0-.786-.151-1.056-.453-.268-.301-.402-.7-.402-1.198v-.038zm.55.065c0 .355.082.64.245.855a.796.796 0 00.663.322.785.785 0 00.662-.325c.164-.219.246-.525.246-.917 0-.35-.084-.635-.252-.852a.788.788 0 00-.662-.328.787.787 0 00-.654.322c-.165.215-.248.523-.248.923zm3.593 2.363h-.44v-5.105h.44v5.105zm2.218-1.186c.196 0 .366-.059.512-.177a.625.625 0 00.243-.444h.517a.996.996 0 01-.189.524 1.242 1.242 0 01-.467.396 1.34 1.34 0 01-.616.148c-.435 0-.782-.145-1.041-.435-.256-.292-.384-.69-.384-1.195v-.092c0-.311.057-.588.171-.83.115-.243.278-.431.491-.566.215-.134.469-.2.76-.2.359 0 .657.107.894.322.238.215.365.494.381.837h-.517a.747.747 0 00-.758-.71c-.278 0-.493.1-.647.302-.152.199-.228.488-.228.866v.104c0 .368.076.652.228.852.152.199.368.298.65.298zm3.751-.461a.4.4 0 00-.169-.343c-.11-.083-.305-.154-.583-.213a2.768 2.768 0 01-.659-.213.953.953 0 01-.361-.296.713.713 0 01-.115-.408.83.83 0 01.331-.666c.223-.18.507-.272.852-.272.362 0 .656.094.881.281a.89.89 0 01.34.72h-.55a.493.493 0 00-.192-.388.709.709 0 00-.479-.163c-.199 0-.355.043-.468.13a.41.41 0 00-.168.34c0 .132.052.232.157.299.104.067.292.131.564.192.274.061.496.134.666.219a.946.946 0 01.375.308.738.738 0 01.125.434.825.825 0 01-.343.69c-.229.171-.526.257-.891.257a1.61 1.61 0 01-.68-.136 1.12 1.12 0 01-.464-.379.925.925 0 01-.166-.53h.547c.01.184.083.33.219.439.138.106.32.16.544.16.207 0 .373-.042.497-.125a.39.39 0 00.19-.337zm3.123 0a.397.397 0 00-.169-.343c-.11-.083-.304-.154-.582-.213a2.778 2.778 0 01-.66-.213.953.953 0 01-.361-.296.713.713 0 01-.115-.408.83.83 0 01.331-.666c.223-.18.507-.272.852-.272.363 0 .656.094.881.281a.89.89 0 01.34.72h-.55a.493.493 0 00-.192-.388.709.709 0 00-.479-.163c-.199 0-.355.043-.467.13a.408.408 0 00-.169.34c0 .132.052.232.157.299.104.067.293.131.565.192.274.061.495.134.665.219a.95.95 0 01.376.308.745.745 0 01.124.434.822.822 0 01-.343.69c-.229.171-.526.257-.89.257-.257 0-.483-.046-.681-.136a1.12 1.12 0 01-.464-.379.932.932 0 01-.166-.53h.548a.57.57 0 00.218.439c.138.106.32.16.545.16.207 0 .372-.042.496-.125a.388.388 0 00.19-.337zm1.804 1.647h-.441v-5.105h.441v5.105zm1.499-3.998v3.57c0 .614-.279.922-.837.922-.12 0-.231-.018-.334-.053v-.438c.063.016.146.024.249.024.122 0 .214-.034.278-.1.065-.066.097-.18.097-.344v-3.581h.547zm-.603-.85c0-.086.027-.16.08-.221.055-.063.135-.095.239-.095.107 0 .188.03.243.092a.324.324 0 01.083.225.314.314 0 01-.083.222c-.055.059-.136.088-.243.088-.106 0-.186-.03-.239-.088a.32.32 0 01-.08-.222zm3.351 3.2a.397.397 0 00-.169-.342c-.11-.083-.304-.154-.582-.213a2.793 2.793 0 01-.66-.213.953.953 0 01-.361-.296.713.713 0 01-.115-.408.83.83 0 01.331-.666c.223-.18.507-.272.852-.272.363 0 .657.094.881.281a.89.89 0 01.34.72h-.55a.493.493 0 00-.192-.388.709.709 0 00-.479-.163c-.199 0-.355.043-.467.13a.408.408 0 00-.169.34c0 .132.052.232.157.299.104.067.293.131.565.192.274.061.496.134.665.219a.95.95 0 01.376.308.738.738 0 01.124.434.822.822 0 01-.343.69c-.229.171-.526.257-.89.257-.257 0-.483-.046-.681-.136a1.126 1.126 0 01-.464-.379.931.931 0 01-.165-.53h.547a.57.57 0 00.219.439c.138.106.319.16.544.16.207 0 .372-.042.497-.125a.39.39 0 00.189-.337zm2.523-.869c0 .44-.059.862-.175 1.266a3.699 3.699 0 01-.529 1.115c-.237.341-.485.584-.746.728l-.115-.335c.304-.232.547-.593.731-1.082.185-.49.28-1.035.284-1.633v-.094c0-.414-.044-.799-.131-1.154a3.857 3.857 0 00-.363-.958 2.2 2.2 0 00-.521-.66l.115-.334c.261.144.508.385.743.722.236.337.413.709.529 1.115.119.406.178.84.178 1.304zm2.96.61a.614.614 0 00-.192-.459c-.126-.124-.34-.237-.642-.337-.42-.128-.726-.295-.92-.5-.191-.207-.287-.47-.287-.787 0-.323.094-.588.281-.795.19-.207.449-.33.778-.37v-.648h.441v.651c.331.045.588.184.772.417.185.233.278.551.278.955h-.544c0-.278-.066-.498-.198-.662a.654.654 0 00-.536-.246c-.234 0-.414.062-.538.184-.124.12-.186.289-.186.506 0 .2.065.361.195.482.132.118.348.226.648.325.301.097.536.204.703.322.17.117.294.253.373.408.081.156.121.339.121.548 0 .333-.1.601-.301.804-.199.203-.479.323-.84.36v.566h-.438v-.565c-.367-.034-.655-.164-.864-.39-.207-.23-.31-.539-.31-.93h.547c0 .275.072.486.216.634.144.148.348.222.612.222.258 0 .461-.063.609-.187a.629.629 0 00.222-.509z"/>
  </g>
  <g>
    <rect width="252.712" height="14.34" x="37.431" y="75.726" fill="#F9F9F9" rx="2.019"/>
    <path fill="#AAA" d="M94.764 83.36h1.2v.517h-1.2v1.36h-.55v-1.36h-1.2v-.518h1.2v-1.256h.55v1.256zm5.835 1.185h-1.804l-.405 1.124h-.586l1.645-4.306h.497l1.647 4.306h-.583l-.411-1.124zm-1.632-.467h1.464l-.734-2.014-.73 2.014zm3.637-1.609l.018.402c.245-.307.564-.46.958-.46.677 0 1.018.38 1.024 1.144v2.114h-.547v-2.117c-.002-.231-.056-.402-.16-.512-.103-.11-.263-.166-.482-.166a.787.787 0 00-.467.142.957.957 0 00-.314.373v2.28h-.547v-3.2h.517zm2.692 1.574c0-.491.116-.886.349-1.183.232-.3.537-.45.914-.45.374 0 .671.128.89.385v-1.669h.547v4.543h-.503l-.026-.343c-.219.268-.524.402-.914.402-.371 0-.674-.151-.908-.455-.233-.304-.349-.7-.349-1.189v-.041zm.547.062c0 .362.075.646.225.852.15.205.357.307.621.307.347 0 .6-.156.76-.467v-1.47a.804.804 0 00-.754-.453.73.73 0 00-.627.31c-.15.208-.225.515-.225.92zM223.367 83.36h1.201v.517h-1.201v1.36h-.55v-1.36h-1.2v-.517h1.2v-1.257h.55v1.257zm6.77.295c0 .422-.071.79-.213 1.106a1.615 1.615 0 01-.603.719c-.26.166-.564.248-.911.248-.339 0-.64-.082-.902-.248a1.675 1.675 0 01-.612-.713 2.582 2.582 0 01-.222-1.073v-.31c0-.415.072-.78.216-1.098a1.64 1.64 0 01.609-.728 1.64 1.64 0 01.905-.254c.345 0 .649.084.911.251.264.166.467.407.609.725.142.315.213.683.213 1.103v.272zm-.565-.278c0-.51-.102-.902-.307-1.174-.205-.274-.492-.411-.861-.411-.359 0-.642.137-.849.411-.205.272-.31.65-.316 1.136v.316c0 .495.103.885.31 1.168.209.282.496.423.861.423.367 0 .651-.133.852-.399.201-.268.304-.651.31-1.15v-.32zm2.878-.417a1.636 1.636 0 00-.269-.02c-.359 0-.602.152-.731.458v2.271h-.547v-3.2h.533l.008.37a.853.853 0 01.764-.429c.106 0 .187.014.242.041v.51z"/>
    <path stroke="#DFDFDF" stroke-dasharray="1.21 1.21" stroke-width=".404" d="M163.584 90.066v-14.34"/>
  </g>
</svg>
