<svg  viewBox="0 0 562 240" fill="none" xmlns="http://www.w3.org/2000/svg">
<g clip-path="url(#clip0)">
<g filter="url(#filter0_dddddd)">
<path d="M0 3.83953C0 1.71902 1.71902 0 3.83953 0H813.021C815.142 0 816.861 1.71902 816.861 3.83953V254.456C816.861 256.577 815.142 258.296 813.021 258.296H3.83954C1.71903 258.296 0 256.577 0 254.456V3.83953Z" fill="white"/>
<path d="M0 3.83953C0 1.71901 1.71902 0 3.83953 0H813.021C815.142 0 816.861 1.71902 816.861 3.83953V79.6703H0V3.83953Z" fill="#F9F9F9"/>
<path d="M35.257 46.075H28.8453V57.1174H25.227V29.8207H34.2634C37.338 29.8207 39.7003 30.5207 41.3501 31.9205C43.0124 33.3203 43.8435 35.3576 43.8435 38.0322C43.8435 39.732 43.3811 41.2131 42.4562 42.4755C41.5438 43.7378 40.2689 44.6814 38.6316 45.3064L45.0434 56.8925V57.1174H41.1813L35.257 46.075ZM28.8453 43.1316H34.3759C36.1632 43.1316 37.5818 42.6692 38.6316 41.7443C39.694 40.8194 40.2252 39.5821 40.2252 38.0322C40.2252 36.345 39.719 35.0514 38.7066 34.1515C37.7067 33.2516 36.2569 32.7954 34.3572 32.7829H28.8453V43.1316ZM56.7794 57.4924C54.0298 57.4924 51.7925 56.5925 50.0677 54.7927C48.343 52.9804 47.4806 50.562 47.4806 47.5373V46.8999C47.4806 44.8877 47.8618 43.0941 48.6242 41.5193C49.3991 39.932 50.4739 38.6947 51.8488 37.8073C53.2361 36.9074 54.7359 36.4574 56.3482 36.4574C58.9854 36.4574 61.0352 37.3261 62.4975 39.0634C63.9598 40.8007 64.691 43.2879 64.691 46.525V47.9685H50.9489C50.9989 49.9683 51.5801 51.5869 52.6924 52.8242C53.8173 54.0491 55.2421 54.6615 56.9669 54.6615C58.1918 54.6615 59.2291 54.4115 60.079 53.9116C60.9289 53.4116 61.6726 52.7492 62.31 51.9243L64.4285 53.5741C62.7287 56.1863 60.179 57.4924 56.7794 57.4924ZM56.3482 39.3071C54.9484 39.3071 53.7735 39.8195 52.8237 40.8444C51.8738 41.8568 51.2864 43.2816 51.0614 45.1189H61.2226V44.8564C61.1227 43.0941 60.6477 41.7318 59.7978 40.7694C58.9479 39.7945 57.7981 39.3071 56.3482 39.3071ZM81.2452 57.1174C81.0452 56.7175 80.8828 56.0051 80.7578 54.9802C79.1455 56.655 77.2207 57.4924 74.9835 57.4924C72.9837 57.4924 71.3402 56.93 70.0528 55.8051C68.778 54.6677 68.1406 53.2304 68.1406 51.4931C68.1406 49.3809 68.9405 47.7436 70.5403 46.5812C72.1526 45.4064 74.4148 44.8189 77.3269 44.8189H80.7015V43.2254C80.7015 42.013 80.3391 41.0506 79.6142 40.3382C78.8893 39.6133 77.8206 39.2508 76.4083 39.2508C75.171 39.2508 74.1336 39.5633 73.2962 40.1882C72.4588 40.8132 72.0401 41.5693 72.0401 42.4567H68.553C68.553 41.4443 68.9092 40.4695 69.6216 39.5321C70.3465 38.5822 71.3214 37.8323 72.5463 37.2823C73.7836 36.7324 75.1397 36.4574 76.6145 36.4574C78.9517 36.4574 80.7828 37.0449 82.1076 38.2197C83.4325 39.3821 84.1199 40.9881 84.1699 43.0379V52.3743C84.1699 54.2365 84.4073 55.7176 84.8823 56.8175V57.1174H81.2452ZM75.4897 54.474C76.577 54.474 77.6082 54.1928 78.583 53.6304C79.5579 53.0679 80.2641 52.3368 80.7015 51.4369V47.2749H77.9831C73.7336 47.2749 71.6089 48.5185 71.6089 51.0057C71.6089 52.093 71.9713 52.9429 72.6963 53.5554C73.4212 54.1678 74.3523 54.474 75.4897 54.474ZM93.375 57.1174H89.9067V28.3209H93.375V57.1174ZM106.161 46.9374H97.0121V44.1065H106.161V46.9374ZM128.958 32.7829H120.184V57.1174H116.603V32.7829H107.848V29.8207H128.958V32.7829ZM136.232 57.1174H132.764V36.8324H136.232V57.1174ZM132.483 31.4518C132.483 30.8894 132.651 30.4144 132.989 30.027C133.339 29.6395 133.851 29.4458 134.526 29.4458C135.201 29.4458 135.714 29.6395 136.064 30.027C136.414 30.4144 136.589 30.8894 136.589 31.4518C136.589 32.0142 136.414 32.4829 136.064 32.8579C135.714 33.2328 135.201 33.4203 134.526 33.4203C133.851 33.4203 133.339 33.2328 132.989 32.8579C132.651 32.4829 132.483 32.0142 132.483 31.4518ZM145.062 36.8324L145.156 39.0821C146.644 37.3323 148.65 36.4574 151.174 36.4574C154.011 36.4574 155.942 37.5448 156.967 39.7195C157.642 38.7447 158.517 37.9573 159.592 37.3573C160.679 36.7574 161.96 36.4574 163.435 36.4574C167.885 36.4574 170.147 38.8134 170.222 43.5253V57.1174H166.754V43.7316C166.754 42.2817 166.422 41.2006 165.76 40.4882C165.098 39.7633 163.985 39.4008 162.423 39.4008C161.136 39.4008 160.067 39.7883 159.217 40.5632C158.367 41.3256 157.873 42.3567 157.736 43.6566V57.1174H154.249V43.8253C154.249 40.8757 152.805 39.4008 149.918 39.4008C147.643 39.4008 146.087 40.3695 145.25 42.3067V57.1174H141.782V36.8324H145.062ZM183.889 57.4924C181.139 57.4924 178.902 56.5925 177.177 54.7927C175.453 52.9804 174.59 50.562 174.59 47.5373V46.8999C174.59 44.8877 174.971 43.0941 175.734 41.5193C176.509 39.932 177.584 38.6947 178.958 37.8073C180.346 36.9074 181.846 36.4574 183.458 36.4574C186.095 36.4574 188.145 37.3261 189.607 39.0634C191.069 40.8007 191.801 43.2879 191.801 46.525V47.9685H178.058C178.108 49.9683 178.69 51.5869 179.802 52.8242C180.927 54.0491 182.352 54.6615 184.076 54.6615C185.301 54.6615 186.339 54.4115 187.189 53.9116C188.039 53.4116 188.782 52.7492 189.42 51.9243L191.538 53.5741C189.838 56.1863 187.289 57.4924 183.889 57.4924ZM183.458 39.3071C182.058 39.3071 180.883 39.8195 179.933 40.8444C178.983 41.8568 178.396 43.2816 178.171 45.1189H188.332V44.8564C188.232 43.0941 187.757 41.7318 186.907 40.7694C186.058 39.7945 184.908 39.3071 183.458 39.3071ZM221.328 44.5002H209.498V54.174H223.24V57.1174H205.899V29.8207H223.053V32.7829H209.498V41.5568H221.328V44.5002ZM233.383 52.4118L238.407 36.8324H241.951L234.677 57.1174H232.033L224.684 36.8324H228.227L233.383 52.4118ZM253.443 57.4924C250.693 57.4924 248.456 56.5925 246.731 54.7927C245.007 52.9804 244.144 50.562 244.144 47.5373V46.8999C244.144 44.8877 244.525 43.0941 245.288 41.5193C246.063 39.932 247.138 38.6947 248.512 37.8073C249.9 36.9074 251.4 36.4574 253.012 36.4574C255.649 36.4574 257.699 37.3261 259.161 39.0634C260.623 40.8007 261.355 43.2879 261.355 46.525V47.9685H247.613C247.663 49.9683 248.244 51.5869 249.356 52.8242C250.481 54.0491 251.906 54.6615 253.631 54.6615C254.855 54.6615 255.893 54.4115 256.743 53.9116C257.593 53.4116 258.336 52.7492 258.974 51.9243L261.092 53.5741C259.392 56.1863 256.843 57.4924 253.443 57.4924ZM253.012 39.3071C251.612 39.3071 250.437 39.8195 249.487 40.8444C248.537 41.8568 247.95 43.2816 247.725 45.1189H257.886V44.8564C257.786 43.0941 257.311 41.7318 256.461 40.7694C255.612 39.7945 254.462 39.3071 253.012 39.3071ZM268.666 36.8324L268.779 39.3821C270.329 37.4323 272.353 36.4574 274.853 36.4574C279.14 36.4574 281.302 38.8759 281.34 43.7128V57.1174H277.871V43.6941C277.859 42.2317 277.521 41.1506 276.859 40.4507C276.209 39.7508 275.19 39.4008 273.803 39.4008C272.678 39.4008 271.691 39.7008 270.841 40.3007C269.991 40.9006 269.329 41.6881 268.854 42.6629V57.1174H265.385V36.8324H268.666ZM291.276 31.9205V36.8324H295.063V39.5133H291.276V52.093C291.276 52.9054 291.445 53.5179 291.782 53.9303C292.12 54.3303 292.695 54.5302 293.507 54.5302C293.907 54.5302 294.457 54.4553 295.157 54.3053V57.1174C294.244 57.3674 293.357 57.4924 292.495 57.4924C290.945 57.4924 289.776 57.0237 288.989 56.0863C288.201 55.1489 287.808 53.8178 287.808 52.093V39.5133H284.114V36.8324H287.808V31.9205H291.276ZM310.942 51.7368C310.942 50.7994 310.586 50.0745 309.874 49.5621C309.174 49.0372 307.943 48.5872 306.18 48.2123C304.431 47.8373 303.037 47.3874 302 46.8624C300.975 46.3375 300.212 45.7126 299.712 44.9877C299.225 44.2627 298.981 43.4003 298.981 42.4005C298.981 40.7382 299.681 39.3321 301.081 38.1822C302.493 37.0324 304.293 36.4574 306.48 36.4574C308.78 36.4574 310.642 37.0511 312.067 38.2385C313.505 39.4258 314.223 40.9444 314.223 42.7942H310.736C310.736 41.8443 310.33 41.0256 309.518 40.3382C308.718 39.6508 307.705 39.3071 306.48 39.3071C305.218 39.3071 304.231 39.5821 303.518 40.132C302.806 40.6819 302.45 41.4006 302.45 42.288C302.45 43.1254 302.781 43.7566 303.443 44.1815C304.106 44.6064 305.299 45.0126 307.024 45.4001C308.761 45.7876 310.167 46.25 311.242 46.7874C312.317 47.3249 313.111 47.9748 313.623 48.7372C314.148 49.4871 314.411 50.4057 314.411 51.4931C314.411 53.3054 313.686 54.7615 312.236 55.8613C310.786 56.9487 308.905 57.4924 306.593 57.4924C304.968 57.4924 303.531 57.2049 302.281 56.63C301.031 56.0551 300.05 55.2552 299.338 54.2303C298.638 53.1929 298.288 52.0743 298.288 50.8744H301.756C301.818 52.0368 302.281 52.9617 303.143 53.6491C304.018 54.324 305.168 54.6615 306.593 54.6615C307.905 54.6615 308.955 54.399 309.743 53.8741C310.542 53.3366 310.942 52.6242 310.942 51.7368Z" fill="#646464"/>
<path d="M314.604 35.0774V25.5236H318.035C319.265 25.5236 320.199 25.7488 320.837 26.1994C321.48 26.65 321.802 27.304 321.802 28.1614C321.802 28.6557 321.688 29.0778 321.461 29.4278C321.233 29.7777 320.898 30.0358 320.457 30.202C320.955 30.3333 321.338 30.5783 321.605 30.937C321.872 31.2957 322.005 31.7331 322.005 32.2493C322.005 33.1854 321.708 33.8897 321.113 34.3622C320.522 34.8302 319.645 35.0686 318.482 35.0774H314.604ZM316.907 31.0157V33.3057H318.416C318.832 33.3057 319.151 33.2117 319.374 33.0236C319.597 32.8311 319.709 32.5621 319.709 32.2165C319.709 31.4203 319.313 31.0201 318.521 31.0157H316.907ZM316.907 29.5065H318.108C318.611 29.5021 318.969 29.4103 319.184 29.2309C319.398 29.0516 319.505 28.7869 319.505 28.4369C319.505 28.0345 319.389 27.7458 319.157 27.5708C318.926 27.3914 318.552 27.3018 318.035 27.3018H316.907V29.5065ZM329.203 31.0288H325.581V33.3057H329.86V35.0774H323.278V25.5236H329.873V27.3018H325.581V29.3162H329.203V31.0288ZM338.429 27.3018H335.562V35.0774H333.259V27.3018H330.444V25.5236H338.429V27.3018ZM344.046 33.2926H340.89L340.339 35.0774H337.878L341.382 25.5236H343.547L347.077 35.0774H344.604L344.046 33.2926ZM341.441 31.5144H343.495L342.465 28.2007L341.441 31.5144Z" fill="#F3652B"/>
<path d="M23.1741 126.387V114.103H26.9537C28.0335 114.103 28.9981 114.348 29.8474 114.837C30.7023 115.321 31.3688 116.013 31.8468 116.912C32.3249 117.807 32.5639 118.825 32.5639 119.966V120.532C32.5639 121.673 32.3277 122.689 31.8553 123.577C31.3885 124.466 30.7276 125.155 29.8727 125.644C29.0178 126.134 28.0532 126.381 26.979 126.387H23.1741ZM25.7051 116.153V124.353H26.9284C27.9182 124.353 28.6747 124.03 29.1978 123.383C29.7208 122.736 29.988 121.811 29.9992 120.608V119.958C29.9992 118.709 29.7405 117.765 29.2231 117.123C28.7057 116.477 27.9492 116.153 26.9537 116.153H25.7051ZM39.5409 126.387C39.4284 126.167 39.3469 125.894 39.2962 125.568C38.7057 126.226 37.938 126.555 36.9931 126.555C36.0988 126.555 35.3564 126.297 34.7659 125.779C34.1809 125.262 33.8885 124.609 33.8885 123.822C33.8885 122.855 34.2456 122.112 34.9599 121.595C35.6798 121.077 36.7175 120.816 38.073 120.81H39.195V120.287C39.195 119.865 39.0853 119.528 38.866 119.275C38.6523 119.022 38.312 118.895 37.8452 118.895C37.4346 118.895 37.1112 118.993 36.875 119.19C36.6444 119.387 36.5291 119.657 36.5291 120H34.0909C34.0909 119.471 34.254 118.982 34.5803 118.532C34.9065 118.082 35.3677 117.731 35.9638 117.478C36.56 117.219 37.2293 117.09 37.9717 117.09C39.0966 117.09 39.988 117.374 40.6461 117.942C41.3097 118.504 41.6416 119.297 41.6416 120.321V124.277C41.6472 125.144 41.7681 125.799 42.0044 126.243V126.387H39.5409ZM37.5246 124.691C37.8845 124.691 38.2164 124.612 38.5201 124.455C38.8238 124.292 39.0488 124.075 39.195 123.805V122.236H38.2839C37.0634 122.236 36.4138 122.658 36.335 123.501L36.3266 123.645C36.3266 123.948 36.4335 124.199 36.6472 124.396C36.8609 124.592 37.1534 124.691 37.5246 124.691ZM46.4335 115.014V117.258H47.9942V119.047H46.4335V123.603C46.4335 123.94 46.4982 124.182 46.6275 124.328C46.7569 124.474 47.0044 124.547 47.3699 124.547C47.6399 124.547 47.8789 124.528 48.087 124.488V126.336C47.609 126.482 47.1169 126.555 46.6107 126.555C44.9009 126.555 44.0291 125.692 43.9954 123.965V119.047H42.6624V117.258H43.9954V115.014H46.4335ZM54.6422 126.387C54.5297 126.167 54.4482 125.894 54.3975 125.568C53.807 126.226 53.0393 126.555 52.0944 126.555C51.2001 126.555 50.4577 126.297 49.8671 125.779C49.2822 125.262 48.9898 124.609 48.9898 123.822C48.9898 122.855 49.3469 122.112 50.0612 121.595C50.7811 121.077 51.8188 120.816 53.1742 120.81H54.2963V120.287C54.2963 119.865 54.1866 119.528 53.9673 119.275C53.7536 119.022 53.4133 118.895 52.9465 118.895C52.5359 118.895 52.2125 118.993 51.9763 119.19C51.7457 119.387 51.6304 119.657 51.6304 120H49.1922C49.1922 119.471 49.3553 118.982 49.6815 118.532C50.0078 118.082 50.4689 117.731 51.0651 117.478C51.6613 117.219 52.3306 117.09 53.073 117.09C54.1979 117.09 55.0893 117.374 55.7474 117.942C56.411 118.504 56.7429 119.297 56.7429 120.321V124.277C56.7485 125.144 56.8694 125.799 57.1056 126.243V126.387H54.6422ZM52.6259 124.691C52.9858 124.691 53.3177 124.612 53.6214 124.455C53.9251 124.292 54.1501 124.075 54.2963 123.805V122.236H53.3852C52.1647 122.236 51.5151 122.658 51.4363 123.501L51.4279 123.645C51.4279 123.948 51.5348 124.199 51.7485 124.396C51.9622 124.592 52.2547 124.691 52.6259 124.691ZM69.4482 123.164C69.4482 122.686 69.2795 122.32 68.942 122.067C68.6046 121.808 67.9971 121.538 67.1197 121.257C66.2423 120.97 65.5477 120.689 65.0359 120.414C63.6411 119.66 62.9437 118.645 62.9437 117.368C62.9437 116.704 63.1293 116.114 63.5005 115.596C63.8773 115.073 64.4144 114.666 65.1119 114.373C65.8149 114.081 66.6023 113.934 67.4741 113.934C68.3515 113.934 69.1332 114.095 69.8194 114.415C70.5056 114.73 71.0371 115.177 71.4139 115.757C71.7964 116.336 71.9876 116.994 71.9876 117.731H69.4566C69.4566 117.168 69.2795 116.732 68.9251 116.423C68.5708 116.108 68.0731 115.951 67.4319 115.951C66.8132 115.951 66.3323 116.083 65.9893 116.347C65.6462 116.606 65.4746 116.949 65.4746 117.376C65.4746 117.776 65.6743 118.11 66.0736 118.38C66.4786 118.65 67.0719 118.903 67.8537 119.14C69.2935 119.573 70.3425 120.11 71.0005 120.751C71.6586 121.392 71.9876 122.191 71.9876 123.147C71.9876 124.21 71.5854 125.045 70.7812 125.653C69.9769 126.254 68.8942 126.555 67.5331 126.555C66.5882 126.555 65.7277 126.384 64.9516 126.041C64.1754 125.692 63.582 125.217 63.1715 124.615C62.7665 124.013 62.564 123.316 62.564 122.523H65.1034C65.1034 123.878 65.9133 124.556 67.5331 124.556C68.1349 124.556 68.6046 124.435 68.942 124.193C69.2795 123.946 69.4482 123.603 69.4482 123.164ZM73.1687 121.738C73.1687 120.833 73.3431 120.025 73.6918 119.317C74.0405 118.608 74.541 118.06 75.1935 117.672C75.8515 117.284 76.6136 117.09 77.4797 117.09C78.7115 117.09 79.7154 117.466 80.4916 118.22C81.2733 118.974 81.7092 119.997 81.7992 121.291L81.8161 121.915C81.8161 123.316 81.4252 124.441 80.6434 125.29C79.8616 126.134 78.8127 126.555 77.4966 126.555C76.1805 126.555 75.1288 126.134 74.3414 125.29C73.5596 124.446 73.1687 123.299 73.1687 121.848V121.738ZM75.6068 121.915C75.6068 122.781 75.7699 123.445 76.0962 123.906C76.4224 124.362 76.8892 124.59 77.4966 124.59C78.0872 124.59 78.5484 124.365 78.8802 123.915C79.212 123.459 79.3779 122.734 79.3779 121.738C79.3779 120.889 79.212 120.231 78.8802 119.764C78.5484 119.297 78.0815 119.064 77.4797 119.064C76.8836 119.064 76.4224 119.297 76.0962 119.764C75.7699 120.225 75.6068 120.942 75.6068 121.915ZM88.7846 125.459C88.1828 126.19 87.3504 126.555 86.2874 126.555C85.3088 126.555 84.5608 126.274 84.0433 125.712C83.5315 125.149 83.27 124.325 83.2587 123.24V117.258H85.6969V123.155C85.6969 124.106 86.1299 124.581 86.9961 124.581C87.8229 124.581 88.3909 124.294 88.7002 123.721V117.258H91.1468V126.387H88.8521L88.7846 125.459ZM98.1154 119.545C97.7835 119.5 97.4911 119.477 97.238 119.477C96.3156 119.477 95.711 119.789 95.4241 120.414V126.387H92.986V117.258H95.2891L95.3566 118.347C95.8459 117.509 96.5237 117.09 97.3898 117.09C97.6598 117.09 97.9129 117.126 98.1491 117.199L98.1154 119.545ZM102.924 124.59C103.374 124.59 103.74 124.466 104.021 124.218C104.302 123.971 104.448 123.642 104.46 123.231H106.746C106.74 123.85 106.572 124.418 106.24 124.936C105.908 125.447 105.452 125.847 104.873 126.134C104.299 126.415 103.664 126.555 102.966 126.555C101.661 126.555 100.632 126.142 99.8786 125.315C99.1249 124.483 98.7481 123.335 98.7481 121.873V121.713C98.7481 120.307 99.1221 119.185 99.8701 118.347C100.618 117.509 101.645 117.09 102.949 117.09C104.091 117.09 105.005 117.416 105.691 118.068C106.383 118.715 106.735 119.578 106.746 120.658H104.46C104.448 120.186 104.302 119.803 104.021 119.511C103.74 119.213 103.368 119.064 102.907 119.064C102.339 119.064 101.909 119.272 101.616 119.688C101.33 120.099 101.186 120.768 101.186 121.696V121.949C101.186 122.888 101.33 123.563 101.616 123.974C101.903 124.384 102.339 124.59 102.924 124.59ZM112.339 126.555C111.001 126.555 109.91 126.145 109.066 125.324C108.228 124.502 107.809 123.409 107.809 122.042V121.806C107.809 120.889 107.986 120.07 108.34 119.351C108.695 118.625 109.195 118.068 109.842 117.68C110.494 117.286 111.237 117.09 112.069 117.09C113.318 117.09 114.299 117.483 115.014 118.271C115.734 119.058 116.093 120.175 116.093 121.62V122.615H110.281C110.36 123.212 110.596 123.69 110.989 124.05C111.389 124.41 111.892 124.59 112.5 124.59C113.439 124.59 114.173 124.249 114.701 123.569L115.899 124.91C115.534 125.428 115.039 125.833 114.415 126.125C113.79 126.412 113.099 126.555 112.339 126.555ZM112.061 119.064C111.577 119.064 111.183 119.227 110.88 119.553C110.582 119.879 110.39 120.346 110.306 120.954H113.698V120.759C113.686 120.22 113.54 119.803 113.259 119.511C112.978 119.213 112.578 119.064 112.061 119.064ZM117.604 125.189C117.604 124.801 117.733 124.486 117.992 124.244C118.256 124.002 118.585 123.881 118.979 123.881C119.378 123.881 119.707 124.002 119.966 124.244C120.23 124.486 120.362 124.801 120.362 125.189C120.362 125.571 120.233 125.883 119.974 126.125C119.716 126.361 119.384 126.479 118.979 126.479C118.579 126.479 118.25 126.361 117.992 126.125C117.733 125.883 117.604 125.571 117.604 125.189ZM117.604 118.279C117.604 117.891 117.733 117.576 117.992 117.334C118.256 117.092 118.585 116.971 118.979 116.971C119.378 116.971 119.707 117.092 119.966 117.334C120.23 117.576 120.362 117.891 120.362 118.279C120.362 118.662 120.233 118.974 119.974 119.216C119.716 119.452 119.384 119.57 118.979 119.57C118.579 119.57 118.25 119.452 117.992 119.216C117.733 118.974 117.604 118.662 117.604 118.279Z" fill="#646464"/>
<path d="M30.5645 160.722H25.7051V165.742H23.1741V153.458H31.1719V155.508H25.7051V158.68H30.5645V160.722ZM35.0527 165.742H32.6061V156.614H35.0527V165.742ZM32.4627 154.251C32.4627 153.886 32.5836 153.585 32.8255 153.349C33.0729 153.112 33.4076 152.994 33.8294 152.994C34.2456 152.994 34.5774 153.112 34.8249 153.349C35.0724 153.585 35.1961 153.886 35.1961 154.251C35.1961 154.623 35.0696 154.926 34.8165 155.162C34.569 155.399 34.24 155.517 33.8294 155.517C33.4188 155.517 33.087 155.399 32.8339 155.162C32.5864 154.926 32.4627 154.623 32.4627 154.251ZM39.6421 165.742H37.1956V152.783H39.6421V165.742ZM44.5775 154.369V156.614H46.1382V158.402H44.5775V162.958C44.5775 163.295 44.6422 163.537 44.7715 163.683C44.9009 163.83 45.1483 163.903 45.5139 163.903C45.7839 163.903 46.0229 163.883 46.231 163.844V165.691C45.753 165.837 45.2608 165.911 44.7546 165.911C43.0448 165.911 42.1731 165.047 42.1393 163.321V158.402H40.8064V156.614H42.1393V154.369H44.5775ZM51.6979 165.911C50.3593 165.911 49.2682 165.5 48.4245 164.679C47.5865 163.858 47.1675 162.764 47.1675 161.397V161.161C47.1675 160.244 47.3446 159.426 47.699 158.706C48.0533 157.98 48.5539 157.423 49.2007 157.035C49.8531 156.642 50.5955 156.445 51.4279 156.445C52.6765 156.445 53.6579 156.839 54.3722 157.626C55.0921 158.413 55.4521 159.53 55.4521 160.975V161.971H49.6394C49.7181 162.567 49.9543 163.045 50.348 163.405C50.7474 163.765 51.2507 163.945 51.8582 163.945C52.7974 163.945 53.5314 163.605 54.0601 162.924L55.2581 164.265C54.8925 164.783 54.3975 165.188 53.7732 165.48C53.1489 165.767 52.4571 165.911 51.6979 165.911ZM51.4195 158.419C50.9358 158.419 50.5421 158.582 50.2384 158.908C49.9403 159.234 49.749 159.701 49.6647 160.309H53.0561V160.115C53.0449 159.575 52.8987 159.159 52.6174 158.866C52.3362 158.568 51.9369 158.419 51.4195 158.419ZM61.9735 158.9C61.6417 158.855 61.3492 158.832 61.0961 158.832C60.1737 158.832 59.5691 159.144 59.2823 159.769V165.742H56.8441V156.614H59.1473L59.2148 157.702C59.7041 156.864 60.3818 156.445 61.248 156.445C61.5179 156.445 61.771 156.481 62.0072 156.554L61.9735 158.9ZM75.6828 161.262C75.6828 162.724 75.3706 163.866 74.7463 164.687C74.122 165.503 73.2502 165.911 72.131 165.911C71.1411 165.911 70.3509 165.531 69.7604 164.772L69.6507 165.742H67.4572V152.783H69.8953V157.432C70.4578 156.774 71.1974 156.445 72.1141 156.445C73.2278 156.445 74.0995 156.855 74.7294 157.677C75.365 158.492 75.6828 159.642 75.6828 161.127V161.262ZM73.2446 161.085C73.2446 160.162 73.0984 159.49 72.8059 159.069C72.5135 158.641 72.0776 158.427 71.4983 158.427C70.7221 158.427 70.1878 158.745 69.8953 159.381V162.983C70.1934 163.624 70.7334 163.945 71.5151 163.945C72.3026 163.945 72.82 163.557 73.0675 162.781C73.1856 162.409 73.2446 161.844 73.2446 161.085ZM80.5 162.291L82.1873 156.614H84.8026L81.1327 167.159L80.9303 167.64C80.3847 168.832 79.4848 169.429 78.2306 169.429C77.8762 169.429 77.5163 169.375 77.1507 169.268V167.421L77.5219 167.429C77.9831 167.429 78.3262 167.359 78.5512 167.218C78.7818 167.078 78.9617 166.844 79.0911 166.518L79.3779 165.767L76.1805 156.614H78.8043L80.5 162.291ZM85.8825 164.544C85.8825 164.156 86.0118 163.841 86.2705 163.599C86.5349 163.357 86.8639 163.236 87.2576 163.236C87.6569 163.236 87.986 163.357 88.2447 163.599C88.509 163.841 88.6412 164.156 88.6412 164.544C88.6412 164.926 88.5118 165.238 88.2531 165.48C87.9944 165.717 87.6626 165.835 87.2576 165.835C86.8583 165.835 86.5293 165.717 86.2705 165.48C86.0118 165.238 85.8825 164.926 85.8825 164.544ZM85.8825 157.634C85.8825 157.246 86.0118 156.931 86.2705 156.689C86.5349 156.448 86.8639 156.327 87.2576 156.327C87.6569 156.327 87.986 156.448 88.2447 156.689C88.509 156.931 88.6412 157.246 88.6412 157.634C88.6412 158.017 88.5118 158.329 88.2531 158.571C87.9944 158.807 87.6626 158.925 87.2576 158.925C86.8583 158.925 86.5293 158.807 86.2705 158.571C86.0118 158.329 85.8825 158.017 85.8825 157.634Z" fill="#646464"/>
<g filter="url(#filter1_d)">
<path fill-rule="evenodd" clip-rule="evenodd" d="M164.664 107.158C164.664 105.037 166.383 103.318 168.503 103.318H342.707C344.828 103.318 346.547 105.037 346.547 107.158V133.918C346.547 136.039 344.828 137.758 342.707 137.758H168.503C166.383 137.758 164.664 136.039 164.664 133.918V107.158Z" fill="white"/>
</g>
<g filter="url(#filter2_d)">
<path fill-rule="evenodd" clip-rule="evenodd" d="M164.664 154.512C164.664 152.392 166.383 150.673 168.503 150.673H535.353C537.474 150.673 539.193 152.392 539.193 154.512V175.891C539.193 178.012 537.474 179.731 535.353 179.731H168.503C166.383 179.731 164.664 178.012 164.664 175.891V154.512Z" fill="white"/>
</g>
<g filter="url(#filter3_d)">
<path fill-rule="evenodd" clip-rule="evenodd" d="M354.081 107.507C354.081 105.387 355.8 103.667 357.92 103.667H535.499C537.619 103.667 539.338 105.386 539.338 107.507V134.384C539.338 136.504 537.619 138.223 535.499 138.223H357.92C355.8 138.223 354.081 136.504 354.081 134.384V107.507Z" fill="white"/>
</g>
<path d="M326.615 120.945H333.261C333.721 120.945 333.951 121.435 333.625 121.722L330.304 124.652C330.102 124.829 329.774 124.829 329.573 124.652L326.251 121.722C325.926 121.435 326.156 120.945 326.615 120.945Z" fill="#AAAAAA"/>
<path d="M368.421 125.499H372.601V127.081H366.453V117.527H368.421V125.499ZM377.726 127.081C377.638 126.91 377.575 126.698 377.535 126.444C377.076 126.956 376.479 127.212 375.744 127.212C375.048 127.212 374.471 127.011 374.012 126.608C373.557 126.206 373.329 125.698 373.329 125.086C373.329 124.334 373.607 123.756 374.163 123.354C374.723 122.951 375.53 122.748 376.584 122.743H377.457V122.337C377.457 122.008 377.371 121.746 377.201 121.549C377.034 121.352 376.77 121.254 376.407 121.254C376.087 121.254 375.836 121.33 375.652 121.484C375.473 121.637 375.383 121.847 375.383 122.113H373.487C373.487 121.702 373.614 121.322 373.867 120.972C374.121 120.622 374.48 120.348 374.943 120.152C375.407 119.95 375.928 119.85 376.505 119.85C377.38 119.85 378.073 120.071 378.585 120.512C379.101 120.95 379.36 121.567 379.36 122.363V125.44C379.364 126.114 379.458 126.624 379.642 126.969V127.081H377.726ZM376.157 125.762C376.437 125.762 376.695 125.701 376.932 125.578C377.168 125.451 377.343 125.283 377.457 125.073V123.852H376.748C375.799 123.852 375.293 124.18 375.232 124.837L375.226 124.948C375.226 125.184 375.309 125.379 375.475 125.532C375.641 125.685 375.869 125.762 376.157 125.762ZM384.661 125.119C384.661 124.887 384.545 124.705 384.314 124.574C384.086 124.439 383.719 124.318 383.211 124.213C381.523 123.859 380.678 123.141 380.678 122.061C380.678 121.431 380.939 120.906 381.459 120.486C381.984 120.062 382.669 119.85 383.513 119.85C384.414 119.85 385.134 120.062 385.672 120.486C386.214 120.91 386.486 121.462 386.486 122.14H384.589C384.589 121.869 384.502 121.645 384.327 121.47C384.152 121.291 383.878 121.201 383.507 121.201C383.187 121.201 382.94 121.274 382.765 121.418C382.59 121.562 382.503 121.746 382.503 121.969C382.503 122.179 382.601 122.35 382.798 122.481C382.999 122.608 383.336 122.719 383.808 122.816C384.281 122.907 384.679 123.012 385.003 123.131C386.004 123.498 386.505 124.134 386.505 125.04C386.505 125.687 386.227 126.212 385.672 126.615C385.116 127.013 384.399 127.212 383.52 127.212C382.925 127.212 382.395 127.107 381.932 126.897C381.472 126.683 381.111 126.392 380.849 126.024C380.587 125.652 380.455 125.252 380.455 124.823H382.253C382.271 125.16 382.395 125.418 382.627 125.598C382.859 125.777 383.17 125.867 383.559 125.867C383.922 125.867 384.195 125.799 384.379 125.663C384.567 125.523 384.661 125.342 384.661 125.119ZM390.003 118.236V119.981H391.217V121.372H390.003V124.915C390.003 125.178 390.053 125.366 390.154 125.48C390.254 125.593 390.447 125.65 390.731 125.65C390.941 125.65 391.127 125.635 391.289 125.604V127.041C390.917 127.155 390.534 127.212 390.14 127.212C388.811 127.212 388.133 126.54 388.106 125.197V121.372H387.07V119.981H388.106V118.236H390.003ZM397.47 121.464H398.48C398.962 121.464 399.318 121.344 399.55 121.103C399.782 120.862 399.898 120.543 399.898 120.145C399.898 119.76 399.782 119.46 399.55 119.246C399.322 119.032 399.007 118.924 398.605 118.924C398.242 118.924 397.938 119.025 397.693 119.226C397.448 119.423 397.325 119.681 397.325 120.001H395.429C395.429 119.502 395.563 119.056 395.829 118.662C396.101 118.264 396.477 117.953 396.958 117.73C397.444 117.507 397.977 117.396 398.559 117.396C399.57 117.396 400.361 117.638 400.934 118.124C401.507 118.605 401.794 119.27 401.794 120.119C401.794 120.556 401.661 120.959 401.394 121.326C401.127 121.694 400.777 121.976 400.344 122.173C400.882 122.365 401.282 122.654 401.545 123.039C401.811 123.424 401.945 123.879 401.945 124.404C401.945 125.252 401.634 125.932 401.013 126.444C400.396 126.956 399.578 127.212 398.559 127.212C397.605 127.212 396.825 126.96 396.217 126.457C395.613 125.954 395.311 125.289 395.311 124.463H397.207C397.207 124.821 397.341 125.114 397.608 125.342C397.879 125.569 398.211 125.683 398.605 125.683C399.056 125.683 399.408 125.565 399.661 125.329C399.92 125.088 400.049 124.771 400.049 124.377C400.049 123.424 399.524 122.947 398.474 122.947H397.47V121.464ZM406.387 123.478C406.387 122.372 406.634 121.49 407.129 120.834C407.627 120.178 408.308 119.85 409.169 119.85C409.86 119.85 410.431 120.108 410.882 120.624V117.002H412.785V127.081H411.072L410.98 126.326C410.508 126.917 409.9 127.212 409.156 127.212C408.321 127.212 407.649 126.884 407.142 126.228C406.639 125.567 406.387 124.651 406.387 123.478ZM408.283 123.616C408.283 124.281 408.399 124.791 408.631 125.145C408.863 125.499 409.2 125.676 409.642 125.676C410.228 125.676 410.641 125.429 410.882 124.935V122.133C410.646 121.639 410.237 121.392 409.655 121.392C408.741 121.392 408.283 122.133 408.283 123.616ZM418.369 127.081C418.281 126.91 418.218 126.698 418.179 126.444C417.719 126.956 417.122 127.212 416.387 127.212C415.692 127.212 415.114 127.011 414.655 126.608C414.2 126.206 413.972 125.698 413.972 125.086C413.972 124.334 414.25 123.756 414.806 123.354C415.366 122.951 416.173 122.748 417.227 122.743H418.1V122.337C418.1 122.008 418.015 121.746 417.844 121.549C417.678 121.352 417.413 121.254 417.05 121.254C416.731 121.254 416.479 121.33 416.295 121.484C416.116 121.637 416.026 121.847 416.026 122.113H414.13C414.13 121.702 414.257 121.322 414.511 120.972C414.764 120.622 415.123 120.348 415.587 120.152C416.05 119.95 416.571 119.85 417.148 119.85C418.023 119.85 418.717 120.071 419.228 120.512C419.745 120.95 420.003 121.567 420.003 122.363V125.44C420.007 126.114 420.101 126.624 420.285 126.969V127.081H418.369ZM416.801 125.762C417.081 125.762 417.339 125.701 417.575 125.578C417.811 125.451 417.986 125.283 418.1 125.073V123.852H417.391C416.442 123.852 415.937 124.18 415.875 124.837L415.869 124.948C415.869 125.184 415.952 125.379 416.118 125.532C416.284 125.685 416.512 125.762 416.801 125.762ZM424.005 124.397L425.318 119.981H427.352L424.497 128.183L424.34 128.557C423.916 129.484 423.216 129.948 422.24 129.948C421.965 129.948 421.685 129.907 421.4 129.823V128.386L421.689 128.393C422.048 128.393 422.315 128.338 422.49 128.229C422.669 128.12 422.809 127.938 422.91 127.684L423.133 127.1L420.646 119.981H422.686L424.005 124.397ZM431.945 125.119C431.945 124.887 431.829 124.705 431.597 124.574C431.37 124.439 431.002 124.318 430.495 124.213C428.806 123.859 427.962 123.141 427.962 122.061C427.962 121.431 428.222 120.906 428.743 120.486C429.268 120.062 429.952 119.85 430.797 119.85C431.698 119.85 432.417 120.062 432.956 120.486C433.498 120.91 433.769 121.462 433.769 122.14H431.873C431.873 121.869 431.785 121.645 431.61 121.47C431.435 121.291 431.162 121.201 430.79 121.201C430.471 121.201 430.224 121.274 430.049 121.418C429.874 121.562 429.786 121.746 429.786 121.969C429.786 122.179 429.885 122.35 430.081 122.481C430.283 122.608 430.62 122.719 431.092 122.816C431.564 122.907 431.963 123.012 432.286 123.131C433.288 123.498 433.789 124.134 433.789 125.04C433.789 125.687 433.511 126.212 432.956 126.615C432.4 127.013 431.683 127.212 430.803 127.212C430.208 127.212 429.679 127.107 429.215 126.897C428.756 126.683 428.395 126.392 428.133 126.024C427.87 125.652 427.739 125.252 427.739 124.823H429.537C429.554 125.16 429.679 125.418 429.911 125.598C430.143 125.777 430.453 125.867 430.843 125.867C431.206 125.867 431.479 125.799 431.663 125.663C431.851 125.523 431.945 125.342 431.945 125.119Z" fill="#AAAAAA"/>
<path d="M186.832 124.325L188.118 117.527H190.08L187.961 127.081H185.979L184.424 120.69L182.869 127.081H180.887L178.768 117.527H180.73L182.023 124.312L183.597 117.527H185.264L186.832 124.325ZM196.255 125.112H192.803L192.147 127.081H190.054L193.611 117.527H195.435L199.011 127.081H196.918L196.255 125.112ZM193.335 123.518H195.723L194.523 119.942L193.335 123.518ZM205.651 123.176H201.872V127.081H199.903V117.527H206.124V119.121H201.872V121.589H205.651V123.176ZM216.36 122.94H212.58V125.499H217.016V127.081H210.612V117.527H217.003V119.121H212.58V121.398H216.36V122.94ZM220.533 124.764L221.852 119.981H223.834L221.439 127.081H219.628L217.233 119.981H219.214L220.533 124.764ZM227.85 127.212C226.808 127.212 225.96 126.893 225.304 126.254C224.652 125.615 224.326 124.764 224.326 123.701V123.518C224.326 122.805 224.464 122.168 224.739 121.608C225.015 121.044 225.404 120.611 225.907 120.309C226.415 120.003 226.992 119.85 227.64 119.85C228.611 119.85 229.374 120.156 229.93 120.768C230.49 121.381 230.769 122.249 230.769 123.373V124.148H226.248C226.31 124.611 226.493 124.983 226.8 125.263C227.11 125.543 227.502 125.683 227.974 125.683C228.705 125.683 229.276 125.418 229.687 124.889L230.619 125.932C230.334 126.335 229.949 126.65 229.464 126.877C228.978 127.1 228.44 127.212 227.85 127.212ZM227.633 121.385C227.257 121.385 226.951 121.512 226.714 121.766C226.483 122.019 226.334 122.383 226.268 122.855H228.906V122.704C228.897 122.284 228.783 121.96 228.565 121.733C228.346 121.501 228.035 121.385 227.633 121.385ZM233.598 119.981L233.657 120.801C234.164 120.167 234.844 119.85 235.697 119.85C236.45 119.85 237.01 120.071 237.377 120.512C237.745 120.954 237.933 121.615 237.941 122.494V127.081H236.045V122.54C236.045 122.138 235.958 121.847 235.783 121.667C235.608 121.484 235.317 121.392 234.91 121.392C234.376 121.392 233.976 121.619 233.709 122.074V127.081H231.813V119.981H233.598ZM241.655 118.236V119.981H242.869V121.372H241.655V124.915C241.655 125.178 241.706 125.366 241.806 125.48C241.907 125.593 242.099 125.65 242.384 125.65C242.594 125.65 242.78 125.635 242.941 125.604V127.041C242.57 127.155 242.187 127.212 241.793 127.212C240.463 127.212 239.785 126.54 239.759 125.197V121.372H238.722V119.981H239.759V118.236H241.655ZM247.771 125.119C247.771 124.887 247.655 124.705 247.423 124.574C247.196 124.439 246.828 124.318 246.321 124.213C244.632 123.859 243.788 123.141 243.788 122.061C243.788 121.431 244.048 120.906 244.569 120.486C245.094 120.062 245.778 119.85 246.623 119.85C247.524 119.85 248.243 120.062 248.781 120.486C249.324 120.91 249.595 121.462 249.595 122.14H247.699C247.699 121.869 247.611 121.645 247.436 121.47C247.261 121.291 246.988 121.201 246.616 121.201C246.297 121.201 246.05 121.274 245.875 121.418C245.7 121.562 245.612 121.746 245.612 121.969C245.612 122.179 245.71 122.35 245.907 122.481C246.109 122.608 246.445 122.719 246.918 122.816C247.39 122.907 247.788 123.012 248.112 123.131C249.114 123.498 249.615 124.134 249.615 125.04C249.615 125.687 249.337 126.212 248.781 126.615C248.226 127.013 247.508 127.212 246.629 127.212C246.034 127.212 245.505 127.107 245.041 126.897C244.582 126.683 244.221 126.392 243.959 126.024C243.696 125.652 243.565 125.252 243.565 124.823H245.363C245.38 125.16 245.505 125.418 245.737 125.598C245.969 125.777 246.279 125.867 246.669 125.867C247.032 125.867 247.305 125.799 247.489 125.663C247.677 125.523 247.771 125.342 247.771 125.119Z" fill="#AAAAAA"/>
<path d="M186.583 161.502H183.656V169.461H181.688V161.502H178.801V159.907H186.583V161.502ZM189.7 166.777L191.012 162.361H193.046L190.192 170.563L190.034 170.937C189.61 171.865 188.91 172.329 187.935 172.329C187.659 172.329 187.379 172.287 187.095 172.204V170.767L187.384 170.773C187.742 170.773 188.009 170.719 188.184 170.609C188.363 170.5 188.503 170.318 188.604 170.065L188.827 169.481L186.34 162.361H188.381L189.7 166.777ZM200.185 165.977C200.185 167.07 199.936 167.947 199.437 168.608C198.943 169.264 198.274 169.592 197.429 169.592C196.712 169.592 196.132 169.343 195.691 168.844V172.191H193.794V162.361H195.553L195.618 163.057C196.078 162.506 196.677 162.23 197.416 162.23C198.291 162.23 198.971 162.554 199.457 163.201C199.943 163.849 200.185 164.741 200.185 165.878V165.977ZM198.289 165.839C198.289 165.178 198.171 164.669 197.935 164.31C197.703 163.951 197.364 163.772 196.918 163.772C196.323 163.772 195.914 164 195.691 164.454V167.361C195.922 167.829 196.336 168.063 196.931 168.063C197.836 168.063 198.289 167.322 198.289 165.839ZM204.634 169.592C203.593 169.592 202.744 169.273 202.088 168.634C201.436 167.996 201.111 167.145 201.111 166.082V165.898C201.111 165.185 201.248 164.549 201.524 163.989C201.8 163.424 202.189 162.991 202.692 162.689C203.199 162.383 203.777 162.23 204.424 162.23C205.395 162.23 206.159 162.536 206.714 163.149C207.274 163.761 207.554 164.629 207.554 165.754V166.528H203.033C203.094 166.992 203.278 167.364 203.584 167.643C203.895 167.923 204.286 168.063 204.759 168.063C205.489 168.063 206.06 167.799 206.472 167.269L207.403 168.313C207.119 168.715 206.734 169.03 206.248 169.258C205.763 169.481 205.225 169.592 204.634 169.592ZM204.418 163.766C204.041 163.766 203.735 163.892 203.499 164.146C203.267 164.4 203.118 164.763 203.053 165.235H205.691V165.084C205.682 164.664 205.568 164.341 205.349 164.113C205.131 163.881 204.82 163.766 204.418 163.766ZM214.634 166.777L215.947 162.361H217.981L215.126 170.563L214.969 170.937C214.545 171.865 213.845 172.329 212.869 172.329C212.594 172.329 212.314 172.287 212.029 172.204V170.767L212.318 170.773C212.677 170.773 212.944 170.719 213.119 170.609C213.298 170.5 213.438 170.318 213.538 170.065L213.762 169.481L211.275 162.361H213.315L214.634 166.777ZM218.329 165.846C218.329 165.141 218.464 164.514 218.735 163.962C219.007 163.411 219.396 162.985 219.903 162.683C220.415 162.381 221.008 162.23 221.682 162.23C222.64 162.23 223.42 162.523 224.024 163.109C224.632 163.696 224.971 164.492 225.041 165.498L225.054 165.983C225.054 167.073 224.75 167.947 224.142 168.608C223.534 169.264 222.718 169.592 221.695 169.592C220.671 169.592 219.853 169.264 219.241 168.608C218.633 167.952 218.329 167.059 218.329 165.931V165.846ZM220.225 165.983C220.225 166.657 220.352 167.173 220.605 167.532C220.859 167.886 221.222 168.063 221.695 168.063C222.154 168.063 222.513 167.888 222.771 167.538C223.029 167.184 223.158 166.62 223.158 165.846C223.158 165.185 223.029 164.673 222.771 164.31C222.513 163.947 222.15 163.766 221.682 163.766C221.218 163.766 220.859 163.947 220.605 164.31C220.352 164.669 220.225 165.227 220.225 165.983ZM230.474 168.739C230.006 169.308 229.359 169.592 228.532 169.592C227.771 169.592 227.189 169.374 226.787 168.936C226.388 168.499 226.185 167.858 226.176 167.014V162.361H228.073V166.948C228.073 167.687 228.409 168.057 229.083 168.057C229.726 168.057 230.168 167.834 230.409 167.388V162.361H232.311V169.461H230.527L230.474 168.739ZM237.731 164.14C237.473 164.105 237.246 164.087 237.049 164.087C236.332 164.087 235.861 164.33 235.638 164.815V169.461H233.742V162.361H235.533L235.586 163.208C235.966 162.556 236.493 162.23 237.167 162.23C237.377 162.23 237.574 162.258 237.758 162.315L237.731 164.14ZM245.842 167.499C245.842 167.267 245.726 167.086 245.494 166.954C245.266 166.819 244.899 166.699 244.392 166.594C242.703 166.239 241.859 165.522 241.859 164.441C241.859 163.811 242.119 163.286 242.64 162.867C243.165 162.442 243.849 162.23 244.693 162.23C245.595 162.23 246.314 162.442 246.852 162.867C247.395 163.291 247.666 163.842 247.666 164.52H245.77C245.77 164.249 245.682 164.026 245.507 163.851C245.332 163.671 245.059 163.582 244.687 163.582C244.368 163.582 244.12 163.654 243.945 163.798C243.77 163.943 243.683 164.126 243.683 164.349C243.683 164.559 243.781 164.73 243.978 164.861C244.179 164.988 244.516 165.1 244.989 165.196C245.461 165.288 245.859 165.393 246.183 165.511C247.185 165.878 247.686 166.515 247.686 167.42C247.686 168.068 247.408 168.593 246.852 168.995C246.297 169.393 245.579 169.592 244.7 169.592C244.105 169.592 243.576 169.487 243.112 169.277C242.653 169.063 242.292 168.772 242.029 168.405C241.767 168.033 241.636 167.633 241.636 167.204H243.434C243.451 167.541 243.576 167.799 243.808 167.978C244.039 168.157 244.35 168.247 244.739 168.247C245.102 168.247 245.376 168.179 245.56 168.044C245.748 167.904 245.842 167.722 245.842 167.499ZM252.18 169.592C251.139 169.592 250.291 169.273 249.634 168.634C248.983 167.996 248.657 167.145 248.657 166.082V165.898C248.657 165.185 248.794 164.549 249.07 163.989C249.346 163.424 249.735 162.991 250.238 162.689C250.746 162.383 251.323 162.23 251.97 162.23C252.941 162.23 253.705 162.536 254.26 163.149C254.82 163.761 255.1 164.629 255.1 165.754V166.528H250.579C250.641 166.992 250.824 167.364 251.13 167.643C251.441 167.923 251.833 168.063 252.305 168.063C253.036 168.063 253.606 167.799 254.018 167.269L254.949 168.313C254.665 168.715 254.28 169.03 253.795 169.258C253.309 169.481 252.771 169.592 252.18 169.592ZM251.964 163.766C251.588 163.766 251.281 163.892 251.045 164.146C250.813 164.4 250.665 164.763 250.599 165.235H253.237V165.084C253.228 164.664 253.114 164.341 252.896 164.113C252.677 163.881 252.366 163.766 251.964 163.766ZM260.297 169.461C260.21 169.29 260.146 169.078 260.107 168.825C259.648 169.336 259.05 169.592 258.316 169.592C257.62 169.592 257.043 169.391 256.583 168.989C256.128 168.586 255.901 168.079 255.901 167.466C255.901 166.714 256.179 166.136 256.734 165.734C257.294 165.332 258.101 165.128 259.155 165.124H260.028V164.717C260.028 164.389 259.943 164.126 259.772 163.93C259.606 163.733 259.341 163.634 258.978 163.634C258.659 163.634 258.407 163.711 258.224 163.864C258.044 164.017 257.955 164.227 257.955 164.494H256.058C256.058 164.083 256.185 163.702 256.439 163.352C256.693 163.002 257.051 162.729 257.515 162.532C257.979 162.331 258.499 162.23 259.077 162.23C259.952 162.23 260.645 162.451 261.157 162.893C261.673 163.33 261.931 163.947 261.931 164.743V167.821C261.935 168.494 262.029 169.004 262.213 169.35V169.461H260.297ZM258.729 168.142C259.009 168.142 259.267 168.081 259.503 167.958C259.739 167.832 259.914 167.663 260.028 167.453V166.233H259.319C258.37 166.233 257.865 166.561 257.804 167.217L257.797 167.329C257.797 167.565 257.88 167.759 258.047 167.912C258.213 168.066 258.44 168.142 258.729 168.142ZM267.377 164.14C267.119 164.105 266.892 164.087 266.695 164.087C265.977 164.087 265.507 164.33 265.284 164.815V169.461H263.388V162.361H265.179L265.232 163.208C265.612 162.556 266.139 162.23 266.813 162.23C267.023 162.23 267.22 162.258 267.403 162.315L267.377 164.14ZM271.117 168.063C271.467 168.063 271.752 167.967 271.97 167.775C272.189 167.582 272.303 167.326 272.312 167.007H274.09C274.085 167.488 273.954 167.93 273.696 168.332C273.438 168.731 273.084 169.041 272.633 169.264C272.187 169.483 271.693 169.592 271.15 169.592C270.135 169.592 269.335 169.271 268.749 168.628C268.162 167.98 267.869 167.088 267.869 165.951V165.826C267.869 164.732 268.16 163.86 268.742 163.208C269.324 162.556 270.122 162.23 271.137 162.23C272.025 162.23 272.736 162.484 273.27 162.991C273.808 163.494 274.081 164.166 274.09 165.006H272.312C272.303 164.638 272.189 164.341 271.97 164.113C271.752 163.881 271.463 163.766 271.104 163.766C270.662 163.766 270.328 163.927 270.1 164.251C269.877 164.57 269.766 165.091 269.766 165.813V166.01C269.766 166.74 269.877 167.265 270.1 167.584C270.323 167.904 270.662 168.063 271.117 168.063ZM277.023 163.136C277.526 162.532 278.158 162.23 278.919 162.23C280.459 162.23 281.24 163.125 281.262 164.914V169.461H279.365V164.966C279.365 164.559 279.278 164.26 279.103 164.067C278.928 163.87 278.637 163.772 278.23 163.772C277.675 163.772 277.272 163.986 277.023 164.415V169.461H275.127V159.382H277.023V163.136ZM287.889 163.136C288.392 162.532 289.024 162.23 289.785 162.23C291.325 162.23 292.106 163.125 292.128 164.914V169.461H290.232V164.966C290.232 164.559 290.144 164.26 289.969 164.067C289.794 163.87 289.503 163.772 289.096 163.772C288.541 163.772 288.138 163.986 287.889 164.415V169.461H285.993V159.382H287.889V163.136ZM296.826 169.592C295.785 169.592 294.936 169.273 294.28 168.634C293.628 167.996 293.303 167.145 293.303 166.082V165.898C293.303 165.185 293.44 164.549 293.716 163.989C293.992 163.424 294.381 162.991 294.884 162.689C295.391 162.383 295.969 162.23 296.616 162.23C297.587 162.23 298.351 162.536 298.906 163.149C299.466 163.761 299.746 164.629 299.746 165.754V166.528H295.225C295.286 166.992 295.47 167.364 295.776 167.643C296.087 167.923 296.478 168.063 296.951 168.063C297.681 168.063 298.252 167.799 298.663 167.269L299.595 168.313C299.311 168.715 298.926 169.03 298.44 169.258C297.955 169.481 297.417 169.592 296.826 169.592ZM296.61 163.766C296.233 163.766 295.927 163.892 295.691 164.146C295.459 164.4 295.31 164.763 295.245 165.235H297.883V165.084C297.874 164.664 297.76 164.341 297.541 164.113C297.323 163.881 297.012 163.766 296.61 163.766ZM304.818 164.14C304.56 164.105 304.333 164.087 304.136 164.087C303.418 164.087 302.948 164.33 302.725 164.815V169.461H300.829V162.361H302.62L302.673 163.208C303.053 162.556 303.58 162.23 304.254 162.23C304.464 162.23 304.661 162.258 304.845 162.315L304.818 164.14ZM308.873 169.592C307.832 169.592 306.984 169.273 306.328 168.634C305.676 167.996 305.35 167.145 305.35 166.082V165.898C305.35 165.185 305.488 164.549 305.763 163.989C306.039 163.424 306.428 162.991 306.931 162.689C307.439 162.383 308.016 162.23 308.663 162.23C309.635 162.23 310.398 162.536 310.954 163.149C311.513 163.761 311.793 164.629 311.793 165.754V166.528H307.272C307.334 166.992 307.517 167.364 307.824 167.643C308.134 167.923 308.526 168.063 308.998 168.063C309.729 168.063 310.3 167.799 310.711 167.269L311.643 168.313C311.358 168.715 310.973 169.03 310.488 169.258C310.002 169.481 309.464 169.592 308.873 169.592ZM308.657 163.766C308.281 163.766 307.975 163.892 307.738 164.146C307.506 164.4 307.358 164.763 307.292 165.235H309.93V165.084C309.921 164.664 309.807 164.341 309.589 164.113C309.37 163.881 309.059 163.766 308.657 163.766ZM316.308 165.577C316.308 164.575 316.441 163.621 316.708 162.716C316.975 161.81 317.369 161.01 317.889 160.314C318.41 159.614 318.974 159.129 319.582 158.857L319.95 159.881C319.311 160.353 318.812 161.084 318.454 162.073C318.095 163.061 317.916 164.216 317.916 165.537V165.741C317.916 167.066 318.093 168.225 318.447 169.218C318.801 170.211 319.302 170.953 319.95 171.443L319.582 172.447C318.987 172.18 318.432 171.707 317.916 171.029C317.404 170.356 317.012 169.577 316.741 168.693C316.47 167.81 316.325 166.887 316.308 165.924V165.577ZM324.215 169.592C323.174 169.592 322.325 169.273 321.669 168.634C321.017 167.996 320.691 167.145 320.691 166.082V165.898C320.691 165.185 320.829 164.549 321.104 163.989C321.38 163.424 321.769 162.991 322.272 162.689C322.78 162.383 323.357 162.23 324.005 162.23C324.976 162.23 325.739 162.536 326.295 163.149C326.855 163.761 327.135 164.629 327.135 165.754V166.528H322.614C322.675 166.992 322.859 167.364 323.165 167.643C323.475 167.923 323.867 168.063 324.339 168.063C325.07 168.063 325.641 167.799 326.052 167.269L326.984 168.313C326.699 168.715 326.314 169.03 325.829 169.258C325.343 169.481 324.805 169.592 324.215 169.592ZM323.998 163.766C323.622 163.766 323.316 163.892 323.08 164.146C322.848 164.4 322.699 164.763 322.633 165.235H325.271V165.084C325.262 164.664 325.149 164.341 324.93 164.113C324.711 163.881 324.401 163.766 323.998 163.766ZM328.316 168.529C328.316 168.227 328.416 167.982 328.618 167.794C328.823 167.606 329.079 167.512 329.385 167.512C329.696 167.512 329.952 167.606 330.153 167.794C330.359 167.982 330.461 168.227 330.461 168.529C330.461 168.827 330.361 169.07 330.16 169.258C329.958 169.441 329.7 169.533 329.385 169.533C329.075 169.533 328.819 169.441 328.618 169.258C328.416 169.07 328.316 168.827 328.316 168.529ZM331.853 165.859C331.853 164.769 332.111 163.892 332.627 163.227C333.147 162.563 333.847 162.23 334.727 162.23C335.505 162.23 336.111 162.497 336.544 163.031L336.623 162.361H338.342V169.225C338.342 169.846 338.2 170.386 337.916 170.846C337.636 171.305 337.24 171.655 336.728 171.895C336.216 172.136 335.617 172.256 334.93 172.256C334.409 172.256 333.902 172.151 333.408 171.941C332.913 171.736 332.539 171.469 332.286 171.141L333.126 169.986C333.598 170.515 334.171 170.78 334.845 170.78C335.348 170.78 335.739 170.644 336.019 170.373C336.299 170.106 336.439 169.726 336.439 169.231V168.851C336.002 169.345 335.426 169.592 334.713 169.592C333.86 169.592 333.169 169.26 332.64 168.595C332.115 167.926 331.853 167.04 331.853 165.937V165.859ZM333.749 165.996C333.749 166.64 333.878 167.145 334.136 167.512C334.394 167.875 334.748 168.057 335.199 168.057C335.776 168.057 336.19 167.84 336.439 167.407V164.422C336.185 163.989 335.776 163.772 335.212 163.772C334.757 163.772 334.398 163.958 334.136 164.33C333.878 164.702 333.749 165.257 333.749 165.996ZM346.997 167.499C346.997 167.267 346.881 167.086 346.649 166.954C346.422 166.819 346.054 166.699 345.547 166.594C343.858 166.239 343.014 165.522 343.014 164.441C343.014 163.811 343.274 163.286 343.795 162.867C344.32 162.442 345.004 162.23 345.849 162.23C346.75 162.23 347.469 162.442 348.007 162.867C348.55 163.291 348.821 163.842 348.821 164.52H346.925C346.925 164.249 346.837 164.026 346.662 163.851C346.487 163.671 346.214 163.582 345.842 163.582C345.523 163.582 345.276 163.654 345.101 163.798C344.926 163.943 344.838 164.126 344.838 164.349C344.838 164.559 344.937 164.73 345.133 164.861C345.335 164.988 345.672 165.1 346.144 165.196C346.616 165.288 347.014 165.393 347.338 165.511C348.34 165.878 348.841 166.515 348.841 167.42C348.841 168.068 348.563 168.593 348.007 168.995C347.452 169.393 346.735 169.592 345.855 169.592C345.26 169.592 344.731 169.487 344.267 169.277C343.808 169.063 343.447 168.772 343.185 168.405C342.922 168.033 342.791 167.633 342.791 167.204H344.589C344.606 167.541 344.731 167.799 344.963 167.978C345.195 168.157 345.505 168.247 345.895 168.247C346.258 168.247 346.531 168.179 346.715 168.044C346.903 167.904 346.997 167.722 346.997 167.499ZM352.338 160.616V162.361H353.552V163.752H352.338V167.296C352.338 167.558 352.388 167.746 352.489 167.86C352.59 167.974 352.782 168.031 353.067 168.031C353.277 168.031 353.462 168.015 353.624 167.985V169.422C353.252 169.535 352.87 169.592 352.476 169.592C351.146 169.592 350.468 168.921 350.442 167.578V163.752H349.405V162.361H350.442V160.616H352.338ZM358.723 169.461C358.635 169.29 358.572 169.078 358.532 168.825C358.073 169.336 357.476 169.592 356.741 169.592C356.046 169.592 355.468 169.391 355.009 168.989C354.554 168.586 354.326 168.079 354.326 167.466C354.326 166.714 354.604 166.136 355.16 165.734C355.72 165.332 356.527 165.128 357.581 165.124H358.454V164.717C358.454 164.389 358.368 164.126 358.198 163.93C358.032 163.733 357.767 163.634 357.404 163.634C357.085 163.634 356.833 163.711 356.649 163.864C356.47 164.017 356.38 164.227 356.38 164.494H354.484C354.484 164.083 354.611 163.702 354.864 163.352C355.118 163.002 355.477 162.729 355.941 162.532C356.404 162.331 356.925 162.23 357.502 162.23C358.377 162.23 359.071 162.451 359.582 162.893C360.099 163.33 360.357 163.947 360.357 164.743V167.821C360.361 168.494 360.455 169.004 360.639 169.35V169.461H358.723ZM357.154 168.142C357.434 168.142 357.693 168.081 357.929 167.958C358.165 167.832 358.34 167.663 358.454 167.453V166.233H357.745C356.796 166.233 356.291 166.561 356.229 167.217L356.223 167.329C356.223 167.565 356.306 167.759 356.472 167.912C356.638 168.066 356.866 168.142 357.154 168.142ZM364.084 160.616V162.361H365.298V163.752H364.084V167.296C364.084 167.558 364.134 167.746 364.235 167.86C364.335 167.974 364.528 168.031 364.812 168.031C365.022 168.031 365.208 168.015 365.37 167.985V169.422C364.998 169.535 364.615 169.592 364.221 169.592C362.892 169.592 362.214 168.921 362.187 167.578V163.752H361.151V162.361H362.187V160.616H364.084ZM370.606 168.739C370.138 169.308 369.49 169.592 368.664 169.592C367.903 169.592 367.321 169.374 366.918 168.936C366.52 168.499 366.317 167.858 366.308 167.014V162.361H368.204V166.948C368.204 167.687 368.541 168.057 369.215 168.057C369.858 168.057 370.3 167.834 370.54 167.388V162.361H372.443V169.461H370.658L370.606 168.739ZM377.719 167.499C377.719 167.267 377.603 167.086 377.371 166.954C377.144 166.819 376.776 166.699 376.269 166.594C374.58 166.239 373.736 165.522 373.736 164.441C373.736 163.811 373.996 163.286 374.517 162.867C375.042 162.442 375.726 162.23 376.571 162.23C377.472 162.23 378.191 162.442 378.729 162.867C379.272 163.291 379.543 163.842 379.543 164.52H377.647C377.647 164.249 377.559 164.026 377.384 163.851C377.209 163.671 376.936 163.582 376.564 163.582C376.245 163.582 375.998 163.654 375.823 163.798C375.648 163.943 375.56 164.126 375.56 164.349C375.56 164.559 375.658 164.73 375.855 164.861C376.057 164.988 376.393 165.1 376.866 165.196C377.338 165.288 377.736 165.393 378.06 165.511C379.062 165.878 379.563 166.515 379.563 167.42C379.563 168.068 379.285 168.593 378.729 168.995C378.174 169.393 377.456 169.592 376.577 169.592C375.982 169.592 375.453 169.487 374.989 169.277C374.53 169.063 374.169 168.772 373.907 168.405C373.644 168.033 373.513 167.633 373.513 167.204H375.311C375.328 167.541 375.453 167.799 375.685 167.978C375.917 168.157 376.227 168.247 376.616 168.247C376.98 168.247 377.253 168.179 377.437 168.044C377.625 167.904 377.719 167.722 377.719 167.499ZM380.882 168.529C380.882 168.227 380.982 167.982 381.183 167.794C381.389 167.606 381.645 167.512 381.951 167.512C382.262 167.512 382.518 167.606 382.719 167.794C382.924 167.982 383.027 168.227 383.027 168.529C383.027 168.827 382.927 169.07 382.725 169.258C382.524 169.441 382.266 169.533 381.951 169.533C381.641 169.533 381.385 169.441 381.183 169.258C380.982 169.07 380.882 168.827 380.882 168.529ZM380.882 163.155C380.882 162.853 380.982 162.608 381.183 162.42C381.389 162.232 381.645 162.138 381.951 162.138C382.262 162.138 382.518 162.232 382.719 162.42C382.924 162.608 383.027 162.853 383.027 163.155C383.027 163.453 382.927 163.696 382.725 163.884C382.524 164.067 382.266 164.159 381.951 164.159C381.641 164.159 381.385 164.067 381.183 163.884C380.982 163.696 380.882 163.453 380.882 163.155ZM391.052 169.461H384.504V168.162L387.594 164.868C388.019 164.404 388.331 164 388.533 163.654C388.738 163.308 388.841 162.98 388.841 162.67C388.841 162.245 388.734 161.913 388.519 161.672C388.305 161.427 387.999 161.305 387.601 161.305C387.172 161.305 386.833 161.454 386.584 161.751C386.339 162.044 386.216 162.431 386.216 162.912H384.313C384.313 162.331 384.451 161.799 384.727 161.318C385.007 160.837 385.4 160.461 385.908 160.189C386.415 159.914 386.991 159.776 387.634 159.776C388.618 159.776 389.381 160.012 389.924 160.485C390.47 160.957 390.744 161.624 390.744 162.486C390.744 162.958 390.621 163.44 390.376 163.93C390.131 164.419 389.711 164.99 389.117 165.642L386.945 167.932H391.052V169.461ZM398.651 165.511C398.651 166.832 398.377 167.843 397.83 168.542C397.284 169.242 396.483 169.592 395.429 169.592C394.388 169.592 393.592 169.249 393.04 168.562C392.489 167.875 392.207 166.891 392.194 165.609V163.851C392.194 162.517 392.47 161.504 393.021 160.813C393.576 160.122 394.375 159.776 395.416 159.776C396.457 159.776 397.253 160.119 397.804 160.806C398.355 161.489 398.638 162.471 398.651 163.752V165.511ZM396.754 163.582C396.754 162.79 396.645 162.215 396.426 161.856C396.212 161.493 395.875 161.311 395.416 161.311C394.97 161.311 394.639 161.484 394.425 161.83C394.215 162.171 394.103 162.707 394.09 163.437V165.76C394.09 166.539 394.195 167.119 394.405 167.499C394.62 167.875 394.961 168.063 395.429 168.063C395.893 168.063 396.227 167.882 396.433 167.519C396.638 167.156 396.746 166.6 396.754 165.852V163.582ZM406.367 165.511C406.367 166.832 406.094 167.843 405.547 168.542C405 169.242 404.2 169.592 403.145 169.592C402.104 169.592 401.308 169.249 400.757 168.562C400.206 167.875 399.924 166.891 399.911 165.609V163.851C399.911 162.517 400.186 161.504 400.737 160.813C401.293 160.122 402.091 159.776 403.132 159.776C404.173 159.776 404.97 160.119 405.521 160.806C406.072 161.489 406.354 162.471 406.367 163.752V165.511ZM404.471 163.582C404.471 162.79 404.362 162.215 404.143 161.856C403.928 161.493 403.592 161.311 403.132 161.311C402.686 161.311 402.356 161.484 402.142 161.83C401.932 162.171 401.82 162.707 401.807 163.437V165.76C401.807 166.539 401.912 167.119 402.122 167.499C402.336 167.875 402.677 168.063 403.145 168.063C403.609 168.063 403.944 167.882 404.149 167.519C404.355 167.156 404.462 166.6 404.471 165.852V163.582ZM416.597 167.493H413.146L412.489 169.461H410.396L413.953 159.907H415.777L419.353 169.461H417.26L416.597 167.493ZM413.677 165.898H416.065L414.865 162.322L413.677 165.898ZM428.014 169.461H426.046L422.214 163.175V169.461H420.245V159.907H422.214L426.052 166.206V159.907H428.014V169.461ZM429.733 169.461V159.907H432.673C433.513 159.907 434.263 160.098 434.924 160.478C435.589 160.854 436.107 161.392 436.479 162.092C436.851 162.788 437.037 163.58 437.037 164.468V164.907C437.037 165.795 436.853 166.585 436.485 167.276C436.122 167.967 435.608 168.503 434.943 168.884C434.279 169.264 433.528 169.457 432.693 169.461H429.733ZM431.702 161.502V167.88H432.653C433.423 167.88 434.012 167.628 434.419 167.125C434.825 166.622 435.033 165.902 435.042 164.966V164.461C435.042 163.49 434.841 162.755 434.438 162.256C434.036 161.753 433.447 161.502 432.673 161.502H431.702ZM445.541 167.499C445.541 167.267 445.425 167.086 445.193 166.954C444.965 166.819 444.598 166.699 444.091 166.594C442.402 166.239 441.558 165.522 441.558 164.441C441.558 163.811 441.818 163.286 442.339 162.867C442.863 162.442 443.548 162.23 444.392 162.23C445.293 162.23 446.013 162.442 446.551 162.867C447.094 163.291 447.365 163.842 447.365 164.52H445.468C445.468 164.249 445.381 164.026 445.206 163.851C445.031 163.671 444.758 163.582 444.386 163.582C444.066 163.582 443.819 163.654 443.644 163.798C443.469 163.943 443.382 164.126 443.382 164.349C443.382 164.559 443.48 164.73 443.677 164.861C443.878 164.988 444.215 165.1 444.688 165.196C445.16 165.288 445.558 165.393 445.882 165.511C446.884 165.878 447.384 166.515 447.384 167.42C447.384 168.068 447.107 168.593 446.551 168.995C445.996 169.393 445.278 169.592 444.399 169.592C443.804 169.592 443.275 169.487 442.811 169.277C442.352 169.063 441.991 168.772 441.728 168.405C441.466 168.033 441.335 167.633 441.335 167.204H443.132C443.15 167.541 443.275 167.799 443.507 167.978C443.738 168.157 444.049 168.247 444.438 168.247C444.801 168.247 445.075 168.179 445.258 168.044C445.447 167.904 445.541 167.722 445.541 167.499ZM451.564 168.063C451.914 168.063 452.199 167.967 452.417 167.775C452.636 167.582 452.75 167.326 452.759 167.007H454.537C454.532 167.488 454.401 167.93 454.143 168.332C453.885 168.731 453.531 169.041 453.08 169.264C452.634 169.483 452.14 169.592 451.597 169.592C450.582 169.592 449.782 169.271 449.196 168.628C448.609 167.98 448.316 167.088 448.316 165.951V165.826C448.316 164.732 448.607 163.86 449.189 163.208C449.771 162.556 450.569 162.23 451.584 162.23C452.472 162.23 453.183 162.484 453.717 162.991C454.255 163.494 454.528 164.166 454.537 165.006H452.759C452.75 164.638 452.636 164.341 452.417 164.113C452.199 163.881 451.91 163.766 451.551 163.766C451.109 163.766 450.775 163.927 450.547 164.251C450.324 164.57 450.213 165.091 450.213 165.813V166.01C450.213 166.74 450.324 167.265 450.547 167.584C450.77 167.904 451.109 168.063 451.564 168.063ZM457.47 163.136C457.973 162.532 458.605 162.23 459.366 162.23C460.906 162.23 461.687 163.125 461.709 164.914V169.461H459.812V164.966C459.812 164.559 459.725 164.26 459.55 164.067C459.375 163.87 459.084 163.772 458.677 163.772C458.122 163.772 457.719 163.986 457.47 164.415V169.461H455.574V159.382H457.47V163.136ZM466.407 169.592C465.366 169.592 464.517 169.273 463.861 168.634C463.209 167.996 462.883 167.145 462.883 166.082V165.898C462.883 165.185 463.021 164.549 463.297 163.989C463.572 163.424 463.962 162.991 464.465 162.689C464.972 162.383 465.549 162.23 466.197 162.23C467.168 162.23 467.931 162.536 468.487 163.149C469.047 163.761 469.327 164.629 469.327 165.754V166.528H464.806C464.867 166.992 465.051 167.364 465.357 167.643C465.668 167.923 466.059 168.063 466.532 168.063C467.262 168.063 467.833 167.799 468.244 167.269L469.176 168.313C468.892 168.715 468.507 169.03 468.021 169.258C467.535 169.481 466.997 169.592 466.407 169.592ZM466.19 163.766C465.814 163.766 465.508 163.892 465.272 164.146C465.04 164.4 464.891 164.763 464.826 165.235H467.463V165.084C467.455 164.664 467.341 164.341 467.122 164.113C466.903 163.881 466.593 163.766 466.19 163.766ZM472.188 162.361L472.247 163.155C472.75 162.538 473.43 162.23 474.287 162.23C475.202 162.23 475.829 162.591 476.171 163.313C476.669 162.591 477.38 162.23 478.303 162.23C479.073 162.23 479.646 162.455 480.022 162.906C480.399 163.352 480.587 164.026 480.587 164.927V169.461H478.684V164.933C478.684 164.531 478.605 164.238 478.448 164.054C478.29 163.866 478.012 163.772 477.614 163.772C477.046 163.772 476.652 164.043 476.433 164.586L476.44 169.461H474.543V164.94C474.543 164.529 474.462 164.231 474.301 164.048C474.139 163.864 473.863 163.772 473.474 163.772C472.936 163.772 472.546 163.995 472.306 164.441V169.461H470.41V162.361H472.188ZM485.318 169.592C484.277 169.592 483.428 169.273 482.772 168.634C482.12 167.996 481.794 167.145 481.794 166.082V165.898C481.794 165.185 481.932 164.549 482.207 163.989C482.483 163.424 482.872 162.991 483.375 162.689C483.883 162.383 484.46 162.23 485.108 162.23C486.079 162.23 486.842 162.536 487.398 163.149C487.958 163.761 488.238 164.629 488.238 165.754V166.528H483.717C483.778 166.992 483.962 167.364 484.268 167.643C484.578 167.923 484.97 168.063 485.442 168.063C486.173 168.063 486.744 167.799 487.155 167.269L488.087 168.313C487.802 168.715 487.417 169.03 486.932 169.258C486.446 169.481 485.908 169.592 485.318 169.592ZM485.101 163.766C484.725 163.766 484.419 163.892 484.183 164.146C483.951 164.4 483.802 164.763 483.736 165.235H486.374V165.084C486.365 164.664 486.252 164.341 486.033 164.113C485.814 163.881 485.504 163.766 485.101 163.766ZM489.412 168.529C489.412 168.227 489.513 167.982 489.714 167.794C489.92 167.606 490.176 167.512 490.482 167.512C490.792 167.512 491.048 167.606 491.249 167.794C491.455 167.982 491.558 168.227 491.558 168.529C491.558 168.827 491.457 169.07 491.256 169.258C491.055 169.441 490.797 169.533 490.482 169.533C490.171 169.533 489.915 169.441 489.714 169.258C489.513 169.07 489.412 168.827 489.412 168.529ZM489.412 163.155C489.412 162.853 489.513 162.608 489.714 162.42C489.92 162.232 490.176 162.138 490.482 162.138C490.792 162.138 491.048 162.232 491.249 162.42C491.455 162.608 491.558 162.853 491.558 163.155C491.558 163.453 491.457 163.696 491.256 163.884C491.055 164.067 490.797 164.159 490.482 164.159C490.171 164.159 489.915 164.067 489.714 163.884C489.513 163.696 489.412 163.453 489.412 163.155ZM494.963 163.136C495.466 162.532 496.099 162.23 496.86 162.23C498.4 162.23 499.18 163.125 499.202 164.914V169.461H497.306V164.966C497.306 164.559 497.218 164.26 497.043 164.067C496.868 163.87 496.578 163.772 496.171 163.772C495.615 163.772 495.213 163.986 494.963 164.415V169.461H493.067V159.382H494.963V163.136ZM502.903 160.616V162.361H504.117V163.752H502.903V167.296C502.903 167.558 502.953 167.746 503.054 167.86C503.155 167.974 503.347 168.031 503.631 168.031C503.841 168.031 504.027 168.015 504.189 167.985V169.422C503.817 169.535 503.435 169.592 503.041 169.592C501.711 169.592 501.033 168.921 501.007 167.578V163.752H499.97V162.361H501.007V160.616H502.903ZM507.444 160.616V162.361H508.658V163.752H507.444V167.296C507.444 167.558 507.494 167.746 507.595 167.86C507.695 167.974 507.888 168.031 508.172 168.031C508.382 168.031 508.568 168.015 508.73 167.985V169.422C508.358 169.535 507.975 169.592 507.582 169.592C506.252 169.592 505.574 168.921 505.547 167.578V163.752H504.511V162.361H505.547V160.616H507.444ZM516.105 165.977C516.105 167.07 515.856 167.947 515.357 168.608C514.863 169.264 514.194 169.592 513.349 169.592C512.632 169.592 512.052 169.343 511.61 168.844V172.191H509.714V162.361H511.473L511.538 163.057C511.998 162.506 512.597 162.23 513.336 162.23C514.211 162.23 514.891 162.554 515.377 163.201C515.862 163.849 516.105 164.741 516.105 165.878V165.977ZM514.209 165.839C514.209 165.178 514.091 164.669 513.855 164.31C513.623 163.951 513.284 163.772 512.837 163.772C512.243 163.772 511.834 164 511.61 164.454V167.361C511.842 167.829 512.256 168.063 512.851 168.063C513.756 168.063 514.209 167.322 514.209 165.839ZM521.131 167.499C521.131 167.267 521.016 167.086 520.784 166.954C520.556 166.819 520.189 166.699 519.681 166.594C517.993 166.239 517.149 165.522 517.149 164.441C517.149 163.811 517.409 163.286 517.929 162.867C518.454 162.442 519.139 162.23 519.983 162.23C520.884 162.23 521.604 162.442 522.142 162.867C522.684 163.291 522.956 163.842 522.956 164.52H521.059C521.059 164.249 520.972 164.026 520.797 163.851C520.622 163.671 520.348 163.582 519.977 163.582C519.657 163.582 519.41 163.654 519.235 163.798C519.06 163.943 518.973 164.126 518.973 164.349C518.973 164.559 519.071 164.73 519.268 164.861C519.469 164.988 519.806 165.1 520.278 165.196C520.751 165.288 521.149 165.393 521.473 165.511C522.474 165.878 522.975 166.515 522.975 167.42C522.975 168.068 522.698 168.593 522.142 168.995C521.586 169.393 520.869 169.592 519.99 169.592C519.395 169.592 518.866 169.487 518.402 169.277C517.943 169.063 517.582 168.772 517.319 168.405C517.057 168.033 516.925 167.633 516.925 167.204H518.723C518.741 167.541 518.866 167.799 519.097 167.978C519.329 168.157 519.64 168.247 520.029 168.247C520.392 168.247 520.666 168.179 520.849 168.044C521.037 167.904 521.131 167.722 521.131 167.499ZM527.47 165.727C527.47 166.716 527.328 167.668 527.044 168.582C526.759 169.496 526.35 170.303 525.817 171.003C525.283 171.703 524.712 172.184 524.104 172.447L523.736 171.443C524.358 170.975 524.848 170.253 525.206 169.277C525.565 168.302 525.751 167.18 525.764 165.911V165.563C525.764 164.255 525.585 163.103 525.226 162.105C524.872 161.108 524.375 160.36 523.736 159.861L524.104 158.857C524.699 159.115 525.259 159.584 525.784 160.262C526.313 160.94 526.722 161.729 527.011 162.63C527.304 163.531 527.457 164.465 527.47 165.432V165.727Z" fill="#DFDFDF"/>
<g clip-path="url(#clip1)">
<path fill-rule="evenodd" clip-rule="evenodd" d="M446.637 194.333C446.637 192.212 448.356 190.493 450.476 190.493H532.066C534.187 190.493 535.906 192.212 535.906 194.333V216.41C535.906 218.531 534.187 220.25 532.066 220.25H450.476C448.356 220.25 446.637 218.531 446.637 216.41V194.333Z" fill="#F3652B"/>
<path d="M474.949 208.712C474.949 208.292 474.801 207.968 474.503 207.741C474.21 207.513 473.679 207.283 472.909 207.052C472.139 206.82 471.526 206.562 471.072 206.277C470.201 205.731 469.766 205.017 469.766 204.138C469.766 203.368 470.079 202.734 470.704 202.235C471.334 201.737 472.15 201.487 473.152 201.487C473.817 201.487 474.409 201.61 474.93 201.855C475.45 202.1 475.859 202.45 476.157 202.905C476.454 203.355 476.603 203.856 476.603 204.407H474.949C474.949 203.909 474.792 203.519 474.477 203.239C474.166 202.955 473.72 202.813 473.138 202.813C472.596 202.813 472.174 202.929 471.872 203.161C471.575 203.392 471.426 203.716 471.426 204.132C471.426 204.482 471.588 204.775 471.911 205.011C472.235 205.243 472.769 205.47 473.512 205.693C474.256 205.912 474.853 206.164 475.304 206.448C475.754 206.728 476.085 207.052 476.295 207.419C476.505 207.782 476.61 208.209 476.61 208.699C476.61 209.495 476.303 210.129 475.691 210.601C475.083 211.07 474.256 211.304 473.211 211.304C472.519 211.304 471.883 211.177 471.301 210.923C470.724 210.665 470.273 210.311 469.949 209.86C469.63 209.409 469.47 208.885 469.47 208.285H471.131C471.131 208.828 471.31 209.248 471.669 209.545C472.027 209.843 472.541 209.991 473.211 209.991C473.788 209.991 474.221 209.875 474.51 209.643C474.803 209.407 474.949 209.097 474.949 208.712ZM481.039 211.304C480.028 211.304 479.208 210.986 478.578 210.352C477.953 209.713 477.64 208.865 477.64 207.806V207.609C477.64 206.901 477.775 206.269 478.047 205.713C478.322 205.153 478.707 204.718 479.201 204.407C479.696 204.097 480.247 203.941 480.855 203.941C481.822 203.941 482.568 204.25 483.093 204.867C483.622 205.483 483.887 206.356 483.887 207.485V208.128H479.247C479.296 208.714 479.49 209.178 479.831 209.519C480.177 209.86 480.61 210.031 481.131 210.031C481.861 210.031 482.456 209.735 482.915 209.145L483.775 209.965C483.491 210.389 483.11 210.72 482.633 210.956C482.161 211.188 481.629 211.304 481.039 211.304ZM480.848 205.221C480.411 205.221 480.057 205.374 479.785 205.68C479.519 205.986 479.348 206.413 479.274 206.96H482.312V206.842C482.277 206.308 482.135 205.906 481.885 205.634C481.636 205.359 481.29 205.221 480.848 205.221ZM489.372 211.172C489.302 211.037 489.241 210.816 489.188 210.51C488.681 211.039 488.06 211.304 487.325 211.304C486.612 211.304 486.03 211.1 485.579 210.693C485.129 210.287 484.904 209.783 484.904 209.184C484.904 208.427 485.184 207.848 485.743 207.445C486.308 207.038 487.113 206.835 488.158 206.835H489.136V206.369C489.136 206.002 489.033 205.709 488.827 205.49C488.622 205.267 488.309 205.155 487.889 205.155C487.526 205.155 487.229 205.247 486.997 205.431C486.765 205.61 486.649 205.84 486.649 206.12H485.055C485.055 205.731 485.184 205.367 485.442 205.031C485.7 204.689 486.05 204.423 486.492 204.23C486.938 204.038 487.434 203.941 487.981 203.941C488.812 203.941 489.475 204.151 489.969 204.571C490.464 204.987 490.717 205.573 490.73 206.33V209.532C490.73 210.171 490.82 210.68 490.999 211.061V211.172H489.372ZM487.62 210.024C487.935 210.024 488.23 209.948 488.506 209.794C488.786 209.641 488.996 209.436 489.136 209.178V207.839H488.276C487.686 207.839 487.242 207.942 486.944 208.147C486.647 208.353 486.498 208.644 486.498 209.02C486.498 209.326 486.599 209.571 486.8 209.755C487.006 209.934 487.279 210.024 487.62 210.024ZM496.118 205.529C495.908 205.494 495.691 205.477 495.468 205.477C494.737 205.477 494.245 205.757 493.992 206.317V211.172H492.397V204.073H493.919L493.959 204.867C494.344 204.25 494.877 203.941 495.56 203.941C495.787 203.941 495.975 203.972 496.124 204.033L496.118 205.529ZM499.91 210.031C500.308 210.031 500.639 209.915 500.901 209.683C501.164 209.451 501.303 209.164 501.321 208.823H502.824C502.806 209.265 502.668 209.678 502.41 210.063C502.152 210.444 501.802 210.746 501.36 210.969C500.919 211.192 500.442 211.304 499.93 211.304C498.937 211.304 498.149 210.982 497.568 210.339C496.986 209.696 496.695 208.808 496.695 207.675V207.511C496.695 206.43 496.984 205.566 497.561 204.919C498.139 204.267 498.926 203.941 499.923 203.941C500.768 203.941 501.454 204.189 501.984 204.683C502.517 205.173 502.797 205.818 502.824 206.619H501.321C501.303 206.212 501.164 205.877 500.901 205.615C500.643 205.352 500.313 205.221 499.91 205.221C499.394 205.221 498.996 205.409 498.716 205.785C498.436 206.157 498.294 206.724 498.289 207.485V207.741C498.289 208.51 498.427 209.086 498.703 209.466C498.983 209.843 499.385 210.031 499.91 210.031ZM505.599 204.847C506.12 204.243 506.778 203.941 507.574 203.941C509.088 203.941 509.856 204.805 509.877 206.533V211.172H508.283V206.592C508.283 206.102 508.176 205.757 507.961 205.556C507.751 205.35 507.441 205.247 507.03 205.247C506.391 205.247 505.914 205.531 505.599 206.1V211.172H504.005V201.094H505.599V204.847Z" fill="#F9F9F9"/>
</g>
</g>
<g opacity="0.5">
<path fill-rule="evenodd" clip-rule="evenodd" d="M528.528 110.673V112.466H521.353V110.673H519.559V112.466H518.662C517.667 112.466 516.877 113.274 516.877 114.26L516.868 126.816C516.868 127.803 517.667 128.61 518.662 128.61H531.218C532.205 128.61 533.012 127.803 533.012 126.816V114.26C533.012 113.274 532.205 112.466 531.218 112.466H530.321V110.673H528.528ZM529.424 120.538H524.94V125.022H529.424V120.538ZM518.662 126.816H531.218V116.951H518.662V126.816Z" fill="#646464"/>
</g>
<path fill-rule="evenodd" clip-rule="evenodd" d="M96.8609 156.054C93.8905 156.054 91.4797 158.465 91.4797 161.435C91.4797 164.405 93.8905 166.816 96.8609 166.816C99.8313 166.816 102.242 164.405 102.242 161.435C102.242 158.465 99.8313 156.054 96.8609 156.054ZM97.3991 164.126H96.3228V160.897H97.3991V164.126ZM96.3228 159.821H97.3991V158.744H96.3228V159.821Z" fill="#C8C8C8"/>
</g>
<defs>
<filter id="filter0_dddddd" x="-86.0986" y="0" width="989.058" height="452.018" filterUnits="userSpaceOnUse" color-interpolation-filters="sRGB">
<feFlood flood-opacity="0" result="BackgroundImageFix"/>
<feColorMatrix in="SourceAlpha" type="matrix" values="0 0 0 0 0 0 0 0 0 0 0 0 0 0 0 0 0 0 127 0" result="hardAlpha"/>
<feOffset dy="2.97821"/>
<feGaussianBlur stdDeviation="1.19129"/>
<feColorMatrix type="matrix" values="0 0 0 0 0 0 0 0 0 0 0 0 0 0 0 0 0 0 0.0196802 0"/>
<feBlend mode="normal" in2="BackgroundImageFix" result="effect1_dropShadow"/>
<feColorMatrix in="SourceAlpha" type="matrix" values="0 0 0 0 0 0 0 0 0 0 0 0 0 0 0 0 0 0 127 0" result="hardAlpha"/>
<feOffset dy="7.15706"/>
<feGaussianBlur stdDeviation="2.86282"/>
<feColorMatrix type="matrix" values="0 0 0 0 0 0 0 0 0 0 0 0 0 0 0 0 0 0 0.0282725 0"/>
<feBlend mode="normal" in2="effect1_dropShadow" result="effect2_dropShadow"/>
<feColorMatrix in="SourceAlpha" type="matrix" values="0 0 0 0 0 0 0 0 0 0 0 0 0 0 0 0 0 0 127 0" result="hardAlpha"/>
<feOffset dy="13.4761"/>
<feGaussianBlur stdDeviation="5.39044"/>
<feColorMatrix type="matrix" values="0 0 0 0 0 0 0 0 0 0 0 0 0 0 0 0 0 0 0.035 0"/>
<feBlend mode="normal" in2="effect2_dropShadow" result="effect3_dropShadow"/>
<feColorMatrix in="SourceAlpha" type="matrix" values="0 0 0 0 0 0 0 0 0 0 0 0 0 0 0 0 0 0 127 0" result="hardAlpha"/>
<feOffset dy="24.0391"/>
<feGaussianBlur stdDeviation="9.61563"/>
<feColorMatrix type="matrix" values="0 0 0 0 0 0 0 0 0 0 0 0 0 0 0 0 0 0 0.0417275 0"/>
<feBlend mode="normal" in2="effect3_dropShadow" result="effect4_dropShadow"/>
<feColorMatrix in="SourceAlpha" type="matrix" values="0 0 0 0 0 0 0 0 0 0 0 0 0 0 0 0 0 0 127 0" result="hardAlpha"/>
<feOffset dy="44.9624"/>
<feGaussianBlur stdDeviation="17.985"/>
<feColorMatrix type="matrix" values="0 0 0 0 0 0 0 0 0 0 0 0 0 0 0 0 0 0 0.0503198 0"/>
<feBlend mode="normal" in2="effect4_dropShadow" result="effect5_dropShadow"/>
<feColorMatrix in="SourceAlpha" type="matrix" values="0 0 0 0 0 0 0 0 0 0 0 0 0 0 0 0 0 0 127 0" result="hardAlpha"/>
<feOffset dy="107.623"/>
<feGaussianBlur stdDeviation="43.0493"/>
<feColorMatrix type="matrix" values="0 0 0 0 0 0 0 0 0 0 0 0 0 0 0 0 0 0 0.07 0"/>
<feBlend mode="normal" in2="effect5_dropShadow" result="effect6_dropShadow"/>
<feBlend mode="normal" in="SourceGraphic" in2="effect6_dropShadow" result="shape"/>
</filter>
<filter id="filter1_d" x="157.944" y="96.5992" width="195.322" height="47.8778" filterUnits="userSpaceOnUse" color-interpolation-filters="sRGB">
<feFlood flood-opacity="0" result="BackgroundImageFix"/>
<feColorMatrix in="SourceAlpha" type="matrix" values="0 0 0 0 0 0 0 0 0 0 0 0 0 0 0 0 0 0 127 0" result="hardAlpha"/>
<feOffset/>
<feGaussianBlur stdDeviation="3.35959"/>
<feColorMatrix type="matrix" values="0 0 0 0 0.117647 0 0 0 0 0.117647 0 0 0 0 0.117647 0 0 0 0.1 0"/>
<feBlend mode="normal" in2="BackgroundImageFix" result="effect1_dropShadow"/>
<feBlend mode="normal" in="SourceGraphic" in2="effect1_dropShadow" result="shape"/>
</filter>
<filter id="filter2_d" x="157.944" y="143.953" width="387.968" height="42.4967" filterUnits="userSpaceOnUse" color-interpolation-filters="sRGB">
<feFlood flood-opacity="0" result="BackgroundImageFix"/>
<feColorMatrix in="SourceAlpha" type="matrix" values="0 0 0 0 0 0 0 0 0 0 0 0 0 0 0 0 0 0 127 0" result="hardAlpha"/>
<feOffset/>
<feGaussianBlur stdDeviation="3.35959"/>
<feColorMatrix type="matrix" values="0 0 0 0 0.117647 0 0 0 0 0.117647 0 0 0 0 0.117647 0 0 0 0.1 0"/>
<feBlend mode="normal" in2="BackgroundImageFix" result="effect1_dropShadow"/>
<feBlend mode="normal" in="SourceGraphic" in2="effect1_dropShadow" result="shape"/>
</filter>
<filter id="filter3_d" x="347.361" y="96.9483" width="198.696" height="47.9942" filterUnits="userSpaceOnUse" color-interpolation-filters="sRGB">
<feFlood flood-opacity="0" result="BackgroundImageFix"/>
<feColorMatrix in="SourceAlpha" type="matrix" values="0 0 0 0 0 0 0 0 0 0 0 0 0 0 0 0 0 0 127 0" result="hardAlpha"/>
<feOffset/>
<feGaussianBlur stdDeviation="3.35959"/>
<feColorMatrix type="matrix" values="0 0 0 0 0.117647 0 0 0 0 0.117647 0 0 0 0 0.117647 0 0 0 0.1 0"/>
<feBlend mode="normal" in2="BackgroundImageFix" result="effect1_dropShadow"/>
<feBlend mode="normal" in="SourceGraphic" in2="effect1_dropShadow" result="shape"/>
</filter>
<clipPath id="clip0">
<rect width="561.794" height="240" fill="white"/>
</clipPath>
<clipPath id="clip1">
<path d="M446.637 194.333C446.637 192.212 448.356 190.493 450.476 190.493H532.066C534.187 190.493 535.906 192.212 535.906 194.333V220.25H446.637V194.333Z" fill="white"/>
</clipPath>
</defs>
</svg>
