<svg width="42" height="42" viewBox="0 0 42 42" fill="none" xmlns="http://www.w3.org/2000/svg">
<path fill-rule="evenodd" clip-rule="evenodd" d="M32.4881 22.4151C31.82 23.2417 31.0738 23.9813 30.2695 24.6403V40.95H35.0842V17.6675C34.5122 19.3699 33.6521 20.9763 32.4881 22.4151Z" stroke="#F3652B"/>
<path fill-rule="evenodd" clip-rule="evenodd" d="M30.0538 20.222C25.9652 25.2735 18.5545 26.0532 13.503 21.9647C8.45155 17.8762 7.66959 10.4654 11.7604 5.41394C15.8489 0.362477 23.2574 -0.41725 28.3111 3.67129C33.3626 7.75983 34.1423 15.1706 30.0538 20.222Z" stroke="#F3652B"/>
<path fill-rule="evenodd" clip-rule="evenodd" d="M1.63831 36.5931V36.5931C0.95689 36.0413 0.851884 35.0337 1.40373 34.3545L12.5768 21.2153L14.3709 22.6675L3.87919 36.3586C3.32735 37.0378 2.31974 37.145 1.63831 36.5931Z" stroke="#F3652B"/>
<path fill-rule="evenodd" clip-rule="evenodd" d="M22.4253 27.9565L22.4253 40.9501H27.2399V26.5557C25.7408 27.2751 24.1233 27.7576 22.4253 27.9565Z" stroke="#F3652B"/>
<path fill-rule="evenodd" clip-rule="evenodd" d="M15.1262 27.0524L14.5789 27.7651L14.5789 40.95H19.3935V27.9997C17.9256 27.8857 16.4913 27.5863 15.1262 27.0524Z" stroke="#F3652B"/>
<path fill-rule="evenodd" clip-rule="evenodd" d="M6.73047 38.002V40.9501H11.5451V31.7195L6.73047 38.002Z" stroke="#F3652B"/>
<path d="M0.524902 41.0172H41.3723" stroke="#F3652B"/>
</svg>
